<?xml version="1.0" encoding="UTF-8" standalone="no"?>
<!-- Generator: Adobe Illustrator 15.1.0, SVG Export Plug-In . SVG Version: 6.00 Build 0)  -->

<svg
   xmlns:dc="http://purl.org/dc/elements/1.1/"
   xmlns:cc="http://creativecommons.org/ns#"
   xmlns:rdf="http://www.w3.org/1999/02/22-rdf-syntax-ns#"
   xmlns:svg="http://www.w3.org/2000/svg"
   xmlns="http://www.w3.org/2000/svg"
   xmlns:sodipodi="http://sodipodi.sourceforge.net/DTD/sodipodi-0.dtd"
   xmlns:inkscape="http://www.inkscape.org/namespaces/inkscape"
   version="1.1"
   id="Layer_2"
   x="0px"
   y="0px"
   width="512"
   height="384"
   viewBox="0 0 512 384"
   enable-background="new 0 0 198 50"
   xml:space="preserve"
   inkscape:version="0.91 r13725"
   sodipodi:docname="homeaway.svg"><metadata
     id="metadata23"><rdf:RDF><cc:Work
         rdf:about=""><dc:format>image/svg+xml</dc:format><dc:type
           rdf:resource="http://purl.org/dc/dcmitype/StillImage" /><dc:title></dc:title></cc:Work></rdf:RDF></metadata><defs
     id="defs21" /><sodipodi:namedview
     pagecolor="#ffffff"
     bordercolor="#666666"
     borderopacity="1"
     objecttolerance="10"
     gridtolerance="10"
     guidetolerance="10"
     inkscape:pageopacity="0"
     inkscape:pageshadow="2"
     inkscape:window-width="942"
     inkscape:window-height="707"
     id="namedview19"
     showgrid="false"
     inkscape:zoom="0.3175"
     inkscape:cx="189.74783"
     inkscape:cy="178.29032"
     inkscape:window-x="0"
     inkscape:window-y="0"
     inkscape:window-maximized="0"
     inkscape:current-layer="Layer_2" /><g
     id="g3"
     transform="matrix(2.5906998,0,0,2.5906998,-7.3700002e-7,117.98371)"><g
       id="g5"><g
         id="HomeAway_xAE__3_"><path
           id="H_3_"
           d="m 3.57,10.69 0,11.56 13.37,0 0,-11.56 3.62,0 0,27.63 -3.62,0 0,-12.96 -13.37,0 0,12.96 -3.57,0 0,-27.63 3.57,0 z"
           inkscape:connector-curvature="0"
           style="fill:#2a6ebb" /><path
           id="o_3_"
           d="m 43.6,28.23 c 0,7.34 -5.09,10.54 -9.88,10.54 -5.37,0 -9.51,-3.94 -9.51,-10.21 0,-6.63 4.35,-10.54 9.84,-10.54 5.7,0.01 9.55,4.14 9.55,10.21 z m -15.73,0.2 c 0,4.36 2.5,7.63 6.03,7.63 3.44,0 6.03,-3.24 6.03,-7.71 0,-3.37 -1.68,-7.63 -5.94,-7.63 -4.28,0.01 -6.12,3.95 -6.12,7.71 z"
           inkscape:connector-curvature="0"
           style="fill:#2a6ebb" /><path
           id="m_3_"
           d="m 47.19,23.85 c 0,-2.05 -0.04,-3.73 -0.16,-5.37 l 3.16,0 0.16,3.19 0.12,0 c 1.11,-1.88 2.95,-3.65 6.24,-3.65 2.7,0 4.75,1.63 5.62,3.97 l 0.09,0 c 0.62,-1.1 1.4,-1.97 2.22,-2.59 1.19,-0.89 2.5,-1.39 4.38,-1.39 2.62,0 6.52,1.72 6.52,8.62 l 0,11.69 -3.54,0 0,-11.23 c 0,-3.81 -1.4,-6.1 -4.31,-6.1 -2.05,0 -3.65,1.51 -4.26,3.28 -0.16,0.49 -0.28,1.15 -0.28,1.81 l 0,12.25 -3.53,0 0,-11.89 c 0,-3.16 -1.39,-5.46 -4.15,-5.46 -2.25,0 -3.89,1.81 -4.47,3.6 -0.21,0.53 -0.28,1.15 -0.28,1.76 l 0,11.98 -3.53,0 0,-14.47 0,0 z"
           inkscape:connector-curvature="0"
           style="fill:#2a6ebb" /><path
           id="e_3_"
           d="m 82.54,28.86 c 0.09,4.98 3.26,7.03 6.95,7.03 2.64,0 4.22,-0.46 5.61,-1.05 l 0.62,2.64 c -1.3,0.58 -3.52,1.29 -6.73,1.29 -6.23,0 -9.95,-4.13 -9.95,-10.25 0,-6.12 3.6,-10.92 9.5,-10.92 6.61,0 8.37,5.81 8.37,9.53 0,0.76 -0.09,1.34 -0.12,1.71 l -14.25,0 0,0.02 z m 10.78,-2.62 c 0.05,-2.34 -0.95,-5.98 -5.1,-5.98 -3.73,0 -5.35,3.43 -5.64,5.98 l 10.74,0 z"
           inkscape:connector-curvature="0"
           style="fill:#2a6ebb" /><path
           id="A_3_"
           d="m 105.16,29.46 -2.93,8.87 -3.76,0 9.58,-28.19 4.39,0 9.62,28.19 -3.89,0 -3.01,-8.87 -10,0 z m 9.24,-2.85 -2.76,-8.11 c -0.63,-1.84 -1.04,-3.52 -1.46,-5.15 l -0.09,0 c -0.42,1.67 -0.88,3.39 -1.42,5.1 l -2.76,8.16 8.49,0 0,0 z"
           inkscape:connector-curvature="0"
           style="fill:#2a6ebb" /><path
           id="w_3_"
           d="m 125.69,18.08 2.67,10.29 c 0.58,2.27 1.13,4.34 1.51,6.45 l 0.13,0 c 0.46,-2.06 1.12,-4.22 1.79,-6.45 l 3.3,-10.29 3.1,0 3.13,10.13 c 0.75,2.43 1.34,4.56 1.79,6.61 l 0.12,0 c 0.33,-2.06 0.88,-4.18 1.55,-6.58 l 2.88,-10.16 3.64,0 -6.51,20.24 -3.36,0 -3.09,-9.66 c -0.71,-2.25 -1.3,-4.27 -1.8,-6.65 l -0.09,0 c -0.51,2.43 -1.13,4.52 -1.85,6.7 l -3.26,9.61 -3.34,0 -6.1,-20.24 3.79,0 0,0 z"
           inkscape:connector-curvature="0"
           style="fill:#2a6ebb" /><path
           id="a_3_"
           d="m 168.08,33.47 c 0,1.76 0.09,3.47 0.33,4.85 l -3.34,0 -0.3,-2.55 -0.12,0 c -1.14,1.58 -3.31,3.01 -6.19,3.01 -4.11,0 -6.19,-2.88 -6.19,-5.82 0,-4.89 4.35,-7.56 12.17,-7.53 l 0,-0.42 c 0,-1.67 -0.46,-4.68 -4.59,-4.68 -1.88,0 -3.85,0.58 -5.27,1.51 l -0.83,-2.43 c 1.67,-1.09 4.1,-1.8 6.65,-1.8 6.19,0 7.7,4.22 7.7,8.28 l -0.02,7.58 0,0 z m -3.56,-5.49 c -4.01,-0.09 -8.57,0.63 -8.57,4.56 0,2.38 1.59,3.52 3.47,3.52 2.64,0 4.31,-1.67 4.89,-3.39 0.12,-0.38 0.21,-0.79 0.21,-1.18 l 0,-3.51 0,0 z"
           inkscape:connector-curvature="0"
           style="fill:#2a6ebb" /><path
           id="y_3_"
           d="m 174.05,18.08 4.43,11.96 c 0.46,1.34 0.97,2.92 1.3,4.14 l 0.09,0 c 0.37,-1.21 0.79,-2.76 1.3,-4.22 l 4.01,-11.89 3.89,0 -5.52,14.42 c -2.32,6.08 -4.16,9.71 -6.95,12.12 -1.79,1.58 -3.59,2.21 -4.52,2.39 l -0.91,-3.09 c 0.91,-0.3 2.13,-0.88 3.22,-1.8 1,-0.79 2.25,-2.22 3.1,-4.1 0.16,-0.38 0.3,-0.67 0.3,-0.88 0,-0.21 -0.09,-0.5 -0.26,-0.95 l -7.48,-18.1 4,0 0,0 0,0 z"
           inkscape:connector-curvature="0"
           style="fill:#2a6ebb" /><g
           id="_xAE__3_"><path
             d="m 197.63,20.26 c 0,1.48 -1.2,2.67 -2.72,2.67 -1.52,0 -2.74,-1.19 -2.74,-2.67 0,-1.49 1.21,-2.65 2.75,-2.65 1.51,0 2.71,1.16 2.71,2.65 z m -4.77,0 c 0,1.19 0.89,2.12 2.07,2.12 1.15,0.03 2.02,-0.93 2.02,-2.09 0,-1.18 -0.88,-2.13 -2.05,-2.13 -1.14,-0.02 -2.04,0.93 -2.04,2.1 z m 1.64,1.37 -0.62,0 0,-2.65 c 0.25,-0.04 0.58,-0.09 1.02,-0.09 0.51,0 0.73,0.09 0.9,0.21 0.16,0.11 0.27,0.31 0.27,0.57 0,0.32 -0.25,0.53 -0.54,0.63 l 0,0.04 c 0.26,0.09 0.38,0.29 0.47,0.64 0.09,0.4 0.15,0.54 0.2,0.64 l -0.64,0 c -0.09,-0.1 -0.12,-0.32 -0.21,-0.64 -0.05,-0.27 -0.21,-0.41 -0.56,-0.41 l -0.3,0 0.01,1.06 0,0 z m 0.01,-1.48 0.3,0 c 0.33,0 0.61,-0.11 0.61,-0.38 0,-0.25 -0.17,-0.41 -0.57,-0.41 -0.16,0 -0.27,0.01 -0.33,0.04 l -0.01,0.75 0,0 z"
             id="path17"
             inkscape:connector-curvature="0"
             style="fill:#2a6ebb" /></g></g></g></g></svg>