<?xml version="1.0" encoding="utf-8"?>
<!-- Generator: Adobe Illustrator 19.1.0, SVG Export Plug-In . SVG Version: 6.00 Build 0)  -->
<svg version="1.1" id="Layer_1" xmlns="http://www.w3.org/2000/svg" xmlns:xlink="http://www.w3.org/1999/xlink" x="0px" y="0px"
	 viewBox="0 0 1280 800" style="enable-background:new 0 0 1280 800;" xml:space="preserve">
<style type="text/css">
	.st0{fill:#0086CB;}
	.st1{fill:#ADB2B7;}
	.st2{fill:#00AEEF;}
	.st3{fill:#353535;}
	.st4{fill:#C53C02;}
	.st5{fill:#751B00;}
	.st6{fill:#265A8F;}
	.st7{fill:#162F51;}
	.st8{fill:#FDEE00;}
	.st9{fill:#ECC700;}
</style>
<g>
	<g>
		<path class="st0" d="M494.5,664.2c-16.6,0-31.6,6.7-42.5,17.6c-10.9,10.9-17.6,25.9-17.6,42.5c0,16.6,6.7,31.6,17.6,42.5
			c10.9,10.9,25.9,17.6,42.5,17.6c16.6,0,31.6-6.7,42.4-17.6c10.9-10.9,17.6-25.9,17.6-42.5c0-16.6-6.7-31.6-17.6-42.5
			C526,670.9,511,664.2,494.5,664.2 M541.8,676.9L541.8,676.9 M494.5,656.9c37.2,0,67.3,30.1,67.3,67.3c0,37.2-30.1,67.3-67.3,67.3
			c-37.2,0-67.3-30.1-67.3-67.3C427.1,687.1,457.3,656.9,494.5,656.9 M447.1,676.9L447.1,676.9"/>
		<path class="st0" d="M462.6,723.7c0-3.9-2.6-6.2-6.3-6.2h-2.3v12.3h2.2C459.7,729.9,462.6,728,462.6,723.7 M502.8,728.1
			l-16.6,13.1l-15.2-12c-2.2,5.3-7.5,8.9-13.6,8.9h-13v-29h13c6.8,0,11.7,4.3,13.6,8.9l15.2-12l5.6,4.4l-13.9,11l2.7,2.1l13.9-10.9
			l5.6,4.4l-13.9,10.9l2.7,2.1l13.9-10.9v-10h10.1v20.5h10.1v8.5h-20.2V728.1z M535.7,729.7h10.1v8.5h-20.2v-29h10.1V729.7z"/>
		<rect x="665.4" y="657.3" class="st1" width="3.4" height="134.7"/>
	</g>
	<g>
		<g>
			<polygon class="st2" points="820.7,722.9 878.9,722.9 878.9,671.2 820.7,679.4 			"/>
			<polygon class="st2" points="818.9,722.9 818.9,679.6 774.3,685.9 774.3,722.9 			"/>
			<polygon class="st2" points="818.9,724.6 774.3,724.6 774.3,761.6 818.9,767.8 			"/>
			<polygon class="st2" points="820.7,724.6 820.7,768.1 878.9,776.2 878.9,724.6 			"/>
		</g>
		<g>
			<path class="st2" d="M1004.4,696.5c0,1.3-0.5,2.4-1.4,3.3c-0.9,0.9-2,1.3-3.3,1.3c-1.3,0-2.4-0.4-3.3-1.3c-0.9-0.8-1.3-2-1.3-3.4
				c0-1.2,0.4-2.3,1.3-3.2c0.9-0.9,2-1.4,3.3-1.4c1.3,0,2.4,0.4,3.3,1.3C1004,694.1,1004.4,695.2,1004.4,696.5z"/>
		</g>
		<g>
			<path class="st2" d="M990.5,693.2L973,755.3h-8.5l-13.8-49.2h-0.2l-13.8,49.2h-8.4l-18.1-62.1h7.9l14.3,51.8h0.2l14.9-51.8h7
				l14.1,52h0.2l13.8-52H990.5z"/>
			<path class="st2" d="M1003.4,755.3h-7.1v-44.3h7.1V755.3z"/>
			<path class="st2" d="M1050.7,755.3h-7.1V730c0-9.4-3.4-14.1-10.3-14.1c-3.5,0-6.4,1.3-8.7,4c-2.3,2.6-3.5,6-3.5,10.1v25.3h-7.1
				v-44.3h7.1v7.4h0.2c3.3-5.6,8.1-8.4,14.5-8.4c4.9,0,8.6,1.6,11.1,4.8c2.5,3.2,3.8,7.7,3.8,13.5V755.3z"/>
			<path class="st2" d="M1099.4,755.3h-7.1v-7.5h-0.2c-3.3,5.7-8.3,8.6-15.2,8.6c-5.6,0-10-2-13.3-6c-3.3-4-5-9.4-5-16.1
				c0-7.3,1.8-13.2,5.5-17.7c3.7-4.4,8.6-6.7,14.7-6.7c6,0,10.4,2.4,13.2,7.2h0.2v-27.4h7.1V755.3z M1092.3,735.2v-6.5
				c0-3.7-1.2-6.7-3.6-9.1c-2.4-2.4-5.4-3.6-8.9-3.6c-4.3,0-7.6,1.6-10.1,4.7c-2.5,3.2-3.8,7.5-3.8,13.1c0,5.1,1.2,9.1,3.5,12.1
				c2.4,3,5.5,4.4,9.5,4.4c3.9,0,7.1-1.4,9.6-4.2C1091.1,743.2,1092.3,739.6,1092.3,735.2z"/>
			<path class="st2" d="M1151.8,732.9c0,7-2,12.7-6,17c-4,4.3-9.3,6.4-16,6.4c-6.5,0-11.7-2.1-15.6-6.3c-3.9-4.2-5.8-9.7-5.8-16.5
				c0-7.3,2-13.1,6-17.4c4-4.3,9.5-6.4,16.5-6.4c6.6,0,11.7,2.1,15.4,6.2C1150,720.1,1151.8,725.8,1151.8,732.9z M1144.6,733.2
				c0-5.6-1.2-9.8-3.7-12.8c-2.5-3-6-4.5-10.5-4.5c-4.5,0-8.1,1.5-10.8,4.6c-2.6,3-4,7.3-4,12.9c0,5.3,1.3,9.5,4,12.4
				c2.7,3,6.2,4.5,10.8,4.5c4.6,0,8.1-1.5,10.6-4.4C1143.4,742.9,1144.6,738.7,1144.6,733.2z"/>
			<path class="st2" d="M1216,710.9l-13.2,44.3h-7.3l-9.9-34.4h-0.2l-10.7,34.4h-7.1l-13.3-44.3h7.4l9.7,35.7h0.3l10.9-35.7h6.5
				l9.8,35.7h0.3l9.7-35.7H1216z"/>
			<path class="st2" d="M1246,743.4c0,3.8-1.5,7-4.4,9.3c-2.9,2.4-6.9,3.6-11.7,3.6c-4.2,0-7.8-0.9-10.9-2.7V746
				c3.5,2.8,7.3,4.2,11.5,4.2c5.6,0,8.4-2.1,8.4-6.2c0-1.7-0.5-3-1.6-4.1c-1.1-1.1-3.6-2.5-7.5-4.3c-3.9-1.7-6.7-3.5-8.3-5.4
				c-1.6-1.9-2.4-4.5-2.4-7.6c0-3.7,1.5-6.7,4.4-9.2c2.9-2.5,6.7-3.7,11.2-3.7c3.5,0,6.6,0.7,9.4,2.1v7.1c-2.9-2.1-6.2-3.2-10-3.2
				c-2.3,0-4.2,0.6-5.6,1.7c-1.4,1.2-2.1,2.6-2.1,4.5c0,2,0.5,3.5,1.6,4.5c1.1,1.1,3.3,2.3,6.8,3.7c4.2,1.8,7.1,3.7,8.8,5.6
				C1245.1,738,1246,740.4,1246,743.4z"/>
		</g>
	</g>
	<g>
		<path class="st3" d="M62.5,714.8c0,4.3-1.4,7.5-4.3,9.8c-2.9,2.3-7,3.4-12.3,3.4h-6.8v18.2H36v-44.1h10.8
			C57.3,702.1,62.5,706.3,62.5,714.8 M39.1,725.3h6.1c5,0,8.6-0.8,10.8-2.5c2.2-1.6,3.3-4.3,3.3-8c0-3.4-1-5.9-3.1-7.6
			c-2.1-1.6-5.3-2.5-9.7-2.5h-7.3V725.3z"/>
		<path class="st3" d="M109.2,724.1c0,7-1.7,12.5-5.2,16.6c-3.5,4.1-8.3,6.1-14.5,6.1c-6.1,0-11-2-14.4-6.1
			c-3.5-4.1-5.2-9.6-5.2-16.7c0-7,1.8-12.5,5.3-16.6c3.5-4,8.4-6,14.5-6c6.2,0,11,2,14.4,6.1C107.5,711.5,109.2,717.1,109.2,724.1
			 M73.1,724.1c0,6.3,1.4,11.2,4.2,14.6c2.8,3.4,6.9,5.2,12.1,5.2c5.3,0,9.4-1.7,12.2-5.1c2.8-3.4,4.2-8.3,4.2-14.7
			c0-6.4-1.4-11.2-4.2-14.6c-2.8-3.4-6.8-5.1-12.1-5.1c-5.2,0-9.3,1.7-12.1,5.1C74.5,712.9,73.1,717.8,73.1,724.1"/>
		<path class="st3" d="M154.5,746.2h-2.5l-9.7-34c-0.8-2.8-1.4-5.1-1.8-6.9c-0.3,1.7-0.8,3.8-1.4,6c-0.6,2.3-3.8,13.9-9.7,34.9h-2.6
			l-12.1-44.1h3.2l7.7,28.4c0.3,1.1,0.6,2.2,0.8,3.2c0.3,1,0.5,1.9,0.7,2.7c0.2,0.9,0.4,1.7,0.6,2.5c0.2,0.8,0.3,1.6,0.5,2.4
			c0.5-2.7,1.5-6.9,3.1-12.5l7.5-26.8h3.4l8.8,30.7c1,3.5,1.8,6.4,2.2,8.6c0.3-1.4,0.6-3,1-4.6c0.4-1.6,3.5-13.2,9.3-34.7h3.1
			L154.5,746.2z"/>
		<polygon class="st3" points="198.5,746.2 174.4,746.2 174.4,702.1 198.5,702.1 198.5,704.9 177.5,704.9 177.5,721.6 197.3,721.6 
			197.3,724.4 177.5,724.4 177.5,743.4 198.5,743.4 		"/>
		<path class="st3" d="M211.6,727v19.2h-3.1v-44.1H219c5.5,0,9.5,1,12.1,3c2.6,2,3.9,5.1,3.9,9.1c0,3-0.8,5.4-2.3,7.5
			c-1.6,2-3.9,3.5-7.1,4.4l12,20.1h-3.7L222.5,727H211.6z M211.6,724.3h8.4c3.7,0,6.6-0.8,8.7-2.5c2-1.7,3.1-4.1,3.1-7.3
			c0-3.4-1-5.8-3-7.3c-2-1.5-5.3-2.3-9.8-2.3h-7.3V724.3z"/>
		<polygon class="st3" points="269.3,746.2 245.2,746.2 245.2,702.1 269.3,702.1 269.3,704.9 248.3,704.9 248.3,721.6 268.1,721.6 
			268.1,724.4 248.3,724.4 248.3,743.4 269.3,743.4 		"/>
		<path class="st3" d="M312.8,723.7c0,7.4-1.9,13-5.8,16.8c-3.9,3.8-9.6,5.7-17.1,5.7h-10.6v-44.1h11.9c7,0,12.4,1.8,16.1,5.5
			C310.9,711.3,312.8,716.7,312.8,723.7 M309.4,723.8c0-6.3-1.6-11.1-4.8-14.2c-3.2-3.2-7.9-4.8-14.1-4.8h-8.1v38.7h7.3
			C302.8,743.5,309.4,736.9,309.4,723.8"/>
		<path class="st3" d="M338.9,702.1H351c5.4,0,9.4,0.9,12,2.8c2.6,1.9,3.8,4.6,3.8,8.4c0,2.6-0.8,4.7-2.3,6.4
			c-1.6,1.7-3.8,2.8-6.8,3.3v0.2c3.5,0.5,6.1,1.6,7.8,3.3c1.7,1.7,2.5,4.1,2.5,7.1c0,4.1-1.3,7.2-4,9.4c-2.7,2.2-6.5,3.3-11.5,3.3
			h-13.5V702.1z M342,721.7h9.7c4.1,0,7.1-0.7,9-2.1c1.9-1.4,2.8-3.5,2.8-6.5c0-2.9-1.1-5.1-3.2-6.4c-2.1-1.3-5.3-2-9.5-2H342V721.7
			z M342,724.4v19h10.4c8.2,0,12.2-3.3,12.2-10c0-6.1-4.3-9.1-12.9-9.1H342z"/>
		<polygon class="st3" points="387.8,726.2 400.7,702.1 404,702.1 389.3,729.2 389.3,746.2 386.2,746.2 386.2,729.4 371.4,702.1 
			375,702.1 		"/>
	</g>
	<g>
		<path class="st3" d="M64.8,479.9c1.4,0.6,2.6,1.4,3.6,2.4c1,1,1.8,2.2,2.4,3.6c0.6,1.4,0.9,2.8,0.9,4.4v54.4
			c0,0.5-0.2,0.9-0.5,1.3c-0.4,0.4-0.8,0.5-1.3,0.5H56.4c-0.5,0-0.9-0.2-1.2-0.5c-0.3-0.4-0.5-0.8-0.5-1.3v-49.3H43.9v49.3
			c0,0.5-0.2,0.9-0.5,1.3c-0.3,0.4-0.7,0.5-1.3,0.5H30c-0.5,0-0.9-0.2-1.3-0.5c-0.4-0.4-0.5-0.8-0.5-1.3v-49.3H17.3v49.3
			c0,1.2-0.6,1.8-1.8,1.8H2.2c-1.2,0-1.8-0.6-1.8-1.8v-63.9c0-1.2,0.6-1.8,1.8-1.8h58.2C61.9,479,63.4,479.3,64.8,479.9"/>
		<path class="st3" d="M132.3,479c1.5,0,3,0.3,4.4,0.9c1.4,0.6,2.6,1.4,3.6,2.4c1,1,1.8,2.2,2.4,3.6c0.6,1.4,0.9,2.8,0.9,4.4v54.4
			c0,0.5-0.2,1-0.5,1.3c-0.4,0.4-0.8,0.5-1.3,0.5h-13.4c-0.5,0-0.9-0.2-1.3-0.5c-0.4-0.4-0.5-0.8-0.5-1.3v-17.3
			c0-0.5-0.2-0.9-0.5-1.3c-0.3-0.4-0.7-0.5-1.3-0.5h-19.1c-0.5,0-0.9,0.2-1.3,0.5c-0.4,0.4-0.5,0.8-0.5,1.3v17.3
			c0,1.2-0.6,1.8-1.8,1.8H88.7c-1.2,0-1.8-0.6-1.8-1.8v-54.4c0-1.5,0.3-3,0.9-4.4c0.6-1.4,1.4-2.6,2.4-3.6c1-1,2.2-1.8,3.6-2.4
			c1.4-0.6,2.8-0.9,4.4-0.9H132.3z M126.5,494.1h-22.7v17h22.7V494.1z"/>
		<path class="st3" d="M204.4,479.5c0.4,0.4,0.5,0.8,0.5,1.3v54.4c0,1.5-0.3,3-0.9,4.4c-0.6,1.4-1.4,2.6-2.4,3.6
			c-1,1-2.2,1.8-3.6,2.4c-1.4,0.6-2.8,0.9-4.4,0.9h-29.1c-1.5,0-3-0.3-4.4-0.9c-1.4-0.6-2.6-1.4-3.6-2.4c-1-1-1.8-2.2-2.4-3.6
			c-0.6-1.4-0.9-2.8-0.9-4.4v-20.7c0-1.2,0.6-1.8,1.8-1.8h13.3c1.2,0,1.8,0.6,1.8,1.8v13.8c0,0.5,0.2,0.9,0.5,1.3
			c0.4,0.3,0.8,0.5,1.3,0.5h14c0.5,0,1-0.2,1.3-0.5c0.4-0.3,0.5-0.7,0.5-1.3v-47.6c0-0.5,0.2-1,0.5-1.3c0.3-0.4,0.7-0.5,1.3-0.5H203
			C203.6,479,204,479.2,204.4,479.5"/>
		<path class="st3" d="M265.4,479c1.5,0,3,0.3,4.4,0.9c1.4,0.6,2.6,1.4,3.6,2.4c1,1,1.8,2.2,2.4,3.6c0.6,1.4,0.9,2.8,0.9,4.4v45
			c0,1.5-0.3,3-0.9,4.4c-0.6,1.4-1.4,2.6-2.4,3.6c-1,1-2.2,1.8-3.6,2.4c-1.4,0.6-2.8,0.9-4.4,0.9h-34.2c-1.5,0-3-0.3-4.4-0.9
			c-1.4-0.6-2.6-1.4-3.6-2.4c-1-1-1.8-2.2-2.4-3.6c-0.6-1.4-0.9-2.8-0.9-4.4v-45c0-1.5,0.3-3,0.9-4.4c0.6-1.4,1.4-2.6,2.4-3.6
			c1-1,2.2-1.8,3.6-2.4c1.4-0.6,2.9-0.9,4.4-0.9H265.4z M259.6,495.4h-22.7v34.8h22.7V495.4z"/>
		<path class="st3" d="M350.7,545c0.3,0.5,0.3,0.8,0.1,1.1c-0.2,0.3-0.5,0.4-1.1,0.4h-15.3c-0.5,0-1-0.1-1.5-0.4
			c-0.5-0.3-0.9-0.7-1.2-1.1l-10.2-18.3c-0.1-0.3-0.4-0.4-0.7-0.4h-11.5c-0.3,0-0.5,0.2-0.5,0.5v18c0,1.2-0.6,1.8-1.8,1.8h-13.3
			c-1.2,0-1.8-0.6-1.8-1.8v-63.9c0-1.2,0.6-1.8,1.8-1.8h43.6c1.5,0,3,0.3,4.4,0.9c1.4,0.6,2.6,1.4,3.6,2.4c1,1,1.8,2.2,2.4,3.6
			c0.6,1.4,0.9,2.8,0.9,4.4v25.4c0,2.4-0.7,4.7-2.2,6.6c-1.4,2-3.3,3.3-5.6,4l-0.3,0.1c-0.4,0.1-0.5,0.3-0.3,0.6l0.1,0.2L350.7,545z
			 M331.5,494.7h-23.3v16.4h23.3V494.7z"/>
		<path class="st3" d="M441.8,530.1c0.5,0,0.9,0.2,1.3,0.5c0.3,0.4,0.5,0.8,0.5,1.3v12.7c0,0.5-0.2,0.9-0.5,1.3
			c-0.3,0.4-0.7,0.5-1.3,0.5h-41.7c-1.2,0-1.8-0.6-1.8-1.8v-63.9c0-1.2,0.6-1.8,1.8-1.8h13.3c1.2,0,1.8,0.6,1.8,1.8v47.6
			c0,0.5,0.2,0.9,0.5,1.3c0.4,0.3,0.8,0.5,1.3,0.5H441.8z"/>
		<path class="st3" d="M504.1,479.5c0.3,0.4,0.5,0.8,0.5,1.3v5.5v2.9v3.8c0,0.5-0.2,0.9-0.5,1.3c-0.4,0.3-0.8,0.5-1.3,0.5h-6.9
			h-20.1h-5.4c-0.3,0-0.5,0.2-0.5,0.5v10.5c0,0.3,0.2,0.4,0.5,0.4h27.6c0.5,0,0.9,0.2,1.2,0.5c0.3,0.4,0.5,0.8,0.5,1.3v9.7
			c0,0.5-0.2,0.9-0.5,1.3c-0.3,0.4-0.7,0.5-1.2,0.5h-27.6c-0.3,0-0.5,0.2-0.5,0.5v4.7v0.1v5.6c0,0.3,0.2,0.5,0.5,0.5h4.1h21.8h6.5
			c0.5,0,0.9,0.2,1.3,0.5c0.3,0.4,0.5,0.8,0.5,1.3v3.9v5v3.2c0,0.5-0.2,0.9-0.5,1.3c-0.4,0.4-0.8,0.5-1.3,0.5h-5.5h-36.7h-5.8
			c-1.2,0-1.8-0.6-1.8-1.8v-3.3v-56v-4.6c0-0.5,0.2-1,0.5-1.3c0.4-0.4,0.8-0.5,1.3-0.5h7h37.8h3.1
			C503.3,479,503.7,479.2,504.1,479.5"/>
		<path class="st3" d="M565.3,479c1.5,0,3,0.3,4.4,0.9c1.4,0.6,2.6,1.4,3.6,2.4c1,1,1.8,2.2,2.4,3.6c0.6,1.4,0.9,2.8,0.9,4.4v54.4
			c0,0.5-0.2,1-0.5,1.3c-0.4,0.4-0.8,0.5-1.3,0.5h-13.4c-0.5,0-1-0.2-1.3-0.5c-0.4-0.4-0.5-0.8-0.5-1.3v-17.3c0-0.5-0.2-0.9-0.5-1.3
			c-0.3-0.4-0.7-0.5-1.3-0.5h-19.1c-0.5,0-0.9,0.2-1.3,0.5c-0.4,0.4-0.5,0.8-0.5,1.3v17.3c0,1.2-0.6,1.8-1.8,1.8h-13.3
			c-1.2,0-1.8-0.6-1.8-1.8v-54.4c0-1.5,0.3-3,0.9-4.4c0.6-1.4,1.4-2.6,2.4-3.6c1-1,2.2-1.8,3.6-2.4c1.4-0.6,2.9-0.9,4.4-0.9H565.3z
			 M559.5,494.1h-22.7v17h22.7V494.1z"/>
		<path class="st3" d="M647.9,510.2c0.4,0.4,0.5,0.8,0.5,1.3v23.7c0,1.5-0.3,3-0.9,4.4c-0.6,1.4-1.4,2.6-2.4,3.6
			c-1,1-2.2,1.8-3.6,2.4c-1.4,0.6-2.8,0.9-4.4,0.9H603c-1.5,0-3-0.3-4.4-0.9c-1.4-0.6-2.6-1.4-3.6-2.4c-1-1-1.8-2.2-2.4-3.6
			c-0.6-1.4-0.9-2.8-0.9-4.4v-45c0-1.5,0.3-3,0.9-4.4c0.6-1.4,1.4-2.6,2.4-3.6c1-1,2.2-1.8,3.6-2.4c1.4-0.6,2.9-0.9,4.4-0.9h39.9
			c0.5,0,1,0.2,1.3,0.5c0.4,0.4,0.5,0.8,0.5,1.3v12.7c0,0.5-0.2,0.9-0.5,1.3c-0.4,0.4-0.8,0.5-1.3,0.5h-32.3c-0.5,0-0.9,0.2-1.3,0.5
			c-0.4,0.3-0.5,0.7-0.5,1.3v31.3c0,0.5,0.2,0.9,0.5,1.3c0.4,0.3,0.8,0.5,1.3,0.5h19.1c0.5,0,0.9-0.2,1.2-0.5
			c0.3-0.3,0.5-0.7,0.5-1.3v-16.9c0-0.5,0.2-0.9,0.5-1.3c0.4-0.4,0.8-0.5,1.3-0.5h13.4C647.1,509.7,647.6,509.9,647.9,510.2"/>
		<path class="st3" d="M719.2,479.5c0.3,0.4,0.5,0.8,0.5,1.3v54.4c0,1.5-0.3,3-0.9,4.4c-0.6,1.4-1.4,2.6-2.4,3.6
			c-1,1-2.2,1.8-3.6,2.4c-1.4,0.6-2.9,0.9-4.4,0.9h-34.2c-1.5,0-3-0.3-4.4-0.9c-1.4-0.6-2.6-1.4-3.6-2.4c-1-1-1.8-2.2-2.4-3.6
			c-0.6-1.4-0.9-2.8-0.9-4.4v-54.4c0-1.2,0.6-1.8,1.8-1.8h13.3c1.2,0,1.8,0.6,1.8,1.8v47.6c0,0.5,0.2,0.9,0.5,1.3
			c0.4,0.3,0.8,0.5,1.3,0.5h19.1c0.5,0,0.9-0.2,1.3-0.5c0.3-0.3,0.5-0.7,0.5-1.3v-47.6c0-0.5,0.2-1,0.5-1.3c0.4-0.4,0.8-0.5,1.3-0.5
			h13.4C718.4,479,718.8,479.2,719.2,479.5"/>
		<path class="st3" d="M786.1,479.5c0.3,0.4,0.5,0.8,0.5,1.3v5.5v2.9v3.8c0,0.5-0.2,0.9-0.5,1.3c-0.4,0.3-0.8,0.5-1.3,0.5h-6.9
			h-20.1h-5.4c-0.3,0-0.5,0.2-0.5,0.5v10.5c0,0.3,0.2,0.4,0.5,0.4H780c0.5,0,0.9,0.2,1.2,0.5c0.3,0.4,0.5,0.8,0.5,1.3v9.7
			c0,0.5-0.2,0.9-0.5,1.3c-0.3,0.4-0.7,0.5-1.2,0.5h-27.6c-0.3,0-0.5,0.2-0.5,0.5v4.7v0.1v5.6c0,0.3,0.2,0.5,0.5,0.5h4.1h21.8h6.5
			c0.5,0,0.9,0.2,1.3,0.5c0.3,0.4,0.5,0.8,0.5,1.3v3.9v5v3.2c0,0.5-0.2,0.9-0.5,1.3c-0.4,0.4-0.8,0.5-1.3,0.5h-5.5h-36.7h-5.8
			c-1.2,0-1.8-0.6-1.8-1.8v-3.3v-56v-4.6c0-0.5,0.2-1,0.5-1.3c0.4-0.4,0.8-0.5,1.3-0.5h7h37.8h3.1
			C785.3,479,785.7,479.2,786.1,479.5"/>
		<path class="st3" d="M889.7,479c0.5,0,0.9,0.2,1.3,0.5c0.4,0.4,0.5,0.8,0.5,1.3v63.9c0,0.5-0.2,0.9-0.5,1.3
			c-0.4,0.4-0.8,0.5-1.3,0.5h-13.4c-0.5,0-0.9-0.2-1.3-0.5c-0.4-0.4-0.5-0.8-0.5-1.3v-22.3c0-0.5-0.2-0.9-0.5-1.3
			c-0.3-0.3-0.7-0.5-1.3-0.5h-19.1c-0.5,0-0.9,0.2-1.3,0.5c-0.4,0.3-0.5,0.7-0.5,1.3v22.3c0,1.2-0.6,1.8-1.8,1.8h-13.3
			c-1.2,0-1.8-0.6-1.8-1.8v-63.9c0-1.2,0.6-1.8,1.8-1.8h13.3c1.2,0,1.8,0.6,1.8,1.8v21.6c0,1.2,0.6,1.8,1.8,1.8h19.1
			c0.5,0,0.9-0.2,1.3-0.5c0.3-0.4,0.5-0.8,0.5-1.3v-21.6c0-0.5,0.2-0.9,0.5-1.3c0.4-0.4,0.8-0.5,1.3-0.5H889.7z"/>
		<path class="st3" d="M952.2,479c1.5,0,3,0.3,4.4,0.9c1.4,0.6,2.6,1.4,3.6,2.4c1,1,1.8,2.2,2.4,3.6c0.6,1.4,0.9,2.8,0.9,4.4v54.4
			c0,0.5-0.2,1-0.5,1.3c-0.4,0.4-0.8,0.5-1.3,0.5h-13.4c-0.5,0-0.9-0.2-1.3-0.5c-0.4-0.4-0.5-0.8-0.5-1.3v-17.3
			c0-0.5-0.2-0.9-0.5-1.3c-0.3-0.4-0.7-0.5-1.3-0.5h-19.1c-0.5,0-1,0.2-1.3,0.5c-0.4,0.4-0.5,0.8-0.5,1.3v17.3
			c0,1.2-0.6,1.8-1.8,1.8h-13.3c-1.2,0-1.8-0.6-1.8-1.8v-54.4c0-1.5,0.3-3,0.9-4.4c0.6-1.4,1.4-2.6,2.4-3.6c1-1,2.2-1.8,3.6-2.4
			c1.4-0.6,2.8-0.9,4.4-0.9H952.2z M946.4,494.1h-22.7v17h22.7V494.1z"/>
		<path class="st3" d="M996,495.9c-0.4,0.3-0.5,0.7-0.5,1.3v31.3c0,0.5,0.2,0.9,0.5,1.3c0.4,0.3,0.8,0.5,1.3,0.5h31
			c0.5,0,1,0.2,1.3,0.5c0.4,0.4,0.5,0.8,0.5,1.3v12.7c0,0.5-0.2,1-0.5,1.3c-0.4,0.4-0.8,0.5-1.3,0.5h-20.2h-16.6h-1.7
			c-1.5,0-3-0.3-4.4-0.9c-1.4-0.6-2.6-1.4-3.6-2.4c-1-1-1.8-2.2-2.4-3.6c-0.6-1.4-0.9-2.9-0.9-4.4v-1.7v-7V504v-6.3v-7.4
			c0-1.5,0.3-3,0.9-4.4c0.6-1.4,1.4-2.6,2.4-3.6c1-1,2.2-1.8,3.6-2.4c1.4-0.6,2.8-0.9,4.4-0.9h1.7h36.8c0.5,0,1,0.2,1.3,0.5
			c0.4,0.4,0.5,0.8,0.5,1.3v12.7c0,0.5-0.2,0.9-0.5,1.3c-0.4,0.4-0.8,0.5-1.3,0.5h-31C996.8,495.4,996.4,495.6,996,495.9"/>
		<path class="st3" d="M1083.9,507.5c-0.2,0.2-0.2,0.4-0.1,0.7l22.6,36.9c0.2,0.5,0.3,0.8,0.1,1.1c-0.2,0.3-0.5,0.4-1.1,0.4h-16
			c-0.5,0-1-0.1-1.5-0.4c-0.5-0.3-0.9-0.7-1.2-1.1l-14.6-26.4c-0.2-0.3-0.4-0.4-0.5-0.1l-8,8.8c-0.3,0.3-0.6,0.8-0.8,1.4
			c-0.2,0.6-0.3,1.2-0.3,1.7v14.3c0,1.2-0.6,1.8-1.8,1.8h-13.3c-1.2,0-1.8-0.6-1.8-1.8v-63.9c0-1.2,0.6-1.8,1.8-1.8h13.3
			c1.2,0,1.8,0.6,1.8,1.8v28.7l24.9-29.2c0.3-0.4,0.8-0.7,1.4-1c0.6-0.3,1.1-0.4,1.6-0.4h16c0.5,0,0.8,0.1,0.9,0.4
			c0.1,0.3,0,0.6-0.4,1L1083.9,507.5z"/>
		<path class="st3" d="M1135.9,544.7c0,1.2-0.6,1.8-1.8,1.8h-13.3c-1.2,0-1.8-0.6-1.8-1.8v-63.9c0-1.2,0.6-1.8,1.8-1.8h13.3
			c1.2,0,1.8,0.6,1.8,1.8V544.7z"/>
		<path class="st3" d="M1201,479.9c1.4,0.6,2.6,1.4,3.6,2.4c1,1,1.8,2.2,2.4,3.6c0.6,1.4,0.9,2.8,0.9,4.4v54.4
			c0,0.5-0.2,0.9-0.5,1.3c-0.4,0.4-0.8,0.5-1.3,0.5h-13.4c-0.5,0-0.9-0.2-1.3-0.5c-0.3-0.4-0.5-0.8-0.5-1.3v-47.6
			c0-0.5-0.2-0.9-0.5-1.3c-0.4-0.3-0.8-0.5-1.3-0.5h-19.1c-0.5,0-1,0.2-1.3,0.5c-0.4,0.3-0.5,0.7-0.5,1.3v47.6
			c0,1.2-0.6,1.8-1.8,1.8h-13.3c-1.2,0-1.8-0.6-1.8-1.8v-63.9c0-1.2,0.6-1.8,1.8-1.8h43.6C1198.1,479,1199.6,479.3,1201,479.9"/>
		<path class="st3" d="M1279.1,510.2c0.4,0.4,0.5,0.8,0.5,1.3v23.7c0,1.5-0.3,3-0.9,4.4c-0.6,1.4-1.4,2.6-2.4,3.6
			c-1,1-2.2,1.8-3.6,2.4c-1.4,0.6-2.8,0.9-4.4,0.9h-34.2c-1.5,0-3-0.3-4.4-0.9c-1.4-0.6-2.6-1.4-3.6-2.4c-1-1-1.8-2.2-2.4-3.6
			c-0.6-1.4-0.9-2.8-0.9-4.4v-45c0-1.5,0.3-3,0.9-4.4c0.6-1.4,1.4-2.6,2.4-3.6c1-1,2.2-1.8,3.6-2.4c1.4-0.6,2.9-0.9,4.4-0.9h39.9
			c0.5,0,0.9,0.2,1.3,0.5c0.4,0.4,0.5,0.8,0.5,1.3v12.7c0,0.5-0.2,0.9-0.5,1.3c-0.4,0.4-0.8,0.5-1.3,0.5h-32.3
			c-0.5,0-0.9,0.2-1.3,0.5c-0.4,0.3-0.5,0.7-0.5,1.3v31.3c0,0.5,0.2,0.9,0.5,1.3c0.4,0.3,0.8,0.5,1.3,0.5h19.1
			c0.5,0,0.9-0.2,1.2-0.5c0.3-0.3,0.5-0.7,0.5-1.3v-16.9c0-0.5,0.2-0.9,0.5-1.3c0.4-0.4,0.8-0.5,1.3-0.5h13.4
			C1278.4,509.7,1278.8,509.9,1279.1,510.2"/>
	</g>
	<g>
		<g>
			<path class="st4" d="M407.5,13.8c8.7,3.9,16.3,8.9,22.6,15.2c6.3,6.3,11.4,13.8,15.3,22.5c3.9,8.7,5.8,18,5.8,27.7v354.5
				c0,3.3-1.1,6-3.4,8.2c-2.2,2.2-5,3.4-8.2,3.4h-84.8c-3.3,0-5.9-1.1-7.9-3.4c-2-2.2-3.1-5-3.1-8.2V111.5h-68.3v322.3
				c0,3.3-1,6-3,8.2c-2,2.2-4.7,3.4-7.9,3.4h-76.9c-3.3,0-6-1.1-8.2-3.4c-2.2-2.2-3.4-5-3.4-8.2V111.5h-68.3v322.3
				c0,7.7-3.9,11.6-11.6,11.6H11.9c-7.7,0-11.6-3.9-11.6-11.6V19.6C0.3,11.9,4.2,8,11.9,8h367.9C389.6,8,398.8,10,407.5,13.8"/>
			<path class="st5" d="M407.5,13.8c8.7,3.9,16.3,8.9,22.6,15.2c6.3,6.3,11.4,13.8,15.3,22.5c3.9,8.7,5.8,18,5.8,27.7v31.6
				l-107.4,0.7h-68.3H176h-68.3L0.3,110.8V19.6C0.3,11.9,4.2,8,11.9,8h367.9C389.6,8,398.8,10,407.5,13.8"/>
			<path class="st6" d="M820.9,339.2c3.4,0,6.2,1.2,8.4,3.4c2.2,2.3,3.2,5.1,3.2,8.4v82.5c0,3.3-1.1,6.2-3.2,8.4
				c-2.2,2.3-5,3.4-8.4,3.4H530.5c-8.2,0-12.3-4-12.3-11.9V19.9c0-7.9,4.1-11.9,12.3-11.9h89.2c8.2,0,12.3,4,12.3,11.9v308
				c0,3.3,1.2,6,3.6,8.1c2.4,2.1,5.3,3.1,8.7,3.1H820.9z"/>
			<path class="st7" d="M631,445.4H530.4c-8.2,0-12.3-4-12.3-11.9V19.9c0-7.9,4.1-11.9,12.3-11.9h89c8.2,0,12.3,4,12.3,11.9v308
				C631.7,331.3,631,445.4,631,445.4"/>
			<path class="st8" d="M1267.3,8c3.5,0,6.4,1.2,8.8,3.4c2.4,2.3,3.6,5.1,3.6,8.5v414.8c0,3.3-1.2,6.2-3.6,8.5
				c-2.4,2.3-5.3,3.4-8.8,3.4H1177c-3.5,0-6.4-1.1-8.8-3.4c-2.4-2.3-3.6-5.1-3.6-8.5V290c0-3.3-1.1-6.1-3.3-8.1
				c-2.2-2.1-5-3.1-8.4-3.1h-126.7c-3.5,0-6.4,1-8.8,3.1c-2.4,2.1-3.6,4.8-3.6,8.1v144.7c0,7.9-4.1,11.9-12.4,11.9h-89.7
				c-8.2,0-12.3-4-12.3-11.9V19.9c0-7.9,4.1-11.9,12.3-11.9h89.7c8.2,0,12.4,4,12.4,11.9v140.4c0,7.9,4.1,11.9,12.3,11.9h126.7
				c3.5,0,6.3-1.1,8.4-3.4c2.2-2.3,3.3-5.1,3.3-8.5V19.9c0-3.3,1.2-6.2,3.6-8.5c2.4-2.3,5.3-3.4,8.8-3.4H1267.3z"/>
			<path class="st9" d="M1013.9,290v144.7c0,7.9-4.1,11.9-12.3,11.9h-89.7c-8.2,0-12.3-4-12.3-11.9V19.9c0-7.9,4.1-11.9,12.3-11.9
				h89.7c8.2,0,12.3,4,12.3,11.9v140.4V290z"/>
			<path class="st9" d="M1267.3,8c3.5,0,6.4,1.2,8.8,3.4c2.4,2.3,3.6,5.1,3.6,8.5v414.8c0,3.3-1.2,6.2-3.6,8.5
				c-2.4,2.3-5.3,3.4-8.8,3.4H1177c-3.5,0-6.4-1.1-8.8-3.4c-2.4-2.3-3.6-5.1-3.6-8.5V290V160.3V19.9c0-3.3,1.2-6.2,3.6-8.5
				c2.4-2.3,5.3-3.4,8.8-3.4H1267.3z"/>
		</g>
	</g>
</g>
</svg>
