<?xml version="1.0" encoding="UTF-8" standalone="no"?>
<svg
   xmlns:dc="http://purl.org/dc/elements/1.1/"
   xmlns:cc="http://creativecommons.org/ns#"
   xmlns:rdf="http://www.w3.org/1999/02/22-rdf-syntax-ns#"
   xmlns:svg="http://www.w3.org/2000/svg"
   xmlns="http://www.w3.org/2000/svg"
   xmlns:sodipodi="http://sodipodi.sourceforge.net/DTD/sodipodi-0.dtd"
   xmlns:inkscape="http://www.inkscape.org/namespaces/inkscape"
   viewBox="0 0 541 89"
   height="89"
   width="541"
   xml:space="preserve"
   id="svg2"
   version="1.1"
   inkscape:version="0.91 r13725"
   sodipodi:docname="RGB_formal_Computer_Science.svg"><sodipodi:namedview
     pagecolor="#ffffff"
     bordercolor="#666666"
     borderopacity="1"
     objecttolerance="10"
     gridtolerance="10"
     guidetolerance="10"
     inkscape:pageopacity="0"
     inkscape:pageshadow="2"
     inkscape:window-width="1276"
     inkscape:window-height="755"
     id="namedview65"
     showgrid="false"
     fit-margin-right="-3.4"
     inkscape:zoom="1"
     inkscape:cx="221.22399"
     inkscape:cy="35.999999"
     inkscape:window-x="4"
     inkscape:window-y="1"
     inkscape:window-maximized="1"
     inkscape:current-layer="svg2" /><metadata
     id="metadata8"><rdf:RDF><cc:Work
         rdf:about=""><dc:format>image/svg+xml</dc:format><dc:type
           rdf:resource="http://purl.org/dc/dcmitype/StillImage" /><dc:title></dc:title></cc:Work></rdf:RDF></metadata><defs
     id="defs6" /><g
     transform="matrix(1.6229815,0,0,-1.6229815,9.19358e-4,88.320501)"
     id="g10"><g
       transform="scale(0.1,0.1)"
       id="g12"><path
         id="path14"
         style="fill:#2f3944;fill-opacity:1;fill-rule:nonzero;stroke:none"
         d="m 743.984,133.633 -7.8,-43.2033 c -16.196,-7.793 -47.7,-19.8047 -72.891,-23.3984 -55.805,0 -108,37.7927 -108,107.6957 0,69.902 46.492,104.101 113.398,113.093 31.192,0 58.797,-14.09 71.692,-23.394 l 0,-40.5 -16.496,0 -9.602,27.898 c -8.094,8.703 -25.191,20.403 -49.793,20.403 -44.402,0 -74.695,-31.504 -74.695,-90.293 0,-48.606 29.695,-98.3988 82.195,-98.3988 17.996,0 31.192,9.9023 39.297,16.7968 l 16.199,33.301 16.496,0"
         inkscape:connector-curvature="0" /><path
         id="path16"
         style="fill:#2f3944;fill-opacity:1;fill-rule:nonzero;stroke:none"
         d="m 839.387,82.6367 c 24.004,0 36.297,24.5903 36.297,56.9923 0,38.105 -18.301,63.594 -44.395,63.594 -24.297,0 -36.301,-24.59 -36.301,-57.293 0,-34.2 17.7,-63.2933 44.399,-63.2933 z m 66.297,63.2933 c 0,-44.7 -27.293,-70.5003 -73.797,-78.0003 -39.895,0 -66.899,30.8984 -66.899,71.6993 0,45 27.297,70.5 73.801,78.301 39.895,0 66.895,-31.2 66.895,-72"
         inkscape:connector-curvature="0" /><path
         id="path18"
         style="fill:#2f3944;fill-opacity:1;fill-rule:nonzero;stroke:none"
         d="m 1129.17,73.0273 -28.5,-0.8984 -1.5,10.5078 15,2.9883 0,85.801 c 0,15.605 -6.59,22.5 -17.39,22.5 -9.01,0 -20.1,-5.996 -30.61,-13.496 l -8.99,-6.309 0,-88.496 13.49,-2.9883 -1.49,-10.5078 -25.51,0.8984 -26.99,-0.8984 -1.5,10.5078 13.5,2.9883 0,85.801 c 0,15.605 -6.6,22.5 -17.4,22.5 -9,0 -20.096,-5.996 -30.596,-13.496 l -9.004,-6.309 0,-88.496 15,-2.9883 -1.504,-10.5078 -26.992,0.8984 -34.5,-0.8984 -1.504,10.5078 21.004,2.9883 0,109.504 -21.004,-1.809 -1.496,10.508 35.996,9.297 12.898,0.898 1.508,-24.902 41.394,28.809 c 29.09,0 39.89,-8.7 43.19,-29.407 l 42.31,29.407 c 38.4,0 44.7,-14.407 44.7,-52.5 l 0,-79.805 22.5,-2.9883 -1.51,-10.5078 -34.5,0.8984"
         inkscape:connector-curvature="0" /><path
         id="path20"
         style="fill:#2f3944;fill-opacity:1;fill-rule:nonzero;stroke:none"
         d="m 1263.57,195.43 c -8.09,0 -17.69,-5.403 -28.79,-13.809 l -9,-6.894 0,-75.2934 c 6.9,-10.5078 19.2,-16.5039 32.7,-16.5039 21.6,0 36.3,21.3003 36.3,55.8003 0,35.098 -13.21,56.7 -31.21,56.7 z m -37.79,-121.1917 0,-57.5977 31.5,-3.0078 -1.5,-10.49608 -43.5,0.89453 -34.5,-0.89453 -1.5,10.49608 21,3.0078 0,178.7894 -21,-1.797 -1.49,10.195 35.99,9.297 12.9,0.898 1.5,-24.902 38.39,28.809 c 38.71,0 61.21,-26.407 61.21,-69.903 0,-50.9957 -30.6,-74.1012 -75.31,-80.0973 -8.4,0 -16.79,2.4023 -23.69,6.3086"
         inkscape:connector-curvature="0" /><path
         id="path22"
         style="fill:#2f3944;fill-opacity:1;fill-rule:nonzero;stroke:none"
         d="m 1475.67,111.426 c 0,-12.8908 1.5,-17.6955 3.61,-22.5002 l 15,0 1.19,-10.4883 -38.69,-7.5 -8.4,24.2969 -43.5,-27.3047 c -39.6,0 -46.2,14.1016 -46.2,48.9063 l 0,78.293 -20.99,-1.496 -1.51,11.699 36,7.793 15,1.199 0,-99.89 c 0,-15.6059 6.6,-22.5004 21.3,-22.5004 9.29,0 21.3,7.5 32.69,15.0004 l 6.01,3.894 0,84.301 -18,-1.496 -1.5,11.699 32.99,7.793 15,1.199 0,-102.898"
         inkscape:connector-curvature="0" /><path
         id="path24"
         style="fill:#2f3944;fill-opacity:1;fill-rule:nonzero;stroke:none"
         d="m 1502.97,196.328 0,5.098 10.51,10.5 19.49,0 0,19.5 19.5,19.492 7.8,0 0,-41.094 45.3,0 0,-13.496 -44.99,0 0,-87.898 c 0,-8.7034 3.29,-18.0003 15.89,-18.0003 8.71,0 15.3,3.0078 23.7,7.207 l 5.1,-10.2031 -35.09,-19.5039 c -33.61,0 -38.11,12.0039 -38.11,39.0043 l 0,89.394 -29.1,0"
         inkscape:connector-curvature="0" /><path
         id="path26"
         style="fill:#2f3944;fill-opacity:1;fill-rule:nonzero;stroke:none"
         d="m 1699.47,163.926 c 0,23.105 -4.5,39.004 -27.59,39.004 -18.31,0 -30,-17.11 -32.41,-42 z m -60.29,-15 c 0,-34.199 18.29,-58.4963 49.79,-58.4963 12.01,0 26.4,5.7031 37.5,12.5973 l 4.8,-11.3942 c -14.39,-9.8945 -33.3,-18.3047 -52.5,-23.7031 -36.29,0 -68.99,25.8008 -68.99,72.8983 0,44.399 26.69,68.098 67.8,77.102 39.59,0 53.09,-24.903 53.09,-56.407 l 0,-12.597 -91.49,0"
         inkscape:connector-curvature="0" /><path
         id="path28"
         style="fill:#2f3944;fill-opacity:1;fill-rule:nonzero;stroke:none"
         d="m 1794.87,174.434 34.2,41.992 24,0 0,-30 -22.2,0 c -7.2,-1.504 -20.4,-11.399 -28.5,-21.297 l -5.99,-7.199 0,-71.3987 31.49,-2.9961 -1.5,-11.4063 -43.5,0.8984 -33.59,-0.8984 -1.51,10.5078 21,2.9883 0,109.504 -21,-1.809 -1.49,10.508 36,9.297 12,0.898 0.59,-39.589"
         inkscape:connector-curvature="0" /><path
         id="path30"
         style="fill:#2f3944;fill-opacity:1;fill-rule:nonzero;stroke:none"
         d="m 1973.07,102.434 c 9,-11.1059 25.49,-18.8988 42.3,-18.8988 25.79,0 40.79,16.1914 40.79,38.0978 0,20.398 -13.19,32.097 -31.19,39.89 l -36.3,15.899 c -21.6,9.308 -39.3,23.105 -39.3,49.805 0,32.695 30,51.894 71.69,60.593 18.9,0 39.91,-6.297 54.91,-17.39 l 0,-40.508 -15,0 -8.7,27.305 c -7.81,8.093 -17.41,14.699 -35.4,14.699 -23.71,0 -37.8,-12.903 -37.8,-33 0,-16.504 11.7,-26.699 28.2,-33.906 l 34.5,-14.993 c 23.7,-10.203 44.39,-25.203 44.09,-55.797 0,-28.195 -19.2,-55.4995 -75.6,-67.1987 -27.59,0 -46.19,7.8046 -62.09,20.4023 l -6.6,40.4964 21,0 10.5,-25.496"
         inkscape:connector-curvature="0" /><path
         id="path32"
         style="fill:#2f3944;fill-opacity:1;fill-rule:nonzero;stroke:none"
         d="m 2193.87,197.227 c -4.8,3.593 -9.3,4.804 -17.4,4.804 -20.4,0 -36,-22.801 -36,-55.508 0,-32.089 17.4,-56.0933 46.8,-56.0933 11.4,0 23.4,5.7031 33.9,12.5973 l 4.8,-11.3942 c -13.8,-9.8945 -29.1,-17.3945 -48.9,-23.7031 -38.4,0 -66.89,25.1953 -66.89,71.4063 0,47.09 34.49,69.59 71.39,78.594 13.8,0 32.39,-6.907 41.4,-15 l 0,-30 -22.2,0 -6.9,24.297"
         inkscape:connector-curvature="0" /><path
         id="path34"
         style="fill:#2f3944;fill-opacity:1;fill-rule:nonzero;stroke:none"
         d="m 2264.96,279.426 21.6,1.492 8.4,-1.492 1.5,-16.809 -3.3,-14.394 -21.29,-1.797 -8.1,1.797 -1.81,16.797 z m 15,-206.3987 -34.49,-0.8984 -1.51,10.5078 21,2.9883 0,109.504 -21,-1.809 -1.49,10.508 36,9.297 15,1.199 0,-128.699 22.5,-2.9883 -1.51,-10.5078 -34.5,0.8984"
         inkscape:connector-curvature="0" /><path
         id="path36"
         style="fill:#2f3944;fill-opacity:1;fill-rule:nonzero;stroke:none"
         d="m 2417.66,163.926 c 0,23.105 -4.51,39.004 -27.6,39.004 -18.3,0 -30,-17.11 -32.4,-42 z m -60.3,-15 c 0,-34.199 18.29,-58.4963 49.8,-58.4963 12,0 26.39,5.7031 37.5,12.5973 l 4.79,-11.3942 c -14.39,-9.8945 -33.3,-18.3047 -52.5,-23.7031 -36.29,0 -68.99,25.8008 -68.99,72.8983 0,44.399 26.7,68.098 67.8,77.102 39.59,0 53.1,-24.903 53.1,-56.407 l 0,-12.597 -91.5,0"
         inkscape:connector-curvature="0" /><path
         id="path38"
         style="fill:#2f3944;fill-opacity:1;fill-rule:nonzero;stroke:none"
         d="m 2501.95,73.0273 -34.49,-0.8984 -1.5,10.5078 20.99,2.9883 0,109.504 -20.99,-1.809 -1.5,10.508 36,9.297 12.9,0.898 1.49,-25.195 44.41,29.102 c 38.4,0 44.7,-12.91 44.7,-48.907 l 0,-83.398 22.79,-2.9883 -1.5,-10.5078 -34.5,0.8984 -28.8,-0.8984 -1.49,10.5078 14.99,2.9883 0,85.801 c 0,15.605 -6.9,22.5 -19.8,22.5 -10.49,0 -20.99,-6.602 -31.2,-13.496 l -8.99,-5.996 0,-88.809 16.49,-2.9883 -1.49,-10.5078 -28.51,0.8984"
         inkscape:connector-curvature="0" /><path
         id="path40"
         style="fill:#2f3944;fill-opacity:1;fill-rule:nonzero;stroke:none"
         d="m 2721.55,197.227 c -4.79,3.593 -9.29,4.804 -17.39,4.804 -20.4,0 -36.01,-22.801 -36.01,-55.508 0,-32.089 17.41,-56.0933 46.8,-56.0933 11.41,0 23.41,5.7031 33.91,12.5973 l 4.79,-11.3942 c -13.8,-9.8945 -29.1,-17.3945 -48.89,-23.7031 -38.4,0 -66.9,25.1953 -66.9,71.4063 0,47.09 34.49,69.59 71.4,78.594 13.8,0 32.39,-6.907 41.39,-15 l 0,-30 -22.19,0 -6.91,24.297"
         inkscape:connector-curvature="0" /><path
         id="path42"
         style="fill:#2f3944;fill-opacity:1;fill-rule:nonzero;stroke:none"
         d="m 2861.35,163.926 c 0,23.105 -4.5,39.004 -27.6,39.004 -18.3,0 -30,-17.11 -32.4,-42 z m -60.3,-15 c 0,-34.199 18.3,-58.4963 49.8,-58.4963 12,0 26.4,5.7031 37.5,12.5973 l 4.79,-11.3942 c -14.39,-9.8945 -33.3,-18.3047 -52.5,-23.7031 -36.28,0 -68.99,25.8008 -68.99,72.8983 0,44.399 26.7,68.098 67.8,77.102 39.59,0 53.1,-24.903 53.1,-56.407 l 0,-12.597 -91.5,0"
         inkscape:connector-curvature="0" /><path
         id="path44"
         style="fill:#be4b1f;fill-opacity:1;fill-rule:nonzero;stroke:none"
         d="m 209.258,359.629 0.461,0 0,0.156 -0.461,0 0,-0.156"
         inkscape:connector-curvature="0" /><path
         id="path46"
         style="fill:#be4b1f;fill-opacity:1;fill-rule:nonzero;stroke:none"
         d="m 316.758,449.902 0,14.453 -8.906,0 0,24.68 -6.036,0 c -12.746,0 -25.421,1.863 -37.695,3.66 -11.191,1.641 -21.777,3.203 -31.543,3.203 -9.187,0 -16.777,-1.445 -23.086,-4.414 -6.308,2.969 -13.906,4.414 -23.086,4.414 -9.765,0 -20.351,-1.562 -31.551,-3.203 -12.265,-1.797 -24.953,-3.66 -37.707,-3.66 l -6.015,0 0,-24.68 -8.914,0 0,-14.453 8.914,0 0,-19.57 -8.809,0 0,-14.453 8.809,0 0,-26.797 6.015,0 c 13.633,0 26.993,2.07 39.922,4.063 10.918,1.679 21.231,3.281 30.039,3.281 7.11,0 12.442,-1.035 16.575,-3.184 l 0,-0.012 11.609,0 0,0.012 c 4.133,2.149 9.473,3.184 16.562,3.184 8.829,0 19.141,-1.602 30.059,-3.281 12.922,-1.993 26.301,-4.063 39.902,-4.063 l 6.036,0 0,26.797 8.808,0 0,14.453 -8.808,0 0,19.57 8.906,0 z M 155.234,405.051 c -10.007,-1.555 -20.293,-3.11 -30.527,-3.672 l 2.734,76.004 c 9.981,0.637 19.7,2.012 29.161,3.398 10.753,1.582 20.918,3.067 29.804,3.067 6.914,0 12.364,-0.879 16.848,-2.754 l 0,-10.547 -2.277,-63.582 c -4.082,0.984 -8.633,1.492 -13.868,1.492 -9.726,0 -20.488,-1.66 -31.875,-3.406 z m 108.516,0 c -11.387,1.746 -22.148,3.406 -31.895,3.406 -5.214,0 -9.777,-0.508 -13.859,-1.492 l -2.273,63.582 0,10.547 c 4.492,1.875 9.941,2.754 16.855,2.754 8.887,0 19.043,-1.485 29.793,-3.067 9.465,-1.386 19.192,-2.761 29.172,-3.398 l 2.715,-76.004 c -10.235,0.562 -20.508,2.117 -30.508,3.672 l 0,0"
         inkscape:connector-curvature="0" /><path
         id="path48"
         style="fill:#be4b1f;fill-opacity:1;fill-rule:nonzero;stroke:none"
         d="m 156.875,469.863 c -0.598,-0.086 -1.184,-0.175 -1.777,-0.261 -5.664,-0.832 -11.414,-1.672 -17.227,-2.336 l -0.332,-9.746 c 6.426,0.703 12.734,1.632 18.953,2.55 0.129,0.028 0.254,0.035 0.383,0.067 l 0,9.726"
         inkscape:connector-curvature="0" /><path
         id="path50"
         style="fill:#be4b1f;fill-opacity:1;fill-rule:nonzero;stroke:none"
         d="m 164.102,470.891 0,-9.727 c 10.253,1.426 19.648,2.449 27.812,1.777 l 0.332,9.598 c -8.691,0.656 -18.223,-0.305 -28.144,-1.648 l 0,0"
         inkscape:connector-curvature="0" /><path
         id="path52"
         style="fill:#be4b1f;fill-opacity:1;fill-rule:nonzero;stroke:none"
         d="m 156.875,425.77 c -0.598,-0.086 -1.184,-0.172 -1.777,-0.262 -6.184,-0.906 -12.461,-1.824 -18.809,-2.52 l -0.351,-9.726 c 6.972,0.73 13.828,1.726 20.554,2.715 0.129,0.019 0.254,0.039 0.383,0.058 l 0,9.735"
         inkscape:connector-curvature="0" /><path
         id="path54"
         style="fill:#be4b1f;fill-opacity:1;fill-rule:nonzero;stroke:none"
         d="m 164.102,426.797 0,-9.727 c 9.589,1.328 18.457,2.317 26.23,1.883 l 0.332,9.594 c -8.262,0.43 -17.234,-0.481 -26.562,-1.75 l 0,0"
         inkscape:connector-curvature="0" /><path
         id="path56"
         style="fill:#be4b1f;fill-opacity:1;fill-rule:nonzero;stroke:none"
         d="m 155.383,447.598 0,-9.746 c 0.371,0.058 0.738,0.117 1.109,0.175 12.883,1.875 24.66,3.614 34.621,2.95 l 0.34,9.57 c -11.023,0.683 -23.328,-1.074 -36.07,-2.949 l 0,0"
         inkscape:connector-curvature="0" /><path
         id="path58"
         style="fill:#be4b1f;fill-opacity:1;fill-rule:nonzero;stroke:none"
         d="m 148.152,446.563 c -3.66,-0.528 -7.351,-1.016 -11.074,-1.446 l -0.348,-9.726 c 3.856,0.41 7.665,0.918 11.422,1.433 l 0,9.739"
         inkscape:connector-curvature="0" /><path
         id="path60"
         style="fill:#be4b1f;fill-opacity:1;fill-rule:nonzero;stroke:none"
         d="m 250.488,471.457 c -8.34,1.023 -16.367,1.641 -23.758,1.082 l 0.34,-9.598 c 6.973,0.567 14.864,-0.097 23.418,-1.195 l 0,9.711"
         inkscape:connector-curvature="0" /><path
         id="path62"
         style="fill:#be4b1f;fill-opacity:1;fill-rule:nonzero;stroke:none"
         d="m 281.105,467.266 c -5.812,0.664 -11.566,1.504 -17.226,2.336 -2.07,0.3 -4.133,0.605 -6.164,0.886 l 0,-9.726 c 1.562,-0.223 3.164,-0.449 4.765,-0.692 6.219,-0.918 12.54,-1.847 18.973,-2.55 l -0.348,9.746 0,0"
         inkscape:connector-curvature="0" /><path
         id="path64"
         style="fill:#be4b1f;fill-opacity:1;fill-rule:nonzero;stroke:none"
         d="m 248.496,449.648 c -7.324,0.832 -14.394,1.309 -20.976,0.899 l 0.339,-9.57 c 6.235,0.41 13.157,-0.098 20.637,-1.016 l 0,9.687"
         inkscape:connector-curvature="0" /><path
         id="path66"
         style="fill:#be4b1f;fill-opacity:1;fill-rule:nonzero;stroke:none"
         d="m 281.895,445.117 c -6.075,0.684 -12.098,1.563 -18.016,2.442 -2.746,0.39 -5.461,0.793 -8.156,1.171 l 0,-9.726 c 2.215,-0.313 4.472,-0.645 6.757,-0.977 6.473,-0.957 13.067,-1.914 19.766,-2.636 l -0.351,9.726 0,0"
         inkscape:connector-curvature="0" /><path
         id="path68"
         style="fill:#be4b1f;fill-opacity:1;fill-rule:nonzero;stroke:none"
         d="m 262.949,415.906 c 6.571,-0.965 13.274,-1.929 20.086,-2.644 l -0.34,9.726 c -6.355,0.696 -12.636,1.614 -18.816,2.52 -0.305,0.051 -0.617,0.09 -0.93,0.137 l 0,-9.739"
         inkscape:connector-curvature="0" /><path
         id="path70"
         style="fill:#be4b1f;fill-opacity:1;fill-rule:nonzero;stroke:none"
         d="m 255.723,426.68 c -9.629,1.328 -18.899,2.304 -27.422,1.867 l 0.351,-9.594 c 8.008,0.442 17.149,-0.601 27.071,-2.012 l 0,9.739"
         inkscape:connector-curvature="0" /><path
         id="path72"
         style="fill:#be4b1f;fill-opacity:1;fill-rule:nonzero;stroke:none"
         d="m 120.605,282.297 0,-0.012 54.454,-39.59 -20.977,-64.511 c 0.02,-0.118 0.078,-0.246 0.176,-0.325 0.097,-0.078 0.215,-0.078 0.332,-0.078 l 54.902,39.922 54.883,-39.89 c 0.117,-0.032 0.242,0 0.332,0.046 0.176,0.149 0.215,0.383 0.117,0.586 l -20.879,64.27 54.434,39.558 0,0.032 c 0.254,0.09 0.41,0.34 0.332,0.593 -0.078,0.239 -0.352,0.364 -0.625,0.286 l 0,0.019 -67.305,0 -20.801,64.024 -0.031,0 c 0,0.273 -0.203,0.5 -0.457,0.5 -0.254,0 -0.461,-0.227 -0.461,-0.5 l -0.027,0 -20.781,-64.024 -67.325,0 -0.019,-0.039 c -0.254,0.09 -0.527,-0.039 -0.606,-0.281 -0.078,-0.238 0.059,-0.5 0.332,-0.586 z m 76.348,-11.125 12.539,31.348 12.539,-31.348 33.699,-2.246 -25.945,-21.621 8.281,-32.727 -28.574,18.012 -28.574,-18.012 8.301,32.727 -25.957,21.621 33.691,2.246 0,0"
         inkscape:connector-curvature="0" /><path
         id="path74"
         style="fill:#be4b1f;fill-opacity:1;fill-rule:nonzero;stroke:none"
         d="m 344.668,236.262 c 11.23,3.379 20.645,10.769 26.504,20.847 5.859,10.059 7.676,21.914 5.098,33.352 l -1.133,5.027 -4.942,-1.472 c -5.683,-1.692 -10.918,-4.438 -15.449,-8.039 1.055,5.593 1.047,11.386 -0.058,17.07 -2.208,11.484 -8.633,21.601 -18.094,28.496 l -4.172,3.047 -2.742,-4.375 c -6.211,-9.883 -8.43,-21.68 -6.25,-33.172 2.195,-11.398 8.582,-21.457 17.957,-28.371 -1.739,-3.926 -2.918,-8.047 -3.496,-12.266 -2.786,7.617 -7.532,14.453 -13.926,19.727 l -3.985,3.301 -3.007,-4.2 c -6.778,-9.492 -9.707,-21.132 -8.223,-32.734 1.523,-11.555 7.324,-22.062 16.367,-29.531 l 0.215,-0.149 c -2.656,-3.601 -4.746,-7.539 -6.25,-11.715 -1.133,8.036 -4.375,15.692 -9.551,22.184 l -3.203,4.055 -3.808,-3.504 c -8.614,-7.895 -13.868,-18.652 -14.805,-30.332 -0.918,-11.613 2.617,-23.059 9.902,-32.238 l 0.188,-0.235 c -3.352,-2.949 -6.203,-6.387 -8.535,-10.156 0.543,8.125 -1.028,16.289 -4.75,23.711 l -2.313,4.609 -4.441,-2.644 c -10.063,-5.95 -17.434,-15.403 -20.754,-26.614 -3.282,-11.211 -2.207,-23.125 3.027,-33.613 l 0.137,-0.254 c -3.887,-2.207 -7.383,-4.961 -10.449,-8.183 2.207,7.832 2.343,16.152 0.234,24.16 l -1.309,5 -4.882,-1.641 c -11.067,-3.75 -20.223,-11.484 -25.809,-21.777 -5.344,-9.934 -6.801,-21.426 -4.191,-32.3947 -1.473,-1.0117 -3.016,-2.0664 -4.629,-3.1641 -1.602,1.0977 -3.157,2.1524 -4.629,3.1641 2.605,10.9687 1.164,22.4607 -4.199,32.4137 -5.567,10.274 -14.727,18.008 -25.801,21.758 l -4.883,1.641 -1.309,-5 c -2.109,-8.008 -1.972,-16.328 0.235,-24.16 -3.059,3.222 -6.551,5.976 -10.442,8.183 l 0.129,0.254 c 5.242,10.488 6.321,22.402 3.035,33.613 -3.328,11.211 -10.703,20.664 -20.757,26.614 l -4.434,2.644 -2.316,-4.609 c -3.731,-7.422 -5.293,-15.586 -4.747,-23.711 -2.343,3.789 -5.195,7.207 -8.535,10.156 l 0.176,0.235 c 7.305,9.179 10.82,20.625 9.902,32.265 -0.937,11.653 -6.191,22.41 -14.804,30.305 l -3.809,3.504 -3.203,-4.055 c -5.176,-6.492 -8.406,-14.148 -9.5508,-22.184 -1.4922,4.176 -3.5859,8.114 -6.2383,11.715 l 0.211,0.149 c 9.0351,7.469 14.8481,17.976 16.3591,29.531 1.492,11.602 -1.426,23.242 -8.222,32.734 l -3.0082,4.2 -3.9727,-3.301 c -6.4101,-5.274 -11.1562,-12.11 -13.9258,-19.746 -0.5781,4.238 -1.75,8.359 -3.5078,12.285 9.3868,6.914 15.7618,16.973 17.9571,28.379 2.1797,11.504 -0.0352,23.281 -6.25,33.164 l -2.7422,4.375 -4.168,-3.047 C 72.2266,324.648 65.8008,314.531 63.5938,303.066 62.5,297.363 62.4805,291.582 63.5352,285.977 c -4.5313,3.601 -9.7657,6.347 -15.4414,8.039 l -4.9375,1.472 -1.1329,-5.027 c -2.5781,-11.438 -0.7734,-23.293 5.086,-33.352 5.8594,-10.078 15.2734,-17.468 26.5039,-20.847 l 4.3555,-1.301 c 0.4492,-3.66 1.3671,-7.266 2.6875,-10.742 -6.2227,3.984 -13.3321,6.406 -20.8321,7.011 l -5.1367,0.418 -0.0781,-5.164 c -0.1563,-11.718 4.0625,-22.921 11.875,-31.55 7.8125,-8.657 18.5547,-13.95 30.2344,-14.922 l 4.5312,-0.383 c 1.191,-3.508 2.832,-6.836 4.844,-9.934 -5.078,1.907 -10.4495,2.903 -15.9768,2.903 -1.9531,0 -3.9141,-0.125 -5.8477,-0.352 l -5.1172,-0.664 0.9961,-5.039 c 2.2735,-11.523 8.7071,-21.621 18.1407,-28.477 7.8439,-5.703 17.1599,-8.711 26.9059,-8.711 1.914,0 3.848,0.118 5.743,0.352 l 4.511,0.586 c 1.914,-3.184 4.192,-6.094 6.817,-8.73 -7.317,1.093 -14.825,0.449 -21.895,-2.012 l -4.883,-1.699 2.032,-4.747 c 4.589,-10.769 12.988,-19.3355 23.613,-24.0737 5.906,-2.6368 12.156,-3.9649 18.594,-3.9649 5.136,0 10.214,0.8633 15.097,2.5391 l 3.594,1.25 c 5.996,-5.0938 12.773,-10.1719 22.09,-16.5586 -4.258,-2.793 -8.945,-5.8594 -14.199,-9.2227 l 9.05,-5.625 c 5.121,3.3047 9.653,6.2735 13.782,9.0274 4.129,-2.7539 8.664,-5.7227 13.781,-9.0274 l 9.051,5.625 c -5.243,3.3633 -9.942,6.4297 -14.18,9.2227 9.297,6.3867 16.074,11.4648 22.07,16.5586 l 3.614,-1.25 c 4.882,-1.6758 9.941,-2.5391 15.078,-2.5391 l 0,0 c 6.445,0 12.695,1.3281 18.593,3.9492 10.645,4.7539 19.024,13.3204 23.614,24.0894 l 2.031,4.747 -4.883,1.699 c -7.07,2.461 -14.582,3.105 -21.887,1.992 2.622,2.637 4.907,5.566 6.809,8.75 l 4.512,-0.586 c 1.902,-0.234 3.828,-0.352 5.742,-0.352 0.019,0 0.019,0 0.019,0 9.727,0 19.043,3.008 26.895,8.711 9.426,6.856 15.867,16.954 18.137,28.477 l 0.996,5.039 -5.117,0.664 c -1.938,0.227 -3.911,0.352 -5.852,0.352 -5.519,0 -10.898,-0.996 -15.976,-2.903 2.011,3.098 3.652,6.426 4.863,9.934 l 4.512,0.383 c 11.691,0.972 22.421,6.265 30.222,14.922 7.824,8.629 12.043,19.832 11.887,31.55 l -0.078,5.164 -5.137,-0.418 c -7.488,-0.605 -14.609,-3.027 -20.828,-7.011 1.324,3.476 2.234,7.082 2.691,10.742 l 4.348,1.301 z m -257.1485,9.129 c 0.9571,7.265 4.0547,13.984 8.8672,19.414 3.2617,-6.485 4.5313,-13.789 3.5938,-21.055 -0.9571,-7.258 -4.0547,-13.992 -8.8789,-19.402 -3.2774,6.472 -4.5391,13.777 -3.5821,21.043 z M 73.0547,301.25 c 1.3906,7.207 4.8945,13.73 10.0117,18.848 2.8711,-6.66 3.6914,-14.024 2.3242,-21.231 -1.3867,-7.195 -4.8828,-13.73 -10.0195,-18.867 -2.8906,6.68 -3.7109,14.043 -2.3164,21.25 z M 71.1328,247.5 c -6.543,3.125 -12.0117,8.125 -15.6836,14.453 -3.6914,6.328 -5.3515,13.555 -4.8437,20.813 6.5234,-3.118 11.9922,-8.098 15.7031,-14.446 3.6719,-6.328 5.332,-13.554 4.8242,-20.82 z m 2.5,-46.121 c -4.9023,5.418 -8.0273,12.168 -9.0234,19.363 7.0234,-1.672 13.3984,-5.449 18.332,-10.898 4.9102,-5.403 8.0274,-12.141 9.0234,-19.348 -7.0546,1.699 -13.4296,5.461 -18.332,10.883 z m 39.4722,11.238 c 4.532,-5.664 7.266,-12.527 7.872,-19.851 0.566,-7.317 -1.094,-14.524 -4.688,-20.832 -4.551,5.656 -7.285,12.558 -7.851,19.875 -0.567,7.3 1.074,14.531 4.667,20.808 z m -9.16,-66.738 c -5.9372,4.297 -10.3708,10.234 -12.8434,17.07 7.289,-0.195 14.2504,-2.539 20.1874,-6.855 5.938,-4.278 10.371,-10.215 12.832,-17.09 -7.305,0.234 -14.258,2.578 -20.176,6.875 z m 72.676,-21.836 c 6.426,-3.32 11.719,-8.516 15.215,-14.961 3.477,-6.477 4.883,-13.75 4.141,-20.9687 -6.446,3.3633 -11.739,8.5586 -15.196,14.9997 -3.496,6.477 -4.902,13.742 -4.16,20.93 z m -36.641,19.648 c -2.07,7.032 -1.953,14.454 0.262,21.321 5.586,-4.582 9.707,-10.735 11.797,-17.785 2.063,-7.051 1.945,-14.454 -0.281,-21.348 -5.613,4.609 -9.727,10.781 -11.778,17.812 z m 5.079,-45.859 c -6.692,2.969 -12.266,7.883 -16.094,14.063 7.109,1.289 14.473,0.429 21.18,-2.559 6.679,-2.988 12.25,-7.859 16.078,-14.0547 -7.121,-1.3047 -14.493,-0.4258 -21.164,2.5507 z m 81.367,11.211 c 3.515,6.484 8.808,11.68 15.234,15 0.742,-7.188 -0.664,-14.453 -4.16,-20.93 -3.445,-6.4411 -8.738,-11.6364 -15.195,-14.9997 -0.742,7.2187 0.664,14.4917 4.121,20.9297 z m 62.89,2.852 c -3.828,-6.18 -9.394,-11.094 -16.101,-14.063 -4.652,-2.0781 -9.582,-3.1367 -14.66,-3.1367 l 0,0 c -2.188,0 -4.356,0.1875 -6.485,0.586 3.828,6.1957 9.383,11.0667 16.075,14.0547 6.691,2.988 14.062,3.848 21.171,2.559 z m -11.015,31.777 c -2.051,-7.012 -6.16,-13.184 -11.778,-17.793 -2.226,6.894 -2.343,14.297 -0.285,21.328 2.09,7.051 6.211,13.223 11.809,17.805 2.219,-6.867 2.324,-14.289 0.254,-21.34 z m 19.004,49.082 c 0.605,7.336 3.34,14.199 7.871,19.863 3.594,-6.277 5.234,-13.508 4.668,-20.82 -0.567,-7.305 -3.301,-14.207 -7.852,-19.863 -3.594,6.308 -5.254,13.515 -4.687,20.82 z m 17.031,-46.875 c -5.918,-4.297 -12.871,-6.641 -20.164,-6.875 2.461,6.875 6.883,12.812 12.82,17.09 5.938,4.316 12.91,6.66 20.196,6.855 -2.481,-6.836 -6.915,-12.773 -12.852,-17.07 z m 53.34,136.887 c 0.508,-7.258 -1.153,-14.485 -4.844,-20.813 -3.672,-6.328 -9.121,-11.328 -15.676,-14.453 -0.508,7.266 1.145,14.492 4.824,20.82 3.711,6.348 9.172,11.328 15.696,14.446 z m -34.785,16.082 c -1.368,7.226 -0.536,14.59 2.324,21.25 5.129,-5.118 8.625,-11.66 10,-18.868 1.406,-7.187 0.586,-14.55 -2.305,-21.23 -5.137,5.137 -8.633,11.672 -10.019,18.848 z m -14.59,-55.118 c -0.938,7.286 0.332,14.59 3.594,21.075 4.824,-5.43 7.91,-12.149 8.867,-19.434 0.968,-7.246 -0.301,-14.551 -3.574,-21.023 -4.825,5.41 -7.93,12.144 -8.887,19.382 z m 26.347,-42.351 c -4.902,-5.422 -11.281,-9.184 -18.32,-10.883 0.996,7.207 4.102,13.945 9.004,19.348 4.949,5.449 11.328,9.226 18.34,10.898 -0.996,-7.195 -4.102,-13.945 -9.024,-19.363 l 0,0"
         inkscape:connector-curvature="0" /><path
         id="path76"
         style="fill:#be4b1f;fill-opacity:1;fill-rule:nonzero;stroke:none"
         d="m 418.906,524.816 -8.437,1.063 c -1.121,0.137 -113.438,14.113 -200.918,14.121 -0.02,0 -0.039,0 -0.059,0 -0.019,0 -0.051,0 -0.066,0 C 121.953,539.992 9.64844,526.016 8.51563,525.879 l -8.437505,-1.063 0,-155.402 L 0,369.414 0,347.727 C 0,282.266 6.48438,197.645 57.0703,123.574 67.5,108.32 79.3438,94.2461 93.5352,80.5586 l -0.0079,-0.0234 c 0.0938,-0.0743 0.1836,-0.1524 0.2813,-0.2305 C 121.25,53.8945 157.52,28.9844 209.395,0.078125 L 209.395,0 c 0.019,0.0390625 0.031,0.0390625 0.046,0.0390625 0.024,0 0.032,0 0.051,-0.0390625 l 0,0.078125 C 261.367,28.9844 297.637,53.8945 325.078,80.3047 c 0.098,0.0781 0.188,0.1562 0.274,0.2305 l 0,0.0234 c 14.191,13.6875 26.035,27.7614 36.464,43.0154 50.586,74.071 57.071,158.692 57.071,224.153 l 0,3.086 0.019,0.007 z M 29.4141,508.711 c 35.3515,3.918 114.8319,11.836 180.0779,11.836 65.235,0 144.707,-7.918 180.071,-11.836 l 9.89,-139.297 -379.9296,0 9.8907,139.297 z M 345.906,134.453 C 336.094,120.098 324.863,106.777 311.328,93.8164 269.551,55.4492 222.656,34.2578 209.441,28.75 196.23,34.2578 149.336,55.4492 107.559,93.8164 94.0234,106.777 82.793,120.098 72.9766,134.453 25.5352,203.918 19.3164,284.473 19.2773,347.063 l 0.0508,0.007 190.1639,10.567 190.125,-10.559 C 399.57,284.48 393.352,203.918 345.906,134.453 l 0,0"
         inkscape:connector-curvature="0" /><path
         id="path78"
         style="fill:#be4b1f;fill-opacity:1;fill-rule:nonzero;stroke:none"
         d="m 719.402,369.258 -18.797,-0.606 -1.003,7.012 9.8,1.992 0,57.215 c 0,10.402 -4.8,15 -12.8,15 -6.004,0 -13.809,-4.402 -21.204,-8.992 l -6.003,-3.809 0,-59.414 11.003,-1.992 -1.003,-7.012 -19.004,0.606 -21.004,-0.606 -0.996,7.012 12,1.992 0,122.434 -7.2,-1.203 -40.613,0.605 0,-121.23 23.008,-2.598 -1.008,-7.012 -32.398,0.606 -33.606,-0.606 -1.008,7.012 24.004,2.598 0,121.23 -30,-0.605 -9.207,-25 -7.793,0 0,35.402 57.41,-0.402 49.211,0.402 21.407,2.402 6.797,0 0,-64.816 29.21,19.004 c 25.606,0 29.801,-9.609 29.801,-35.012 l 0,-53.211 15,-1.992 -0.996,-7.012 -23.008,0.606"
         inkscape:connector-curvature="0" /><path
         id="path80"
         style="fill:#be4b1f;fill-opacity:1;fill-rule:nonzero;stroke:none"
         d="m 811.57,429.863 c 0,15.41 -2.996,26.016 -18.406,26.016 -12.195,0 -20,-11.406 -21.601,-28.008 z m -40.203,-10 c 0,-22.793 12.196,-39.004 33.203,-39.004 7.996,0 17.61,3.809 25.008,8.399 l 3.195,-7.598 c -9.597,-6.601 -22.199,-12.207 -35,-15.801 -24.21,0 -46.015,17.207 -46.015,48.614 0,29.601 17.805,45.41 45.215,51.406 26.406,0 35.398,-16.602 35.398,-37.609 l 0,-8.407 -61.004,0"
         inkscape:connector-curvature="0" /><path
         id="path82"
         style="fill:#be4b1f;fill-opacity:1;fill-rule:nonzero;stroke:none"
         d="m 970.574,502.09 1.008,6.992 25.606,-0.598 23.402,0.598 1,-6.992 -17.01,-2.598 0,-81.621 c 0,-26.016 -10.596,-43.418 -50.408,-52.617 -39.406,0 -53.41,21.211 -53.41,53.008 l 0,81.23 -17.996,2.598 0.996,6.992 27.605,-0.598 27.403,0.598 1.003,-6.992 -17.007,-2.598 0,-84.219 c 0,-24.804 10.601,-39.011 33.406,-39.011 20.808,0 32.414,14.004 32.414,39.605 l 0,83.625 -18.012,2.598"
         inkscape:connector-curvature="0" /><path
         id="path84"
         style="fill:#be4b1f;fill-opacity:1;fill-rule:nonzero;stroke:none"
         d="m 1048.56,369.258 -22.99,-0.606 -1.01,7.012 14,1.992 0,73.016 -14,-1.199 -1,7.004 24.01,6.199 8.6,0.605 1,-16.804 29.61,19.402 c 25.6,0 29.8,-8.602 29.8,-32.609 l 0,-55.614 15.21,-1.992 -1.01,-7.012 -23,0.606 -19.21,-0.606 -0.99,7.012 10,1.992 0,57.215 c 0,10.402 -4.6,15 -13.2,15 -7.01,0 -14.01,-4.402 -20.81,-8.992 l -6,-4.004 0,-59.219 11,-1.992 -1,-7.012 -19.01,0.606"
         inkscape:connector-curvature="0" /><path
         id="path86"
         style="fill:#be4b1f;fill-opacity:1;fill-rule:nonzero;stroke:none"
         d="m 1153.16,506.887 14.41,1.004 5.6,-1.004 1,-11.203 -2.2,-9.598 -14.21,-1.203 -5.4,1.203 -1.2,11.199 z m 10,-137.629 -22.99,-0.606 -1.01,7.012 14,1.992 0,73.016 -14,-1.199 -1,7.004 24.01,6.199 10,0.801 0,-85.821 15,-1.992 -1,-7.012 -23.01,0.606"
         inkscape:connector-curvature="0" /><path
         id="path88"
         style="fill:#be4b1f;fill-opacity:1;fill-rule:nonzero;stroke:none"
         d="m 1243.37,381.66 24.21,72.422 -9.2,1.992 1,7.004 17.6,-0.598 16.6,0.598 1,-7.004 -12.8,-1.992 -32.81,-82.227 -14.6,-5.996 -34.81,88.223 -12.4,1.992 1,7.004 23,-0.598 21.01,0.598 1,-7.004 -13.2,-1.992 21.8,-58.613 1.6,-13.809"
         inkscape:connector-curvature="0" /><path
         id="path90"
         style="fill:#be4b1f;fill-opacity:1;fill-rule:nonzero;stroke:none"
         d="m 1354.38,429.863 c 0,15.41 -3,26.016 -18.41,26.016 -12.2,0 -20,-11.406 -21.6,-28.008 z m -40.21,-10 c 0,-22.793 12.2,-39.004 33.2,-39.004 8,0 17.61,3.809 25.01,8.399 l 3.2,-7.598 c -9.6,-6.601 -22.2,-12.207 -35,-15.801 -24.21,0 -46.02,17.207 -46.02,48.614 0,29.601 17.8,45.41 45.22,51.406 26.4,0 35.4,-16.602 35.4,-37.609 l 0,-8.407 -61.01,0"
         inkscape:connector-curvature="0" /><path
         id="path92"
         style="fill:#be4b1f;fill-opacity:1;fill-rule:nonzero;stroke:none"
         d="m 1419.97,436.875 22.8,28.008 16.01,0 0,-20.012 -14.81,0 c -4.8,-1.004 -13.6,-7.605 -19,-14.207 l -4,-4.797 0,-47.605 21,-2 -0.99,-7.61 -29.02,0.606 -22.4,-0.606 -1,7.012 14.01,1.992 0,73.016 -14.01,-1.199 -1,7.004 24,6.199 8.01,0.605 0.4,-26.406"
         inkscape:connector-curvature="0" /><path
         id="path94"
         style="fill:#be4b1f;fill-opacity:1;fill-rule:nonzero;stroke:none"
         d="m 1521.77,451.68 c -2,1.191 -8,4.394 -15.21,4.394 -7.8,0 -15.2,-4.199 -15.2,-11.797 0,-6.406 5.01,-10.41 14,-15 l 15.41,-7.812 c 13.4,-6.797 18.8,-14.395 18.8,-25.801 0,-18.008 -14.6,-24.805 -37.61,-29.805 -12.19,0 -25.2,5.996 -30.41,9.004 l -3.8,22.598 12.81,0 6.8,-16.602 c 4.2,-2.793 10,-5 16.4,-5 10.61,0 16.01,6.797 16.01,15.204 0,7.804 -4.2,11.203 -14.6,16.605 l -15.8,8.199 c -8.61,4.406 -16.81,12.004 -16.81,23.203 0,14.008 13,21.809 36.21,26.809 10.8,0 22.4,-4.805 28.2,-9.004 l 0,-20 -10.6,0 -4.6,14.805"
         inkscape:connector-curvature="0" /><path
         id="path96"
         style="fill:#be4b1f;fill-opacity:1;fill-rule:nonzero;stroke:none"
         d="m 1566.96,506.887 14.41,1.004 5.6,-1.004 1,-11.203 -2.2,-9.598 -14.21,-1.203 -5.4,1.203 -1.2,11.199 z m 10,-137.629 -23,-0.606 -1,7.012 14,1.992 0,73.016 -14,-1.199 -1,7.004 24.01,6.199 10,0.801 0,-85.821 15,-1.992 -1,-7.012 -23.01,0.606"
         inkscape:connector-curvature="0" /><path
         id="path98"
         style="fill:#be4b1f;fill-opacity:1;fill-rule:nonzero;stroke:none"
         d="m 1676.17,321.848 0,20.007 17.21,0 19.8,30.208 -8,-2.407 -33.61,84.223 -30.2,0 0,-61.02 c 0,-5.796 2.19,-12 10.59,-12 5.8,0 12,2.801 17.61,5.606 l 3.4,-6.809 -25.21,-13.797 c -22.4,0 -25.4,7.996 -25.4,25.996 l 0,59.622 -19.4,0 0,3.406 7,6.992 13,0 0,13.008 13.01,13 5.19,0 0,-25.012 63.02,0 1,-6.797 -13.21,-1.992 22.21,-58.613 1.6,-13.809 24.81,72.422 -9.2,1.992 0.99,7.004 17.61,-0.598 16.6,0.598 1,-7.004 -12.8,-1.992 -32.41,-81.824 -22.4,-50.41 -23.81,0"
         inkscape:connector-curvature="0" /><path
         id="path100"
         style="fill:#be4b1f;fill-opacity:1;fill-rule:nonzero;stroke:none"
         d="m 1855.17,375.664 c 16,0 24.2,16.399 24.2,38.008 0,25.398 -12.2,42.402 -29.6,42.402 -16.21,0 -24.21,-16.406 -24.21,-38.203 0,-22.812 11.8,-42.207 29.61,-42.207 z m 44.21,42.207 c 0,-29.805 -18.21,-47.012 -49.21,-52.012 -26.62,0 -44.61,20.606 -44.61,47.813 0,30 18.2,47.012 49.21,52.207 26.6,0 44.61,-20.801 44.61,-48.008"
         inkscape:connector-curvature="0" /><path
         id="path102"
         style="fill:#be4b1f;fill-opacity:1;fill-rule:nonzero;stroke:none"
         d="m 1944.36,460.879 25.01,0 0,-9.402 -25.01,0 0,-73.821 23,-1.394 -0.99,-7.61 -31.01,0.606 -23.01,-0.606 -0.99,7.012 13.99,1.992 0,73.821 -17.6,0 0,3.406 6,6.992 11.6,0 0,2.004 c 0,12 3.81,19.801 11.01,28.008 l 16.8,19.004 25.21,0 0,-16.008 -26.01,0 -3.8,-5.403 c -2.8,-3.796 -4.2,-9.597 -4.2,-22.605 l 0,-5.996"
         inkscape:connector-curvature="0" /><path
         id="path104"
         style="fill:#be4b1f;fill-opacity:1;fill-rule:nonzero;stroke:none"
         d="m 2122.36,368.652 -32.4,0.606 -33.6,-0.606 -1.01,7.012 24.01,2.598 0,121.23 -30,-0.41 -9.21,-25.402 -7.8,0 0,35.402 57.42,-0.598 57.6,0.598 0,-35.402 -7.8,0 -9.2,25.402 -30.01,0.41 0,-121.23 23.01,-2.598 -1.01,-7.012"
         inkscape:connector-curvature="0" /><path
         id="path106"
         style="fill:#be4b1f;fill-opacity:1;fill-rule:nonzero;stroke:none"
         d="m 2198.16,429.863 c 0,15.41 -2.99,26.016 -18.4,26.016 -12.2,0 -20,-11.406 -21.61,-28.008 z m -40.2,-10 c 0,-22.793 12.2,-39.004 33.2,-39.004 8,0 17.61,3.809 25.01,8.399 l 3.2,-7.598 c -9.6,-6.601 -22.2,-12.207 -35,-15.801 -24.21,0 -46.02,17.207 -46.02,48.614 0,29.601 17.8,45.41 45.21,51.406 26.41,0 35.4,-16.602 35.4,-37.609 l 0,-8.407 -61,0"
         inkscape:connector-curvature="0" /><path
         id="path108"
         style="fill:#be4b1f;fill-opacity:1;fill-rule:nonzero;stroke:none"
         d="m 2264.56,375.664 -1.01,-7.012 -15.6,0.606 -20.6,-0.606 -1,7.012 14,1.992 29.61,36.407 -29.01,39.816 -12.41,2 1.01,7.199 23.01,-0.598 19,0.598 1,-7.199 -7.8,-2 14.8,-22.207 1.6,-5.207 19.01,27.414 -9.81,2 1.01,7.199 15.59,-0.598 20.61,0.598 1,-7.199 -14.4,-2 -26.41,-32.004 31.41,-44.219 12.4,-1.992 -1,-7.012 -23,0.606 -19.01,-0.606 -1,7.012 8.2,1.992 -17.8,25.813 -1.6,4.597 -21.2,-30.41 9.4,-1.992"
         inkscape:connector-curvature="0" /><path
         id="path110"
         style="fill:#be4b1f;fill-opacity:1;fill-rule:nonzero;stroke:none"
         d="m 2390.56,416.863 -29.01,-12 c -3,-3 -4,-7.004 -4,-11.203 0,-10.203 5.8,-13.797 11.6,-13.797 5.61,0 10.41,3.399 13.01,5.196 l 8.4,5.8 z m -12.6,49.016 c 25.2,0 31.6,-6.406 31.6,-31.809 l 0,-39.207 c 0,-8.601 1.41,-11.797 3.4,-15 l 10.01,0 0.8,-7.011 -25.81,-5 -6.2,15.41 -23.81,-17.403 c -17.2,0 -29.41,9.602 -29.41,25.606 0,7.195 2.61,12.402 7.01,18.398 l 45.01,15 0,10.008 c 0,12.004 -1,19.211 -11.8,19.211 -5.4,0 -12,-1.805 -16.41,-3.613 l -3.39,-15.801 -17.21,0 0,15.203 36.21,16.008"
         inkscape:connector-curvature="0" /><path
         id="path112"
         style="fill:#be4b1f;fill-opacity:1;fill-rule:nonzero;stroke:none"
         d="m 2485.76,451.68 c -2,1.191 -8.01,4.394 -15.2,4.394 -7.81,0 -15.21,-4.199 -15.21,-11.797 0,-6.406 5,-10.41 14.01,-15 l 15.4,-7.812 c 13.4,-6.797 18.8,-14.395 18.8,-25.801 0,-18.008 -14.6,-24.805 -37.6,-29.805 -12.21,0 -25.21,5.996 -30.41,9.004 l -3.8,22.598 12.8,0 6.8,-16.602 c 4.2,-2.793 10,-5 16.4,-5 10.61,0 16.01,6.797 16.01,15.204 0,7.804 -4.2,11.203 -14.61,16.605 l -15.8,8.199 c -8.6,4.406 -16.81,12.004 -16.81,23.203 0,14.008 13.01,21.809 36.21,26.809 10.8,0 22.41,-4.805 28.21,-9.004 l 0,-20 -10.6,0 -4.6,14.805"
         inkscape:connector-curvature="0" /><path
         id="path114"
         style="fill:#be4b1f;fill-opacity:1;fill-rule:nonzero;stroke:none"
         d="m 2616.95,416.863 -29,-12 c -3,-3 -4,-7.004 -4,-11.203 0,-10.203 5.8,-13.797 11.6,-13.797 5.6,0 10.41,3.399 13,5.196 l 8.4,5.8 z m -12.59,49.016 c 25.2,0 31.6,-6.406 31.6,-31.809 l 0,-39.207 c 0,-8.601 1.4,-11.797 3.4,-15 l 10.01,0 0.8,-7.011 -25.81,-5 -6.21,15.41 -23.8,-17.403 c -17.2,0 -29.41,9.602 -29.41,25.606 0,7.195 2.61,12.402 7,18.398 l 45.01,15 0,10.008 c 0,12.004 -0.99,19.211 -11.79,19.211 -5.4,0 -12.01,-1.805 -16.41,-3.613 l -3.4,-15.801 -17.21,0 0,15.203 36.22,16.008"
         inkscape:connector-curvature="0" /><path
         id="path116"
         style="fill:#be4b1f;fill-opacity:1;fill-rule:nonzero;stroke:none"
         d="m 2649.15,451.477 0,3.406 7,6.992 13,0 0,13.008 13.01,13 5.19,0 0,-27.403 30.21,0 0,-9.003 -30,0 0,-58.618 c 0,-5.796 2.2,-12 10.59,-12 5.81,0 10.21,2 15.81,4.805 l 3.4,-6.809 -23.4,-12.996 c -22.41,0 -25.41,7.996 -25.41,25.996 l 0,59.622 -19.4,0"
         inkscape:connector-curvature="0" /><path
         id="path118"
         style="fill:#be4b1f;fill-opacity:1;fill-rule:nonzero;stroke:none"
         d="m 2828.55,477.883 -1.39,10.797 -22.01,-63.614 42.61,0 z m -26.6,-62.219 -13,-37.402 17.4,-2.598 -1,-7.012 -24,0.606 -21.41,-0.606 -0.99,7.012 15.59,2.195 49.61,129.621 12.01,3.411 52.21,-133.032 15.6,-2.195 -1,-7.012 -27.61,0.606 -26.4,-0.606 -1,7.012 17,2.598 -13.6,37.402 -49.41,0"
         inkscape:connector-curvature="0" /><path
         id="path120"
         style="fill:#be4b1f;fill-opacity:1;fill-rule:nonzero;stroke:none"
         d="m 2988.96,394.863 c 0,-8.601 1,-11.797 2.4,-15 l 10,0 0.8,-7.011 -25.8,-5 -5.61,16.211 -29,-18.204 c -26.41,0 -30.81,9.395 -30.81,32.598 l 0,52.215 -14,-1.004 -1,7.812 24,5.196 10,0.801 0,-66.614 c 0,-10.398 4.41,-15.008 14.21,-15.008 6.2,0 14.2,5 21.81,10 l 3.99,2.61 0,56.207 -12,-1.004 -1,7.812 22.01,5.196 10,0.801 0,-68.614"
         inkscape:connector-curvature="0" /><path
         id="path122"
         style="fill:#be4b1f;fill-opacity:1;fill-rule:nonzero;stroke:none"
         d="m 3065.16,451.68 c -2.01,1.191 -8.01,4.394 -15.21,4.394 -7.8,0 -15.2,-4.199 -15.2,-11.797 0,-6.406 5,-10.41 14,-15 l 15.4,-7.812 c 13.41,-6.797 18.81,-14.395 18.81,-25.801 0,-18.008 -14.61,-24.805 -37.61,-29.805 -12.21,0 -25.2,5.996 -30.41,9.004 l -3.8,22.598 12.81,0 6.79,-16.602 c 4.2,-2.793 10,-5 16.41,-5 10.6,0 16,6.797 16,15.204 0,7.804 -4.19,11.203 -14.61,16.605 l -15.8,8.199 c -8.6,4.406 -16.8,12.004 -16.8,23.203 0,14.008 13.01,21.809 36.21,26.809 10.8,0 22.4,-4.805 28.2,-9.004 l 0,-20 -10.59,0 -4.6,14.805"
         inkscape:connector-curvature="0" /><path
         id="path124"
         style="fill:#be4b1f;fill-opacity:1;fill-rule:nonzero;stroke:none"
         d="m 3089.35,451.477 0,3.406 7,6.992 13,0 0,13.008 13,13 5.2,0 0,-27.403 30.2,0 0,-9.003 -30,0 0,-58.618 c 0,-5.796 2.2,-12 10.6,-12 5.8,0 10.2,2 15.81,4.805 l 3.4,-6.809 -23.41,-12.996 c -22.4,0 -25.4,7.996 -25.4,25.996 l 0,59.622 -19.4,0"
         inkscape:connector-curvature="0" /><path
         id="path126"
         style="fill:#be4b1f;fill-opacity:1;fill-rule:nonzero;stroke:none"
         d="m 3183.14,506.887 14.4,1.004 5.6,-1.004 1,-11.203 -2.2,-9.598 -14.2,-1.203 -5.4,1.203 -1.2,11.199 z m 10,-137.629 -23,-0.606 -1,7.012 14,1.992 0,73.016 -14,-1.199 -1.01,7.004 24.01,6.199 10.01,0.801 0,-85.821 15,-1.992 -1,-7.012 -23.01,0.606"
         inkscape:connector-curvature="0" /><path
         id="path128"
         style="fill:#be4b1f;fill-opacity:1;fill-rule:nonzero;stroke:none"
         d="m 3250.14,369.258 -23,-0.606 -1.01,7.012 14.01,1.992 0,73.016 -14.01,-1.199 -0.99,7.004 24,6.199 8.6,0.605 1,-16.804 29.61,19.402 c 25.61,0 29.8,-8.602 29.8,-32.609 l 0,-55.614 15.21,-1.992 -1.01,-7.012 -22.99,0.606 -19.21,-0.606 -1,7.012 10,1.992 0,57.215 c 0,10.402 -4.6,15 -13.2,15 -7,0 -14.01,-4.402 -20.8,-8.992 l -6.01,-4.004 0,-59.219 11.01,-1.992 -1.01,-7.012 -19,0.606"
         inkscape:connector-curvature="0" /></g></g></svg>