<?xml version="1.0" standalone="no"?>
<!DOCTYPE svg PUBLIC "-//W3C//DTD SVG 20010904//EN"
 "http://www.w3.org/TR/2001/REC-SVG-20010904/DTD/svg10.dtd">
<svg version="1.0" xmlns="http://www.w3.org/2000/svg"
 width="500.000000pt" height="500.000000pt" viewBox="0 0 500.000000 500.000000"
 preserveAspectRatio="xMidYMid meet">
<metadata>
Created by potrace 1.11, written by Peter Selinger 2001-2013
</metadata>
<g transform="translate(0.000000,500.000000) scale(0.100000,-0.100000)"
fill="#000000" stroke="none">
<path d="M114 4741 c-2 -2 -4 -712 -4 -1577 l0 -1573 27 -14 c16 -8 62 -33
103 -57 41 -23 100 -56 130 -72 30 -17 84 -47 120 -68 36 -20 90 -51 120 -67
30 -17 154 -85 275 -153 121 -68 240 -134 265 -148 25 -14 79 -44 120 -67 41
-23 95 -53 120 -67 25 -14 137 -77 250 -140 113 -63 228 -127 255 -143 28 -15
100 -55 160 -90 61 -34 135 -76 165 -92 150 -83 244 -135 259 -145 21 -13 29
-9 301 144 279 157 260 147 395 222 66 37 127 71 135 76 13 8 226 126 395 220
33 18 130 72 215 120 85 48 180 101 210 118 30 16 213 118 405 226 l350 195 3
1578 2 1578 -2386 0 c-1312 0 -2388 -2 -2390 -4z"/>
</g>
</svg>
