<?xml version="1.0" encoding="utf-8"?>
<!-- Generator: Adobe Illustrator 16.0.0, SVG Export Plug-In . SVG Version: 6.00 Build 0)  -->
<!DOCTYPE svg PUBLIC "-//W3C//DTD SVG 1.1//EN" "http://www.w3.org/Graphics/SVG/1.1/DTD/svg11.dtd">
<svg version="1.1" id="Layer_1" xmlns="http://www.w3.org/2000/svg" xmlns:xlink="http://www.w3.org/1999/xlink" x="0px" y="0px"
	 width="800px" height="600px" viewBox="0 0 800 600" enable-background="new 0 0 800 600" xml:space="preserve">
<g>
	<g>
		<path fill="#0086CB" d="M369.053,361.884c-4.434,0-8.446,1.797-11.352,4.702c-2.905,2.906-4.702,6.92-4.702,11.352
			c0,4.433,1.797,8.445,4.702,11.352c2.906,2.905,6.918,4.702,11.352,4.702c4.432,0,8.445-1.797,11.351-4.702
			c2.905-2.906,4.703-6.919,4.703-11.352c0-4.432-1.798-8.445-4.703-11.352C377.498,363.681,373.484,361.884,369.053,361.884
			 M381.716,365.272L381.716,365.272 M369.053,359.938c9.938,0,17.999,8.06,17.999,18c0,9.938-8.061,18-17.999,18
			c-9.94,0-18.001-8.062-18.001-18C351.051,367.997,359.112,359.938,369.053,359.938 M356.388,365.272L356.388,365.272"/>
		<path fill="#0086CB" d="M360.537,377.797c0-1.055-0.695-1.647-1.679-1.647h-0.603v3.293h0.587
			C359.755,379.442,360.537,378.943,360.537,377.797 M371.269,378.978l-4.445,3.496l-4.065-3.195
			c-0.584,1.407-1.997,2.389-3.632,2.389h-3.473v-7.741h3.473c1.826,0,3.138,1.153,3.631,2.391l4.066-3.195l1.506,1.184
			l-3.723,2.929l0.713,0.56l3.723-2.927l1.507,1.184l-3.724,2.928l0.715,0.562l3.728-2.927v-2.687h2.702v5.478h2.69v2.266h-5.392
			V378.978z M380.083,379.404h2.69v2.265h-5.393v-7.743h2.703V379.404z"/>
		<rect x="395.744" y="359.938" fill="#ADB2B7" width="0.913" height="36.017"/>
	</g>
	<g display="none">
		<path display="inline" fill="#0078D6" d="M396.145,368.516l11.103-1.524v10.73h-11.103 M408.585,366.78l14.711-2.148v13h-14.711
			 M396.145,378.856h11.103v10.761l-11.103-1.555 M408.585,378.999h14.711v12.876l-14.711-2.084"/>
		<path display="inline" fill="#0078D6" d="M432.207,370.009c0.672,0.003,1.344,0.003,2.019,0.012
			c1.048,3.786,2.081,7.577,3.132,11.366c0.224,0.794,0.391,1.606,0.49,2.43c1.093-4.647,2.585-9.197,3.839-13.808
			c0.582,0.003,1.165,0.003,1.747,0.006c0.922,3.281,1.784,6.577,2.698,9.861c0.337,1.308,0.773,2.598,0.91,3.95
			c0.989-4.643,2.398-9.192,3.518-13.806c0.663-0.009,1.325-0.009,1.988-0.009c-1.444,5.282-2.949,10.548-4.413,15.824h-2.151
			c-1.061-3.789-2.111-7.581-3.184-11.364c-0.179-0.612-0.254-1.245-0.311-1.877c-0.083,0.546-0.161,1.098-0.301,1.633
			c-1.084,3.857-2.184,7.708-3.237,11.572c-0.716,0.039-1.433,0.042-2.149,0.036C435.265,380.562,433.739,375.285,432.207,370.009"
			/>
		<path display="inline" fill="#0078D6" d="M453.777,370.137c0.083-0.653,0.681-1.117,1.334-1.035
			c0.655,0.083,1.119,0.68,1.036,1.335c-0.082,0.653-0.68,1.117-1.334,1.034c-0.541-0.067-0.968-0.493-1.036-1.034 M454.047,374.49
			h1.791v11.345h-1.791"/>
		<path display="inline" fill="#0078D6" d="M460.604,376.317c1.023-1.824,3.413-2.663,5.338-1.818
			c1.532,0.598,2.102,2.37,2.149,3.881c0.084,2.484,0.016,4.972,0.036,7.455c-0.597,0-1.194,0-1.792-0.003
			c-0.026-2.385,0.063-4.776-0.041-7.162c-0.048-1.183-0.55-2.604-1.837-2.904c-1.878-0.568-3.752,1.125-3.812,2.981
			c-0.055,2.362-0.003,4.727-0.021,7.088h-1.791c0.003-3.782,0.003-7.562,0-11.345h1.794
			C460.624,375.1,460.621,375.708,460.604,376.317"/>
		<path display="inline" fill="#0078D6" d="M478.836,369.119c0.598-0.003,1.195-0.003,1.792-0.003v16.719h-1.786
			c0.003-0.605-0.009-1.212-0.05-1.817c-1.293,2.322-4.75,2.836-6.728,1.113c-1.412-1.215-1.842-3.191-1.767-4.979
			c0.015-1.816,0.612-3.744,2.057-4.931c1.878-1.546,5.207-1.457,6.493,0.816C478.824,373.729,478.845,371.424,478.836,369.119
			 M474.979,375.729c-1.433,0.227-2.402,1.534-2.672,2.887c-0.352,1.63-0.29,3.517,0.737,4.902c1.11,1.475,3.562,1.508,4.75,0.113
			c0.81-0.842,1.039-2.048,1.045-3.177c0.009-1.191,0.111-2.535-0.68-3.529C477.46,375.932,476.154,375.484,474.979,375.729"/>
		<path display="inline" fill="#0078D6" d="M487.596,374.21c1.598-0.141,3.368,0.109,4.567,1.266
			c1.356,1.251,1.76,3.194,1.685,4.971c-0.021,1.598-0.612,3.219-1.782,4.332c-2.442,2.222-6.977,1.734-8.527-1.319
			c-1.218-2.559-0.973-6.1,1.251-8.043C485.587,374.74,486.596,374.434,487.596,374.21 M487.273,375.834
			c-2.63,0.809-3.075,4.246-2.254,6.506c0.654,2.006,3.203,2.896,5.034,1.958c1.239-0.57,1.803-1.967,1.922-3.248
			c0.135-1.496,0.015-3.192-1.042-4.359C490.038,375.682,488.521,375.464,487.273,375.834"/>
		<path display="inline" fill="#0078D6" d="M494.594,374.49h1.869c0.74,2.702,1.457,5.41,2.212,8.108
			c0.153,0.508,0.209,1.033,0.264,1.559c0.845-3.254,1.914-6.449,2.872-9.67l1.633,0.009c0.821,3.224,1.842,6.401,2.522,9.658
			c0.702-3.239,1.699-6.407,2.479-9.628c0.6-0.03,1.2-0.039,1.804-0.045c-1.138,3.782-2.228,7.577-3.371,11.354h-1.856
			c-0.807-3.075-1.852-6.09-2.505-9.198c-0.779,3.105-1.86,6.126-2.75,9.198h-1.795C496.849,382.053,495.702,378.279,494.594,374.49
			"/>
		<path display="inline" fill="#0078D6" d="M514.762,374.203c1.12-0.077,2.26,0.03,3.314,0.442c0.293,0.555,0.065,1.284,0.134,1.908
			c-1.257-0.786-2.988-1.287-4.354-0.487c-0.934,0.508-0.979,2.009-0.067,2.568c1.304,0.845,2.961,1.064,4.12,2.151
			c1.277,1.23,0.967,3.596-0.529,4.518c-1.818,1.159-4.212,1.045-6.117,0.162c0-0.669-0.003-1.338-0.015-2.007
			c1.354,1.032,3.26,1.606,4.881,0.871c0.947-0.475,0.995-1.929,0.162-2.541c-1.305-0.961-3.093-1.112-4.252-2.312
			c-1.144-1.153-0.938-3.273,0.338-4.249C513.036,374.621,513.929,374.439,514.762,374.203"/>
		<path display="inline" fill="#0078D6" d="M527.245,369.758c0.157-0.021,0.475-0.065,0.63-0.087
			c0.009,5.386,0.003,10.775,0.003,16.164h-1.769c0.013-4.484-0.028-8.971,0.021-13.456c-1.125,0.78-2.34,1.445-3.663,1.816
			c0.009-0.599,0.015-1.195,0.021-1.792C524.221,371.814,525.797,370.866,527.245,369.758"/>
		<path display="inline" fill="#0078D6" d="M534.407,369.752c1.552-0.26,3.275,0.308,4.197,1.627
			c1.311,1.852,1.434,4.226,1.499,6.413c-0.045,2.312-0.298,4.816-1.773,6.7c-1.358,1.782-4.141,2.2-5.962,0.889
			c-1.478-1.065-2.058-2.926-2.319-4.647c-0.3-2.56-0.272-5.243,0.617-7.686C531.228,371.392,532.612,369.964,534.407,369.752
			 M534.133,371.355c-1.592,0.645-2.049,2.525-2.27,4.054c-0.232,2.132-0.287,4.33,0.221,6.428c0.254,1.033,0.788,2.129,1.812,2.583
			c1.162,0.585,2.714,0.081,3.326-1.065c0.976-1.688,1-3.711,1.012-5.607c-0.039-1.848-0.113-3.836-1.134-5.442
			C536.494,371.325,535.189,370.932,534.133,371.355"/>
	</g>
	<g>
		<g>
			<polygon fill="#00AEEF" points="416.36,377.567 432.095,377.567 432.095,363.76 416.36,365.943 			"/>
			<polygon fill="#00AEEF" points="415.889,377.567 415.889,366.009 403.841,367.682 403.841,377.567 			"/>
			<polygon fill="#00AEEF" points="415.889,378.035 403.841,378.035 403.841,387.911 415.889,389.582 			"/>
			<polygon fill="#00AEEF" points="416.36,378.035 416.36,389.647 432.095,391.829 432.095,378.035 			"/>
		</g>
		<g>
			<path fill="#00AEEF" d="M466.012,370.502c0,0.354-0.124,0.649-0.372,0.885c-0.249,0.235-0.544,0.353-0.885,0.353
				c-0.349,0-0.644-0.113-0.884-0.341c-0.241-0.228-0.361-0.526-0.361-0.896c0-0.331,0.118-0.618,0.355-0.86
				c0.236-0.243,0.533-0.364,0.89-0.364s0.655,0.119,0.896,0.358C465.892,369.874,466.012,370.163,466.012,370.502z"/>
		</g>
		<g>
			<path fill="#00AEEF" d="M462.248,369.631l-4.718,16.595h-2.294l-3.728-13.146h-0.047l-3.738,13.146h-2.271l-4.881-16.595h2.144
				l3.866,13.853h0.047l4.03-13.853h1.887l3.821,13.898h0.046l3.716-13.898H462.248z"/>
			<path fill="#00AEEF" d="M465.741,386.226h-1.909v-11.85h1.909V386.226z"/>
			<path fill="#00AEEF" d="M478.511,386.226H476.6v-6.758c0-2.507-0.924-3.761-2.771-3.761c-0.939,0-1.726,0.353-2.358,1.059
				c-0.634,0.706-0.95,1.606-0.95,2.702v6.758h-1.91v-11.85h1.91v1.967h0.047c0.894-1.504,2.198-2.256,3.914-2.256
				c1.312,0,2.312,0.424,2.999,1.272c0.688,0.85,1.031,2.053,1.031,3.61V386.226z"/>
			<path fill="#00AEEF" d="M491.675,386.226h-1.91v-2.013h-0.047c-0.885,1.535-2.252,2.303-4.1,2.303
				c-1.507,0-2.707-0.538-3.6-1.614c-0.894-1.077-1.34-2.514-1.34-4.312c0-1.959,0.495-3.533,1.485-4.721
				c0.99-1.188,2.316-1.782,3.978-1.782c1.631,0,2.823,0.641,3.576,1.921h0.047v-7.325h1.91V386.226z M489.765,380.868v-1.748
				c0-0.979-0.328-1.793-0.984-2.441c-0.656-0.647-1.454-0.972-2.394-0.972c-1.149,0-2.062,0.422-2.737,1.267
				s-1.014,2.016-1.014,3.513c0,1.357,0.318,2.432,0.955,3.223s1.495,1.187,2.574,1.187c1.049,0,1.91-0.378,2.586-1.135
				C489.427,383.005,489.765,382.041,489.765,380.868z"/>
			<path fill="#00AEEF" d="M505.853,380.255c0,1.883-0.538,3.396-1.613,4.542c-1.076,1.146-2.519,1.719-4.327,1.719
				c-1.763,0-3.171-0.558-4.223-1.673c-1.053-1.114-1.578-2.582-1.578-4.403c0-1.959,0.539-3.508,1.619-4.646
				c1.079-1.138,2.566-1.707,4.461-1.707c1.771,0,3.156,0.55,4.158,1.648C505.352,376.835,505.853,378.342,505.853,380.255z
				 M503.896,380.324c0-1.489-0.332-2.631-0.996-3.426c-0.664-0.794-1.613-1.191-2.848-1.191c-1.227,0-2.197,0.407-2.912,1.221
				c-0.715,0.814-1.071,1.962-1.071,3.442c0,1.42,0.358,2.528,1.077,3.327c0.718,0.799,1.688,1.198,2.906,1.198
				c1.242,0,2.193-0.394,2.854-1.181S503.896,381.798,503.896,380.324z"/>
			<path fill="#00AEEF" d="M523.195,374.376l-3.576,11.85h-1.979l-2.668-9.199h-0.046l-2.89,9.199h-1.909l-3.6-11.85h2.003
				l2.633,9.559h0.093l2.947-9.559h1.747l2.656,9.559h0.093l2.609-9.559H523.195z"/>
			<path fill="#00AEEF" d="M531.29,383.056c0,1.025-0.397,1.859-1.194,2.499c-0.796,0.641-1.854,0.961-3.174,0.961
				c-1.126,0-2.112-0.239-2.958-0.718v-2.037c0.939,0.757,1.972,1.135,3.098,1.135c1.515,0,2.271-0.552,2.271-1.655
				c0-0.447-0.147-0.812-0.442-1.094c-0.295-0.281-0.967-0.661-2.016-1.14c-1.056-0.447-1.801-0.928-2.236-1.44
				c-0.435-0.514-0.652-1.194-0.652-2.043c0-0.979,0.396-1.797,1.188-2.453c0.792-0.655,1.798-0.983,3.017-0.983
				c0.939,0,1.79,0.185,2.551,0.555v1.91c-0.776-0.563-1.677-0.845-2.702-0.845c-0.629,0-1.136,0.154-1.52,0.463
				c-0.385,0.309-0.577,0.706-0.577,1.191c0,0.525,0.147,0.928,0.443,1.21c0.295,0.281,0.903,0.615,1.828,1.001
				c1.134,0.479,1.93,0.979,2.388,1.504C531.061,381.602,531.29,382.261,531.29,383.056z"/>
		</g>
	</g>
	<g>
		<path fill="#353535" d="M250.559,375.4c0,1.14-0.387,2.013-1.162,2.62c-0.774,0.608-1.87,0.912-3.29,0.912h-1.822v4.87h-0.823
			v-11.789h2.887C249.156,372.014,250.559,373.142,250.559,375.4 M244.285,378.223h1.621c1.328,0,2.287-0.219,2.879-0.657
			c0.591-0.438,0.887-1.149,0.887-2.133c0-0.909-0.28-1.582-0.839-2.021c-0.559-0.438-1.425-0.656-2.597-0.656h-1.951V378.223z"/>
		<path fill="#353535" d="M263.033,377.892c0,1.871-0.467,3.352-1.403,4.439c-0.935,1.089-2.225,1.633-3.87,1.633
			c-1.64,0-2.928-0.544-3.863-1.633c-0.935-1.088-1.403-2.573-1.403-4.455c0-1.876,0.472-3.354,1.415-4.432
			c0.944-1.077,2.233-1.616,3.867-1.616c1.645,0,2.932,0.542,3.862,1.625S263.033,376.016,263.033,377.892 M253.389,377.892
			c0,1.688,0.376,2.993,1.129,3.915c0.752,0.922,1.833,1.383,3.242,1.383c1.419,0,2.503-0.457,3.253-1.371
			c0.751-0.913,1.125-2.223,1.125-3.927c0-1.699-0.374-3.001-1.125-3.907c-0.75-0.905-1.829-1.358-3.237-1.358
			c-1.403,0-2.485,0.457-3.246,1.371C253.769,374.911,253.389,376.21,253.389,377.892"/>
		<path fill="#353535" d="M275.138,383.803h-0.677l-2.589-9.096c-0.215-0.747-0.376-1.36-0.484-1.839
			c-0.086,0.468-0.208,1.006-0.367,1.612c-0.158,0.608-1.025,3.715-2.6,9.322h-0.694l-3.242-11.79h0.863l2.065,7.597
			c0.08,0.307,0.155,0.59,0.226,0.852c0.069,0.261,0.133,0.505,0.189,0.732c0.056,0.229,0.107,0.449,0.153,0.662
			c0.046,0.212,0.088,0.426,0.125,0.642c0.129-0.732,0.403-1.843,0.823-3.331l2.016-7.153h0.911l2.363,8.21
			c0.274,0.946,0.47,1.709,0.588,2.29c0.07-0.387,0.16-0.798,0.27-1.234c0.111-0.435,0.94-3.523,2.488-9.266h0.831L275.138,383.803z
			"/>
		<polygon fill="#353535" points="286.919,383.803 280.476,383.803 280.476,372.013 286.919,372.013 286.919,372.771 
			281.299,372.771 281.299,377.23 286.605,377.23 286.605,377.988 281.299,377.988 281.299,383.045 286.919,383.045 		"/>
		<path fill="#353535" d="M290.411,378.666v5.137h-0.823v-11.789h2.807c1.462,0,2.543,0.27,3.241,0.81
			c0.699,0.541,1.049,1.354,1.049,2.44c0,0.79-0.209,1.457-0.625,2c-0.417,0.543-1.05,0.932-1.899,1.169l3.201,5.37h-0.984
			l-3.04-5.137H290.411z M290.411,377.956h2.25c0.994,0,1.766-0.222,2.314-0.665c0.548-0.443,0.823-1.098,0.823-1.964
			c0-0.897-0.269-1.551-0.807-1.959c-0.537-0.409-1.414-0.613-2.629-0.613h-1.951V377.956z"/>
		<polygon fill="#353535" points="305.845,383.803 299.402,383.803 299.402,372.013 305.845,372.013 305.845,372.771 
			300.225,372.771 300.225,377.23 305.531,377.23 305.531,377.988 300.225,377.988 300.225,383.045 305.845,383.045 		"/>
		<path fill="#353535" d="M317.465,377.795c0,1.979-0.519,3.475-1.556,4.487c-1.038,1.014-2.562,1.52-4.573,1.52h-2.822v-11.788
			h3.185c1.882,0,3.313,0.491,4.294,1.476C316.975,374.474,317.465,375.908,317.465,377.795 M316.57,377.827
			c0-1.688-0.429-2.958-1.286-3.81c-0.858-0.853-2.117-1.278-3.778-1.278h-2.169v10.338h1.951
			C314.809,383.077,316.57,381.327,316.57,377.827"/>
		<path fill="#353535" d="M324.464,372.014h3.234c1.457,0,2.527,0.247,3.21,0.741c0.683,0.495,1.024,1.243,1.024,2.242
			c0,0.683-0.209,1.252-0.625,1.705c-0.417,0.454-1.026,0.746-1.826,0.875v0.049c0.94,0.14,1.633,0.437,2.076,0.891
			c0.444,0.454,0.665,1.088,0.665,1.899c0,1.086-0.36,1.922-1.08,2.508c-0.721,0.586-1.742,0.879-3.065,0.879h-3.613V372.014z
			 M325.288,377.263h2.597c1.107,0,1.912-0.185,2.415-0.552c0.502-0.368,0.754-0.945,0.754-1.73s-0.284-1.354-0.851-1.71
			c-0.567-0.354-1.413-0.531-2.536-0.531h-2.379V377.263z M325.288,377.988v5.089h2.774c2.183,0,3.274-0.887,3.274-2.661
			c0-1.618-1.15-2.428-3.451-2.428H325.288z"/>
		<polygon fill="#353535" points="337.529,378.465 340.98,372.014 341.867,372.014 337.94,379.246 337.94,383.803 337.093,383.803 
			337.093,379.312 333.15,372.014 334.094,372.014 		"/>
	</g>
	<g>
		<path fill="#353535" d="M233.229,324.175c0.37,0.164,0.689,0.379,0.956,0.646c0.267,0.268,0.481,0.585,0.645,0.955
			c0.163,0.369,0.245,0.761,0.245,1.174v14.559c0,0.138-0.048,0.254-0.142,0.349c-0.095,0.094-0.21,0.141-0.349,0.141h-3.588
			c-0.136,0-0.248-0.047-0.334-0.141c-0.086-0.095-0.13-0.211-0.13-0.349v-13.19h-2.891v13.19c0,0.138-0.044,0.254-0.13,0.349
			c-0.086,0.094-0.197,0.141-0.334,0.141h-3.254c-0.136,0-0.254-0.047-0.346-0.141c-0.097-0.095-0.143-0.211-0.143-0.349v-13.19
			h-2.89v13.19c0,0.326-0.164,0.489-0.492,0.489h-3.56c-0.328,0-0.492-0.163-0.492-0.489V324.42c0-0.326,0.164-0.49,0.492-0.49
			h15.563C232.469,323.93,232.859,324.012,233.229,324.175"/>
		<path fill="#353535" d="M251.284,323.93c0.413,0,0.804,0.082,1.176,0.244c0.37,0.164,0.687,0.38,0.953,0.646
			c0.267,0.267,0.482,0.585,0.645,0.955c0.164,0.369,0.246,0.761,0.246,1.174v14.558c0,0.138-0.048,0.255-0.141,0.35
			c-0.096,0.095-0.212,0.142-0.348,0.142h-3.588c-0.139,0-0.254-0.047-0.349-0.142c-0.094-0.095-0.143-0.212-0.143-0.35v-4.62
			c0-0.137-0.042-0.254-0.128-0.349c-0.086-0.094-0.199-0.141-0.336-0.141h-5.111c-0.138,0-0.254,0.047-0.348,0.141
			c-0.095,0.095-0.143,0.212-0.143,0.349v4.62c0,0.327-0.164,0.491-0.49,0.491h-3.562c-0.326,0-0.49-0.164-0.49-0.491v-14.558
			c0-0.413,0.078-0.805,0.231-1.174c0.156-0.37,0.37-0.688,0.647-0.955c0.274-0.267,0.597-0.482,0.967-0.646
			c0.369-0.162,0.762-0.244,1.174-0.244H251.284z M249.735,327.982h-6.066v4.544h6.066V327.982z"/>
		<path fill="#353535" d="M270.554,324.071c0.095,0.095,0.141,0.211,0.141,0.35v14.558c0,0.413-0.082,0.804-0.244,1.174
			c-0.164,0.37-0.38,0.693-0.647,0.967c-0.267,0.277-0.584,0.491-0.954,0.646c-0.369,0.155-0.762,0.231-1.174,0.231h-7.77
			c-0.414,0-0.804-0.076-1.174-0.231c-0.37-0.155-0.693-0.369-0.968-0.646c-0.276-0.273-0.49-0.597-0.645-0.967
			c-0.156-0.37-0.233-0.761-0.233-1.174v-5.525c0-0.326,0.163-0.489,0.491-0.489h3.563c0.325,0,0.489,0.163,0.489,0.489v3.692
			c0,0.138,0.046,0.249,0.143,0.335c0.094,0.086,0.21,0.129,0.347,0.129h3.743c0.138,0,0.254-0.043,0.348-0.129
			c0.095-0.086,0.143-0.197,0.143-0.335v-12.725c0-0.139,0.042-0.255,0.128-0.35c0.087-0.095,0.198-0.142,0.337-0.142h3.587
			C270.342,323.93,270.459,323.977,270.554,324.071"/>
		<path fill="#353535" d="M286.88,323.93c0.414,0,0.805,0.082,1.174,0.244c0.37,0.164,0.689,0.38,0.956,0.646
			c0.267,0.267,0.481,0.585,0.645,0.955c0.164,0.369,0.246,0.761,0.246,1.174v12.028c0,0.413-0.082,0.806-0.246,1.175
			c-0.164,0.37-0.378,0.693-0.645,0.968c-0.267,0.276-0.586,0.49-0.956,0.646c-0.369,0.154-0.76,0.232-1.174,0.232h-9.138
			c-0.411,0-0.804-0.078-1.174-0.232c-0.369-0.155-0.693-0.369-0.968-0.646c-0.275-0.274-0.49-0.598-0.645-0.968
			c-0.155-0.369-0.233-0.762-0.233-1.175v-12.028c0-0.413,0.078-0.805,0.233-1.174c0.155-0.37,0.37-0.688,0.645-0.955
			s0.599-0.482,0.968-0.646c0.37-0.162,0.763-0.244,1.174-0.244H286.88z M285.332,328.318h-6.066v9.292h6.066V328.318z"/>
		<path fill="#353535" d="M309.697,341.585c0.067,0.121,0.077,0.22,0.025,0.296c-0.053,0.078-0.147,0.117-0.284,0.117h-4.104
			c-0.139,0-0.276-0.039-0.414-0.117c-0.137-0.076-0.24-0.175-0.309-0.296l-2.737-4.905c-0.034-0.067-0.095-0.103-0.181-0.103
			h-3.071c-0.086,0-0.128,0.043-0.128,0.129v4.801c0,0.327-0.164,0.491-0.491,0.491h-3.561c-0.328,0-0.491-0.164-0.491-0.491V324.42
			c0-0.326,0.163-0.49,0.491-0.49h11.667c0.411,0,0.804,0.082,1.174,0.244c0.37,0.164,0.687,0.38,0.954,0.646
			c0.266,0.267,0.483,0.585,0.647,0.955c0.161,0.369,0.243,0.761,0.243,1.174v6.789c0,0.654-0.193,1.244-0.579,1.768
			c-0.387,0.525-0.883,0.882-1.486,1.071l-0.077,0.026c-0.12,0.034-0.145,0.087-0.076,0.154l0.025,0.051L309.697,341.585z
			 M304.559,328.137h-6.22v4.389h6.22V328.137z"/>
		<path fill="#353535" d="M334.038,337.609c0.137,0,0.25,0.047,0.336,0.143c0.086,0.094,0.128,0.211,0.128,0.348v3.408
			c0,0.137-0.042,0.254-0.128,0.348c-0.086,0.096-0.199,0.143-0.336,0.143h-11.15c-0.328,0-0.491-0.164-0.491-0.49V324.42
			c0-0.326,0.163-0.49,0.491-0.49h3.561c0.327,0,0.491,0.164,0.491,0.49v12.726c0,0.138,0.046,0.249,0.141,0.335
			c0.094,0.086,0.212,0.129,0.349,0.129H334.038z"/>
		<path fill="#353535" d="M350.7,324.071c0.092,0.095,0.141,0.211,0.141,0.35v1.471v0.773v1.007c0,0.139-0.049,0.25-0.141,0.336
			c-0.097,0.087-0.212,0.13-0.349,0.13h-1.834h-5.369h-1.445c-0.086,0-0.128,0.043-0.128,0.129v2.812
			c0,0.069,0.042,0.104,0.128,0.104h7.384c0.136,0,0.248,0.047,0.334,0.141c0.086,0.096,0.13,0.211,0.13,0.35v2.581
			c0,0.138-0.044,0.254-0.13,0.348c-0.086,0.095-0.198,0.142-0.334,0.142h-7.384c-0.086,0-0.128,0.043-0.128,0.129v1.266v0.025
			v1.497c0,0.086,0.042,0.129,0.128,0.129h1.084h5.833h1.731c0.137,0,0.252,0.048,0.349,0.143c0.092,0.095,0.141,0.211,0.141,0.348
			v1.033v1.342v0.853c0,0.137-0.049,0.254-0.141,0.349c-0.097,0.094-0.212,0.141-0.349,0.141h-1.472h-9.808h-1.548
			c-0.328,0-0.492-0.163-0.492-0.489v-0.878v-14.972v-1.237c0-0.139,0.049-0.255,0.143-0.35c0.095-0.095,0.21-0.142,0.349-0.142
			h1.884h10.117h0.827C350.488,323.93,350.603,323.977,350.7,324.071"/>
		<path fill="#353535" d="M367.076,323.93c0.414,0,0.805,0.082,1.176,0.244c0.37,0.164,0.687,0.38,0.954,0.646
			s0.481,0.585,0.645,0.955c0.164,0.369,0.246,0.761,0.246,1.174v14.558c0,0.138-0.049,0.255-0.141,0.35
			c-0.097,0.095-0.212,0.142-0.349,0.142h-3.587c-0.139,0-0.255-0.047-0.349-0.142c-0.095-0.095-0.143-0.212-0.143-0.35v-4.62
			c0-0.137-0.042-0.254-0.128-0.349c-0.086-0.094-0.2-0.141-0.336-0.141h-5.111c-0.139,0-0.254,0.047-0.349,0.141
			c-0.094,0.095-0.143,0.212-0.143,0.349v4.62c0,0.327-0.163,0.491-0.489,0.491h-3.563c-0.325,0-0.489-0.164-0.489-0.491v-14.558
			c0-0.413,0.078-0.805,0.231-1.174c0.156-0.37,0.37-0.688,0.647-0.955c0.273-0.267,0.597-0.482,0.966-0.646
			c0.37-0.162,0.763-0.244,1.175-0.244H367.076z M365.528,327.982h-6.066v4.544h6.066V327.982z"/>
		<path fill="#353535" d="M389.157,332.279c0.095,0.096,0.143,0.211,0.143,0.35v6.35c0,0.413-0.082,0.804-0.246,1.174
			c-0.164,0.37-0.378,0.693-0.645,0.967c-0.267,0.277-0.586,0.491-0.956,0.646c-0.369,0.155-0.76,0.231-1.174,0.231h-9.137
			c-0.412,0-0.805-0.076-1.175-0.231c-0.369-0.155-0.693-0.369-0.968-0.646c-0.275-0.273-0.489-0.597-0.645-0.967
			c-0.155-0.37-0.233-0.761-0.233-1.174v-12.029c0-0.413,0.078-0.805,0.233-1.174c0.156-0.37,0.37-0.688,0.645-0.955
			c0.275-0.267,0.599-0.481,0.968-0.646c0.37-0.163,0.763-0.245,1.175-0.245h10.66c0.139,0,0.254,0.047,0.349,0.142
			c0.094,0.096,0.143,0.211,0.143,0.35v3.406c0,0.138-0.049,0.254-0.143,0.35c-0.095,0.094-0.21,0.141-0.349,0.141h-8.646
			c-0.139,0-0.254,0.043-0.349,0.129c-0.094,0.087-0.142,0.198-0.142,0.336v8.363c0,0.138,0.048,0.249,0.142,0.335
			c0.095,0.086,0.21,0.129,0.349,0.129h5.111c0.136,0,0.248-0.043,0.334-0.129s0.13-0.197,0.13-0.335v-4.517
			c0-0.139,0.046-0.254,0.141-0.35c0.094-0.095,0.212-0.142,0.349-0.142h3.587C388.947,332.138,389.062,332.185,389.157,332.279"/>
		<path fill="#353535" d="M408.208,324.071c0.092,0.095,0.141,0.211,0.141,0.35v14.558c0,0.413-0.082,0.804-0.246,1.174
			s-0.378,0.693-0.645,0.967c-0.268,0.277-0.584,0.491-0.954,0.646c-0.371,0.155-0.763,0.231-1.177,0.231h-9.137
			c-0.412,0-0.805-0.076-1.175-0.231c-0.369-0.155-0.693-0.369-0.966-0.646c-0.277-0.273-0.491-0.597-0.647-0.967
			c-0.153-0.37-0.231-0.761-0.231-1.174v-14.558c0-0.327,0.164-0.491,0.489-0.491h3.563c0.326,0,0.489,0.164,0.489,0.491v12.725
			c0,0.138,0.049,0.249,0.143,0.335c0.095,0.086,0.21,0.129,0.349,0.129h5.111c0.136,0,0.25-0.043,0.336-0.129
			s0.128-0.197,0.128-0.335v-12.725c0-0.139,0.048-0.255,0.144-0.35c0.094-0.095,0.21-0.142,0.349-0.142h3.587
			C407.996,323.93,408.11,323.977,408.208,324.071"/>
		<path fill="#353535" d="M426.096,324.071c0.093,0.095,0.142,0.211,0.142,0.35v1.471v0.773v1.007c0,0.139-0.049,0.25-0.142,0.336
			c-0.097,0.087-0.212,0.13-0.349,0.13h-1.833h-5.37H417.1c-0.086,0-0.129,0.043-0.129,0.129v2.812c0,0.069,0.043,0.104,0.129,0.104
			h7.384c0.136,0,0.248,0.047,0.334,0.141c0.086,0.096,0.13,0.211,0.13,0.35v2.581c0,0.138-0.044,0.254-0.13,0.348
			c-0.086,0.095-0.198,0.142-0.334,0.142H417.1c-0.086,0-0.129,0.043-0.129,0.129v1.266v0.025v1.497
			c0,0.086,0.043,0.129,0.129,0.129h1.084h5.833h1.73c0.137,0,0.252,0.048,0.349,0.143c0.093,0.095,0.142,0.211,0.142,0.348v1.033
			v1.342v0.853c0,0.137-0.049,0.254-0.142,0.349c-0.097,0.094-0.212,0.141-0.349,0.141h-1.472h-9.809h-1.548
			c-0.328,0-0.491-0.163-0.491-0.489v-0.878v-14.972v-1.237c0-0.139,0.049-0.255,0.143-0.35c0.095-0.095,0.21-0.142,0.349-0.142
			h1.884h10.117h0.827C425.884,323.93,425.999,323.977,426.096,324.071"/>
		<path fill="#353535" d="M453.803,323.93c0.137,0,0.254,0.047,0.35,0.142c0.094,0.095,0.14,0.212,0.14,0.349v17.088
			c0,0.137-0.046,0.254-0.14,0.348c-0.096,0.096-0.213,0.143-0.35,0.143h-3.588c-0.138,0-0.254-0.047-0.348-0.143
			c-0.096-0.094-0.144-0.211-0.144-0.348v-5.963c0-0.137-0.042-0.249-0.128-0.335c-0.087-0.086-0.198-0.129-0.337-0.129h-5.11
			c-0.137,0-0.254,0.043-0.349,0.129s-0.141,0.198-0.141,0.335v5.963c0,0.326-0.164,0.49-0.491,0.49h-3.562
			c-0.326,0-0.49-0.164-0.49-0.49V324.42c0-0.326,0.164-0.49,0.49-0.49h3.562c0.327,0,0.491,0.164,0.491,0.49v5.782
			c0,0.326,0.162,0.49,0.489,0.49h5.11c0.139,0,0.25-0.047,0.337-0.142c0.086-0.094,0.128-0.211,0.128-0.349v-5.782
			c0-0.137,0.048-0.254,0.144-0.349c0.094-0.095,0.21-0.142,0.348-0.142H453.803z"/>
		<path fill="#353535" d="M470.528,323.93c0.414,0,0.804,0.082,1.176,0.244c0.37,0.164,0.687,0.38,0.954,0.646
			c0.266,0.267,0.48,0.585,0.645,0.955c0.163,0.369,0.245,0.761,0.245,1.174v14.558c0,0.138-0.048,0.255-0.14,0.35
			c-0.098,0.095-0.213,0.142-0.35,0.142h-3.588c-0.138,0-0.254-0.047-0.349-0.142c-0.094-0.095-0.142-0.212-0.142-0.35v-4.62
			c0-0.137-0.043-0.254-0.13-0.349c-0.086-0.094-0.198-0.141-0.336-0.141h-5.109c-0.14,0-0.255,0.047-0.35,0.141
			c-0.095,0.095-0.143,0.212-0.143,0.349v4.62c0,0.327-0.164,0.491-0.489,0.491h-3.562c-0.325,0-0.489-0.164-0.489-0.491v-14.558
			c0-0.413,0.077-0.805,0.23-1.174c0.155-0.37,0.369-0.688,0.647-0.955c0.273-0.267,0.596-0.482,0.966-0.646
			c0.37-0.162,0.762-0.244,1.174-0.244H470.528z M468.98,327.982h-6.066v4.544h6.066V327.982z"/>
		<path fill="#353535" d="M482.234,328.447c-0.095,0.086-0.141,0.196-0.141,0.335v8.364c0,0.137,0.046,0.247,0.141,0.335
			c0.095,0.086,0.212,0.129,0.349,0.129h8.286c0.137,0,0.255,0.047,0.35,0.142c0.095,0.094,0.141,0.211,0.141,0.348v3.407
			c0,0.138-0.046,0.255-0.141,0.35s-0.213,0.142-0.35,0.142h-5.394h-4.44h-0.465c-0.413,0-0.804-0.078-1.174-0.232
			c-0.37-0.155-0.693-0.369-0.968-0.646c-0.275-0.274-0.492-0.598-0.646-0.967c-0.156-0.37-0.232-0.763-0.232-1.176v-0.465v-1.884
			v-6.014v-1.678v-1.988c0-0.412,0.076-0.805,0.232-1.174c0.153-0.37,0.37-0.688,0.646-0.955c0.274-0.267,0.598-0.482,0.968-0.646
			c0.37-0.162,0.761-0.244,1.174-0.244h0.465h9.834c0.137,0,0.255,0.047,0.35,0.142s0.141,0.212,0.141,0.349v3.407
			c0,0.138-0.046,0.254-0.141,0.349c-0.095,0.096-0.213,0.143-0.35,0.143h-8.286C482.446,328.318,482.329,328.361,482.234,328.447"
			/>
		<path fill="#353535" d="M505.737,331.544c-0.053,0.052-0.061,0.111-0.026,0.182l6.041,9.859c0.066,0.121,0.078,0.22,0.024,0.296
			c-0.052,0.078-0.146,0.117-0.282,0.117h-4.286c-0.139,0-0.275-0.039-0.413-0.117c-0.138-0.076-0.24-0.175-0.31-0.296l-3.896-7.047
			c-0.052-0.086-0.097-0.094-0.13-0.025l-2.144,2.349c-0.086,0.087-0.159,0.211-0.218,0.375c-0.061,0.163-0.09,0.314-0.09,0.451
			v3.82c0,0.326-0.164,0.49-0.492,0.49h-3.56c-0.328,0-0.492-0.164-0.492-0.49V324.42c0-0.326,0.164-0.49,0.492-0.49h3.56
			c0.328,0,0.492,0.164,0.492,0.49v7.666l6.658-7.795c0.087-0.103,0.206-0.188,0.361-0.259c0.155-0.068,0.301-0.103,0.439-0.103
			h4.285c0.137,0,0.218,0.034,0.246,0.103c0.024,0.07-0.008,0.156-0.094,0.259L505.737,331.544z"/>
		<path fill="#353535" d="M519.65,341.508c0,0.326-0.164,0.489-0.492,0.489h-3.561c-0.328,0-0.492-0.163-0.492-0.489V324.42
			c0-0.326,0.164-0.49,0.492-0.49h3.561c0.328,0,0.492,0.164,0.492,0.49V341.508z"/>
		<path fill="#353535" d="M537.034,324.175c0.37,0.164,0.688,0.379,0.954,0.646c0.266,0.268,0.483,0.585,0.646,0.955
			c0.161,0.369,0.243,0.761,0.243,1.174v14.559c0,0.138-0.046,0.254-0.14,0.349c-0.095,0.094-0.213,0.141-0.349,0.141h-3.589
			c-0.139,0-0.25-0.047-0.336-0.141c-0.086-0.095-0.128-0.211-0.128-0.349v-12.726c0-0.138-0.048-0.249-0.143-0.335
			c-0.095-0.087-0.21-0.13-0.349-0.13h-5.11c-0.137,0-0.255,0.043-0.349,0.13c-0.096,0.086-0.142,0.197-0.142,0.335v12.726
			c0,0.326-0.164,0.489-0.491,0.489h-3.561c-0.328,0-0.491-0.163-0.491-0.489V324.42c0-0.326,0.163-0.49,0.491-0.49h11.667
			C536.271,323.93,536.664,324.012,537.034,324.175"/>
		<path fill="#353535" d="M557.939,332.279c0.095,0.096,0.143,0.211,0.143,0.35v6.35c0,0.413-0.082,0.804-0.246,1.174
			s-0.378,0.693-0.645,0.967c-0.268,0.277-0.586,0.491-0.956,0.646c-0.369,0.155-0.76,0.231-1.174,0.231h-9.138
			c-0.411,0-0.805-0.076-1.175-0.231c-0.369-0.155-0.692-0.369-0.968-0.646c-0.275-0.273-0.489-0.597-0.645-0.967
			s-0.233-0.761-0.233-1.174v-12.029c0-0.413,0.078-0.805,0.233-1.174c0.155-0.37,0.369-0.688,0.645-0.955
			c0.275-0.267,0.599-0.481,0.968-0.646c0.37-0.163,0.764-0.245,1.175-0.245h10.66c0.14,0,0.254,0.047,0.35,0.142
			c0.094,0.096,0.143,0.211,0.143,0.35v3.406c0,0.138-0.049,0.254-0.143,0.35c-0.096,0.094-0.21,0.141-0.35,0.141h-8.646
			c-0.14,0-0.254,0.043-0.35,0.129c-0.094,0.087-0.142,0.198-0.142,0.336v8.363c0,0.138,0.048,0.249,0.142,0.335
			c0.096,0.086,0.21,0.129,0.35,0.129h5.11c0.137,0,0.248-0.043,0.334-0.129s0.131-0.197,0.131-0.335v-4.517
			c0-0.139,0.046-0.254,0.141-0.35c0.094-0.095,0.212-0.142,0.349-0.142h3.587C557.729,332.138,557.844,332.185,557.939,332.279"/>
	</g>
	<g>
		<g>
			<path fill="#C53C02" d="M324.886,199.546c2.337,1.033,4.348,2.388,6.036,4.069c1.684,1.684,3.043,3.69,4.078,6.022
				c1.032,2.335,1.549,4.802,1.549,7.406v94.796c0,0.87-0.3,1.603-0.897,2.197c-0.599,0.598-1.333,0.896-2.202,0.896h-22.674
				c-0.872,0-1.578-0.299-2.121-0.896c-0.545-0.595-0.816-1.327-0.816-2.197v-86.169h-18.27v86.169c0,0.87-0.272,1.603-0.815,2.197
				c-0.546,0.598-1.252,0.896-2.121,0.896h-20.554c-0.871,0-1.605-0.299-2.202-0.896c-0.599-0.595-0.897-1.327-0.897-2.197v-86.169
				h-18.27v86.169c0,2.063-1.035,3.094-3.099,3.094h-22.512c-2.067,0-3.099-1.03-3.099-3.094V201.092
				c0-2.06,1.032-3.092,3.099-3.092h98.365C320.074,198,322.546,198.516,324.886,199.546"/>
			<path fill="#751B00" d="M324.886,199.546c2.337,1.033,4.348,2.388,6.036,4.069c1.684,1.684,3.043,3.69,4.078,6.022
				c1.032,2.335,1.549,4.802,1.549,7.406v8.449l-28.71,0.177h-18.27H262.98h-18.27L216,225.492v-24.4
				c0-2.06,1.032-3.092,3.099-3.092h98.365C320.074,198,322.546,198.516,324.886,199.546"/>
			<path fill="#265A8F" d="M435.416,286.544c0.921,0,1.669,0.308,2.247,0.919c0.575,0.613,0.864,1.365,0.864,2.255v22.053
				c0,0.894-0.289,1.645-0.864,2.255c-0.578,0.614-1.326,0.919-2.247,0.919h-77.661c-2.189,0-3.283-1.057-3.283-3.174V201.175
				c0-2.115,1.094-3.175,3.283-3.175h23.848c2.187,0,3.283,1.06,3.283,3.175v82.363c0,0.893,0.316,1.616,0.951,2.172
				c0.632,0.558,1.409,0.835,2.333,0.835H435.416z"/>
			<path fill="#162F51" d="M384.637,314.945h-26.889c-2.185,0-3.276-1.057-3.276-3.174V201.174c0-2.114,1.091-3.174,3.276-3.174
				h23.792c2.182,0,3.276,1.06,3.276,3.174v82.364C384.816,284.43,384.637,314.945,384.637,314.945"/>
			<path fill="#FDEE00" d="M554.78,198c0.926,0,1.708,0.309,2.346,0.921c0.636,0.616,0.956,1.37,0.956,2.262v110.911
				c0,0.895-0.32,1.648-0.956,2.261c-0.638,0.615-1.42,0.922-2.346,0.922h-24.155c-0.929,0-1.711-0.307-2.346-0.922
				c-0.638-0.612-0.956-1.366-0.956-2.261v-38.702c0-0.892-0.291-1.618-0.869-2.178c-0.581-0.557-1.333-0.837-2.259-0.837h-33.883
				c-0.929,0-1.711,0.28-2.346,0.837c-0.639,0.56-0.956,1.286-0.956,2.178v38.702c0,2.123-1.103,3.183-3.303,3.183h-23.98
				c-2.202,0-3.302-1.06-3.302-3.183V201.184c0-2.12,1.1-3.183,3.302-3.183h23.98c2.2,0,3.303,1.063,3.303,3.183v37.529
				c0,2.123,1.1,3.183,3.302,3.183h33.883c0.926,0,1.678-0.306,2.259-0.921c0.578-0.613,0.869-1.367,0.869-2.262v-37.529
				c0-0.892,0.318-1.646,0.956-2.262c0.635-0.612,1.417-0.921,2.346-0.921H554.78z"/>
			<path fill="#ECC700" d="M487.011,273.392v38.701c0,2.123-1.103,3.185-3.302,3.185h-23.981c-2.202,0-3.302-1.062-3.302-3.185
				v-110.91c0-2.12,1.1-3.183,3.302-3.183h23.981c2.199,0,3.302,1.063,3.302,3.183v37.529V273.392z"/>
			<path fill="#ECC700" d="M554.78,198c0.926,0,1.708,0.309,2.346,0.921c0.636,0.616,0.956,1.369,0.956,2.262v110.91
				c0,0.896-0.32,1.649-0.956,2.263c-0.638,0.615-1.42,0.921-2.346,0.921h-24.155c-0.929,0-1.711-0.306-2.346-0.921
				c-0.638-0.613-0.956-1.367-0.956-2.263v-38.701v-34.68v-37.529c0-0.893,0.318-1.646,0.956-2.262
				c0.635-0.612,1.417-0.921,2.346-0.921H554.78z"/>
		</g>
	</g>
</g>
<g display="none">
	<line display="inline" fill="none" stroke="#000000" stroke-miterlimit="10" x1="216" y1="198" x2="558" y2="198"/>
	<line display="inline" fill="none" stroke="#000000" stroke-miterlimit="10" x1="216" y1="396" x2="558" y2="396"/>
	<line display="inline" fill="none" stroke="#000000" stroke-miterlimit="10" x1="558" y1="198" x2="558" y2="396"/>
	<line display="inline" fill="none" stroke="#000000" stroke-miterlimit="10" x1="216" y1="198" x2="216" y2="396"/>
	<line display="inline" fill="none" stroke="#000000" stroke-miterlimit="10" x1="216" y1="360" x2="558" y2="360"/>
	<line display="inline" fill="none" stroke="#000000" stroke-miterlimit="10" x1="216" y1="342" x2="558" y2="342"/>
	<line display="inline" fill="none" stroke="#000000" stroke-miterlimit="10" x1="216" y1="315" x2="558" y2="315"/>
	<line display="inline" fill="none" stroke="#000000" stroke-miterlimit="10" x1="243.462" y1="360" x2="243.462" y2="396"/>
	<line display="inline" fill="none" stroke="#000000" stroke-miterlimit="10" x1="531.29" y1="360" x2="531.29" y2="396"/>
	<rect x="180" y="162" display="inline" fill="none" stroke="#000000" stroke-miterlimit="10" width="414" height="270"/>
	<line display="inline" fill="none" stroke="#000000" stroke-miterlimit="10" x1="216" y1="396" x2="216" y2="432"/>
	<line display="inline" fill="none" stroke="#000000" stroke-miterlimit="10" x1="558" y1="396" x2="558" y2="432"/>
	<line display="inline" fill="none" stroke="#000000" stroke-miterlimit="10" x1="558" y1="162" x2="558" y2="198"/>
	<line display="inline" fill="none" stroke="#000000" stroke-miterlimit="10" x1="594" y1="198" x2="558" y2="198"/>
	<line display="inline" fill="none" stroke="#000000" stroke-miterlimit="10" x1="180" y1="198" x2="216" y2="198"/>
	<line display="inline" fill="none" stroke="#000000" stroke-miterlimit="10" x1="216" y1="162" x2="216" y2="198"/>
	<line display="inline" fill="none" stroke="#000000" stroke-miterlimit="10" x1="180" y1="396" x2="216" y2="396"/>
	<line display="inline" fill="none" stroke="#000000" stroke-miterlimit="10" x1="558" y1="396" x2="594" y2="396"/>
	<g display="inline">
		<defs>
			<rect id="SVGID_1_" width="800" height="600"/>
		</defs>
		<clipPath id="SVGID_2_">
			<use xlink:href="#SVGID_1_"  overflow="visible"/>
		</clipPath>
		<path clip-path="url(#SVGID_2_)" d="M197.706,182.353h-1.336v2.301h-2.293v-2.301h-4.738v-1.632l4.867-7.167h2.164v6.977h1.336
			V182.353z M194.077,180.531v-1.883c0-0.313,0.013-0.769,0.038-1.367c0.025-0.597,0.045-0.943,0.061-1.04h-0.061
			c-0.187,0.416-0.412,0.82-0.676,1.215l-2.034,3.075H194.077z"/>
		<polygon clip-path="url(#SVGID_2_)" points="200.902,180.318 198.169,176.165 200.796,176.165 202.443,178.868 204.106,176.165 
			206.733,176.165 203.969,180.318 206.862,184.653 204.227,184.653 202.443,181.745 200.651,184.653 198.024,184.653 		"/>
		<path clip-path="url(#SVGID_2_)" d="M575.605,182.353h-1.336v2.301h-2.293v-2.301h-4.738v-1.632l4.867-7.167h2.164v6.977h1.336
			V182.353z M571.977,180.531v-1.883c0-0.313,0.013-0.769,0.037-1.367c0.025-0.597,0.045-0.943,0.062-1.04h-0.062
			c-0.187,0.416-0.412,0.82-0.676,1.215l-2.034,3.075H571.977z"/>
		<polygon clip-path="url(#SVGID_2_)" points="578.802,180.318 576.068,176.165 578.695,176.165 580.343,178.868 582.006,176.165 
			584.633,176.165 581.868,180.318 584.762,184.653 582.127,184.653 580.343,181.745 578.551,184.653 575.924,184.653 		"/>
		<path clip-path="url(#SVGID_2_)" d="M575.605,417.249h-1.336v2.302h-2.293v-2.302h-4.738v-1.632l4.867-7.167h2.164v6.978h1.336
			V417.249z M571.977,415.428v-1.884c0-0.313,0.013-0.769,0.037-1.366c0.025-0.598,0.045-0.943,0.062-1.04h-0.062
			c-0.187,0.415-0.412,0.819-0.676,1.215l-2.034,3.075H571.977z"/>
		<polygon clip-path="url(#SVGID_2_)" points="578.802,415.215 576.068,411.062 578.695,411.062 580.343,413.765 582.006,411.062 
			584.633,411.062 581.868,415.215 584.762,419.55 582.127,419.55 580.343,416.642 578.551,419.55 575.924,419.55 		"/>
		<path clip-path="url(#SVGID_2_)" d="M197.311,417.249h-1.336v2.302h-2.293v-2.302h-4.738v-1.632l4.867-7.167h2.164v6.978h1.336
			V417.249z M193.682,415.428v-1.884c0-0.313,0.013-0.769,0.038-1.366s0.045-0.943,0.061-1.04h-0.061
			c-0.187,0.415-0.412,0.819-0.676,1.215l-2.034,3.075H193.682z"/>
		<polygon clip-path="url(#SVGID_2_)" points="200.507,415.215 197.774,411.062 200.401,411.062 202.048,413.765 203.711,411.062 
			206.338,411.062 203.574,415.215 206.467,419.55 203.832,419.55 202.048,416.642 200.256,419.55 197.629,419.55 		"/>
	</g>
	<text transform="matrix(0 -1 1 0 234.1523 384.9639)" display="inline" font-family="'OpenSans-Bold'" font-size="12">3x</text>
	<text transform="matrix(1 0 0 1 218.7227 354.4277)" display="inline" font-family="'OpenSans-Bold'" font-size="12">2x</text>
	<text transform="matrix(0 1 -1 0 540.1006 371.0479)" display="inline" font-family="'OpenSans-Bold'" font-size="12">3x</text>
	<text transform="matrix(1 0 0 1 542.2158 354.3262)" display="inline" font-family="'OpenSans-Bold'" font-size="12">2x</text>
	<g display="inline">
		<defs>
			<rect id="SVGID_3_" width="800" height="600"/>
		</defs>
		<clipPath id="SVGID_4_">
			<use xlink:href="#SVGID_3_"  overflow="visible"/>
		</clipPath>
		<line clip-path="url(#SVGID_4_)" fill="none" stroke="#000000" stroke-miterlimit="10" x1="180" y1="324" x2="594" y2="324"/>
		<line clip-path="url(#SVGID_4_)" fill="none" stroke="#000000" stroke-miterlimit="10" x1="180" y1="315" x2="216" y2="315"/>
		<line clip-path="url(#SVGID_4_)" fill="none" stroke="#000000" stroke-miterlimit="10" x1="558" y1="315" x2="594" y2="315"/>
	</g>
	<text transform="matrix(1 0 0 1 585 323)" display="inline" font-family="'OpenSans-Bold'" font-size="12">x</text>
	<text transform="matrix(1 0 0 1 182.0039 323)" display="inline" font-family="'OpenSans-Bold'" font-size="12">x</text>
</g>
</svg>
