<?xml version="1.0" encoding="UTF-8" standalone="no"?>
<!-- Created with Inkscape (http://www.inkscape.org/) -->

<svg
   xmlns:dc="http://purl.org/dc/elements/1.1/"
   xmlns:cc="http://creativecommons.org/ns#"
   xmlns:rdf="http://www.w3.org/1999/02/22-rdf-syntax-ns#"
   xmlns:svg="http://www.w3.org/2000/svg"
   xmlns="http://www.w3.org/2000/svg"
   xmlns:sodipodi="http://sodipodi.sourceforge.net/DTD/sodipodi-0.dtd"
   xmlns:inkscape="http://www.inkscape.org/namespaces/inkscape"
   width="344.57413mm"
   height="342.87192mm"
   viewBox="0 0 344.57413 342.87192"
   version="1.1"
   id="svg4526"
   inkscape:version="0.92.1 r15371"
   sodipodi:docname="capital_factory.svg">
  <defs
     id="defs4520" />
  <sodipodi:namedview
     id="base"
     pagecolor="#ffffff"
     bordercolor="#666666"
     borderopacity="1.0"
     inkscape:pageopacity="0.0"
     inkscape:pageshadow="2"
     inkscape:zoom="0.35"
     inkscape:cx="516.51124"
     inkscape:cy="695.50928"
     inkscape:document-units="mm"
     inkscape:current-layer="layer1"
     showgrid="false"
     inkscape:window-width="1920"
     inkscape:window-height="1001"
     inkscape:window-x="-9"
     inkscape:window-y="-9"
     inkscape:window-maximized="1"
     fit-margin-top="0"
     fit-margin-left="0"
     fit-margin-right="0"
     fit-margin-bottom="0" />
  <metadata
     id="metadata4523">
    <rdf:RDF>
      <cc:Work
         rdf:about="">
        <dc:format>image/svg+xml</dc:format>
        <dc:type
           rdf:resource="http://purl.org/dc/dcmitype/StillImage" />
        <dc:title />
      </cc:Work>
    </rdf:RDF>
  </metadata>
  <g
     inkscape:label="Layer 1"
     inkscape:groupmode="layer"
     id="layer1"
     transform="translate(104.15431,10.018427)">
    <path
       style="fill:#ffffff;stroke-width:0.1339992"
       d="m 36.523683,248.19683 c -5.811709,-1.24299 -10.594145,-2.28739 -10.627638,-2.32088 -0.04812,-0.0481 -0.287055,-13.62138 -0.308225,-17.50906 l -0.0047,-0.871 -1.90925,-0.72181 c -4.132445,-1.56232 -8.937983,-3.70314 -12.241822,-5.45362 l -1.6226243,-0.85971 -6.868614,6.03005 c -3.77773903,3.31654 -6.92157,6.03007 -6.986303,6.03007 -0.123007,0 -17.1610677,-12.33244 -17.5746457,-12.72083 -0.225131,-0.21143 -0.05538,-0.64492 3.385273,-8.6454 l 3.622286,-8.42283 -2.182304,-2.22386 c -3.381733,-3.44614 -7.179885,-7.73819 -8.824008,-9.97143 -0.249813,-0.33932 -0.509191,-0.6193 -0.576392,-0.62217 -0.06723,-0.003 -3.994986,1.20076 -8.728395,2.67475 -4.733417,1.47399 -8.666549,2.67998 -8.740307,2.67998 -0.140753,0 -11.017942,-18.74765 -11.017942,-18.99026 0,-0.077 3.018925,-2.92742 6.708708,-6.33431 5.127608,-4.73449 6.687012,-6.2462 6.616642,-6.4143 -1.387275,-3.31384 -3.345876,-9.12642 -4.431315,-13.15086 -0.407485,-1.51084 -0.762157,-2.81636 -0.788153,-2.90112 -0.06229,-0.20322 0.208821,-0.16607 -9.635484,-1.32026 -4.710505,-0.55229 -8.593773,-1.03336 -8.629473,-1.06906 -0.10199,-0.10199 -2.3522,-21.77271 -2.26941,-21.85551 0.0407,-0.0407 3.9542,-1.38925 8.696714,-2.99681 l 8.622746,-2.92284 0.0969,-1.65759 c 0.296579,-5.07361 0.754606,-9.49543 1.390838,-13.42732 0.188826,-1.16698 0.32329,-2.13972 0.29879,-2.16164 -0.02446,-0.022 -3.572063,-2.133534 -7.883493,-4.692472 -4.311422,-2.55893 -7.850085,-4.662562 -7.863695,-4.674724 -0.0368,-0.03289 6.738312,-20.845453 6.808651,-20.915793 0.05173,-0.05173 16.229943,1.396388 17.744328,1.588307 l 0.542374,0.06874 0.641968,-1.300211 c 1.707655,-3.458587 3.992167,-7.448999 6.481336,-11.321107 1.446675,-2.250417 1.520964,-2.399463 1.335769,-2.679985 -0.10786,-0.163373 -2.497609,-3.547981 -5.31057,-7.52135 l -5.114465,-7.224306 0.391547,-0.413649 c 0.215354,-0.227506 3.477369,-3.850727 7.248925,-8.051603 3.771547,-4.200875 6.936019,-7.692735 7.032149,-7.759687 0.121686,-0.08475 2.579533,1.228223 8.089709,4.321475 4.353204,2.443763 8.0060367,4.443207 8.1173987,4.443207 0.111369,0 0.239785,-0.06035 0.285366,-0.134108 0.167988,-0.271804 4.623089,-3.763451 6.753484,-5.292979 1.208674,-0.86777 3.24378197,-2.264779 4.522476,-3.104463 1.278695,-0.839684 2.324911,-1.600204 2.324927,-1.690044 1.5e-5,-0.08984 -0.793358,-4.130631 -1.763052,-8.979536 C 1.3288927,9.4733286 0.66667167,5.8684745 0.73919067,5.7971253 0.80604067,5.7313443 5.3229207,3.6884799 10.77669,1.2574207 c 9.232035,-4.1152511 9.930937,-4.4046599 10.133359,-4.1961357 0.11958,0.1231855 2.523516,3.32940466 5.34208,7.1249323 2.818562,3.7955273 5.227557,7.0092067 5.35332,7.1415067 0.219576,0.230993 0.28419,0.224502 1.626659,-0.163405 3.524889,-1.01853 9.548501,-2.3119641 13.234883,-2.8418982 l 2.16886,-0.3117828 0.107088,-0.404722 c 0.0589,-0.2225955 0.977479,-4.2791362 2.041289,-9.0145315 l 1.934199,-8.6098115 11.041374,0.033862 11.041387,0.033862 2.024889,8.97013086 2.024888,8.97013054 2.343633,0.3568987 c 4.166638,0.6345132 8.45921,1.5500885 12.573344,2.6818079 1.570928,0.43213 1.977911,0.502483 2.107087,0.364242 0.08805,-0.09423 2.557921,-3.3973664 5.488611,-7.3402926 2.93068,-3.94292678 5.34022,-7.1844333 5.35455,-7.2033486 0.0374,-0.04936 19.94558,8.8167897 20.07862,8.942036 0.0609,0.057379 -0.6778,4.0462991 -1.64166,8.8642632 -0.96384,4.817965 -1.74786,8.880534 -1.74224,9.027933 0.008,0.197099 0.84946,0.822599 3.18263,2.364399 3.39521,2.243621 6.46915,4.493028 9.0791,6.643785 l 1.61869,1.333904 7.96226,-4.469577 c 4.37922,-2.458269 8.02556,-4.45359 8.10295,-4.43405 0.19231,0.04856 14.6662,16.132065 14.6662,16.297199 0,0.0725 -2.35168,3.454084 -5.22597,7.514638 -2.87428,4.060554 -5.22597,7.438741 -5.22597,7.507082 0,0.06834 0.57084,0.997685 1.26853,2.065209 2.39576,3.665702 4.45056,7.228739 6.28173,10.892588 l 1.01529,2.031433 0.5077,-0.05985 c 1.30345,-0.153684 17.78496,-1.644321 17.81779,-1.611495 0.13511,0.135123 6.7512,20.774151 6.69985,20.90035 -0.0353,0.0869 -3.57377,2.238337 -7.86314,4.780973 l -7.79885,4.622984 0.0748,0.60299 c 0.0411,0.33165 0.22618,1.56779 0.41126,2.74698 0.47792,3.04511 0.84116,6.41871 1.01714,9.44695 0.0835,1.43714 0.19259,3.02902 0.24235,3.53751 l 0.0905,0.92454 8.63263,2.92879 c 4.74794,1.61083 8.65503,2.95118 8.6824,2.97855 0.0522,0.0522 -2.22015,21.81512 -2.28451,21.87946 -0.0204,0.0204 -3.89299,0.48906 -8.60579,1.0415 -10.3807,1.21683 -9.70771,1.12403 -9.70771,1.33852 0,0.0961 -0.33528,1.40387 -0.74505,2.90627 -0.88706,3.25227 -2.5218,8.21262 -3.6721,11.14246 -0.45627,1.16207 -0.80982,2.16193 -0.78569,2.22187 0.0242,0.0599 3.0287,2.86267 6.67683,6.22825 3.64813,3.36558 6.63296,6.20044 6.63296,6.29972 0,0.26161 -10.82479,18.98207 -10.97606,18.98207 -0.0699,0 -4.01171,-1.20896 -8.75962,-2.68657 -4.74791,-1.47763 -8.68014,-2.66855 -8.7383,-2.64649 -0.0581,0.022 -0.71264,0.79937 -1.45441,1.7274 -0.74179,0.92801 -2.00998,2.44369 -2.8182,3.36818 -1.84412,2.10936 -6.50773,7.01649 -6.93333,7.29535 -0.17536,0.11491 -0.31884,0.27438 -0.31884,0.35441 0,0.08 1.54654,3.7363 3.43676,8.12504 1.89022,4.38875 3.51732,8.1712 3.61578,8.40546 l 0.17902,0.42593 -8.77374,6.37836 c -4.82557,3.50809 -8.86107,6.41187 -8.9678,6.45281 -0.12454,0.0478 -2.65209,-2.08434 -7.05652,-5.95263 l -6.86248,-6.0271 -3.42992,1.7015 c -3.6277,1.7996 -7.28453,3.40272 -10.41856,4.56737 l -1.89666,0.70486 -0.0763,1.75845 c -0.0419,0.96716 -0.11164,5.1037 -0.15488,9.19231 -0.0432,4.08861 -0.096,7.45121 -0.11722,7.47245 -0.0675,0.0675 -21.540329,4.61471 -21.571724,4.56815 -0.01654,-0.0245 -1.749133,-3.78314 -3.850213,-8.35252 -3.814475,-8.29558 -3.820746,-8.30792 -4.213163,-8.28943 -6.048683,0.28513 -13.978823,0.27515 -16.271898,-0.0205 l -0.602997,-0.0777 -3.834627,8.3478 c -2.199421,4.78802 -3.913676,8.35786 -4.019982,8.37135 -0.101938,0.013 -4.940377,-0.99346 -10.752087,-2.23646 z m 23.808412,-30.85138 c 0.04387,-0.46062 0.391693,-5.42027 0.772947,-11.02143 0.381254,-5.60117 0.700936,-10.19452 0.710397,-10.20743 0.0095,-0.0128 1.584487,0.0863 3.500046,0.2204 1.915545,0.13414 3.518685,0.2223 3.562529,0.19592 0.09101,-0.0548 0.445923,-5.27182 0.364196,-5.35354 -0.07478,-0.0748 -21.067107,-1.52213 -21.13558,-1.45722 -0.07231,0.0685 -0.442675,5.29413 -0.379685,5.35713 0.02629,0.0263 1.604014,0.15262 3.506041,0.28074 2.469284,0.16633 3.47669,0.28099 3.522718,0.40095 0.03545,0.0924 -0.271334,5.03587 -0.681761,10.98549 -0.410412,5.94962 -0.712567,10.85125 -0.671442,10.89249 0.06099,0.0612 4.871286,0.45375 6.432846,0.52497 0.416308,0.019 0.417126,0.0176 0.496748,-0.81847 z m 32.921057,-3.00283 c 2.968937,-0.60203 5.594819,-2.01436 7.549898,-4.06072 2.42157,-2.53463 3.5214,-5.20957 3.66581,-8.91585 0.081,-2.07932 -0.0406,-3.14135 -0.56867,-4.96823 -1.57929,-5.46302 -5.94928,-9.84317 -10.808881,-10.83407 -4.590248,-0.93598 -10.498704,1.02355 -13.40173,4.44467 -1.502774,1.77096 -2.231743,3.21444 -2.754595,5.4545 -0.435993,1.86794 -0.485385,4.83979 -0.109223,6.57312 0.745144,3.43365 2.356256,6.51909 4.544248,8.70267 3.299396,3.29277 7.353753,4.52238 11.883143,3.60391 z m -2.813986,-5.7681 c -1.445125,-0.15835 -3.206825,-1.1652 -4.266317,-2.43831 -3.04757,-3.66201 -3.863358,-9.06887 -1.830429,-12.13159 1.252678,-1.88725 3.979949,-3.01732 6.430086,-2.66434 1.438736,0.20727 2.34663,0.70355 3.624383,1.98118 0.866134,0.86604 1.210672,1.33873 1.761448,2.41662 1.073148,2.10019 1.410096,3.30334 1.484309,5.2999 0.07399,1.99038 -0.07498,2.85208 -0.713507,4.12847 -1.117475,2.23373 -3.895193,3.69238 -6.489973,3.40807 z m -59.569323,2.04252 c 1.239761,-0.31447 3.391235,-1.24118 4.273516,-1.8407 l 0.488534,-0.33197 -1.820818,-2.40017 c -1.001449,-1.32009 -1.837765,-2.41777 -1.858478,-2.4393 -0.02072,-0.0215 -0.429247,0.20641 -0.907852,0.5065 -1.349691,0.84625 -2.238919,1.11822 -3.6522,1.11704 -0.925164,-0.002 -1.38496,-0.0704 -1.97455,-0.29911 -1.790242,-0.69438 -3.074578,-1.93299 -3.747757,-3.61431 -0.263671,-0.65853 -0.300805,-0.98823 -0.29611,-2.62896 0.0048,-1.6833 0.04378,-1.99298 0.379302,-3.01498 1.661242,-5.06009 5.236931,-8.07808 8.922728,-7.53102 2.010403,0.29839 3.709829,1.55848 4.61944,3.42522 0.488534,1.0026 0.783184,2.38186 0.650528,3.04516 l -0.07813,0.39065 h 2.477033 c 1.362367,0 2.764859,-0.0394 3.116647,-0.0877 l 0.639613,-0.0877 -0.08108,-0.95082 c -0.299816,-3.5159 -2.328506,-7.03498 -5.340687,-9.26432 -1.045133,-0.7735 -3.038033,-1.73214 -4.329005,-2.08236 -1.507626,-0.409 -4.194346,-0.50142 -5.713866,-0.19655 -5.195711,1.04247 -9.366766,5.04178 -11.306654,10.84106 -2.010098,6.00919 -0.403049,11.74054 4.254911,15.17465 1.711771,1.26202 4.364053,2.35048 6.326735,2.59642 1.379104,0.1728 3.553767,0.0295 4.958202,-0.32679 z m 92.544777,-12.48203 c 1.35704,-1.22434 2.48701,-2.2783 2.51104,-2.34214 0.024,-0.0638 -1.41114,-1.72114 -3.18932,-3.68287 -1.77817,-1.96173 -3.21488,-3.61383 -3.19269,-3.67131 0.0222,-0.0575 0.71927,-0.72123 1.54906,-1.475 l 1.50871,-1.37048 5.32973,1.80921 5.32975,1.80921 2.7425,-2.47365 c 1.50837,-1.36049 2.75889,-2.51904 2.77892,-2.57454 0.02,-0.0555 -2.63258,-0.96066 -5.89471,-2.01149 -3.26212,-1.05082 -5.94755,-1.92701 -5.96763,-1.94708 -0.0201,-0.0201 0.12115,-0.39249 0.31384,-0.8276 0.81758,-1.8461 1.0566,-3.76186 0.64318,-5.15524 -0.842,-2.83789 -3.67065,-5.63481 -6.42402,-6.35198 -2.27918,-0.59365 -4.69311,-0.0271 -7.3119,1.716 -0.96337,0.64125 -11.70898,10.20278 -11.70898,10.41876 0,0.10297 18.34222,20.35417 18.43653,20.35531 0.0432,0 1.18894,-1.00079 2.54599,-2.22511 z m -9.90904,-16.16374 c -1.34439,-1.4933 -2.45631,-2.7523 -2.47094,-2.7978 -0.0599,-0.18616 4.94394,-4.55594 5.57984,-4.87282 0.78319,-0.39029 1.83862,-0.44963 2.56899,-0.14446 1.19848,0.50075 2.61117,2.43507 2.6114,3.57565 0,1.32108 -0.62461,2.22361 -3.06289,4.42371 -1.07908,0.97368 -2.14649,1.94142 -2.37201,2.15056 l -0.41003,0.38025 z M 9.2238217,184.85662 c 3.4703873,-7.164 6.3097943,-13.08072 6.3097943,-13.14825 0,-0.18831 -4.856624,-5.18488 -5.017586,-5.16218 -0.142326,0.0201 -26.6324,11.56432 -26.720394,11.64463 -0.09633,0.0879 0.370876,0.61216 2.629444,2.95051 l 2.314283,2.39603 2.0623427,-1.02863 2.062335,-1.02863 3.261339,3.37824 c 1.793734,1.85805 3.37209997,3.50883 3.50747497,3.66844 0.242999,0.28648 0.232272,0.31525 -0.83918097,2.25169 -0.93522,1.69022 -1.061927,1.99442 -0.916144,2.19947 0.421645,0.59301 4.865275,5.08506 4.945945,4.99982 0.04984,-0.0526 2.929959,-5.95714 6.400347,-13.12114 z m -9.20061303,-3.14456 c -1.27131797,-1.32398 -2.31148697,-2.44927 -2.31148697,-2.50068 0,-0.10284 10.330508,-5.54826 10.397853,-5.48091 0.05029,0.0503 -5.501781,10.13331 -5.662582,10.28376 -0.06176,0.0578 -1.152466,-0.97818 -2.42378403,-2.30217 z M 67.391307,173.5543 c 5.223007,-0.37166 10.108538,-1.42169 14.954284,-3.21404 2.222484,-0.82206 6.420584,-2.83632 8.601368,-4.12696 5.658549,-3.34885 11.478801,-8.62191 15.470331,-14.01588 5.5783,-7.53823 8.98033,-16.20692 10.17935,-25.93793 0.2338,-1.89731 0.23299,-9.5025 -0.001,-11.38993 -1.88047,-15.156213 -9.19346,-27.914356 -21.144658,-36.888727 -4.445757,-3.338401 -9.547431,-5.995755 -14.959458,-7.79206 -5.654659,-1.876841 -10.553268,-2.65581 -16.717982,-2.658466 -5.91928,-0.0026 -10.873151,0.755053 -16.213903,2.479621 -2.883099,0.930975 -4.357621,1.532332 -7.302957,2.978379 -3.710959,1.821938 -6.102323,3.337167 -9.647942,6.113176 -6.748204,5.283547 -12.751534,13.284107 -15.979737,21.296157 -1.728268,4.28938 -2.834865,8.39609 -3.543107,13.14886 -0.277755,1.86394 -0.306774,2.53205 -0.304792,7.01803 0.0023,5.19901 0.07739,6.17429 0.747929,9.71494 2.47967,13.09328 9.749548,24.81032 20.285834,32.69518 3.238457,2.42351 5.397098,3.7474 8.776947,5.38292 8.387445,4.0587 17.623723,5.84969 26.799841,5.19673 z M 44.412371,145.25668 c 3.593846,-10.92863 7.159245,-22.13603 7.062162,-22.19899 -0.06883,-0.0447 -4.479725,-3.24691 -9.801976,-7.11614 l -9.676821,-7.03495 12.129726,-0.0342 12.129734,-0.0342 0.587358,-1.84179 c 2.121516,-6.65242 6.857812,-21.070398 6.921193,-21.069129 0.04212,7.6e-4 1.74345,5.141389 3.780734,11.42343 l 3.704166,11.421899 12.13588,0.067 12.135891,0.067 -9.7765,7.10196 c -5.377067,3.90607 -9.776529,7.14267 -9.776582,7.19244 -4e-5,0.0498 1.658159,5.19427 3.684897,11.43223 2.026738,6.23795 3.684979,11.39478 3.684979,11.45959 0,0.0648 -4.386799,-3.07306 -9.748442,-6.97307 -5.361643,-3.90001 -9.814584,-7.06787 -9.895413,-7.03969 -0.08084,0.0282 -4.452565,3.18009 -9.714942,7.00423 -5.262386,3.82414 -9.639626,6.99657 -9.727205,7.04983 -0.09327,0.0567 -0.02651,-0.30674 0.161161,-0.87744 z m -53.7811153,17.9301 c 1.27792,-0.54697 2.340189,-1.07512 2.360594,-1.17366 0.02043,-0.0985 -1.055554,-2.71123 -2.391026,-5.80597 -1.3354657,-3.09474 -2.4783747,-5.75483 -2.5398017,-5.9113 -0.104061,-0.26509 0.06594,-0.36022 2.4923367,-1.39501 1.432203,-0.61079 2.636896,-1.07763 2.677091,-1.03745 0.04019,0.0402 1.310175,2.95837 2.822183,6.48484 1.512007,3.52646 2.773236,6.43588 2.802727,6.46537 0.02948,0.0295 1.14413196667,-0.4153 2.476984,-0.98844 1.948755,-0.83799 2.407275,-1.08424 2.341274,-1.25747 -0.35196,-0.92355 -8.163025,-19.0027 -8.251323,-19.09813 -0.06708,-0.0725 -5.26751,2.08929 -12.6805407,5.27113 -6.911778,2.9667 -12.589699,5.4166 -12.617602,5.44423 -0.05568,0.0551 2.505784,6.10351 2.644706,6.24497 0.04733,0.0482 2.364096,-0.89429 5.148416,-2.09434 4.365132,-1.88137 5.078099,-2.15182 5.176387,-1.96355 0.06267,0.12009 1.183696,2.72077 2.491137,5.77931 2.414955,5.64939 2.583635,6.02996 2.672685,6.02996 0.02765,0 1.095846,-0.44752 2.3737727,-0.99449 z M 153.03773,159.90646 c 0.72549,-1.64332 1.31791,-3.02708 1.3165,-3.07501 -0.002,-0.0479 -2.6059,-1.23283 -5.78779,-2.63313 -3.18187,-1.40028 -5.89144,-2.63643 -6.02125,-2.74698 -0.12982,-0.11055 -2.20325,-3.54762 -4.60763,-7.63796 -2.40439,-4.09032 -4.4171,-7.48413 -4.47268,-7.5418 -0.0556,-0.0577 -0.81066,1.5044 -1.67792,3.47128 l -1.57682,3.57616 3.05257,4.53329 c 1.6789,2.49332 3.0266,4.5558 2.99488,4.58328 -0.0318,0.0275 -2.34908,0.3936 -5.14967,0.81358 -2.80058,0.41999 -5.23009,0.8062 -5.39892,0.85821 -0.24843,0.0766 -0.60307,0.76554 -1.86052,3.61454 -0.85448,1.93596 -1.53039,3.54237 -1.50203,3.56979 0.0283,0.0274 4.00116,-0.73649 8.82848,-1.69757 l 8.77695,-1.74741 5.76196,2.55918 c 3.16908,1.40754 5.81662,2.54325 5.8834,2.52379 0.0668,-0.0194 0.715,-1.37991 1.44049,-3.02324 z M 132.70849,94.357455 c 1.36753,-0.742626 2.48641,-1.370577 2.48641,-1.395465 0,-0.02484 -1.11584,-2.101489 -2.47963,-4.614694 -1.3638,-2.513198 -2.49442,-4.634378 -2.51248,-4.713741 -0.0181,-0.07936 4.21827,-2.450076 9.41409,-5.268256 6.88167,-3.732576 9.44201,-5.184011 9.42878,-5.345078 -0.0231,-0.280931 -3.03058,-5.84971 -3.16065,-5.852387 -0.0723,-0.0015 -24.04243,12.932788 -24.18364,13.04949 -0.0587,0.04854 8.34116,15.485335 8.42764,15.487751 0.0512,0.0015 1.21195,-0.605002 2.57948,-1.34762 z M -5.5237883,92.084202 c 4.71592897,-0.591327 8.63133,-3.830339 10.340665,-8.554313 0.61247,-1.692652 0.819224,-2.843902 0.821093,-4.572115 0.0023,-2.215342 -0.475013,-4.129653 -1.578244,-6.328372 L 3.6074347,71.728 2.4350657,72.48286 c -2.40016503,1.545416 -3.934705,2.608801 -3.893393,2.698003 0.0234,0.0506 0.204133,0.398749 0.401582,0.77375 1.53163697,2.908885 1.13421797,5.79362 -1.084011,7.868512 -1.97779,1.849989 -4.927356,2.10253 -8.3653357,0.716227 -2.789235,-1.124715 -4.969526,-3.05365 -6.069422,-5.36971 -0.425512,-0.896021 -0.4993,-1.197857 -0.553526,-2.264342 -0.05204,-1.023252 -0.01322,-1.377217 0.230564,-2.101504 0.555653,-1.651028 1.586243,-2.858133 3.089651,-3.618815 1.033947,-0.52315 1.748693,-0.690317 2.951541,-0.690317 h 1.0387257 l 0.09403,-1.831911 c 0.05173,-1.007551 0.102861,-2.374607 0.113656,-3.037903 l 0.0196,-1.205993 -1.1973627,0.04057 c -4.83254,0.163753 -9.314572,3.261681 -11.279721,7.796414 -0.856084,1.975486 -1.040003,2.902212 -1.037511,5.227936 0.0023,1.866687 0.0389,2.199093 0.364495,3.282982 0.920186,3.063199 2.739013,5.712722 5.244143,7.639226 3.70522,2.849402 8.0177507,4.174216 11.9733997,3.678213 z M 123.32254,60.747553 c 2.55002,-7.472986 4.6364,-13.660999 4.6364,-13.751142 0,-0.09014 -1.23727,-1.170209 -2.74949,-2.400145 l -2.74951,-2.23625 -12.29191,7.258342 c -6.76056,3.992087 -12.460355,7.362137 -12.666228,7.489001 l -0.374333,0.230663 2.706278,2.200425 c 1.488463,1.210235 2.785943,2.247768 2.883333,2.30563 0.11522,0.06847 0.80748,-0.316735 1.98246,-1.103143 0.99298,-0.664592 1.85775,-1.224481 1.92169,-1.244197 0.064,-0.01972 1.82494,1.351041 3.91333,3.046131 2.08839,1.69509 3.84768,3.115349 3.90954,3.15613 0.0618,0.04078 -0.27445,1.035727 -0.74733,2.210987 -0.65418,1.62578 -0.82214,2.17299 -0.70228,2.287994 0.0866,0.08314 1.35973,1.125811 2.82909,2.317058 1.86461,1.511704 2.70037,2.11363 2.76704,1.992833 0.0525,-0.09519 2.1819,-6.287332 4.73192,-13.760317 z m -9.50051,-1.96243 c -1.40029,-1.141396 -2.56401,-2.128421 -2.58604,-2.193387 -0.0294,-0.08683 8.44619,-6.062873 9.5799,-6.754648 0.088,-0.05366 -0.8467,2.405627 -2.07699,5.465087 -1.23028,3.059462 -2.26703,5.561657 -2.30389,5.560436 -0.0368,-0.0012 -1.21269,-0.936092 -2.61298,-2.077488 z M 14.035411,70.113824 c 1.555773,-1.142344 2.830821,-2.147802 2.833438,-2.23435 0.0026,-0.08655 -0.321217,-1.087649 -0.719633,-2.224665 l -0.724395,-2.067302 3.930676,-2.901289 c 2.161871,-1.595709 4.016315,-2.934152 4.120985,-2.974319 0.106605,-0.04091 0.656038,0.2715 1.249191,0.710292 0.582385,0.430828 1.398361,1.033306 1.81328,1.33884 l 0.754397,0.555519 2.854884,-2.110233 c 1.570187,-1.160628 2.873442,-2.167198 2.896121,-2.236822 C 33.07889,55.863492 9.5418307,40.255961 8.8391187,39.91889 c -0.181092,-0.08686 -0.871839,0.361043 -3.067574,1.989134 -1.558622,1.155683 -2.833852,2.163139 -2.833852,2.238789 0,0.09919 7.4009523,25.9278 7.9898723,27.883876 0.04003,0.13303 0.119247,0.22348 0.175995,0.200999 0.05675,-0.02249 1.376077,-0.975521 2.931851,-2.117864 z M 13.734145,58.471292 C 13.628935,58.301062 9.6427247,47.416818 9.6764157,47.39178 c 0.03274,-0.02433 9.3160433,6.8314 9.5015573,7.016914 0.07586,0.07586 -0.541625,0.614403 -1.592731,1.389092 -0.944145,0.695858 -2.1805,1.608572 -2.747457,2.028257 -0.566955,0.419684 -1.063594,0.710045 -1.10364,0.645249 z M 94.989956,45.524969 c 2.09741,-5.711717 3.82215,-10.384939 3.832755,-10.384939 0.01056,0 1.487399,0.542696 3.281799,1.205993 1.79439,0.663296 3.30059,1.205992 3.34708,1.205992 0.15682,0 1.90711,-4.976094 1.78804,-5.083447 -0.0647,-0.0583 -2.1376,-0.845101 -4.60654,-1.74845 -2.46893,-0.903349 -6.358256,-2.334402 -8.642942,-3.180116 -2.284686,-0.845714 -4.703281,-1.73725 -5.374656,-1.98119 l -1.220664,-0.443527 -0.889822,2.436637 c -0.489391,1.340151 -0.889808,2.503874 -0.889808,2.58605 0,0.08218 0.07537,0.178045 0.1675,0.213039 0.09212,0.03499 1.52424,0.560352 3.182483,1.167464 1.658238,0.607113 3.068106,1.153623 3.133044,1.214469 0.06662,0.0624 -1.527855,4.590346 -3.657642,10.386982 -2.076624,5.651994 -3.73926,10.314297 -3.694718,10.360673 0.0675,0.07029 6.157185,2.38457 6.363461,2.41832 0.03692,0.0061 1.783221,-4.662234 3.88063,-10.37395 z M 42.364127,53.38473 c 1.675109,-0.352264 3.072312,-0.667138 3.104894,-0.699721 0.03258,-0.03258 -0.05321,-0.601677 -0.190639,-1.264654 -0.137435,-0.662978 -0.545924,-2.629567 -0.907755,-4.370198 l -0.657874,-3.164786 2.425833,-0.497078 c 4.654983,-0.953854 6.097143,-1.418375 7.949789,-2.560646 3.452945,-2.12894 4.886402,-5.429428 4.071954,-9.375501 -0.652455,-3.161146 -2.186545,-5.497253 -4.3133,-6.568272 -1.439152,-0.724747 -2.415965,-0.900757 -4.612614,-0.83114 -1.759211,0.05575 -2.317142,0.15221 -8.962895,1.549515 -3.897799,0.819532 -7.100637,1.506881 -7.117419,1.527444 -0.01678,0.02056 1.166043,5.76585 2.628501,12.767309 1.462458,7.001458 2.724909,13.046498 2.805446,13.433421 0.123024,0.591047 0.193103,0.7028 0.438428,0.699141 0.160598,-0.0024 1.662542,-0.292571 3.337651,-0.644834 z m 0.237327,-14.712231 c 0,-0.04703 -0.364973,-1.832743 -0.811053,-3.968252 -0.446078,-2.135509 -0.779398,-3.914397 -0.740711,-3.953085 0.03869,-0.03868 1.172482,-0.311848 2.519542,-0.607022 1.971252,-0.431949 2.736844,-0.539452 3.923194,-0.550879 1.27193,-0.01225 1.547468,0.02545 2.009987,0.275028 1.092721,0.589637 1.70904,1.596432 1.923546,3.142215 0.280835,2.023759 -0.308949,3.288285 -1.912684,4.100961 -0.871186,0.441464 -1.453079,0.606042 -4.143475,1.17191 -2.26711,0.476839 -2.768346,0.547294 -2.768346,0.389124 z M 74.06432,37.229214 c 0.782729,-9.605216 1.069675,-13.68239 0.967353,-13.745625 -0.200463,-0.123896 -6.552333,-0.598193 -6.65369,-0.496833 -0.07588,0.07588 -2.347733,27.318785 -2.283534,27.382984 0.05605,0.05606 6.05797,0.552478 6.455438,0.533934 l 0.401609,-0.01873 z"
       id="path5082"
       inkscape:connector-curvature="0" />
  </g>
</svg>
