<?xml version="1.0" encoding="UTF-8" standalone="no"?>
<svg
   xmlns:dc="http://purl.org/dc/elements/1.1/"
   xmlns:cc="http://creativecommons.org/ns#"
   xmlns:rdf="http://www.w3.org/1999/02/22-rdf-syntax-ns#"
   xmlns:svg="http://www.w3.org/2000/svg"
   xmlns="http://www.w3.org/2000/svg"
   xmlns:sodipodi="http://sodipodi.sourceforge.net/DTD/sodipodi-0.dtd"
   xmlns:inkscape="http://www.inkscape.org/namespaces/inkscape"
   id="Layer_1"
   data-name="Layer 1"
   viewBox="0 0 601.37616 385.37234"
   version="1.1"
   sodipodi:docname="contrary.svg"
   inkscape:version="0.92.1 r15371"
   width="601.37616"
   height="385.37234">
  <metadata
     id="metadata43">
    <rdf:RDF>
      <cc:Work
         rdf:about="">
        <dc:format>image/svg+xml</dc:format>
        <dc:type
           rdf:resource="http://purl.org/dc/dcmitype/StillImage" />
        <dc:title></dc:title>
      </cc:Work>
    </rdf:RDF>
  </metadata>
  <defs
     id="defs41" />
  <sodipodi:namedview
     pagecolor="#ffffff"
     bordercolor="#666666"
     borderopacity="1"
     objecttolerance="10"
     gridtolerance="10"
     guidetolerance="10"
     inkscape:pageopacity="0"
     inkscape:pageshadow="2"
     inkscape:window-width="1920"
     inkscape:window-height="1001"
     id="namedview39"
     showgrid="false"
     inkscape:zoom="0.417193"
     inkscape:cx="-16.41457"
     inkscape:cy="150.66274"
     inkscape:window-x="-9"
     inkscape:window-y="-9"
     inkscape:window-maximized="1"
     inkscape:current-layer="Layer_1"
     fit-margin-top="0"
     fit-margin-left="0"
     fit-margin-right="0"
     fit-margin-bottom="0" />
  <path
     d="m 312.42311,226.45527 q 1.12602,-0.2951 2.25205,-0.6177 c 0.22121,-0.0634 0.44234,-0.12635 0.66356,-0.19061 q 1.04156,-0.3056 2.07508,-0.63537 c 0.28723,-0.0909 0.57346,-0.18187 0.85981,-0.27499 q 0.90162,-0.29511 1.79602,-0.60888 c 0.38604,-0.13421 0.77212,-0.2693 1.15658,-0.40877 0.20811,-0.0756 0.41839,-0.14471 0.62575,-0.22121 0.073,-0.0262 0.14165,-0.0612 0.21335,-0.0918 1.41317,-0.5252 2.81506,-1.07212 4.20571,-1.66172 a 5.4758083,5.4758083 0 0 0 -4.2789,-10.08109 q -2.22953,0.94665 -4.51297,1.76546 c -0.33226,0.12066 -0.66513,0.23652 -0.99893,0.35325 -0.54452,0.18974 -1.08982,0.37641 -1.63753,0.55496 -0.24133,0.0804 -0.48262,0.1552 -0.7239,0.23171 -0.62977,0.19936 -1.26195,0.39478 -1.89652,0.58072 -0.17925,0.0525 -0.3585,0.10361 -0.53888,0.1552 q -1.02871,0.29423 -2.06384,0.56301 l -0.44641,0.11411 q -1.06893,0.27281 -2.14424,0.52117 l -0.42976,0.0966 q -1.07452,0.24133 -2.15468,0.45686 c -0.16089,0.0306 -0.31609,0.0612 -0.47457,0.0918 q -1.05039,0.2033 -2.10485,0.38298 c -0.18974,0.0306 -0.38035,0.063 -0.57027,0.0931 q -1.00212,0.16089 -2.01072,0.30472 c -0.23389,0.035 -0.46892,0.0634 -0.70295,0.094 q -0.93786,0.12372 -1.87886,0.22909 c -0.28461,0.0306 -0.56944,0.0603 -0.85497,0.0892 q -0.86625,0.0879 -1.7349,0.16089 c -0.33445,0.0262 -0.66916,0.0516 -1.00457,0.0756 -0.53245,0.0394 -1.06569,0.0726 -1.59897,0.10143 -0.37817,0.0219 -0.7552,0.035 -1.13324,0.0516 -0.49464,0.0219 -0.98932,0.0393 -1.48395,0.0507 -0.41008,0.009 -0.82117,0.0175 -1.23139,0.0219 -0.46888,0.004 -0.93781,0.009 -1.4067,0.004 -0.42626,0 -0.85256,-0.009 -1.27803,-0.0175 -0.46089,-0.009 -0.92177,-0.0175 -1.38261,-0.035 -0.42145,-0.0131 -0.84211,-0.035 -1.26356,-0.0529 -0.47615,-0.0219 -0.9515,-0.0476 -1.42681,-0.0804 -0.32177,-0.0219 -0.63624,-0.045 -0.95474,-0.0682 q -1.48552,-0.11105 -2.96545,-0.26844 c -0.1329,-0.0131 -0.26537,-0.0262 -0.40221,-0.0393 -0.91207,-0.10318 -1.82011,-0.23171 -2.72819,-0.362 -0.32746,-0.0468 -0.65631,-0.0852 -0.98285,-0.13596 -0.97239,-0.15127 -1.93998,-0.32658 -2.90595,-0.50915 -0.24132,-0.0459 -0.48982,-0.0844 -0.73351,-0.13247 -0.99172,-0.1963 -1.97697,-0.41664 -2.96064,-0.64346 -0.22122,-0.0516 -0.44476,-0.0957 -0.66597,-0.14864 -0.96514,-0.23258 -1.93032,-0.48983 -2.88742,-0.75363 -0.24133,-0.066 -0.47776,-0.12372 -0.71506,-0.19148 -0.91285,-0.25969 -1.8177,-0.54291 -2.72094,-0.83005 -0.2833,-0.0901 -0.56782,-0.17225 -0.85015,-0.26537 -0.83407,-0.275 -1.66005,-0.57185 -2.48529,-0.87106 -0.34844,-0.12547 -0.69972,-0.24133 -1.04558,-0.3738 -0.74558,-0.2798 -1.48312,-0.58154 -2.2207,-0.88474 -0.41839,-0.16962 -0.8405,-0.33138 -1.25631,-0.50753 -0.65954,-0.27892 -1.31021,-0.57827 -1.96328,-0.87267 -0.48262,-0.2186 -0.97082,-0.42888 -1.44775,-0.65548 -0.58313,-0.27586 -1.15659,-0.56948 -1.73407,-0.85741 -0.53647,-0.268 -1.07697,-0.52843 -1.60864,-0.8043 -0.53162,-0.27587 -1.03832,-0.56301 -1.55709,-0.85016 -0.56865,-0.31215 -1.14132,-0.61927 -1.70272,-0.94345 -0.49468,-0.28548 -0.97965,-0.5871 -1.46865,-0.8847 -0.56786,-0.34188 -1.13809,-0.67882 -1.69869,-1.03355 -0.50671,-0.32177 -1.00296,-0.65789 -1.50245,-0.98927 -0.52362,-0.34582 -1.05043,-0.68608 -1.56596,-1.04559 -0.56302,-0.39172 -1.12039,-0.80434 -1.6778,-1.20646 -0.42932,-0.31215 -0.8638,-0.61692 -1.28687,-0.9362 -0.68608,-0.51719 -1.35764,-1.05367 -2.02847,-1.59093 -0.27411,-0.21947 -0.55496,-0.43282 -0.82681,-0.65552 q -1.31502,-1.07937 -2.58824,-2.21099 c -1.1019,-0.97642 -2.18848,-1.97138 -3.24132,-3.00327 a 5.4762905,5.4762905 0 1 0 -7.6634,7.82502 c 1.12603,1.10111 2.2802,2.16601 3.45366,3.2108 0.009,0.009 0.0175,0.0175 0.0262,0.0262 0.11892,0.10623 0.24133,0.20504 0.36287,0.3104 0.8791,0.77457 1.76948,1.54026 2.67109,2.28261 0.36899,0.30341 0.74882,0.59116 1.122,0.88876 0.69089,0.55016 1.37938,1.10268 2.08395,1.63434 0.52603,0.39653 1.06412,0.77535 1.59736,1.16222 0.57586,0.41752 1.14771,0.84129 1.73245,1.24586 0.61692,0.42713 1.24747,0.83486 1.87405,1.24826 0.52358,0.34494 1.04156,0.69815 1.57078,1.03356 0.65631,0.41577 1.32468,0.81072 1.99065,1.21128 0.522,0.31433 1.03915,0.63619 1.5668,0.941 0.64988,0.37555 1.311,0.73032 1.96892,1.09144 0.56301,0.30822 1.12038,0.62413 1.68904,0.92173 0.61127,0.32177 1.23217,0.62094 1.84987,0.92819 0.63218,0.31522 1.26116,0.63699 1.90059,0.93939 0.54693,0.25838 1.1019,0.4987 1.65284,0.7472 0.72385,0.32746 1.44775,0.65876 2.17965,0.96518 0.46731,0.19805 0.94184,0.37948 1.41234,0.57027 0.82685,0.33533 1.65283,0.67319 2.48852,0.98766 0.38866,0.14558 0.78178,0.27761 1.17189,0.41926 0.92491,0.33532 1.84987,0.66837 2.78607,0.97642 0.31696,0.10449 0.63781,0.19717 0.95631,0.2986 1.01261,0.32177 2.02685,0.64341 3.04991,0.93134 0.26363,0.0748 0.53005,0.1399 0.79468,0.21247 1.07776,0.29773 2.15713,0.58636 3.24534,0.84776 0.24133,0.0586 0.49144,0.10798 0.73675,0.16482 1.10513,0.2575 2.21261,0.50513 3.3274,0.72389 0.27499,0.0546 0.55173,0.0975 0.82681,0.14952 1.081,0.20417 2.16278,0.40222 3.25098,0.56944 0.37424,0.0577 0.75123,0.10143 1.12603,0.1552 0.86301,0.12373 1.72361,0.25663 2.59069,0.35806 0.14733,0.0175 0.29423,0.0262 0.44156,0.045 0.14733,0.0175 0.31128,0.0306 0.46648,0.0477 q 1.64558,0.17706 3.29763,0.29816 c 0.17706,0.0131 0.35237,0.035 0.52922,0.0481 0.19061,0.0131 0.3821,0.0175 0.5735,0.0306 0.51794,0.035 1.03592,0.0595 1.5539,0.0844 0.48821,0.0219 0.97642,0.0459 1.46463,0.0621 0.48821,0.0175 0.99574,0.0262 1.49357,0.035 0.49787,0.009 0.99736,0.0175 1.49601,0.0175 0.49866,0.002 1.00458,0 1.50726,-0.009 0.48261,-0.004 0.96518,-0.0131 1.44775,-0.0262 0.53004,-0.0131 1.06009,-0.035 1.5901,-0.0538 0.44881,-0.0175 0.8968,-0.035 1.34562,-0.0612 0.57184,-0.0306 1.1429,-0.0682 1.71395,-0.10843 0.40222,-0.0262 0.8043,-0.0573 1.20647,-0.0901 0.62173,-0.0516 1.24184,-0.11017 1.86194,-0.17269 0.34757,-0.035 0.69492,-0.07 1.04559,-0.10842 0.67322,-0.0748 1.34562,-0.16088 2.01718,-0.24701 0.29292,-0.0393 0.58636,-0.0804 0.87915,-0.1176 q 1.08335,-0.15215 2.16194,-0.32877 c 0.24133,-0.0393 0.48257,-0.0804 0.72385,-0.11892 q 1.14054,-0.19367 2.2754,-0.41445 c 0.20504,-0.0394 0.41008,-0.0804 0.61447,-0.11892 q 1.17267,-0.23389 2.33813,-0.49625 c 0.18493,-0.0437 0.36986,-0.0804 0.55496,-0.1246 q 1.17106,-0.26931 2.33245,-0.56782 c 0.1963,-0.0306 0.38604,-0.0796 0.57591,-0.12853 z"
     id="path2"
     style="fill:#ffffff;stroke-width:0.8043021"
     inkscape:connector-curvature="0"
     inkscape:export-xdpi="90"
     inkscape:export-ydpi="90" />
  <path
     d="m 348.14056,142.21913 a 5.4748845,5.4748845 0 0 0 4.15422,6.53496 5.556923,5.556923 0 0 0 0.81719,0.11979 5.4772974,5.4772974 0 0 0 5.71856,-4.27404 74.794465,74.794465 0 0 0 1.60055,-11.0037 73.927428,73.927428 0 0 0 -68.6174,-78.880324 74.173544,74.173544 0 0 0 -20.44859,1.41238 5.4764929,5.4764929 0 1 0 2.2593,10.71734 63.057283,63.057283 0 0 1 60.3363,20.01586 62.527248,62.527248 0 0 1 15.54395,45.968264 63.831828,63.831828 0 0 1 -1.36408,9.38942 z"
     id="path4"
     style="fill:#ffffff;stroke-width:0.8043021"
     inkscape:connector-curvature="0"
     inkscape:export-xdpi="90"
     inkscape:export-ydpi="90" />
  <path
     d="M 325.51635,17.294946 A 117.84876,117.84876 0 0 1 403.52723,113.90608 5.4757589,5.4757589 0 0 0 414.39575,112.5605 128.79531,128.79531 0 0 0 329.11721,6.9556056 5.4757236,5.4757236 0 0 0 325.51635,17.298136 Z"
     id="path6"
     style="fill:#ffffff;stroke-width:0.8043021"
     inkscape:connector-curvature="0"
     inkscape:export-xdpi="90"
     inkscape:export-ydpi="90" />
  <path
     d="m 409.83456,135.10589 a 5.535207,5.535207 0 0 0 -5.98481,4.91348 117.83026,117.83026 0 0 1 -87.96332,102.52839 5.4758363,5.4758363 0 1 0 2.70651,10.61197 128.7752,128.7752 0 0 0 96.15588,-112.06903 5.4748845,5.4748845 0 0 0 -4.91426,-5.98481 z"
     id="path8"
     style="fill:#ffffff;stroke-width:0.8043021"
     inkscape:connector-curvature="0"
     inkscape:export-xdpi="90"
     inkscape:export-ydpi="90" />
  <path
     d="m 244.40487,67.809926 a 74.719662,74.719662 0 0 0 -6.55905,5.15398 5.4925789,5.4925789 0 0 0 -0.76569,0.8276 c -0.62899,0.57267 -1.25233,1.15256 -1.85954,1.74456 a 5.4756885,5.4756885 0 1 0 7.64083,7.84273 63.78598,63.78598 0 0 1 5.36553,-4.67382 5.4877532,5.4877532 0 0 0 0.66436,-0.61849 c 0.58955,-0.44317 1.18312,-0.8791 1.78311,-1.29893 a 5.4765515,5.4765515 0 1 0 -6.27357,-8.97846 z"
     id="path10"
     style="fill:#ffffff;stroke-width:0.8043021"
     inkscape:connector-curvature="0"
     inkscape:export-xdpi="90"
     inkscape:export-ydpi="90" />
  <path
     d="m 347.0837,208.01828 a 5.4587981,5.4587981 0 0 0 3.85422,-1.23139 q 1.34562,-1.10512 2.66388,-2.2649 a 101.34689,101.34689 0 0 0 19.74799,-128.549224 5.4760973,5.4760973 0 1 0 -9.36126,5.68481 90.397124,90.397124 0 0 1 -17.61906,114.640414 q -1.17989,1.03596 -2.38312,2.02523 a 5.4764929,5.4764929 0 0 0 3.09735,9.69427 z"
     id="path12"
     style="fill:#ffffff;stroke-width:0.8043021"
     inkscape:connector-curvature="0"
     inkscape:export-xdpi="90"
     inkscape:export-ydpi="90" />
  <path
     d="m 354.86855,53.527146 a 101.32357,101.32357 0 0 0 -135.10749,-1.122 c -0.79463,0.69893 -2.89545,2.70965 -5.12096,4.84348 a 5.2826561,5.2826561 0 0 0 7.67546,7.11966 c 2.12334,-1.7453 4.20248,-3.42629 6.05878,-4.99387 a 90.3376,90.3376 0 0 1 119.75254,2.78047 5.4781018,5.4781018 0 0 0 7.81217,-1.44211 5.6534394,5.6534394 0 0 0 -1.0705,-7.18563 z"
     id="path14"
     style="fill:#ffffff;stroke-width:0.8043021"
     inkscape:connector-curvature="0"
     inkscape:export-xdpi="90"
     inkscape:export-ydpi="90" />
  <path
     d="m 205.38096,171.13541 a 5.4764929,5.4764929 0 0 0 9.76986,4.94968 8.2183587,8.2183587 0 0 1 13.74474,-1.40915 c 0.54932,0.68765 1.12602,1.35043 1.68903,2.01557 a 8.3816316,8.3816316 0 0 1 0.59357,0.60726 73.926624,73.926624 0 0 0 104.33648,6.66765 74.36014,74.36014 0 0 0 9.36126,-9.90338 c 0.67965,-0.86463 1.34479,-1.7397 1.9834,-2.63244 a 5.4764929,5.4764929 0 1 0 -8.90843,-6.37089 q -1.00138,1.40027 -2.08556,2.74506 c -0.17706,0.22035 -0.36506,0.43282 -0.54531,0.6515 -0.60244,0.7319 -1.2121,1.45741 -1.84992,2.16277 -0.0804,0.0879 -0.16089,0.17138 -0.24133,0.25882 -0.74558,0.81636 -1.50725,1.61825 -2.29629,2.39601 l -0.009,0.009 q -1.28687,1.26675 -2.64373,2.46194 a 62.976853,62.976853 0 0 1 -88.87538,-5.67834 c -0.2011,-0.22821 -0.42057,-0.43369 -0.6306,-0.65071 -0.44475,-0.52118 -0.89357,-1.03754 -1.32306,-1.5748 a 19.172953,19.172953 0 0 0 -32.06912,3.29763 z"
     id="path16"
     style="fill:#ffffff;stroke-width:0.8043021"
     inkscape:connector-curvature="0"
     inkscape:export-xdpi="90"
     inkscape:export-ydpi="90" />
  <path
     d="m 192.02956,67.228426 c 0.0901,0.10143 0.17838,0.20329 0.27106,0.30297 a 5.5754222,5.5754222 0 0 0 8.25216,-7.49123 c -0.0804,-0.0861 -0.16089,-0.17531 -0.24133,-0.2645 a 8.6454436,8.6454436 0 0 1 -2.02042,-5.73469 c -0.004,-1.9239 1.48233,-4.58935 2.47405,-5.81991 2.74427,-3.40622 8.29557,-8.22076 12.87927,-11.84257 a 117.83026,117.83026 0 0 1 91.21832,-24.01163 5.47588,5.47588 0 0 0 1.69708,-10.8194704 c -1.22094,-0.19148 -2.44266,-0.34887 -3.66438,-0.50508 A 128.00629,128.00629 0 0 0 231.5642,12.432006 c -14.55786,6.90575 -30.76292,19.12714 -38.61855,28.12326 -2.34373,2.68395 -5.60358,8.41458 -5.79581,13.02246 a 19.251775,19.251775 0 0 0 4.87972,13.65061 z"
     id="path18"
     style="fill:#ffffff;stroke-width:0.8043021"
     inkscape:connector-curvature="0"
     inkscape:export-xdpi="90"
     inkscape:export-ydpi="90" />
  <path
     d="m 290.02732,246.15588 c -3.82444,0.10711 -7.69959,0.0262 -11.51682,-0.24133 a 116.91255,116.91255 0 0 1 -66.12166,-26.0972 l -0.16089,-0.13509 c -1.02307,-0.83888 -2.02685,-1.70591 -3.025,-2.5802 -0.32177,-0.28549 -0.65228,-0.56704 -0.97401,-0.85659 -0.78419,-0.70212 -1.55469,-1.42362 -2.322,-2.14909 a 117.58092,117.58092 0 0 1 -8.90282,-9.42561 c -0.24133,-0.28155 -0.48257,-0.55659 -0.71988,-0.8405 a 5.4740801,5.4740801 0 0 0 -8.47893,6.92586 c 0.25095,0.30253 0.5067,0.59838 0.75927,0.89838 a 129.86744,129.86744 0 0 0 17.2579,16.8646 c 0.0437,0.0393 0.0804,0.0804 0.12853,0.11892 0.16089,0.13203 0.32877,0.26056 0.49381,0.39084 l 0.0573,0.045 0.37161,0.29423 c 0.12635,0.0988 0.254,0.19368 0.38035,0.29292 a 127.27437,127.27437 0 0 0 41.50842,21.69042 c 0.65307,0.20024 1.30697,0.40222 1.96411,0.59117 a 128.0642,128.0642 0 0 1 -53.35982,-30.83134 127.80361,127.80361 0 0 0 80.38518,35.72952 c 4.1703,0.28942 8.40333,0.37817 12.58168,0.26231 a 5.4692544,5.4692544 0 0 0 1.56116,-0.27412 c -1.52256,0.0643 -3.04428,0.11105 -4.55962,0.12154 h -0.24133 c 0.52603,0 1.05284,-0.0131 1.57965,-0.0219 q 1.60859,-0.0306 3.21723,-0.0975 a 5.4756885,5.4756885 0 0 0 -1.8668,-10.67467 z m -37.25286,6.35397 q 0.44961,0.12241 0.89921,0.24133 c -0.54369,-0.14253 -1.08418,-0.29423 -1.62551,-0.44397 0.24308,0.07 0.48423,0.13815 0.7263,0.20417 z m 13.79296,2.91478 q 4.41644,0.68289 8.90204,1.0625 -4.48398,-0.37729 -8.90204,-1.0625 z m 9.06852,1.07536 c 1.3472,0.11279 2.69925,0.20023 4.0537,0.27018 q -2.03249,-0.10318 -4.0537,-0.26844 z m 4.63119,0.30166 q 2.10646,0.10055 4.22499,0.13421 c -1.41557,-0.0219 -2.8207,-0.0678 -4.22582,-0.13334 z"
     id="path20"
     style="fill:#ffffff;stroke-width:0.8043021"
     inkscape:connector-curvature="0"
     inkscape:export-xdpi="90"
     inkscape:export-ydpi="90" />
  <path
     d="m 0,352.7058 a 33.904551,33.904551 0 0 1 2.01076,-11.38007 31.609072,31.609072 0 0 1 5.88911,-10.17203 29.624859,29.624859 0 0 1 9.50602,-7.27089 28.459425,28.459425 0 0 1 12.76189,-2.76999 q 8.47893,0 14.5482,3.84132 a 24.436306,24.436306 0 0 1 7.03201,6.60335 3.7802199,3.7802199 0 0 1 -1.03916,5.34699 v 0 a 3.7649381,3.7649381 0 0 1 -5.12018,-0.97563 16.184971,16.184971 0 0 0 -1.63193,-1.96652 17.824138,17.824138 0 0 0 -4.37622,-3.29763 18.864101,18.864101 0 0 0 -4.86198,-1.78635 23.519402,23.519402 0 0 0 -4.90626,-0.53569 19.328183,19.328183 0 0 0 -9.32988,2.19093 21.53921,21.53921 0 0 0 -6.8229,5.71056 24.638186,24.638186 0 0 0 -4.15263,7.94328 29.598317,29.598317 0 0 0 -1.38178,8.87708 27.354314,27.354314 0 0 0 1.64964,9.50606 26.180838,26.180838 0 0 0 4.59416,7.9867 22.446463,22.446463 0 0 0 6.96608,5.53441 18.915576,18.915576 0 0 0 8.74675,2.05418 22.177021,22.177021 0 0 0 5.12984,-0.62894 18.632462,18.632462 0 0 0 5.04219,-2.00434 21.702483,21.702483 0 0 0 4.50409,-3.48019 16.122236,16.122236 0 0 0 1.76943,-2.11053 3.8349124,3.8349124 0 0 1 4.97626,-1.12603 v 0 a 3.8260651,3.8260651 0 0 1 1.34637,5.52559 19.785832,19.785832 0 0 1 -2.19976,2.61395 26.854039,26.854039 0 0 1 -6.15693,4.60063 31.528642,31.528642 0 0 1 -7.27731,2.85125 30.212804,30.212804 0 0 1 -7.4953,0.98368 25.329886,25.329886 0 0 1 -11.95838,-2.85769 31.724087,31.724087 0 0 1 -9.41032,-7.45188 34.704027,34.704027 0 0 1 -8.34786,-22.35478 z"
     id="path22"
     style="fill:#ffffff;stroke-width:0.8043021"
     inkscape:connector-curvature="0"
     inkscape:export-xdpi="90"
     inkscape:export-ydpi="90" />
  <path
     d="m 107.80867,385.28244 a 27.003639,27.003639 0 0 1 -12.18279,-2.72657 29.914408,29.914408 0 0 1 -9.41032,-7.22747 32.677989,32.677989 0 0 1 -6.06927,-10.30874 34.037261,34.037261 0 0 1 -2.14183,-11.86509 33.020623,33.020623 0 0 1 2.27216,-12.13929 33.544223,33.544223 0 0 1 6.29364,-10.26533 30.322189,30.322189 0 0 1 9.50606,-7.09072 27.19265,27.19265 0 0 1 11.91492,-2.63327 26.037672,26.037672 0 0 1 12.1337,2.80701 31.180379,31.180379 0 0 1 9.37494,7.36418 34.149863,34.149863 0 0 1 8.21111,22.0435 32.895956,32.895956 0 0 1 -2.27858,12.13934 33.40347,33.40347 0 0 1 -6.2438,10.21465 30.128352,30.128352 0 0 1 -9.46584,7.05453 27.19265,27.19265 0 0 1 -11.9141,2.63327 z M 86.11986,353.15378 a 28.332345,28.332345 0 0 0 1.56274,9.32507 25.71193,25.71193 0 0 0 4.42369,7.98674 21.399262,21.399262 0 0 0 6.87274,5.53442 19.30325,19.30325 0 0 0 8.92053,2.04774 18.679112,18.679112 0 0 0 9.10791,-2.18528 22.242974,22.242974 0 0 0 6.82291,-5.71056 25.594501,25.594501 0 0 0 4.28934,-7.9867 28.737714,28.737714 0 0 0 1.46944,-9.01383 28.304999,28.304999 0 0 0 -1.56278,-9.32506 24.648642,24.648642 0 0 0 -4.46387,-7.94333 22.303297,22.303297 0 0 0 -6.86631,-5.49096 18.864101,18.864101 0 0 0 -8.79664,-2.05418 19.072416,19.072416 0 0 0 -9.10472,2.14669 22.01777,22.01777 0 0 0 -6.82932,5.63011 25.720776,25.720776 0 0 0 -4.32634,7.93686 28.210092,28.210092 0 0 0 -1.51932,9.10227 z"
     id="path24"
     style="fill:#ffffff;stroke-width:0.8043021"
     inkscape:connector-curvature="0"
     inkscape:export-xdpi="90"
     inkscape:export-ydpi="90" />
  <path
     d="m 174.74268,336.46371 v 44.35486 a 4.0150761,4.0150761 0 0 1 -4.01506,4.01505 v 0 a 4.0150761,4.0150761 0 0 1 -4.0151,-4.01505 v -55.13896 a 4.21213,4.21213 0 0 1 4.21214,-4.21209 v 0 a 4.21213,4.21213 0 0 1 3.29763,1.58927 l 38.00409,47.76432 v -45.24284 a 4.0150761,4.0150761 0 0 1 4.01265,-4.02148 v 0 a 4.0150761,4.0150761 0 0 1 4.01671,4.02148 v 54.67646 a 4.5796962,4.5796962 0 0 1 -4.57973,4.57973 v 0 a 4.5796962,4.5796962 0 0 1 -3.57432,-1.71719 z"
     id="path26"
     style="fill:#ffffff;stroke-width:0.8043021"
     inkscape:connector-curvature="0"
     inkscape:export-xdpi="90"
     inkscape:export-ydpi="90" />
  <path
     d="m 295.39766,328.60808 h -18.29307 v 52.21128 a 4.0150761,4.0150761 0 0 1 -4.01506,4.0151 v 0 a 4.0150761,4.0150761 0 0 1 -4.01509,-4.0151 v -52.21128 h -18.29946 a 3.570297,3.570297 0 0 1 -3.5703,-3.57026 v 0 a 3.570297,3.570297 0 0 1 3.5703,-3.5703 h 44.62268 a 3.570297,3.570297 0 0 1 3.57031,3.5703 v 0 a 3.570297,3.570297 0 0 1 -3.57031,3.57026 z"
     id="path28"
     style="fill:#ffffff;stroke-width:0.8043021"
     inkscape:connector-curvature="0"
     inkscape:export-xdpi="90"
     inkscape:export-ydpi="90" />
  <path
     d="m 325.92254,380.81857 v -55.40114 a 3.9531448,3.9531448 0 0 1 3.95315,-3.95315 h 23.17512 a 17.222521,17.222521 0 0 1 7.72132,1.74294 19.538911,19.538911 0 0 1 6.0757,4.63757 22.394987,22.394987 0 0 1 3.97164,6.51486 19.979668,19.979668 0 0 1 1.4196,7.36418 21.891494,21.891494 0 0 1 -0.93379,6.38055 19.83972,19.83972 0 0 1 -2.67673,5.57783 18.03567,18.03567 0 0 1 -4.19606,4.28292 16.280683,16.280683 0 0 1 -5.49096,2.58987 l 11.61655,18.367 a 3.8477812,3.8477812 0 0 1 -3.25181,5.9052 v 0 a 3.8477812,3.8477812 0 0 1 -3.24858,-1.78474 l -13.32167,-20.97457 h -16.78254 v 18.74023 a 4.0150761,4.0150761 0 0 1 -4.0151,4.01506 v 0 a 4.0150761,4.0150761 0 0 1 -4.01584,-4.00461 z m 8.03094,-25.88486 h 19.18581 a 9.378967,9.378967 0 0 0 4.5041,-1.07054 10.536358,10.536358 0 0 0 3.436,-2.9011 13.786542,13.786542 0 0 0 2.2287,-4.23304 15.746627,15.746627 0 0 0 0.8091,-4.99873 13.592705,13.592705 0 0 0 -0.93379,-5.04218 14.978518,14.978518 0 0 0 -2.50216,-4.19606 11.410634,11.410634 0 0 0 -3.66036,-2.85768 9.9250875,9.9250875 0 0 0 -4.4237,-1.02709 h -18.6437 z"
     id="path30"
     style="fill:#ffffff;stroke-width:0.8043021"
     inkscape:connector-curvature="0"
     inkscape:export-xdpi="90"
     inkscape:export-ydpi="90" />
  <path
     d="m 425.0761,321.46752 v 0 a 5.0534301,5.0534301 0 0 1 4.67862,3.14321 l 22.36601,54.76652 a 3.9595792,3.9595792 0 0 1 -3.666,5.45721 v 0 a 3.9595792,3.9595792 0 0 1 -3.67165,-2.47729 l -6.49474,-16.08602 H 411.6941 l -6.41509,16.07557 a 3.9531448,3.9531448 0 0 1 -3.67165,2.48852 v 0 a 3.9531448,3.9531448 0 0 1 -3.65796,-5.45314 l 22.45127,-54.77299 a 5.0534301,5.0534301 0 0 1 4.67543,-3.14159 z m 11.42588,38.55905 -11.42107,-29.27662 -11.77822,29.27662 z"
     id="path32"
     style="fill:#ffffff;stroke-width:0.8043021"
     inkscape:connector-curvature="0"
     inkscape:export-xdpi="90"
     inkscape:export-ydpi="90" />
  <path
     d="m 480.67668,382.30252 v -56.88509 a 3.9531448,3.9531448 0 0 1 3.95315,-3.95315 h 23.17595 a 17.24102,17.24102 0 0 1 7.72132,1.74294 19.513173,19.513173 0 0 1 6.06923,4.63757 22.261474,22.261474 0 0 1 3.97165,6.51486 19.986907,19.986907 0 0 1 1.42523,7.36418 21.688006,21.688006 0 0 1 -0.94022,6.38055 19.670817,19.670817 0 0 1 -2.67673,5.57783 18.009932,18.009932 0 0 1 -4.18958,4.28292 16.393286,16.393286 0 0 1 -5.491,2.58987 l 11.61414,18.36298 a 3.8509985,3.8509985 0 0 1 -3.25422,5.90922 v 0 a 3.8509985,3.8509985 0 0 1 -3.25019,-1.78636 l -13.32084,-20.97295 h -16.77773 v 20.22737 a 2.5319429,2.5319429 0 0 1 -2.53194,2.53194 h -2.96628 a 2.5319429,2.5319429 0 0 1 -2.53194,-2.52468 z m 8.03094,-27.36802 h 19.18582 a 9.4103344,9.4103344 0 0 0 4.50409,-1.0705 10.669068,10.669068 0 0 0 3.436,-2.90114 13.921665,13.921665 0 0 0 2.2287,-4.23304 15.740996,15.740996 0 0 0 0.80434,-4.99873 13.592705,13.592705 0 0 0 -0.93383,-5.04219 14.832135,14.832135 0 0 0 -2.50217,-4.19605 11.321356,11.321356 0 0 0 -3.65393,-2.85764 9.9443912,9.9443912 0 0 0 -4.42366,-1.02713 h -18.64614 z"
     id="path34"
     style="fill:#ffffff;stroke-width:0.8043021"
     inkscape:connector-curvature="0"
     inkscape:export-xdpi="90"
     inkscape:export-ydpi="90" />
  <path
     d="m 557.83741,323.24583 18.15387,31.24794 18.33247,-31.26084 a 3.570297,3.570297 0 0 1 3.07969,-1.7638 h 0.40221 a 3.570297,3.570297 0 0 1 3.0636,5.4041 l -20.86278,34.8488 v 19.09894 a 4.0150761,4.0150761 0 0 1 -4.0151,4.01506 v 0 a 4.0150761,4.0150761 0 0 1 -4.01505,-4.01506 v -19.28151 l -20.7719,-34.66545 a 3.570297,3.570297 0 0 1 3.06277,-5.40488 h 0.48257 a 3.570297,3.570297 0 0 1 3.08774,1.7767 z"
     id="path36"
     style="fill:#ffffff;stroke-width:0.8043021"
     inkscape:connector-curvature="0"
     inkscape:export-xdpi="90"
     inkscape:export-ydpi="90" />
</svg>
