<svg xmlns="http://www.w3.org/2000/svg" viewBox="0 0 1598.48 338.6"><defs><style>.cls-1{fill:#b3b3b3;opacity:0.54;}.cls-2{fill:#7ba9f9;}.cls-3{fill:#fff;}</style></defs><title>hacktx_icon</title><g id="Layer_1" data-name="Layer 1"><polygon class="cls-1" points="1080.79 41.76 1079.17 40.14 1079.84 39.47 1080.79 41.76"/><path class="cls-2" d="M1596.25,338.44,1259.83,2C1258.62.83,1256.67.17,1254,.17h-42.18c-4.64,0-8,1.68-9.7,5.9l-21.78,55.5L1121.82,3.05l-.41-.41a9.6,9.6,0,0,0-6.1-2.42c-.44,0-.87,0-1.33,0H1071.8c-6.75,0-8.85,4.21-6.32,10.12l11.62,28.14,1,2.29-1.62-1.62L1039.81,2.48l-1.08-1.08a7.35,7.35,0,0,0-4.47-1.23H879.06c-4.21,0-6.75,2.53-6.75,6.74V37.73L837.06,2.49,837,2.41l-.73-.73a8.19,8.19,0,0,0-5.14-1.5H786.7c-4.64,0-7.6,2.11-9.7,6.32L756.33,48.78,709.81,2.26A8.58,8.58,0,0,0,703.6.17H663.12c-5.48,0-8.43,3-8.43,8.43v65L598.16,17l-2.4-2.4c-10.25-9.54-25-14.45-44-14.45H504.55C464.91.17,443.4,21.25,443.4,60.9v42.6L341.82,1.92A6.64,6.64,0,0,0,337.54.2c-.28,0-.56,0-.86,0H278.06c-3.79,0-6.32,1.68-7.17,5.9l-17.33,80.3L169.71,2.51c-1.12-1.51-3.05-2.34-6-2.34H120.32c-4.22,0-6.75,2.53-6.75,6.74V57.79L58.21,2.43h0l-.87-.87h0A7.05,7.05,0,0,0,52.84.17H9.4C4.34.17,2.23,2.7,2.23,6.91V338.44h1594Z"/><path class="cls-3" d="M113.52,6.91c0-4.21,2.53-6.74,6.75-6.74h43.42c5.06,0,7.17,2.53,7.17,6.74V330.69c0,4.21-2.11,6.74-7.17,6.74H120.27c-4.22,0-6.75-2.53-6.75-6.74V196.62h-54V330.69c0,4.21-2.53,6.74-6.75,6.74H9.39c-5.06,0-7.16-2.53-7.16-6.74V6.91C2.23,2.7,4.33.17,9.39.17H52.81c4.22,0,6.75,2.53,6.75,6.74V141h54Z"/><path class="cls-3" d="M363.11,337.43c-3.8,0-5.9-2.11-6.75-5.9L344.56,270h-75l-11.39,61.55c-.84,3.79-2.95,5.9-6.74,5.9H206.28c-4.64,0-6.75-2.53-5.48-7.17l70-324.19c.85-4.22,3.37-5.9,7.17-5.9h58.6c3.79,0,6.32,1.68,7.17,5.9l70,324.19c.84,4.64-.84,7.17-5.9,7.17ZM307,73.94l-27,147.13h54Z"/><path class="cls-3" d="M612.27,106.4c0,4.22-2.53,6.75-6.74,6.75H563.37c-4.64,0-6.74-2.53-6.74-6.75V72.68c0-11-5.91-16.86-16.87-16.86H517.84c-11.38,0-16.86,5.9-16.86,16.86V264.92c0,11.38,5.9,16.86,16.86,16.86h21.92c11,0,16.87-5.48,16.87-16.86V231.19c0-4.21,2.1-6.74,6.74-6.74h42.16c4.21,0,6.74,2.53,6.74,6.74v45.53c0,39.63-21.5,60.71-60.7,60.71H504.35c-39.63,0-61.13-21.08-61.13-60.71V60.87c0-39.62,21.5-60.7,61.13-60.7h47.22c39.2,0,60.7,21.08,60.7,60.7Z"/><path class="cls-3" d="M790.18,337.43c-5.06,0-8-2.11-9.69-6.32L727.37,205.9l-15.6,29.93V329c0,5.48-2.95,8.43-8.43,8.43H662.87c-5.48,0-8.44-2.95-8.44-8.43V8.6c0-5.48,3-8.43,8.44-8.43h40.47c5.48,0,8.43,3,8.43,8.43V139.29L776.69,6.49c2.11-4.22,5.06-6.32,9.7-6.32h44.27c6.32,0,8.85,4.21,5.9,10.11L764.89,157.42l76.3,170.32c3,5.48.43,9.69-6.32,9.69Z"/><path class="cls-3" d="M1033.86.17c4.64,0,6.75,2.53,6.75,6.74V49.07c0,4.21-2.11,6.75-6.75,6.75H985V330.69c0,4.63-2.11,6.74-6.75,6.74H934.37c-4.22,0-6.75-2.11-6.75-6.74V55.82h-48.9c-4.22,0-6.75-2.54-6.75-6.75V6.91C872,2.7,874.5.17,878.72.17Z"/><path class="cls-3" d="M1262.36,327.31c2.53,5.91.42,10.12-6.32,10.12h-43.42c-4.64,0-8-1.68-9.7-5.9l-40.47-102-40.47,102c-1.69,4.22-5.06,5.9-9.7,5.9h-43.42c-6.75,0-8.86-4.21-6.33-10.12l66.61-161.88L1065.06,10.28c-2.53-5.9-.42-10.11,6.32-10.11h42.16c4.64,0,8,1.68,9.7,5.9L1162.45,106l39.2-99.91c1.69-4.22,5.06-5.9,9.7-5.9h42.16c6.74,0,8.85,4.21,6.32,10.11l-64.5,155.15Z"/></g></svg>