<?xml version="1.0" encoding="utf-8"?>
<!-- Generator: Adobe Illustrator 16.0.0, SVG Export Plug-In . SVG Version: 6.00 Build 0)  -->
<!DOCTYPE svg PUBLIC "-//W3C//DTD SVG 1.1//EN" "http://www.w3.org/Graphics/SVG/1.1/DTD/svg11.dtd">
<svg version="1.1" id="Layer_1" xmlns="http://www.w3.org/2000/svg" xmlns:xlink="http://www.w3.org/1999/xlink" x="0px" y="0px"
	 width="500px" height="500px" viewBox="0 0 500 500" enable-background="new 0 0 500 500" xml:space="preserve">
<g>
	<polygon fill="#FF4115" points="250,25.647 10.959,25.647 10.959,340.721 250,474.351 489.039,340.721 489.039,25.647 	"/>
	<polygon fill="#FFFFFF" points="59.818,111.704 58.76,109.592 57.968,107.213 57.703,106.153 57.569,104.964 57.569,103.644
		57.968,100.074 58.232,99.016 59.29,96.636 60.216,95.316 61.139,93.862 61.934,92.937 62.859,92.009 63.785,91.218 64.709,90.559
		65.767,89.896 67.881,88.707 68.939,88.177 70.13,87.647 71.715,87.119 73.829,86.593 75.547,86.196 76.868,85.931 77.795,85.798
		79.117,85.666 80.967,85.533 83.876,85.533 85.065,85.666 86.121,85.798 87.311,85.798 88.634,85.931 91.938,86.459 97.886,87.119
		100.001,87.119 101.455,86.987 102.645,86.855 104.362,86.593 105.949,86.196 107.138,85.798 108.064,85.403 109.12,84.741
		110.178,83.948 110.971,83.154 111.896,82.361 112.689,81.567 113.484,80.645 114.406,79.85 115.334,79.188 116.523,78.793
		118.241,78.793 120.355,79.058 122.472,79.85 123.793,80.907 124.323,81.965 123.924,83.551 121.545,90.689 121.148,91.747
		120.755,92.937 120.487,94.126 120.224,95.184 119.961,96.373 119.564,97.562 119.166,99.282 118.506,101.265 117.845,102.981
		117.447,104.171 116.918,106.55 116.523,108.137 115.992,109.724 115.596,111.045 115.202,112.103 114.937,113.292
		114.539,114.877 114.01,117.257 113.615,118.843 113.22,120.033 112.823,121.089 112.294,123.47 112.026,124.527 111.764,125.716
		111.764,126.642 112.16,127.17 113.22,127.304 114.539,127.304 115.729,127.17 119.034,126.642 120.755,126.511 122.338,126.907
		123.131,128.492 122.867,130.475 121.811,132.062 120.224,132.854 119.034,133.118 118.108,133.514 116.918,133.779
		115.729,133.912 113.484,134.046 112.16,134.176 110.574,134.571 109.254,135.63 108.458,137.084 108.194,138.272 108.064,139.463
		107.667,140.651 107.269,141.71 106.875,142.899 106.478,143.958 106.212,145.147 105.815,146.337 105.553,147.394
		105.156,148.583 104.626,149.641 104.229,150.83 103.967,151.886 103.437,153.079 102.909,154.003 102.514,155.059
		101.983,156.249 101.588,157.308 101.058,158.497 100.001,160.61 99.34,161.536 98.547,162.594 96.564,165.37 95.639,166.163
		93.92,167.749 92.996,168.542 92.069,169.203 90.88,169.731 89.559,170.26 87.839,170.921 85.988,171.45 84.271,171.847
		82.816,172.109 82.023,172.241 80.705,172.376 79.513,172.376 77.134,172.109 75.811,171.847 72.64,171.054 71.449,170.657
		70.393,170.129 69.203,169.599 67.881,168.675 66.691,167.616 65.767,166.56 64.709,165.37 63.785,163.915 62.198,160.744
		61.934,159.688 61.405,157.308 61.405,154.399 61.669,152.283 62.066,150.565 62.595,149.376 62.99,148.32 63.388,147.131
		64.182,145.675 65.104,144.222 65.898,143.298 66.691,142.503 67.617,141.446 69.07,139.993 70.13,139.199 71.187,139.067
		72.375,139.199 74.226,140.521 75.151,141.314 75.679,142.239 75.811,143.429 75.415,144.485 74.888,145.542 74.226,146.337
		73.698,147.394 73.036,148.583 72.509,149.773 71.979,152.152 71.847,153.342 71.715,154.662 71.979,157.041 72.375,158.234
		72.904,159.29 73.565,160.349 74.226,161.272 75.151,162.197 76.208,162.859 77.264,163.387 78.457,163.783 79.646,164.049
		80.967,164.049 82.686,163.915 84.668,163.387 86.121,162.594 87.178,161.8 88.369,160.61 89.427,159.421 90.219,158.365
		90.88,157.438 91.938,155.323 92.729,153.209 93.127,152.02 93.787,150.432 94.713,147.658 95.108,146.072 96.035,143.298
		96.828,141.183 97.357,138.802 97.756,137.084 98.018,135.364 97.756,134.046 96.828,133.514 95.639,133.381 94.448,133.381
		93.259,133.251 92.069,133.251 90.88,133.118 89.69,133.118 88.5,132.985 87.444,132.458 86.782,131.532 86.649,130.475
		86.782,129.286 87.178,128.096 87.972,127.17 88.897,126.511 90.616,126.378 92.729,126.378 94.979,126.511 97.225,126.774
		99.207,126.642 100.529,126.113 101.058,125.188 101.322,123.865 101.588,123.072 101.85,121.62 102.246,120.562 102.514,119.372
		103.306,116.993 103.568,115.935 103.967,114.745 104.229,113.556 105.023,111.175 105.288,109.988 105.685,108.665
		105.815,107.872 106.082,106.55 107.667,101.792 107.932,100.602 108.327,99.282 108.592,98.488 108.988,97.167 109.254,95.712
		109.517,94.919 109.781,93.597 110.178,92.406 110.574,91.351 110.841,90.559 110.707,90.425 110.047,90.953 108.194,92.274
		107.138,92.804 105.815,93.333 105.023,93.597 103.701,93.994 102.514,94.257 101.322,94.391 94.185,94.391 92.996,94.257
		91.938,94.126 90.485,93.994 89.69,93.862 88.237,93.729 87.178,93.597 85.988,93.465 84.668,93.333 82.42,93.333 79.91,93.465
		78.72,93.597 77.661,93.862 76.475,94.257 75.151,94.785 74.489,95.184 73.299,95.844 72.242,96.506 71.319,97.167 70.525,97.958
		69.732,99.016 68.939,100.472 68.409,101.923 68.277,103.247 68.277,104.833 68.676,106.416 69.203,107.477 69.997,108.402
		70.92,109.192 72.242,109.724 73.432,109.988 74.357,109.988 75.811,110.119 78.058,110.119 79.247,109.854 80.438,109.46
		82.554,108.402 84.006,108.005 85.727,108.402 87.178,109.854 87.575,111.572 87.178,112.896 86.386,113.82 84.537,115.407
		83.609,115.935 82.42,116.463 81.363,116.861 80.173,117.257 78.984,117.521 76.736,117.917 74.357,118.183 73.168,118.183
		70.788,117.917 69.07,117.521 67.483,117.127 65.104,116.33 64.182,115.672 63.122,115.011 62.198,114.351 61.405,113.556 	"/>
	<polygon fill="#FFFFFF" points="134.631,112.762 133.441,109.192 133.311,108.003 133.311,106.813 133.574,105.626
		134.104,104.434 134.764,103.51 135.557,102.584 136.483,101.792 137.539,101.265 138.73,100.999 139.918,100.999 141.11,101.265
		142.165,101.923 142.959,102.717 143.488,103.774 143.884,104.964 143.884,108.532 143.621,109.854 143.621,110.913
		143.884,111.971 144.545,112.895 145.471,113.82 146.396,114.613 147.32,115.672 148.775,117.39 149.699,118.183 151.419,119.899
		152.344,120.957 152.871,121.62 153.798,122.676 154.724,123.47 155.518,124.396 156.839,126.511 157.234,127.7 157.63,129.286
		158.028,131.002 157.894,132.192 157.5,133.381 156.971,134.44 156.178,135.364 154.854,137.48 154.062,138.403 153.402,139.463
		152.741,140.389 151.947,141.446 151.285,142.503 150.492,143.562 149.832,144.619 147.586,149.113 147.188,150.301
		146.793,151.358 146.527,152.548 146.264,153.872 146,155.059 145.868,156.249 145.868,157.571 146.396,160.217 147.057,161.272
		147.717,162.461 148.643,163.256 149.699,163.915 151.021,164.181 153.534,164.181 154.724,163.915 155.913,163.52
		157.103,162.989 158.028,162.329 160.01,161.007 161.068,160.217 161.993,159.421 162.784,158.628 163.578,157.571
		165.959,154.795 167.941,151.622 168.6,150.699 169.264,149.51 169.922,148.451 170.453,147.394 171.113,146.205 171.51,145.41
		172.302,143.958 172.832,142.899 173.229,141.842 173.756,140.782 174.948,140.123 176.664,140.521 177.854,141.842
		177.854,143.298 177.458,144.485 176.401,146.733 175.87,147.79 175.212,148.848 174.152,150.963 172.832,153.079 172.17,154.269
		171.643,154.929 170.98,156.118 169.659,158.234 168.072,160.349 167.015,161.8 166.09,163.123 164.504,164.973 163.578,165.766
		161.993,167.352 160.935,168.146 159.745,168.938 157.63,169.997 156.44,170.524 155.384,171.054 154.193,171.45 153.135,171.713
		151.814,171.979 148.775,171.979 147.057,171.847 144.412,171.318 143.354,170.921 142.033,170.26 140.052,168.938
		139.125,168.146 138.333,167.352 137.539,166.294 136.88,165.37 136.352,164.181 135.82,163.123 135.557,161.933 135.293,160.61
		135.028,159.421 134.896,158.234 134.896,157.041 135.424,152.283 135.82,151.097 136.22,150.037 136.747,148.848 137.407,147.394
		138.2,145.941 138.862,144.751 139.786,143.298 140.712,141.976 141.373,140.782 142.165,139.329 143.223,137.876 144.017,136.819
		145.073,134.969 146.527,132.854 147.188,131.4 147.586,129.418 147.32,127.831 146,125.716 145.206,124.659 143.091,122.278
		142.299,121.354 141.241,120.562 140.184,120.825 139.654,122.015 139.39,123.204 138.994,124.396 138.73,125.583 138.464,126.642
		138.069,127.831 136.88,131.002 136.483,132.192 136.085,133.251 135.69,134.44 135.028,136.027 134.367,137.48 133.838,138.671
		133.177,140.255 132.518,141.71 131.854,143.031 131.193,144.485 130.401,145.941 129.742,146.997 128.949,147.658
		127.759,147.658 126.703,146.997 125.91,146.071 126.04,145.015 126.436,143.825 126.966,142.634 127.361,141.578 127.759,140.389
		128.814,138.01 129.213,137.217 129.742,135.894 130.27,134.837 130.665,133.648 131.193,132.459 131.592,131.27 131.988,130.21
		133.045,127.831 133.311,126.642 133.706,125.452 133.971,124.262 134.501,123.072 134.764,121.883 135.028,120.825
		135.293,119.635 135.69,118.445 135.953,117.124 135.953,115.935 135.69,114.878 	"/>
	<path fill="#FFFFFF" d="M216.057,139.067l-0.665,0.926l-1.584,1.85l-1.851,1.586l-0.927,0.66l-1.188,0.662l-0.793,0.264
		l-1.321,0.793l-0.793,0.397l-1.189,0.528l-1.323,0.397l-1.189,0.394l-1.188,0.134l-1.323,0.266l-1.453,0.13l-1.586,0.267
		l-1.189,0.131h-1.189l-2.379-0.264l-2.381-0.134l-1.19-0.13l-3.568-0.793h-0.925l-0.66,0.527l-0.264,0.925v1.19l-0.134,1.323v2.245
		l0.134,1.32l0.264,1.06l0.793,2.379l1.322,2.116l0.794,0.923l0.791,0.793l2.115,1.323l1.322,0.397l1.189,0.396l0.926,0.132
		l1.189,0.264l1.189,0.132h1.32l1.189-0.132l3.438-0.661l1.189-0.264l1.19-0.396l1.058-0.396l2.245-0.928l2.116-1.056l1.85-1.454
		l0.926-0.662l0.923-0.793l1.853-1.717l1.586-1.852l0.661-0.925l0.792-1.059l1.323-1.852l0.659-1.056l0.529-1.056l0.662-1.06
		l0.529-1.056l0.658-0.927l0.53-1.057l0.528-1.19l0.528-1.056l0.661-1.06l0.927-0.661h1.188l1.189,0.795l0.661,1.189l-0.132,1.189
		l-0.529,1.188l-0.661,1.455l-0.792,1.452l-0.662,1.455l-0.793,1.452l-0.793,1.324l-1.321,2.113l-0.396,0.793l-0.792,1.193
		l-1.324,1.849l-0.791,0.924l-0.793,0.793l-0.795,0.928l-0.926,1.056l-0.396,0.528l-0.926,1.057l-0.791,0.926l-1.853,1.587
		l-1.319,1.058l-1.19,1.057l-2.114,1.322l-3.304,1.454l-1.06,0.397l-1.189,0.396l-1.72,0.265l-1.583,0.396l-2.776,0.263
		l-1.718,0.132l-1.455,0.135h-1.188l-4.761-0.529l-1.058-0.265l-1.188-0.396l-1.192-0.528l-1.055-0.528l-2.116-1.19l-1.056-0.529
		l-0.927-0.793l-0.924-0.925l-0.528-0.659l-0.927-1.057l-0.791-0.927l-0.662-1.06l-0.527-0.923l-0.53-1.189l-0.396-1.06
		l-0.396-1.189l-0.266-1.189l-0.263-1.056l-0.265-1.192l-0.396-3.566v-2.511l0.133-1.189v-1.19l0.79-3.572l0.396-1.056l0.266-1.189
		l0.396-1.189l0.263-1.188l0.398-1.191l0.528-1.452l0.661-1.587l0.66-1.189l0.793-1.454l0.926-1.321l0.53-1.188l0.66-0.927
		l0.793-0.924l1.981-2.116l1.983-1.983l1.058-0.926l1.188-0.924l1.322-0.926l1.188-0.925l1.323-0.794l1.322-0.66l1.189-0.529
		l1.719-0.793l2.775-0.925l2.379-0.528l1.719-0.264h2.907l1.72,0.264l2.112,0.397l1.72,0.395l1.189,0.396l1.19,0.53l1.058,0.527
		l0.794,0.529l1.849,1.585l0.794,0.927l0.793,1.321l0.661,1.587l0.396,1.189l0.262,1.188l0.134,1.191v1.585l-0.134,1.72l-0.13,1.321
		l-0.397,1.587l-0.529,1.586l-0.528,1.321l-0.397,0.661l-0.658,1.19L216.057,139.067z M199.928,123.204l-1.85,0.794l-1.586,0.793
		l-1.058,0.661l-1.853,1.586l-1.188,1.189l-1.057,1.19l-0.926,1.057l-0.924,1.454l-0.927,1.322l-0.661,1.189l-0.791,1.454
		l-0.53,1.586l-0.529,1.19l-0.396,1.056l-0.132,0.925l0.66,0.663l1.718,0.396l2.644,0.133l1.323,0.133h3.701l1.321-0.266
		l1.189-0.264l1.322-0.53l0.793-0.265l1.322-0.658l0.925-0.664l0.926-0.791l0.923-0.926l0.928-0.793l0.792-1.059l0.661-0.924
		l0.528-1.058l0.661-1.189l0.793-2.38l0.265-1.322l0.132-1.189l-0.132-1.32l-0.529-1.19l-0.794-0.926l-1.056-0.792l-1.189-0.527
		l-1.189-0.267l-1.19-0.131l-1.322,0.264L199.928,123.204z"/>
	<path fill="#FFFFFF" d="M266.938,139.067l-0.661,0.926l-1.587,1.85l-1.849,1.586l-0.924,0.66l-1.188,0.662l-0.797,0.264
		l-1.319,0.793l-0.794,0.397l-1.191,0.528l-1.321,0.397l-1.188,0.394l-1.193,0.134l-1.316,0.266l-1.455,0.13l-1.587,0.267
		l-1.189,0.131h-1.189l-2.378-0.264l-2.38-0.134l-1.19-0.13l-3.567-0.793h-0.927l-0.66,0.527l-0.265,0.925v1.19l-0.131,1.323v2.245
		l0.131,1.32l0.265,1.06l0.792,2.379l1.323,2.116l0.794,0.923l0.792,0.793l2.114,1.323l1.322,0.397l1.189,0.396l0.924,0.132
		l1.189,0.264l1.191,0.132h1.32l1.19-0.132l3.436-0.661l1.19-0.264l1.188-0.396l1.059-0.396l2.246-0.928l2.116-1.056l1.849-1.454
		l0.929-0.662l0.921-0.793l1.854-1.717l1.585-1.852l0.663-0.925l0.792-1.059l1.319-1.852l0.661-1.056l0.53-1.056l0.658-1.06
		l0.534-1.056l0.656-0.927l0.532-1.057l0.527-1.19l0.527-1.056l0.663-1.06l0.924-0.661h1.192l1.187,0.795l0.663,1.189l-0.136,1.189
		l-0.527,1.188l-0.661,1.455l-0.79,1.452l-0.663,1.455l-0.79,1.452l-0.794,1.324l-1.322,2.113l-0.398,0.793l-0.79,1.193
		l-1.321,1.849l-0.795,0.924l-0.792,0.793l-0.795,0.928l-0.923,1.056l-0.398,0.528l-0.926,1.057l-0.793,0.926l-1.854,1.587
		l-1.319,1.058l-1.188,1.057l-2.114,1.322l-3.305,1.454l-1.062,0.397l-1.186,0.396l-1.719,0.265l-1.586,0.396l-2.778,0.263
		l-1.717,0.132l-1.453,0.135h-1.189l-4.759-0.529l-1.059-0.265l-1.189-0.396l-1.19-0.528l-1.056-0.528l-2.116-1.19l-1.058-0.529
		l-0.925-0.793l-0.924-0.925l-0.529-0.659l-0.926-1.057l-0.793-0.927l-0.66-1.06l-0.529-0.923l-0.527-1.189l-0.396-1.06
		l-0.396-1.189l-0.267-1.189l-0.263-1.056l-0.266-1.192l-0.395-3.566v-2.511l0.131-1.189v-1.19l0.792-3.572l0.397-1.056l0.266-1.189
		l0.396-1.189l0.263-1.188l0.397-1.191l0.529-1.452l0.66-1.587l0.66-1.189l0.793-1.454l0.926-1.321l0.529-1.188l0.661-0.927
		l0.792-0.924l1.981-2.116l1.984-1.983l1.057-0.926l1.189-0.924l1.323-0.926l1.188-0.925l1.323-0.794l1.32-0.66l1.189-0.529
		l1.721-0.793l2.773-0.925l2.38-0.528l1.717-0.264h2.91l1.716,0.264l2.116,0.397l1.719,0.395l1.188,0.396l1.193,0.53l1.055,0.527
		l0.795,0.529l1.849,1.585l0.795,0.927l0.79,1.321l0.66,1.587l0.401,1.189l0.263,1.188l0.131,1.191v1.585l-0.131,1.72l-0.132,1.321
		l-0.398,1.587l-0.527,1.586l-0.529,1.321l-0.394,0.661l-0.666,1.19L266.938,139.067z M250.814,123.204l-1.851,0.794l-1.587,0.793
		l-1.056,0.661l-1.852,1.586l-1.188,1.189l-1.059,1.19l-0.927,1.057l-0.923,1.454l-0.928,1.322l-0.659,1.189l-0.792,1.454
		l-0.53,1.586l-0.529,1.19l-0.396,1.056l-0.131,0.925l0.661,0.663l1.718,0.396l2.644,0.133l1.322,0.133h3.7l1.322-0.266l1.189-0.264
		l1.32-0.53l0.796-0.265l1.32-0.658l0.923-0.664l0.929-0.791l0.921-0.926l0.928-0.793l0.795-1.059l0.656-0.924l0.532-1.058
		l0.661-1.189l0.794-2.38l0.263-1.322l0.131-1.189l-0.131-1.32l-0.527-1.19l-0.795-0.926l-1.057-0.792l-1.188-0.527l-1.192-0.267
		l-1.188-0.131l-1.322,0.264L250.814,123.204z"/>
	<polygon fill="#FFFFFF" points="317.034,141.976 317.034,143.429 316.504,144.751 314.917,147.658 314.393,148.848
		313.858,149.907 312.538,152.02 312.014,152.946 311.348,154.003 310.291,155.985 309.764,156.911 308.969,158.101 307.385,159.95
		306.724,161.007 306.062,161.933 305.271,162.859 302.758,165.37 300.909,166.825 299.055,168.409 298,169.203 296.545,169.997
		294.958,170.657 293.77,171.186 292.581,171.582 291.522,171.847 290.336,171.979 286.633,171.979 285.442,171.847
		284.254,171.582 282.667,171.054 281.212,170.393 280.155,169.731 278.306,168.146 277.645,167.22 276.983,166.163
		275.927,164.049 275.528,162.993 275.13,161.8 274.867,160.61 274.603,159.554 274.603,158.365 274.474,157.174 274.474,155.985
		274.34,154.662 274.34,153.473 274.736,149.907 274.736,148.716 275.397,142.766 275.659,141.578 275.796,140.389 276.323,138.01
		276.719,136.291 277.115,134.705 277.378,133.514 277.773,132.325 278.038,131.136 278.439,129.946 278.702,128.757
		278.964,127.17 279.494,125.452 280.288,123.072 280.288,122.017 279.89,121.354 278.964,121.089 277.907,120.957 276.585,120.693
		275.261,120.166 274.34,118.977 274.073,117.786 273.941,116.463 274.206,115.407 274.736,114.481 275.659,113.82 277.378,113.687
		279.362,113.82 281.343,113.82 282.667,113.424 283.197,112.498 283.46,111.175 283.722,110.119 284.12,108.929 284.647,107.872
		285.178,106.683 285.576,105.626 286.37,103.247 286.896,100.867 287.292,99.676 287.823,98.618 288.613,96.239 289.012,95.184
		289.537,93.994 289.936,92.804 290.336,91.747 290.729,90.559 291.26,89.498 291.787,88.31 292.05,87.253 292.448,86.063
		292.978,84.872 293.636,83.946 294.695,83.287 295.884,83.023 297.206,83.154 298.792,83.421 300.511,83.815 301.701,84.477
		302.758,85.403 303.154,86.855 302.89,88.046 302.229,89.764 301.434,91.614 300.772,93.333 300.379,94.653 300.116,95.447
		299.718,96.769 298.263,101.131 297.866,102.188 297.468,103.378 296.938,105.097 296.151,107.079 295.226,109.854
		294.958,111.045 294.429,112.103 294.034,113.158 294.034,114.085 294.827,114.745 296.28,115.011 297.604,115.011
		299.852,114.877 301.701,114.745 305.798,114.745 307.516,114.877 308.441,115.672 308.704,117.124 308.704,118.843
		308.311,120.033 307.649,120.957 306.724,121.62 305.533,122.017 304.343,122.278 303.021,122.411 299.453,122.545 298,122.545
		296.808,122.411 291.918,122.411 291.124,122.942 290.729,123.998 290.2,125.583 289.673,127.698 289.144,129.946 288.482,132.062
		287.955,134.308 287.425,136.423 287.026,138.272 286.896,139.067 286.499,140.916 286.104,142.372 285.707,143.692
		285.178,146.072 285.046,147.658 284.779,149.376 284.517,151.756 284.517,155.458 284.779,157.174 285.046,158.762
		285.442,159.95 285.97,161.14 286.633,162.066 288.086,162.993 289.936,163.783 291.391,164.049 292.715,164.049 294.166,163.783
		297.342,162.197 301.04,159.024 301.966,158.101 302.627,157.308 303.946,155.589 305.664,153.473 306.325,152.548 306.854,151.49
		307.516,150.432 308.311,149.376 308.969,148.451 309.632,147.394 310.159,146.337 310.554,145.147 311.214,143.826
		311.878,142.766 312.67,141.446 314.257,140.389 315.975,140.651 	"/>
	<polygon fill="#FFFFFF" points="377.437,145.809 377.175,146.469 376.511,147.79 375.851,148.716 375.323,149.773 374.796,150.963
		374.264,152.02 372.944,154.135 372.283,155.059 371.622,156.118 371.093,157.174 370.434,158.231 369.637,159.156
		368.847,160.217 368.055,161.14 366.6,162.989 365.805,163.917 365.011,164.709 361.312,167.881 360.255,168.542 359.066,169.203
		357.608,169.865 356.024,170.524 354.834,170.92 353.646,171.186 352.323,171.186 350.737,171.054 349.15,170.657 347.96,170.26
		347.038,169.599 346.11,168.808 345.185,167.486 344.261,166.032 343.865,164.841 343.467,163.256 343.335,161.538
		343.335,160.217 343.467,158.497 343.598,156.911 343.199,156.646 342.543,157.571 341.224,159.688 339.897,161.538
		339.107,162.461 338.446,163.387 337.651,164.312 336.991,165.238 336.067,166.032 335.272,166.824 334.347,167.618
		333.419,168.277 332.364,168.938 330.909,169.865 328.929,170.79 326.814,171.45 325.094,171.847 322.715,172.109 321.391,171.979
		319.809,171.714 318.222,171.318 317.031,170.92 315.975,170.524 315.051,169.865 313.202,168.277 312.538,167.353
		311.878,166.294 311.085,164.841 310.291,162.859 309.897,161.14 309.761,159.817 309.499,158.101 309.365,155.985
		309.365,154.267 309.499,152.946 309.63,151.227 309.897,149.641 310.291,148.32 310.687,146.731 311.085,145.015 311.479,143.826
		312.009,142.768 312.407,141.578 315.581,135.233 316.239,134.176 316.9,133.251 317.562,132.191 318.881,130.343 319.678,129.418
		321.391,127.435 321.921,126.907 322.847,125.849 324.698,124.262 325.886,123.072 327.342,122.017 329.193,120.561
		330.25,119.899 331.176,119.24 332.364,118.71 333.951,118.051 335.404,117.257 336.729,116.597 338.312,116.067 339.897,115.669
		341.224,115.273 344.523,115.011 345.714,114.878 347.301,114.878 349.942,115.011 352.984,115.273 355.891,115.803
		357.081,116.067 358.537,116.463 363.822,118.843 364.748,119.638 365.676,120.296 366.6,121.089 367.392,122.017 367.656,123.47
		367.127,125.319 365.676,126.907 364.221,127.831 363.163,127.964 362.104,127.566 361.047,126.774 359.856,126.113 358.8,125.452
		357.874,125.055 356.819,124.527 355.628,123.999 354.571,123.733 352.323,123.204 351.004,122.809 349.68,122.545
		347.038,122.545 346.11,122.676 344.791,122.809 343.07,123.204 339.769,124.394 338.446,125.055 337.122,125.849 336.196,126.511
		335.142,127.17 334.216,127.831 333.288,128.624 332.23,129.549 331.706,130.08 330.777,131.137 329.987,132.062 329.327,132.986
		327.74,134.837 327.077,135.761 326.416,136.819 324.831,139.993 324.171,141.05 323.376,143.429 322.847,144.617 322.319,145.677
		321.526,149.243 321.128,150.567 320.732,154.135 320.732,157.838 320.866,159.156 321.26,160.349 321.789,161.404 322.45,162.461
		323.245,163.256 324.436,163.783 326.02,164.049 327.74,163.917 328.929,163.52 331.04,162.461 332.894,160.877 333.687,160.082
		334.612,159.29 335.404,158.365 336.067,157.438 336.859,156.514 337.521,155.589 338.974,153.606 339.632,152.68 341.617,149.507
		342.412,148.053 343.335,146.337 343.865,145.542 345.449,142.105 345.977,140.917 346.244,139.993 346.771,138.802
		347.17,137.744 347.563,136.556 348.093,135.102 348.888,132.458 349.417,131.002 349.813,129.682 350.605,128.492 351.93,127.831
		353.116,127.566 354.309,127.698 355.495,127.964 357.608,129.021 358.668,129.682 359.198,130.475 359.329,131.665
		358.933,132.723 358.668,133.912 358.274,135.102 357.745,137.479 357.347,138.671 357.081,139.727 356.289,142.105
		356.024,143.429 355.891,144.221 355.495,145.809 355.229,146.998 354.702,149.243 354.309,150.83 354.042,152.152
		353.779,153.606 353.383,155.589 352.984,157.838 352.851,159.817 352.984,161.538 353.646,162.596 354.968,163.256
		356.95,163.387 358.537,162.859 359.726,162.197 361.577,160.877 362.498,159.95 364.089,158.231 365.676,156.383 366.993,154.531
		367.656,153.476 368.448,152.417 368.714,151.624 370.83,148.451 371.357,147.394 372.016,146.337 374.659,141.05 375.851,140.389
		377.437,140.651 378.494,141.976 378.628,143.298 378.098,144.485 	"/>
	<path fill="#FFFFFF" d="M404.929,142.238v1.454l-0.396,1.189l-1.058,2.116l-1.188,1.981l-0.661,1.189l-0.532,1.058l-0.792,1.19
		l-0.396,0.792l-0.661,1.19l-0.66,1.059l-0.661,0.925l-0.795,1.056l-0.661,0.927l-1.319,2.114l-2.379,2.776l-1.587,1.716
		l-0.926,0.927l-0.792,0.926l-0.923,0.794l-2.911,2.246l-0.926,0.66l-1.19,0.529l-1.188,0.396l-1.055,0.264l-2.382,0.529h-2.245
		l-1.455-0.134l-1.058-0.396l-1.19-0.396l-1.057-0.661l-0.926-0.793l-0.661-0.926l-0.661-1.058l-0.527-1.189l-0.267-1.056
		l-0.263-1.19l-0.132-1.189v-1.19l0.266-2.378l0.265-1.19l0.396-1.189l0.527-2.379l0.396-1.06l0.265-1.189l0.396-1.189l0.396-1.059
		l1.191-3.567l0.133-1.056l0.263-1.189l0.398-1.19l0.263-1.19l0.268-1.056l0.789-2.381l0.398-1.585l0.398-1.72l0.79-2.379
		l0.265-1.189l0.263-0.927l0.265-1.189l0.53-1.32l0.398-1.058l0.794-3.566l0.395-1.192l0.394-1.587l0.529-1.717l0.398-1.189
		l0.527-1.059l0.795-0.661l1.19-0.528l1.055-0.132l1.324,0.132l2.379,0.266l2.116,0.793l0.659,0.926v1.191l-0.266,1.186
		l-0.394,1.587l-0.398,1.718l-0.794,2.38l-0.263,1.058l-0.265,1.189l-0.396,1.321l-0.398,1.586l-1.319,3.967l-0.265,1.189
		l-0.527,1.719l-0.929,2.772l-0.265,1.193l-0.263,1.056l-0.267,1.19l-0.922,2.247l-0.267,1.189l-0.924,3.305l-0.792,2.379
		l-0.265,1.189l-0.398,1.718l-0.398,2.116l-0.263,2.245l0.263,1.985l1.062,1.453l1.451,0.396l1.19-0.134l1.188-0.528l0.928-0.66
		l1.057-0.794l4.362-4.361l0.792-0.927l0.661-0.923l0.792-1.06l1.324-2.112l0.792-0.927l0.53-0.793l0.658-1.058l0.792-1.189
		l0.532-1.189l1.055-2.248l1.587-3.17l0.661-1.06l1.19-0.661l1.716,0.266L404.929,142.238z M383.65,101.658l0.658-1.057l1.06-0.924
		l1.057-0.662l1.322-0.397l1.188-0.264h1.321l1.188,0.264l1.062,0.664l0.924,0.792l0.926,0.925l0.661,1.061l0.394,1.188l0.134,1.187
		v1.324l-0.396,1.189l-0.661,1.056l-0.792,1.06l-0.926,0.792l-1.062,0.793l-1.186,0.527l-1.324,0.267l-1.188-0.133l-1.322-0.264
		l-2.116-1.321l-0.79-0.925l-0.661-1.059l-0.265-1.19l-0.134-1.189l0.134-1.189l0.265-1.32L383.65,101.658z"/>
	<path fill="#FFFFFF" d="M439.561,107.213l-0.661,1.187l-1.057,2.116l-0.661,1.455l-0.926,1.453l-0.661,0.927l-0.661,1.057
		l-0.658,0.923l-0.661,1.19l-0.529,0.793l-0.661,1.059l-0.926,1.189l-1.188,1.321l-1.19,1.189l-0.527,0.661l-0.929,1.058
		l-1.715,1.72l-0.795,0.924l-1.453,1.586l-0.928,0.792l-1.055,1.059l-1.456,1.058l-1.98,1.72l-1.06,0.659l-2.906,1.851l-0.926,0.396
		l-1.059,0.662l-1.456,1.187l-0.923,1.192l-0.527,1.056l-0.263,1.454l-0.398,2.38v0.793l-0.268,1.321l-0.263,1.19l-0.131,1.323
		v2.776l-0.131,1.717v2.643l0.262,1.453l0.132,0.795l0.267,1.32l0.53,1.189l0.524,1.06l0.795,0.923l1.06,0.661l1.057,0.398
		l1.322,0.263h2.245l1.057-0.131l1.191-0.397l1.586-0.66l1.456-0.794l1.055-0.791l1.324-1.059l1.186-1.189l1.587-1.455l1.057-0.924
		l0.797-1.06l0.525-0.661l0.795-1.056l0.529-0.926l0.792-1.189l0.527-0.661l0.795-1.189l1.057-1.981l0.659-1.057l0.794-1.189
		l0.661-1.19l0.661-1.322l1.188-1.719l1.324-1.059l1.72,0.265l1.058,1.322v1.323l-0.398,1.189l-0.527,1.058l-0.666,1.056
		l-0.525,1.189l-0.529,1.06l-0.396,1.056l-0.66,1.058l-0.53,0.926l-0.661,1.057l-0.789,1.19l-0.268,0.659l-0.661,1.19l-0.794,1.059
		l-1.32,1.849l-0.923,1.192l-0.532,0.528l-0.924,1.189l-0.792,0.923l-1.057,1.322l-1.193,1.059l-0.923,0.924l-0.793,0.661
		l-0.926,0.794l-1.19,0.66l-1.057,0.529l-1.188,0.529l-1.06,0.529l-1.057,0.396l-1.19,0.528l-1.585,0.529l-2.644,0.529l-1.587,0.13
		l-1.455-0.13h-0.792l-1.32-0.133l-1.19-0.265l-1.057-0.396l-1.193-0.395l-1.052-0.531l-1.06-0.661l-0.926-0.792l-0.792-0.792
		l-0.795-0.927l-0.527-1.056l-0.527-1.191l-0.398-1.058l-0.268-1.19l-0.394-1.188l-0.131-1.188l-0.265-1.323v-0.793l-0.268-1.455
		l-0.129-1.188v-1.191l0.129-1.188l0.134-1.323v-0.793l0.134-1.72l0.396-2.906l0.132-1.586v-1.189l0.262-1.189l0.268-1.322
		l0.926-4.361l0.398-1.587l0.394-2.379l0.263-0.661l0.398-1.587l0.263-0.793l0.532-1.981l0.394-1.72l0.267-1.189l0.395-1.587
		l0.527-1.85l0.136-0.926l0.527-1.85l0.527-1.718l0.398-0.927l0.527-1.717l0.529-1.587l0.53-1.189l1.319-3.438l0.267-0.79
		l0.793-1.853l0.926-2.113l0.66-1.586l0.53-1.189l0.396-0.796l0.661-1.188l0.926-2.247l0.661-1.321l0.656-1.19l0.795-1.188
		l1.059-1.72l1.719-2.379l0.792-1.058l1.718-1.719l0.532-0.661l0.923-0.924l0.926-0.66l2.112-1.456l1.455-0.925l1.453-0.662
		l1.19-0.396l1.193-0.265h2.377l1.321,0.265l0.795,0.132l1.317,0.397l1.057,0.528l1.854,1.586l0.661,1.057l0.926,1.322l0.661,1.587
		l0.527,1.19l0.529,1.586l0.266,1.717v2.38l-0.266,3.568l-0.529,2.379l-0.396,1.06l-0.262,1.32l-1.058,3.172l-0.534,1.059
		L439.561,107.213z M417.618,110.913l-1.852,5.55l-0.265,1.189l-0.394,1.19l-0.53,1.719l-0.926,2.776l-0.396,1.321l-0.134,0.793
		l-0.394,1.322l-0.398,1.189l-0.263,1.322l0.263,0.793l0.792-0.53l1.324-1.057l5.421-5.42l0.658-0.924l0.664-1.06l0.789-1.189
		l0.53-0.527l0.794-1.189l0.924-1.189l0.926-1.321l0.928-1.454l0.656-1.057l0.532-0.927l0.656-0.926l1.06-2.116l0.529-1.32
		l0.396-0.791l0.529-1.323l0.53-1.19l0.265-1.189l0.394-1.188l0.398-1.456l0.525-1.451l0.398-1.456l0.529-1.453l0.134-1.321
		l0.131-1.189v-2.512l-0.265-1.059l-0.396-1.057l-0.926-0.661l-1.058-0.265l-1.19,0.265l-1.188,0.924l-0.928,0.794l-0.659,0.793
		l-0.66,0.927l-0.661,1.057l-1.322,1.983l-0.658,1.189l-0.53,1.189l-0.531,1.058l-0.525,1.188l-0.529,1.058l-0.527,1.189
		l-0.398,1.059l-0.53,1.452l-0.794,1.982l-0.525,1.193L417.618,110.913z"/>
	<polygon fill="#FFFFFF" points="122.459,232.929 122.459,215.778 100.598,215.778 100.598,232.929 95.943,232.929 95.943,195.54
		100.598,195.54 100.598,211.628 122.459,211.628 122.459,195.54 127.111,195.54 127.111,232.929 	"/>
	<path fill="#FFFFFF" d="M173.747,232.932l-3.305-8.299H151.83l-3.307,8.299h-5.324l15.021-37.391h5.772l15.081,37.391H173.747z
		 M161.138,200.363l-7.962,20.123h15.863L161.138,200.363z"/>
	<g>
		<path fill="#FFFFFF" d="M191.574,214.264c0-11.492,8.465-19.339,19.228-19.339c6.614,0,11.211,3.195,14.182,7.397l-3.923,2.187
			c-2.131-3.138-5.998-5.436-10.259-5.436c-8.186,0-14.405,6.277-14.405,15.19c0,8.856,6.22,15.191,14.405,15.191
			c4.261,0,8.128-2.242,10.259-5.438l3.979,2.186c-3.139,4.261-7.623,7.399-14.237,7.399
			C200.039,233.603,191.574,225.755,191.574,214.264"/>
		<polygon fill="#FFFFFF" points="264.782,232.929 250.602,216.113 246.846,220.374 246.846,232.929 242.192,232.929
			242.192,195.54 246.846,195.54 246.846,214.879 263.381,195.54 269.21,195.54 253.628,213.31 270.558,232.929 		"/>
		<polygon fill="#FFFFFF" points="287.095,232.929 287.095,195.54 311.587,195.54 311.587,199.689 291.745,199.689 291.745,211.742
			311.195,211.742 311.195,215.89 291.745,215.89 291.745,228.783 311.587,228.783 311.587,232.929 		"/>
		<path fill="#FFFFFF" d="M351.839,232.929l-9.532-14.853h-7.453v14.853h-4.655v-37.388h15.023c6.837,0,11.715,4.372,11.715,11.268
			c0,6.727-4.597,10.425-9.696,10.874l10.092,15.246H351.839z M352.117,206.809c0-4.206-3.028-7.119-7.455-7.119h-9.809v14.294
			h9.809C349.089,213.983,352.117,211.013,352.117,206.809"/>
		<path fill="#FFFFFF" d="M373.249,227.661l2.746-3.532c2.466,2.747,6.504,5.326,11.773,5.326c6.672,0,8.801-3.589,8.801-6.446
			c0-4.486-4.543-5.718-9.474-7.062c-5.998-1.568-12.671-3.253-12.671-10.596c0-6.166,5.496-10.37,12.84-10.37
			c5.716,0,10.146,1.905,13.284,5.214l-2.804,3.42c-2.803-3.086-6.729-4.486-10.818-4.486c-4.486,0-7.681,2.41-7.681,5.942
			c0,3.756,4.319,4.878,9.082,6.165c6.112,1.627,13.062,3.531,13.062,11.382c0,5.438-3.7,10.985-13.79,10.985
			C381.098,233.603,376.333,231.136,373.249,227.661"/>
		<path fill="#FFFFFF" d="M436.202,298.354c-10.887-2.365-24.462-3.564-40.341-3.564c-58.111,0-130.28,16.052-131.133,16.252
			l-2.558,1.024c0.078-0.62,0.164-1.437,0.281-2.507c0.598-5.373,1.714-15.37,3.366-18.679l0.506-1.005l-1.106-0.222
			c-4.08-0.814-6.705,0.565-9.236,4.9c-1.125-0.422-2.414-0.636-3.849-0.636c-0.75,0-1.473,0.062-2.133,0.146
			c-0.662-0.085-1.387-0.146-2.132-0.146c-1.436,0-2.728,0.214-3.851,0.636c-2.531-4.335-5.164-5.715-9.237-4.9l-1.109,0.222
			l0.509,1.01c1.656,3.304,2.768,13.305,3.361,18.676c0.117,1.07,0.211,1.889,0.287,2.51l-2.691-1.068
			c-0.725-0.161-72.895-16.213-131.002-16.213c-15.881,0-29.453,1.199-40.338,3.564l-3.844,0.829l3.839,0.851
			c26.824,5.914,42.602,14.996,45.625,26.259l0.312,1.171l1.002-0.678c2.713-1.851,7.3-2.91,12.597-2.91
			c11.764,0,24.227,5.131,25.275,14.935l0.109,1.008l0.979-0.271c8.317-2.298,20.897-5.36,34.068-5.36
			c28.939,0,48.609,15.057,58.523,44.756c0.414,1.246-2.873,4.597-3.272,6.309c-0.063,0.28,0.167,0.543,0.455,0.552h3.577
			c0.772,0,1.44,0.531,1.611,1.283l4.839,20.976c0.123,0.537,0.888,0.537,1.011,0l4.833-20.969c0.171-0.752,0.849-1.285,1.624-1.278
			l3.403,0.021c0.291,0.002,0.529-0.264,0.469-0.548c-0.38-1.741-3.537-5.089-3.122-6.335c9.914-29.706,29.588-44.766,58.53-44.766
			c13.165,0,25.744,3.062,34.06,5.36l0.979,0.271l0.108-1.008c1.052-9.804,13.514-14.935,25.282-14.935
			c5.297,0,9.881,1.06,12.595,2.91l0.999,0.678l0.312-1.171c3.023-11.263,18.799-20.345,45.626-26.259l3.844-0.851L436.202,298.354z
			"/>
	</g>
</g>
</svg>
