<svg xmlns="http://www.w3.org/2000/svg" viewBox="0 0 612 612"><defs><style>.cls-1{fill:#fff;}.cls-2{fill:#ef4625;}.cls-3{fill:#4e4e4e;}.cls-4{fill:#4b79ba;}</style></defs><title>freetail</title><g id="moon"><circle class="cls-1" cx="439.5" cy="162.5" r="88.5"/></g><g id="bridge"><rect class="cls-1" x="160.48" y="442.72" width="31.57" height="95.28"/><rect class="cls-1" x="290.48" y="442.72" width="31.57" height="95.28"/><rect class="cls-1" x="421.48" y="442.72" width="31.57" height="95.28"/><polygon class="cls-1" points="241.39 391.71 109.78 391.71 175.58 505.69 241.39 391.71"/><polygon class="cls-2" points="241.39 391.71 109.78 391.71 175.58 505.69 241.39 391.71"/><polygon class="cls-3" points="241.39 391.71 109.78 391.71 175.58 505.69 241.39 391.71"/><polygon class="cls-4" points="266.5 436.41 240.69 391.71 214.88 436.41 266.5 436.41"/><polygon class="cls-4" points="135.5 436.41 109.69 391.71 83.88 436.41 135.5 436.41"/><polygon class="cls-4" points="109.5 391.71 83.69 436.41 57.88 391.71 109.5 391.71"/><polygon class="cls-4" points="554.5 391.71 528.69 436.41 502.88 391.71 554.5 391.71"/><polygon class="cls-4" points="397.5 436.41 371.69 391.71 345.88 436.41 397.5 436.41"/><polygon class="cls-4" points="528.5 436.41 502.69 391.71 476.88 436.41 528.5 436.41"/><polygon class="cls-3" points="372.17 391.71 240.56 391.71 306.37 505.69 372.17 391.71"/><polygon class="cls-3" points="502.75 391.71 371.14 391.71 436.95 505.69 502.75 391.71"/></g><g id="bat"><g id="Layer_2" data-name="Layer 2"><path class="cls-4" d="M292.91,245.13c3.78-3.86,1.68-7.32.13-10.84-8.68-19.79-25.24-29.44-46.69-26.93-6.71.78-13.35,2.16-20.06,3.27-4.74-10.34-16.79-14.18-29-9-6.22-12.92-18.9-15.45-30.9-19.06-1.42-.43-2.88-.68-4.32-1a9.57,9.57,0,0,1-1.1-.68c3-.56,5.34-1.09,7.71-1.42,19.38-2.73,38.81-2,58.1.4,21.69,2.67,43.26,6.29,65.18,9.55-.69-4.49-1.5-9.67-2.41-15.6,1.68.42,3.59.43,4.9,1.32,4.26,2.95,8.81,2.94,13.36-.1,1.27-.84,3.1-.86,4.83-1.3-.94,5.83-1.76,11-2.61,16.38,43.41-7.9,86.31-16.45,130.25-9-6.6,2.19-13.33,4.1-19.79,6.65-6.62,2.65-12.64,6.35-15.35,14a24.47,24.47,0,0,0-16.89-1.46c-5.74,1.4-10.7,4-12.13,10.44-6.82-1.12-13.42-2.5-20.12-3.28-23-2.73-41,8.79-48.34,30.9-.64,1.91.26,4.33.47,6.77-3-.36-3.48,2.22-4,4.94a53.26,53.26,0,0,1-3.45,11.52c-1-4.1-2-8.19-2.84-12.29C297.36,246.63,296.54,244.72,292.91,245.13Z"/></g></g></svg>