<svg xmlns="http://www.w3.org/2000/svg" viewBox="0 0 965 414"><defs><style>.cls-1{fill:#fff;}.cls-2{fill:#7ba9f9;}</style></defs><title>HackTX_logo</title><g id="Layer_1" data-name="Layer 1"><path class="cls-1" d="M209.76,400.71H7.9l-.3-.32C7.29,400.05,0,391.74,0,350.16c0-53.7,27.76-104.48,53.74-134.09l70.37-80.51c15.58-18.26,20.59-29.87,20.59-47.76,0-16.8-13.66-30-31.1-30-21,0-30.52,21.66-30.52,41.78V117H10.71V88.37C10.71,36.06,53-.46,113.61-.46c30.13,0,56.08,8.33,75,24.08C208,39.71,218.21,62.09,218.21,88.37c0,48.57-13.29,64-42.39,97.75-3.6,4.18-7.32,8.49-11.34,13.24-.21.22-16.75,16.77-49,50.71C86.38,280.2,80.27,312,80.27,333.27a86.66,86.66,0,0,0,.45,9.14h129Zm-200.92-2H207.76v-54.3H79l-.13-.86a81,81,0,0,1-.57-10.28c0-21.69,6.2-54,35.75-84.58,32.29-33.95,48.83-50.52,49-50.68,4-4.7,7.69-9,11.29-13.19,28.78-33.39,41.91-48.63,41.91-96.45,0-25.66-10-47.52-28.85-63.21C168.77,9.71,143.27,1.54,113.61,1.54c-28.74,0-54.56,8.53-72.68,24C22.47,41.37,12.71,63.08,12.71,88.37V115H81.09V99.62c0-13.24,3.33-24.43,9.64-32.36,5.87-7.37,14-11.42,22.88-11.42,18.56,0,33.1,14,33.1,32,0,18.45-5.12,30.37-21.07,49.07L55.25,217.39C29.51,246.73,2,297,2,350.16,2,386.31,7.61,396.83,8.84,398.71Z"/><path class="cls-1" d="M385.54,405.77c-41.23,0-66.23-15.88-79.94-29.2-16.74-16.27-26.34-38-26.34-59.63v-228c0-21.67,9.6-43.5,26.33-59.9,13.74-13.46,38.75-29.49,80-29.49s66,16,79.66,29.49c16.56,16.36,26.06,38.19,26.06,59.9v228C491.26,360,454.2,405.77,385.54,405.77Zm0-404.23C345,1.54,320.46,17.26,307,30.46c-16.35,16-25.73,37.34-25.73,58.47v228c0,21.09,9.38,42.3,25.73,58.19,13.45,13.07,38,28.64,78.55,28.64s64.92-15.57,78.26-28.64c16.18-15.84,25.46-37.05,25.46-58.19v-228C489.26,46.56,452.91,1.54,385.54,1.54Zm0,347.93c-21.93,0-35.35-21.42-35.35-33.09V89.49c0-11.86,13.42-33.65,35.35-33.65,9.3,0,18.26,4.34,25.24,12.23,5.79,6.55,9.54,15,9.54,21.42V316.38C420.32,328.05,407.11,349.47,385.54,349.47Zm0-291.63c-11.45,0-33.35,12.32-33.35,31.65V316.38c0,11,12.66,31.09,33.35,31.09,11.25,0,32.78-12.1,32.78-31.09V89.49C418.32,78.62,405.55,57.84,385.54,57.84Z"/><path class="cls-1" d="M650.58,400.71H578.21V62.9H546.68V20.75L579,4.6h71.61Zm-70.37-2h68.37V6.6H579.44L548.68,22V60.9h31.53Z"/><path class="cls-1" d="M835.37,405.77c-34,0-63.26-11.83-84.61-34.23C730.25,350,719,320,719,287.11c0-47.38,21.29-81.08,63.3-100.22-12.3-5.84-24.52-17.42-33.8-32.12-10.67-16.89-16.55-36.48-16.55-55.15,0-30.48,9.1-55.82,26.32-73.25S800.88-.46,831.43-.46c32,0,58.23,9,76,26,18.23,17.43,27.47,42.37,27.47,74.12,0,18.77-5.8,38.35-16.34,55.15-9.25,14.74-21.53,26.32-34,32.13,42.37,19.29,63.84,53,63.84,100.21,0,31.86-11,61.47-30.94,83.36C896.72,393.24,867.56,405.77,835.37,405.77ZM831.43,1.54c-61.06,0-97.52,36.67-97.52,98.08,0,40,26.57,76,51.18,86.35l2.15.9-2.14.94c-42.56,18.62-64.14,52-64.14,99.3,0,32.42,11.1,61.91,31.25,83.05,21,22,49.72,33.61,83.16,33.61,31.62,0,60.25-12.3,80.62-34.65,19.62-21.52,30.42-50.65,30.42-82,0-47.11-21.77-80.52-64.71-99.3l-2.15-.95,2.17-.89c31.61-13.06,51.18-55,51.18-86.35C932.9,37.29,895.92,1.54,831.43,1.54Zm7.88,347.93c-16.72,0-29.3-5.56-37.4-16.52-7.6-10.3-11.45-25.72-11.45-45.84,0-43.12,13.67-65.79,43-71.36l.19,0,.18,0c29,5.59,42.48,28.26,42.48,71.36C876.35,317.14,864.76,349.47,839.31,349.47Zm-5.63-131.72c-28.12,5.42-41.22,27.46-41.22,69.36,0,40.62,15.33,60.36,46.85,60.36,24.07,0,35-31.29,35-60.36C874.35,245.24,861.42,223.19,833.68,217.75Zm0-61.89-.32-.11c-22.59-7.53-35-25.66-35-51.06,0-28.76,15-48.85,36.47-48.85,20.76,0,33.65,18.72,33.65,48.85,0,25.35-12.23,43.48-34.45,51.06Zm1.12-98c-20.29,0-34.47,19.26-34.47,46.85,0,17.24,5.8,39.71,33.34,49.05,28.51-9.89,32.78-34.95,32.78-49.05C866.46,75.35,854.63,57.84,834.81,57.84Z"/><path class="cls-2" d="M96.91,342.09a79.55,79.55,0,0,0,.56,10.13H226.4v56.31H26s-7.32-7.89-7.32-49.55c0-51.23,25.34-101.34,53.49-133.43L142.51,145c16.33-19.14,20.83-31,20.83-48.42,0-18-14.64-31-32.09-31-16.89,0-31.53,15.2-31.53,42.78v16.33H29.35V97.18c0-52.35,42.22-87.82,101.9-87.82,60.24,0,103.59,34.34,103.59,87.82,0,54-16.32,66.44-53.48,110.35,0,0-16.33,16.33-49,50.67C100.85,290.86,96.91,325.2,96.91,342.09Z"/><path class="cls-2" d="M507.89,97.75v228c0,40-33.78,87.83-104.72,87.83s-105.28-47.85-105.28-87.83v-228c0-40,34.35-88.39,105.28-88.39S507.89,57.77,507.89,97.75ZM437,98.31c0-11.82-13.51-32.65-33.78-32.65-20.83,0-34.34,20.83-34.34,32.65V325.2c0,11.82,13.51,32.09,34.34,32.09C423.44,357.29,437,337,437,325.2Z"/><path class="cls-2" d="M596.85,14.42h70.37V408.53H596.85V70.72H565.32V30.19Z"/><path class="cls-2" d="M965.05,295.92c0,63.62-44.48,117.67-112,117.67-69.81,0-115.42-51.23-115.42-117.67,0-54.61,28.72-84.45,64.75-100.21-25.34-10.7-51.8-47.29-51.8-87.27,0-61.36,36.6-99.08,98.53-99.08,64.18,0,102.47,35.47,102.47,99.08,0,40-25.9,76.57-51.8,87.27C935.77,211.47,965.05,241.31,965.05,295.92Zm-72.07,0c0-36.59-9.57-64.18-41.66-70.37-32.65,6.19-42.22,33.78-42.22,70.37,0,38.85,14.07,61.37,47.85,61.37C882.29,357.29,893,324.64,893,295.92ZM817,113.51c0,21.4,9,41.66,34.34,50.11,24.77-8.45,33.78-28.71,33.78-50.11,0-28.15-11.26-47.85-32.65-47.85S817,85.92,817,113.51Z"/></g></svg>