<svg xmlns="http://www.w3.org/2000/svg" viewBox="0 0 1592 410"><defs><style>.cls-1{fill:#fff;}.cls-2{fill:#7ba9f9;}</style></defs><title>HackTX_logo</title><g id="Layer_1" data-name="Layer 1"><path class="cls-1" d="M212.43,391.84H141.68V210.89H71.08v181H.33V4.84H71.08v149.6h70.6V4.84h70.75Zm-68.75-2h66.75V6.84H143.68v149.6H69.08V6.84H2.33v383H69.08V208.89h74.6Z"/><path class="cls-1" d="M498.65,391.84H427.82l-13.75-89.65H349.24L336,391.84h-67l79.61-387H419l.17.8Zm-69.11-2H496.2l-78.79-383H350.29l-78.79,383h62.81l13.2-89.65h68.28Zm-24.45-143.2H358.76l21.76-140h3.37Zm-44-2h41.67L382.2,108.81Z"/><path class="cls-1" d="M644.28,396.79c-34.45,0-62.61-9.94-81.42-28.75A82.71,82.71,0,0,1,538.78,310V87.24a83.47,83.47,0,0,1,24.08-58.53C581.64,9.86,609.79-.11,644.28-.11c40.13,0,64,15.68,77,28.83C737,44.56,745.93,65.89,745.93,87.24v31.25h-71.3V87.24c0-10.3-10.71-30.35-30.35-30.35-13.18,0-21.22,6-25.65,11-5.9,6.68-8,14.37-8,19.34v222.2c0,5,2.1,12.66,8,19.35,4.43,5,12.47,11,25.65,11,19.64,0,30.35-20.05,30.35-30.35V278.19h71.3v31.25c0,21.35-9,42.68-24.63,58.52C708.31,381.11,684.41,396.79,644.28,396.79Zm0-394.9c-33.94,0-61.61,9.76-80,28.24a81.46,81.46,0,0,0-23.49,57.11V310a80.66,80.66,0,0,0,23.49,56.63c18.43,18.43,46.1,28.17,80,28.17,39.44,0,62.88-15.35,75.6-28.23,15.28-15.48,24-36.3,24-57.12V280.19h-67.3v29.25c0,11.29-11.11,32.35-32.35,32.35-13.93,0-22.45-6.35-27.15-11.68-6.27-7.11-8.5-15.34-8.5-20.67V87.24c0-5.33,2.23-13.56,8.5-20.67,4.7-5.33,13.22-11.68,27.15-11.68,21.24,0,32.35,21.06,32.35,32.35v29.25h67.3V87.24c0-20.82-8.77-41.64-24-57.12C707.16,17.24,683.72,1.89,644.28,1.89Z"/><path class="cls-1" d="M1034.24,391.84h-81.5l-.27-.57L882.34,243.89h-2L879,247V391.84H808.27V4.84H879V141.28L946.15,4.84h67.2L919.86,178Zm-80.24-2h76.9L917.59,178l.25-.48L1010,6.84H947.4l-67.65,137.5H877V6.84H810.27v383H877V246.54l2-4.65h4.59l.28.57Z"/><path class="cls-1" d="M1200.77,391.84H1130V61.29h-70.4V4.84h212.1V61.29h-71Zm-68.75-2h66.75V59.29h71V6.84h-208.1V59.29H1132Z"/><path class="cls-1" d="M1564.29,391.84h-68.18L1440.7,266.35l-51.06,125.49h-68.76L1406,198.34,1320.88,4.84h68.74l54.87,126,51.6-126h68.2l-84.58,193.5Zm-66.87-2h63.82l-83.72-191.5.18-.4,83.54-191.1h-63.8L1444.54,136,1388.31,6.84H1324l84.26,191.5-.18.4L1324,389.84h64.34l52.34-128.61Z"/><path class="cls-2" d="M240.28,20.26v385H171.53v-181H98.93v181H30.18v-385H98.93v149.6h72.6V20.26Z"/><path class="cls-2" d="M443.77,315.62H377.22L364,405.27h-64.9l79.2-385h68.75l79.21,385H457.52Zm-11-55.56-20.9-138h-1.65L388.77,260.06Z"/><path class="cls-2" d="M704.48,131.91V101.66c0-11.55-11.55-31.35-31.35-31.35-24.2,0-34.65,19.8-34.65,31.35V323.87c0,11.55,10.45,31.35,34.65,31.35,19.8,0,31.35-19.8,31.35-31.35V293.62h69.3v30.25c0,39.05-31.35,86.35-100.65,86.35-75.9,0-104.5-47.3-104.5-85.8V101.66c0-39,28.6-86.35,104.5-86.35,69.3,0,100.65,47.3,100.65,86.35v30.25Z"/><path class="cls-2" d="M911.82,257.31h-3.3l-1.65,3.86v144.1H838.12v-385h68.75v137.5H908l67.65-137.5h64.9L947.57,192.41l113.85,212.86h-79.2Z"/><path class="cls-2" d="M1299.57,74.71h-71V405.27h-68.75V74.71h-70.4V20.26h210.1Z"/><path class="cls-2" d="M1507.46,212.76l84.15,192.51h-66l-56.1-127.06-51.7,127.06h-66.55L1436,212.76l-84.7-192.5h66.55l55.55,127.6,52.25-127.6h66Z"/></g></svg>