<svg xmlns="http://www.w3.org/2000/svg" viewBox="0 0 612 612"><defs><style>.cls-1{fill:#4a78b9;}.cls-2,.cls-3{fill:none;stroke:#fff;stroke-width:3px;}.cls-2{stroke-linejoin:round;}.cls-3{stroke-miterlimit:10;}.cls-4{fill:#ef4625;}.cls-5{fill:#fff;}</style></defs><title>what</title><g id="triangle2back"><path class="cls-1" d="M576.13,257l-6.9-56.15-22.58,16.49,3.79,30.79-10.63-4.52-3.33-1.4-15.11-6.41-23,16.77,43,18.23,3,1.29,7,3,28.45,12.07Z"/></g><g id="circlearrow2"><path class="cls-2" d="M516.57,363.34s59.89-90-14-202.36C436.19,60.1,321.67,81,321.67,81l6.57-17.22"/><line class="cls-3" x1="321.67" y1="81.03" x2="327.62" y2="96.64"/></g><g id="squarearrow2"><path class="cls-2" d="M392.63,143.28s-49.14,52.28-41.82,99.36,33.39,43,37.42,31.82-24.47-31.92-56.17-4S304,373.81,310.09,404l12-10.77"/><line class="cls-3" x1="310.09" y1="403.97" x2="295.76" y2="400.56"/></g><g id="square2back"><path class="cls-4" d="M362.8,428.71l-30.33,10.4L337.59,454a15,15,0,0,1,14.91,1.76,13.59,13.59,0,0,1,2.19,2,14.91,14.91,0,0,1-7.46,24.34l25,73,30.33-10.4Z"/></g><g id="trianglearrow2"><path class="cls-2" d="M137.93,319.2s8.09-16.95,26.85-16.95,37.75,17.55,36.68,66,5.4,129.88,69.94,138.05c72.17,9.13,91.73-59.83,126.07-150.81C427.46,276,456.34,276,456.34,276L448,267.18"/><line class="cls-2" x1="456.34" y1="276.03" x2="456.44" y2="288.75"/></g><g id="square2front"><path class="cls-4" d="M372.26,555.15l-85.71,29.39-39.79-116,85.71-29.39L337.59,454a14.92,14.92,0,0,0,9.64,28.13Z"/></g><g id="square1"><rect class="cls-4" x="440.44" y="128.07" width="4.81" height="4.81" transform="translate(224.16 537.06) rotate(-78.14)"/><path class="cls-4" d="M435.2,131.33l-4.8-1,1-4.71,4.8,1Zm-9.59-2-4.79-1,1-4.71,4.8,1Zm-9.59-2-4.8-1,1-4.7,4.8,1Zm-9.59-2-4.8-1,1-4.71,4.8,1Zm-9.59-2-4.8-1,1-4.71,4.8,1Z"/><rect class="cls-4" x="382.98" y="116" width="4.81" height="4.81" transform="translate(190.33 471.25) rotate(-78.14)"/><path class="cls-4" d="M389.25,111.76l-4.71-1,1-4.8,4.71,1Zm2-9.59-4.71-1,1-4.8,4.71,1Zm2-9.59-4.71-1,1-4.8,4.71,1Zm2-9.59-4.71-1,1-4.8,4.71,1Zm2-9.59-4.71-1,1-4.8,4.71,1Z"/><rect class="cls-4" x="395.05" y="58.55" width="4.81" height="4.81" transform="translate(256.14 437.41) rotate(-78.14)"/><path class="cls-4" d="M447.27,73.88l-4.8-1,1-4.71,4.8,1Zm-9.59-2-4.8-1,1-4.7,4.8,1Zm-9.59-2-4.8-1,1-4.71,4.8,1Zm-9.59-2-4.8-1,1-4.71,4.8,1Zm-9.59-2-4.8-1,1-4.71,4.8,1Z"/><rect class="cls-4" x="452.5" y="70.62" width="4.81" height="4.81" transform="translate(289.91 503.2) rotate(-78.13)"/><path class="cls-4" d="M446.7,123.82l-4.71-1,1-4.79,4.71,1Zm2-9.59-4.71-1,1-4.79,4.71,1Zm2-9.59-4.71-1,1-4.79,4.7,1Zm2-9.59-4.71-1,1-4.79,4.71,1Zm2-9.59-4.71-1,1-4.79,4.71,1Z"/></g><g id="circle1"><path class="cls-5" d="M482.4,452.7v-4.81a32.21,32.21,0,0,0,4.4-.32l.69,4.76A35.88,35.88,0,0,1,482.4,452.7Zm-5.08-.36a33.55,33.55,0,0,1-5-1.07l1.34-4.62a31.63,31.63,0,0,0,4.32.93Zm15.15-1.09-1.36-4.62a30.24,30.24,0,0,0,4.14-1.54l2,4.37A35.21,35.21,0,0,1,492.47,451.25Zm-24.93-1.76a35.34,35.34,0,0,1-4.48-2.44l2.6-4.05a30.89,30.89,0,0,0,3.87,2.11ZM501.72,447l-2.6-4a32.51,32.51,0,0,0,3.53-2.65L505.8,444A35.87,35.87,0,0,1,501.72,447ZM459,444a36.08,36.08,0,0,1-3.61-3.6l3.63-3.16a30.73,30.73,0,0,0,3.13,3.12Zm50.44-3.65-3.64-3.15a30.11,30.11,0,0,0,2.65-3.53l4.05,2.6A36.78,36.78,0,0,1,509.41,440.34Zm-57.11-4a34.67,34.67,0,0,1-2.46-4.47l4.37-2a30.22,30.22,0,0,0,2.13,3.86Zm62.62-4.53-4.38-2a30.24,30.24,0,0,0,1.54-4.14L516.7,427A36.55,36.55,0,0,1,514.92,431.78Zm-66.87-4.71a35.52,35.52,0,0,1-1.09-5l4.76-.69a31.2,31.2,0,0,0,.94,4.31ZM517.78,422l-4.76-.68a32.35,32.35,0,0,0,.31-4.41v-.14h4.81v.12A36.16,36.16,0,0,1,517.78,422Zm-70.19-5h-1a35.15,35.15,0,0,1,.35-5.06l4.76.67a31.44,31.44,0,0,0-.3,4.34ZM513,412.39a29.83,29.83,0,0,0-1-4.31l4.61-1.37a36.55,36.55,0,0,1,1.1,5Zm-60.37-4.13L448,406.92a35.75,35.75,0,0,1,1.77-4.79l4.38,2A30.69,30.69,0,0,0,452.63,408.26ZM510.49,404a31.5,31.5,0,0,0-2.13-3.86l4-2.62a34.62,34.62,0,0,1,2.47,4.46Zm-54.22-3.71-4-2.59a35.9,35.9,0,0,1,3-4.09l3.64,3.14A30.42,30.42,0,0,0,456.27,400.24Zm49.43-3.68a32.92,32.92,0,0,0-3.14-3.11l3.14-3.65a37.27,37.27,0,0,1,3.62,3.6Zm-43.67-3-3.16-3.63a36.75,36.75,0,0,1,4.07-3.07l2.62,4A30.47,30.47,0,0,0,462,393.57Zm37-2.76a32.37,32.37,0,0,0-3.88-2.11l2-4.38a34.78,34.78,0,0,1,4.49,2.44Zm-29.6-2-2-4.37a36.64,36.64,0,0,1,4.78-1.8l1.36,4.62A31.17,31.17,0,0,0,469.42,388.78ZM491,387.17a33.38,33.38,0,0,0-4.31-.92l.66-4.76a35.43,35.43,0,0,1,5,1.06Zm-13.13-.89-.69-4.76a35.85,35.85,0,0,1,5.08-.37l0,4.81A30.83,30.83,0,0,0,477.86,386.28Z"/></g><g id="circle2"><circle class="cls-5" cx="182.63" cy="154.06" r="103.74"/></g><g id="circle21"><path class="cls-4" d="M156.53,242.64a107.59,107.59,0,1,1,107.6-107.59A107.71,107.71,0,0,1,156.53,242.64Zm0-207.48a99.89,99.89,0,1,0,99.9,99.89A100,100,0,0,0,156.53,35.16Z"/></g><g id="triangle2front"><polygon class="cls-1" points="569.24 200.82 546.65 217.31 544.4 199.01 529.08 210.57 526.7 212.37 504.92 228.78 521.38 235.77 498.39 252.54 456.44 234.74 563.49 154.06 569.24 200.82"/></g><g id="triangle1"><polygon class="cls-1" points="101.55 336.94 100.17 335.84 98.43 335.58 99.42 329.08 104.55 333.18 103.45 334.56 103.19 336.3 102.19 336.15 101.55 336.94"/><path class="cls-1" d="M94,396.92l-4.76-.72.77-5.05,4.76.72Zm1.53-10.1-4.75-.72.76-5.06,4.76.73Zm1.54-10.11L92.3,376l.77-5.05,4.75.72Zm1.53-10.1-4.76-.72.77-5.05,4.76.72Zm1.53-10.1-4.75-.73.76-5,4.76.72Zm1.54-10.11-4.76-.72.77-5.05,4.75.72Z"/><polygon class="cls-1" points="87.48 407.75 88.47 401.25 90.21 401.51 91.85 400.87 92.22 401.82 93.22 401.97 92.96 403.71 93.6 405.35 87.48 407.75"/><path class="cls-1" d="M98.36,403.49,96.61,399l4.75-1.86,1.76,4.48Zm9.52-3.72-1.76-4.48,4.76-1.86,1.75,4.48Zm9.51-3.73-1.75-4.48,4.76-1.86,1.75,4.48Zm9.52-3.72-1.75-4.48,4.75-1.86,1.76,4.48Zm9.51-3.72-1.75-4.48,4.76-1.87,1.75,4.49Zm9.52-3.73-1.75-4.48,4.76-1.86L150.7,383Z"/><polygon class="cls-1" points="155.46 381.15 154.82 379.51 153.44 378.41 154.08 377.62 153.71 376.67 155.35 376.03 156.44 374.65 161.58 378.75 155.46 381.15"/><path class="cls-1" d="M149.45,375.22l-4-3.19,3-3.76,4,3.19Zm-8-6.38-4-3.19,3-3.76,4,3.19Zm-8-6.38-4-3.19,3-3.76,4,3.19Zm-8-6.38-4-3.19,3-3.76,4,3.19Zm-8-6.38-4-3.19,3-3.76,4,3.19Zm-8-6.38-4-3.19,3-3.76,4,3.19Z"/></g></svg>