<svg xmlns="http://www.w3.org/2000/svg" viewBox="0 0 612 612"><defs><style>.cls-1{fill:#4b79ba;}.cls-2{fill:#fff;}.cls-3{fill:#ef4625;}</style></defs><title>who</title><g id="triangle"><polygon class="cls-1" points="117.72 226 42.7 355.95 192.75 355.95 117.72 226"/></g><g id="triangledash"><polygon class="cls-2" points="157.14 257.87 156.72 257.63 156.31 257.87 155.89 257.15 152.81 255.37 156.72 248.59 160.64 255.37 157.55 257.15 157.14 257.87"/><path class="cls-2" d="M89,375.85l-4.33-2.5,3.41-5.9,4.33,2.5Zm6.81-11.8-4.33-2.5,3.41-5.89,4.33,2.5Zm6.81-11.79-4.33-2.5,3.41-5.9,4.33,2.5Zm6.82-11.8-4.33-2.5,3.4-5.9,4.33,2.5Zm6.81-11.8-4.33-2.5,3.4-5.9,4.33,2.5Zm6.81-11.8-4.33-2.5,3.41-5.9,4.33,2.5Zm6.81-11.8-4.33-2.5,3.41-5.9,4.33,2.5Zm6.81-11.8-4.33-2.5,3.41-5.9,4.33,2.5Zm6.82-11.8-4.33-2.5,3.4-5.89,4.33,2.5Zm6.81-11.79-4.33-2.5,3.4-5.9,4.33,2.5Z"/><polygon class="cls-2" points="85.2 386.03 77.37 386.03 81.28 379.25 84.37 381.03 85.2 381.03 85.2 381.51 85.61 381.75 85.2 382.47 85.2 386.03"/><path class="cls-2" d="M221.44,386h-6.81v-5h6.81Zm-13.63,0H201v-5h6.81Zm-13.62,0h-6.81v-5h6.81Zm-13.62,0h-6.82v-5h6.82Zm-13.63,0h-6.81v-5h6.81Zm-13.62,0h-6.81v-5h6.81Zm-13.63,0h-6.81v-5h6.81Zm-13.62,0h-6.81v-5h6.81Zm-13.62,0h-6.82v-5h6.82Zm-13.63,0H92v-5h6.81Z"/><polygon class="cls-2" points="236.08 386.03 228.25 386.03 228.25 382.47 227.84 381.75 228.25 381.51 228.25 381.03 229.08 381.03 232.16 379.25 236.08 386.03"/><path class="cls-2" d="M224.43,375.85,221,370l4.33-2.5,3.41,5.9Zm-6.81-11.8-3.41-5.89,4.33-2.5,3.41,5.89Zm-6.82-11.79-3.4-5.9,4.33-2.5,3.4,5.9ZM204,340.46l-3.4-5.9,4.33-2.5,3.4,5.9Zm-6.81-11.8-3.41-5.9,4.33-2.5,3.41,5.9Zm-6.81-11.8L187,311l4.33-2.5,3.41,5.9Zm-6.81-11.8-3.41-5.9,4.33-2.5,3.41,5.9Zm-6.81-11.8-3.41-5.9,4.33-2.5,3.41,5.9Zm-6.82-11.8-3.4-5.9,4.33-2.5,3.4,5.9Zm-6.81-11.79-3.4-5.9,4.33-2.5,3.4,5.9Z"/></g><g id="circle"><circle class="cls-2" cx="298.48" cy="290.02" r="64.02"/></g><g id="circledash"><path class="cls-3" d="M319.71,386c-1.53,0-3.06,0-4.57-.15l.34-5a62.78,62.78,0,0,0,6.72.09l.2,5C321.51,386,320.61,386,319.71,386Zm9.92-.73-.74-4.95a60.9,60.9,0,0,0,6.58-1.35l1.28,4.83A66.1,66.1,0,0,1,329.63,385.3ZM307.92,385a63.13,63.13,0,0,1-7.07-1.67l1.42-4.79a59.77,59.77,0,0,0,6.54,1.54Zm35.75-3.4-1.8-4.67a60,60,0,0,0,6.12-2.76l2.31,4.44A67.89,67.89,0,0,1,343.67,381.59ZM294,380.88a65.67,65.67,0,0,1-6.54-3.17l2.43-4.37a62.23,62.23,0,0,0,6,2.93Zm62.55-6-2.77-4.17a60.19,60.19,0,0,0,5.38-4l3.21,3.83A64.86,64.86,0,0,1,356.55,374.91Zm-75.24-1.07a68.92,68.92,0,0,1-5.7-4.52l3.32-3.74a60.79,60.79,0,0,0,5.27,4.18Zm86.37-8.25-3.6-3.46a64.2,64.2,0,0,0,4.38-5.09l4,3A67,67,0,0,1,367.68,365.59Zm-97.24-1.38a68.6,68.6,0,0,1-4.58-5.63l4-2.94a62.3,62.3,0,0,0,4.25,5.21Zm106.1-10.11-4.27-2.61a61.11,61.11,0,0,0,3.18-5.92l4.53,2.12A66.84,66.84,0,0,1,376.54,354.1Zm-114.63-1.63a66.61,66.61,0,0,1-3.25-6.49l4.59-2a60,60,0,0,0,3,6ZM382.7,341,378,339.34a61.06,61.06,0,0,0,1.81-6.48l4.89,1.08A70.69,70.69,0,0,1,382.7,341Zm-126.56-1.79a63.32,63.32,0,0,1-1.76-7.06l4.91-.93a63.16,63.16,0,0,0,1.62,6.51Zm129.69-12.39-5-.54a62.71,62.71,0,0,0,.36-6.71h5A67.59,67.59,0,0,1,385.83,326.77ZM253.4,324.9c-.14-1.78-.21-3.59-.21-5.38,0-.63,0-1.25,0-1.88l5,.14c0,.58,0,1.16,0,1.74,0,1.66.07,3.34.2,5Zm127.74-8.64a62.18,62.18,0,0,0-.72-6.69l4.94-.8a64.67,64.67,0,0,1,.77,7.23Zm-122.38-5.18-4.95-.68a66.63,66.63,0,0,1,1.38-7.14l4.85,1.22A64.59,64.59,0,0,0,258.76,311.08ZM379,303a61.8,61.8,0,0,0-2.16-6.36l4.64-1.86a64,64,0,0,1,2.33,6.88Zm-117-4.95-4.68-1.74a65.4,65.4,0,0,1,2.9-6.66l4.47,2.24A61.07,61.07,0,0,0,262,298.06Zm112-7.5a63.3,63.3,0,0,0-3.49-5.75l4.12-2.82a65.48,65.48,0,0,1,3.78,6.21Zm-105.93-4.49-4.2-2.72a68.8,68.8,0,0,1,4.28-5.87l3.88,3.16A59.75,59.75,0,0,0,268.07,286.07Zm98.35-6.59a62.79,62.79,0,0,0-4.65-4.86l3.42-3.65a65.65,65.65,0,0,1,5,5.26Zm-89.86-3.81-3.51-3.56a63.74,63.74,0,0,1,5.45-4.81l3.1,3.92A60.72,60.72,0,0,0,276.56,275.67Zm80.06-5.37a59.15,59.15,0,0,0-5.59-3.74l2.55-4.3a67.56,67.56,0,0,1,6,4Zm-69.53-2.95-2.66-4.24a68,68,0,0,1,6.36-3.52L293,264.1A60.09,60.09,0,0,0,287.09,267.35Zm58-3.9A60.19,60.19,0,0,0,338.8,261l1.55-4.75a65.52,65.52,0,0,1,6.78,2.63Zm-45.9-1.94-1.67-4.72a68,68,0,0,1,7-2l1.14,4.87A59.61,59.61,0,0,0,299.17,261.51Zm33.14-2.22a61.65,61.65,0,0,0-6.65-1l.48-5a66.66,66.66,0,0,1,7.19,1.08Zm-20.07-.84-.6-5a67,67,0,0,1,7.24-.48l.07,5A62.3,62.3,0,0,0,312.24,258.45Z"/></g><g id="square"><rect class="cls-3" x="415.46" y="226" width="127.54" height="127.54"/></g><g id="squaredash"><polygon class="cls-1" points="569.5 386.03 563.5 386.03 563.5 381.03 564.5 381.03 564.5 380.03 569.5 380.03 569.5 386.03"/><path class="cls-1" d="M556.41,386h-7.09v-5h7.09Zm-14.18,0h-7.09v-5h7.09Zm-14.18,0H521v-5h7.09Zm-14.18,0h-7.1v-5h7.1Zm-14.19,0h-7.09v-5h7.09Zm-14.18,0h-7.09v-5h7.09Zm-14.18,0h-7.09v-5h7.09Zm-14.18,0h-7.09v-5h7.09Z"/><polygon class="cls-1" points="442.96 386.03 436.96 386.03 436.96 380.03 441.96 380.03 441.96 381.03 442.96 381.03 442.96 386.03"/><path class="cls-1" d="M442,372.94h-5v-7.09h5Zm0-14.18h-5v-7.09h5Zm0-14.18h-5v-7.09h5Zm0-14.18h-5v-7.09h5Zm0-14.18h-5v-7.09h5ZM442,302h-5V295h5Zm0-14.19h-5v-7.09h5Zm0-14.18h-5v-7.09h5Z"/><polygon class="cls-1" points="441.96 259.49 436.96 259.49 436.96 253.49 442.96 253.49 442.96 258.49 441.96 258.49 441.96 259.49"/><path class="cls-1" d="M556.41,258.49h-7.09v-5h7.09Zm-14.18,0h-7.09v-5h7.09Zm-14.18,0H521v-5h7.09Zm-14.18,0h-7.1v-5h7.1Zm-14.19,0h-7.09v-5h7.09Zm-14.18,0h-7.09v-5h7.09Zm-14.18,0h-7.09v-5h7.09Zm-14.18,0h-7.09v-5h7.09Z"/><polygon class="cls-1" points="569.5 259.49 564.5 259.49 564.5 258.49 563.5 258.49 563.5 253.49 569.5 253.49 569.5 259.49"/><path class="cls-1" d="M569.5,372.94h-5v-7.09h5Zm0-14.18h-5v-7.09h5Zm0-14.18h-5v-7.09h5Zm0-14.18h-5v-7.09h5Zm0-14.18h-5v-7.09h5Zm0-14.18h-5V295h5Zm0-14.18h-5v-7.1h5Zm0-14.19h-5v-7.09h5Z"/></g></svg>