<svg xmlns="http://www.w3.org/2000/svg" xmlns:xlink="http://www.w3.org/1999/xlink" viewBox="0 0 300.44 76.46"><defs><style>.cls-1{fill:#fff;}.cls-2{fill:url(#linear-gradient);}</style><linearGradient id="linear-gradient" x1="-452.65" y1="116.3" x2="-452.65" y2="116.57" gradientTransform="matrix(68.23, 0, 0, -259.72, 30907.81, 30272.71)" gradientUnits="userSpaceOnUse"><stop offset="0" stop-color="#fff" stop-opacity="0"/><stop offset="1" stop-color="#222" stop-opacity="0.4"/></linearGradient></defs><title>logo-white-cmyk</title><g id="Layer_2" data-name="Layer 2"><g id="Layer_1-2" data-name="Layer 1"><path class="cls-1" d="M295.89,61.05a4.55,4.55,0,1,1,4.55-4.61A4.5,4.5,0,0,1,295.89,61.05Zm0-8.69A4.14,4.14,0,1,0,300,56.51,4.07,4.07,0,0,0,295.91,52.36Zm1.11,7-1.18-2.54h-.94v2.54h-.69V53.62h1.7c1.26,0,1.79.57,1.79,1.62a1.4,1.4,0,0,1-1.14,1.53l1.21,2.61Zm-2.12-3.14h1c.81,0,1.12-.28,1.12-1s-.3-1-1.21-1h-.9Z"/><path class="cls-1" d="M228.17,56.9c1.23,1,3.69,1.39,5.86,1.39a11.4,11.4,0,0,0,8.26-2.95c2.76-2.49,4.63-6.32,4.63-12.4,0-5.85-2.22-10.6-6.79-13.39-2.58-1.62-5.92-2.25-9.73-2.25a8.07,8.07,0,0,0-2.87.34,1.52,1.52,0,0,0-.53.81c-.12,1.05-.12,9-.12,13.68s0,11.53.12,12.34a3.57,3.57,0,0,0,1.17,2.43M216.48,24.69c1,0,4.78.17,6.54.17,3.28,0,5.56-.17,11.72-.17,5.15,0,9.49,1.39,12.59,4A16.88,16.88,0,0,1,253.08,42c0,7.82-3.58,12.34-7.15,14.89s-8.21,4.17-14.83,4.17c-3.51,0-9.55-.11-14.59-.17h-.07c-.23-.46.43-2.27.85-2.32a7.47,7.47,0,0,0,2.36-.46c1.06-.44,1.32-1,1.43-2.9.18-3.59.12-7.88.12-12.74,0-3.48.06-10.26-.06-12.4-.17-1.8-.93-2.26-2.46-2.61A32.74,32.74,0,0,0,215.4,27c-.12-.35.78-1.91,1.08-2.26"/><path class="cls-1" d="M267.61,27.63c-.23.06-.52.64-.52.93-.06,2.08-.12,7.53-.12,11.29a.38.38,0,0,0,.29.29c.77.06,2.64.12,4.22.12a10,10,0,0,0,4.22-.64,5.44,5.44,0,0,0,2.75-5.15c0-5-3.51-7-8.73-7a15.18,15.18,0,0,0-2.11.12m13.31,23.18c0-5.1-3.75-8-10.61-8a25.81,25.81,0,0,0-3,.06c-.17.06-.35.17-.35.29,0,3.65-.06,9.5.12,11.82a3.89,3.89,0,0,0,1.7,2.78,11.75,11.75,0,0,0,4.51.64c4,0,7.62-2.26,7.62-7.59M257,24.79c.53,0,2.09.17,6.07.17,3.75,0,6.8-.11,10.43-.11,4.51,0,10.73,1.62,10.73,8.34,0,3.3-2.35,6-5.39,7.24-.18.06-.18.18,0,.24,4.33,1.1,8.14,3.76,8.14,8.86s-3.11,8.11-7.62,10.08a24.18,24.18,0,0,1-9.61,1.62c-2.63,0-9.7-.29-13.63-.23-.41-.17.38-2,.73-2.31a11.13,11.13,0,0,0,2.66-.42c1.4-.35,1.57-.8,1.75-2.89.11-1.79.11-8.22.11-12.8,0-6.26.06-10.49,0-12.58-.06-1.62-.64-2.14-1.75-2.43-.88-.17-2.35-.35-3.52-.52-.29-.29.61-2,.9-2.26"/><path class="cls-1" d="M46.87,61.05a2.52,2.52,0,0,1-.18-1.17,1.41,1.41,0,0,1,.18-.78,22.43,22.43,0,0,0,2.25-.46c1-.26,1.42-.82,1.48-2.15.17-3.12.18-9,.12-13.1v-.12a1.64,1.64,0,0,0-.54-1.48,11.77,11.77,0,0,0-3.11-1.36c-.49-.15-.76-.4-.75-.71s.33-.66,1-.78a36.71,36.71,0,0,0,7.89-2,1.17,1.17,0,0,1,.23.83c0,.18,0,.38,0,.57,0,.59-.11,1.25-.11,1.9a.43.43,0,0,0,.44.38.41.41,0,0,0,.3-.13c3.32-2.6,6.3-3.53,7.83-3.53,2.52,0,4.48,1.2,6,3.67a.42.42,0,0,0,.34.2.37.37,0,0,0,.32-.17c3.06-2.32,6.09-3.7,8.12-3.7,4.8,0,7.66,3.59,7.66,9.6,0,1.73,0,3.92,0,6,0,1.8,0,3.48,0,4.64a1.59,1.59,0,0,0,1,1.22,12.2,12.2,0,0,0,3,.74h0a4.49,4.49,0,0,1-.3,2c-.32,0-.76,0-1.31,0-1-.06-2.36-.12-4-.12-3.18,0-4.85.06-6.44.16a4.94,4.94,0,0,1,0-1.95,17.85,17.85,0,0,0,2-.45c1-.34,1.31-.8,1.36-2.15,0-1,.21-9.39-.11-11.39a5.1,5.1,0,0,0-5.29-4.5,9.27,9.27,0,0,0-5.27,2,.8.8,0,0,0-.19.5v0a21.6,21.6,0,0,1,.23,4.25c0,1.09,0,2.24,0,3.39,0,2.32,0,4.52,0,6.17a1.56,1.56,0,0,0,1.23,1.62l.78.18c.46.11.93.23,1.64.34a3.27,3.27,0,0,1,0,1.46,1.25,1.25,0,0,1-.2.5c-1.78-.06-3.59-.12-6.22-.12-.79,0-2.09,0-3.24.07-.93,0-1.81,0-2.31,0a2.37,2.37,0,0,1-.17-1,1.84,1.84,0,0,1,.18-.95l.71-.12c.61-.11,1.14-.21,1.65-.33.87-.27,1.2-.75,1.26-1.85.17-2.58.3-10-.06-11.87-.62-3-2.32-4.5-5-4.5a9.47,9.47,0,0,0-5.27,2,1.58,1.58,0,0,0-.49,1.19v3.07c0,3.73,0,8.37.06,10.38a1.65,1.65,0,0,0,1.44,1.63c.25.07.69.14,1.2.23l.95.16a4.17,4.17,0,0,1-.16,2c-.51,0-1.14,0-1.85-.07-1.1,0-2.47-.1-4-.1-1.84,0-3.11.06-4.14.1-.68,0-1.28.07-1.87.07"/><path class="cls-1" d="M105.68,39.38a5,5,0,0,0-2.8.79c-2,1.23-3.07,3.7-3.07,7.33,0,6.8,3.4,11.55,8.28,11.55a5.2,5.2,0,0,0,3.58-1.26c1.5-1.23,2.29-3.72,2.29-7.21,0-6.7-3.33-11.2-8.28-11.2m.94,22.19c-8.8,0-11.94-6.46-11.94-12.5a11.19,11.19,0,0,1,5.13-9.81,15.67,15.67,0,0,1,7.93-2.34c6.71,0,11.41,4.83,11.41,11.74,0,4.71-1.88,8.42-5.43,10.74a15.34,15.34,0,0,1-7.1,2.17"/><path class="cls-1" d="M195.31,39.38a5,5,0,0,0-2.8.79c-2,1.23-3.07,3.7-3.07,7.33,0,6.8,3.4,11.55,8.28,11.55a5.18,5.18,0,0,0,3.58-1.27c1.5-1.22,2.29-3.71,2.29-7.2,0-6.7-3.33-11.2-8.28-11.2m.94,22.19c-8.8,0-11.94-6.46-11.94-12.5a11.19,11.19,0,0,1,5.13-9.81,15.6,15.6,0,0,1,7.92-2.34c6.72,0,11.42,4.83,11.42,11.74,0,4.71-1.88,8.42-5.43,10.74a15.34,15.34,0,0,1-7.1,2.17"/><path class="cls-1" d="M165.67,39.15c-2.71,0-4.46,2.14-4.46,5.46s1.51,7.25,5.75,7.25a4.13,4.13,0,0,0,2.71-1,6.75,6.75,0,0,0,1.63-4.76c0-4.33-2.1-6.91-5.63-6.91M165.32,62a4.43,4.43,0,0,0-2.2.55C161,64,160,65.33,160,66.91a4.64,4.64,0,0,0,1.82,3.74,9.24,9.24,0,0,0,6.22,1.9c5.26,0,7.62-2.83,7.62-5.64a4,4,0,0,0-3-4,23.44,23.44,0,0,0-7.33-.89m.35,13.45a11.36,11.36,0,0,1-7.38-2.17,6.91,6.91,0,0,1-2.74-5.12,4,4,0,0,1,1-2.61,28.14,28.14,0,0,1,4.77-3.82.23.23,0,0,0,.15-.23.23.23,0,0,0-.18-.24A5,5,0,0,1,158,58a1.3,1.3,0,0,1,0-.13.75.75,0,0,1,.31-.94c.34-.25.88-.57,1.46-.91a18.64,18.64,0,0,0,2.36-1.54.37.37,0,0,0,.1-.32.39.39,0,0,0-.2-.28c-3.59-1.2-5.4-3.87-5.4-7.94a7.91,7.91,0,0,1,3.32-6.51,15.14,15.14,0,0,1,7.42-2.52h.14a15.11,15.11,0,0,1,5.67,1.26,9,9,0,0,0,3.35.53,4.52,4.52,0,0,0,3.62-1.36,2.74,2.74,0,0,1,.19,1,3.83,3.83,0,0,1-.65,2.38,2.92,2.92,0,0,1-2.25,1h-.26a6.4,6.4,0,0,1-1.36-.23l-.23.08c-.07.11,0,.22,0,.37a.94.94,0,0,0,0,.09,15.92,15.92,0,0,1,.33,2.22c0,4.26-1.69,6.12-3.51,7.5a11.91,11.91,0,0,1-6,2.34h0l-.7,0-.69.06h-.05c-.4.11-1.43.6-1.43,1.51s.47,1.7,2.7,1.87l1.44.1c2.94.21,6.61.46,8.34,1a5.78,5.78,0,0,1,3.86,5.56c0,3.82-2.72,7.42-7.28,9.62a15.8,15.8,0,0,1-6.88,1.55"/><path class="cls-1" d="M152.22,59a10.67,10.67,0,0,1-3.34-.87,1.53,1.53,0,0,1-.41-.81c-.12-1.8-.12-7-.12-10.43A12.5,12.5,0,0,0,146.71,40a7.07,7.07,0,0,0-6-3.13c-2.28,0-5.33,1.56-7.85,3.71-.06,0-.45.42-.44-.15s.1-1.73.15-2.46a1.23,1.23,0,0,0-.38-1.07,35.62,35.62,0,0,1-8,2.08c-1.25.24-1.56,1.44-.23,1.86h0a11.37,11.37,0,0,1,3,1.33,1.57,1.57,0,0,1,.47,1.45c.06,3.88.06,9.85-.12,13.09-.05,1.28-.41,1.74-1.34,2l.08,0A17.56,17.56,0,0,1,124,59a3.2,3.2,0,0,0,0,2.32c.59,0,3.58-.18,6-.18,3.4,0,5.15.18,6,.18a3.23,3.23,0,0,0,.24-2.32,12.82,12.82,0,0,1-2.4-.35c-.94-.23-1.18-.69-1.23-1.74-.12-2.72-.12-8.51-.12-12.45a2.29,2.29,0,0,1,.64-1.92A7.74,7.74,0,0,1,138,40.82,5.28,5.28,0,0,1,141.55,42a4.9,4.9,0,0,1,1.64,3.25c.24,2.2.18,6.6.18,10.43,0,2.08-.18,2.6-.94,2.84A9.87,9.87,0,0,1,140,59a3.15,3.15,0,0,0,0,2.32c1.52,0,3.28-.18,5.86-.18,3.22,0,5.27.18,6.09.18a3.26,3.26,0,0,0,.24-2.32"/><g id="Colors"><g id="Corp-Colors-_Primary_" data-name="Corp-Colors-(Primary)"><g id="Group-5"><g id="Group-4"><g id="MongoDB-Leaf-Copy-2"><path id="Shape" class="cls-1" d="M17.37,57.33c-.4,5-1,8.71-1.53,10,0,0,.62,4.44,1.05,9.14h1.53a90.56,90.56,0,0,1,1.63-9.78C18,65.75,17.46,61.39,17.37,57.33Z"/><path id="Shape-2" data-name="Shape" class="cls-1" d="M33.72,30.44c-4-17.78-13.55-23.62-14.57-25.85A27.41,27.41,0,0,1,16.89.21L16.81,0a4.74,4.74,0,0,1-1.67,3.77C12.84,5.58,1,15.5,0,35.7c-.9,18.83,13.61,30.05,15.57,31.49l.22.15c.57-1.28,1.13-5,1.53-10,.09,4.06.67,8.42,2.69,9.34l.12-.08a24.46,24.46,0,0,0,2.5-2C27.58,60,36.86,48.8,33.72,30.44Z"/><path id="Shape-3" data-name="Shape" class="cls-2" d="M33.72,30.44c-4-17.78-13.55-23.62-14.57-25.85A27.41,27.41,0,0,1,16.89.21c1,3.72.79,33.45.9,37a191.78,191.78,0,0,1-.43,20.12c.09,4.06.67,8.42,2.68,9.35l.12-.08a27.37,27.37,0,0,0,2.51-2l.09-.08C27.58,60,36.86,48.8,33.72,30.44Z"/></g></g></g></g></g></g></g></svg>