<?xml version="1.0" encoding="UTF-8" standalone="no"?>
<!-- Created with Inkscape (http://www.inkscape.org/) -->
<svg id="svg4136" xmlns:rdf="http://www.w3.org/1999/02/22-rdf-syntax-ns#" xmlns="http://www.w3.org/2000/svg" xml:space="preserve" height="184.52" viewBox="0 0 860.69525 184.52254" width="860.7" version="1.1" xmlns:cc="http://creativecommons.org/ns#" xmlns:dc="http://purl.org/dc/elements/1.1/"><metadata id="metadata4142"><rdf:RDF><cc:Work rdf:about=""><dc:format>image/svg+xml</dc:format><dc:type rdf:resource="http://purl.org/dc/dcmitype/StillImage"/><dc:title/></cc:Work></rdf:RDF></metadata><defs id="defs4140"><clipPath id="clipPath4152" clipPathUnits="userSpaceOnUse"><path id="path4154" d="m575.35 115.81h113.21v-83.992h-113.21v83.992z"/></clipPath><clipPath id="clipPath4162" clipPathUnits="userSpaceOnUse"><path id="path4164" d="m575 33h114v84h-114v-84z"/></clipPath><clipPath id="clipPath4242" clipPathUnits="userSpaceOnUse"><path id="path4244" d="m508 0h3v148h-3v-148z"/></clipPath></defs><g id="g4144" transform="matrix(1.25 0 0 -1.25 0 184.52)"><g id="g4148"><g id="g4150" clip-path="url(#clipPath4152)"><g id="g4156" transform="translate(0 -.38197)"><g id="g4158"><g id="g4160" clip-path="url(#clipPath4162)"><g id="g4166" fill="#fff"><path id="path4168" d="m611.37 115.69c0.774-0.333 1.438-0.774 1.996-1.317 0.555-0.543 1.004-1.191 1.348-1.941 0.344-0.758 0.512-1.555 0.512-2.395v-30.621c0-0.281-0.098-0.516-0.297-0.707-0.196-0.195-0.438-0.289-0.727-0.289h-7.5c-0.289 0-0.523 0.094-0.703 0.289-0.18 0.191-0.269 0.426-0.269 0.707v27.836h-6.043v-27.836c0-0.281-0.09-0.516-0.27-0.707-0.18-0.195-0.414-0.289-0.703-0.289h-6.797c-0.289 0-0.531 0.094-0.726 0.289-0.2 0.191-0.301 0.426-0.301 0.707v27.836h-6.043v-27.836c0-0.664-0.34-0.996-1.024-0.996h-7.445c-0.687 0-1.027 0.332-1.027 0.996v35.774c0 0.664 0.34 1 1.027 1h32.535c0.863 0 1.68-0.168 2.457-0.5"/><path id="path4170" d="m611.37 115.69c0.774-0.333 1.438-0.774 1.996-1.317 0.555-0.543 1.004-1.191 1.348-1.941 0.344-0.758 0.512-1.555 0.512-2.395v-2.73l-9.496-0.055h-20.883l-9.496 0.055v7.883c0 0.664 0.34 1 1.027 1h32.535c0.863 0 1.68-0.168 2.457-0.5"/><path id="path4172" d="m647.93 87.586c0.304 0 0.55-0.102 0.742-0.297 0.187-0.199 0.285-0.441 0.285-0.73v-7.121c0-0.29-0.098-0.532-0.285-0.731-0.192-0.195-0.438-0.297-0.742-0.297h-25.692c-0.722 0-1.086 0.344-1.086 1.028v35.722c0 0.684 0.364 1.028 1.086 1.028h7.891c0.723 0 1.086-0.344 1.086-1.028v-26.605c0-0.285 0.101-0.52 0.312-0.7 0.211-0.179 0.469-0.269 0.774-0.269h15.629z"/><path id="path4174" d="m631.13 78.41h-8.899c-0.722 0-1.082 0.344-1.082 1.028v35.722c0 0.684 0.36 1.028 1.082 1.028h7.871c0.723 0 1.086-0.344 1.086-1.028v-26.605c0-0.285-0.058-10.145-0.058-10.145"/><path id="path4176" d="m687.41 116.19c0.305 0 0.563-0.102 0.774-0.297 0.21-0.2 0.316-0.446 0.316-0.731v-35.828c0-0.289-0.106-0.531-0.316-0.73-0.211-0.2-0.469-0.297-0.774-0.297h-7.992c-0.309 0-0.567 0.097-0.777 0.297-0.211 0.199-0.313 0.441-0.313 0.73v12.5c0 0.289-0.098 0.523-0.289 0.707-0.191 0.18-0.441 0.27-0.75 0.27h-11.207c-0.305 0-0.566-0.09-0.774-0.27-0.21-0.184-0.316-0.418-0.316-0.707v-12.5c0-0.684-0.367-1.027-1.094-1.027h-7.933c-0.727 0-1.09 0.343-1.09 1.027v35.828c0 0.684 0.363 1.028 1.09 1.028h7.933c0.727 0 1.094-0.344 1.094-1.028v-12.125c0-0.683 0.363-1.027 1.09-1.027h11.207c0.309 0 0.559 0.097 0.75 0.297 0.191 0.199 0.289 0.441 0.289 0.73v12.125c0 0.285 0.102 0.531 0.313 0.731 0.21 0.195 0.468 0.297 0.777 0.297h7.992z"/><path id="path4178" d="m665 91.832v-12.5c0-0.684-0.367-1.027-1.094-1.027h-7.933c-0.727 0-1.09 0.343-1.09 1.027v35.824c0 0.688 0.363 1.032 1.09 1.032h7.933c0.727 0 1.094-0.344 1.094-1.032v-23.324z"/><path id="path4180" d="m687.41 116.19c0.305 0 0.563-0.102 0.774-0.297 0.21-0.2 0.316-0.446 0.316-0.731v-35.828c0-0.289-0.106-0.531-0.316-0.73-0.211-0.2-0.469-0.297-0.774-0.297h-7.992c-0.309 0-0.567 0.097-0.777 0.297-0.211 0.199-0.313 0.441-0.313 0.73v35.828c0 0.285 0.102 0.531 0.313 0.731 0.21 0.195 0.468 0.297 0.777 0.297h7.992z"/><path id="path4182" d="m610.15 70.301h0.731c0.598 0 1.027 0.097 1.293 0.297 0.269 0.195 0.402 0.515 0.402 0.957 0 0.41-0.129 0.715-0.379 0.91-0.25 0.199-0.64 0.297-1.168 0.297h-0.879v-2.461zm2.825 1.269c0-0.511-0.176-0.906-0.524-1.179-0.347-0.274-0.84-0.411-1.48-0.411h-0.821v-2.191h-0.371v5.309h1.301c1.262 0 1.895-0.512 1.895-1.528"/><path id="path4184" d="m614.25 70.449c0-0.758 0.168-1.347 0.508-1.761 0.34-0.418 0.824-0.622 1.461-0.622s1.125 0.204 1.465 0.614c0.336 0.414 0.504 1.004 0.504 1.769 0 0.766-0.168 1.352-0.504 1.758-0.34 0.41-0.825 0.613-1.457 0.613-0.633 0-1.121-0.207-1.465-0.617-0.34-0.41-0.512-0.996-0.512-1.754m4.34 0c0-0.844-0.207-1.508-0.629-2-0.422-0.488-1.004-0.734-1.742-0.734s-1.32 0.246-1.738 0.734c-0.422 0.492-0.633 1.16-0.633 2.008 0 0.844 0.211 1.508 0.636 1.992 0.426 0.489 1.004 0.731 1.743 0.731 0.738 0 1.32-0.246 1.738-0.735 0.418-0.484 0.625-1.152 0.625-1.996"/><path id="path4186" d="m624.04 67.789h-0.305l-1.164 4.094c-0.097 0.336-0.168 0.613-0.218 0.828-0.039-0.211-0.094-0.453-0.164-0.727-0.071-0.273-0.461-1.672-1.172-4.195h-0.313l-1.457 5.305h0.387l0.93-3.418c0.035-0.137 0.07-0.266 0.101-0.383s0.059-0.227 0.086-0.332c0.024-0.102 0.047-0.199 0.07-0.297 0.02-0.094 0.039-0.191 0.055-0.289 0.059 0.332 0.18 0.832 0.371 1.5l0.906 3.219h0.411l1.062-3.692c0.125-0.429 0.215-0.773 0.266-1.035 0.031 0.176 0.074 0.36 0.121 0.559 0.051 0.195 0.426 1.586 1.121 4.168h0.375l-1.469-5.305z"/><path id="path4188" d="m629.34 67.789h-2.899v5.305h2.899v-0.34h-2.531v-2.008h2.39v-0.34h-2.39v-2.277h2.531v-0.34z"/><path id="path4190" d="m630.91 70.422h1.016c0.445 0 0.793 0.098 1.039 0.297s0.371 0.496 0.371 0.883c0 0.406-0.121 0.699-0.363 0.882-0.243 0.184-0.637 0.278-1.184 0.278h-0.879v-2.34zm0-0.32v-2.313h-0.367v5.305h1.262c0.66 0 1.144-0.121 1.461-0.364 0.312-0.242 0.468-0.609 0.468-1.097 0-0.356-0.093-0.656-0.281-0.899-0.187-0.246-0.473-0.422-0.851-0.527l1.437-2.418h-0.441l-1.368 2.313h-1.32z"/><path id="path4192" d="m637.86 67.789h-2.898v5.305h2.898v-0.34h-2.531v-2.008h2.391v-0.34h-2.391v-2.277h2.531v-0.34z"/><path id="path4194" d="m642.69 70.477c0 0.761-0.192 1.332-0.579 1.718-0.386 0.383-0.953 0.575-1.703 0.575h-0.976v-4.657h0.879c1.586 0 2.379 0.789 2.379 2.364m0.402 0.015c0-0.89-0.235-1.562-0.699-2.019-0.469-0.457-1.153-0.684-2.059-0.684h-1.27v5.305h1.434c0.844 0 1.492-0.219 1.93-0.664 0.445-0.442 0.664-1.086 0.664-1.938"/><path id="path4196" d="m646.61 70.406v-2.293h1.246c0.985 0 1.477 0.403 1.477 1.199 0 0.731-0.52 1.094-1.555 1.094h-1.168zm0 0.328h1.168c0.496 0 0.86 0.082 1.086 0.246 0.227 0.168 0.34 0.426 0.34 0.778 0 0.355-0.129 0.613-0.383 0.773-0.254 0.157-0.636 0.239-1.14 0.239h-1.071v-2.036zm-0.371 2.36h1.453c0.657 0 1.141-0.11 1.446-0.332 0.308-0.223 0.461-0.559 0.461-1.008 0-0.309-0.094-0.566-0.282-0.77-0.187-0.203-0.461-0.336-0.82-0.394v-0.02c0.422-0.062 0.734-0.199 0.934-0.402 0.199-0.203 0.3-0.488 0.3-0.856 0-0.488-0.164-0.863-0.488-1.128-0.324-0.262-0.785-0.395-1.379-0.395h-1.625v5.305z"/><path id="path4198" d="m652.12 70.191 1.555 2.903h0.398l-1.769-3.254v-2.051h-0.379v2.02l-1.774 3.285h0.422l1.547-2.903z"/><path id="path4200" d="m656.17 70.344h32.332v-0.469h-32.332v0.469z"/><path id="path4202" d="m575.35 70.344h32.332v-0.469h-32.332v0.469z"/><path id="path4204" d="m578.13 49.367m6.609 2.785c5.192 0 9.399-4.211 9.399-9.398 0-5.188-4.207-9.399-9.399-9.399-5.187 0-9.398 4.211-9.398 9.399 0 5.187 4.211 9.398 9.398 9.398m6.613-2.785m-6.613 1.77c-2.312 0-4.41-0.938-5.926-2.457-1.515-1.516-2.453-3.614-2.453-5.926 0-2.316 0.938-4.41 2.453-5.926 1.516-1.516 3.614-2.457 5.926-2.457 2.317 0 4.41 0.941 5.926 2.457 1.52 1.516 2.457 3.61 2.457 5.926 0 2.312-0.937 4.41-2.457 5.926-1.516 1.519-3.609 2.457-5.926 2.457"/><path id="path4206" d="m590.5 41.988h1.402v-1.183h-2.816v4.043h1.414v-2.86zm-4.606 0.223-2.32-1.824-2.121 1.668c-0.305-0.735-1.043-1.246-1.895-1.246h-1.812v4.039h1.812c0.954 0 1.637-0.602 1.895-1.246l2.121 1.668 0.789-0.622-1.945-1.527 0.371-0.293 1.945 1.527 0.785-0.617-1.941-1.527 0.371-0.293 1.945 1.527v1.403h1.414v-2.86h1.403v-1.183h-2.817v1.406zm-5.601 0.617c0 0.551-0.363 0.86-0.875 0.86h-0.317v-1.719h0.309c0.477 0 0.883 0.261 0.883 0.859"/><path id="path4208" d="m608.96 52.105h0.477v-18.805h-0.477v18.805z"/><path id="path4210" d="m630.58 42.945h8.129v7.211l-8.129-1.14v-6.071z"/><path id="path4212" d="m630.34 42.945v6.035l-6.227-0.871v-5.164h6.227z"/><path id="path4214" d="m630.34 42.703h-6.227v-5.156l6.227-0.871v6.027z"/><path id="path4216" d="m630.58 42.703v-6.062l8.129-1.141v7.203h-8.129z"/><path id="path4218" d="m654.83 46.637c0-0.188-0.066-0.34-0.191-0.465-0.129-0.121-0.282-0.184-0.457-0.184-0.184 0-0.336 0.063-0.457 0.18-0.125 0.117-0.188 0.273-0.188 0.469 0 0.172 0.063 0.32 0.184 0.449 0.121 0.125 0.273 0.187 0.461 0.187 0.183 0 0.336-0.062 0.461-0.183 0.125-0.125 0.187-0.278 0.187-0.453"/><path id="path4220" d="m652.89 47.09-2.438-8.664h-1.183l-1.926 6.863h-0.024l-1.933-6.863h-1.172l-2.523 8.664h1.109l1.996-7.231h0.023l2.082 7.231h0.977l1.973-7.254h0.023l1.922 7.254h1.094z"/><path id="path4222" d="m653.71 44.613h0.984v-6.188h-0.984v6.188z"/><path id="path4224" d="m661.29 38.426h-0.988v3.527c0 1.313-0.477 1.965-1.43 1.965-0.488 0-0.894-0.184-1.219-0.551-0.328-0.371-0.492-0.84-0.492-1.414v-3.527h-0.984v6.187h0.984v-1.027h0.024c0.461 0.785 1.136 1.18 2.023 1.18 0.676 0 1.195-0.223 1.551-0.664 0.355-0.446 0.531-1.075 0.531-1.887v-3.789z"/><path id="path4226" d="m667.1 41.223v0.914c0 0.511-0.168 0.937-0.508 1.273-0.34 0.34-0.75 0.508-1.235 0.508-0.593 0-1.066-0.219-1.414-0.66-0.351-0.442-0.523-1.055-0.523-1.836 0-0.707 0.164-1.27 0.492-1.684 0.328-0.41 0.774-0.617 1.328-0.617 0.543 0 0.988 0.199 1.336 0.594 0.352 0.394 0.524 0.898 0.524 1.508m0.988-2.797h-0.988v1.051h-0.024c-0.457-0.801-1.164-1.204-2.117-1.204-0.777 0-1.399 0.282-1.859 0.844-0.461 0.563-0.692 1.313-0.692 2.25 0 1.024 0.254 1.848 0.766 2.465 0.512 0.621 1.195 0.934 2.054 0.934 0.844 0 1.458-0.336 1.848-1.004h0.024v3.824h0.988v-9.16z"/><path id="path4228" d="m674.4 41.508c0 0.777-0.172 1.375-0.511 1.789-0.344 0.414-0.836 0.621-1.473 0.621-0.633 0-1.137-0.211-1.504-0.637-0.371-0.426-0.555-1.023-0.555-1.797 0-0.742 0.188-1.32 0.559-1.738s0.871-0.625 1.5-0.625c0.641 0 1.133 0.207 1.473 0.617 0.343 0.41 0.511 1 0.511 1.77m1.012 0.035c0-0.981-0.277-1.773-0.832-2.371-0.559-0.598-1.301-0.899-2.234-0.899-0.914 0-1.641 0.293-2.184 0.875s-0.816 1.348-0.816 2.297c0 1.024 0.281 1.832 0.836 2.43 0.558 0.594 1.328 0.891 2.304 0.891 0.918 0 1.633-0.289 2.149-0.864 0.519-0.574 0.777-1.359 0.777-2.359"/><path id="path4230" d="m684.38 44.613-1.848-6.187h-1.023l-1.379 4.804h-0.023l-1.493-4.804h-0.988l-1.859 6.187h1.035l1.359-4.992h0.051l1.523 4.992h0.903l1.371-4.992h0.047l1.347 4.992h0.977z"/><path id="path4232" d="m688.56 40.082c0-0.535-0.203-0.973-0.614-1.305-0.414-0.336-0.961-0.504-1.64-0.504-0.582 0-1.094 0.125-1.528 0.375v1.067c0.485-0.395 1.016-0.594 1.598-0.594 0.785 0 1.172 0.289 1.172 0.863 0 0.235-0.074 0.426-0.227 0.571-0.152 0.148-0.5 0.347-1.039 0.597-0.547 0.231-0.933 0.485-1.156 0.75-0.226 0.27-0.336 0.625-0.336 1.067 0 0.511 0.203 0.941 0.613 1.281 0.407 0.344 0.926 0.516 1.559 0.516 0.484 0 0.922-0.098 1.316-0.293v-0.996c-0.402 0.293-0.867 0.441-1.394 0.441-0.324 0-0.586-0.078-0.789-0.242-0.195-0.16-0.297-0.367-0.297-0.621 0-0.274 0.078-0.485 0.23-0.633 0.153-0.145 0.469-0.32 0.946-0.52 0.586-0.25 0.996-0.511 1.234-0.785 0.235-0.277 0.352-0.621 0.352-1.035"/></g></g></g></g></g></g><g id="g4234"><g id="g4236" transform="translate(0 -.38197)"><g id="g4238"><g id="g4240" clip-path="url(#clipPath4242)"><g id="g4246"><path id="path4248" d="m508.54 148h2.422v-147.62h-2.422v147.62z" fill="#fff"/></g></g></g></g><path id="path4250" d="m426.68 138.67-158.93-21.172-11.301-1.602-2.441-98.75 20.082 2.844 150.14 19.926 30.903 55.074-28.457 43.68z" fill="#ce0019"/><g fill="#54000a" fill-rule="evenodd"><path id="path4252" d="m264.17 109.19 42.758 4.602-44.895-8.781 2.137 4.179z"/><path id="path4254" d="m264.17 103.47 42.758 4.601-44.895-8.777 2.137 4.176z"/><path id="path4256" d="m264.17 97.751 42.758 4.597-44.895-8.777 2.137 4.18z"/><path id="path4258" d="m264.17 92.028 42.758 4.598-44.895-8.778 2.137 4.18z"/><path id="path4260" d="m264.17 86.306 42.758 4.601-44.895-8.781 2.137 4.18z"/><path id="path4262" d="m264.17 80.583 42.758 4.601-44.895-8.777 2.137 4.176z"/><path id="path4264" d="m264.17 74.864 42.758 4.598-44.895-8.778 2.137 4.18z"/><path id="path4266" d="m264.17 69.141 42.758 4.602-44.895-8.781 2.137 4.179z"/><path id="path4268" d="m264.17 63.419 42.758 4.601-44.895-8.781 2.137 4.18z"/><path id="path4270" d="m264.17 57.696 42.758 4.602-44.895-8.778 2.137 4.176z"/><path id="path4272" d="m264.17 51.977 42.758 4.598-44.895-8.777 2.137 4.179z"/><path id="path4274" d="m264.17 46.255 42.758 4.601-44.895-8.781 2.137 4.18z"/><path id="path4276" d="m264.17 40.532 42.758 4.602-44.895-8.782 2.137 4.18z"/><path id="path4278" d="m264.17 34.809 42.758 4.602-44.895-8.777 2.137 4.175z"/><path id="path4280" d="m264.17 29.091 42.758 4.597-44.895-8.777 2.137 4.18z"/><path id="path4282" d="m258 22.673 48.926 5.992-52.059-10.172 3.133 4.18z"/></g><path id="path4284" d="m279.04 138.34-279.04-38.1 20.906-47.329-11.558-47.059l270.25 33.707-0.286 50.645-0.273 48.137z" fill="#ce0019"/><path id="path4286" d="m253.97 36.372 0.105-19.18 25.598 22.399-25.703-3.219z" fill-rule="evenodd" fill="#54000a"/><g fill="#eaf0ce"><path id="path4288" d="m186.66 105.38c-9.055-1.282-16.25-4.832-21.578-10.649-3.945-4.289-6.441-9.371-7.5-15.246l-6.199-4.859 5.668-3.903c0.383-7.523 2.957-13.254 7.742-17.187 5.258-4.297 12.418-5.805 21.476-4.524 3.036 0.426 5.954 1.18 8.75 2.254 2.797 1.075 5.489 2.457 8.071 4.157l0.078 11.246c-2.61-2.137-5.18-3.797-7.711-4.981-2.531-1.183-5.195-1.972-7.988-2.367-5.004-0.707-8.926 0.34-11.77 3.137-2.387 2.347-3.754 5.691-4.109 10.015l6.176 5.981-5.559 2.781c0.703 2.93 1.926 5.492 3.676 7.68 2.89 3.605 6.836 5.762 11.84 6.469 2.793 0.394 5.445 0.359 7.968-0.11 2.52-0.469 5.071-1.402 7.657-2.805l0.078 11.243c-2.563 0.972-5.242 1.597-8.028 1.882-2.789 0.286-5.699 0.211-8.738-0.214z"/><path id="path4290" d="m34.688 82.395-0.004-0.117-6.219-0.902 6.191-3.067-0.121-17.527-5.66-4.437 5.602-3.856-0.145-20.691-6.246-4.871 19.836 2.879-0.348 0.132 0.758 0.11 0.16 23.035 20.692 2.922-0.161-22.867-0.507-0.34 19.836 2.879-5.282 2.613 0.145 21.047 5.949 5.758-5.887 2.941 0.125 17.934 5.328 4.156-19.832-2.879 0.5-0.195-0.14-20.457-20.692-2.926 0.145 20.707-14.027-1.981h0.004z"/><path id="path4292" d="m110.22 93.688 5.25-2.601-6.531-18.199-7.004-5.497 4.035-2.773-8.985-23.801-5.691-4.304 4.863 0.761 14.098 1.992 3.527 10.387 21.93 3.102 3.195-8.969-0.625-0.418 0.739 0.105 0.046-0.132 14.098 1.992-0.07 0.183 5.019 0.731-6.543 3.242-7.882 20.531 4.167 4.039-7.078 3.536-6.172 16.074 5.606 4.371-10.16-1.473-19.832-2.879z"/><path id="path4294" d="m207.73 107.79 8.004-3.09-0.121-17.195-5.734-4.496 5.676-3.903-0.149-21.152-7.484-5.031 19.832 2.879 9.101 1.32-7.421 2.863 0.121 17.469 21.488-18.336h0.008l-0.008-0.012 1.754 0.258 15.805 2.235-0.059 0.05 2.332 0.336-6.488 3.215-21.364 18.262 4.922 4.765-4.238 2.122 17.07 19.046 8.633 6.739-19.832-2.879 0.32-0.125-20.25-22.578 0.118 16.797 6.898 4.64-9.102-1.324-19.832-2.879v0.004z"/></g><path id="path4296" d="m123.77 82.899 7.282-20.566-14.899-2.106 7.617 22.672z" fill="#ce0019"/><path id="path4298" d="m314.28 100.59v-0.094l-0.082 0.082-0.097-14.234 2.711 4.027 15.464 2.184-0.089-12.602-4.864-3.82 4.817-3.313-0.149-21.086-5.535-3.722 6.098 0.886 13.441 1.899v0.05l0.293 0.043 5.688 0.829-5.957 2.296 0.144 20.688 5.055 4.902-5.004 2.5 0.086 12.434 15.301 2.16 2.535-3.09 0.023 3.453 0.172 0.024 0.067 9.453 5.109-1.973 12.73-17.043-5.343-4.191 5.285-3.637-14.875-23.711-5.227-3.515 19.832 2.878-1.238 0.614 12.555 20.054 12.547-16.71-1.231-0.961 19.832 2.878-5.457 2.106-14.281 19.164 5.906 5.723-5.82 2.91 13.078 20.812 6.961 4.68-19.832-2.879 0.523-0.258-0.101-0.015-12-19.184-11.551 15.5 0.492 0.383-0.703-0.102-0.027 0.039-14.645-2.07 0.066-0.09-2.578-0.375v0.11l-0.172-0.024 0.004 0.188-0.168-0.211-49.789-7.039z" fill="#eaf0ce"/></g></g></svg>
