<?xml version="1.0" encoding="utf-8"?>
<!-- Generator: Adobe Illustrator 16.0.4, SVG Export Plug-In . SVG Version: 6.00 Build 0)  -->
<!DOCTYPE svg PUBLIC "-//W3C//DTD SVG 1.1//EN" "http://www.w3.org/Graphics/SVG/1.1/DTD/svg11.dtd">
<svg version="1.1" id="Layer_1" xmlns:sketch="http://www.bohemiancoding.com/sketch/ns"
	 xmlns="http://www.w3.org/2000/svg" xmlns:xlink="http://www.w3.org/1999/xlink" x="0px" y="0px" width="1600px" height="483px"
	 viewBox="0 0 1600 483" enable-background="new 0 0 1600 483" xml:space="preserve">
<path fill="#F04650" d="M905.319,203.268v-12.783h-6.185v-28.039h-18.556v-24.331v-9.896h-3.712V89.872h3.712v-9.897h-6.187v-12.37
	h-50.305v12.37h-6.597v9.897h3.71v38.347h-3.71v9.896v24.331h-18.556v28.039h-6.597v12.783h-2.887v236.271h118.754V203.268H905.319z
	 M856.87,87.81h3.504v47.007h-3.504V87.81z M847.386,87.81h3.298v47.007h-3.298V87.81z M837.695,87.81h3.506v47.007h-3.506V87.81z
	 M831.51,134.817h-1.648v-6.598h-3.711V89.872h3.711V87.81h1.648V134.817z M848.828,174.75c-7.387,0-13.375-5.988-13.375-13.375
	S841.441,148,848.828,148s13.375,5.988,13.375,13.375S856.215,174.75,848.828,174.75z M871.921,128.219h-3.712v6.598h-1.649V87.81
	h1.648v-7.835h0.001v9.897h3.712V128.219z"/>
<path id="filler" fill="#F04650" d="M144.945,480.223V131.882c0,0-5.784-2.113-11.863-4.134V98.742c0,0-14.255-5.78-19.617-7.32
	c-5.359-1.542-23.263-5.013-23.263-5.013s-8.726-0.961-11.635-0.961c-2.338,0-9.35,0.961-9.35,0.961v36.074l-16.423,1.69v33.711
	c-2.606,0.539-4.563,0.969-4.563,0.969v321.369h41.971"/>
<path id="filler_1_" fill="#F04650" d="M-3.023,490.688V251.555c0,0,5.784-2.113,11.863-4.134v-29.006c0,0,14.255-5.78,19.617-7.32
	c5.359-1.542,23.263-5.012,23.263-5.012s8.726-0.962,11.635-0.962c2.338,0,9.35,0.962,9.35,0.962v36.074l16.423,1.69v33.712
	c2.606,0.538,4.563,0.969,4.563,0.969v212.16H51.72H-3.023L-3.023,490.688z"/>
<path id="filler_2_" fill="#F04650" d="M456.316,121.599c-7.462-3.78-19.305-5.236-27.844-5.796
	c-1.83-2.647-5.023-5.254-10.435-7.32c-9.988-3.812-31.382-3.452-31.382-3.452l-41.888,10.426v17.085l-6.671,1.556v25.655
	l-10.346,2.301v328.376h220.351V156.878l-72.934-15.097C475.169,141.781,469.421,128.237,456.316,121.599L456.316,121.599
	L456.316,121.599z"/>
<path id="pyramid" fill="#F04650" d="M1580.311,336.441v-39.299h-20.451v-40.872h-22.025v-39.299h-20.452V176.1h-18.879v-40.872
	H1394.67V176.1h-20.452v40.871h-20.452v39.299h-22.025v40.872h-20.451v39.299h-22.025v154.054h313.072V336.441H1580.311"/>
<path id="filler_3_" fill="#F04650" d="M1326.996,173.917h-9.383l-3.435,12.258h-11.109v-24.307h-24.781V81.405h-3.485l-3.502,3.073
	v48.02h-2.262v41.646h-2.279v12.031h-21.749l-15.364,13.061v251.692h-2.028v39.479h110.939V186.175h-11.562V173.917
	L1326.996,173.917z"/>
<path id="crane" fill="#F04650" d="M1072.259,188.792h72.947l37.21,42.444h13.815v23.895h13.63v86.062h20.595v31.66h3.587v73.505
	H964.941V255.131h9.232v-23.895h17.472l47.346-42.444h15.902V77.324l-54.218,7.417l-0.104,2.856l-5.916,18.24h-5.046l-11.275-10.223
	l2.367-8.168l2.923-10.173l1.67-5.763l8.596-2.004h7.378l-0.174,5.362l59.542-8.118v-40.44h6.751v39.488l209.32-28.614l8.526,8.619
	l-212.975,29.115V188.792L1072.259,188.792z"/>
<path id="capitol" fill="#F04650" d="M1074.342,304.491v-5.129l-77.867-25.642l-77.867,25.642v5.129h5.135v27.352H778.275v-70.089
	l-39.361-23.465v-82.524c0-1.438-1.834-2.807-5.134-4.05v-4.498h-0.082c0.053-0.282,0.082-0.568,0.082-0.855
	c0-2.366-1.855-4.612-5.165-6.64c-0.515-31.39-17.026-57.629-39.33-65.383V61.743h-0.311c-1.427-11.705-7.641-20.514-15.092-20.514
	s-13.666,8.809-15.093,20.514h-0.31v13.961c-20.326,9.038-35.096,33.711-35.891,63.043c-4.396,2.27-6.894,4.863-6.894,7.616
	c0,0.287,0.028,0.573,0.082,0.855h-0.082v5.222c-2.208,1.043-3.423,2.161-3.423,3.325v78.443l-46.207,27.545v70.089H420.601v133.341
	V304.491h5.134v-5.129l-77.867-25.642L270,299.362v5.129h5.134v160.692h-3.423v5.128h800.919v-5.128h-3.423V304.491H1074.342
	L1074.342,304.491z M651.664,0.214c0,0,3.249,9.431,2.831,12.643c-0.198,1.522-2.831,5.45-2.831,5.45s5.254,1.132,5.88,2.616
	c0.429,1.017-1.524,4.142-1.524,4.142s4.984,0.892,5.88,2.18c0.528,0.76,0,3.706,0,3.706s6.438-1.172,8.275-0.218
	c1.395,0.724,3.484,5.232,3.484,5.232s2.323-5.13,3.92-5.886c1.484-0.702,6.533,0.654,6.533,0.654s-0.94-4.14-0.218-5.231
	c0.514-0.776,3.484-1.308,3.484-1.308s-0.892-6.585-0.436-8.719c0.652-3.051,5.662-11.117,5.662-11.117l-8.058,7.847
	c0,0-0.531,4.736-1.524,5.886c-0.734,0.85-4.138,1.744-4.138,1.744s-0.845,3.581-1.524,4.578c-0.479,0.703-2.613,2.18-2.613,2.18
	l-1.089-1.962l-0.653,1.599l-0.871-1.38v1.525l-5.444-3.27l-1.307-6.104c0,0-5.366-3.081-6.751-4.578
	C656.246,9.843,651.664,0.214,651.664,0.214L651.664,0.214z"/>
<rect id="Rectangle-4" x="48.422" y="403.953" fill="#F04650" width="1287.83" height="86.542"/>
<path id="Rectangle-5" fill="#F04650" d="M1174.729,271.5l156.142,90.148l-73.664,127.59l-156.142-90.148L1174.729,271.5
	L1174.729,271.5z"/>
<path id="Rectangle-5-Copy-4" fill="#F04650" d="M113.113,294.141l174.153,46.664l-38.131,142.308L74.982,436.448L113.113,294.141
	L113.113,294.141z"/>
<rect id="Rectangle-5-Copy-3" x="879.834" y="383.77" fill="#F04650" width="172.274" height="86.542"/>
<path id="Rectangle-5-Copy" fill="#F04650" d="M459.119,249.568l121.373,14.902l-15.417,125.559l-121.372-14.902L459.119,249.568
	L459.119,249.568z"/>
<path fill="#F04650" d="M303.656,179.061v-55.703l-4.609-15.35h-6.735l-8.908-25.114l-8.185,2.063l-1.498-5.209v-0.41h-0.393
	l-6.438-20.335l-8.018,3.849l-12.598-36.363l-11.22,13.482v39.366h-4.989V39.971l-11.218-13.463L206.385,62.89l-8.086-3.888
	l-6.507,20.335h-0.393v0.409l-1.5,5.248l-8.261-2.101l-8.83,25.114h-6.737l-4.609,15.35v55.703h-7.484v310.392h157.16V179.061
	H303.656z M232.56,151c-10.217,0-18.5-8.283-18.5-18.5s8.283-18.5,18.5-18.5s18.5,8.283,18.5,18.5S242.777,151,232.56,151z"/>
</svg>
