<?xml version="1.0" encoding="utf-8"?>
<!-- Generator: Adobe Illustrator 16.0.0, SVG Export Plug-In . SVG Version: 6.00 Build 0)  -->
<!DOCTYPE svg PUBLIC "-//W3C//DTD SVG 1.1//EN" "http://www.w3.org/Graphics/SVG/1.1/DTD/svg11.dtd">
<svg version="1.1" id="Layer_1" xmlns:sketch="http://www.bohemiancoding.com/sketch/ns"
	 xmlns="http://www.w3.org/2000/svg" xmlns:xlink="http://www.w3.org/1999/xlink" x="0px" y="0px" width="1549.688px"
	 height="475.374px" viewBox="2.667 0.626 1549.688 475.374" enable-background="new 2.667 0.626 1549.688 475.374"
	 xml:space="preserve">
<title>skyline</title>
<desc>Created with Sketch.</desc>
<g id="Welcome" sketch:type="MSPage">
	<g id="skyline" sketch:type="MSLayerGroup">
		<path id="tower" sketch:type="MSShapeGroup" fill="#F04650" d="M880.084,216.252v-11.821h-5.935v-28.076h-19.287V142.37h-2.968
			V103.95h2.968V93.606h-5.935V81.785h-50.444v11.821h-5.935v10.344H797v38.419h-4.451v33.986h-17.804v28.076h-7.419v11.821h-2.967
			v295.533h118.692V216.252H880.084L880.084,216.252z M813.32,102.473h2.967v45.808h-2.967V102.473z M831.124,102.473h4.45v45.808
			h-4.45V102.473z M822.222,102.473h2.968v45.808h-2.968V102.473z M842.993,94.257v9.693h4.451v38.419h-4.451v5.911h-1.483v-45.808
			h1.483V94.257L842.993,94.257z M801.451,103.95h2.967v-1.478h1.483v45.808h-1.483v-5.911h-2.967V103.95z M823.705,198.923
			c7.375,0,13.354-5.975,13.354-13.345s-5.979-13.345-13.354-13.345c-7.374,0-13.353,5.975-13.353,13.345
			S816.331,198.923,823.705,198.923z"/>
		<path id="filler" sketch:type="MSShapeGroup" fill="#F04650" d="M140.687,502.029V163.921c0,0-5.613-2.051-11.514-4.012v-28.154
			c0,0-13.836-5.61-19.041-7.105c-5.202-1.497-22.58-4.865-22.58-4.865s-8.47-0.934-11.294-0.934c-2.269,0-9.075,0.934-9.075,0.934
			v35.015l-15.94,1.641v32.721c-2.529,0.523-4.429,0.94-4.429,0.94v311.929h40.738"/>
		<path id="filler_1_" sketch:type="MSShapeGroup" fill="#F04650" d="M0.948,512.187V280.078c0,0,5.614-2.051,11.514-4.012v-28.154
			c0,0,13.836-5.61,19.041-7.105c5.202-1.497,22.58-4.865,22.58-4.865s8.47-0.934,11.293-0.934c2.269,0,9.076,0.934,9.076,0.934
			v35.015l15.94,1.64v32.722c2.529,0.522,4.429,0.939,4.429,0.939v205.929H54.083H0.948z"/>
		<path id="filler_2_" sketch:type="MSShapeGroup" fill="#F04650" d="M442.912,153.94c-7.242-3.669-18.737-5.083-27.025-5.626
			c-1.776-2.569-4.876-5.1-10.129-7.104c-9.694-3.701-30.46-3.351-30.46-3.351l-40.657,10.12v16.583l-6.475,1.509v24.901
			l-10.042,2.233v318.73h213.878V188.183l-70.791-14.653C461.211,173.53,455.632,160.383,442.912,153.94z"/>
		<path id="chase" sketch:type="MSShapeGroup" fill="#F04650" d="M225.729,164.467c8.692,0,15.738-7.042,15.738-15.729
			s-7.046-15.729-15.738-15.729c-8.692,0-15.739,7.042-15.739,15.729S217.036,164.467,225.729,164.467z M294.736,209.714v-54.067
			l-4.473-14.899h-6.538l-8.646-24.376l-7.944,2.002l-1.454-5.057v-0.398h-0.381l-6.25-19.738l-7.782,3.736L239.04,61.623
			l-10.89,13.087v38.209h-4.842V74.71l-10.889-13.067l-12.096,35.313l-7.849-3.774l-6.316,19.738h-0.381v0.397l-1.455,5.094
			l-8.018-2.039l-8.57,24.376h-6.539l-4.473,14.899v54.067h-7.264v301.273H302V209.714H294.736"/>
		<path id="pyramid" sketch:type="MSShapeGroup" fill="#F04650" d="M1530.978,362.472v-38.146h-19.852v-39.67h-21.378v-38.146
			h-19.852V206.84h-18.324v-39.67h-100.783v39.67h-19.851v39.671h-19.852v38.146h-21.378v39.67h-19.852v38.146h-21.378V512h303.876
			V362.472H1530.978"/>
		<path id="filler_3_" sketch:type="MSShapeGroup" fill="#F04650" d="M1288.016,204.721h-9.107l-3.334,11.898h-10.782v-23.593
			h-24.054v-78.1h-3.383l-3.399,2.983v46.608h-2.195v40.423h-2.212v11.678h-21.11l-14.913,12.677v244.298h-1.968v38.32h107.68
			V216.619h-11.222V204.721z"/>
		<path id="crane" sketch:type="MSShapeGroup" fill="#F04650" d="M1040.762,219.16h70.804l36.117,41.197h13.409v23.192h13.229
			v83.535h19.99v30.73h3.481v71.345H936.596v-185.61h8.962v-23.192h16.958l45.955-41.197h15.436V110.966l-52.625,7.198l-0.102,2.772
			l-5.742,17.705h-4.897l-10.944-9.922l2.297-7.928l2.838-9.874l1.621-5.594l8.343-1.945h7.161l-0.169,5.204l57.793-7.879V61.451
			h6.553v38.328l203.172-27.773l8.275,8.366l-206.718,28.259V219.16z"/>
		<path id="capitol" sketch:type="MSShapeGroup" fill="#F04650" d="M649.124,31.626H647.4v20.271
			c-5.581,1.451-10.029,8.584-11.146,17.735h-0.271v12.254c-17.841,7.933-30.805,29.589-31.503,55.335
			c-3.857,1.993-6.051,4.269-6.051,6.685c0,0.252,0.025,0.502,0.072,0.75h-0.072v4.584c-1.938,0.916-3.004,1.897-3.004,2.918v68.853
			l-40.558,24.177v61.52H427.188v117.037V282.701h4.506v-4.502l-68.347-22.507L295,278.199v4.502h4.506v141.045h-3.004v4.502
			h702.996v-4.502h-3.005V282.701H1001v-4.502l-68.347-22.507l-68.347,22.507v4.502h4.506v24.008H741.132v-61.52l-34.549-20.596
			v-72.435c0-1.262-1.61-2.463-4.507-3.555v-3.948h-0.071c0.046-0.248,0.071-0.498,0.071-0.75c0-2.077-1.628-4.048-4.533-5.828
			c-0.452-27.552-14.944-50.583-34.521-57.389V69.632h-0.272c-1.129-9.262-5.673-16.458-11.349-17.786l0,0v-20.22h-1.917
			c0.526-1.098,2.11-4.242,3.264-4.788c1.303-0.616,5.734,0.574,5.734,0.574s-0.825-3.634-0.191-4.592
			c0.451-0.681,3.059-1.148,3.059-1.148s-0.783-5.78-0.382-7.653c0.572-2.678,4.97-9.758,4.97-9.758l-7.073,6.888
			c0,0-0.466,4.157-1.338,5.166c-0.645,0.746-3.632,1.531-3.632,1.531s-0.741,3.144-1.338,4.018
			c-0.421,0.617-2.294,1.913-2.294,1.913l-0.955-1.722l-0.574,1.403l-0.765-1.211v1.339l-4.778-2.87l-1.147-5.357
			c0,0-4.709-2.704-5.925-4.018C634.021,9.078,630,0.626,630,0.626s2.852,8.278,2.485,11.097C632.311,13.06,630,16.507,630,16.507
			s4.611,0.994,5.161,2.296c0.376,0.893-1.338,3.636-1.338,3.636s4.375,0.783,5.161,1.913c0.464,0.667,0,3.253,0,3.253
			s5.65-1.028,7.264-0.191C647.239,27.927,648.631,30.622,649.124,31.626z"/>
		<rect id="Rectangle-4" x="47" y="428" sketch:type="MSShapeGroup" fill="#F04650" width="1250" height="84">
		</rect>
		
			<rect id="Rectangle-5" x="1092.748" y="333.609" sketch:type="MSShapeGroup" transform="matrix(-0.866 -0.5 0.5 -0.866 1999.8188 1346.0679)" fill="#F04650" width="175" height="143">
		</rect>
		
			<rect id="Rectangle-5-Copy-4" x="88.303" y="341.624" sketch:type="MSShapeGroup" transform="matrix(-0.9659 -0.2588 0.2588 -0.9659 238.6909 857.6718)" fill="#F04650" width="175" height="143">
		</rect>
		<rect id="Rectangle-5-Copy-3" x="853.989" y="408.409" sketch:type="MSShapeGroup" fill="#F04650" width="167.213" height="84">
		</rect>
		
			<rect id="Rectangle-5-Copy" x="437.709" y="284.925" sketch:type="MSShapeGroup" transform="matrix(-0.9925 -0.1219 0.1219 -0.9925 948.1993 750.6296)" fill="#F04650" width="118.692" height="122.785">
		</rect>
	</g>
</g>
</svg>
