<?xml version="1.0" encoding="UTF-8" standalone="no"?>
<svg width="1598px" height="190px" viewBox="0 0 1598 190" version="1.1" xmlns="http://www.w3.org/2000/svg" xmlns:xlink="http://www.w3.org/1999/xlink" xmlns:sketch="http://www.bohemiancoding.com/sketch/ns">
    <!-- Generator: Sketch 3.3.2 (12043) - http://www.bohemiancoding.com/sketch -->
    <title>bridge_lg</title>
    <desc>Created with Sketch.</desc>
    <defs></defs>
    <g id="Page-1" stroke="none" stroke-width="1" fill="none" fill-rule="evenodd" sketch:type="MSPage">
        <g id="Desktop-HD" sketch:type="MSArtboardGroup" transform="translate(0.000000, -2195.000000)" fill="#FFFFFF">
            <g id="website-mock" sketch:type="MSLayerGroup" transform="translate(-138.000000, 0.000000)">
                <g id="schedule-section" transform="translate(0.000000, 1899.000000)" sketch:type="MSShapeGroup">
                    <g id="water-waves" transform="translate(0.000000, 260.000000)">
                        <g id="bridge_lg" transform="translate(135.000000, 36.000000)">
                            <path d="M811.380423,24.5305165 L800.227041,24.5305165 L800.227041,57.9812207 C865.521366,57.9812207 918.452872,104.907244 918.452872,162.793427 L918.452872,189.55399 L949.682332,189.55399 L949.682332,162.793427 C949.682332,104.907244 1002.61384,57.9812207 1067.90816,57.9812207 L1067.90816,24.5305165 L1056.75478,24.5305165 L1056.75478,8.92018777 L1067.90816,8.92018777 L1067.90816,0 L800.227041,0 L800.227041,8.92018777 L811.380423,8.92018777 L811.380423,24.5305165 L811.380423,24.5305165 Z M815.841771,24.5305165 L838.148535,24.5305165 L838.148535,8.92018777 L815.841771,8.92018777 L815.841771,24.5305165 L815.841771,24.5305165 Z M842.609883,24.5305165 L864.916648,24.5305165 L864.916648,8.92018777 L842.609883,8.92018777 L842.609883,24.5305165 L842.609883,24.5305165 Z M869.377995,24.5305165 L891.68476,24.5305165 L891.68476,8.92018777 L869.377995,8.92018777 L869.377995,24.5305165 L869.377995,24.5305165 Z M896.146107,24.5305165 L918.452872,24.5305165 L918.452872,8.92018777 L896.146107,8.92018777 L896.146107,24.5305165 L896.146107,24.5305165 Z M922.91422,24.5305165 L945.220984,24.5305165 L945.220984,8.92018777 L922.91422,8.92018777 L922.91422,24.5305165 L922.91422,24.5305165 Z M949.682332,24.5305165 L971.989097,24.5305165 L971.989097,8.92018777 L949.682332,8.92018777 L949.682332,24.5305165 L949.682332,24.5305165 Z M976.450444,24.5305165 L998.757209,24.5305165 L998.757209,8.92018777 L976.450444,8.92018777 L976.450444,24.5305165 L976.450444,24.5305165 Z M1003.21856,24.5305165 L1025.52532,24.5305165 L1025.52532,8.92018777 L1003.21856,8.92018777 L1003.21856,24.5305165 L1003.21856,24.5305165 Z M1029.98667,24.5305165 L1052.29343,24.5305165 L1052.29343,8.92018777 L1029.98667,8.92018777 L1029.98667,24.5305165 L1029.98667,24.5305165 Z M983.142472,57.9812207 L976.450444,57.9812207 L976.450444,75.8575856 C978.737197,74.01943 981.094953,72.2492254 983.519635,70.5505759 L983.142472,70.5505759 L983.142472,57.9812207 L983.142472,57.9812207 Z M987.603827,57.9812207 L1005.50889,57.9812207 C999.240668,60.8489034 993.256576,64.1351503 987.603827,67.7981777 L987.603827,57.9812207 L987.603827,57.9812207 Z M884.992732,57.9812207 L891.68476,57.9812207 L891.68476,75.8575856 C889.398007,74.01943 887.040251,72.2492254 884.615569,70.5505759 L884.992732,70.5505759 L884.992732,57.9812207 L884.992732,57.9812207 Z M880.531378,57.9812207 L862.626314,57.9812207 C868.894536,60.8489034 874.878628,64.1351503 880.531378,67.7981777 L880.531378,57.9812207 L880.531378,57.9812207 Z M954.143686,57.9812207 L960.835714,57.9812207 L960.835714,90.0128044 L961.452331,90.0128044 C958.86787,92.8817676 956.428385,95.8575423 954.143686,98.9314432 L954.143686,57.9812207 L954.143686,57.9812207 Z M949.682332,57.9812207 L942.990304,57.9812207 L942.990304,117.198111 C944.9805,113.132257 947.216714,109.182664 949.682332,105.364038 L949.682332,57.9812207 L949.682332,57.9812207 Z M913.991518,57.9812207 L907.29949,57.9812207 L907.29949,90.0128044 L906.682873,90.0128044 C909.267334,92.8817676 911.706819,95.8575423 913.991518,98.9314432 L913.991518,57.9812207 L913.991518,57.9812207 Z M918.452872,57.9812207 L925.1449,57.9812207 L925.1449,117.198111 C923.154704,113.132257 920.91849,109.182664 918.452872,105.364038 L918.452872,57.9812207 L918.452872,57.9812207 Z M965.297069,57.9812207 L971.989097,57.9812207 L971.989097,79.6091169 C969.674532,81.6449495 967.442258,83.7539676 965.297069,85.9319202 L965.297069,57.9812207 L965.297069,57.9812207 Z M902.838136,57.9812207 L896.146107,57.9812207 L896.146107,79.6091169 C898.460673,81.6449495 900.692946,83.7539676 902.838136,85.9319202 L902.838136,57.9812207 L902.838136,57.9812207 Z" id="Shape"></path>
                            <path d="M1077.47226,24.5305165 L1066.31888,24.5305165 L1066.31888,57.9812207 C1131.6132,57.9812207 1184.54471,104.907244 1184.54471,162.793427 L1184.54471,189.55399 L1215.77417,189.55399 L1215.77417,162.793427 C1215.77417,104.907244 1268.70567,57.9812207 1334,57.9812207 L1334,24.5305165 L1322.84662,24.5305165 L1322.84662,8.92018777 L1334,8.92018777 L1334,0 L1066.31888,0 L1066.31888,8.92018777 L1077.47226,8.92018777 L1077.47226,24.5305165 L1077.47226,24.5305165 Z M1081.93361,24.5305165 L1104.24037,24.5305165 L1104.24037,8.92018777 L1081.93361,8.92018777 L1081.93361,24.5305165 L1081.93361,24.5305165 Z M1108.70172,24.5305165 L1131.00848,24.5305165 L1131.00848,8.92018777 L1108.70172,8.92018777 L1108.70172,24.5305165 L1108.70172,24.5305165 Z M1135.46983,24.5305165 L1157.7766,24.5305165 L1157.7766,8.92018777 L1135.46983,8.92018777 L1135.46983,24.5305165 L1135.46983,24.5305165 Z M1162.23794,24.5305165 L1184.54471,24.5305165 L1184.54471,8.92018777 L1162.23794,8.92018777 L1162.23794,24.5305165 L1162.23794,24.5305165 Z M1189.00606,24.5305165 L1211.31282,24.5305165 L1211.31282,8.92018777 L1189.00606,8.92018777 L1189.00606,24.5305165 L1189.00606,24.5305165 Z M1215.77417,24.5305165 L1238.08093,24.5305165 L1238.08093,8.92018777 L1215.77417,8.92018777 L1215.77417,24.5305165 L1215.77417,24.5305165 Z M1242.54228,24.5305165 L1264.84905,24.5305165 L1264.84905,8.92018777 L1242.54228,8.92018777 L1242.54228,24.5305165 L1242.54228,24.5305165 Z M1269.31039,24.5305165 L1291.61716,24.5305165 L1291.61716,8.92018777 L1269.31039,8.92018777 L1269.31039,24.5305165 L1269.31039,24.5305165 Z M1296.07851,24.5305165 L1318.38527,24.5305165 L1318.38527,8.92018777 L1296.07851,8.92018777 L1296.07851,24.5305165 L1296.07851,24.5305165 Z M1249.23431,57.9812207 L1242.54228,57.9812207 L1242.54228,75.8575856 C1244.82903,74.01943 1247.18679,72.2492254 1249.61147,70.5505759 L1249.23431,70.5505759 L1249.23431,57.9812207 L1249.23431,57.9812207 Z M1253.69566,57.9812207 L1271.60073,57.9812207 C1265.3325,60.8489034 1259.34841,64.1351503 1253.69566,67.7981777 L1253.69566,57.9812207 L1253.69566,57.9812207 Z M1151.08457,57.9812207 L1157.7766,57.9812207 L1157.7766,75.8575856 C1155.48984,74.01943 1153.13209,72.2492254 1150.70741,70.5505759 L1151.08457,70.5505759 L1151.08457,57.9812207 L1151.08457,57.9812207 Z M1146.62321,57.9812207 L1128.71815,57.9812207 C1134.98637,60.8489034 1140.97046,64.1351503 1146.62321,67.7981777 L1146.62321,57.9812207 L1146.62321,57.9812207 Z M1220.23552,57.9812207 L1226.92755,57.9812207 L1226.92755,90.0128044 L1227.54417,90.0128044 C1224.95971,92.8817676 1222.52022,95.8575423 1220.23552,98.9314432 L1220.23552,57.9812207 L1220.23552,57.9812207 Z M1215.77417,57.9812207 L1209.08214,57.9812207 L1209.08214,117.198111 C1211.07234,113.132257 1213.30855,109.182664 1215.77417,105.364038 L1215.77417,57.9812207 L1215.77417,57.9812207 Z M1180.08335,57.9812207 L1173.39133,57.9812207 L1173.39133,90.0128044 L1172.77471,90.0128044 C1175.35917,92.8817676 1177.79866,95.8575423 1180.08335,98.9314432 L1180.08335,57.9812207 L1180.08335,57.9812207 Z M1184.54471,57.9812207 L1191.23674,57.9812207 L1191.23674,117.198111 C1189.24654,113.132257 1187.01033,109.182664 1184.54471,105.364038 L1184.54471,57.9812207 L1184.54471,57.9812207 Z M1231.38891,57.9812207 L1238.08093,57.9812207 L1238.08093,79.6091169 C1235.76637,81.6449495 1233.5341,83.7539676 1231.38891,85.9319202 L1231.38891,57.9812207 L1231.38891,57.9812207 Z M1168.92997,57.9812207 L1162.23794,57.9812207 L1162.23794,79.6091169 C1164.55251,81.6449495 1166.78478,83.7539676 1168.92997,85.9319202 L1168.92997,57.9812207 L1168.92997,57.9812207 Z" id="Shape-Copy"></path>
                            <path d="M1344.47226,24.5305165 L1333.31888,24.5305165 L1333.31888,57.9812207 C1398.6132,57.9812207 1451.54471,104.907244 1451.54471,162.793427 L1451.54471,189.55399 L1482.77417,189.55399 L1482.77417,162.793427 C1482.77417,104.907244 1535.70567,57.9812207 1601,57.9812207 L1601,24.5305165 L1589.84662,24.5305165 L1589.84662,8.92018777 L1601,8.92018777 L1601,0 L1333.31888,0 L1333.31888,8.92018777 L1344.47226,8.92018777 L1344.47226,24.5305165 L1344.47226,24.5305165 Z M1348.93361,24.5305165 L1371.24037,24.5305165 L1371.24037,8.92018777 L1348.93361,8.92018777 L1348.93361,24.5305165 L1348.93361,24.5305165 Z M1375.70172,24.5305165 L1398.00848,24.5305165 L1398.00848,8.92018777 L1375.70172,8.92018777 L1375.70172,24.5305165 L1375.70172,24.5305165 Z M1402.46983,24.5305165 L1424.7766,24.5305165 L1424.7766,8.92018777 L1402.46983,8.92018777 L1402.46983,24.5305165 L1402.46983,24.5305165 Z M1429.23794,24.5305165 L1451.54471,24.5305165 L1451.54471,8.92018777 L1429.23794,8.92018777 L1429.23794,24.5305165 L1429.23794,24.5305165 Z M1456.00606,24.5305165 L1478.31282,24.5305165 L1478.31282,8.92018777 L1456.00606,8.92018777 L1456.00606,24.5305165 L1456.00606,24.5305165 Z M1482.77417,24.5305165 L1505.08093,24.5305165 L1505.08093,8.92018777 L1482.77417,8.92018777 L1482.77417,24.5305165 L1482.77417,24.5305165 Z M1509.54228,24.5305165 L1531.84905,24.5305165 L1531.84905,8.92018777 L1509.54228,8.92018777 L1509.54228,24.5305165 L1509.54228,24.5305165 Z M1536.31039,24.5305165 L1558.61716,24.5305165 L1558.61716,8.92018777 L1536.31039,8.92018777 L1536.31039,24.5305165 L1536.31039,24.5305165 Z M1563.07851,24.5305165 L1585.38527,24.5305165 L1585.38527,8.92018777 L1563.07851,8.92018777 L1563.07851,24.5305165 L1563.07851,24.5305165 Z M1516.23431,57.9812207 L1509.54228,57.9812207 L1509.54228,75.8575856 C1511.82903,74.01943 1514.18679,72.2492254 1516.61147,70.5505759 L1516.23431,70.5505759 L1516.23431,57.9812207 L1516.23431,57.9812207 Z M1520.69566,57.9812207 L1538.60073,57.9812207 C1532.3325,60.8489034 1526.34841,64.1351503 1520.69566,67.7981777 L1520.69566,57.9812207 L1520.69566,57.9812207 Z M1418.08457,57.9812207 L1424.7766,57.9812207 L1424.7766,75.8575856 C1422.48984,74.01943 1420.13209,72.2492254 1417.70741,70.5505759 L1418.08457,70.5505759 L1418.08457,57.9812207 L1418.08457,57.9812207 Z M1413.62321,57.9812207 L1395.71815,57.9812207 C1401.98637,60.8489034 1407.97046,64.1351503 1413.62321,67.7981777 L1413.62321,57.9812207 L1413.62321,57.9812207 Z M1487.23552,57.9812207 L1493.92755,57.9812207 L1493.92755,90.0128044 L1494.54417,90.0128044 C1491.95971,92.8817676 1489.52022,95.8575423 1487.23552,98.9314432 L1487.23552,57.9812207 L1487.23552,57.9812207 Z M1482.77417,57.9812207 L1476.08214,57.9812207 L1476.08214,117.198111 C1478.07234,113.132257 1480.30855,109.182664 1482.77417,105.364038 L1482.77417,57.9812207 L1482.77417,57.9812207 Z M1447.08335,57.9812207 L1440.39133,57.9812207 L1440.39133,90.0128044 L1439.77471,90.0128044 C1442.35917,92.8817676 1444.79866,95.8575423 1447.08335,98.9314432 L1447.08335,57.9812207 L1447.08335,57.9812207 Z M1451.54471,57.9812207 L1458.23674,57.9812207 L1458.23674,117.198111 C1456.24654,113.132257 1454.01033,109.182664 1451.54471,105.364038 L1451.54471,57.9812207 L1451.54471,57.9812207 Z M1498.38891,57.9812207 L1505.08093,57.9812207 L1505.08093,79.6091169 C1502.76637,81.6449495 1500.5341,83.7539676 1498.38891,85.9319202 L1498.38891,57.9812207 L1498.38891,57.9812207 Z M1435.92997,57.9812207 L1429.23794,57.9812207 L1429.23794,79.6091169 C1431.55251,81.6449495 1433.78478,83.7539676 1435.92997,85.9319202 L1435.92997,57.9812207 L1435.92997,57.9812207 Z" id="Shape-Copy-2"></path>
                            <path d="M544.607462,24.5305165 L533.454082,24.5305165 L533.454082,57.9812207 C598.748404,57.9812207 651.679911,104.907244 651.679911,162.793427 L651.679911,189.55399 L682.909373,189.55399 L682.909373,162.793427 C682.909373,104.907244 735.840879,57.9812207 801.135204,57.9812207 L801.135204,24.5305165 L789.981822,24.5305165 L789.981822,8.92018777 L801.135204,8.92018777 L801.135204,0 L533.454082,0 L533.454082,8.92018777 L544.607462,8.92018777 L544.607462,24.5305165 L544.607462,24.5305165 Z M549.068814,24.5305165 L571.375574,24.5305165 L571.375574,8.92018777 L549.068814,8.92018777 L549.068814,24.5305165 L549.068814,24.5305165 Z M575.836926,24.5305165 L598.143686,24.5305165 L598.143686,8.92018777 L575.836926,8.92018777 L575.836926,24.5305165 L575.836926,24.5305165 Z M602.605038,24.5305165 L624.911799,24.5305165 L624.911799,8.92018777 L602.605038,8.92018777 L602.605038,24.5305165 L602.605038,24.5305165 Z M629.37315,24.5305165 L651.679911,24.5305165 L651.679911,8.92018777 L629.37315,8.92018777 L629.37315,24.5305165 L629.37315,24.5305165 Z M656.141263,24.5305165 L678.448025,24.5305165 L678.448025,8.92018777 L656.141263,8.92018777 L656.141263,24.5305165 L656.141263,24.5305165 Z M682.909373,24.5305165 L705.216137,24.5305165 L705.216137,8.92018777 L682.909373,8.92018777 L682.909373,24.5305165 L682.909373,24.5305165 Z M709.677485,24.5305165 L731.98425,24.5305165 L731.98425,8.92018777 L709.677485,8.92018777 L709.677485,24.5305165 L709.677485,24.5305165 Z M736.445597,24.5305165 L758.752362,24.5305165 L758.752362,8.92018777 L736.445597,8.92018777 L736.445597,24.5305165 L736.445597,24.5305165 Z M763.21371,24.5305165 L785.520474,24.5305165 L785.520474,8.92018777 L763.21371,8.92018777 L763.21371,24.5305165 L763.21371,24.5305165 Z M716.369513,57.9812207 L709.677485,57.9812207 L709.677485,75.8575856 C711.964238,74.01943 714.321993,72.2492254 716.746676,70.5505759 L716.369513,70.5505759 L716.369513,57.9812207 L716.369513,57.9812207 Z M720.830867,57.9812207 L738.73593,57.9812207 C732.467709,60.8489034 726.483617,64.1351503 720.830867,67.7981777 L720.830867,57.9812207 L720.830867,57.9812207 Z M618.219771,57.9812207 L624.911799,57.9812207 L624.911799,75.8575856 C622.625047,74.01943 620.267293,72.2492254 617.842607,70.5505759 L618.219771,70.5505759 L618.219771,57.9812207 L618.219771,57.9812207 Z M613.758418,57.9812207 L595.853359,57.9812207 C602.121579,60.8489034 608.10567,64.1351503 613.758418,67.7981777 L613.758418,57.9812207 L613.758418,57.9812207 Z M687.370727,57.9812207 L694.062755,57.9812207 L694.062755,90.0128044 L694.679372,90.0128044 C692.094911,92.8817676 689.655426,95.8575423 687.370727,98.9314432 L687.370727,57.9812207 L687.370727,57.9812207 Z M682.909373,57.9812207 L676.217345,57.9812207 L676.217345,117.198111 C678.20754,113.132257 680.443755,109.182664 682.909373,105.364038 L682.909373,57.9812207 L682.909373,57.9812207 Z M647.218559,57.9812207 L640.526531,57.9812207 L640.526531,90.0128044 L639.909914,90.0128044 C642.494374,92.8817676 644.93386,95.8575423 647.218559,98.9314432 L647.218559,57.9812207 L647.218559,57.9812207 Z M651.679911,57.9812207 L658.371939,57.9812207 L658.371939,117.198111 C656.381749,113.132257 654.145534,109.182664 651.679911,105.364038 L651.679911,57.9812207 L651.679911,57.9812207 Z M698.524109,57.9812207 L705.216137,57.9812207 L705.216137,79.6091169 C702.901572,81.6449495 700.669299,83.7539676 698.524109,85.9319202 L698.524109,57.9812207 L698.524109,57.9812207 Z M636.065178,57.9812207 L629.37315,57.9812207 L629.37315,79.6091169 C631.68771,81.6449495 633.919987,83.7539676 636.065178,85.9319202 L636.065178,57.9812207 L636.065178,57.9812207 Z" id="Shape"></path>
                            <path d="M277.834503,24.5305165 L266.681122,24.5305165 L266.681122,57.9812207 C331.975445,57.9812207 384.906952,104.907244 384.906952,162.793427 L384.906952,189.55399 L416.136416,189.55399 L416.136416,162.793427 C416.136416,104.907244 469.067922,57.9812207 534.362245,57.9812207 L534.362245,24.5305165 L523.208865,24.5305165 L523.208865,8.92018777 L534.362245,8.92018777 L534.362245,0 L266.681122,0 L266.681122,8.92018777 L277.834503,8.92018777 L277.834503,24.5305165 L277.834503,24.5305165 Z M282.295854,24.5305165 L304.602615,24.5305165 L304.602615,8.92018777 L282.295854,8.92018777 L282.295854,24.5305165 L282.295854,24.5305165 Z M309.063967,24.5305165 L331.370727,24.5305165 L331.370727,8.92018777 L309.063967,8.92018777 L309.063967,24.5305165 L309.063967,24.5305165 Z M335.832079,24.5305165 L358.13884,24.5305165 L358.13884,8.92018777 L335.832079,8.92018777 L335.832079,24.5305165 L335.832079,24.5305165 Z M362.600191,24.5305165 L384.906952,24.5305165 L384.906952,8.92018777 L362.600191,8.92018777 L362.600191,24.5305165 L362.600191,24.5305165 Z M389.368303,24.5305165 L411.675064,24.5305165 L411.675064,8.92018777 L389.368303,8.92018777 L389.368303,24.5305165 L389.368303,24.5305165 Z M416.136416,24.5305165 L438.443176,24.5305165 L438.443176,8.92018777 L416.136416,8.92018777 L416.136416,24.5305165 L416.136416,24.5305165 Z M442.904528,24.5305165 L465.211288,24.5305165 L465.211288,8.92018777 L442.904528,8.92018777 L442.904528,24.5305165 L442.904528,24.5305165 Z M469.67264,24.5305165 L491.979401,24.5305165 L491.979401,8.92018777 L469.67264,8.92018777 L469.67264,24.5305165 L469.67264,24.5305165 Z M496.440752,24.5305165 L518.747513,24.5305165 L518.747513,8.92018777 L496.440752,8.92018777 L496.440752,24.5305165 L496.440752,24.5305165 Z M449.596556,57.9812207 L442.904528,57.9812207 L442.904528,75.8575856 C445.191279,74.01943 447.549034,72.2492254 449.973719,70.5505759 L449.596556,70.5505759 L449.596556,57.9812207 L449.596556,57.9812207 Z M454.057908,57.9812207 L471.962968,57.9812207 C465.694747,60.8489034 459.710656,64.1351503 454.057908,67.7981777 L454.057908,57.9812207 L454.057908,57.9812207 Z M351.446811,57.9812207 L358.13884,57.9812207 L358.13884,75.8575856 C355.852088,74.01943 353.494334,72.2492254 351.069648,70.5505759 L351.446811,70.5505759 L351.446811,57.9812207 L351.446811,57.9812207 Z M346.985459,57.9812207 L329.080399,57.9812207 C335.34862,60.8489034 341.332711,64.1351503 346.985459,67.7981777 L346.985459,57.9812207 L346.985459,57.9812207 Z M420.597768,57.9812207 L427.289796,57.9812207 L427.289796,90.0128044 L427.906413,90.0128044 C425.321953,92.8817676 422.882466,95.8575423 420.597768,98.9314432 L420.597768,57.9812207 L420.597768,57.9812207 Z M416.136416,57.9812207 L409.444388,57.9812207 L409.444388,117.198111 C411.434578,113.132257 413.670793,109.182664 416.136416,105.364038 L416.136416,57.9812207 L416.136416,57.9812207 Z M380.445599,57.9812207 L373.753571,57.9812207 L373.753571,90.0128044 L373.136955,90.0128044 C375.721414,92.8817676 378.160901,95.8575423 380.445599,98.9314432 L380.445599,57.9812207 L380.445599,57.9812207 Z M384.906952,57.9812207 L391.59898,57.9812207 L391.59898,117.198111 C389.608789,113.132257 387.372575,109.182664 384.906952,105.364038 L384.906952,57.9812207 L384.906952,57.9812207 Z M431.751148,57.9812207 L438.443176,57.9812207 L438.443176,79.6091169 C436.128617,81.6449495 433.896339,83.7539676 431.751148,85.9319202 L431.751148,57.9812207 L431.751148,57.9812207 Z M369.292219,57.9812207 L362.600191,57.9812207 L362.600191,79.6091169 C364.914751,81.6449495 367.147028,83.7539676 369.292219,85.9319202 L369.292219,57.9812207 L369.292219,57.9812207 Z" id="Shape"></path>
                            <path d="M11.1533801,24.5305165 L0,24.5305165 L0,57.9812207 C65.2943224,57.9812207 118.225829,104.907244 118.225829,162.793427 L118.225829,189.55399 L149.455293,189.55399 L149.455293,162.793427 C149.455293,104.907244 202.3868,57.9812207 267.681122,57.9812207 L267.681122,24.5305165 L256.527742,24.5305165 L256.527742,8.92018777 L267.681122,8.92018777 L267.681122,0 L0,0 L0,8.92018777 L11.1533801,8.92018777 L11.1533801,24.5305165 L11.1533801,24.5305165 Z M15.6147321,24.5305165 L37.9214924,24.5305165 L37.9214924,8.92018777 L15.6147321,8.92018777 L15.6147321,24.5305165 L15.6147321,24.5305165 Z M42.3828444,24.5305165 L64.6896046,24.5305165 L64.6896046,8.92018777 L42.3828444,8.92018777 L42.3828444,24.5305165 L42.3828444,24.5305165 Z M69.1509564,24.5305165 L91.4577171,24.5305165 L91.4577171,8.92018777 L69.1509564,8.92018777 L69.1509564,24.5305165 L69.1509564,24.5305165 Z M95.9190687,24.5305165 L118.225829,24.5305165 L118.225829,8.92018777 L95.9190687,8.92018777 L95.9190687,24.5305165 L95.9190687,24.5305165 Z M122.687181,24.5305165 L144.993942,24.5305165 L144.993942,8.92018777 L122.687181,8.92018777 L122.687181,24.5305165 L122.687181,24.5305165 Z M149.455293,24.5305165 L171.762054,24.5305165 L171.762054,8.92018777 L149.455293,8.92018777 L149.455293,24.5305165 L149.455293,24.5305165 Z M176.223405,24.5305165 L198.530166,24.5305165 L198.530166,8.92018777 L176.223405,8.92018777 L176.223405,24.5305165 L176.223405,24.5305165 Z M202.991518,24.5305165 L225.298278,24.5305165 L225.298278,8.92018777 L202.991518,8.92018777 L202.991518,24.5305165 L202.991518,24.5305165 Z M229.75963,24.5305165 L252.066391,24.5305165 L252.066391,8.92018777 L229.75963,8.92018777 L229.75963,24.5305165 L229.75963,24.5305165 Z M182.915433,57.9812207 L176.223405,57.9812207 L176.223405,75.8575856 C178.510157,74.01943 180.867911,72.2492254 183.292597,70.5505759 L182.915433,70.5505759 L182.915433,57.9812207 L182.915433,57.9812207 Z M187.376786,57.9812207 L205.281846,57.9812207 C199.013625,60.8489034 193.029534,64.1351503 187.376786,67.7981777 L187.376786,57.9812207 L187.376786,57.9812207 Z M84.765689,57.9812207 L91.4577171,57.9812207 L91.4577171,75.8575856 C89.1709654,74.01943 86.8132113,72.2492254 84.3885256,70.5505759 L84.765689,70.5505759 L84.765689,57.9812207 L84.765689,57.9812207 Z M80.3043367,57.9812207 L62.3992767,57.9812207 C68.6674975,60.8489034 74.6515887,64.1351503 80.3043367,67.7981777 L80.3043367,57.9812207 L80.3043367,57.9812207 Z M153.916645,57.9812207 L160.608673,57.9812207 L160.608673,90.0128044 L161.22529,90.0128044 C158.64083,92.8817676 156.201344,95.8575423 153.916645,98.9314432 L153.916645,57.9812207 L153.916645,57.9812207 Z M149.455293,57.9812207 L142.763265,57.9812207 L142.763265,117.198111 C144.753455,113.132257 146.98967,109.182664 149.455293,105.364038 L149.455293,57.9812207 L149.455293,57.9812207 Z M113.764477,57.9812207 L107.072449,57.9812207 L107.072449,90.0128044 L106.455832,90.0128044 C109.040292,92.8817676 111.479779,95.8575423 113.764477,98.9314432 L113.764477,57.9812207 L113.764477,57.9812207 Z M118.225829,57.9812207 L124.917857,57.9812207 L124.917857,117.198111 C122.927667,113.132257 120.691452,109.182664 118.225829,105.364038 L118.225829,57.9812207 L118.225829,57.9812207 Z M165.070026,57.9812207 L171.762054,57.9812207 L171.762054,79.6091169 C169.447494,81.6449495 167.215217,83.7539676 165.070026,85.9319202 L165.070026,57.9812207 L165.070026,57.9812207 Z M102.611097,57.9812207 L95.9190687,57.9812207 L95.9190687,79.6091169 C98.2336284,81.6449495 100.465906,83.7539676 102.611097,85.9319202 L102.611097,57.9812207 L102.611097,57.9812207 Z" id="Shape"></path>
                        </g>
                    </g>
                </g>
            </g>
        </g>
    </g>
</svg>
