<?xml version="1.0" encoding="UTF-8" standalone="no"?>
<svg width="1468px" height="209px" viewBox="0 0 1468 209" version="1.1" xmlns="http://www.w3.org/2000/svg" xmlns:xlink="http://www.w3.org/1999/xlink" xmlns:sketch="http://www.bohemiancoding.com/sketch/ns">
    <!-- Generator: Sketch 3.3.2 (12043) - http://www.bohemiancoding.com/sketch -->
    <title>bridge-md</title>
    <desc>Created with Sketch.</desc>
    <defs></defs>
    <g id="Page-1" stroke="none" stroke-width="1" fill="none" fill-rule="evenodd" sketch:type="MSPage">
        <g id="Desktop-HD" sketch:type="MSArtboardGroup" transform="translate(0.000000, -2159.000000)" fill="#FFFFFF">
            <g id="website-mock" sketch:type="MSLayerGroup" transform="translate(-138.000000, 0.000000)">
                <g id="schedule-section" transform="translate(0.000000, 1899.000000)" sketch:type="MSShapeGroup">
                    <g id="water-waves" transform="translate(0.000000, 260.000000)">
                        <g id="bridge-md" transform="translate(137.000000, 0.000000)">
                            <path d="M893.531252,26.9835681 L881.25,26.9835681 L881.25,63.7793427 C953.147122,63.7793427 1011.43125,115.397969 1011.43125,179.07277 L1011.43125,208.509389 L1045.81875,208.509389 L1045.81875,179.07277 C1045.81875,115.397969 1104.10288,63.7793427 1176,63.7793427 L1176,26.9835681 L1163.71875,26.9835681 L1163.71875,9.81220655 L1176,9.81220655 L1176,0 L881.25,0 L881.25,9.81220655 L893.531252,9.81220655 L893.531252,26.9835681 L893.531252,26.9835681 Z M898.443748,26.9835681 L923.006252,26.9835681 L923.006252,9.81220655 L898.443748,9.81220655 L898.443748,26.9835681 L898.443748,26.9835681 Z M927.918748,26.9835681 L952.481252,26.9835681 L952.481252,9.81220655 L927.918748,9.81220655 L927.918748,26.9835681 L927.918748,26.9835681 Z M957.393748,26.9835681 L981.956252,26.9835681 L981.956252,9.81220655 L957.393748,9.81220655 L957.393748,26.9835681 L957.393748,26.9835681 Z M986.868748,26.9835681 L1011.43125,26.9835681 L1011.43125,9.81220655 L986.868748,9.81220655 L986.868748,26.9835681 L986.868748,26.9835681 Z M1016.34375,26.9835681 L1040.90625,26.9835681 L1040.90625,9.81220655 L1016.34375,9.81220655 L1016.34375,26.9835681 L1016.34375,26.9835681 Z M1045.81875,26.9835681 L1070.38125,26.9835681 L1070.38125,9.81220655 L1045.81875,9.81220655 L1045.81875,26.9835681 L1045.81875,26.9835681 Z M1075.29375,26.9835681 L1099.85625,26.9835681 L1099.85625,9.81220655 L1075.29375,9.81220655 L1075.29375,26.9835681 L1075.29375,26.9835681 Z M1104.76875,26.9835681 L1129.33125,26.9835681 L1129.33125,9.81220655 L1104.76875,9.81220655 L1104.76875,26.9835681 L1104.76875,26.9835681 Z M1134.24375,26.9835681 L1158.80625,26.9835681 L1158.80625,9.81220655 L1134.24375,9.81220655 L1134.24375,26.9835681 L1134.24375,26.9835681 Z M1082.6625,63.7793427 L1075.29375,63.7793427 L1075.29375,83.4433442 C1077.81175,81.421373 1080.40793,79.4741479 1083.0778,77.6056335 L1082.6625,77.6056335 L1082.6625,63.7793427 L1082.6625,63.7793427 Z M1087.575,63.7793427 L1107.29069,63.7793427 C1100.3886,66.9337937 1093.79938,70.5486653 1087.575,74.5779954 L1087.575,63.7793427 L1087.575,63.7793427 Z M974.587502,63.7793427 L981.956252,63.7793427 L981.956252,83.4433442 C979.438255,81.421373 976.842075,79.4741479 974.1722,77.6056335 L974.587502,77.6056335 L974.587502,63.7793427 L974.587502,63.7793427 Z M969.675,63.7793427 L949.959313,63.7793427 C956.8614,66.9337937 963.450624,70.5486653 969.675,74.5779954 L969.675,63.7793427 L969.675,63.7793427 Z M1050.73125,63.7793427 L1058.1,63.7793427 L1058.1,99.0140848 L1058.77897,99.0140848 C1055.93316,102.169944 1053.24699,105.443296 1050.73125,108.824588 L1050.73125,63.7793427 L1050.73125,63.7793427 Z M1045.81875,63.7793427 L1038.45,63.7793427 L1038.45,128.917923 C1040.64145,124.445482 1043.1038,120.10093 1045.81875,115.900442 L1045.81875,63.7793427 L1045.81875,63.7793427 Z M1006.51875,63.7793427 L999.15,63.7793427 L999.15,99.0140848 L998.471029,99.0140848 C1001.31684,102.169944 1004.00301,105.443296 1006.51875,108.824588 L1006.51875,63.7793427 L1006.51875,63.7793427 Z M1011.43125,63.7793427 L1018.8,63.7793427 L1018.8,128.917923 C1016.60855,124.445482 1014.1462,120.10093 1011.43125,115.900442 L1011.43125,63.7793427 L1011.43125,63.7793427 Z M1063.0125,63.7793427 L1070.38125,63.7793427 L1070.38125,87.5700286 C1067.83263,89.8094445 1065.37462,92.1293643 1063.0125,94.5251122 L1063.0125,63.7793427 L1063.0125,63.7793427 Z M994.237498,63.7793427 L986.868748,63.7793427 L986.868748,87.5700286 C989.41737,89.8094445 991.875378,92.1293643 994.237498,94.5251122 L994.237498,63.7793427 L994.237498,63.7793427 Z" id="Shape"></path>
                            <path d="M1186.53125,26.9835681 L1174.25,26.9835681 L1174.25,63.7793427 C1246.14712,63.7793427 1304.43125,115.397969 1304.43125,179.07277 L1304.43125,208.509389 L1338.81875,208.509389 L1338.81875,179.07277 C1338.81875,115.397969 1397.10288,63.7793427 1469,63.7793427 L1469,26.9835681 L1456.71875,26.9835681 L1456.71875,9.81220655 L1469,9.81220655 L1469,0 L1174.25,0 L1174.25,9.81220655 L1186.53125,9.81220655 L1186.53125,26.9835681 L1186.53125,26.9835681 Z M1191.44375,26.9835681 L1216.00625,26.9835681 L1216.00625,9.81220655 L1191.44375,9.81220655 L1191.44375,26.9835681 L1191.44375,26.9835681 Z M1220.91875,26.9835681 L1245.48125,26.9835681 L1245.48125,9.81220655 L1220.91875,9.81220655 L1220.91875,26.9835681 L1220.91875,26.9835681 Z M1250.39375,26.9835681 L1274.95625,26.9835681 L1274.95625,9.81220655 L1250.39375,9.81220655 L1250.39375,26.9835681 L1250.39375,26.9835681 Z M1279.86875,26.9835681 L1304.43125,26.9835681 L1304.43125,9.81220655 L1279.86875,9.81220655 L1279.86875,26.9835681 L1279.86875,26.9835681 Z M1309.34375,26.9835681 L1333.90625,26.9835681 L1333.90625,9.81220655 L1309.34375,9.81220655 L1309.34375,26.9835681 L1309.34375,26.9835681 Z M1338.81875,26.9835681 L1363.38125,26.9835681 L1363.38125,9.81220655 L1338.81875,9.81220655 L1338.81875,26.9835681 L1338.81875,26.9835681 Z M1368.29375,26.9835681 L1392.85625,26.9835681 L1392.85625,9.81220655 L1368.29375,9.81220655 L1368.29375,26.9835681 L1368.29375,26.9835681 Z M1397.76875,26.9835681 L1422.33125,26.9835681 L1422.33125,9.81220655 L1397.76875,9.81220655 L1397.76875,26.9835681 L1397.76875,26.9835681 Z M1427.24375,26.9835681 L1451.80625,26.9835681 L1451.80625,9.81220655 L1427.24375,9.81220655 L1427.24375,26.9835681 L1427.24375,26.9835681 Z M1375.6625,63.7793427 L1368.29375,63.7793427 L1368.29375,83.4433442 C1370.81175,81.421373 1373.40793,79.4741479 1376.0778,77.6056335 L1375.6625,77.6056335 L1375.6625,63.7793427 L1375.6625,63.7793427 Z M1380.575,63.7793427 L1400.29069,63.7793427 C1393.3886,66.9337937 1386.79938,70.5486653 1380.575,74.5779954 L1380.575,63.7793427 L1380.575,63.7793427 Z M1267.5875,63.7793427 L1274.95625,63.7793427 L1274.95625,83.4433442 C1272.43825,81.421373 1269.84207,79.4741479 1267.1722,77.6056335 L1267.5875,77.6056335 L1267.5875,63.7793427 L1267.5875,63.7793427 Z M1262.675,63.7793427 L1242.95931,63.7793427 C1249.8614,66.9337937 1256.45062,70.5486653 1262.675,74.5779954 L1262.675,63.7793427 L1262.675,63.7793427 Z M1343.73125,63.7793427 L1351.1,63.7793427 L1351.1,99.0140848 L1351.77897,99.0140848 C1348.93316,102.169944 1346.24699,105.443296 1343.73125,108.824588 L1343.73125,63.7793427 L1343.73125,63.7793427 Z M1338.81875,63.7793427 L1331.45,63.7793427 L1331.45,128.917923 C1333.64145,124.445482 1336.1038,120.10093 1338.81875,115.900442 L1338.81875,63.7793427 L1338.81875,63.7793427 Z M1299.51875,63.7793427 L1292.15,63.7793427 L1292.15,99.0140848 L1291.47103,99.0140848 C1294.31684,102.169944 1297.00301,105.443296 1299.51875,108.824588 L1299.51875,63.7793427 L1299.51875,63.7793427 Z M1304.43125,63.7793427 L1311.8,63.7793427 L1311.8,128.917923 C1309.60855,124.445482 1307.1462,120.10093 1304.43125,115.900442 L1304.43125,63.7793427 L1304.43125,63.7793427 Z M1356.0125,63.7793427 L1363.38125,63.7793427 L1363.38125,87.5700286 C1360.83263,89.8094445 1358.37462,92.1293643 1356.0125,94.5251122 L1356.0125,63.7793427 L1356.0125,63.7793427 Z M1287.2375,63.7793427 L1279.86875,63.7793427 L1279.86875,87.5700286 C1282.41737,89.8094445 1284.87538,92.1293643 1287.2375,94.5251122 L1287.2375,63.7793427 L1287.2375,63.7793427 Z" id="Shape-Copy"></path>
                            <path d="M599.78125,26.9835681 L587.5,26.9835681 L587.5,63.7793427 C659.397119,63.7793427 717.68125,115.397969 717.68125,179.07277 L717.68125,208.509389 L752.068748,208.509389 L752.068748,179.07277 C752.068748,115.397969 810.352878,63.7793427 882.25,63.7793427 L882.25,26.9835681 L869.968748,26.9835681 L869.968748,9.81220655 L882.25,9.81220655 L882.25,0 L587.5,0 L587.5,9.81220655 L599.78125,9.81220655 L599.78125,26.9835681 L599.78125,26.9835681 Z M604.69375,26.9835681 L629.25625,26.9835681 L629.25625,9.81220655 L604.69375,9.81220655 L604.69375,26.9835681 L604.69375,26.9835681 Z M634.16875,26.9835681 L658.73125,26.9835681 L658.73125,9.81220655 L634.16875,9.81220655 L634.16875,26.9835681 L634.16875,26.9835681 Z M663.64375,26.9835681 L688.20625,26.9835681 L688.20625,9.81220655 L663.64375,9.81220655 L663.64375,26.9835681 L663.64375,26.9835681 Z M693.11875,26.9835681 L717.68125,26.9835681 L717.68125,9.81220655 L693.11875,9.81220655 L693.11875,26.9835681 L693.11875,26.9835681 Z M722.59375,26.9835681 L747.156252,26.9835681 L747.156252,9.81220655 L722.59375,9.81220655 L722.59375,26.9835681 L722.59375,26.9835681 Z M752.068748,26.9835681 L776.631252,26.9835681 L776.631252,9.81220655 L752.068748,9.81220655 L752.068748,26.9835681 L752.068748,26.9835681 Z M781.543748,26.9835681 L806.106252,26.9835681 L806.106252,9.81220655 L781.543748,9.81220655 L781.543748,26.9835681 L781.543748,26.9835681 Z M811.018748,26.9835681 L835.581252,26.9835681 L835.581252,9.81220655 L811.018748,9.81220655 L811.018748,26.9835681 L811.018748,26.9835681 Z M840.493748,26.9835681 L865.056252,26.9835681 L865.056252,9.81220655 L840.493748,9.81220655 L840.493748,26.9835681 L840.493748,26.9835681 Z M788.912498,63.7793427 L781.543748,63.7793427 L781.543748,83.4433442 C784.061745,81.421373 786.657925,79.4741479 789.3278,77.6056335 L788.912498,77.6056335 L788.912498,63.7793427 L788.912498,63.7793427 Z M793.825,63.7793427 L813.540687,63.7793427 C806.6386,66.9337937 800.049376,70.5486653 793.825,74.5779954 L793.825,63.7793427 L793.825,63.7793427 Z M680.8375,63.7793427 L688.20625,63.7793427 L688.20625,83.4433442 C685.688254,81.421373 683.092075,79.4741479 680.422197,77.6056335 L680.8375,77.6056335 L680.8375,63.7793427 L680.8375,63.7793427 Z M675.925,63.7793427 L656.209316,63.7793427 C663.111402,66.9337937 669.700626,70.5486653 675.925,74.5779954 L675.925,63.7793427 L675.925,63.7793427 Z M756.98125,63.7793427 L764.35,63.7793427 L764.35,99.0140848 L765.028971,99.0140848 C762.18316,102.169944 759.496985,105.443296 756.98125,108.824588 L756.98125,63.7793427 L756.98125,63.7793427 Z M752.068748,63.7793427 L744.699998,63.7793427 L744.699998,128.917923 C746.891449,124.445482 749.353798,120.10093 752.068748,115.900442 L752.068748,63.7793427 L752.068748,63.7793427 Z M712.76875,63.7793427 L705.4,63.7793427 L705.4,99.0140848 L704.721029,99.0140848 C707.566838,102.169944 710.253015,105.443296 712.76875,108.824588 L712.76875,63.7793427 L712.76875,63.7793427 Z M717.68125,63.7793427 L725.05,63.7793427 L725.05,128.917923 C722.858555,124.445482 720.396206,120.10093 717.68125,115.900442 L717.68125,63.7793427 L717.68125,63.7793427 Z M769.262502,63.7793427 L776.631252,63.7793427 L776.631252,87.5700286 C774.08263,89.8094445 771.624622,92.1293643 769.262502,94.5251122 L769.262502,63.7793427 L769.262502,63.7793427 Z M700.4875,63.7793427 L693.11875,63.7793427 L693.11875,87.5700286 C695.667366,89.8094445 698.125379,92.1293643 700.4875,94.5251122 L700.4875,63.7793427 L700.4875,63.7793427 Z" id="Shape"></path>
                            <path d="M306.03125,26.9835681 L293.75,26.9835681 L293.75,63.7793427 C365.647119,63.7793427 423.93125,115.397969 423.93125,179.07277 L423.93125,208.509389 L458.31875,208.509389 L458.31875,179.07277 C458.31875,115.397969 516.602881,63.7793427 588.5,63.7793427 L588.5,26.9835681 L576.21875,26.9835681 L576.21875,9.81220655 L588.5,9.81220655 L588.5,0 L293.75,0 L293.75,9.81220655 L306.03125,9.81220655 L306.03125,26.9835681 L306.03125,26.9835681 Z M310.94375,26.9835681 L335.50625,26.9835681 L335.50625,9.81220655 L310.94375,9.81220655 L310.94375,26.9835681 L310.94375,26.9835681 Z M340.41875,26.9835681 L364.98125,26.9835681 L364.98125,9.81220655 L340.41875,9.81220655 L340.41875,26.9835681 L340.41875,26.9835681 Z M369.89375,26.9835681 L394.45625,26.9835681 L394.45625,9.81220655 L369.89375,9.81220655 L369.89375,26.9835681 L369.89375,26.9835681 Z M399.36875,26.9835681 L423.93125,26.9835681 L423.93125,9.81220655 L399.36875,9.81220655 L399.36875,26.9835681 L399.36875,26.9835681 Z M428.84375,26.9835681 L453.40625,26.9835681 L453.40625,9.81220655 L428.84375,9.81220655 L428.84375,26.9835681 L428.84375,26.9835681 Z M458.31875,26.9835681 L482.88125,26.9835681 L482.88125,9.81220655 L458.31875,9.81220655 L458.31875,26.9835681 L458.31875,26.9835681 Z M487.79375,26.9835681 L512.35625,26.9835681 L512.35625,9.81220655 L487.79375,9.81220655 L487.79375,26.9835681 L487.79375,26.9835681 Z M517.26875,26.9835681 L541.83125,26.9835681 L541.83125,9.81220655 L517.26875,9.81220655 L517.26875,26.9835681 L517.26875,26.9835681 Z M546.74375,26.9835681 L571.30625,26.9835681 L571.30625,9.81220655 L546.74375,9.81220655 L546.74375,26.9835681 L546.74375,26.9835681 Z M495.1625,63.7793427 L487.79375,63.7793427 L487.79375,83.4433442 C490.311746,81.421373 492.907925,79.4741479 495.577803,77.6056335 L495.1625,77.6056335 L495.1625,63.7793427 L495.1625,63.7793427 Z M500.075,63.7793427 L519.790684,63.7793427 C512.888598,66.9337937 506.299374,70.5486653 500.075,74.5779954 L500.075,63.7793427 L500.075,63.7793427 Z M387.0875,63.7793427 L394.45625,63.7793427 L394.45625,83.4433442 C391.938254,81.421373 389.342075,79.4741479 386.672197,77.6056335 L387.0875,77.6056335 L387.0875,63.7793427 L387.0875,63.7793427 Z M382.175,63.7793427 L362.459316,63.7793427 C369.361402,66.9337937 375.950626,70.5486653 382.175,74.5779954 L382.175,63.7793427 L382.175,63.7793427 Z M463.23125,63.7793427 L470.6,63.7793427 L470.6,99.0140848 L471.278971,99.0140848 C468.433162,102.169944 465.746985,105.443296 463.23125,108.824588 L463.23125,63.7793427 L463.23125,63.7793427 Z M458.31875,63.7793427 L450.95,63.7793427 L450.95,128.917923 C453.141445,124.445482 455.603794,120.10093 458.31875,115.900442 L458.31875,63.7793427 L458.31875,63.7793427 Z M419.01875,63.7793427 L411.65,63.7793427 L411.65,99.0140848 L410.971029,99.0140848 C413.816838,102.169944 416.503015,105.443296 419.01875,108.824588 L419.01875,63.7793427 L419.01875,63.7793427 Z M423.93125,63.7793427 L431.3,63.7793427 L431.3,128.917923 C429.108555,124.445482 426.646206,120.10093 423.93125,115.900442 L423.93125,63.7793427 L423.93125,63.7793427 Z M475.5125,63.7793427 L482.88125,63.7793427 L482.88125,87.5700286 C480.332634,89.8094445 477.874621,92.1293643 475.5125,94.5251122 L475.5125,63.7793427 L475.5125,63.7793427 Z M406.7375,63.7793427 L399.36875,63.7793427 L399.36875,87.5700286 C401.917366,89.8094445 404.375379,92.1293643 406.7375,94.5251122 L406.7375,63.7793427 L406.7375,63.7793427 Z" id="Shape"></path>
                            <path d="M12.28125,26.9835681 L0,26.9835681 L0,63.7793427 C71.897119,63.7793427 130.18125,115.397969 130.18125,179.07277 L130.18125,208.509389 L164.56875,208.509389 L164.56875,179.07277 C164.56875,115.397969 222.852881,63.7793427 294.75,63.7793427 L294.75,26.9835681 L282.46875,26.9835681 L282.46875,9.81220655 L294.75,9.81220655 L294.75,0 L0,0 L0,9.81220655 L12.28125,9.81220655 L12.28125,26.9835681 L12.28125,26.9835681 Z M17.19375,26.9835681 L41.75625,26.9835681 L41.75625,9.81220655 L17.19375,9.81220655 L17.19375,26.9835681 L17.19375,26.9835681 Z M46.66875,26.9835681 L71.23125,26.9835681 L71.23125,9.81220655 L46.66875,9.81220655 L46.66875,26.9835681 L46.66875,26.9835681 Z M76.1437498,26.9835681 L100.70625,26.9835681 L100.70625,9.81220655 L76.1437498,9.81220655 L76.1437498,26.9835681 L76.1437498,26.9835681 Z M105.61875,26.9835681 L130.18125,26.9835681 L130.18125,9.81220655 L105.61875,9.81220655 L105.61875,26.9835681 L105.61875,26.9835681 Z M135.09375,26.9835681 L159.65625,26.9835681 L159.65625,9.81220655 L135.09375,9.81220655 L135.09375,26.9835681 L135.09375,26.9835681 Z M164.56875,26.9835681 L189.13125,26.9835681 L189.13125,9.81220655 L164.56875,9.81220655 L164.56875,26.9835681 L164.56875,26.9835681 Z M194.04375,26.9835681 L218.60625,26.9835681 L218.60625,9.81220655 L194.04375,9.81220655 L194.04375,26.9835681 L194.04375,26.9835681 Z M223.51875,26.9835681 L248.08125,26.9835681 L248.08125,9.81220655 L223.51875,9.81220655 L223.51875,26.9835681 L223.51875,26.9835681 Z M252.99375,26.9835681 L277.55625,26.9835681 L277.55625,9.81220655 L252.99375,9.81220655 L252.99375,26.9835681 L252.99375,26.9835681 Z M201.4125,63.7793427 L194.04375,63.7793427 L194.04375,83.4433442 C196.561746,81.421373 199.157925,79.4741479 201.827803,77.6056335 L201.4125,77.6056335 L201.4125,63.7793427 L201.4125,63.7793427 Z M206.325,63.7793427 L226.040684,63.7793427 C219.138598,66.9337937 212.549374,70.5486653 206.325,74.5779954 L206.325,63.7793427 L206.325,63.7793427 Z M93.3375002,63.7793427 L100.70625,63.7793427 L100.70625,83.4433442 C98.1882541,81.421373 95.5920754,79.4741479 92.9221968,77.6056335 L93.3375002,77.6056335 L93.3375002,63.7793427 L93.3375002,63.7793427 Z M88.425,63.7793427 L68.709316,63.7793427 C75.6114018,66.9337937 82.2006257,70.5486653 88.425,74.5779954 L88.425,63.7793427 L88.425,63.7793427 Z M169.48125,63.7793427 L176.85,63.7793427 L176.85,99.0140848 L177.528971,99.0140848 C174.683162,102.169944 171.996985,105.443296 169.48125,108.824588 L169.48125,63.7793427 L169.48125,63.7793427 Z M164.56875,63.7793427 L157.2,63.7793427 L157.2,128.917923 C159.391445,124.445482 161.853794,120.10093 164.56875,115.900442 L164.56875,63.7793427 L164.56875,63.7793427 Z M125.26875,63.7793427 L117.9,63.7793427 L117.9,99.0140848 L117.221029,99.0140848 C120.066838,102.169944 122.753015,105.443296 125.26875,108.824588 L125.26875,63.7793427 L125.26875,63.7793427 Z M130.18125,63.7793427 L137.55,63.7793427 L137.55,128.917923 C135.358555,124.445482 132.896206,120.10093 130.18125,115.900442 L130.18125,63.7793427 L130.18125,63.7793427 Z M181.7625,63.7793427 L189.13125,63.7793427 L189.13125,87.5700286 C186.582634,89.8094445 184.124621,92.1293643 181.7625,94.5251122 L181.7625,63.7793427 L181.7625,63.7793427 Z M112.9875,63.7793427 L105.61875,63.7793427 L105.61875,87.5700286 C108.167366,89.8094445 110.625379,92.1293643 112.9875,94.5251122 L112.9875,63.7793427 L112.9875,63.7793427 Z" id="Shape"></path>
                        </g>
                    </g>
                </g>
            </g>
        </g>
    </g>
</svg>
