<?xml version="1.0" encoding="UTF-8" standalone="no"?>
<svg width="475px" height="142px" viewBox="0 0 475 142" version="1.1" xmlns="http://www.w3.org/2000/svg" xmlns:xlink="http://www.w3.org/1999/xlink" xmlns:sketch="http://www.bohemiancoding.com/sketch/ns">
    <!-- Generator: Sketch 3.3.3 (12081) - http://www.bohemiancoding.com/sketch -->
    <title>Slice 1</title>
    <desc>Created with Sketch.</desc>
    <defs></defs>
    <g id="Page-1" stroke="none" stroke-width="1" fill="none" fill-rule="evenodd" sketch:type="MSPage">
        <g id="bridge" sketch:type="MSLayerGroup">
            <g id="Page-1" sketch:type="MSShapeGroup">
                <g id="Artboard-1">
                    <g id="Group">
                        <rect id="Rectangle-1" x="0" y="0" width="475" height="142"></rect>
                        <path d="M5,13.7176471 L0,13.7176471 L0,32.4235294 C29.2710917,32.4235294 53,58.6649104 53,91.0352941 L53,106 L67,106 L67,91.0352941 C67,58.6649104 90.7289083,32.4235294 120,32.4235294 L120,13.7176471 L115,13.7176471 L115,4.98823529 L120,4.98823529 L120,0 L0,0 L0,4.98823529 L5,4.98823529 L5,13.7176471 L5,13.7176471 Z M7,13.7516666 L17,13.7516666 L17,5.00060603 L7,5.00060603 L7,13.7516666 L7,13.7516666 Z M19,13.7516666 L29,13.7516666 L29,5.00060603 L19,5.00060603 L19,13.7516666 L19,13.7516666 Z M31,13.7516666 L41,13.7516666 L41,5.00060603 L31,5.00060603 L31,13.7516666 L31,13.7516666 Z M43,13.7516666 L53,13.7516666 L53,5.00060603 L43,5.00060603 L43,13.7516666 L43,13.7516666 Z M55,13.7516666 L65,13.7516666 L65,5.00060603 L55,5.00060603 L55,13.7516666 L55,13.7516666 Z M67,13.7516666 L77,13.7516666 L77,5.00060603 L67,5.00060603 L67,13.7516666 L67,13.7516666 Z M79,13.7516666 L89,13.7516666 L89,5.00060603 L79,5.00060603 L79,13.7516666 L79,13.7516666 Z M91,13.7516666 L101,13.7516666 L101,5.00060603 L91,5.00060603 L91,13.7516666 L91,13.7516666 Z M103,13.7516666 L113,13.7516666 L113,5.00060603 L103,5.00060603 L103,13.7516666 L103,13.7516666 Z M82,32.5039392 L79,32.5039392 L79,42.5253267 C80.0251382,41.494867 81.0821067,40.5025006 82.1690801,39.5502476 L82,39.5502476 L82,32.5039392 L82,32.5039392 Z M84,32.5039392 L92.0267416,32.5039392 C89.2167322,34.1115456 86.5340964,35.9537968 84,38.0072687 L84,32.5039392 L84,32.5039392 Z M38,32.5039392 L41,32.5039392 L41,42.5253267 C39.9748618,41.494867 38.9178933,40.5025006 37.8309199,39.5502476 L38,39.5502476 L38,32.5039392 L38,32.5039392 Z M36,32.5039392 L27.9732584,32.5039392 C30.7832678,34.1115456 33.4659036,35.9537968 36,38.0072687 L36,32.5039392 L36,32.5039392 Z M69,32.5039392 L72,32.5039392 L72,50.4606608 L72.276426,50.4606608 C71.1178265,52.0689853 70.024218,53.7371876 69,55.4603986 L69,32.5039392 L69,32.5039392 Z M67,32.5039392 L64,32.5039392 L64,65.7005878 C64.8921916,63.4212931 65.8946746,61.207174 67,59.0664745 L67,32.5039392 L67,32.5039392 Z M51,32.5039392 L48,32.5039392 L48,50.4606608 L47.723574,50.4606608 C48.8821735,52.0689853 49.975782,53.7371876 51,55.4603986 L51,32.5039392 L51,32.5039392 Z M53,32.5039392 L56,32.5039392 L56,65.7005878 C55.1078084,63.4212931 54.1053254,61.207174 53,59.0664745 L53,32.5039392 L53,32.5039392 Z M74,32.5039392 L77,32.5039392 L77,44.6284134 C75.9623954,45.7696895 74.9616777,46.9519929 74,48.1729406 L74,32.5039392 L74,32.5039392 Z M46,32.5039392 L43,32.5039392 L43,44.6284134 C44.0376046,45.7696895 45.0383223,46.9519929 46,48.1729406 L46,32.5039392 Z M53,106 L67,106 L67,142 L53,142 L53,106 Z" id="bridge" fill="#FFFFFF"></path>
                        <path d="M124,13.7176471 L119,13.7176471 L119,32.4235294 C148.271092,32.4235294 172,58.6649104 172,91.0352941 L172,106 L186,106 L186,91.0352941 C186,58.6649104 209.728908,32.4235294 239,32.4235294 L239,13.7176471 L234,13.7176471 L234,4.98823529 L239,4.98823529 L239,0 L119,0 L119,4.98823529 L124,4.98823529 L124,13.7176471 L124,13.7176471 Z M126,13.7516666 L136,13.7516666 L136,5.00060603 L126,5.00060603 L126,13.7516666 L126,13.7516666 Z M138,13.7516666 L148,13.7516666 L148,5.00060603 L138,5.00060603 L138,13.7516666 L138,13.7516666 Z M150,13.7516666 L160,13.7516666 L160,5.00060603 L150,5.00060603 L150,13.7516666 L150,13.7516666 Z M162,13.7516666 L172,13.7516666 L172,5.00060603 L162,5.00060603 L162,13.7516666 L162,13.7516666 Z M174,13.7516666 L184,13.7516666 L184,5.00060603 L174,5.00060603 L174,13.7516666 L174,13.7516666 Z M186,13.7516666 L196,13.7516666 L196,5.00060603 L186,5.00060603 L186,13.7516666 L186,13.7516666 Z M198,13.7516666 L208,13.7516666 L208,5.00060603 L198,5.00060603 L198,13.7516666 L198,13.7516666 Z M210,13.7516666 L220,13.7516666 L220,5.00060603 L210,5.00060603 L210,13.7516666 L210,13.7516666 Z M222,13.7516666 L232,13.7516666 L232,5.00060603 L222,5.00060603 L222,13.7516666 L222,13.7516666 Z M201,32.5039392 L198,32.5039392 L198,42.5253267 C199.025138,41.494867 200.082107,40.5025006 201.16908,39.5502476 L201,39.5502476 L201,32.5039392 L201,32.5039392 Z M203,32.5039392 L211.026742,32.5039392 C208.216732,34.1115456 205.534096,35.9537968 203,38.0072687 L203,32.5039392 L203,32.5039392 Z M157,32.5039392 L160,32.5039392 L160,42.5253267 C158.974862,41.494867 157.917893,40.5025006 156.83092,39.5502476 L157,39.5502476 L157,32.5039392 L157,32.5039392 Z M155,32.5039392 L146.973258,32.5039392 C149.783268,34.1115456 152.465904,35.9537968 155,38.0072687 L155,32.5039392 L155,32.5039392 Z M188,32.5039392 L191,32.5039392 L191,50.4606608 L191.276426,50.4606608 C190.117827,52.0689853 189.024218,53.7371876 188,55.4603986 L188,32.5039392 L188,32.5039392 Z M186,32.5039392 L183,32.5039392 L183,65.7005878 C183.892192,63.4212931 184.894675,61.207174 186,59.0664745 L186,32.5039392 L186,32.5039392 Z M170,32.5039392 L167,32.5039392 L167,50.4606608 L166.723574,50.4606608 C167.882173,52.0689853 168.975782,53.7371876 170,55.4603986 L170,32.5039392 L170,32.5039392 Z M172,32.5039392 L175,32.5039392 L175,65.7005878 C174.107808,63.4212931 173.105325,61.207174 172,59.0664745 L172,32.5039392 L172,32.5039392 Z M193,32.5039392 L196,32.5039392 L196,44.6284134 C194.962395,45.7696895 193.961678,46.9519929 193,48.1729406 L193,32.5039392 L193,32.5039392 Z M165,32.5039392 L162,32.5039392 L162,44.6284134 C163.037605,45.7696895 164.038322,46.9519929 165,48.1729406 L165,32.5039392 Z M172,106 L186,106 L186,142 L172,142 L172,106 Z" id="bridge-copy" fill="#FFFFFF"></path>
                        <path d="M360,13.7176471 L355,13.7176471 L355,32.4235294 C384.271092,32.4235294 408,58.6649104 408,91.0352941 L408,106 L422,106 L422,91.0352941 C422,58.6649104 445.728908,32.4235294 475,32.4235294 L475,13.7176471 L470,13.7176471 L470,4.98823529 L475,4.98823529 L475,0 L355,0 L355,4.98823529 L360,4.98823529 L360,13.7176471 L360,13.7176471 Z M362,13.7516666 L372,13.7516666 L372,5.00060603 L362,5.00060603 L362,13.7516666 L362,13.7516666 Z M374,13.7516666 L384,13.7516666 L384,5.00060603 L374,5.00060603 L374,13.7516666 L374,13.7516666 Z M386,13.7516666 L396,13.7516666 L396,5.00060603 L386,5.00060603 L386,13.7516666 L386,13.7516666 Z M398,13.7516666 L408,13.7516666 L408,5.00060603 L398,5.00060603 L398,13.7516666 L398,13.7516666 Z M410,13.7516666 L420,13.7516666 L420,5.00060603 L410,5.00060603 L410,13.7516666 L410,13.7516666 Z M422,13.7516666 L432,13.7516666 L432,5.00060603 L422,5.00060603 L422,13.7516666 L422,13.7516666 Z M434,13.7516666 L444,13.7516666 L444,5.00060603 L434,5.00060603 L434,13.7516666 L434,13.7516666 Z M446,13.7516666 L456,13.7516666 L456,5.00060603 L446,5.00060603 L446,13.7516666 L446,13.7516666 Z M458,13.7516666 L468,13.7516666 L468,5.00060603 L458,5.00060603 L458,13.7516666 L458,13.7516666 Z M437,32.5039392 L434,32.5039392 L434,42.5253267 C435.025138,41.494867 436.082107,40.5025006 437.16908,39.5502476 L437,39.5502476 L437,32.5039392 L437,32.5039392 Z M439,32.5039392 L447.026742,32.5039392 C444.216732,34.1115456 441.534096,35.9537968 439,38.0072687 L439,32.5039392 L439,32.5039392 Z M393,32.5039392 L396,32.5039392 L396,42.5253267 C394.974862,41.494867 393.917893,40.5025006 392.83092,39.5502476 L393,39.5502476 L393,32.5039392 L393,32.5039392 Z M391,32.5039392 L382.973258,32.5039392 C385.783268,34.1115456 388.465904,35.9537968 391,38.0072687 L391,32.5039392 L391,32.5039392 Z M424,32.5039392 L427,32.5039392 L427,50.4606608 L427.276426,50.4606608 C426.117826,52.0689853 425.024218,53.7371876 424,55.4603986 L424,32.5039392 L424,32.5039392 Z M422,32.5039392 L419,32.5039392 L419,65.7005878 C419.892192,63.4212931 420.894675,61.207174 422,59.0664745 L422,32.5039392 L422,32.5039392 Z M406,32.5039392 L403,32.5039392 L403,50.4606608 L402.723574,50.4606608 C403.882173,52.0689853 404.975782,53.7371876 406,55.4603986 L406,32.5039392 L406,32.5039392 Z M408,32.5039392 L411,32.5039392 L411,65.7005878 C410.107808,63.4212931 409.105325,61.207174 408,59.0664745 L408,32.5039392 L408,32.5039392 Z M429,32.5039392 L432,32.5039392 L432,44.6284134 C430.962395,45.7696895 429.961678,46.9519929 429,48.1729406 L429,32.5039392 L429,32.5039392 Z M401,32.5039392 L398,32.5039392 L398,44.6284134 C399.037605,45.7696895 400.038322,46.9519929 401,48.1729406 L401,32.5039392 Z M408,106 L422,106 L422,142 L408,142 L408,106 Z" id="bridge-copy-2" fill="#FFFFFF"></path>
                        <path d="M243,13.7176471 L238,13.7176471 L238,32.4235294 C267.271092,32.4235294 291,58.6649104 291,91.0352941 L291,106 L305,106 L305,91.0352941 C305,58.6649104 328.728908,32.4235294 358,32.4235294 L358,13.7176471 L353,13.7176471 L353,4.98823529 L358,4.98823529 L358,0 L238,0 L238,4.98823529 L243,4.98823529 L243,13.7176471 L243,13.7176471 Z M245,13.7516666 L255,13.7516666 L255,5.00060603 L245,5.00060603 L245,13.7516666 L245,13.7516666 Z M257,13.7516666 L267,13.7516666 L267,5.00060603 L257,5.00060603 L257,13.7516666 L257,13.7516666 Z M269,13.7516666 L279,13.7516666 L279,5.00060603 L269,5.00060603 L269,13.7516666 L269,13.7516666 Z M281,13.7516666 L291,13.7516666 L291,5.00060603 L281,5.00060603 L281,13.7516666 L281,13.7516666 Z M293,13.7516666 L303,13.7516666 L303,5.00060603 L293,5.00060603 L293,13.7516666 L293,13.7516666 Z M305,13.7516666 L315,13.7516666 L315,5.00060603 L305,5.00060603 L305,13.7516666 L305,13.7516666 Z M317,13.7516666 L327,13.7516666 L327,5.00060603 L317,5.00060603 L317,13.7516666 L317,13.7516666 Z M329,13.7516666 L339,13.7516666 L339,5.00060603 L329,5.00060603 L329,13.7516666 L329,13.7516666 Z M341,13.7516666 L351,13.7516666 L351,5.00060603 L341,5.00060603 L341,13.7516666 L341,13.7516666 Z M320,32.5039392 L317,32.5039392 L317,42.5253267 C318.025138,41.494867 319.082107,40.5025006 320.16908,39.5502476 L320,39.5502476 L320,32.5039392 L320,32.5039392 Z M322,32.5039392 L330.026742,32.5039392 C327.216732,34.1115456 324.534096,35.9537968 322,38.0072687 L322,32.5039392 L322,32.5039392 Z M276,32.5039392 L279,32.5039392 L279,42.5253267 C277.974862,41.494867 276.917893,40.5025006 275.83092,39.5502476 L276,39.5502476 L276,32.5039392 L276,32.5039392 Z M274,32.5039392 L265.973258,32.5039392 C268.783268,34.1115456 271.465904,35.9537968 274,38.0072687 L274,32.5039392 L274,32.5039392 Z M307,32.5039392 L310,32.5039392 L310,50.4606608 L310.276426,50.4606608 C309.117826,52.0689853 308.024218,53.7371876 307,55.4603986 L307,32.5039392 L307,32.5039392 Z M305,32.5039392 L302,32.5039392 L302,65.7005878 C302.892192,63.4212931 303.894675,61.207174 305,59.0664745 L305,32.5039392 L305,32.5039392 Z M289,32.5039392 L286,32.5039392 L286,50.4606608 L285.723574,50.4606608 C286.882173,52.0689853 287.975782,53.7371876 289,55.4603986 L289,32.5039392 L289,32.5039392 Z M291,32.5039392 L294,32.5039392 L294,65.7005878 C293.107808,63.4212931 292.105325,61.207174 291,59.0664745 L291,32.5039392 L291,32.5039392 Z M312,32.5039392 L315,32.5039392 L315,44.6284134 C313.962395,45.7696895 312.961678,46.9519929 312,48.1729406 L312,32.5039392 L312,32.5039392 Z M284,32.5039392 L281,32.5039392 L281,44.6284134 C282.037605,45.7696895 283.038322,46.9519929 284,48.1729406 L284,32.5039392 Z M291,106 L305,106 L305,142 L291,142 L291,106 Z" id="bridge-copy-3" fill="#FFFFFF"></path>
                    </g>
                </g>
            </g>
        </g>
    </g>
</svg>
