<?xml version="1.0" encoding="UTF-8"?>
<svg id="Layer_2" data-name="Layer 2" xmlns="http://www.w3.org/2000/svg" viewBox="0 0 374.96002 200.07853">
  <defs>
    <style>
      .cls-1 {
        fill: #fff;
      }

      .cls-2 {
        fill: #e4e5e6;
      }

      .cls-3 {
        fill: #919397;
      }

      .cls-4 {
        fill: #919396;
      }

      .cls-5 {
        fill: #975454;
      }

      .cls-6 {
        fill: #2c6845;
      }

      .cls-7 {
        fill: #773636;
      }

      .cls-8 {
        fill: #b55320;
        opacity: .85;
      }
    </style>
  </defs>
  <g id="MOBILE">
    <g>
      <g>
        <rect class="cls-4" x="266.90658" y="57.42387" width="120.27888" height="5.43114" transform="translate(387.18546 -266.90658) rotate(90)"/>
        <rect class="cls-4" x="213.95959" y="57.42387" width="120.27888" height="5.43114" transform="translate(334.23847 -213.95959) rotate(90)"/>
      </g>
      <g>
        <rect class="cls-3" y="113.07532" width="374.96002" height="33.13"/>
        <rect class="cls-5" y="106.58527" width="374.96002" height="6.49005"/>
        <rect class="cls-5" y="146.20532" width="374.96002" height="6.48999"/>
        <path class="cls-7" d="M374.96002,152.69531v43.87c-3.83008-.89001-7.70996-1.77002-11.64014-2.63-1.86987-.41003-3.75989-.81-5.65991-1.22003-12.41992-2.62-25.31006-5.06995-38.66992-7.25995-2.14014-.35004-4.30005-.69-6.47009-1.04004-12.32996-1.91998-25.03992-3.62-38.09998-5.06-2.39001-.27002-4.80005-.52002-7.21997-.76001-12.80005-1.29999-25.94006-2.33997-39.40002-3.06-1.84998-.09998-3.71008-.20001-5.56995-.27997-12.80005-.60999-25.90015-.94-39.26001-.95001h-.52002c-13.46997,0-26.66003,.32001-39.56006,.94-1.84998,.08002-3.69995,.16998-5.55005,.27997-13.51001,.72003-26.68994,1.76001-39.53992,3.06-1.88,.19-3.76001,.39001-5.63,.59003-13.70996,1.47998-27.03003,3.26001-39.92999,5.28003-1.88,.28998-3.75,.58997-5.61005,.89996-13.60999,2.21002-26.73999,4.70001-39.37,7.37-.98999,.21002-1.96997,.42004-2.94995,.63-1.45001,.31-2.88,.63-4.31,.94v-41.59998H374.96002Z"/>
        <polygon class="cls-5" points="374.96002 95.3653 374.96002 106.58527 371.81989 106.58527 368.99005 98.6153 357.69 98.6153 354.85992 106.58527 349.21002 106.58527 346.37994 98.6153 335.0799 98.6153 332.25006 106.58527 326.59991 106.58527 323.77997 98.6153 312.47003 98.6153 309.64996 106.58527 303.99005 106.58527 301.16998 98.6153 289.85992 98.6153 287.03998 106.58527 281.38995 106.58527 278.56 98.6153 267.25995 98.6153 264.42999 106.58527 258.77997 106.58527 255.95001 98.6153 244.64996 98.6153 241.81989 106.58527 236.16998 106.58527 233.3399 98.6153 222.03998 98.6153 219.21002 106.58527 213.56 106.58527 210.74005 98.6153 199.42999 98.6153 196.60992 106.58527 190.95001 106.58527 188.12994 98.6153 176.81989 98.6153 174.00006 106.58527 168.34991 106.58527 165.51996 98.6153 154.22003 98.6153 151.38995 106.58527 145.74005 106.58527 142.90997 98.6153 131.60992 98.6153 128.77997 106.58527 123.12994 106.58527 120.29999 98.6153 109.00006 98.6153 106.16998 106.58527 100.51996 106.58527 97.70001 98.6153 86.38995 98.6153 83.56989 106.58527 77.90997 106.58527 75.0899 98.6153 63.77997 98.6153 60.95996 106.58527 55.31 106.58527 52.47998 98.6153 41.17999 98.6153 38.34998 106.58527 32.69995 106.58527 29.87 98.6153 18.56995 98.6153 15.73999 106.58527 10.08997 106.58527 7.25995 98.6153 0 98.6153 0 95.3653 374.96002 95.3653"/>
        <path class="cls-5" d="M374.96002,200.07853c-4.08398-.94873-8.64087-2.03159-12.36157-2.84605-1.22754-.26904-2.46289-.53369-3.7041-.7998l-1.94531-.41797c-12.93555-2.72852-25.89551-5.16211-38.50488-7.22852-1.28906-.21094-2.58594-.41797-3.88867-.62646l-2.57324-.4126c-12.46973-1.94141-25.23828-3.63721-37.93262-5.03662-2.38379-.26953-4.77832-.51758-7.18262-.75635-13.10156-1.33057-26.30371-2.35596-39.24805-3.04834-1.83887-.09961-3.68652-.19873-5.53418-.27832-12.97656-.61865-26.13281-.93701-39.11816-.94678h-.5166c-13.22168,0-26.47754,.31494-39.39746,.93604-1.84863,.08008-3.67969,.16895-5.51172,.27783-12.99805,.69287-26.24805,1.71826-39.40137,3.04883-1.87402,.18945-3.74707,.38867-5.61035,.58789-13.21387,1.42676-26.59375,3.1958-39.7666,5.2583-1.87402,.28955-3.73047,.5874-5.57812,.89551-12.86035,2.08838-26.05371,4.55811-39.22656,7.34229l-2.93848,.62793c-.86719,.18555-1.72363,.37354-2.57617,.56104L.00291,197.80355l-.00291-7.09905,.99493-.08189c.86523-.18994,1.73438-.38086,2.61035-.56787l2.95312-.63135c13.28027-2.80713,26.5791-5.29639,39.53027-7.39941,1.85938-.31006,3.74316-.61279,5.63672-.90479,13.27051-2.07812,26.75879-3.86133,40.08203-5.2998,1.87988-.20117,3.7666-.40137,5.65332-.59229,13.25879-1.34131,26.61621-2.375,39.69922-3.07227,1.84766-.11035,3.71582-.20117,5.58496-.28174,13.01074-.62549,26.375-.94336,39.70508-.94336h.51953c13.09277,.01025,26.35547,.33105,39.42188,.9541,1.85547,.08008,3.72852,.18018,5.59082,.28076,13.04883,.69824,26.3584,1.73193,39.55859,3.07275,2.42773,.24072,4.85352,.49268,7.25781,.76416,12.78516,1.40967,25.6543,3.11865,38.24121,5.07861l2.58105,.41357c1.31055,.20947,2.61523,.41846,3.91309,.63037,12.71191,2.0835,25.77246,4.53564,38.82227,7.28857l1.95215,.41943c1.25195,.26807,2.49707,.53516,3.73438,.80566,3.74805,.8208,6.80591,1.50742,10.91724,2.46299v6.97779Z"/>
        <polygon class="cls-5" points="374.96002 134.98529 374.96002 146.20532 371.81989 146.20532 368.99005 138.23529 357.69 138.23529 354.85992 146.20532 349.21002 146.20532 346.37994 138.23529 335.0799 138.23529 332.25006 146.20532 326.59991 146.20532 323.77997 138.23529 312.47003 138.23529 309.64996 146.20532 303.99005 146.20532 301.16998 138.23529 289.85992 138.23529 287.03998 146.20532 281.38995 146.20532 278.56 138.23529 267.25995 138.23529 264.42999 146.20532 258.77997 146.20532 255.95001 138.23529 244.64996 138.23529 241.81989 146.20532 236.16998 146.20532 233.3399 138.23529 222.03998 138.23529 219.21002 146.20532 213.56 146.20532 210.74005 138.23529 199.42999 138.23529 196.60992 146.20532 190.95001 146.20532 188.12994 138.23529 176.81989 138.23529 174.00006 146.20532 168.34991 146.20532 165.51996 138.23529 154.22003 138.23529 151.38995 146.20532 145.74005 146.20532 142.90997 138.23529 131.60992 138.23529 128.77997 146.20532 123.12994 146.20532 120.29999 138.23529 109.00006 138.23529 106.16998 146.20532 100.51996 146.20532 97.70001 138.23529 86.38995 138.23529 83.56989 146.20532 77.90997 146.20532 75.0899 138.23529 63.77997 138.23529 60.95996 146.20532 55.31 146.20532 52.47998 138.23529 41.17999 138.23529 38.34998 146.20532 32.69995 146.20532 29.87 138.23529 18.56995 138.23529 15.73999 146.20532 10.08997 146.20532 7.25995 138.23529 0 138.23529 0 134.98529 374.96002 134.98529"/>
        <path class="cls-2" d="M360.96002,128.28528v2.70001h14v-2.70001h-14Zm-54.03003,0v2.70001h21.22998v-2.70001h-21.22998Zm-54.03003,0v2.70001h21.22998v-2.70001h-21.22998Zm-54.02002,0v2.70001h21.21997v-2.70001h-21.21997Zm-54.03003,0v2.70001h21.21997v-2.70001h-21.21997Zm-54.03003,0v2.70001h21.2301v-2.70001h-21.2301Zm-54.0199,0v2.70001h21.21997v-2.70001h-21.21997Zm-36.79999,0v2.70001H3.98999v-2.70001H0Z"/>
        <rect class="cls-5" y="149.44531" width="7.25995" height="43.90997"/>
        <rect class="cls-5" x="40.93357" y="149.44749" width="11.30404" height="35.90909"/>
        <rect class="cls-5" x="86.49967" y="149.44749" width="11.30404" height="29.72901"/>
        <rect class="cls-5" x="131.58918" y="149.44749" width="11.30404" height="26.07728"/>
        <rect class="cls-5" x="176.82401" y="149.44749" width="11.30404" height="24.85659"/>
        <rect class="cls-5" x="222.22592" y="149.44749" width="11.30404" height="26.08618"/>
        <rect class="cls-5" x="267.19789" y="149.44749" width="11.30404" height="29.90604"/>
        <rect class="cls-5" x="312.51848" y="149.44749" width="11.30404" height="36.00454"/>
        <rect class="cls-5" x="357.66476" y="149.44749" width="11.30404" height="44.48894"/>
      </g>
      <g>
        <g>
          <rect class="cls-6" x="37.4553" y="164.81909" width="86.97542" height="31.73571" rx="5.51582" ry="5.51582"/>
          <path class="cls-1" d="M123.3379,165.35381c-1.17773-1.04731-2.72761-1.68415-4.42326-1.68415H42.97101c-3.67517,0-6.66751,2.9885-6.66751,6.66367v20.70459c0,1.33887,.39515,2.58567,1.078,3.63298,.9399,1.43862,2.4169,2.4936,4.14705,2.87723,.4642,.10359,.94374,.1573,1.4348,.1573H118.91464c3.67519,0,6.66751-2.9885,6.66751-6.66751v-20.70459c0-1.97953-.86701-3.75958-2.24426-4.97952Zm-.05753,25.68411c0,2.40917-1.96035,4.36572-4.36572,4.36572H42.97101c-.14578,0-.28772-.00768-.42582-.02304-2.20588-.21097-3.9399-2.07925-3.9399-4.34268v-20.70459c0-2.40535,1.96037-4.36188,4.36572-4.36188H118.91464c1.06267,0,2.03708,.38363,2.79282,1.01279,.95908,.8018,1.5729,2.00638,1.5729,3.34909v20.70459Z"/>
          <path class="cls-8" d="M60.62956,163.66967c-.40281,.87469-.9706,1.65345-1.66497,2.30179-1.33887,1.26216-3.14578,2.03708-5.12915,2.03708-1.53068,0-2.9578-.46418-4.14321-1.25446-1.13172,2.11379-3.35677,3.5524-5.92327,3.5524-.96292,0-1.87596-.20715-2.70459-.57161,.02302,.18798,.03835,.37979,.03835,.57161,0,1.81459-1.00895,3.39515-2.49744,4.21229-.68285,.37211-1.46547,.58694-2.30179,.58694v-4.77237c0-3.67517,2.99234-6.66367,6.66751-6.66367h17.65855Z"/>
          <path class="cls-8" d="M111.68318,163.66967c-.21099,.85167-.60228,1.63427-1.13169,2.30179-1.12404,1.43096-2.86574,2.34782-4.82609,2.34782-1.37341,0-2.63938-.45652-3.66367-1.21994-1.36957,1.56906-3.38363,2.56265-5.62789,2.56265-2.75063,0-5.15598-1.48081-6.4565-3.69053-.41433-.70203-.71739-1.47697-.88235-2.30179h22.58818Z"/>
          <circle class="cls-8" cx="112.22983" cy="169.66299" r="1.75643"/>
          <path class="cls-8" d="M125.58216,185.17219v5.86574c0,3.67901-2.99232,6.66751-6.66751,6.66751h-10.54602c.29156-.83629,.71355-1.61507,1.2468-2.30179,1.48465-1.92584,3.81713-3.16496,6.43732-3.16496,1.19309,0,2.3248,.26468,3.34528,.72886-.10743-.46418-.1688-.94756-.1688-1.44241,0-2.69694,1.68031-5.00257,4.05114-5.92327,.71355-.27623,1.48849-.42969,2.30179-.42969Z"/>
          <path class="cls-8" d="M76.88786,197.70544H42.96335c-.28772-.54093-.45271-1.15857-.45271-1.81073,0-.17646,.01152-.34528,.03454-.5141,.25319-1.87592,1.8606-3.32605,3.80561-3.32605,1.48849,0,2.77749,.85165,3.41433,2.09077,1.03965-.65599,2.26725-1.03963,3.58694-1.03963,1.58824,0,3.04987,.55241,4.20077,1.47313,1.38874-1.43862,3.32992-2.34014,5.48976-2.34014,2.54348,0,4.79155,1.2468,6.18029,3.16496,.31458,.43735,.58697,.91304,.80948,1.41942,.83247-.58313,1.84526-.92836,2.9386-.92836,1.56906,0,2.97314,.70203,3.91688,1.81073Z"/>
          <path class="cls-8" d="M41.52855,197.54813c-1.73016-.38363-3.20715-1.43862-4.14705-2.87723,.08441-.00384,.17264-.00763,.25705-.00763,1.83374,0,3.38363,1.21224,3.89,2.88487Z"/>
          <path class="cls-8" d="M125.58216,170.33334v3.35677c-.84015,0-1.63043-.23017-2.30179-.63682-1.30052-.7826-2.17137-2.20588-2.17137-3.83631,0-.8133,.21483-1.57672,.59846-2.23274,.39131-.67519,.95526-1.24296,1.63043-1.63043,1.37725,1.21994,2.24426,3,2.24426,4.97952Z"/>
        </g>
        <g>
          <path class="cls-1" d="M52.34485,180.36644c0,2.71191-.9541,4.86035-3.12891,4.86035-2.18848,0-3.11523-2.13477-3.11523-4.83398,0-2.71191,.95312-4.86035,3.1416-4.86035,2.17578,0,3.10254,2.13477,3.10254,4.83398Zm-1.71875,.02637c0-2.00049-.41699-3.18213-1.41016-3.18213-1.00684,0-1.39648,1.15479-1.39648,3.15576,0,2.00049,.41602,3.18213,1.42285,3.18213,.99414,0,1.38379-1.15479,1.38379-3.15576Z"/>
          <path class="cls-1" d="M58.23841,179.47972l-1.27539,.85938c-.24219-.57715-.52344-.95312-.99414-.95312-.71094,0-1.00684,.8457-1.00684,2.16211,0,1.31543,.32227,2.1748,1.06152,2.1748,.45605,0,.79199-.44287,1.01953-1.03369l1.16895,.84619c-.41699,.97998-1.11426,1.69141-2.20215,1.69141-1.55762,0-2.65918-1.27539-2.65918-3.65234,0-2.37646,1.11426-3.69238,2.64551-3.69238,1.08789,0,1.8125,.55078,2.24219,1.59766Z"/>
          <path class="cls-1" d="M62.96497,183.38744l-.18848,1.53076c-.34863,.18799-.73828,.30859-1.20801,.30859-1.1416,0-1.70508-.61719-1.70508-2.16162v-3.53174h-.87305v-1.50391h.87305v-1.94678l1.58398-.79248v2.73926h1.42383v1.50391h-1.42383v3.49121c0,.52393,.20117,.69824,.57715,.69824,.30957,0,.63184-.10742,.94043-.33545Z"/>
          <path class="cls-1" d="M69.18177,181.54808c0,2.37646-1.10156,3.67871-2.67188,3.67871-1.58496,0-2.67285-1.27539-2.67285-3.65234,0-2.37646,1.10156-3.69238,2.68555-3.69238,1.57129,0,2.65918,1.28906,2.65918,3.66602Zm-1.61133,.02637c0-1.30225-.32227-2.18848-1.07422-2.18848-.76562,0-1.04785,.8457-1.04785,2.16211,0,1.31543,.30957,2.1748,1.07422,2.1748,.75195,0,1.04785-.9668,1.04785-2.14844Z"/>
          <path class="cls-1" d="M75.38489,181.54808c0,2.14844-.64453,3.67871-2.18848,3.67871-.46973,0-.91309-.21484-1.22168-.53711v.38965h-1.58496v-8.99658l1.58496-.79248v3.22266c.34863-.37598,.8457-.63086,1.35547-.63086,1.31641,0,2.05469,1.18164,2.05469,3.66602Zm-1.61133,.05371c0-1.54443-.16113-2.24268-.81836-2.24268-.38965,0-.79297,.30908-.98047,.59082v3.1958c.21484,.30859,.56348,.60449,1.00684,.60449,.56348,0,.79199-.51074,.79199-2.14844Z"/>
          <path class="cls-1" d="M81.53528,181.56127c0,.18799-.01367,.40283-.02734,.59082h-3.55859c.06738,1.0874,.51074,1.5708,1.12891,1.5708,.56348,0,.79199-.20117,1.10059-.61719l1.12793,.8457c-.52344,.85938-1.3291,1.27539-2.25586,1.27539-1.74609,0-2.69922-1.49023-2.69922-3.66553,0-2.36328,1.07422-3.6792,2.60547-3.6792,1.77246,0,2.57812,1.74561,2.57812,3.6792Zm-1.58496-.71143c-.08008-.85938-.32227-1.54443-1.00684-1.54443-.59082,0-.91309,.51025-.99414,1.54443h2.00098Z"/>
          <path class="cls-1" d="M86.7306,178.24437l-.45703,1.54443c-.26758-.21484-.5498-.34912-.92578-.34912-.41602,0-.75195,.21484-1.02051,.60449v5.03516h-1.58496v-7.0498h1.58496v.4834c.26855-.30859,.76465-.63086,1.28906-.63086,.46973,0,.77832,.12109,1.11426,.3623Z"/>
          <path class="cls-1" d="M93.22864,185.07933h-1.67773v-6.99609h-1.27539v-1.04688c.92578-.09424,1.3291-.6582,1.5166-1.35645h1.43652v9.39941Z"/>
          <path class="cls-1" d="M100.34583,181.91039c0,2.1084-1.16797,3.31641-3.18262,3.31641-.95312,0-1.91992-.38916-2.5918-1.02051l.94043-1.27539c.64453,.4834,1.08789,.64453,1.73242,.64453,.9668,0,1.40918-.61768,1.40918-1.57129,0-.93945-.41602-1.39648-1.10059-1.39648-.44336,0-.83301,.18848-1.18164,.52393l-1.37012-.64453,.22852-4.80713h4.63281v1.625h-3.14258l-.12012,2.0542c.33496-.21484,.71094-.34912,1.3291-.34912,1.36914,0,2.41699,.95312,2.41699,2.90039Z"/>
          <path class="cls-1" d="M104.91028,181.02416h-3.42383v-1.63818h3.42383v1.63818Z"/>
          <path class="cls-1" d="M108.46888,185.07933h-1.67871v-6.99609h-1.27637v-1.04688c.92676-.09424,1.33008-.6582,1.51758-1.35645h1.4375v9.39941Z"/>
          <path class="cls-1" d="M115.81263,181.93724c0,2.13525-1.19434,3.28955-2.94043,3.28955-1.65137,0-2.88672-1.10059-2.88672-3.7998,0-3.20898,1.42285-5.63965,4.7666-5.89453v1.67822c-1.94727,.10742-2.7793,1.32959-3.08789,2.51123,.45605-.51074,.93945-.71191,1.74512-.71191,1.23535,0,2.40332,.99365,2.40332,2.92725Zm-1.6377,.10742c0-.87256-.40332-1.51709-1.22168-1.51709-.92676,0-1.33008,.68457-1.33008,1.47656,0,.8999,.34961,1.66504,1.34375,1.66504,.81836,0,1.20801-.75195,1.20801-1.62451Z"/>
        </g>
      </g>
    </g>
  </g>
</svg>