<?xml version="1.0" encoding="UTF-8"?>
<svg id="Layer_2" data-name="Layer 2" xmlns="http://www.w3.org/2000/svg" xmlns:xlink="http://www.w3.org/1999/xlink" viewBox="0 0 374.95593 408.32212">
  <defs>
    <style>
      .cls-1 {
        stroke-width: 1.10556px;
      }

      .cls-1, .cls-2, .cls-3, .cls-4, .cls-5, .cls-6, .cls-7, .cls-8, .cls-9, .cls-10, .cls-11, .cls-12, .cls-13, .cls-14, .cls-15, .cls-16, .cls-17 {
        fill: none;
      }

      .cls-1, .cls-2, .cls-3, .cls-5, .cls-7, .cls-8, .cls-10, .cls-13, .cls-14 {
        stroke: #6c8041;
        stroke-linecap: round;
        stroke-linejoin: round;
      }

      .cls-2 {
        stroke-width: 1.08857px;
      }

      .cls-18 {
        fill: url(#linear-gradient);
      }

      .cls-3 {
        stroke-width: .72255px;
      }

      .cls-4, .cls-6, .cls-9, .cls-19, .cls-11, .cls-12, .cls-20, .cls-15, .cls-16, .cls-17 {
        stroke-miterlimit: 10;
      }

      .cls-4, .cls-6, .cls-16, .cls-17 {
        stroke: #b3b26c;
      }

      .cls-4, .cls-20 {
        stroke-width: .43678px;
      }

      .cls-21 {
        fill: #7e7370;
      }

      .cls-22 {
        fill: #815950;
      }

      .cls-23 {
        fill: #7f7c7c;
      }

      .cls-24 {
        fill: #935430;
      }

      .cls-25 {
        fill: #a15726;
      }

      .cls-26 {
        fill: #a05b34;
      }

      .cls-27 {
        fill: #945f2d;
      }

      .cls-28 {
        fill: #875729;
      }

      .cls-29 {
        fill: #8d3027;
      }

      .cls-30 {
        fill: #a16731;
      }

      .cls-31 {
        fill: #666667;
      }

      .cls-32 {
        fill: #bb7739;
      }

      .cls-33 {
        fill: #bb703c;
      }

      .cls-34 {
        fill: #30150f;
      }

      .cls-35 {
        fill: #333;
      }

      .cls-36 {
        fill: #d3a077;
      }

      .cls-37 {
        fill: #d4c987;
      }

      .cls-38 {
        fill: #ae5e29;
      }

      .cls-39, .cls-40 {
        fill: #a96e37;
      }

      .cls-41 {
        fill: #201f20;
      }

      .cls-42 {
        fill: #442525;
      }

      .cls-43 {
        fill: #9d2e2b;
      }

      .cls-44 {
        fill: #6f4721;
      }

      .cls-45 {
        fill: #88572a;
      }

      .cls-46 {
        fill: #6e4522;
      }

      .cls-47 {
        fill: #6e3d37;
      }

      .cls-48 {
        fill: #56371a;
      }

      .cls-49 {
        fill: #4b2820;
      }

      .cls-50 {
        fill: #482e16;
      }

      .cls-51 {
        fill: #57673d;
      }

      .cls-52, .cls-53 {
        fill: #4c6faf;
      }

      .cls-54 {
        fill: #633f1e;
      }

      .cls-55 {
        fill: #547347;
      }

      .cls-56 {
        fill: #7b4f25;
      }

      .cls-5 {
        stroke-width: .7457px;
      }

      .cls-6 {
        stroke-width: .45251px;
      }

      .cls-7 {
        stroke-width: .91626px;
      }

      .cls-8 {
        stroke-width: .93825px;
      }

      .cls-9 {
        stroke: #666667;
        stroke-width: .31556px;
      }

      .cls-10 {
        stroke-width: 1.13737px;
      }

      .cls-19, .cls-20 {
        fill: #d45e72;
        stroke: #d45e72;
      }

      .cls-19, .cls-16 {
        stroke-width: .4748px;
      }

      .cls-11 {
        stroke: #c77040;
      }

      .cls-11, .cls-12 {
        stroke-width: 1.56231px;
      }

      .cls-12 {
        stroke: #d57332;
      }

      .cls-57 {
        fill: url(#linear-gradient-8);
      }

      .cls-58 {
        fill: url(#linear-gradient-9);
      }

      .cls-59 {
        fill: url(#linear-gradient-3);
      }

      .cls-60 {
        fill: url(#linear-gradient-4);
      }

      .cls-61 {
        fill: url(#linear-gradient-2);
      }

      .cls-62 {
        fill: url(#linear-gradient-6);
      }

      .cls-63 {
        fill: url(#linear-gradient-7);
      }

      .cls-64 {
        fill: url(#linear-gradient-5);
      }

      .cls-13 {
        stroke-width: .92855px;
      }

      .cls-14 {
        stroke-width: .89052px;
      }

      .cls-65 {
        fill: url(#linear-gradient-10);
      }

      .cls-66 {
        fill: url(#linear-gradient-11);
      }

      .cls-15 {
        stroke: #6a3829;
        stroke-width: .17017px;
      }

      .cls-67 {
        fill: #969696;
        opacity: .69;
      }

      .cls-53, .cls-68 {
        opacity: .85;
      }

      .cls-68 {
        fill: #191919;
      }

      .cls-40 {
        opacity: .8;
      }

      .cls-17 {
        stroke-width: .49802px;
      }
    </style>
    <linearGradient id="linear-gradient" x1="1501.71415" y1="-354.58741" x2="1501.71415" y2="-294.87806" gradientTransform="translate(-1341.67106 325.24739) rotate(7.3347)" gradientUnits="userSpaceOnUse">
      <stop offset=".0228" stop-color="#486e37"/>
      <stop offset=".15569" stop-color="#426431"/>
      <stop offset=".37582" stop-color="#334b22"/>
      <stop offset=".56742" stop-color="#233012"/>
    </linearGradient>
    <linearGradient id="linear-gradient-2" x1="-4987.32485" y1="344.73295" x2="-4987.32485" y2="391.81941" gradientTransform="translate(-4960.28445 325.24739) rotate(172.6653) scale(1 -1)" xlink:href="#linear-gradient"/>
    <linearGradient id="linear-gradient-3" x1="3646.37997" y1="4520.44577" x2="3646.17938" y2="4569.72827" gradientTransform="translate(-5465.29138 277.85269) rotate(-53.56325)" xlink:href="#linear-gradient"/>
    <linearGradient id="linear-gradient-4" x1="256.25872" y1="216.28269" x2="256.25872" y2="272.97845" gradientTransform="translate(.04407)" xlink:href="#linear-gradient"/>
    <linearGradient id="linear-gradient-5" x1="-906.66731" y1="-278.91665" x2="-906.85969" y2="-231.65233" gradientTransform="translate(961.00345 632.47763) rotate(8.99479)" xlink:href="#linear-gradient"/>
    <linearGradient id="linear-gradient-6" x1="-7456.84982" y1="1611.82534" x2="-7457.05041" y2="1661.10784" gradientTransform="translate(-7237.22635 1299.07265) rotate(159.89513) scale(1 -1)" xlink:href="#linear-gradient"/>
    <linearGradient id="linear-gradient-7" x1="-7510.4175" y1="242.57992" x2="-7510.62018" y2="292.37724" gradientTransform="translate(-7478.96478) rotate(-180) scale(1 -1)" xlink:href="#linear-gradient"/>
    <linearGradient id="linear-gradient-8" x1="-4647.14365" y1="821.62587" x2="-4647.14365" y2="867.03139" gradientTransform="translate(-5071.30644 136.69946) rotate(172.6653) scale(1.12477 -1.01835)" xlink:href="#linear-gradient"/>
    <linearGradient id="linear-gradient-9" x1="-3491.35953" y1="347.94389" x2="-3491.35953" y2="406.27133" gradientTransform="translate(-3442.80848) rotate(-180) scale(1 -1)" xlink:href="#linear-gradient"/>
    <linearGradient id="linear-gradient-10" x1="-4377.87594" y1="418.88495" x2="-4378.06832" y2="466.14927" gradientTransform="translate(-4208.56926 632.47763) rotate(171.00521) scale(1 -1)" xlink:href="#linear-gradient"/>
    <linearGradient id="linear-gradient-11" x1="-3983.39629" y1="653.61287" x2="-3983.63144" y2="711.38875" gradientTransform="translate(4149.43615 -907.14607) rotate(-8.916)" xlink:href="#linear-gradient"/>
  </defs>
  <g id="MOBILE">
    <g>
      <g>
        <g>
          <g>
            <path class="cls-67" d="M95.48288,53.1706c-.81938,.76151-1.48122,1.71759-1.90369,2.83484-1.46383,3.87115,.4877,8.19603,4.35885,9.65986,1.4795,.55946,3.02473,.61856,4.45176,.26383,.43804,.46498,.98198,.84334,1.6198,1.08453,.0748,.02828,.15059,.04873,.22589,.07263-1.21328,.39215-2.2444,1.3098-2.73048,2.59523-.8485,2.24387,.28263,4.75074,2.52656,5.59925,1.57714,.59638,3.28184,.21177,4.4517-.84687l.02326,.01015c2.00937,.75982,4.25428-.25314,5.01411-2.26253,.45914-1.2142,.26753-2.51234-.39665-3.51891,.05955-.03637,.1188-.07327,.17664-.11252,.12819,.06353,.26034,.1218,.39697,.17346,2.24386,.84849,4.75068-.28272,5.59918-2.52659s-.28263-4.75074-2.52649-5.59922c-.10795-.04082-.21686-.073-.32569-.10473,.63381-.57027,1.15593-1.27839,1.52277-2.09997,5.60499,.01045,10.88797-3.40354,12.98747-8.95573,2.7064-7.15716-.90166-15.15319-8.05882-17.85959-6.20105-2.34486-13.02915,.05263-16.50371,5.38929-5.13733-1.72006-10.75799,.9143-12.69081,6.02571-1.35557,3.58483-.54484,7.45676,1.78137,10.17787Zm11.39543,13.91169c.05528-.01789,.10971-.03767,.16416-.05774,.0246,.04559,.04855,.09138,.07481,.13608l-.01301-.00568c-.07487-.02831-.15059-.04873-.22596-.07266Z"/>
            <rect class="cls-23" x="112.20125" y="65.16711" width="1.22757" height="3.9896" transform="translate(31.04727 -35.56096) rotate(20.71358)"/>
            <rect class="cls-23" x="123.58662" y="68.07226" width="1.22757" height="3.9896" transform="translate(32.81076 -39.40013) rotate(20.71358)"/>
            <rect class="cls-23" x="133.58378" y="71.85258" width="1.22757" height="3.9896" transform="translate(34.79406 -42.69173) rotate(20.71358)"/>
            <rect class="cls-23" x="144.415" y="76.71533" width="1.22757" height="3.9896" transform="translate(37.21412 -46.20837) rotate(20.71358)"/>
            <circle cx="113.73003" cy="64.74218" r="1.82781"/>
            <circle cx="134.79902" cy="72.25681" r="1.82781"/>
            <circle cx="145.73434" cy="76.84427" r="1.82781"/>
            <path class="cls-43" d="M157.8278,110.50436c-.8567-1.16812-1.71379-2.02417-2.34239-2.59074-1.60204-1.01387-2.98953-1.6805-3.99231-2.11119-1.85761-.79783-3.02744-1.05226-3.4834-2.09458-.35505-.81166-.12109-1.69852,.11589-2.29254l2.18043-11.3149c.17181-1.25136,.24719-3.12507-.38246-5.23081-.2192-.73312-.48908-1.37793-.76658-1.93204-.875-.73811-2.16994-1.74338-3.85769-2.75364-.68164-.40801-1.67474-.96493-4.20428-2.10105-1.56348-.70222-3.69059-1.61525-6.28622-2.60427l-9.679-3.54641c-3.2531-1.06605-6.84926-2.07455-10.76615-2.92538-2.54022-.5518-4.97737-.98559-7.2931-1.32514,0,0-2.95187-.51674-5.54837,3.97163l-5.85182,9.9266c-.47823,.74956-1.01383,1.21018-1.45713,1.50034-2.12032,1.38788-5.30711,.95698-8.1878-.91986-.80007-.25907-2.69868-.75549-5.03037-.21442-2.34279,.54364-3.83299,1.8354-4.43587,2.42145-.40728,.56801-.9142,1.44071-1.17376,2.59413-.61628,2.73867,.63012,4.97926,.99487,5.58601-.72568,1.19897-1.44935,2.50198-2.14672,3.91055-1.56708,3.16488-2.65669,6.16554-3.42553,8.83106,3.58809,1.75236,7.27369,3.48972,11.05668,5.20434,8.34583,3.78273,16.48305,7.14546,24.35495,10.1399,4.07845,1.55145,6.37048,2.5143,9.65524,3.74406,0,0,9.43102,3.53088,34.45442,11.43931,1.42119-2.30792,2.94527-5.33819,4.02516-9.06177,.44721-1.54229,.76023-3.00326,.97781-4.35258,.93399-.58105,2.45964-1.7189,3.5698-3.67479,.53321-.93938,1.13878-2.0063,1.11931-3.43708-.02469-1.81448-.99426-3.15091-2.19362-4.7862Z"/>
            <path d="M133.34033,135.90194c-.37205,.80049-.74873,1.85021-.92924,3.11411-.20632,1.44433-.52562,3.68038,.76531,5.03823,.50442,.53056,1.1248,.79042,2.13775,1.2147,.52226,.21876,1.30414,.49586,2.28473,.66176,1.30875,.22141,2.07181,.35052,2.89233,.07433,1.0157-.34188,1.67107-1.29459,2.94046-3.18604,.67883-1.01147,1.18482-1.89215,1.52744-2.52356l-11.61879-4.39352Z"/>
            <path class="cls-23" d="M142.07219,139.2038s-3.21422,6.68142,.07977,5.44024l2.80716-4.34858-2.88692-1.09166Z"/>
            <path d="M71.5433,110.96772s-1.28652,5.06048,2.04978,7.33497c2.10426,.82754,3.96112,1.52063,5.51625,2.08591,.31485,.11444,.89191,.31525,1.41714,.06763,.62195-.29319,.84905-1.06324,1.0129-1.83371,.2255-1.06029,.46618-2.75602,.31035-5.06209l-10.30641-2.59271Z"/>
            <path class="cls-35" d="M77.46979,112.45861s-1.09575,6.28425,1.63952,7.92999c0,0,3.11174,2.27396,2.74039-6.82817l-4.37991-1.10182Z"/>
            <path class="cls-39" d="M149.44791,107.00241c.0851,.42932,.81444,.04647,.55897,.9178-.12926,.4409-.43524,1.48451-1.34343,2.04735-.80903,.50139-1.34497,.15586-1.83322,.70531-.42807,.48174-.12219,.86676-.54064,1.48708-.41772,.61923-1.35927,1.17948-2.08917,.86515-.60489-.2605-.87358-1.03953-.85461-1.59004,.01622-.47083,.24996-.98033,.51294-1.55362,.16768-.36552,.27917-.53248,.2858-.83365,.0115-.52278-.29202-.91466-.32631-.95767-.47271-.59323-1.02502-.30557-1.61076-.8774-.06389-.06237-.58845-.58856-.5301-1.22195,.06058-.65752,.73827-1.3106,.73827-1.3106,1.09597,.0365,2.0171,.10256,2.72758,.16628,.84875,.07612,1.48482,.15677,2.0726,.2498,.05507,.00871,.3803,.06051,.81057,.14428,.96274,.18743,1.31758,.75762,1.46928,.81376,.25701,.09512-.17257,.88647-.04777,.94811Z"/>
            <path class="cls-39" d="M100.59556,84.49227c.68863-.42498,.61966-.65149,1.03836-.74555,.61881-.13904,1.51089,.18915,1.64743,.24067,1.09235,.41216,1.84906,1.23593,2.10198,1.82033,.19265,.44509,.03087,.60768,.39362,1.07146,.09596,.12267,.30078,.35872,.9067,.78534,1.30621,.91966,1.92439,.92812,2.55659,1.51062,.43519,.401,.75301,.95973,.56399,1.3513-.24639,.51042-1.3222,.67111-2.6591,.35768-.42217-.10405-1.0311-.26747-1.75706-.51059-.86783-.29062-1.53395-.51369-2.18948-.88483-1.14161-.64633-.86008-.95418-1.81238-1.51695-1.41236-.83464-2.69088-.54709-3.51847-1.26892-.52585-.45864-.43942-.94955-.42012-1.05921,.07452-.42335,.51152-.70059,1.0396-.78451,.56497-.08979,.92989,.09005,1.51627-.07343,.21274-.05929,.33918-.13733,.59207-.29342Z"/>
            <path class="cls-40" d="M74.23354,96.45812c2.36549,.59696,4.20995,1.88632,4.39271,3.30849,.18107,1.40899-.29355,2.49229-.29357,2.49232-.22995,.52424-.49555,.81146-.42326,1.22213,.10215,.58022,.79769,.94648,1.3832,1.16764,.98876-.35167,1.97746-.7034,2.96622-1.05507,3.46455-.21912,4.48856,.45535,4.79393,1.0978,.6042,1.27106-1.11858,3.43861-.71014,3.71789,.2019,.13804,.61497-.39673,1.32785-.62436,1.11005-.3544,2.29716,.24337,3.15654,.8361,.50112-.18494,1.1852-.3815,2.01406-.46409,.78751-.07846,1.46494-.03002,1.97734,.04426,.17616,.05014,1.35497,.40739,1.93165,1.63819,.60779,1.29708,.04485,2.49304-.0296,2.6444l3.00673,.42199c1.23916,.17391,3.75191,1.16166,4.11216,3.03603,.23408,1.21804-.56545,2.34135-1.01756,2.87371-10.69417-4.61411-21.38828-9.22817-32.08245-13.84227,.39374-1.34401,.89321-2.81213,1.53159-4.36594,.63291-1.54043,1.30352-2.92485,1.96261-4.14921Z"/>
            <path class="cls-35" d="M83.84417,103.48466s4.49671-8.0768,11.3149-5.33828c6.81827,2.73854,41.22826,15.58807,41.22826,15.58807,0,0,5.99859,.66744,5.23161,11.59713-.11164,.76964-.39859,1.77767-1.20824,2.32938-1.16123,.79121-2.74491,.19905-5.61943-.85289-1.33173-.48736-3.70872-1.35452-7.03152-2.54988-14.21531-5.49235-28.43069-10.9847-42.646-16.47705,0,0-3.70208-1.20978-1.26958-4.29647Z"/>
            <rect class="cls-31" x="96.22489" y="99.32127" width="1.5693" height="12.60457" transform="translate(43.62935 -27.48445) rotate(20.71358)"/>
            <rect class="cls-31" x="106.91825" y="103.43908" width="1.5693" height="12.60457" transform="translate(45.77703 -31.00049) rotate(20.71358)"/>
            <rect class="cls-31" x="118.21853" y="107.64369" width="1.5693" height="12.77136" transform="translate(48.02413 -34.72018) rotate(20.71358)"/>
            <rect class="cls-31" x="129.28851" y="111.83262" width="1.5693" height="12.85614" transform="translate(50.23629 -38.36208) rotate(20.71358)"/>
            <line class="cls-9" x1="88.02554" y1="98.97544" x2="141.17772" y2="119.10355"/>
            <line class="cls-9" x1="85.46409" y1="101.25776" x2="141.66623" y2="122.51"/>
            <line class="cls-9" x1="83.84417" y1="103.48466" x2="141.61893" y2="125.33158"/>
            <path d="M71.98477,104.33881c11.24169,5.44652,23.57173,10.87846,36.96424,16.02889,15.31042,5.88802,29.8604,10.58169,43.36277,14.34591,.08312,.52295,.52062,3.59066-1.5398,6.10446-1.00945,1.23161-2.20796,1.82932-2.90695,2.10838-13.23879-4.17891-27.1688-9.03881-41.64488-14.70715-13.51552-5.2922-26.19769-10.77643-38.02942-16.29464,0,0,.05769-7.49529,3.79403-7.58585Z"/>
            <polygon class="cls-68" points="158.33424 114.83002 147.94177 111.29124 143.62732 117.32378 153.01935 120.40605 157.0018 118.35369 158.33424 114.83002"/>
            <polygon class="cls-68" points="78.36417 84.80904 88.49791 89.03203 87.74134 96.40994 78.65978 92.50662 77.03174 88.33271 78.36417 84.80904"/>
            <circle class="cls-29" cx="78.53599" cy="99.76314" r="2.20302"/>
            <circle class="cls-29" cx="147.99833" cy="126.02958" r="2.20302"/>
            <polygon class="cls-53" points="104.1547 80.53464 107.6531 75.64506 141.96577 86.81036 144.66629 95.85367 104.1547 80.53464"/>
            <path class="cls-49" d="M108.21863,70.56387l.2836,3.87009,36.18902,11.80307,1.97539-1.80639s-28.01792-13.5512-38.44802-13.86677Z"/>
            <polygon class="cls-52" points="106.25616 72.26804 101.21279 79.42219 103.43974 79.71615 106.87381 74.12029 106.25616 72.26804"/>
            <polygon class="cls-52" points="144.57674 87.19707 147.05463 87.15998 146.36301 96.86849 144.70214 94.06308 144.57674 87.19707"/>
            <path d="M132.85385,93.05326v-.00002c.79294-2.09693,3.13567-3.15407,5.2326-2.36113s3.15413,3.13571,2.3612,5.23264v.00002l1.63835,.61953v-.00002c1.13511-3.00181-.37817-6.35544-3.38001-7.49055-3.00174-1.13508-6.35538,.37817-7.49048,3.37999v.00002l1.63835,.61953Z"/>
            <path d="M96.63408,90.26449c.79551-.07282,1.96856-.0582,3.13554,.5148,1.53468,.75354,1.63201,1.77212,2.79803,2.62868,1.92123,1.41134,3.41377-.0635,7.10665,.5468,.89754,.14833,2.77011,.95975,6.51517,2.58256,2.73582,1.18548,4.63909,2.11564,6.22039,1.28609,.72129-.37837,.56421-.69726,1.19696-.93036,1.67662-.61769,2.94801,1.5592,6.62038,2.81075,1.94388,.66247,1.9262,.16794,3.15202,.80775,1.86308,.97244,2.21574,2.27767,4.32744,4.21557,.73467,.67423,1.71091,1.45129,2.97899,2.19498-1.21102,.97865-2.42197,1.95732-3.63298,2.93597l-38.09438-14.40498-2.32421-5.18862Z"/>
            <ellipse class="cls-31" cx="121.07262" cy="102.32719" rx="1.05611" ry="7.2063" transform="translate(-17.46313 179.38093) rotate(-69.28642)"/>
            <ellipse class="cls-31" cx="126.73824" cy="103.5172" rx=".89083" ry="6.07852" transform="translate(-14.9145 185.44944) rotate(-69.28642)"/>
            <ellipse class="cls-31" cx="132.10877" cy="106.50039" rx=".89083" ry="6.07852" transform="translate(-14.23388 192.40086) rotate(-69.28642)"/>
            <path class="cls-67" d="M160.56146,88.37923c1.93282-5.1114-.53846-10.80564-5.52853-12.91516,.92588-6.30042-2.60747-12.61598-8.80852-14.96084-7.15716-2.7064-15.15319,.90166-17.85959,8.05882-2.0995,5.55219-.39726,11.60756,3.81226,15.30836-.26855,.85875-.34561,1.73516-.24771,2.58212-.10259-.04823-.20555-.09616-.3135-.13697-2.24386-.84849-4.75068,.2827-5.59918,2.52659s.28263,4.75074,2.52649,5.59922c.13663,.05166,.27427,.09542,.41242,.1326,.0174,.06769,.03741,.13457,.05799,.20124-1.16402,.31526-2.16662,1.16182-2.62576,2.37602-.75983,2.00938,.25316,4.25429,2.26253,5.01411l.02416,.00778c.17669,1.56782,1.20038,2.98415,2.77753,3.58052,2.24393,.84852,4.75076-.28269,5.59925-2.52656,.48607-1.28544,.32011-2.65575-.33012-3.75257,.07228,.0319,.14263,.06672,.21743,.09501,.63782,.24118,1.29601,.31739,1.93212,.25859,.83527,1.2102,2.03299,2.18831,3.51249,2.74776,3.87115,1.46383,8.19604-.48768,9.65987-4.35883,.42247-1.11724,.55884-2.27203,.44833-3.38516,3.54465-.5011,6.71446-2.86783,8.07003-6.45266Zm-26.03671,9.24859l-.01351-.00435c.04927-.01615,.09752-.03464,.14613-.05254,.02755,.05109,.05527,.10193,.08488,.15192-.07235-.03193-.14263-.06672-.2175-.09503Z"/>
            <path class="cls-53" d="M147.62546,84.59657s-14.23437-9.88674-40.10237-15.16429l-8.12275,10.97087,47.52004,17.9692,.70508-13.77578Zm-28.71278-.54601l-2.65364,.68369-.55915-3.45251-2.00459,2.48306-.92114-2.61261-3.63215,.89084,1.92641-3.42465-.25965-3.89234,3.319,4.3725,4.70528-4.22408-.28687,3.57656,4.77538,1.46073-4.16405,.72395,5.04996,5.41703-5.2948-2.00217Z"/>
            <polygon class="cls-53" points="156.08109 115.69676 153.38116 115.25453 154.80605 113.62862 147.94177 111.29124 143.62734 117.32379 153.01937 120.40605 157.00178 118.35368 155.41736 117.452 156.08109 115.69676"/>
            <path class="cls-53" d="M88.49792,89.03203l-10.13372-4.22299-1.33244,3.52367,1.62802,4.1739,9.08155,3.90333,.7566-7.3779Zm-3.64092,1.73043l-2.15157-2.02546-.98907,1.74675-2.16954-.21447-.24724-3.12313,1.6025,1.0327,.60355-2.03152,4.40275,1.83475-1.05137,2.78037Z"/>
          </g>
          <g>
            <path class="cls-18" d="M182.83203,205.80847s-18.38895-6.94479-15.85182-11.48514c2.53712-4.54035,6.68835-.76139,6.68835-.76139,0,0-14.4549-12.85627-5.57269-19.28374s12.84079,4.53695,12.84079,4.53695c0,0-6.16612-14.67345-.17618-19.49039,5.98994-4.81694,11.045,1.4217,11.045,1.4217,0,0-2.17648-17.22428,14.06052-10.62786,16.23701,6.59642,5.5024,12.24469,5.5024,12.24469,0,0,5.22488-.76951,4.65427,3.66345-.57061,4.43297-6.36609,9.63545-6.36609,9.63545,0,0,8.55977-.12994,4.54966,4.47617s-14.33297,10.84815-14.33297,10.84815c0,0,8.89407-4.62338,12.13051-1.32268s-.65004,6.94634-.65004,6.94634c0,0,3.61413,.36069,3.39051,2.10379-.88152,6.87148-24.20808,8.87104-24.20808,8.87104l-7.70416-1.77651Z"/>
            <path class="cls-7" d="M184.70341,205.23287s-18.38895-6.94479-15.85182-11.48514,6.68835-.76139,6.68835-.76139c0,0-14.4549-12.85627-5.57269-19.28374,8.8822-6.42747,12.84079,4.53695,12.84079,4.53695,0,0-6.16612-14.67345-.17618-19.49039s11.045,1.4217,11.045,1.4217c0,0-2.17648-17.22428,14.06052-10.62786s5.5024,12.24469,5.5024,12.24469c0,0,5.22488-.76951,4.65427,3.66345-.57061,4.43297-6.36609,9.63545-6.36609,9.63545,0,0,8.55977-.12994,4.54966,4.47617-4.01011,4.60611-14.33297,10.84815-14.33297,10.84815,0,0,8.89407-4.62338,12.13051-1.32268,3.23644,3.3007-.65004,6.94634-.65004,6.94634,0,0,3.61413,.36069,3.39051,2.10379-.88152,6.87148-24.20808,8.87104-24.20808,8.87104l-7.70416-1.77651Z"/>
          </g>
          <path class="cls-55" d="M191.02402,212.52974s-27.2961,4.96283-32.02043-3.10788c-4.72433-8.07072,7.08649-4.98485,7.08649-4.98485,0,0-6.82403-6.17172-1.83724-7.83334,4.98679-1.66162,10.20323,.9495,10.20323,.9495,0,0-5.21644-4.81414-2.32936-9.4096,2.88709-4.59546,7.34895,0,7.34895,0,0,0,6.2991-11.24193,11.54835-8.39345s0,18.2778,0,18.2778c0,0,10.4985-9.25759,12.86066-2.37374,2.36216,6.88385-12.86066,16.87557-12.86066,16.87557Z"/>
          <polygon class="cls-25" points=".00007 65.01302 54.06158 109.63828 155.51995 152.08833 180.40051 204.4365 301.35747 258.58736 .00007 258.58736 .00007 65.01302"/>
          <polygon class="cls-38" points="155.51995 152.08833 118.77682 156.46718 99.02613 150.47816 75.57337 152.14951 54.23851 142.16736 65.61208 182.12949 99.14078 193.49848 131.53101 191.55375 154.72632 200.49806 180.40051 204.4365 155.51995 152.08833"/>
          <polyline class="cls-12" points="53.46328 112.10806 153.60223 154.00605 178.48278 206.35423 201.89916 216.64675"/>
        </g>
        <g>
          <polygon class="cls-24" points="161.9737 258.58736 185.4526 228.90523 199.74351 174.30786 231.93896 142.35105 245.42699 118.73214 300.0182 114.92036 332.1177 93.89639 374.95503 75.50496 374.95503 258.58736 161.9737 258.58736"/>
          <polygon class="cls-26" points="245.42699 118.73214 259.16979 126.82262 285.95814 129.61256 317.1192 122.55539 300.0182 114.92036 245.42699 118.73214"/>
          <polygon class="cls-26" points="231.93896 142.35105 251.33214 152.14951 262.72002 166.68768 275.5135 169.44111 270.70655 190.03991 243.01307 190.03991 223.39164 178.16225 199.74351 174.30786 231.93896 142.35105"/>
          <polygon class="cls-26" points="185.4526 228.90523 195.50515 236.63634 233.26287 236.63634 185.4526 264.37312 161.9737 258.58736 185.4526 228.90523"/>
          <polyline class="cls-11" points="163.49199 258.43046 189.28805 227.80938 203.57896 173.21201 235.77442 141.2552 249.26244 117.63629 303.85365 113.82451 330.26232 96.52783"/>
          <g>
            <path class="cls-47" d="M301.52268,114.80267c.3016,.58863,1.17428,2.09673,3.01096,3.067,1.37151,.72454,2.64978,.81593,3.3149,.816-1.70858,1.78404-4.20714,2.52106-6.50205,1.8974-2.80659-.7627-4.00405-3.20599-4.17737-3.57502,.47568-.00055,1.20326-.06256,2.01219-.388,1.27714-.51382,2.02203-1.38855,2.34137-1.81738Z"/>
            <path class="cls-34" d="M277.83185,116.46337l.25584,4.74839-6.71566,.36184s-3.171-.60493,1.34036-2.61115l-.15369-2.60371,5.27315,.10463Z"/>
            <path class="cls-34" d="M295.57769,115.50723l.25584,4.74839-6.71566,.36184s-3.171-.60493,1.34036-2.61115l-.15369-2.60371,5.27315,.10463Z"/>
            <path class="cls-47" d="M297.21602,116.3833l.33791,5.62929-6.71566,.36184s-3.171-.60493,1.34035-2.61115l-.00389-3.33008,5.04127-.0499Z"/>
            <path class="cls-47" d="M279.5508,117.18462l.23776,5.71393-6.71566,.36184s-3.17101-.60493,1.34035-2.61115l-.15331-3.11852,5.29085-.3461Z"/>
            <path class="cls-47" d="M253.64356,119.68432c-1.10483,.72121-2.2275,.66718-2.63689,.14208-.06302-.08084-.26214-.36908-.16085-.95637,0-.00002,.0944-.45501,1.3467-1.57586,0,0,2.3861-2.90864,3.89882-7.30279,1.32475-3.84811,7.46211-5.99372,10.58217-4.28535,1.0952,.59967,1.62869,1.56202,1.97735,2.19095,0,.00001,1.87751,3.38674-.37307,7.41203-.29073,.51999-.58848,.8673-.95094,1.13591-.74621,.55301-1.54876,.61099-2.42926,.6632-1.75459,.10406-3.10945,.16888-4.13289,.21211-.11344,.02093-.22708,.04267-.34097,.06521-2.43256,.48153-4.69099,1.2784-6.78017,2.29887Z"/>
            <path class="cls-47" d="M291.39418,116.83511s-4.83655,1.07174-11.82379,.71306l.04173-1.57332s6.48308-5.28875,11.70174-.63049l.08032,1.49075Z"/>
            <path class="cls-42" d="M301.59524,114.95892s4.48072-12.54597-15.13698-18.20643c0,0-13.73711-2.38782-20.95901,8.40591,0,0,4.47275,1.10653,3.58253,7.32911,0,0-.30176,3.37219-2.95152,4.38226l4.21112,1.41701s3.7122,3.20824,11.10503-1.9092c0,0,3.50486-3.07275,10.73009,.86382,0,0,9.2098,.93351,9.41874-2.28247Z"/>
            <path class="cls-47" d="M265.49925,105.1584s-.88262-3.6196-6.47334-3.83815c0,0-.43045,1.92143,1.53164,4.56826,0,0,1.84398-1.30696,4.94171-.7301Z"/>
            <path class="cls-47" d="M265.3022,106.19501s1.56273-3.65963,7.47853-3.17206c0,0-.16598,3.93854-4.03829,5.53234,0,0-1.15204-1.74244-3.44024-2.36028Z"/>
            <path class="cls-33" d="M268.67781,108.10019s2.24197-.57282,3.62966-.19557,1.45401,3.42095,1.23918,3.78413c-.47438-.02259-1.18166-.12049-1.94305-.48629-1.53498-.73745-2.22801-2.05352-2.44487-2.51539,.34578,.7901,.67661,1.70936,.9311,2.75073,.67655,2.76844,.51874,5.19327,.25157,6.84898-.06504,.37325-.19372,.84512-.4574,1.34226-.67682,1.27608-1.79157,1.8675-2.25891,2.08161-.07981-.92413-.31594-2.18874-.99374-3.52326-.22572-.4444-.4695-.83571-.71136-1.17634,.26004-.19459,.59606-.46829,.9565-.82884,.17033-.17037,.63553-.6396,.99531-1.18971,.17052-.26073,.5772-.93693,.8335-2.31909,.33234-1.7922,.16824-3.45753-.02749-4.57321Z"/>
            <path class="cls-22" d="M250.84119,118.88919s1.35712,1.06829,6.16838-4.80549c0,0,.50056-.49755,1.54725-1.17463,.99048-.64072,1.72485-.98613,2.89522-1.5252,2.16613-.99771,3.30346-1.43305,4.23908-2.18617,.67957-.54702,1.09028-1.03522,1.32108-1.67366,.20803-.57541,.20692-1.09859,.17778-1.43171-.23214-.19674-.59745-.47142-1.09167-.70525-1.61304-.76318-3.19439-.42889-3.99528-.25542-1.46874,.31811-2.46438,.96268-3.09489,1.3793-.55938,.36961-1.28321,.85693-1.96205,1.74904-.50029,.65743-.78825,1.28779-.95477,1.73139-.86466,2.26398-1.70565,3.93319-2.19199,4.77039-.43754,.75321-1.10537,1.72359-1.24324,1.91598-.11776,.16433-.19911,.24518-.32723,.43598-.02896,.04315-.06536,.09937-.13026,.16273-.03393,.03313-.05608,.04909-.1914,.15579l-.11498,.09104s-.12172,.09773-.26666,.2362c-.22521,.21515-.44843,.42841-.62592,.75782-.04516,.08381-.10565,.20911-.15846,.37188Z"/>
            <path class="cls-15" d="M294.36141,100.15711c.4336,1.3084,.87034,3.25271,.63997,5.56643-.5876,5.9017-5.03668,9.39677-6.00894,10.12552l-.5976-.17889c.87682-1.07092,3.51043-4.56624,3.58601-9.69768,.0566-3.84334-1.3498-6.70252-2.08563-7.98386,.75903,.28984,1.57306,.63785,2.42461,1.05726,.74195,.36542,1.42254,.74078,2.04159,1.11123Z"/>
            <path class="cls-15" d="M284.97682,115.2461c.10832-1.72898,.04195-3.97375-.59524-6.48272-1.55985-6.14203-5.53503-9.90836-7.35101-11.42546,.74146-.18267,1.56669-.34975,2.46741-.47707,.91638-.12953,1.76935-.1979,2.5435-.22707,1.09231,1.34767,2.43322,3.33068,3.42496,5.96241,1.23397,3.27453,1.33125,5.97149,1.34644,6.55407,.06702,2.56929-.40218,4.66387-.82167,6.04118l-1.01439,.05466Z"/>
            <path class="cls-15" d="M286.46973,96.85206c.80467,1.38076,1.65779,3.21805,2.17744,5.47847,1.37573,5.98427-.48972,11.00207-1.40869,13.07536l-1.24726-.21444c.41962-1.38163,.75902-3.04241,.81933-4.92943,.21456-6.71239-3.24891-11.69479-4.76906-13.62824,.67762-.05254,1.45022-.07286,2.2991-.02723,.7861,.04226,1.4999,.13368,2.12914,.24551Z"/>
            <path class="cls-15" d="M289.89521,97.98862c-.59136-.24367-1.23411-.48263-1.92649-.705-.51903-.1667-1.01993-.30929-1.49899-.43156,.80467,1.38076,1.65779,3.21805,2.17744,5.47847,1.37573,5.98427-.48972,11.00207-1.40869,13.07536l1.15635,.26427c.87713-1.06046,2.35462-3.13143,3.11015-6.14134,.33679-1.34174,.80364-3.95973,.10897-7.1168-.42602-1.93617-1.14802-3.43473-1.71874-4.42339Z"/>
            <ellipse class="cls-41" cx="264.12565" cy="112.44842" rx=".58951" ry="1.06304" transform="translate(-5.66738 14.37332) rotate(-3.08411)"/>
          </g>
        </g>
        <g>
          <g>
            <path class="cls-61" d="M38.27805,62.41323s14.50142-5.47662,12.50066-9.05712-5.2744-.60043-5.2744-.60043c0,0,11.39905-10.13838,4.3946-15.20705-7.00446-5.06867-10.12618,3.57782-10.12618,3.57782,0,0,4.86257-11.5714,.13894-15.37002s-8.71003,1.12114-8.71003,1.12114c0,0,1.71636-13.58297-11.08805-8.38107s-4.33916,9.65609-4.33916,9.65609c0,0-4.12031-.60683-3.67033,2.88898s5.02026,7.59846,5.02026,7.59846c0,0-6.75019-.10247-3.58784,3.52988s11.3029,8.55479,11.3029,8.55479c0,0-7.01381-3.64597-9.56606-1.04306s.51261,5.47784,.51261,5.47784c0,0-2.85008,.28444-2.67373,1.65904,.69517,5.41881,19.09036,6.99565,19.09036,6.99565l6.07545-1.40095Z"/>
            <path class="cls-3" d="M36.80229,61.95932s14.50142-5.47662,12.50066-9.05712-5.2744-.60043-5.2744-.60043c0,0,11.39905-10.13838,4.3946-15.20705-7.00446-5.06867-10.12618,3.57782-10.12618,3.57782,0,0,4.86257-11.5714,.13894-15.37002s-8.71003,1.12114-8.71003,1.12114c0,0,1.71636-13.58297-11.08805-8.38107s-4.33916,9.65609-4.33916,9.65609c0,0-4.12031-.60683-3.67033,2.88898,.44998,3.49581,5.02026,7.59846,5.02026,7.59846,0,0-6.75019-.10247-3.58784,3.52988,3.16235,3.63235,11.3029,8.55479,11.3029,8.55479,0,0-7.01381-3.64597-9.56606-1.04306s.51261,5.47784,.51261,5.47784c0,0-2.85008,.28444-2.67373,1.65904,.69517,5.41881,19.09036,6.99565,19.09036,6.99565l6.07545-1.40095Z"/>
          </g>
          <path class="cls-55" d="M38.16944,73.20184s-12.12783-10.96327-7.78079-16.06851,7.57921,3.5053,7.57921,3.5053c0,0-4.14385-10.32147,.37011-10.77865s5.87927,3.87348,5.87927,3.87348c0,0-5.31119-12.55531,1.88895-13.36297s6.15273,12.43088,6.15273,12.43088c0,0,5.36701-5.32615,5.72212,.32208s-9.15213,11.11931-9.15213,11.11931c0,0,6.74918-1.11479,5.3919,1.49236s-5.72654,3.20649-5.72654,3.20649c0,0,5.60848-2.37131,5.38213,.39571s-7.53805,5.52973-7.53805,5.52973l-8.1689-1.6652Z"/>
          <path class="cls-55" d="M11.60446,56.22409s17.44228,2.2983,20.46113-1.43927-4.52828-2.3085-4.52828-2.3085c0,0,4.36057-2.85814,1.174-3.62764-3.18657-.7695-6.51989,.43971-6.51989,.43971,0,0,3.33332-2.22944,1.48846-4.35761s-4.696,0-4.696,0c0,0-4.02514-5.20616-7.37942-3.88702s0,8.46449,0,8.46449c0,0-6.70857-4.28721-8.218-1.09928s8.218,7.81511,8.218,7.81511Z"/>
          <polygon class="cls-28" points=".00007 52.8246 28.27243 50.5578 51.03156 82.49648 63.60003 162.52259 81.26383 201.27963 140.70931 258.58736 .00007 258.58736 .00007 52.8246"/>
          <polygon class="cls-27" points="35.69536 86.05402 51.03156 82.49648 28.27243 50.5578 19.78212 62.3129 .00007 70.71532 .00007 95.42372 14.91805 99.35176 35.69536 86.05402"/>
          <polygon class="cls-27" points="63.60003 162.52259 51.40292 175.36467 31.49014 175.62837 16.73906 168.43115 .00007 170.42739 .00007 195.29164 14.91805 201.27963 51.40292 205.80642 65.61208 199.34095 81.26383 201.27963 63.60003 162.52259"/>
          <g>
            <polygon class="cls-21" points="13.17142 110.84383 9.1074 112.69888 9.7424 115.91428 12.40941 115.91428 15.58443 114.55516 16.09243 111.78311 13.17142 110.84383"/>
            <polygon class="cls-21" points="21.95635 111.03491 19.78212 112.69888 19.78212 114.55516 21.95635 114.86043 24.06629 113.07969 23.24726 111.78311 21.95635 111.03491"/>
            <polygon class="cls-21" points="16.8845 116.21251 14.10705 118.21717 14.84112 119.69372 16.8845 120.10237 17.91588 118.15744 19.49356 116.86984 16.8845 116.21251"/>
            <polygon class="cls-21" points="49.59135 143.23356 46.51604 145.7224 48.05369 148.61359 51.40292 148.038 51.40292 144.65576 49.59135 143.23356"/>
            <polygon class="cls-21" points="41.46134 139.41935 39.5113 143.23356 41.46134 145.92358 43.61421 145.92358 44.69504 142.67146 43.61421 138.60682 41.46134 139.41935"/>
            <polygon class="cls-21" points="43.1005 93.41187 40.36847 95.64043 41.73448 96.90836 44.0726 98.12126 46.51604 95.64043 45.57233 93.41187 43.1005 93.41187"/>
            <polygon class="cls-21" points="6.25474 153.26779 7.5557 153.26779 8.33628 154.57258 9.1074 156.46718 7.29551 158.75912 4.56348 158.37083 4.56348 155.66462 6.25474 153.26779"/>
            <polygon class="cls-21" points="67.78611 207.42604 64.351 208.81279 63.25176 210.87385 65.61208 211.56902 68.61053 210.32423 70.35469 208.67538 67.78611 207.42604"/>
          </g>
          <polygon class="cls-32" points="104.22264 228.2744 78.97085 203.93065 78.90932 203.79538 61.20107 164.94099 61.18455 164.83547 48.64485 84.99149 26.24942 53.56343 0 55.66824 0 54.10099 27.00769 51.93552 50.13088 84.38477 50.15962 84.56684 62.71151 164.48735 80.26922 203.01218 105.3069 227.14945 104.22264 228.2744"/>
        </g>
        <g>
          <g>
            <g>
              <path class="cls-59" d="M323.39103,26.67651c4.58417-8.35377,12.76209-1.26518,12.76261-1.26518h0s-4.36821-9.52978,2.24149-11.48048c6.6097-1.95072,11.75931,5.79159,11.75931,5.79159,0,0-1.86173-2.68795,2.25951-3.06061s5.47533,5.3557,5.47533,5.3557c0,0,2.40719-5.84133,5.54882-4.04742,3.14164,1.79392,.52952,8.53478,.52952,8.53478,0,0,1.08525-1.82587,3.55473,.52265,2.46949,2.34852-13.78984,37.89474-26.79801,33.80823-13.00816-4.08651-1.80076-8.94789-1.80076-8.94789,0,0-15.5678,4.00664-15.93525-5.45934-.36746-9.46598,7.45865-8.67971,7.45865-8.67971-9.45343-3.56386-7.86231-9.60288-7.05595-11.07232Z"/>
              <path class="cls-13" d="M321.82922,27.12277c4.58417-8.35377,12.76209-1.26518,12.76261-1.26518h0s-4.36821-9.52978,2.24149-11.48048c6.6097-1.95072,11.75931,5.79159,11.75931,5.79159,0,0-1.86173-2.68795,2.25951-3.06061,4.12124-.37266,5.47533,5.3557,5.47533,5.3557,0,0,2.40719-5.84133,5.54882-4.04742,3.14164,1.79392,.52952,8.53478,.52952,8.53478,0,0,1.08525-1.82587,3.55473,.52265,2.46949,2.34852-13.78984,37.89474-26.79801,33.80823-13.00816-4.08651-1.80076-8.94789-1.80076-8.94789,0,0-15.5678,4.00664-15.93525-5.45934-.36746-9.46598,7.45865-8.67971,7.45865-8.67971-9.45343-3.56386-7.86231-9.60288-7.05595-11.07232Z"/>
            </g>
            <path class="cls-55" d="M362.734,14.30394s2.42678-3.95519,4.43947-2.50129c2.01276,1.45392-.81318,6.93079-.81318,6.93079,0,0,3.60528-3.66086,7.57567-.09661,3.97046,3.56424-4.34908,13.00849-13.08508,14.9122-8.736,1.90371-20.8747-4.21964-19.07736-8.07265,1.7973-3.85301,7.13288-.83409,7.13288-.83409,0,0-7.62614-7.17961-3.02549-10.67829,4.60064-3.4987,7.9597,2.26919,7.9597,2.26919-.54134-.95113-2.17371-7.27083-1.15217-12.61611,.50321-1.07154,1.69752-3.32785,3.25939-3.58972,3.1448-.52729,4.93345,6.64937,6.78618,14.27658Z"/>
            <polygon class="cls-28" points="228.05842 258.58736 256.87715 217.26211 276.93846 147.0251 316.9559 117.49126 334.65655 70.71532 347.16378 37.66358 374.95503 16.95357 374.95503 258.58736 228.05842 258.58736"/>
            <polygon class="cls-27" points="316.9559 117.49126 333.23054 124.93336 354.81096 122.55539 374.95496 134.08148 374.95496 177.47147 358.27486 182.12949 348.70578 177.47147 312.04646 162.93317 291.30951 162.93317 276.93846 147.0251 316.9559 117.49126"/>
            <polygon class="cls-27" points="374.95503 16.95357 347.16378 37.66358 356.88729 46.42658 374.95497 36.56995 374.95503 16.95357"/>
            <polygon class="cls-21" points="366.32112 52.92139 368.80908 52.88662 369.12933 55.5983 367.96876 58.06531 365.53677 58.06531 364.87042 56.00515 366.32112 52.92139"/>
            <polygon class="cls-21" points="336.63741 105.34667 332.82051 106.7208 331.86628 109.14853 334.25185 109.85874 336.63741 111.36733 339.6364 109.85874 339.6364 107.52408 336.63741 105.34667"/>
            <polygon class="cls-21" points="365.82068 116.82079 364.14848 118.39356 365.82068 119.75092 368.2744 118.39356 368.2744 116.82079 365.82068 116.82079"/>
            <polygon class="cls-21" points="331.04838 111.13425 328.59466 111.81584 327.30989 113.38861 329.17913 114.74596 331.04838 114.74596 333.77473 113.2809 331.04838 111.13425"/>
            <polygon class="cls-21" points="338.58519 98.25718 336.68355 99.2307 335.75134 101.01456 337.7708 102.2002 339.60355 101.62954 340.30774 100.11853 338.58519 98.25718"/>
            <polygon class="cls-21" points="351.02651 196.02339 348.70578 197.86207 350.39976 200.08861 353.04771 199.69144 354.81096 197.86207 353.31074 196.02339 351.02651 196.02339"/>
            <polygon class="cls-21" points="302.08057 169.86456 299.68534 171.57074 298.5688 173.70197 301.60878 175.02851 303.3948 173.18597 304.14613 170.77138 302.08057 169.86456"/>
            <polygon class="cls-21" points="278.68201 200.36493 274.15557 201.90461 272.34499 204.98619 275.5135 207.00939 280.01389 207.00939 281.43886 203.68716 281.43886 201.24959 278.68201 200.36493"/>
          </g>
          <polygon class="cls-32" points="261.23477 217.80457 259.73247 217.37534 279.86682 146.88261 280.08093 146.72444 319.91303 117.32734 350.12053 37.50142 374.95593 18.99407 374.95424 20.94371 351.41991 38.48142 321.21139 118.3109 281.22266 147.82345 261.23477 217.80457"/>
        </g>
      </g>
      <g>
        <g>
          <path class="cls-51" d="M351.46088,162.43162c-6.12948,2.77681-7.25777,10.53342-7.38331,11.49706l.74063,5.81893c2.32681-.35364,9.57366-1.76375,13.40743-7.83558,.2735-.43316,4.04218-6.53642,1.64254-9.32867-1.788-2.08054-6.05185-1.21879-8.40728-.15174Z"/>
          <path class="cls-51" d="M296.40583,187.44562c-2.42066,3.46178-1.25912,8.42576,.46592,11.44837,.66613,1.16718,2.84537,4.98563,6.48963,5.55776,2.70177,.42416,4.57986-1.19174,8.35332-.26622,1.05585,.25898,1.881,.62393,2.40207,.88443l-1.05041-7.60797c-.37496-.14688-.92993-.40087-1.51806-.83105-3.27846-2.39783-1.9039-6.11262-4.63843-9.19943-1.70097-1.92011-4.67136-3.23544-7.2093-2.51522-1.9039,.54027-2.96346,2.05556-3.29473,2.52932Z"/>
          <path class="cls-51" d="M330.60666,189.1231c.63999-.1836,1.51918-.5503,2.18446-1.34172,.90108-1.07191,1.34273-2.84314,.39233-6.34157-1.68522-6.20321-4.81046-7.02684-6.62339-11.84091-.16879-.44823-3.26687-9.03948,1.54822-14.11788,3.03265-3.19848,8.64804-4.41697,12.24416-2.21368,3.02221,1.85165,3.5011,5.43557,4.32815,12.46508,1.14386,9.72225,1.85184,15.73992-1.75768,22.06094-3.27167,5.72944-8.40403,8.75484-11.76164,10.26265l-.55461-8.93291Z"/>
          <path class="cls-51" d="M318.14446,222.46959s-14.25783-38.54568,.82952-43.72346c15.08735-5.17778,14.10548,25.31358,8.07625,42.76462,0,0-4.55023,2.15612-8.90577,.95885Z"/>
          <line class="cls-17" x1="334.99283" y1="152.20681" x2="335.3589" y2="195.74739"/>
          <line class="cls-17" x1="340.35244" y1="153.26733" x2="340.59985" y2="191.11429"/>
          <line class="cls-17" x1="329.31577" y1="154.40949" x2="329.48165" y2="174.13864"/>
          <line class="cls-17" x1="347.15796" y1="166.36242" x2="347.26632" y2="179.25082"/>
          <line class="cls-17" x1="352.6728" y1="162.10201" x2="352.79645" y2="176.80941"/>
          <line class="cls-17" x1="317.1192" y1="179.74761" x2="317.1192" y2="218.9721"/>
          <line class="cls-17" x1="322.1942" y1="178.1633" x2="322.18269" y2="222.83283"/>
          <line class="cls-17" x1="327.26301" y1="180.97534" x2="327.25222" y2="222.83389"/>
          <line class="cls-17" x1="298.01569" y1="185.93082" x2="298.01196" y2="200.40855"/>
          <line class="cls-17" x1="302.55236" y1="184.86808" x2="302.54741" y2="204.07046"/>
          <line class="cls-17" x1="307.087" y1="188.0248" x2="307.08286" y2="204.07162"/>
          <line class="cls-17" x1="331.70263" y1="188.53506" x2="331.70024" y2="197.8043"/>
          <line class="cls-17" x1="311.35469" y1="196.63503" x2="311.31121" y2="204.09484"/>
          <path class="cls-36" d="M308.73774,224.54043c.92424,.01441,2.41522-.04803,4.14735-.55134,2.03809-.59225,2.42907-1.21922,4.7339-1.92303,1.80827-.55219,3.29114-.6925,4.49644-.80661,.95454-.09034,2.45424-.22518,4.41696-.06183,.73822,.06146,2.7108,.26232,5.16978,1.03623,1.55773,.49024,1.69508,.70198,2.90864,1.06432,1.92539,.57487,3.71257,.67864,5.19386,.60593"/>
          <polygon class="cls-37" points="322.18844 191.38261 318.03578 189.11408 322.15737 186.83033 322.18844 191.38261"/>
          <polygon class="cls-37" points="340.47614 179.74761 336.32348 177.47908 340.44507 175.19533 340.47614 179.74761"/>
          <polygon class="cls-37" points="302.85529 198.32436 298.70263 196.05582 302.82422 193.77207 302.85529 198.32436"/>
          <polygon class="cls-37" points="329.32935 166.68768 333.48202 164.41914 329.36043 162.13539 329.32935 166.68768"/>
          <polygon class="cls-37" points="352.73463 171.71725 356.88729 169.44872 352.7657 167.16497 352.73463 171.71725"/>
          <polygon class="cls-37" points="316.89765 214.13664 321.05031 211.8681 316.92872 209.58435 316.89765 214.13664"/>
        </g>
        <g>
          <g>
            <path class="cls-20" d="M28.24297,160.71726c-.41082,.3837-1.07261,.92263-1.99462,1.35912-.75683,.35828-3.14808,1.49034-5.45623,.3823-1.50741-.72364-2.24546-2.05044-2.54057-2.68622,2.08721-.71774,3.86187-.93177,5.07726-.99276,3.16077-.1586,4.03336,.64292,4.30006,.92534,.33522,.355,.51447,.73844,.6141,1.01223Z"/>
            <path class="cls-20" d="M28.35047,160.40762c-.48797,.27238-1.33652,.6541-2.41871,.66897-2.28662,.03144-3.83654-1.6016-4.39821-2.18685-1.02096-1.06383-1.50991-2.21699-1.75144-2.98568,1.14116-.24931,3.0977-.4852,5.21448,.29015,.49864,.18265,.94214,.39795,1.33181,.62222l.00029,.00017c.55033,.31895,.82551,.4784,1.08425,.7693,.44535,.50072,.57067,1.09366,.76752,1.9183,.08892,.37246,.13999,.68624,.17001,.90342Z"/>
            <path class="cls-20" d="M28.2627,160.6425c-.53483-.08331-1.38443-.28348-2.26669-.82941-2.10075-1.29991-2.69909-3.51592-2.87742-4.17644-.17806-.65952-.40313-1.84239-.16063-3.34479,2.34259,.87876,3.9619,2.03097,4.63141,2.81238,.47459,.55393,.85211,1.19817,.85214,1.19822,.32159,.5488,.48236,.8232,.56407,1.20386,.15623,.72796-.04928,1.35245-.27793,2.04734-.15495,.47085-.33321,.84154-.46494,1.08884Z"/>
            <path class="cls-20" d="M28.21245,160.72873c-.40953-.49591-.93268-1.23181-1.36263-2.21149-.64845-1.47753-.74722-2.74-.76946-3.13255-.11655-2.05646,.53935-3.66386,.94573-4.47767,.50402,.35868,2.52212,1.8805,2.96644,4.53428,.10327,.61677,.32687,2.07772-.44546,3.6102-.41519,.8238-.96666,1.36766-1.33461,1.67723Z"/>
          </g>
          <path class="cls-51" d="M54.76476,197.289c-.61475,1.32761-1.21767,2.62969-2.45667,3.67264-3.39763,2.86002-9.688,2.18027-15.75351-1.33806l.48785-4.5783c1.11565,1.32996,2.68772,2.81427,4.14609,2.49815,1.16493-.25251,1.56733-1.5042,3.32182-4.89991,3.15479-6.1059,4.37126-6.93132,5.17875-7.31782,1.3516-.64696,3.51369-1.00062,4.99112,0,2.90184,1.96535,1.80918,8.23872,.08454,11.96329Z"/>
          <path class="cls-51" d="M11.84065,185.47617c.59838,2.21967,1.47632,5.47627,4.48011,7.09682,3.2082,1.7308,7.62182,.93733,11.15324-1.95874l-.20514-3.95624c-.19541,.1743-1.64721,1.43201-3.21694,.99875-.25805-.07123-1.18002-.37051-2.15401-2.16476-.99358-1.83035-.93692-3.18195-1.25059-5.35407-.48956-3.39016-.88475-6.12675-2.5821-6.99199-1.35378-.69009-3.20281-.01994-4.28188,.75327-4.15898,2.9802-2.04613,11.19328-1.9427,11.57695Z"/>
          <path class="cls-51" d="M48.25684,162.79924c1.52944,.88156,1.93551,4.19681,.13927,7.93097-.4447,.7489-1.15121,1.63286-2.24385,2.24383-2.3784,1.32991-5.63784,.83581-8.34959-1.18323l-.15617-3.74542c2.0666,1.10293,3.16414,.95487,3.78738,.59743,1.47858-.84802,.72925-3.12768,2.4859-4.80724,1.18213-1.13023,3.19281-1.69588,4.33705-1.03634Z"/>
          <path class="cls-51" d="M28.81083,214.4085s-9.28015-57.87437,2.53095-58.54929c11.8111-.67492,8.23791,31.27181,5.09146,58.54929h-7.62241Z"/>
          <line class="cls-4" x1="28.6179" y1="157.77606" x2="29.09419" y2="214.42649"/>
          <line class="cls-4" x1="32.71146" y1="155.93721" x2="32.69639" y2="214.42649"/>
          <line class="cls-4" x1="14.40241" y1="173.51693" x2="14.39797" y2="190.74205"/>
          <line class="cls-4" x1="18.52337" y1="173.71646" x2="18.51834" y2="193.22711"/>
          <line class="cls-4" x1="44.75269" y1="192.54532" x2="44.75094" y2="202.57785"/>
          <line class="cls-4" x1="49.6033" y1="185.49935" x2="49.5794" y2="202.68007"/>
          <line class="cls-4" x1="54.24016" y1="185.21291" x2="54.23685" y2="197.8946"/>
          <line class="cls-4" x1="44.75474" y1="163.39146" x2="44.75216" y2="173.47084"/>
          <line class="cls-4" x1="48.25535" y1="162.99021" x2="48.19051" y2="170.72381"/>
          <line class="cls-4" x1="22.64072" y1="186.84216" x2="22.63907" y2="193.22702"/>
          <line class="cls-4" x1="39.88436" y1="197.52104" x2="39.88342" y2="201.16086"/>
          <line class="cls-4" x1="41.43388" y1="168.64282" x2="41.48879" y2="173.47131"/>
          <line class="cls-4" x1="36.41037" y1="158.98615" x2="36.2986" y2="214.42649"/>
          <path class="cls-36" d="M19.26946,216.87093c.81059,.01264,2.11822-.04212,3.63734-.48354,1.78746-.51942,2.13037-1.06929,4.15177-1.68655,1.58591-.48429,2.88643-.60734,3.94351-.70742,.83716-.07923,2.15244-.19749,3.8738-.05422,.64744,.0539,2.37745,.23007,4.53404,.9088,1.36618,.42995,1.48663,.61566,2.55096,.93344,1.68862,.50417,3.25603,.59519,4.55517,.53142"/>
          <polygon class="cls-37" points="18.56006 188.70256 14.91805 186.71299 18.53281 184.71008 18.56006 188.70256"/>
          <polygon class="cls-37" points="32.82308 170.42739 29.18107 168.43782 32.79583 166.43491 32.82308 170.42739"/>
          <polygon class="cls-37" points="32.81202 207.42604 36.45403 205.43647 32.83928 203.43356 32.81202 207.42604"/>
          <polygon class="cls-37" points="49.58191 194.0324 53.22392 192.04283 49.60917 190.03991 49.58191 194.0324"/>
          <polygon class="cls-37" points="32.66688 188.05017 36.30889 186.0606 32.69413 184.05768 32.66688 188.05017"/>
          <polygon class="cls-37" points="44.69504 170.42739 48.33705 168.43782 44.72229 166.43491 44.69504 170.42739"/>
        </g>
        <g>
          <path class="cls-60" d="M232.87442,212.43005c1.59815-1.73778,4.0499-1.89048,4.47599-1.91702,3.71156-.23116,7.45041,2.37574,9.32997,6.66281,0,0,1.51003-13.15881,9.4916-9.92304,7.98158,3.23578,10.13876,14.23741,10.13876,14.23741,0,0,3.45149-7.1187,8.62872-2.3729,5.17725,4.7458,1.0786,8.62873,1.0786,8.62873,0,0,8.84445-1.94147,8.62872,2.58862-.21571,4.53008-4.09863,9.92304-4.09863,9.92304,0,0,5.39294,1.51003,2.91219,4.53008-2.48075,3.02006-6.79513,0-6.79513,0,0,0,3.23578,6.68727-21.14038,6.25583-24.37615-.43144-17.47318-6.04011-17.47318-6.04011,0,0-9.70732,2.37291-9.27588-1.72574,.43144-4.09864,3.4515-4.31436,3.4515-4.31436,0,0-6.49948-4.37495-3.46546-10.06119,3.03403-5.68624,6.48552-2.01904,6.48552-2.01904-4.41787-5.48308-4.99131-11.60594-2.3729-14.45311Z"/>
          <path class="cls-1" d="M231.75896,210.67545c1.59815-1.73778,4.0499-1.89048,4.47599-1.91702,3.71156-.23116,7.45041,2.37574,9.32997,6.66281,0,0,1.51003-13.15881,9.4916-9.92304,7.98158,3.23578,10.13876,14.23741,10.13876,14.23741,0,0,3.45149-7.1187,8.62872-2.3729,5.17725,4.7458,1.0786,8.62873,1.0786,8.62873,0,0,8.84445-1.94147,8.62872,2.58862-.21571,4.53008-4.09863,9.92304-4.09863,9.92304,0,0,5.39294,1.51003,2.91219,4.53008-2.48075,3.02006-6.79513,0-6.79513,0,0,0,3.23578,6.68727-21.14038,6.25583-24.37615-.43144-17.47318-6.04011-17.47318-6.04011,0,0-9.70732,2.37291-9.27588-1.72574,.43144-4.09864,3.4515-4.31436,3.4515-4.31436,0,0-6.49948-4.37495-3.46546-10.06119,3.03403-5.68624,6.48552-2.01904,6.48552-2.01904-4.41787-5.48308-4.99131-11.60594-2.3729-14.45311Z"/>
        </g>
        <path class="cls-55" d="M217.22789,259.71788s-16.67712-11.27725-12.25668-18.25133c4.42044-6.97409,9.84553,2.9677,9.84553,2.9677,0,0-6.83159-11.87079-1.4065-13.20625s7.83623,3.70962,7.83623,3.70962c0,0-8.63995-14.39333,0-16.6191,8.63995-2.22577,9.6446,14.09656,9.6446,14.09656,0,0,5.62601-7.41924,7.03252-.59354,1.4065,6.8257-9.24274,15.13525-9.24274,15.13525,0,0,8.03716-2.52254,6.83159,.89031s-6.42973,4.8967-6.42973,4.8967c0,0,6.42973-3.85801,6.63066-.44515s-8.23809,8.04166-8.23809,8.04166l-10.24738-.62241Z"/>
        <g>
          <path class="cls-64" d="M105.09933,202.41244c9.13628,.20957,6.71739,10.30308,6.71763,10.30352h0s6.18047-7.92988,10.76212-3.1663c4.58167,4.76357,.26793,12.56851,.26793,12.56851,0,0,1.46496-2.7726,3.60364,.57042s-2.13845,7.02734-2.13845,7.02734c0,0,6.03568-.5329,5.89735,2.93392-.13833,3.46683-7.03021,4.22287-7.03021,4.22287,0,0,2.03371,.1167,1.12626,3.25656-.90745,3.13986-38.34832,5.01161-40.61947-7.86623-2.27115-12.87784,6.81996-5.48745,6.81996-5.48745,0,0-10.2908-11.47945-2.39639-15.97595,7.89441-4.49651,10.68416,2.51208,10.68416,2.51208-1.14487-9.62129,4.69838-10.93614,6.30546-10.89928Z"/>
          <path class="cls-14" d="M104.02922,201.28037c9.13628,.20957,6.71739,10.30308,6.71763,10.30352h0s6.18047-7.92988,10.76212-3.1663c4.58167,4.76357,.26793,12.56851,.26793,12.56851,0,0,1.46496-2.7726,3.60364,.57042,2.13868,3.34302-2.13845,7.02734-2.13845,7.02734,0,0,6.03568-.5329,5.89735,2.93392-.13833,3.46683-7.03021,4.22287-7.03021,4.22287,0,0,2.03371,.1167,1.12626,3.25656-.90745,3.13986-38.34832,5.01161-40.61947-7.86623-2.27115-12.87784,6.81996-5.48745,6.81996-5.48745,0,0-10.2908-11.47945-2.39639-15.97595,7.89441-4.49651,10.68416,2.51208,10.68416,2.51208-1.14487-9.62129,4.69838-10.93614,6.30546-10.89928Z"/>
        </g>
        <path class="cls-55" d="M137.4939,227.31047s2.92359-3.38524,4.61619-1.69264c1.69267,1.69264-1.8465,6.46276-1.8465,6.46276,0,0,4.0008-2.92362,7.23211,1.07712,3.23138,4.00073-6.15496,11.69447-14.77195,12.1561-8.61699,.46163-19.23431-7.23211-16.92618-10.61736,2.3081-3.38524,6.92432,.30776,6.92432,.30776,0,0-6.15496-8.0015-1.23098-10.61736,4.92398-2.61589,7.23211,3.38524,7.23211,3.38524-.36863-.98765-.94645-7.24688,.85336-12.17034,.64511-.94093,2.13182-2.90144,3.66027-2.90937,3.07752-.01598,3.6717,7.08197,4.25725,14.61809Z"/>
        <g>
          <polygon class="cls-44" points=".00007 219.0604 27.57891 211.56902 65.61208 219.0604 101.34021 235.19569 140.70931 242.22715 181.40575 257.235 223.14094 243.28625 291.50605 232.02626 330.11548 211.56902 362.96231 205.80642 374.95503 213.2978 374.95503 364.53098 .00008 364.53098 .00007 219.0604"/>
          <polygon class="cls-56" points="27.57891 211.56902 65.61208 219.0604 46.51604 227.14761 32.89275 239.22512 6.59127 239.22512 0 241.29364 0 226.43133 14.40019 222.83158 27.57891 211.56902"/>
          <polygon class="cls-56" points="101.34021 235.19569 88.12705 247.96375 65.46076 247.96375 46.51604 254.26743 6.59127 264.34985 0 264.34985 0 285.90658 39.25165 274.52938 65.61208 281.71181 101.34021 272.54065 115.4769 262.29345 137.12226 255.74603 140.70931 242.22715 101.34021 235.19569"/>
          <polygon class="cls-56" points="291.50605 232.02626 320.11211 249.70259 354.81096 259.97487 374.95503 259.97487 374.95503 236.63634 356.88729 234.07369 345.37647 222.41871 330.11548 211.56902 291.50605 232.02626"/>
          <polygon class="cls-56" points="362.96231 205.80642 365.44239 216.90892 374.95503 221.12095 374.95503 213.2978 362.96231 205.80642"/>
          <polygon class="cls-56" points="181.40575 257.235 192.50941 276.82045 187.47755 286.99918 189.1471 307.20931 167.08121 321.36429 144.35936 364.53098 246.87715 364.53098 285.23005 323.04356 298.70263 303.56947 308.73774 298.72724 307.08493 292.10473 291.50605 283.6602 267.64687 278.03029 248.79547 264.34985 229.00151 257.235 223.14094 243.28625 181.40575 257.235"/>
          <polygon class="cls-30" points="181.85563 256.02401 181.59804 255.9289 140.96648 240.94505 101.56996 233.90879 101.48147 233.86887 65.83537 217.77075 28.06983 210.33196 0 217.95686 0 216.3378 28.01313 208.72846 66.31393 216.27277 66.39607 216.30964 102.03581 232.40497 141.3774 239.43156 181.88106 254.36812 223.41507 240.48683 223.4766 240.47666 291.71588 229.23737 330.32158 208.78211 363.58505 202.94658 374.95593 210.04959 374.95503 211.89102 363.26516 204.58874 330.83472 210.27831 292.22165 230.73763 292.09553 230.75823 223.79191 242.00795 181.85563 256.02401"/>
        </g>
      </g>
      <g>
        <g>
          <path class="cls-51" d="M139.89133,296.39969c-3.18111,.58641-4.80057-.11009-5.69284-.86597-2.58438-2.18925-.48951-6.08061-3.27632-10.38774-1.16175-1.79557-3.63885-4.38507-6.04995-4.01923-3.26882,.49598-4.77784,6.17545-5.03456,9.30761-.0799,.9749-.42381,6.40425,3.57198,10.83517,1.34635,1.49297,4.43828,4.9216,8.91913,4.39933,3.34602-.38998,6.27029-2.84366,7.68948-6.30763l-.12692-2.96153Z"/>
          <path class="cls-51" d="M170.25598,291.16857c-.63689-1.37543-1.26152-2.7244-2.54514-3.80491-3.52-2.96303-10.03692-2.2588-16.32087,1.38625l.50542,4.74318c1.15583-1.37786,2.78452-2.91563,4.29541-2.58812,1.20689,.26161,1.62378,1.55838,3.44146,5.07638,3.26841,6.32581,4.52869,7.18095,5.36526,7.58137,1.40028,.67026,3.64024,1.03665,5.17087,0,3.00635-2.03613,1.87434-8.53544,.08759-12.39415Z"/>
          <path class="cls-51" d="M142.51496,327.2846s-9.61437-59.95871,2.6221-60.65794c12.23647-.69923,8.53459,32.39806,5.27483,60.65794h-7.89693Z"/>
          <line class="cls-6" x1="124.87222" y1="281.12675" x2="125.0795" y2="302.64858"/>
          <line class="cls-6" x1="129.6955" y1="283.88258" x2="129.91056" y2="305.62233"/>
          <line class="cls-6" x1="134.93297" y1="296.02567" x2="135.02053" y2="304.87646"/>
          <line class="cls-6" x1="157.80034" y1="286.23671" x2="157.85848" y2="292.11382"/>
          <line class="cls-6" x1="162.59576" y1="285.53632" x2="162.7488" y2="301.00669"/>
          <line class="cls-6" x1="167.73375" y1="287.67091" x2="167.89736" y2="304.21003"/>
          <line class="cls-6" x1="142.22606" y1="268.55738" x2="142.7195" y2="327.24807"/>
          <line class="cls-6" x1="146.46705" y1="266.6523" x2="146.45144" y2="327.24807"/>
          <line class="cls-6" x1="150.29917" y1="269.81105" x2="150.18338" y2="327.24807"/>
          <path class="cls-36" d="M132.14868,328.83728c.83978,.01309,2.19451-.04364,3.76834-.50095,1.85184-.53813,2.20709-1.1078,4.30129-1.74729,1.64303-.50173,2.99038-.62922,4.08554-.7329,.86731-.08208,2.22996-.2046,4.01331-.05618,.67076,.05585,2.46307,.23835,4.69733,.94153,1.41538,.44544,1.54018,.63783,2.64283,.96705,1.74944,.52233,3.37329,.61662,4.71922,.55056"/>
          <polygon class="cls-37" points="124.97586 293.9558 121.20269 291.89458 124.94763 289.81953 124.97586 293.9558"/>
          <polygon class="cls-37" points="150.23242 311.7347 146.45924 309.67347 150.20418 307.59843 150.23242 311.7347"/>
          <polygon class="cls-37" points="134.97675 302.66584 131.20357 300.60461 134.94851 298.52956 134.97675 302.66584"/>
          <polygon class="cls-37" points="146.24595 296.02394 142.47278 293.96271 146.21772 291.88766 146.24595 296.02394"/>
          <polygon class="cls-37" points="142.47278 279.46478 146.24595 277.40355 142.50101 275.3285 142.47278 279.46478"/>
          <polygon class="cls-37" points="157.82941 291.2434 161.60259 289.18218 157.85765 287.10713 157.82941 291.2434"/>
          <polygon class="cls-37" points="167.81556 300.5977 171.58873 298.53648 167.84379 296.46143 167.81556 300.5977"/>
        </g>
        <g>
          <path class="cls-62" d="M320.79769,235.54178c-9.30576,2.05011-4.80284,11.89136-4.80299,11.89186h0s-7.9169-6.87172-11.64754-1.07728c-3.73066,5.79445,2.25117,12.91341,2.25117,12.91341,0,0-2.05597-2.54246-3.57248,1.30769s3.59993,6.76042,3.59993,6.76042c0,0-6.28253,.66747-5.44444,4.18678,.8381,3.51932,8.04149,2.90814,8.04149,2.90814,0,0-2.05736,.52802-.49803,3.55826,1.55933,3.03025,40.24336-2.57737,39.97965-16.20978-.26371-13.6324-8.08046-4.24425-8.08046-4.24425,0,0,8.22264-13.81295-.75804-16.82742-8.98069-3.01448-10.42685,4.71695-10.42685,4.71695-.76175-10.07413-7.00451-10.2454-8.6414-9.88478Z"/>
          <path class="cls-13" d="M321.66512,234.16848c-9.30576,2.05011-4.80284,11.89136-4.80299,11.89186h0s-7.9169-6.87172-11.64754-1.07728c-3.73066,5.79445,2.25117,12.91341,2.25117,12.91341,0,0-2.05597-2.54246-3.57248,1.30769-1.51652,3.85015,3.59993,6.76042,3.59993,6.76042,0,0-6.28253,.66747-5.44444,4.18678,.8381,3.51932,8.04149,2.90814,8.04149,2.90814,0,0-2.05736,.52802-.49803,3.55826,1.55933,3.03025,40.24336-2.57737,39.97965-16.20978-.26371-13.6324-8.08046-4.24425-8.08046-4.24425,0,0,8.22264-13.81295-.75804-16.82742-8.98069-3.01448-10.42685,4.71695-10.42685,4.71695-.76175-10.07413-7.00451-10.2454-8.6414-9.88478Z"/>
        </g>
        <path class="cls-55" d="M358.47563,257.01886s-24.36861,12.8423-30.87013,8.81513c-6.50152-4.02717,5.38106-5.92118,5.38106-5.92118,0,0-7.98798-1.97738-3.72911-4.85196,4.25887-2.87458,9.82625-2.83749,9.82625-2.83749,0,0-6.13083-1.57898-4.59448-5.78628s6.90252-2.52237,6.90252-2.52237c0,0,3.04117-10.03026,8.70008-9.8383s4.67478,12.79262,4.67478,12.79262c0,0,7.49299-10.08277,11.47229-6.07553,3.9793,4.00724-7.76326,16.22536-7.76326,16.22536Z"/>
        <g>
          <path class="cls-63" d="M37.72134,229.89062c-9.54206-1.28687-8.68752,9.61524-8.68784,9.61566h0s-5.12539-9.27019-10.67789-5.06774c-5.55252,4.20243-2.34914,13.03511-2.34914,13.03511,0,0-1.06778-3.12658-3.84404,0s1.06778,7.66516,1.06778,7.66516c0,0-6.19317-1.54877-6.62028,2.08171-.42712,3.63049,6.62028,5.55251,6.62028,5.55251,0,0-2.13558-.21356-1.70846,3.20337,.42712,3.41693,39.08111,11.53214,43.56583-1.4949,4.48472-13.02703-6.19318-6.83385-6.19318-6.83385,0,0,12.59992-10.25079,5.12539-16.23041-7.47453-5.97963-11.53212,.85423-11.53212,.85423,2.77625-9.82367-3.08787-12.15448-4.76633-12.38084Z"/>
          <path class="cls-8" d="M39.02142,228.88882c-9.54206-1.28687-8.68752,9.61524-8.68784,9.61566h0s-5.12539-9.27019-10.67789-5.06774c-5.55252,4.20243-2.34914,13.03511-2.34914,13.03511,0,0-1.06778-3.12658-3.84404,0-2.77626,3.12658,1.06778,7.66516,1.06778,7.66516,0,0-6.19317-1.54877-6.62028,2.08171-.42712,3.63049,6.62028,5.55251,6.62028,5.55251,0,0-2.13558-.21356-1.70846,3.20337,.42712,3.41693,39.08111,11.53214,43.56583-1.4949,4.48472-13.02703-6.19318-6.83385-6.19318-6.83385,0,0,12.59992-10.25079,5.12539-16.23041-7.47453-5.97963-11.53212,.85423-11.53212,.85423,2.77625-9.82367-3.08787-12.15448-4.76633-12.38084Z"/>
        </g>
        <path class="cls-55" d="M68.4115,265.88963s-24.02079,4.36733-28.17824-2.73496c-4.15744-7.1023,6.23617-4.38671,6.23617-4.38671,0,0-6.0052-5.43117-1.61678-6.8934s8.97893,.83556,8.97893,.83556c0,0-4.59051-4.23648-2.04985-8.28053s6.46714,0,6.46714,0c0,0,5.54326-9.89299,10.16264-7.3863s0,16.08461,0,16.08461c0,0,9.23877-8.14675,11.31749-2.08891s-11.31749,14.85064-11.31749,14.85064Z"/>
        <g>
          <path class="cls-57" d="M227.98664,330.59315s15.77536-5.57562,13.65517-9.07166c-2.12019-3.49604-5.70407-.5221-5.70407-.5221,0,0,12.47624-10.12095,4.95668-15.01585s-11.01255,3.65097-11.01255,3.65097c0,0,5.41623-11.44565,.35017-15.12086s-9.44702,1.21601-9.44702,1.21601c0,0,2.03521-13.38349-11.89882-8.10015-13.93403,5.28333-4.82453,9.55481-4.82453,9.55481,0,0-4.45417-.54339-4.0123,2.8895s5.33792,7.40917,5.33792,7.40917c0,0-7.30873-.01309-3.93128,3.51887,3.37745,3.53196,12.12923,8.26824,12.12923,8.26824,0,0-7.54818-3.49531-10.34593-.90174s.48396,5.38174,.48396,5.38174c0,0-3.09017,.31683-2.91706,1.66669,.68242,5.3213,20.58286,6.63338,20.58286,6.63338l6.59757-1.45701Z"/>
          <path class="cls-5" d="M226.39438,330.16583s15.77536-5.57562,13.65517-9.07166c-2.12019-3.49604-5.70407-.5221-5.70407-.5221,0,0,12.47624-10.12095,4.95668-15.01585-7.51956-4.8949-11.01255,3.65097-11.01255,3.65097,0,0,5.41623-11.44565,.35017-15.12086s-9.44702,1.21601-9.44702,1.21601c0,0,2.03521-13.38349-11.89882-8.10015-13.93403,5.28333-4.82453,9.55481-4.82453,9.55481,0,0-4.45417-.54339-4.0123,2.8895s5.33792,7.40917,5.33792,7.40917c0,0-7.30873-.01309-3.93128,3.51887s12.12923,8.26824,12.12923,8.26824c0,0-7.54818-3.49531-10.34593-.90174s.48396,5.38174,.48396,5.38174c0,0-3.09017,.31683-2.91706,1.66669,.68242,5.3213,20.58286,6.63338,20.58286,6.63338l6.59757-1.45701Z"/>
        </g>
        <g>
          <g>
            <path class="cls-19" d="M270.39477,277.97552c-.49026-.36477-1.19534-.96778-1.84145-1.86902-.53035-.73977-2.20609-3.07714-1.46983-5.76122,.48084-1.75292,1.75637-2.80027,2.37897-3.23952,1.17349,2.09275,1.74748,3.94917,2.04904,5.2372,.78423,3.34968,.09666,4.43878-.15354,4.77894-.3145,.42755-.68974,.69383-.96319,.85362Z"/>
            <path class="cls-19" d="M270.74684,278.03029c-.3862-.46894-.95945-1.30225-1.18579-2.45679-.47825-2.43947,.96694-4.41469,1.48366-5.1292,.93927-1.29879,2.07752-2.04597,2.85269-2.45376,.48854,1.17202,1.12127,3.21871,.70362,5.63342-.09839,.56882-.24242,1.08502-.40651,1.54539l-.00013,.00034c-.23411,.65061-.35114,.97592-.61195,1.30922-.44893,.57367-1.05873,.823-1.90242,1.19389-.38107,.16752-.70672,.28316-.93317,.35749Z"/>
            <path class="cls-19" d="M270.47857,277.98208c-.0149-.58822,.03399-1.5358,.44632-2.58554,.9818-2.49956,3.23552-3.57039,3.90728-3.88956,.67075-.31868,1.89209-.7894,3.5461-.82219-.48434,2.67632-1.40179,4.63226-2.10734,5.50025-.50016,.6153-1.11577,1.14433-1.11583,1.14437-.52443,.45066-.78664,.67596-1.17787,.83737-.74819,.30864-1.45606,.21028-2.24372,.10085-.53371-.07417-.96484-.19274-1.25495-.28554Z"/>
            <path class="cls-19" d="M270.37658,277.94511c.45075-.53443,1.13609-1.23704,2.10027-1.88738,1.45416-.98083,2.78519-1.33196,3.20071-1.43208,2.17677-.52453,4.02345-.13558,4.97286,.1408-.28561,.6088-1.52081,3.06312-4.27269,4.05435-.63957,.23038-2.15861,.7536-3.94781,.22556-.9618-.28386-1.65071-.76792-2.05334-1.10127Z"/>
          </g>
          <circle class="cls-51" cx="261.65491" cy="292.10473" r="18.43983"/>
          <line class="cls-16" x1="248.66986" y1="279.66333" x2="248.92107" y2="305.05724"/>
          <line class="cls-16" x1="254.80308" y1="274.98063" x2="255.14546" y2="309.59023"/>
          <line class="cls-16" x1="260.97247" y1="273.67925" x2="261.32616" y2="309.43203"/>
          <line class="cls-16" x1="267.61634" y1="274.94389" x2="267.95759" y2="309.43921"/>
          <line class="cls-16" x1="274.38876" y1="279.40891" x2="274.63996" y2="304.80282"/>
          <path class="cls-36" d="M243.01307,311.54533c1.10919,.01374,2.89853-.04579,4.97727-.52563,2.44593-.56464,2.91515-1.16237,5.6812-1.83337,2.17013-.52644,3.94973-.66022,5.39622-.769,1.14556-.08613,2.94535-.21468,5.30083-.05894,.88594,.0586,3.25325,.25009,6.20429,.98792,1.86945,.46738,2.03428,.66926,3.49068,1.01469,2.31068,.54806,4.45548,.647,6.2332,.57768"/>
          <polygon class="cls-37" points="267.78696 305.42837 263.82791 303.2656 267.75734 301.08832 267.78696 305.42837"/>
          <polygon class="cls-37" points="261.14932 297.42731 257.19026 295.26454 261.11969 293.08726 261.14932 297.42731"/>
          <polygon class="cls-37" points="254.97427 289.16921 251.01521 287.00644 254.94464 284.82916 254.97427 289.16921"/>
          <polygon class="cls-37" points="260.85282 283.98832 264.81187 281.82555 260.88244 279.64828 260.85282 283.98832"/>
          <polygon class="cls-37" points="274.46913 296.70033 278.42819 294.53756 274.49876 292.36029 274.46913 296.70033"/>
          <polygon class="cls-37" points="248.79547 300.89727 252.75453 298.7345 248.82509 296.55722 248.79547 300.89727"/>
          <polygon class="cls-37" points="267.78696 290.43046 271.74602 288.26769 267.81659 286.09041 267.78696 290.43046"/>
        </g>
        <g>
          <polygon class="cls-48" points="369.78371 247.96367 350.42141 252.3748 335.75136 264.3499 315.79799 274.43461 311.41042 279.63969 297.02163 296.71049 289.53298 301.17619 279.41701 307.20927 244.79616 307.20927 221.32497 315.40361 195.50515 341.04899 189.91994 347.25078 185.98391 359.99614 179.23623 350.43705 176.25405 341.04802 163.99367 329.12602 130.92153 316.44829 103.4059 285.90654 72.30776 265.16118 37.45638 259.9749 .00008 270.34745 .00008 341.04802 .00008 395.85985 374.95498 395.85985 374.95498 341.04899 374.95498 252.3748 369.78371 247.96367"/>
          <g>
            <polygon class="cls-54" points="221.32497 315.40357 245.08537 327.24682 292.14508 330.17544 345.6067 324.53959 374.95496 328.71113 374.95496 311.54704 333.28149 315.67398 312.04646 314.0616 276.44866 318.69237 255.18733 314.0616 244.79612 307.20931 221.32497 315.40357"/>
            <polygon class="cls-54" points="374.955 294.53031 339.80467 293.08726 321.05031 296.55722 297.02163 296.71049 279.41695 307.20931 314.11677 303.56947 343.21096 305.51785 374.95496 301.62108 374.955 294.53031"/>
            <polygon class="cls-54" points="315.79798 274.43457 335.51542 281.71181 364.13379 279.27445 374.95496 281.71181 374.95496 267.99054 358.81443 270.62194 340.47614 266.61577 335.75135 264.34985 315.79798 274.43457"/>
            <polygon class="cls-54" points="350.42142 252.37479 369.78371 247.96375 369.78371 254.49536 374.95496 258.58736 361.27774 260.57111 351.91781 258.10797 350.42142 252.37479"/>
            <polygon class="cls-54" points="37.45637 259.97487 19.34349 272.54065 0 278.03029 0 297.42731 22.6399 292.36029 43.13377 281.71181 57.68908 279.76342 72.30776 265.16121 37.45637 259.97487"/>
            <polygon class="cls-54" points="103.40592 285.90658 74.62867 293.41538 51.40292 305.42837 18.52085 308.3975 0 314.0616 0 327.24682 31.49014 321.34902 56.38901 321.34902 82.25174 314.0616 105.69676 316.68311 130.92151 316.44837 103.40592 285.90658"/>
            <polygon class="cls-54" points="189.91994 347.25078 195.50515 341.04899 210.10716 339.3136 223.62465 344.87913 257.19026 347.25078 291.50605 344.58582 327.18598 349.86542 360.01437 348.10556 374.95503 344.58951 374.95503 364.53098 359.42775 362.77112 331.85649 364.53098 294.31266 361.30456 259.16979 362.1845 233.26287 358.66476 206.34537 353.40308 198.42628 348.95904 189.91994 347.25078"/>
            <polygon class="cls-54" points="176.25405 341.04802 163.99367 329.12602 118.56594 327.24687 83.3218 333.40263 34.63302 335.34672 .00008 341.04802 .00008 357.44926 24.91378 353.63994 64.27504 356.12455 106.76687 349.24858 146.11574 353.93803 179.23623 350.43705 176.25405 341.04802"/>
            <polygon class="cls-54" points=".00008 375.5543 36.15388 370.83986 65.46076 364.53098 110.18685 368.25877 153.60082 370.94885 185.98391 359.99614 226.54855 370.94885 269.38777 370.83986 298.13996 375.5543 345.37647 378.50681 360.99737 374.5082 374.95496 376.23644 374.95498 395.85985 .00008 395.85985 .00008 375.5543"/>
          </g>
          <polygon class="cls-45" points="186.26149 365.74736 178.49196 354.67704 175.56813 345.47392 163.56423 333.80107 130.46657 321.11357 130.34157 320.97392 102.89138 290.50517 72.01931 269.91142 37.50563 264.7747 .00009 275.16133 0 273.54028 37.40798 263.18095 72.59548 268.41728 72.74099 268.51494 103.9861 289.38701 131.37673 319.78935 164.4236 332.45732 176.93923 344.62724 179.94411 354.08915 185.70681 362.25126 189.22438 350.85966 194.92556 344.52958 220.90017 318.72783 244.79567 310.43095 279.20192 310.43095 296.50856 300.11064 315.30349 277.81279 315.44509 277.74052 335.32302 267.69365 350.06911 255.65751 369.99294 251.11845 374.95496 255.35123 374.95593 257.40625 369.57497 252.81572 350.77419 257.09892 336.10427 269.05009 316.29177 279.06279 297.53395 301.31767 297.42165 301.38505 279.63161 311.99345 244.92849 311.99345 221.74978 320.08525 196.05642 345.60673 190.61501 351.64872 186.26149 365.74736"/>
        </g>
      </g>
      <g>
        <g>
          <path class="cls-58" d="M72.65367,343.98038c-1.64415-1.78779-4.16645-1.94489-4.60481-1.97219-3.81838-.23781-7.66483,2.44411-9.59848,6.85457,0,0-1.55349-13.53751-9.76476-10.20862-8.21129,3.3289-10.43055,14.64715-10.43055,14.64715,0,0-3.55082-7.32358-8.87705-2.44119-5.32625,4.88238-1.10964,8.87706-1.10964,8.87706,0,0-9.09899-1.99735-8.87705,2.66312,.22192,4.66045,4.21659,10.20862,4.21659,10.20862,0,0-5.54815,1.55348-2.996,4.66045,2.55215,3.10698,6.99069,0,6.99069,0,0,0-3.3289,6.87972,21.74879,6.43587,25.07769-.44385,17.97605-6.21394,17.97605-6.21394,0,0,9.98669,2.4412,9.54284-1.77541-.44385-4.2166-3.55083-4.43853-3.55083-4.43853,0,0,6.68654-4.50086,3.5652-10.35075-3.12135-5.84989-6.67217-2.07714-6.67217-2.07714,4.54502-5.64088,5.13495-11.93995,2.44119-14.86907Z"/>
          <path class="cls-10" d="M73.80123,342.17529c-1.64415-1.78779-4.16645-1.94489-4.60481-1.97219-3.81838-.23781-7.66483,2.44411-9.59848,6.85457,0,0-1.55349-13.53751-9.76476-10.20862-8.21129,3.3289-10.43055,14.64715-10.43055,14.64715,0,0-3.55082-7.32358-8.87705-2.44119-5.32625,4.88238-1.10964,8.87706-1.10964,8.87706,0,0-9.09899-1.99735-8.87705,2.66312,.22192,4.66045,4.21659,10.20862,4.21659,10.20862,0,0-5.54815,1.55348-2.996,4.66045,2.55215,3.10698,6.99069,0,6.99069,0,0,0-3.3289,6.87972,21.74879,6.43587,25.07769-.44385,17.97605-6.21394,17.97605-6.21394,0,0,9.98669,2.4412,9.54284-1.77541-.44385-4.2166-3.55083-4.43853-3.55083-4.43853,0,0,6.68654-4.50086,3.5652-10.35075-3.12135-5.84989-6.67217-2.07714-6.67217-2.07714,4.54502-5.64088,5.13495-11.93995,2.44119-14.86907Z"/>
        </g>
        <path class="cls-55" d="M88.75049,392.62913s17.15708-11.6018,12.60942-18.7766c-4.54766-7.1748-10.12888,3.05311-10.12888,3.05311,0,0,7.0282-12.21242,1.44698-13.58632-5.58122-1.3739-8.06176,3.81638-8.06176,3.81638,0,0,8.88861-14.80756,0-17.09739-8.88861-2.28983-9.92216,14.50225-9.92216,14.50225,0,0-5.78793-7.63276-7.23491-.61062-1.44698,7.02214,9.50874,15.57084,9.50874,15.57084,0,0-8.26847-2.59514-7.0282,.91593s6.61478,5.03762,6.61478,5.03762c0,0-6.61478-3.96904-6.82149-.45797-.20671,3.51107,8.47518,8.27309,8.47518,8.27309l10.5423-.64033Z"/>
        <g>
          <path class="cls-65" d="M184.95406,348.92808c-9.13628,.20957-6.71739,10.30308-6.71763,10.30352h0s-6.18047-7.92988-10.76212-3.1663c-4.58167,4.76357-.26793,12.56851-.26793,12.56851,0,0-1.46496-2.7726-3.60364,.57042-2.13868,3.34302,2.13845,7.02734,2.13845,7.02734,0,0-6.03568-.5329-5.89735,2.93392,.13833,3.46683,7.03021,4.22287,7.03021,4.22287,0,0-2.03371,.1167-1.12626,3.25656,.90745,3.13986,38.34832,5.01161,40.61947-7.86623,2.27115-12.87784-6.81996-5.48745-6.81996-5.48745,0,0,10.2908-11.47945,2.39639-15.97595-7.89441-4.49651-10.68416,2.51208-10.68416,2.51208,1.14487-9.62129-4.69838-10.93614-6.30546-10.89928Z"/>
          <path class="cls-14" d="M186.02417,347.796c-9.13628,.20957-6.71739,10.30308-6.71763,10.30352h0s-6.18047-7.92988-10.76212-3.1663c-4.58167,4.76357-.26793,12.56851-.26793,12.56851,0,0-1.46496-2.7726-3.60364,.57042-2.13868,3.34302,2.13845,7.02734,2.13845,7.02734,0,0-6.03568-.5329-5.89735,2.93392,.13833,3.46683,7.03021,4.22287,7.03021,4.22287,0,0-2.03371,.1167-1.12626,3.25656,.90745,3.13986,38.34832,5.01161,40.61947-7.86623,2.27115-12.87784-6.81996-5.48745-6.81996-5.48745,0,0,10.2908-11.47945,2.39639-15.97595-7.89441-4.49651-10.68416,2.51208-10.68416,2.51208,1.14487-9.62129-4.69838-10.93614-6.30546-10.89928Z"/>
        </g>
        <path class="cls-55" d="M180.35604,372.06743s-2.92359-3.38524-4.61619-1.69264c-1.69267,1.69264,1.8465,6.46276,1.8465,6.46276,0,0-4.0008-2.92362-7.23211,1.07712-3.23138,4.00073,6.15496,11.69447,14.77195,12.1561,8.61699,.46163,19.23431-7.23211,16.92618-10.61736-2.3081-3.38524-6.92432,.30776-6.92432,.30776,0,0,6.15496-8.0015,1.23098-10.61736-4.92398-2.61589-7.23211,3.38524-7.23211,3.38524,.36863-.98765,.94645-7.24688-.85336-12.17034-.64511-.94093-2.13182-2.90144-3.66027-2.90937-3.07752-.01598-3.6717,7.08197-4.25725,14.61809Z"/>
        <g>
          <path class="cls-66" d="M306.00695,342.52357c10.70572-3.19085,11.68664,9.45883,11.68708,9.45925h0s4.20777-11.54714,11.32774-7.72874c7.11998,3.81839,5.03654,14.51844,5.03654,14.51844,0,0,.66168-3.77569,4.40604-.69123s.15444,8.97782,.15444,8.97782c0,0,6.82012-2.88885,7.96251,1.19561,1.14239,4.08447-6.58973,7.55474-6.58973,7.55474,0,0,2.4094-.6288,2.53427,3.36449,.12487,3.9933-42.72113,20.24565-50.20402,6.12047-7.48289-14.12517,5.86978-8.94661,5.86978-8.94661,0,0-16.28532-9.48377-8.79325-17.68167,7.49207-8.19791,13.37174-1.09457,13.37174-1.09457-4.94861-10.76068,1.35372-14.48673,3.23687-15.04801Z"/>
          <path class="cls-2" d="M304.33665,341.60909c10.70572-3.19085,11.68664,9.45883,11.68708,9.45925h0s4.20777-11.54714,11.32774-7.72874c7.11998,3.81839,5.03654,14.51844,5.03654,14.51844,0,0,.66168-3.77569,4.40604-.69123,3.74437,3.08446,.15444,8.97782,.15444,8.97782,0,0,6.82012-2.88885,7.96251,1.19561,1.14239,4.08447-6.58973,7.55474-6.58973,7.55474,0,0,2.4094-.6288,2.53427,3.36449,.12487,3.9933-42.72113,20.24565-50.20402,6.12047-7.48289-14.12517,5.86978-8.94661,5.86978-8.94661,0,0-16.28532-9.48377-8.79325-17.68167,7.49207-8.19791,13.37174-1.09457,13.37174-1.09457-4.94861-10.76068,1.35372-14.48673,3.23687-15.04801Z"/>
        </g>
        <path class="cls-55" d="M277.30313,389.30435s28.31799,.68646,31.80614-8.20178c3.48815-8.88824-7.93671-3.90668-7.93671-3.90668,0,0,5.90654-7.30506,.6136-8.19196-5.29294-.8869-10.14141,2.5723-10.14141,2.5723,0,0,4.49985-5.68132,.86055-9.85975-3.6393-4.17843-7.41264,1.16291-7.41264,1.16291,0,0-8.13263-10.34258-12.97663-6.63876-4.84399,3.70382,2.89231,18.4362,2.89231,18.4362,0,0-12.05442-7.67652-13.34774-.35922-1.29332,7.3173,15.64254,14.98673,15.64254,14.98673Z"/>
        <polygon class="cls-50" points=".00008 368.93434 27.47401 364.53098 57.68908 375.5543 89.61815 374.21358 119.79486 387.05737 157.82941 379.66416 189.91994 383.34986 211.09741 377.92799 229.60323 377.92799 250.775 381.93772 282.43748 387.09972 315.79798 379.76653 336.30448 370.61169 356.59822 367.96543 374.95492 372.84349 374.95498 408.32212 .00008 408.32212 .00008 368.93434"/>
        <polygon class="cls-46" points="282.45876 390.89677 282.3113 390.87236 250.64919 385.71025 229.53005 381.71122 211.19606 381.71122 189.97341 387.14482 189.83083 387.12822 157.86013 383.45634 119.70876 390.87236 89.47438 378.00419 57.56716 379.34404 57.42165 379.29033 27.39724 368.3372 .00008 372.72812 .00008 371.1454 27.55153 366.72978 27.74196 366.80009 57.8113 377.76982 89.76149 376.42802 89.9236 376.49736 119.88063 389.24736 157.79958 381.87626 189.86599 385.55986 211.09743 380.14872 229.7488 380.1624 250.92067 384.17216 282.41579 389.30693 315.55153 382.02275 336.20388 372.84013 356.65017 370.17314 356.7986 370.21318 374.95498 375.03794 374.95492 376.68286 356.54665 371.76298 336.51833 374.37431 315.9656 383.53154 282.45876 390.89677"/>
      </g>
    </g>
  </g>
</svg>