<?xml version="1.0" encoding="UTF-8"?>
<svg id="Layer_2" data-name="Layer 2" xmlns="http://www.w3.org/2000/svg" viewBox="0 0 341.54916 1656.34494">
  <defs>
    <style>
      .cls-1 {
        fill: #fff;
      }

      .cls-2 {
        fill: #1e2336;
      }

      .cls-3 {
        stroke: #444a63;
        stroke-linecap: round;
        stroke-width: .38896px;
      }

      .cls-3, .cls-4, .cls-5 {
        fill: none;
        stroke-miterlimit: 10;
      }

      .cls-4 {
        stroke-width: 1.02347px;
      }

      .cls-4, .cls-5 {
        stroke: #fff;
      }

      .cls-5 {
        stroke-width: 1.21462px;
      }

      .cls-6 {
        fill: #e4e5e6;
        opacity: .77;
      }
    </style>
  </defs>
  <g id="MOBILE">
    <g>
      <g>
        <g>
          <path class="cls-6" d="M193.33647,1090.38099s12.77446-26.8461,33.67812-13.61481c0,0,29.03286-32.98236,36.96851,2.30109,0,0,19.35524-7.2868,31.35549,11.31371h-102.00212"/>
          <path class="cls-4" d="M194.3955,1091.4274s12.92374-26.77588,33.75341-13.43055c0,0,29.21606-32.82318,36.95513,2.5031,0,0,19.39552-7.18091,31.29202,11.48491l-102.00056-.55746"/>
        </g>
        <g>
          <path class="cls-6" d="M340.62051,764.19369h-111.29263s13.35512-14.5736,33.87167-4.79395c0,0,7.93565-33.94114,42.19442-4.60219,0,0,13.16156-19.36755,35.22654,9.39614Z"/>
          <path class="cls-4" d="M340.50844,765.69142l-111.29052,.67853s13.26434-14.65475,33.84125-5.00036c0,0,7.72468-33.98888,42.16504-4.85935,0,0,13.04101-19.44742,35.28423,9.18119Z"/>
        </g>
        <g>
          <path class="cls-6" d="M176.30554,499.51857h125.61551s-8.1292-23.2027-32.1297-10.73844c0,0-2.51618-11.88899-14.90353-2.10934,0,0,3.09684-36.434-40.45245,.19176,0,0-23.22629-11.69723-38.12982,12.65602Z"/>
          <path class="cls-4" d="M176.30554,497.75264h125.61551s-8.1292-23.2027-32.1297-10.73844c0,0-2.51618-11.88899-14.90353-2.10934,0,0,3.09684-36.434-40.45245,.19176,0,0-23.22629-11.69723-38.12982,12.65602Z"/>
        </g>
        <g>
          <path class="cls-6" d="M.19636,36.82264H126.00542s-14.12933-28.76368-40.83956-11.31371c0,0-48.96876-53.11693-43.9364,1.72582,0,0-14.12933-9.97141-23.80695,4.02692,0,0-12.96801-5.56098-17.22616,5.56098Z"/>
          <path class="cls-4" d="M.74906,34.42589l125.80274,1.24975s-13.83751-28.90259-40.723-11.71883c0,0-48.42873-53.6007-43.95165,1.28928,0,0-14.0277-10.11126-23.8465,3.79022,0,0-12.91108-5.68952-17.28158,5.38958Z"/>
        </g>
        <g>
          <path class="cls-6" d="M266.81752,1654.2242s-12.77446-26.8461-33.67812-13.61481c0,0-29.03286-32.98236-36.96851,2.30109,0,0-19.35524-7.2868-31.35549,11.31371h102.00212"/>
          <path class="cls-4" d="M265.75849,1655.27062s-12.92374-26.77588-33.75341-13.43055c0,0-29.21606-32.82318-36.95513,2.5031,0,0-19.39552-7.18091-31.29202,11.48491l102.00056-.55746"/>
        </g>
        <g>
          <path class="cls-6" d="M204.63177,1454.38852h125.61551s-8.1292-23.2027-32.1297-10.73844c0,0-2.51618-11.88899-14.90353-2.10934,0,0,3.09684-36.434-40.45245,.19176,0,0-23.22629-11.69723-38.12982,12.65602Z"/>
          <path class="cls-4" d="M204.63177,1452.62259h125.61551s-8.1292-23.2027-32.1297-10.73844c0,0-2.51618-11.88899-14.90353-2.10934,0,0,3.09684-36.434-40.45245,.19176,0,0-23.22629-11.69723-38.12982,12.65602Z"/>
        </g>
        <g>
          <path class="cls-6" d="M193.40658,162.96855s15.16023-31.85991,39.96788-16.15753c0,0,34.45507-39.14218,43.87279,2.73085,0,0,22.97005-8.64769,37.21147,13.42668h-121.05214"/>
          <path class="cls-5" d="M194.66339,164.2104s15.33739-31.77657,40.05724-15.93885c0,0,34.67249-38.95328,43.85692,2.97058,0,0,23.01785-8.52202,37.13615,13.62984l-121.0503-.66157"/>
        </g>
      </g>
      <g>
        <g>
          <path class="cls-2" d="M286.28978,48.22324s2.28949-3.22709,2.43957-3.9228c.44516-2.06347-8.26785,2.06962-8.26785,2.06962"/>
          <polyline class="cls-3" points="279.47603 46.83471 290.20797 42.5984 288.07122 44.82823 290.73209 44.11054 288.8029 46.08233 290.67723 45.58914 286.18818 49.44671"/>
          <path class="cls-2" d="M289.17023,56.61093c.34232-.15331,1.3874-.57111,1.3874-.57111,0,0,6.10897,1.30038,6.39496,1.13832s-.13705-.46461-.13705-.46461c2.44118,.75539,1.49552-.61226,.37158-1.28263s-4.31973-1.3527-5.44568-2.08501-1.76368-2.21525-1.76368-2.21525c0,0,3.30225-2.17969,3.69396-2.77391,1.16181-1.76247-8.45639-1.06305-8.45639-1.06305,0,0-5.80471-.84478-7.47105-1.77793-1.66634-.93314-9.184,.47678-9.184,.47678l6.76268,2.71611-4.45592,1.94896c.1068,.27221,.40858,.27821,.40858,.27821,0,0,2.61305-.16399,4.16017-.08726s2.75966,2.36435,3.25832,2.92281,1.21586,1.37775,1.68015,1.77496c.643,.55011,1.60572,1.11504,3.02948,1.50976,.47173,.13078,.60975,.19559,1.11654,.24047s1.2661,.03626,1.2661,.03626c0,0,2.34084-.25477,3.38386-.72188Z"/>
          <polyline class="cls-3" points="284.20137 47.02249 295.73458 47.34767 292.89313 48.55761 295.62186 48.94409 293.0727 49.9984 294.98997 50.282 289.34564 52.06353"/>
          <circle class="cls-1" cx="276.60156" cy="46.93679" r=".79689"/>
          <circle cx="276.38334" cy="46.93601" r=".44588"/>
        </g>
        <g>
          <path class="cls-2" d="M246.22632,31.41213s.24027-3.94945,.00037-4.61951c-.71155-1.98741-5.92843,6.12327-5.92843,6.12327"/>
          <polyline class="cls-3" points="239.70673 33.83085 246.58363 24.56645 245.94648 27.58835 247.82719 25.57384 247.23005 28.26701 248.56135 26.85847 246.78608 32.50478"/>
          <path class="cls-2" d="M251.90317,39.2625c.26974-.26064,1.184-.92151,1.184-.92151,0,0,6.23416-.38163,6.46637-.6143s-.25637-.411-.25637-.411c2.55429,.07466,1.27717-.99009,.01483-1.33529s-4.52417-.14754-5.80501-.55188-2.29211-1.66256-2.29211-1.66256c0,0,2.59862-2.9838,2.81705-3.66117,.64786-2.00907-8.4325,1.2384-8.4325,1.2384,0,0-5.8191,.7392-7.67437,.28594s-8.72156,2.91677-8.72156,2.91677l7.24286,.80757-3.77196,3.07017c.17574,.23371,.46812,.15875,.46812,.15875,0,0,2.47389-.85719,3.98514-1.19723s3.29167,1.53974,3.92158,1.94441,1.53572,1.01196,2.09382,1.26068c.77293,.34446,1.83808,.58746,3.32298,.64411,.5284,.02016,.63985,.02531,1.14017-.06706s1.22964-.30384,1.22964-.30384c0,0,2.2757-.83606,3.06732-1.60098Z"/>
          <polyline class="cls-3" points="244.54989 31.35321 255.74959 28.58056 253.33548 30.50668 256.06812 30.14894 253.89402 31.84689 255.81727 31.60714 250.85543 34.83398"/>
          <circle class="cls-1" cx="237.20425" cy="33.30413" r=".79689"/>
          <circle cx="236.99378" cy="33.36176" r=".44588"/>
        </g>
      </g>
    </g>
  </g>
</svg>