<?xml version="1.0" encoding="UTF-8"?>
<svg id="Layer_2" data-name="Layer 2" xmlns="http://www.w3.org/2000/svg" xmlns:xlink="http://www.w3.org/1999/xlink" viewBox="0 0 193.57476 284.09713">
  <defs>
    <style>
      .cls-1 {
        stroke: #442525;
      }

      .cls-1, .cls-2, .cls-3, .cls-4, .cls-5, .cls-6 {
        stroke-miterlimit: 10;
      }

      .cls-1, .cls-2, .cls-5 {
        fill: none;
      }

      .cls-1, .cls-2, .cls-6 {
        stroke-width: .26849px;
      }

      .cls-2, .cls-3, .cls-5, .cls-6 {
        stroke: #6e3d37;
      }

      .cls-7 {
        fill: url(#linear-gradient);
      }

      .cls-3, .cls-5 {
        stroke-width: .2962px;
      }

      .cls-3, .cls-6 {
        fill: #e7ca86;
      }

      .cls-8 {
        fill: #a15726;
      }

      .cls-9 {
        fill: #8b3f2d;
      }

      .cls-10 {
        fill: #bc652c;
      }

      .cls-11 {
        fill: #bb703c;
      }

      .cls-12 {
        fill: #ad6238;
      }

      .cls-13 {
        fill: #deaf5b;
      }

      .cls-14 {
        fill: #e08d43;
      }

      .cls-15 {
        fill: #442525;
      }

      .cls-16 {
        fill: #452221;
      }

      .cls-17 {
        fill: #6e3d37;
      }

      .cls-18 {
        fill: #547347;
      }

      .cls-4 {
        fill: #d45e72;
        stroke: #d45e72;
        stroke-width: .1236px;
      }

      .cls-19 {
        fill: url(#linear-gradient-8);
      }

      .cls-20 {
        fill: url(#linear-gradient-9);
      }

      .cls-21 {
        fill: url(#linear-gradient-3);
      }

      .cls-22 {
        fill: url(#linear-gradient-4);
      }

      .cls-23 {
        fill: url(#linear-gradient-6);
      }

      .cls-24 {
        fill: url(#linear-gradient-7);
      }

      .cls-25 {
        fill: url(#linear-gradient-5);
      }

      .cls-26 {
        fill: url(#linear-gradient-2);
        opacity: .85;
      }
    </style>
    <linearGradient id="linear-gradient" x1="-3718.7946" y1="104.54218" x2="-3718.7946" y2="281.10185" gradientTransform="translate(3827.21884 385.64403) scale(1 -1)" gradientUnits="userSpaceOnUse">
      <stop offset="0" stop-color="#f6ca7a"/>
      <stop offset="1" stop-color="#e08d43"/>
    </linearGradient>
    <linearGradient id="linear-gradient-2" x1="-3769.21353" y1="284.09713" x2="-3769.21353" y2="104.5422" gradientTransform="translate(-3610.37037) rotate(-180) scale(1 -1)" gradientUnits="userSpaceOnUse">
      <stop offset="0" stop-color="#788aaf"/>
      <stop offset="1" stop-color="#4269b0"/>
    </linearGradient>
    <linearGradient id="linear-gradient-3" x1="63.07875" y1="134.99172" x2="63.07875" y2="118.44398" gradientTransform="matrix(1, 0, 0, 1, 0, 0)" gradientUnits="userSpaceOnUse">
      <stop offset="0" stop-color="#f5c66b" stop-opacity="0"/>
      <stop offset=".26563" stop-color="#c7984f" stop-opacity=".22768"/>
      <stop offset=".53722" stop-color="#a3743a" stop-opacity=".40506"/>
      <stop offset=".78912" stop-color="#8e5e2d" stop-opacity=".51281"/>
      <stop offset="1" stop-color="#875729" stop-opacity=".55"/>
    </linearGradient>
    <linearGradient id="linear-gradient-4" x1="119.4743" y1="136.65805" x2="119.4743" y2="122.46427" xlink:href="#linear-gradient-3"/>
    <linearGradient id="linear-gradient-5" x1="111.37452" y1="206.07175" x2="111.37452" y2="178.98306" xlink:href="#linear-gradient-3"/>
    <linearGradient id="linear-gradient-6" x1="77.99462" y1="159.56759" x2="77.99462" y2="149.68468" gradientTransform="matrix(1, 0, 0, 1, 0, 0)" gradientUnits="userSpaceOnUse">
      <stop offset="0" stop-color="#f5c66b" stop-opacity="0"/>
      <stop offset=".16461" stop-color="#d7a859" stop-opacity=".1177"/>
      <stop offset=".47363" stop-color="#ab7b3e" stop-opacity=".2951"/>
      <stop offset=".76008" stop-color="#90602e" stop-opacity=".40281"/>
      <stop offset="1" stop-color="#875729" stop-opacity=".44"/>
    </linearGradient>
    <linearGradient id="linear-gradient-7" x1="77.3994" y1="149.76351" x2="77.3994" y2="149.76109" xlink:href="#linear-gradient-6"/>
    <linearGradient id="linear-gradient-8" x1="109.89473" y1="234.92885" x2="109.89473" y2="222.48962" xlink:href="#linear-gradient-3"/>
    <linearGradient id="linear-gradient-9" x1="121.46331" y1="222.58341" x2="121.46331" y2="222.58005" xlink:href="#linear-gradient-3"/>
  </defs>
  <g id="MOBILE">
    <g>
      <g>
        <polygon class="cls-10" points="169.22012 105.06337 164.41961 100.22167 138.77442 97.03936 95.1006 77.94229 83.61316 65.29179 83.61316 45.56077 66.76298 31.92841 67.27914 10.4438 50.66171 0 34.56041 6.81617 33.46511 21.16602 28.0861 20.33742 24.99959 37.78801 18.83356 46.27826 18.83356 104.64473 169.22012 105.06337"/>
        <polygon class="cls-8" points="127.9429 106.34086 82.77176 87.68778 66.79364 69.70687 66.89772 48.80626 57.16846 38.27341 56.91243 13.69424 50.66171 0 34.56041 6.81617 33.46511 21.16602 28.0861 20.33742 24.99959 37.78801 4.8988 60.76898 0 103.12346 62.42464 127.3722 127.9429 106.34086"/>
      </g>
      <polygon class="cls-12" points="193.57476 94.9368 186.39662 94.60105 178.46776 90.48412 166.13961 91.98527 147.53802 103.52187 151.56639 109.06083 193.57476 109.76928 193.57476 94.9368"/>
      <rect class="cls-7" x="23.27416" y="104.54218" width="170.30015" height="176.55966" transform="translate(216.84847 385.64403) rotate(-180)"/>
      <path class="cls-26" d="M190.15025,271.51096c4.76078-8.78229-4.45047-14.74534-11.24706-48.73568-3.00078-15.00712-5.69999-29.09819-3.46228-46.91171,1.84073-14.65329,5.2492-17.71256,6.15036-30.34698,1.22949-17.23769-3.68321-31.6203-7.9471-40.9744h-8.21722c1.38324,7.33287,2.38475,18.20632-.98606,30.21736-2.73683,9.75199-5.48329,10.01797-9.86067,21.41822-5.92409,15.42834-3.22802,21.02027-8.2172,40.82863-2.58364,10.25776-3.41256,9.17871-8.87459,25.76887-9.18565,27.90014-13.77848,41.85021-9.86067,48.8604,9.45035,16.90967,53.58681,16.35902,62.52249-.12473Z"/>
      <g>
        <path class="cls-21" d="M67.59323,129.71694l3.21948-11.27295h-.57322l-.16108,.54973-5.92374,4.93985-2.49506-4.93858,.22097-.551h-.57322l-4.49175,10.99798h-.00004l-.12376,.30301,.65014-.00167-.44414,1.10729-.11229,.27996-.35647,.88872-.11228,.27992-.34304,.85524-.47697,.00154-.15194,.37399,1.41468-.00466c.03787,.84198,1.49313,1.47364,3.54032,1.46636s3.945-.65003,4.568-1.49305l1.41468-.00466,.10749-.3731-.47697,.00154,.25029-.85337,.08192-.27931,.26009-.88678,.08193-.27935,.32405-1.10488,.6819-.00175h.00004Zm-9.94223-.27708l6.24613-4.76431,2.94693,4.74123-9.19306,.02309Zm6.03704-5.13484l-5.99424,4.57908,3.66792-9.14632,2.32632,4.56724Zm6.17319-4.57014l-2.67422,9.12651-2.82324-4.55733,5.49746-4.56917Z"/>
        <g>
          <rect class="cls-15" x="61.87156" y="90.60331" width="8.3439" height="6.54544"/>
          <rect class="cls-16" x="65.77075" y="92.59094" width=".57323" height="9.50536" transform="translate(163.40099 31.28626) rotate(90)"/>
          <rect class="cls-15" x="61.30471" y="97.05703" width=".57323" height="21.37799" transform="translate(123.18265 215.49205) rotate(180)"/>
          <rect class="cls-15" x="65.71971" y="96.66896" width=".57323" height="21.56034" transform="translate(82.44309 232.47706) rotate(-155.92689)"/>
          <rect class="cls-15" x="65.82179" y="96.66896" width=".57323" height="21.56034" transform="translate(-38.07898 36.31106) rotate(-24.07311)"/>
          <rect class="cls-15" x="70.23685" y="97.05703" width=".57323" height="21.37799" transform="translate(141.04692 215.49205) rotate(180)"/>
          <rect class="cls-15" x="65.68975" y="85.67719" width=".70753" height="9.1447" transform="translate(156.29306 24.20603) rotate(90)"/>
          <rect class="cls-11" x="65.77869" y="88.31421" width=".52965" height="8.3439" transform="translate(158.52967 26.44264) rotate(90)"/>
          <rect class="cls-11" x="65.77869" y="90.52529" width=".52965" height="8.3439" transform="translate(160.74075 28.65372) rotate(90)"/>
          <path class="cls-15" d="M69.49652,90.5399c-.00348-1.90417-1.54802-3.44676-3.453-3.44676s-3.44952,1.54259-3.453,3.44676h6.906Z"/>
        </g>
      </g>
      <g>
        <path class="cls-22" d="M140.6638,123.18968l.77301-.72541h-30.42121l-1.10821,.72721,.82861-.00005-10.16368,6.72383-.32226,.00018,.041,1.56442,.78721-.00051-2.23427,1.5162-.95588,.00071-.37636,.25327,5.70872-.00432-1.12542,.79693-2.03701,.00164,7.40189,2.61426,14.71406-2.63203-1.92785,.00155,.93886-.79593,4.44622-.00336,.28359-.25277-.95588,.00071,1.71676-1.51342,.7829-.00051,4.9896-1.42611,.04204-.00002,.01901-.01764,.41693-.12091-.28682,.00016,7.22801-6.70803,.7964-.00005Zm-10.11869,6.70922l5.97764-5.4051,1.21869-.0002-5.8806,5.40457-1.31573,.00072Zm-29.1942,.01594l8.13085-5.41668,1.17049-.00019-8.03765,5.41618-1.26369,.00069Z"/>
        <g>
          <rect class="cls-15" x="111.82891" y="108.1347" width=".69959" height="14.35836"/>
          <rect class="cls-15" x="139.94325" y="108.1347" width=".69959" height="14.35836"/>
          <rect class="cls-15" x="118.439" y="99.82739" width="15.44077" height="4.99741"/>
          <polygon class="cls-15" points="116.70616 100.57804 125.90306 95.6102 135.51974 100.57804 116.70616 100.57804"/>
          <rect class="cls-15" x="114.35659" y="102.10989" width="22.52045" height="3.76892"/>
          <rect class="cls-15" x="113.53226" y="102.0865" width="24.1691" height=".47919"/>
          <rect class="cls-15" x="111.00934" y="121.11744" width="30.42121" height="1.37562"/>
          <rect class="cls-15" x="113.66399" y="108.39716" width="25.09701" height="10.24794"/>
          <rect class="cls-15" x="112.34399" y="118.6451" width="27.59926" height="3.84796"/>
          <rect class="cls-6" x="130.31049" y="110.7054" width="6.79759" height="3.91302"/>
          <rect class="cls-6" x="115.357" y="110.7054" width="6.79759" height="3.91302"/>
          <rect class="cls-17" x="122.71416" y="113.28979" width="6.79759" height="3.91302" transform="translate(10.86664 241.35926) rotate(-90)"/>
          <ellipse class="cls-13" cx="124.8722" cy="115.18626" rx=".52992" ry=".35719"/>
          <line class="cls-2" x1="114.87329" y1="114.71329" x2="122.63831" y2="114.71329"/>
          <line class="cls-2" x1="129.82677" y1="114.82907" x2="137.5918" y2="114.82907"/>
          <line class="cls-2" x1="117.53879" y1="110.64739" x2="117.53879" y2="114.61842"/>
          <line class="cls-1" x1="114.35659" y1="107.90021" x2="112.17871" y2="111.60726"/>
          <line class="cls-1" x1="138.20577" y1="107.90021" x2="140.38365" y2="111.60726"/>
          <line class="cls-2" x1="120.04394" y1="110.74226" x2="120.04394" y2="114.71329"/>
          <line class="cls-2" x1="132.62719" y1="110.74226" x2="132.62719" y2="114.71329"/>
          <line class="cls-2" x1="135.13234" y1="110.83713" x2="135.13234" y2="114.80816"/>
          <line class="cls-2" x1="130.31049" y1="112.66191" x2="137.10808" y2="112.66191"/>
          <line class="cls-2" x1="115.357" y1="112.6329" x2="122.15459" y2="112.6329"/>
          <g>
            <polygon class="cls-13" points="127.48371 103.65327 125.9198 102.80733 124.33633 103.61607 124.65759 101.86729 123.39911 100.61123 125.16157 100.37637 125.96726 98.79134 126.73527 100.39497 128.49169 100.67142 127.20388 101.89738 127.48371 103.65327"/>
            <circle class="cls-13" cx="125.94585" cy="98.85925" r=".34099"/>
            <circle class="cls-13" cx="128.46013" cy="100.71169" r=".34099"/>
            <circle class="cls-13" cx="127.48371" cy="103.65327" r=".34099"/>
            <circle class="cls-13" cx="124.37001" cy="103.54898" r=".34099"/>
            <circle class="cls-13" cx="123.40498" cy="100.59062" r=".34099"/>
          </g>
          <polygon class="cls-9" points="113.66399 105.43463 111.53934 108.39716 140.90055 108.39716 137.56584 105.43463 113.66399 105.43463"/>
        </g>
      </g>
      <g>
        <polygon class="cls-25" points="127.54775 186.52963 131.02538 186.52799 113.6442 191.68801 110.98249 195.05717 112.38405 195.05585 111.75923 195.85669 110.34975 195.85807 107.23638 199.79893 110.41671 199.79518 94.35986 206.07175 88.43085 199.8211 92.02603 199.81686 95.54837 195.87261 93.95832 195.87417 94.6831 195.0725 96.26422 195.07102 99.26733 191.70819 91.13065 186.54676 94.80518 186.54503 101.29819 179.78514 99.97824 179.78521 100.75701 178.98306 134.31819 178.98306 133.75317 179.78344 132.38273 179.78351 127.54775 186.52963"/>
        <g>
          <g>
            <rect class="cls-15" x="102.07612" y="162.43113" width="30.88781" height="15.05136"/>
            <rect class="cls-15" x="100.76452" y="177.48249" width="33.56117" height="1.51761"/>
          </g>
          <rect class="cls-15" x="109.23684" y="147.02489" width="15.69479" height="1.51761"/>
          <g>
            <g>
              <polygon class="cls-15" points="98.60973 164.69196 117.00728 149.72963 136.24456 164.69196 98.60973 164.69196"/>
              <rect class="cls-15" x="110.63876" y="138.88699" width="13.05015" height="18.74476"/>
            </g>
            <polygon class="cls-15" points="107.55418 139.55772 117.16383 127.69395 126.41758 139.55772 107.55418 139.55772"/>
          </g>
          <rect class="cls-17" x="114.34666" y="168.52102" width="6.16096" height="8.96147"/>
          <circle class="cls-3" cx="117.16383" cy="160.22324" r="3.82597"/>
          <path class="cls-3" d="M108.82266,167.43731c0-1.04059-.84349-1.88406-1.88401-1.88406s-1.88401,.84347-1.88401,1.88406c0,.02899,.00725,.05605,.00855,.08474v9.09916h3.75096v-9.09935c.0013-.0287,.00852-.05566,.00852-.08455Z"/>
          <path class="cls-3" d="M117.02531,139.55841c-1.18692,.0287-2.1979,.94458-2.34489,2.14695v4.26993h4.80763v-4.27003c-.15315-1.24628-1.23328-2.17661-2.46274-2.14686Z"/>
          <path class="cls-3" d="M130.1856,167.43731c0-1.04059-.84349-1.88406-1.88401-1.88406s-1.88401,.84347-1.88401,1.88406c0,.02899,.00725,.05605,.00855,.08474v9.09916h3.75096v-9.09935c.0013-.0287,.00852-.05566,.00852-.08455Z"/>
          <line class="cls-5" x1="105.24736" y1="172.55958" x2="109.01539" y2="172.58265"/>
          <line class="cls-5" x1="105.06318" y1="167.52205" x2="106.93864" y2="168.52102"/>
          <line class="cls-5" x1="108.82266" y1="167.43731" x2="106.93864" y2="168.52102"/>
          <line class="cls-5" x1="106.93864" y1="176.62121" x2="106.93864" y2="168.52102"/>
          <line class="cls-5" x1="126.39984" y1="172.68911" x2="130.16787" y2="172.71218"/>
          <line class="cls-5" x1="126.42612" y1="167.52205" x2="128.30159" y2="168.52102"/>
          <line class="cls-5" x1="130.1856" y1="167.43731" x2="128.30159" y2="168.52102"/>
          <line class="cls-5" x1="128.30159" y1="176.62121" x2="128.30159" y2="168.52102"/>
          <line class="cls-5" x1="115.76013" y1="156.76917" x2="115.798" y2="163.69534"/>
          <line class="cls-5" x1="118.28683" y1="156.56568" x2="118.32676" y2="163.86882"/>
          <line class="cls-5" x1="113.62229" y1="161.49615" x2="120.87534" y2="161.49615"/>
          <line class="cls-5" x1="113.43261" y1="158.96837" x2="120.73586" y2="158.96837"/>
          <line class="cls-5" x1="117.08424" y1="145.9753" x2="117.08423" y2="143.09565"/>
          <line class="cls-5" x1="114.68042" y1="141.70537" x2="117.08424" y2="143.09565"/>
          <line class="cls-5" x1="119.48805" y1="141.70527" x2="117.08424" y2="143.09565"/>
          <ellipse class="cls-13" cx="115.21669" cy="173.15573" rx=".58461" ry=".39406"/>
        </g>
      </g>
      <g>
        <g>
          <path class="cls-23" d="M84.7525,154.25682c-.55093,.15835-1.20297,.11901-1.57215,.03091-.21983-.05267-.52793-.16822-.94534-1.05965-.21597-.49589-.21823-.68018-.54858-.71078-.26692-.02473-.62252,.06348-.96937,.18407-.60446,1.2771-1.2523,2.50608-1.99813,3.52228,.86503-.18425,1.68669-.2192,2.21278-.07155,.30185,.08425,.45385,.21162,.533,.3205,.26425,.54552-.16036,1.0425-.75107,1.18374-.44359,.10566-1.06889,.03412-1.36176-.12693-.4307-.23936,.03341-.58424-.37642-.70137-.12309-.03531-.33996-.05172-.74084,.00593-1.0407,1.19863-2.31432,1.97635-3.93558,1.96638-.15214-.00093-.28283-.01593-.39763-.04115-.04,.04594-.08044,.08503-.10984,.11224-.43203,.39906-1.29416,.63933-1.50808,.69614-.04011-.08812-.07968-.24083,.00974-.43923-.34081,.08641-.77146,.17803-1.27407,.25884,.08306-.22279,.29257-.40089,.42732-.50053l.02351-.0171c-.49214,.0357-.88751,.01957-1.1424-.0013,.17087-.11638,.47003-.29179,.93977-.45722l.0317-.01108c-.31675-.01515-.67232-.0433-1.05059-.09969,.17418-.09686,.57811-.29982,1.17149-.41757,.90445-.18024,1.58632-.02646,1.80313,.02216,.03935,.00882,.0722,.01858,.10729,.02801,.14063-.90544,1.26806-2.39074,2.54119-3.82847-.1409-.02457-.31842-.03523-.53299-.00581-.0893,.01224-.41381,.06267-.92654,.33669-.52619,.27959-.66381,.48115-1.01473,.80755-.54958,.50952-.9948,.92079-1.65257,1.06075-.52671,.11168-1.05545,.0232-1.31684-.0855-.99337-.41918,.70936-1.65994,.78975-1.71793,.46376-.33542,1.14041-.82755,2.27389-1.08824,1.04859-.24303,2.15169-.20404,2.92828,.08322,1.56516-1.71636,3.13912-3.22692,3.32138-3.40233-.14541-.01162-.29652-.02678-.45648-.05156-.5158-.08014-.55232-.16021-1.00876-.22715-.27721-.04075-.54385-.05202-.7605-.05292l7.54688-.0764c-.36677-.00179-.82547,.02108-1.36008,.10636-.33789,.05377-.39102,.08218-.82824,.1545-.36371,.06002-.67787,.09822-.92412,.12305-.3124,.67093-.62886,1.35995-.95302,2.04306,1.96345-.45605,3.6685-.54613,4.37114-.17195,.28218,.14798,.3521,.3385,.42498,.53269,.21298,.54482,.03348,1.47338-1.04049,1.78433Z"/>
          <path class="cls-24" d="M77.51545,149.76118l-.23211,.00234c.06673-.00191,.14637-.0027,.23211-.00234Z"/>
        </g>
        <g>
          <g>
            <path class="cls-4" d="M79.97128,133.94563c-.11625,.10858-.30352,.26108-.56442,.38459-.21416,.10138-.89082,.42173-1.54396,.10818-.42656-.20477-.6354-.58022-.71891-.76013,.59062-.2031,1.0928-.26367,1.43672-.28092,.89441-.04488,1.14133,.18193,1.2168,.26185,.09486,.10046,.14558,.20896,.17377,.28643Z"/>
            <path class="cls-4" d="M80.0017,133.85801c-.13808,.07708-.3782,.18509-.68443,.1893-.64705,.0089-1.08564-.45321-1.24457-.61882-.2889-.30103-.42726-.62735-.49561-.84487,.32292-.07055,.87656-.1373,1.47556,.08211,.1411,.05168,.2666,.11261,.37687,.17607l.00008,.00005c.15573,.09025,.2336,.13537,.30681,.21769,.12602,.14169,.16148,.30948,.21719,.54283,.02516,.1054,.03961,.19419,.04811,.25564Z"/>
            <path class="cls-4" d="M79.97686,133.92447c-.15134-.02357-.39176-.08022-.64141-.2347-.59445-.36784-.76377-.99491-.81423-1.18182-.05039-.18663-.11407-.52134-.04545-.94648,.66289,.24867,1.12111,.57471,1.31056,.79583,.1343,.15675,.24112,.33905,.24113,.33906,.091,.1553,.13649,.23294,.15962,.34066,.04421,.20599-.01394,.38271-.07865,.57934-.04385,.13324-.09429,.23813-.13156,.30811Z"/>
            <path class="cls-4" d="M79.96264,133.94887c-.11588-.14033-.26392-.34857-.38559-.62579-.18349-.4181-.21144-.77534-.21774-.88643-.03298-.58192,.15262-1.03677,.26762-1.26706,.14262,.1015,.71369,.53213,.83942,1.28308,.02922,.17453,.0925,.58794-.12605,1.02159-.11749,.23311-.27354,.38701-.37766,.47461Z"/>
          </g>
          <path class="cls-18" d="M87.47621,144.29442c-.17396,.37568-.34457,.74413-.69517,1.03926-.96144,.80931-2.74144,.61696-4.45781-.37864l.13805-1.29553c.3157,.37634,.76055,.79636,1.17323,.70691,.32964-.07145,.44351-.42565,.93998-1.38654,.89272-1.7278,1.23695-1.96137,1.46544-2.07074,.38247-.18307,.99428-.28315,1.41235,0,.82114,.55614,.51195,2.33133,.02392,3.38528Z"/>
          <path class="cls-18" d="M75.32987,140.95172c.16933,.62811,.41776,1.54963,1.26775,2.0082,.90783,.48977,2.15676,.26524,3.15606-.55427l-.05805-1.11951c-.05529,.04932-.46612,.40522-.9103,.28262-.07302-.02016-.33391-.10484-.60953-.61257-.28116-.51794-.26512-.90041-.35388-1.51505-.13853-.95932-.25036-1.7337-.73066-1.97854-.38308-.19528-.90631-.00564-1.21165,.21316-1.17688,.84331-.579,3.16739-.54973,3.27596Z"/>
          <path class="cls-18" d="M85.63465,134.53477c.43279,.24946,.5477,1.18758,.03941,2.24425-.12584,.21192-.32576,.46205-.63495,.63494-.67302,.37633-1.59535,.23651-2.3627-.33482l-.04419-1.05985c.58479,.3121,.89536,.2702,1.07172,.16906,.4184-.23997,.20636-.88505,.70344-1.36032,.33451-.31982,.90348-.47989,1.22727-.29326Z"/>
          <path class="cls-18" d="M80.13197,149.13877s-2.62603-16.37685,.71619-16.56784,2.3311,8.84906,1.44074,16.56784h-2.15693Z"/>
          <path class="cls-14" d="M77.43202,149.83557c.22937,.00358,.5994-.01192,1.02927-.13683,.5058-.14698,.60284-.30258,1.17484-.47725,.44877-.13704,.81678-.17186,1.1159-.20018,.23689-.02242,.60908-.05588,1.09618-.01534,.18321,.01525,.67275,.0651,1.28301,.25717,.38659,.12167,.42068,.17422,.72185,.26414,.47783,.14267,.92137,.16842,1.28899,.15038"/>
        </g>
      </g>
      <g>
        <g>
          <path class="cls-19" d="M119.65009,230.34499c-.65326,.62389-2.30042,1.7479-3.81437,1.82428-1.11881,.05641-1.71517-.47835-1.87971-.84526-.37306-.88043,1.25021-1.64342,.58591-2.09928-.20847-.14525-.6913-.2823-1.88941-.22863-2.59669,2.97207-5.85307,5.90466-8.65287,5.93239-2.96677,.02938-1.96103-1.74797,.75618-4.25353-2.94645,.48181-5.33203,.49311-6.04221-.05252-.28696-.22537-.22891-.49987-.16761-.77975,.18352-.78533,1.29076-2.09491,2.99282-2.48105,.86051-.19649,1.67413-.107,2.08221,.03717,.24499,.08617,.55825,.26638,.46139,1.55577-.03175,.71697-.14565,.97936,.30335,1.04029,.32867,.04444,.81356-.03823,1.31553-.16768,2.37178-2.07724,5.5542-4.52831,8.51393-6.83581-.24016-.0334-.51047-.07907-.79133-.14336-.43314-.09956-.43829-.13898-.77797-.21301-.53673-.11748-1.11879-.14842-1.6329-.14516l10.28062,.09058c-.30024,.00251-.69105,.01957-1.16122,.07521-.7951,.09389-1.03816,.20508-1.94795,.31745-.33529,.04132-.62722,.06581-.89053,.08238-.49406,.69943-2.02235,2.84883-3.94716,5.13109,1.19003-.55531,2.62953-.9267,3.88589-.97425,1.90354-.07219,2.53886,.63501,2.82406,.94296,.87742,.91348-.20404,1.99562-.40667,2.18972Z"/>
          <path class="cls-20" d="M121.63296,222.58341l-.33929-.00298c.13027-.0011,.24524,.0003,.33929,.00298Z"/>
        </g>
        <g>
          <path class="cls-18" d="M118.60797,210.36417c1.20576,.22227,1.8196-.04173,2.1578-.32823,.97958-.82981,.18554-2.30478,1.24185-3.93735,.44035-.68059,1.37926-1.66211,2.29316-1.52344,1.23901,.188,1.81099,2.34073,1.90829,3.52794,.03029,.36952,.16064,2.42746-1.35392,4.10694-.51032,.56589-1.68228,1.86548-3.38069,1.66751-1.26827-.14782-2.37668-1.07785-2.91461-2.39084l.04811-1.12253Z"/>
          <path class="cls-18" d="M107.0986,208.38138c.24141-.52134,.47816-1.03265,.96471-1.44221,1.33421-1.1231,3.80438-.85617,6.18623,.52544l-.19158,1.79785c-.4381-.52226-1.05544-1.10514-1.62813-.981-.45746,.09916-.61547,.59068-1.30444,1.92414-1.23885,2.39772-1.71655,2.72186-2.03364,2.87363-.53076,.25405-1.37979,.39293-1.95996,0-1.13952-.77177-.71045-3.23526-.0332-4.69786Z"/>
          <path class="cls-18" d="M117.61351,222.07074s3.64422-22.72665-.99388-22.99169-3.23494,12.28011-1.99936,22.99169h2.99324Z"/>
          <path class="cls-14" d="M121.54273,222.65927c-.31831,.00496-.8318-.01654-1.42835-.18988-.70192-.20397-.83657-.4199-1.63035-.66229-.62277-.19017-1.13347-.2385-1.54857-.2778-.32875-.03111-.84524-.07755-1.5212-.02129-.25424,.02117-.9336,.09034-1.78047,.35688-.53648,.16884-.58379,.24176-1.00173,.36655-.6631,.19798-1.27861,.23372-1.78877,.20868"/>
        </g>
      </g>
    </g>
  </g>
</svg>