<?xml version="1.0" encoding="UTF-8"?>
<svg id="Layer_2" data-name="Layer 2" xmlns="http://www.w3.org/2000/svg" viewBox="0 0 274.93875 1635.93146">
  <defs>
    <style>
      .cls-1 {
        fill: #ed9547;
      }

      .cls-2 {
        fill: #e08d43;
      }
    </style>
  </defs>
  <g id="MOBILE">
    <g>
      <polyline class="cls-2" points="178.8388 20.05012 153.40387 20.05012 153.40387 1635.93146 262.06528 1635.93146 258.21681 1626.48994 258.2142 1626.48727 234.09819 1567.32901 205.59768 1523.89823 201.57722 1519.34349 200.9763 1506.30384 200.9763 1427.33415 202.8641 1417.24943 215.38081 1350.35124 208.42589 1292.2436 213.39407 1242.08038 205.97048 1218.63787 203.9577 1212.28189 255.71451 985.55913 253.75375 966.80942 246.54372 957.08418 252.36549 926.93437 247.28377 855.16015 229.4859 828.36445 229.4859 792.14746 274.93875 509.93396 266.13475 483.22362 264.11105 453.85475 243.46694 423.06205 239.17222 380.913 254.98895 317.53621 243.46694 251.61963 225.80688 222.04048 204.7571 202.57702 203.57136 183.85039 198.79789 140.73016 186.85868 103.58775 186.85868 57.7612 178.8388 20.05012"/>
      <polygon class="cls-2" points="65.80625 15.11679 43.56238 38.08572 47.22975 81.74074 41.44774 96.20146 20.11113 108.33729 5.07446 133.74701 7.71277 246.43224 59.86421 273.38036 147.37825 192.81305 147.37825 0 117.20026 0 65.80625 15.11679"/>
      <g>
        <polygon class="cls-1" points="47.22975 81.74074 55.015 82.84834 75.81105 76.79538 101.9041 79.53872 110.2242 84.12975 123.86799 80.46256 125.96703 111.13179 110.2242 109.50265 96.90087 112.11541 93.21504 112.11541 74.41137 110.24077 62.36649 112.11541 50.44273 99.60852 41.44774 96.20146 47.22975 81.74074"/>
        <polygon class="cls-1" points="20.11113 108.33729 5.07446 133.74701 24.42486 149.75421 87.93719 149.75421 136.67216 143.24717 126.42717 124.98549 107.81577 126.94323 87.10976 124.14587 66.16725 126.94323 51.01198 121.89487 34.08125 119.73787 20.11113 108.33729"/>
        <polygon class="cls-1" points="0 213.65336 36.5825 210.42391 57.72771 214.89072 81.77642 210.42391 95.12749 215.09757 106.23642 212.88328 131.36622 220.7331 68.83937 268.455 7.71277 231.50414 0 213.65336"/>
        <polygon class="cls-1" points="65.80625 15.11679 117.20026 0 85.82146 32.37282 54.60557 41.86187 43.56238 38.08572 65.80625 15.11679"/>
      </g>
      <g>
        <polygon class="cls-1" points="204.7571 202.57702 200.72166 206.53199 181.48606 209.31927 170.6102 192.81841 189.27256 179.27438 203.57136 183.85039 204.7571 202.57702"/>
        <polygon class="cls-1" points="225.80688 222.04048 243.46694 251.61963 237.68282 259.80481 228.60707 259.80481 219.57147 266.29191 200.14065 239.27581 207.03724 227.13762 215.39723 226.95573 220.03483 222.04048 225.80688 222.04048"/>
        <polygon class="cls-1" points="254.98895 317.53621 243.46694 311.39317 225.56299 317.53621 207.39558 368.02942 226.67528 372.0927 231.19226 380.26462 239.17222 380.913 254.98895 317.53621"/>
        <polygon class="cls-1" points="243.46694 423.06205 264.11105 453.85475 257.04167 462.24639 236.09168 463.21623 216.38491 447.15443 209.56832 421.53615 237.7762 426.32185 243.46694 423.06205"/>
        <polygon class="cls-1" points="229.4859 828.36445 247.28377 855.16015 229.4859 858.44262 212.24016 854.15214 192.95038 859.81648 176.64079 855.16015 176.64079 830.53127 210.95352 823.4357 220.38324 829.21616 229.4859 828.36445"/>
        <polygon class="cls-1" points="252.36549 926.93437 246.54372 957.08418 224.23817 952.68131 186.31207 957.08418 167.92577 945.47172 159.99835 920.76151 176.64079 915.4756 191.04854 918.39788 206.81678 915.4756 223.23963 911.9056 235.59498 920.76151 244.2091 920.76151 252.36549 926.93437"/>
        <polygon class="cls-1" points="213.39407 1242.08038 205.79079 1239.77301 187.06712 1243.55982 180.96615 1286.68739 201.81574 1286.92568 208.42589 1292.2436 213.39407 1242.08038"/>
        <polygon class="cls-1" points="215.38081 1350.35124 200.9763 1427.33415 176.91456 1378.8331 193.79923 1350.35124 202.21436 1355.06035 208.10496 1350.35124 215.38081 1350.35124"/>
        <polygon class="cls-1" points="234.09819 1567.32901 258.21681 1626.48994 235.97355 1616.39151 217.02315 1577.96387 226.049 1569.76189 231.88646 1570.65404 234.09819 1567.32901"/>
        <polyline class="cls-1" points="186.85868 103.58775 198.79789 140.73016 193.09955 145.43091 180.38192 145.43091 159.24483 136.69018 155.97094 107.00407 168.59234 101.02767 182.69721 105.42381 186.85868 103.58775"/>
        <polygon class="cls-1" points="186.85868 57.7612 182.69721 61.91479 167.62656 55.89123 159.51112 15.75537 178.8388 20.05012 186.85868 57.7612"/>
      </g>
    </g>
  </g>
</svg>