<?xml version="1.0" encoding="UTF-8"?>
<svg id="Layer_2" data-name="Layer 2" xmlns="http://www.w3.org/2000/svg" viewBox="0 0 140.35848 120.60515">
  <defs>
    <style>
      .cls-1 {
        fill: #002f73;
      }

      .cls-2 {
        fill: #fff;
      }

      .cls-3 {
        fill: none;
        stroke: #fff;
        stroke-miterlimit: 10;
        stroke-width: 4.61912px;
      }
    </style>
  </defs>
  <g id="SIGNS">
    <g>
      <rect class="cls-1" x="2.2789" y="29.09227" width="135.53007" height="62.6025" rx="14.69556" ry="14.69556" transform="translate(161.86696 71.44175) rotate(146.09222)"/>
      <path class="cls-2" d="M60.12043,76.70879c2.50823,1.76363,4.86623,3.44791,7.25502,5.09301,1.9181,1.32095,2.0621,3.44946,.1752,5.0012-.57549,.47327-1.4645,.8233-2.18704,.84695-11.74711,.38437-23.49055,.70729-35.23472,1.0425-.25078,.00716-.50033-.0045-.83568-.00834,.07231-.2487,.11041-.45597,.19201-.64954,4.63383-10.99173,9.26939-21.98292,13.91074-32.97229,.58663-1.38897,1.91947-2.24196,3.40278-2.21689,1.4857,.02511,2.42755,.86947,2.78575,2.40548,.64125,2.74984,1.31404,5.49028,1.97975,8.23277,.04836,.19922,.14609,.3833,.28358,.73467,1.0015-.67317,1.93663-1.30405,2.87405-1.93151,16.38391-10.96647,32.76778-21.93299,49.15311-32.89733,.84692-.56672,1.71948-1.09597,2.55571-1.67747,.47432-.32984,.77914-.35412,1.09572,.1205,2.50297,3.7524,5.01438,7.49929,7.55214,11.22821,.44852,.65904-.03232,.89619-.50368,1.21155-7.64845,5.11725-15.29451,10.23809-22.94292,15.3554-10.16545,6.80137-20.33248,13.60036-30.49876,20.40048-.28722,.19212-.57363,.38546-1.01277,.68063Z"/>
      <rect class="cls-3" x="2.57723" y="29.00132" width="135.20402" height="62.6025" rx="14.69556" ry="14.69556" transform="translate(162.06382 71.19985) rotate(146.09222)"/>
    </g>
  </g>
</svg>