<?xml version="1.0" encoding="UTF-8"?>
<svg id="Layer_2" data-name="Layer 2" xmlns="http://www.w3.org/2000/svg" viewBox="0 0 1274.79605 423.90243">
  <defs>
    <style>
      .cls-1 {
        stroke-linecap: square;
      }

      .cls-1, .cls-2 {
        stroke: #929497;
        stroke-width: 5.06104px;
      }

      .cls-1, .cls-2, .cls-3, .cls-4 {
        fill: none;
        stroke-miterlimit: 10;
      }

      .cls-5 {
        fill: #e6e7e8;
      }

      .cls-6 {
        fill: #ffcb00;
      }

      .cls-7 {
        fill: #995454;
      }

      .cls-8 {
        fill: #939598;
      }

      .cls-9 {
        fill: #939599;
      }

      .cls-10 {
        fill: #783636;
      }

      .cls-3 {
        stroke: #995454;
        stroke-width: 17.6347px;
      }

      .cls-4 {
        stroke: #000;
        stroke-width: 6.90704px;
      }
    </style>
  </defs>
  <g id="EVERYTHING_ELSE" data-name="EVERYTHING ELSE">
    <g>
      <g>
        <rect class="cls-8" x="1046.50601" y="65.85499" width="10.46429" height="152.43889" transform="translate(14.11701 -80.81714) rotate(4.43023)"/>
        <g>
          <path class="cls-6" d="M1054.4759,7.5062c3.87373-5.8955,12.36516-5.23761,15.28458,1.1842l15.61217,34.34192,15.61217,34.34192c2.91942,6.42182-1.92274,13.7912-8.71589,13.26488l-36.32768-2.81456-36.32768-2.81456c-6.79315-.52631-10.44242-8.55358-6.5687-14.44909l20.71551-31.52736,20.71551-31.52736Z"/>
          <path d="M1062.88751,70.98546c-.25684,3.31982-2.73828,5.44434-5.99023,5.19238s-5.37695-2.7334-5.11914-6.05322c.25781-3.31885,2.73828-5.44434,5.99023-5.19238s5.37695,2.73438,5.11914,6.05322Zm3.50586-42.59521l-4.23438,30.88574-7.78906-.60352,.57422-31.16943,11.44922,.88721Z"/>
          <path class="cls-4" d="M1054.4759,7.5062c3.87373-5.8955,12.36516-5.23761,15.28458,1.1842l15.61217,34.34192,15.61217,34.34192c2.91942,6.42182-1.92274,13.7912-8.71589,13.26488l-36.32768-2.81456-36.32768-2.81456c-6.79315-.52631-10.44242-8.55358-6.5687-14.44909l20.71551-31.52736,20.71551-31.52736Z"/>
        </g>
      </g>
      <g>
        <line class="cls-1" x1="508.86536" y1="137.89304" x2="508.86536" y2="104.24398"/>
        <line class="cls-1" x1="542.51441" y1="104.24398" x2="508.86536" y2="104.24398"/>
        <line class="cls-1" x1="542.51442" y1="104.24398" x2="542.51441" y2="137.89304"/>
        <line class="cls-1" x1="542.51441" y1="137.89304" x2="508.86536" y2="137.89304"/>
        <line class="cls-2" x1="508.86508" y1="104.24371" x2="542.51411" y2="137.89276"/>
        <line class="cls-1" x1="508.86521" y1="104.24398" x2="508.86521" y2="70.59493"/>
        <line class="cls-1" x1="542.51427" y1="70.59493" x2="542.51425" y2="104.24398"/>
        <line class="cls-2" x1="508.86493" y1="70.59465" x2="542.51396" y2="104.24371"/>
        <line class="cls-1" x1="542.51397" y1="70.59493" x2="508.86492" y2="70.59493"/>
        <line class="cls-1" x1="508.86505" y1="171.54264" x2="508.86505" y2="137.89359"/>
        <line class="cls-1" x1="542.51411" y1="137.89359" x2="542.5141" y2="171.54264"/>
        <line class="cls-1" x1="542.51411" y1="171.54264" x2="508.86505" y2="171.54264"/>
        <line class="cls-2" x1="508.86478" y1="137.89331" x2="542.51381" y2="171.54237"/>
      </g>
      <g>
        <line class="cls-1" x1="731.6474" y1="137.89304" x2="731.6474" y2="104.24398"/>
        <line class="cls-1" x1="765.29646" y1="104.24398" x2="731.6474" y2="104.24398"/>
        <line class="cls-1" x1="765.29646" y1="104.24398" x2="765.29645" y2="137.89304"/>
        <line class="cls-1" x1="765.29646" y1="137.89304" x2="731.6474" y2="137.89304"/>
        <line class="cls-2" x1="731.64713" y1="104.24371" x2="765.29616" y2="137.89276"/>
        <line class="cls-1" x1="731.64725" y1="104.24398" x2="731.64725" y2="70.59493"/>
        <line class="cls-1" x1="765.29631" y1="70.59493" x2="765.2963" y2="104.24398"/>
        <line class="cls-2" x1="731.64697" y1="70.59465" x2="765.296" y2="104.24371"/>
        <line class="cls-1" x1="765.29601" y1="70.59493" x2="731.64696" y2="70.59493"/>
        <line class="cls-1" x1="731.6471" y1="171.54264" x2="731.6471" y2="137.89359"/>
        <line class="cls-1" x1="765.29616" y1="137.89359" x2="765.29614" y2="171.54264"/>
        <line class="cls-1" x1="765.29615" y1="171.54264" x2="731.6471" y2="171.54264"/>
        <line class="cls-2" x1="731.64682" y1="137.89331" x2="765.29585" y2="171.54237"/>
      </g>
      <g>
        <rect class="cls-9" x="2.51291" y="162.3379" width="1269.77023" height="86.54021"/>
        <rect class="cls-7" x="2.51291" y="145.38375" width="1269.77023" height="16.95415"/>
        <rect class="cls-7" x="2.51291" y="248.87811" width="1269.77023" height="16.95415"/>
        <path class="cls-10" d="M2.51291,265.83226H1272.28314v149.61849c-165.35539-49.16452-380.86552-93.01398-633.59519-93.16272-253.90209-.14943-470.32901,43.85235-636.17504,93.16272v-149.61849Z"/>
        <polygon class="cls-7" points="1272.2831 116.08907 2.5129 116.08907 2.5129 124.56612 9.89528 145.38372 24.66005 145.38372 32.04244 124.56612 61.57198 124.56612 68.95437 145.38372 83.71914 145.38372 91.10153 124.56612 120.63107 124.56612 128.01345 145.38368 142.77823 145.38368 150.16061 124.56612 179.69015 124.56612 187.07254 145.38368 201.83731 145.38368 209.21965 124.56612 238.74919 124.56612 246.13163 145.38368 260.89635 145.38364 268.27869 124.56612 297.80833 124.56612 305.19066 145.38364 319.95544 145.38364 327.33778 124.56612 356.86741 124.56612 364.24975 145.38364 379.01452 145.38364 386.39686 124.56612 415.9265 124.56612 423.30884 145.3836 438.07361 145.3836 445.45595 124.56612 474.98558 124.56612 482.36792 145.3836 497.13269 145.3836 504.51503 124.56612 534.04462 124.56612 541.42701 145.38356 556.19178 145.38356 563.57407 124.56612 593.10371 124.56612 600.48605 145.38356 615.25082 145.38356 622.63316 124.56612 652.16279 124.56612 659.54513 145.38356 674.3099 145.38352 681.6922 124.56612 711.22192 124.56612 718.60422 145.38352 733.36899 145.38352 740.75128 124.56612 770.28106 124.56612 777.6633 145.38352 792.42807 145.38352 799.81041 124.56612 829.34005 124.56612 836.72239 145.38348 851.48716 145.38348 858.86941 124.56612 888.39913 124.56612 895.78138 145.38348 910.54625 145.38348 917.92849 124.56612 947.45822 124.56612 954.84047 145.38344 969.60533 145.38344 976.98758 124.56612 1006.51731 124.56612 1013.89955 145.38344 1028.66442 145.38344 1036.04666 124.56612 1065.57639 124.56612 1072.95864 145.3834 1087.7235 145.3834 1095.10575 124.56612 1124.63548 124.56612 1132.01772 145.3834 1146.78259 145.3834 1154.16474 124.56612 1183.69447 124.56612 1191.07681 145.3834 1205.84158 145.3834 1213.22383 124.56612 1242.75365 124.56612 1250.1359 145.38336 1264.90067 145.38336 1272.28291 124.56612 1272.2831 124.56612 1272.2831 116.08907"/>
        <path class="cls-3" d="M1272.28314,415.45075c-165.35539-49.16452-380.86552-93.01398-633.59519-93.16272-253.90209-.14943-470.32901,43.85235-636.17504,93.16272"/>
        <polygon class="cls-7" points="1272.28312 219.58345 2.51292 219.58345 2.51292 228.0605 9.89531 248.87811 24.66008 248.87811 32.04246 228.0605 61.57201 228.0605 68.95439 248.87811 83.71916 248.87811 91.10155 228.0605 120.63109 228.0605 128.01348 248.87807 142.77825 248.87807 150.16064 228.0605 179.69018 228.0605 187.07256 248.87807 201.83734 248.87807 209.21967 228.0605 238.74922 228.0605 246.13165 248.87807 260.89637 248.87803 268.27871 228.0605 297.80835 228.0605 305.19069 248.87803 319.95546 248.87803 327.3378 228.0605 356.86743 228.0605 364.24977 248.87803 379.01455 248.87803 386.39689 228.0605 415.92652 228.0605 423.30886 248.87799 438.07363 248.87799 445.45597 228.0605 474.98561 228.0605 482.36795 248.87799 497.13272 248.87799 504.51506 228.0605 534.04465 228.0605 541.42703 248.87795 556.1918 248.87795 563.5741 228.0605 593.10373 228.0605 600.48607 248.87795 615.25084 248.87795 622.63318 228.0605 652.16282 228.0605 659.54516 248.87795 674.30993 248.87791 681.69222 228.0605 711.22195 228.0605 718.60424 248.87791 733.36901 248.87791 740.75131 228.0605 770.28108 228.0605 777.66333 248.87791 792.4281 248.87791 799.81044 228.0605 829.34007 228.0605 836.72241 248.87787 851.48718 248.87787 858.86943 228.0605 888.39916 228.0605 895.78141 248.87787 910.54627 248.87787 917.92852 228.0605 947.45824 228.0605 954.84049 248.87783 969.60536 248.87783 976.9876 228.0605 1006.51733 228.0605 1013.89958 248.87783 1028.66444 248.87783 1036.04669 228.0605 1065.57642 228.0605 1072.95866 248.87779 1087.72353 248.87779 1095.10577 228.0605 1124.6355 228.0605 1132.01775 248.87779 1146.78261 248.87779 1154.16477 228.0605 1183.69449 228.0605 1191.07683 248.87779 1205.8416 248.87779 1213.22385 228.0605 1242.75367 228.0605 1250.13592 248.87775 1264.90069 248.87775 1272.28294 228.0605 1272.28312 228.0605 1272.28312 219.58345"/>
        <g>
          <rect class="cls-5" x="2.51251" y="202.08117" width="27.5" height="7.05371"/>
          <path class="cls-5" d="M1159.09356,209.13488h-55.44531v-7.05371h55.44531v7.05371Zm-141.13477,0h-55.44629v-7.05371h55.44629v7.05371Zm-141.13574,0h-55.44531v-7.05371h55.44531v7.05371Zm-141.13477,0h-55.44531v-7.05371h55.44531v7.05371Zm-141.13477,0h-55.44629v-7.05371h55.44629v7.05371Zm-141.13574,0h-55.44531v-7.05371h55.44531v7.05371Zm-141.13477,0h-55.44629v-7.05371h55.44629v7.05371Zm-141.13477,0h-55.44629v-7.05371h55.44629v7.05371Z"/>
          <rect class="cls-5" x="1244.78302" y="202.08117" width="27.5" height="7.05371"/>
        </g>
        <rect class="cls-7" x="32.04246" y="257.35519" width="29.52954" height="144.65843"/>
        <rect class="cls-7" x="150.16064" y="257.35519" width="29.52954" height="114.70679"/>
        <rect class="cls-7" x="267.64675" y="257.35519" width="29.52954" height="93.80529"/>
        <rect class="cls-7" x="386.67904" y="257.35519" width="29.52954" height="77.66108"/>
        <rect class="cls-7" x="504.46632" y="257.35519" width="29.52954" height="68.12166"/>
        <rect class="cls-7" x="622.63323" y="257.35519" width="29.52954" height="64.93285"/>
        <rect class="cls-7" x="741.23662" y="257.35519" width="29.52954" height="68.1449"/>
        <rect class="cls-7" x="858.71686" y="257.35519" width="29.52954" height="78.12352"/>
        <rect class="cls-7" x="977.10781" y="257.35519" width="29.52954" height="94.05463"/>
        <rect class="cls-7" x="1095.0434" y="257.35519" width="29.52954" height="116.21843"/>
        <rect class="cls-7" x="1213.43435" y="257.35519" width="29.52954" height="146.19208"/>
      </g>
    </g>
  </g>
</svg>