<?xml version="1.0" encoding="UTF-8"?>
<svg id="Layer_2" data-name="Layer 2" xmlns="http://www.w3.org/2000/svg" xmlns:xlink="http://www.w3.org/1999/xlink" viewBox="0 0 1440.00374 1309.78739">
  <defs>
    <style>
      .cls-1, .cls-2, .cls-3, .cls-4, .cls-5, .cls-6, .cls-7, .cls-8, .cls-9, .cls-10 {
        stroke-miterlimit: 10;
      }

      .cls-1, .cls-5 {
        stroke-width: 1.82346px;
      }

      .cls-1, .cls-8 {
        fill: #d65e72;
        stroke: #d65e72;
      }

      .cls-11 {
        fill: url(#linear-gradient);
      }

      .cls-2 {
        stroke: #d77332;
      }

      .cls-2, .cls-3 {
        stroke-width: 6px;
      }

      .cls-2, .cls-3, .cls-12, .cls-4, .cls-13, .cls-5, .cls-6, .cls-7, .cls-14, .cls-15, .cls-16, .cls-9, .cls-17, .cls-10, .cls-18 {
        fill: none;
      }

      .cls-3 {
        stroke: #c97040;
      }

      .cls-12 {
        stroke-width: 3.42001px;
      }

      .cls-12, .cls-13, .cls-14, .cls-15, .cls-16, .cls-17, .cls-18 {
        stroke: #6c8241;
        stroke-linecap: round;
        stroke-linejoin: round;
      }

      .cls-19 {
        fill: #7e7370;
      }

      .cls-20 {
        fill: #7f7c7c;
      }

      .cls-21 {
        fill: #a25b34;
      }

      .cls-22 {
        fill: #9f2e2b;
      }

      .cls-23 {
        fill: #666667;
      }

      .cls-24 {
        fill: #30150f;
      }

      .cls-25 {
        fill: #8f3027;
      }

      .cls-26 {
        fill: #333;
      }

      .cls-27 {
        fill: #bd7739;
      }

      .cls-28 {
        fill: #b05e29;
      }

      .cls-29 {
        fill: #bd703c;
      }

      .cls-30, .cls-31 {
        fill: #ab6e37;
      }

      .cls-32 {
        fill: #d5a277;
      }

      .cls-33 {
        fill: #d6cb88;
      }

      .cls-34 {
        fill: #201f20;
      }

      .cls-35 {
        fill: #442525;
      }

      .cls-36 {
        fill: #8a572a;
      }

      .cls-37 {
        fill: #6f4721;
      }

      .cls-38 {
        fill: #955430;
      }

      .cls-39 {
        fill: #a35726;
      }

      .cls-40 {
        fill: #a36731;
      }

      .cls-41 {
        fill: #965f2d;
      }

      .cls-42 {
        fill: #895729;
      }

      .cls-43 {
        fill: #6e3d37;
      }

      .cls-44 {
        fill: #56371a;
      }

      .cls-45 {
        fill: #4b2820;
      }

      .cls-46 {
        fill: #57673d;
      }

      .cls-47, .cls-48 {
        fill: #4c6fb1;
      }

      .cls-49 {
        fill: #633f1e;
      }

      .cls-50 {
        fill: #547347;
      }

      .cls-51 {
        fill: #835950;
      }

      .cls-52 {
        fill: #7c4f25;
      }

      .cls-4, .cls-5, .cls-9, .cls-10 {
        stroke: #b5b46c;
      }

      .cls-4, .cls-8 {
        stroke-width: 1.67744px;
      }

      .cls-13 {
        stroke-width: 2.86383px;
      }

      .cls-6 {
        stroke: #666667;
        stroke-width: 1.03902px;
      }

      .cls-53 {
        fill: url(#linear-gradient-8);
      }

      .cls-54 {
        fill: url(#linear-gradient-3);
      }

      .cls-55 {
        fill: url(#linear-gradient-4);
      }

      .cls-56 {
        fill: url(#linear-gradient-2);
      }

      .cls-57 {
        fill: url(#linear-gradient-6);
      }

      .cls-58 {
        fill: url(#linear-gradient-7);
      }

      .cls-59 {
        fill: url(#linear-gradient-5);
      }

      .cls-7 {
        stroke: #6a3829;
        stroke-width: .59562px;
      }

      .cls-14 {
        stroke-width: 2.77494px;
      }

      .cls-15 {
        stroke-width: 4.24584px;
      }

      .cls-16 {
        stroke-width: 3.51885px;
      }

      .cls-9 {
        stroke-width: 1.73785px;
      }

      .cls-17 {
        stroke-width: 3.56605px;
      }

      .cls-10 {
        stroke-width: 1.91263px;
      }

      .cls-60 {
        fill: #989898;
        opacity: .69;
      }

      .cls-48, .cls-61 {
        opacity: .85;
      }

      .cls-61 {
        fill: #191919;
      }

      .cls-31 {
        opacity: .8;
      }

      .cls-18 {
        stroke-width: 3.6033px;
      }
    </style>
    <linearGradient id="linear-gradient" x1="2604.21046" y1="-134.52469" x2="2604.21046" y2="94.78677" gradientTransform="translate(-1858.77578 435.7012) rotate(7.3347)" gradientUnits="userSpaceOnUse">
      <stop offset=".0228" stop-color="#486e37"/>
      <stop offset=".15569" stop-color="#426431"/>
      <stop offset=".37582" stop-color="#334b22"/>
      <stop offset=".56742" stop-color="#233012"/>
    </linearGradient>
    <linearGradient id="linear-gradient-2" x1="-6780.24534" y1="541.87315" x2="-6780.24534" y2="722.70688" gradientTransform="translate(-6683.61484 435.7012) rotate(172.6653) scale(1 -1)" xlink:href="#linear-gradient"/>
    <linearGradient id="linear-gradient-3" x1="493.16245" y1="4625.89978" x2="492.3921" y2="4815.16732" gradientTransform="translate(-2719.58045 -2238.80162) rotate(-53.56325)" xlink:href="#linear-gradient"/>
    <linearGradient id="linear-gradient-4" x1="984.32094" y1="830.62529" x2="984.32094" y2="1048.36316" gradientTransform="matrix(1, 0, 0, 1, 0, 0)" xlink:href="#linear-gradient"/>
    <linearGradient id="linear-gradient-5" x1="103.24048" y1="52.43089" x2="102.50167" y2="233.94765" gradientTransform="translate(325.19361 758.68748) rotate(8.99479)" xlink:href="#linear-gradient"/>
    <linearGradient id="linear-gradient-6" x1="-8869.55988" y1="2731.63882" x2="-8870.33024" y2="2920.90636" gradientTransform="translate(-8041.85018 1441.70113) rotate(159.89513) scale(1 -1)" xlink:href="#linear-gradient"/>
    <linearGradient id="linear-gradient-7" x1="-9840.14876" y1="931.61878" x2="-9840.92717" y2="1122.86347" gradientTransform="translate(-9719.35581) rotate(-180) scale(1 -1)" xlink:href="#linear-gradient"/>
    <linearGradient id="linear-gradient-8" x1="-6757.36693" y1="1764.50515" x2="-6757.36693" y2="1938.8833" gradientTransform="translate(-6923.9332 337.41611) rotate(172.6653) scale(1.12477 -1.01835)" xlink:href="#linear-gradient"/>
  </defs>
  <g id="EVERYTHING_ELSE" data-name="EVERYTHING ELSE">
    <g>
      <g>
        <g>
          <g>
            <path class="cls-60" d="M353.84627,239.28156c-2.70695,2.49759-4.8975,5.63769-6.30184,9.31128-4.86591,12.72868,1.5082,26.99197,14.23688,31.85787,4.86472,1.85968,9.95183,2.0727,14.65468,.92171,1.43676,1.5362,3.22322,2.78848,5.32042,3.59019,.24595,.09402,.49525,.16223,.7429,.24184-3.99949,1.27675-7.4055,4.2859-9.02125,8.51252-2.82047,7.37805,.87402,15.64559,8.25225,18.46613,5.18578,1.98241,10.80323,.73636,14.6677-2.73538,.02623,.01023,.05016,.02366,.07646,.03371,6.60697,2.52571,14.01063-.78283,16.53636-7.38986,1.52621-3.9924,.91079-8.26892-1.26411-11.59106,.19651-.11905,.39204-.23984,.58294-.36837,.42132,.21069,.85576,.40413,1.305,.57587,7.37799,2.82045,15.64542-.87429,18.46589-8.25234,2.8205-7.37811-.87402-15.64559-8.25201-18.46604-.35494-.13569-.71315-.24295-1.07112-.3487,2.09368-1.87013,3.82121-4.19545,5.03887-6.89622,18.4548,.10116,35.89015-11.07679,42.86906-29.33287,8.99632-23.53337-2.78833-49.90397-26.3217-58.90028-20.38958-7.79451-42.90027,.01811-54.40412,17.54819-16.89465-5.72462-35.43254,2.8823-41.85741,19.68904-4.50602,11.78724-1.88273,24.54558,5.74412,33.53276Zm37.35482,45.94119c.18222-.05825,.36167-.12272,.54121-.18817,.08047,.15039,.15878,.30145,.24469,.44896-.01467-.00568-.02807-.01324-.04276-.01886-.24619-.09411-.49525-.16223-.74314-.24193Z"/>
            <rect class="cls-20" x="408.72638" y="278.98753" width="4.04191" height="13.1362" transform="translate(129.04402 -127.84325) rotate(20.92081)"/>
            <rect class="cls-20" x="446.17911" y="288.68857" width="4.04191" height="13.1362" transform="translate(134.97712 -140.57723) rotate(20.92081)"/>
            <rect class="cls-20" x="479.05067" y="301.25468" width="4.04191" height="13.1362" transform="translate(141.63126 -151.48649) rotate(20.92081)"/>
            <rect class="cls-20" x="514.65551" y="317.39471" width="4.04191" height="13.1362" transform="translate(149.74175 -163.13614) rotate(20.92081)"/>
            <circle cx="413.78885" cy="277.59936" r="6.01828"/>
            <circle cx="483.07091" cy="302.59287" r="6.01828"/>
            <circle cx="519.02179" cy="317.82771" r="6.01828"/>
            <path class="cls-22" d="M558.43974,428.80061c-2.80685-3.85634-5.61869-6.68519-7.68169-8.55815-5.26278-3.35735-9.8233-5.56879-13.11991-6.99882-6.10683-2.64906-9.95559-3.50071-11.44445-6.93807-1.15938-2.67668-.37847-5.59396,.40888-7.54702l7.314-37.22936c.58061-4.11816,.85111-10.28663-1.197-17.22746-.71299-2.41648-1.59394-4.54277-2.50103-6.37055-2.87223-2.44071-7.12395-5.76609-12.66899-9.11253-2.23952-1.35153-5.50275-3.19707-13.81796-6.96796-5.13952-2.33074-12.13238-5.3623-20.66692-8.64966l-31.82674-11.79213c-10.69842-3.54881-22.52711-6.91222-35.41369-9.76029-8.35732-1.84709-16.37671-3.30442-23.99739-4.44999,0,0-9.71316-1.73657-18.31582,13.01088l-19.38587,32.61454c-1.58356,2.46231-3.35255,3.97255-4.81561,4.92265-6.99786,4.54445-17.48553,3.08774-26.94812-3.12624-2.63121-.86254-8.87664-2.51964-16.56038-.76592-7.72034,1.76207-12.64233,5.99757-14.63434,7.92001-1.34776,1.86538-3.02725,4.73279-3.89561,8.52743-2.06176,9.00999,2.01543,16.40218,3.20918,18.40431-2.40364,3.93908-4.80192,8.22075-7.11484,12.85029-5.19745,10.40201-8.82083,20.26895-11.38402,29.03627,11.79325,5.81253,23.90773,11.57685,36.34315,17.26744,27.43435,12.55437,54.18683,23.72337,80.0701,33.6766,13.41018,5.15685,20.94545,8.35442,31.74617,12.44264,0,0,31.01043,11.73807,113.30805,38.07526,4.70687-7.5821,9.76115-17.54138,13.36113-29.78877,1.49086-5.07279,2.53889-9.87946,3.27138-14.31963,3.08218-1.90205,8.11905-5.63033,11.79766-12.05708,1.76683-3.08666,3.77342-6.59235,3.72637-11.30356-.05968-5.97464-3.23615-10.38649-7.16568-15.78511Z"/>
            <path d="M477.51008,512.13281c-1.23453,2.63124-2.48729,6.08307-3.09668,10.24244-.69652,4.75312-1.77448,12.11172,2.45985,16.59793,1.65454,1.75293,3.6941,2.61592,7.02426,4.02496,1.71697,.72649,4.28808,1.64821,7.5148,2.20611,4.30654,.74461,6.81744,1.17879,9.52239,.27917,3.34834-1.11356,5.51757-4.24267,9.71967-10.45531,2.24715-3.32228,3.92365-6.21596,5.05929-8.29087l-38.20358-14.60443Z"/>
            <path class="cls-20" d="M506.22119,523.10848s-10.66268,21.96091,.19785,17.91344l9.29461-14.28467-9.49246-3.62877Z"/>
            <path d="M274.33471,429.29871s-4.29623,16.64675,6.66172,24.17547c6.91861,2.7498,13.02422,5.05398,18.1379,6.93374,1.03531,.38057,2.93294,1.04863,4.66527,.23955,2.05131-.95796,2.80824-3.4907,3.35689-6.0256,.7551-3.48842,1.56775-9.0689,1.08214-16.66368l-33.90391-8.65947Z"/>
            <path class="cls-26" d="M293.83049,434.27817s-3.68269,20.67841,5.30384,26.12975c0,0,10.2186,7.52428,9.1043-22.44973l-14.40813-3.68001Z"/>
            <path class="cls-30" d="M530.88991,417.17032c.27508,1.41459,2.68105,.16272,1.82952,3.0286-.43085,1.45018-1.45076,4.8827-4.44774,6.72509-2.66977,1.64123-4.4303,.49715-6.04446,2.30047-1.41519,1.58108-.41265,2.85243-1.79781,4.88992-1.38275,2.03389-4.48957,3.86735-6.88907,2.8237-1.98857-.86491-2.86397-3.43314-2.79496-5.24553,.05902-1.55004,.83469-3.22485,1.70741-5.10931,.55644-1.20151,.92554-1.74991,.95094-2.74148,.04409-1.72115-.95061-3.01508-1.06298-3.1571-1.54938-1.95888-3.37132-1.01832-5.29311-2.90809-.20963-.20612-1.93053-1.94489-1.73085-4.02971,.20728-2.16422,2.44643-4.30648,2.44643-4.30648,3.60815,.13323,6.64027,.36172,8.97881,.57999,2.79369,.26073,4.88703,.53386,6.82124,.84718,.18121,.02933,1.25145,.20378,2.66715,.4847,3.16768,.62861,4.32922,2.51022,4.82806,2.69686,.84509,.31626-.57875,2.91671-.16857,3.12119Z"/>
            <path class="cls-30" d="M370.30723,342.47187c2.27243-1.39109,2.04805-2.13772,3.42777-2.44244,2.03914-.45044,4.9725,.64078,5.42143,.81205,3.59177,1.37008,6.07348,4.09142,6.89928,6.01863,.62902,1.46778,.09441,2.00119,1.28327,3.53256,.31448,.40504,.98608,1.18471,2.97604,2.59661,4.28985,3.04362,6.32518,3.07883,8.3998,5.00431,1.42811,1.3255,2.46791,3.16895,1.84088,4.45599-.81733,1.67767-4.36147,2.19395-8.75958,1.14604-1.38879-.34763-3.39179-.89294-5.77919-1.70208-2.85396-.96722-5.04454-1.70965-7.19852-2.93945-3.75117-2.14169-2.82053-3.15198-5.94935-5.01627-4.64038-2.76495-8.85344-1.8334-11.56976-4.21992-1.72595-1.51636-1.43551-3.13172-1.37068-3.49256,.25041-1.39302,1.69258-2.30065,3.43233-2.5707,1.8613-.2889,3.06067,.30758,4.99333-.22371,.70117-.19269,1.11843-.44815,1.95295-.95906Z"/>
            <path class="cls-31" d="M283.36538,381.55657c7.78148,1.99371,13.83918,6.26103,14.42399,10.94582,.5794,4.64139-.99624,8.20258-.99628,8.2027-.76337,1.72338-1.64129,2.66591-1.40817,4.01893,.32943,1.91165,2.61519,3.12587,4.54041,3.86102,3.25977-1.14613,6.51935-2.29247,9.77912-3.4386,11.40994-.68021,14.77356,1.55273,15.77138,3.67169,1.97425,4.19227-3.72396,11.30862-2.38246,12.23302,.66313,.45691,2.02958-1.29894,4.37951-2.03995,3.65915-1.15368,7.56069,.82866,10.38323,2.79054,1.65218-.60297,3.90691-1.24201,6.63699-1.50407,2.5939-.24895,4.82381-.0814,6.51003,.16929,.57944,.16719,4.45651,1.35751,6.34062,5.41688,1.98574,4.278,.11798,8.20908-.12896,8.70657l9.89491,1.42524c4.07797,.58737,12.33966,3.86955,13.5035,10.04537,.75624,4.01329-1.88967,7.70237-3.38463,9.44983-35.15658-15.31972-70.31295-30.63928-105.46953-45.959,1.31242-4.42059,2.97447-9.24856,5.09488-14.35701,2.10224-5.06447,4.32677-9.61482,6.51147-13.63827Z"/>
            <path class="cls-26" d="M314.92555,404.80655s14.902-26.54003,37.31891-17.44203c22.41714,9.09808,135.56213,51.81612,135.56213,51.81612,0,0,19.74296,2.26906,17.08742,38.24689-.37675,2.53279-1.33355,5.84838-4.00597,7.65532-3.83287,2.5913-9.04022,.62271-18.49232-2.87515-4.37905-1.62052-12.19515-4.50403-23.12155-8.47946-46.73977-18.25334-93.4798-36.50671-140.21957-54.76005,0,0-12.17503-4.02741-4.12905-14.16164Z"/>
            <rect class="cls-23" x="355.6647" y="391.25484" width="5.1671" height="41.50196" transform="translate(170.73551 -100.76077) rotate(20.92081)"/>
            <rect class="cls-23" x="390.82454" y="404.94047" width="5.1671" height="41.50196" transform="translate(177.94025 -112.41332) rotate(20.92081)"/>
            <rect class="cls-23" x="427.98064" y="418.91909" width="5.1671" height="42.05111" transform="translate(185.47927 -124.74128) rotate(20.92081)"/>
            <rect class="cls-23" x="464.37917" y="432.84334" width="5.1671" height="42.33027" transform="translate(192.90072 -136.81121) rotate(20.92081)"/>
            <line class="cls-6" x1="328.7468" y1="390.00932" x2="503.51545" y2="456.91593"/>
            <line class="cls-6" x1="320.28581" y1="397.49357" x2="505.08334" y2="468.13781"/>
            <line class="cls-6" x1="314.92555" y1="404.80655" x2="504.89401" y2="477.42752"/>
            <path d="M275.86725,407.47768c36.94941,18.06705,77.48249,36.09902,121.51721,53.21677,50.34082,19.56918,98.19205,35.19678,142.60498,47.75163,.26746,1.72285,1.67142,11.82878-5.14262,20.08113-3.33836,4.04315-7.29171,5.99692-9.59649,6.9074-43.54015-13.9171-89.34808-30.08464-136.94438-48.92056-44.43805-17.58601-86.12991-35.79434-125.02123-54.10446,0,0,.27922-24.67822,12.58253-24.93192Z"/>
            <polygon class="cls-61" points="560.05572 443.04927 525.87973 431.27376 511.60218 451.08506 542.48957 461.34557 555.62659 454.63539 560.05572 443.04927"/>
            <polygon class="cls-61" points="297.10459 343.25012 330.42055 357.27537 327.8416 381.5588 297.98624 368.59862 292.67546 354.83624 297.10459 343.25012"/>
            <circle class="cls-25" cx="297.49224" cy="392.48988" r="7.25368"/>
            <circle class="cls-25" cx="525.89044" cy="479.80175" r="7.25368"/>
            <polygon class="cls-48" points="382.07312 329.48342 393.65015 313.4257 506.49474 350.59709 515.27877 380.40515 382.07312 329.48342"/>
            <path class="cls-45" d="M395.57272,296.70215l.8877,12.74601,119.01505,39.29364,6.52566-5.92418s-92.09015-44.95223-126.42842-46.11547Z"/>
            <polygon class="cls-47" points="389.09083 302.28992 372.39987 325.78553 379.7288 326.77995 391.10242 308.39596 389.09083 302.28992"/>
            <polygon class="cls-47" points="515.08699 351.90146 523.2461 351.80882 520.85327 383.76674 515.41811 374.50991 515.08699 351.90146"/>
            <path d="M476.41858,371.04387l.00003-.00008c2.63578-6.8949,10.362-10.34771,17.2569-7.71193,6.89522,2.6359,10.34791,10.36217,7.71214,17.25707l-.00003,.00008,5.38706,2.05936,.00003-.00008c3.77318-9.87022-1.16951-20.93036-11.0398-24.70357-9.86998-3.77309-20.93017,1.16949-24.70335,11.03971l-.00003,.00008,5.38706,2.05936Z"/>
            <path d="M357.19493,361.43024c2.62016-.23028,6.48234-.16819,10.31792,1.73238,5.0441,2.49937,5.35244,5.85431,9.18145,8.68847,6.309,4.66985,11.24091-.16842,23.39276,1.88503,2.95347,.49907,9.1094,3.19304,21.42103,8.58089,8.99381,3.93587,15.24943,7.0212,20.46587,4.30866,2.3794-1.23724,1.86603-2.28908,3.95218-3.04905,5.52778-2.01385,9.68802,5.16893,21.76472,9.3335,6.39251,2.2044,6.3402,.57589,10.3687,2.69713,6.12276,3.22403,7.2684,7.52583,14.19829,13.9317,2.41094,2.22872,5.61606,4.79886,9.78246,7.26266-3.99904,3.20786-7.99785,6.41582-11.99689,9.62368l-125.25762-47.88337-7.59087-17.11167Z"/>
            <ellipse class="cls-23" cx="437.51737" cy="401.43883" rx="3.47735" ry="23.72754" transform="translate(-93.68406 666.7681) rotate(-69.07919)"/>
            <ellipse class="cls-23" cx="456.15777" cy="405.4245" rx="2.93315" ry="20.01421" transform="translate(-85.42264 686.74211) rotate(-69.07919)"/>
            <ellipse class="cls-23" cx="473.80519" cy="415.3109" rx="2.93315" ry="20.01421" transform="translate(-83.31136 709.5823) rotate(-69.07919)"/>
            <path class="cls-60" d="M567.70405,355.9842c6.42487-16.80674-1.64426-35.58497-18.04937-42.59015,3.12358-20.73368-8.43509-41.57031-28.82468-49.36482-23.53337-8.99632-49.90397,2.78833-58.90028,26.3217-6.97892,18.25607-1.44625,38.21422,12.36991,50.44957-.89447,2.82432-1.15863,5.70906-.84637,8.49892-.33723-.16001-.67564-.31905-1.03058-.45473-7.37799-2.82045-15.6454,.87423-18.46589,8.25234-2.82047,7.37805,.87402,15.64559,8.25201,18.46604,.44925,.17174,.90193,.31743,1.35636,.44152,.05648,.2231,.12158,.44351,.18856,.66329-3.83639,1.02414-7.14763,3.79958-8.67384,7.79199-2.52573,6.60703,.78289,14.01065,7.38986,16.53636,.0263,.01005,.05308,.01601,.07945,.02589,.56309,5.16431,3.91684,9.83986,9.10261,11.82228,7.37823,2.82054,15.64566-.8742,18.46613-8.25225,1.61575-4.22662,1.08563-8.74047-1.04227-12.3596,.2376,.1059,.46883,.22139,.71478,.31541,2.0972,.80172,4.26346,1.06048,6.35859,.87445,2.73579,3.99463,6.66775,7.22941,11.53247,9.08909,12.72868,4.86591,26.992-1.50812,31.85791-14.2368,1.40434-3.67359,1.86708-7.4742,1.5165-11.14062,11.67705-1.6077,22.14213-9.36263,26.64815-21.14987Zm-85.83835,30.14175c-.01469-.00562-.02972-.00892-.04444-.01447,.16241-.05259,.32151-.11288,.48178-.17124,.0901,.16853,.18077,.33626,.27767,.50122-.23784-.10599-.46883-.22139-.71502-.3155Z"/>
            <path class="cls-48" d="M525.15615,343.37539s-46.7502-32.72251-131.86009-50.40736l-26.87552,36.02585,156.25001,59.73112,2.4856-45.34961Zm-94.53292-2.13973l-8.7455,2.21951-1.79993-11.37434-6.62986,8.15181-3.00182-8.61324-11.96978,2.88991,6.38367-11.25304-.80855-12.81896,10.87604,14.43639,15.54285-13.85212-.98715,11.77274,15.70598,4.86646-13.71913,2.33407,16.56295,17.8962-17.40977-6.65539Z"/>
            <polygon class="cls-48" points="552.6267 445.87625 543.74222 444.38802 548.45315 439.05154 525.87971 431.27376 511.60224 451.0851 542.48963 461.34556 555.62653 454.63537 550.42042 451.64763 552.6267 445.87625"/>
            <path class="cls-48" d="M330.42059,357.27539l-33.31591-14.02526-4.42914,11.58613,5.31068,13.76232,29.85533,12.96021,2.57903-24.28341Zm-12.00867,5.65423l-7.06011-6.69463-3.2774,5.73954-7.14087-.73199-.77688-10.28613,5.26407,3.41935,2.01143-6.68177,14.4746,6.09352-3.49484,9.14211Z"/>
          </g>
          <g>
            <path class="cls-11" d="M702.15935,790.39945s-70.62204-26.67118-60.87831-44.10824c9.74372-17.43705,25.68636-2.92411,25.68636-2.92411,0,0-55.51348-49.374-21.40172-74.05846,34.11176-24.68447,49.31457,17.424,49.31457,17.424,0,0-23.68076-56.35284-.67662-74.8521,23.00414-18.49927,42.4179,5.45997,42.4179,5.45997,0,0-8.35869-66.14917,53.9989-40.81587,62.35759,25.33329,21.13177,47.02524,21.13177,47.02524,0,0,20.06594-2.95529,17.87455,14.06935-2.19139,17.02464-24.44871,37.00458-24.44871,37.00458,0,0,32.87346-.49903,17.47279,17.19056-15.40067,17.68959-55.0452,41.66188-55.0452,41.66188,0,0,34.15734-17.75591,46.58677-5.07972s-2.49644,26.67714-2.49644,26.67714c0,0,13.87991,1.38522,13.02111,8.07954-3.38546,26.38964-92.97021,34.06887-92.97021,34.06887l-29.58751-6.82263Z"/>
            <path class="cls-16" d="M709.3463,788.18891s-70.62204-26.67118-60.87831-44.10824c9.74372-17.43705,25.68636-2.92411,25.68636-2.92411,0,0-55.51348-49.374-21.40172-74.05846,34.11176-24.68447,49.31457,17.424,49.31457,17.424,0,0-23.68076-56.35284-.67662-74.8521,23.00414-18.49927,42.4179,5.45997,42.4179,5.45997,0,0-8.35869-66.14917,53.9989-40.81587,62.35759,25.33329,21.13177,47.02524,21.13177,47.02524,0,0,20.06594-2.95529,17.87455,14.06935-2.19139,17.02464-24.44871,37.00458-24.44871,37.00458,0,0,32.87346-.49903,17.47279,17.19056-15.40067,17.68959-55.0452,41.66188-55.0452,41.66188,0,0,34.15734-17.75591,46.58677-5.07972s-2.49644,26.67714-2.49644,26.67714c0,0,13.87991,1.38522,13.02111,8.07954-3.38546,26.38964-92.97021,34.06887-92.97021,34.06887l-29.58751-6.82263Z"/>
          </g>
          <path class="cls-50" d="M733.62034,816.21224s-104.82963,19.05957-122.97322-11.9357c-18.14359-30.99527,27.21538-19.14414,27.21538-19.14414,0,0-26.20741-23.70227-7.05584-30.08365,19.15157-6.38138,39.18511,3.6465,39.18511,3.6465,0,0-20.03355-18.48853-8.9458-36.13722s28.22336,0,28.22336,0c0,0,24.19145-43.17421,44.351-32.2347,20.15954,10.93951,0,70.19517,0,70.19517,0,0,40.31909-35.5534,49.39088-9.11626s-49.39088,64.80999-49.39088,64.80999Z"/>
          <polygon class="cls-39" points=".00027 249.67998 207.62141 421.06159 597.26836 584.08934 692.82117 785.13047 1157.35168 993.09476 .00027 993.09476 .00027 249.67998"/>
          <polygon class="cls-28" points="597.26836 584.08934 456.15777 600.90613 380.30604 577.90555 290.2366 584.3243 208.30088 545.98825 251.98064 699.46125 380.74634 743.12342 505.13974 735.65478 594.22042 770.00505 692.82117 785.13047 597.26836 584.08934"/>
          <polyline class="cls-2" points="205.32366 430.54665 589.9034 591.45429 685.45621 792.49543 775.38589 832.02345"/>
        </g>
        <g>
          <polygon class="cls-38" points="622.05371 993.09476 712.22353 879.10166 767.1072 669.42258 890.7526 546.69369 942.55286 455.98618 1152.20829 441.34718 1275.48516 360.60547 1440.00027 289.97389 1440.00027 993.09476 622.05371 993.09476"/>
          <polygon class="cls-21" points="942.55286 455.98618 995.33153 487.05738 1098.21118 497.77203 1217.88402 470.66923 1152.20829 441.34718 942.55286 455.98618"/>
          <polygon class="cls-21" points="890.7526 546.69369 965.23137 584.3243 1008.96609 640.15758 1058.09893 650.73202 1039.63801 729.84093 933.28227 729.84093 857.92694 684.22523 767.1072 669.42258 890.7526 546.69369"/>
          <polygon class="cls-21" points="712.22353 879.10166 750.82996 908.79271 895.83703 908.79271 712.22353 1015.31474 622.05371 993.09476 712.22353 879.10166"/>
          <polyline class="cls-3" points="627.88464 992.49218 726.95344 874.89311 781.83711 665.21403 905.48252 542.48515 957.28277 451.77763 1166.9382 437.13863 1268.35965 370.7114"/>
          <g>
            <path class="cls-43" d="M1150.43253,443.77433c1.0556,2.06023,4.11002,7.33866,10.53851,10.73465,4.80036,2.53591,9.27436,2.8558,11.6023,2.85605-5.9801,6.24421-14.72518,8.82384-22.75746,6.641-9.82319-2.6695-14.01437-11.22111-14.62099-12.51274,1.66491-.00193,4.21145-.21898,7.04275-1.35803,4.47006-1.79838,7.0772-4.85999,8.1949-6.36092Z"/>
            <path class="cls-24" d="M1067.51349,449.58689l.89546,16.6196-23.50512,1.26645s-11.09865-2.11729,4.69131-9.13916l-.53792-9.11311,18.45626,.36621Z"/>
            <path class="cls-24" d="M1129.62477,446.24034l.89546,16.6196-23.50512,1.26645s-11.09865-2.11729,4.69131-9.13916l-.53792-9.11311,18.45626,.36621Z"/>
            <path class="cls-43" d="M1135.359,449.30661l1.18271,19.70279-23.50511,1.26645s-11.09864-2.11727,4.6913-9.13916c-.00455-3.88515-.00905-7.77027-.0136-11.65542,5.88155-.05823,11.76314-.11643,17.64469-.17466Z"/>
            <path class="cls-43" d="M1073.52991,452.11127c.27738,6.66635,.55479,13.33267,.83217,19.99902l-23.50511,1.26645s-11.09868-2.1173,4.6913-9.13916c-.17885-3.63832-.35773-7.27663-.53658-10.91495,6.17275-.4038,12.34547-.80756,18.51822-1.21136Z"/>
            <path class="cls-43" d="M982.85337,460.86035c-3.86695,2.52427-7.79635,2.33515-9.22924,.49727-.22058-.28293-.91751-1.29181-.56299-3.34734,0-.00007,.33039-1.59256,4.7135-5.51559,0,0,8.35146-10.18038,13.64606-25.5601,4.63668-13.46858,26.11775-20.9783,37.0381-14.99891,3.83324,2.09886,5.70048,5.46713,6.92081,7.66844,0,.00004,6.57139,11.85375-1.30576,25.94243-1.01758,1.81999-2.05971,3.03557-3.32835,3.97575-2.61177,1.93556-5.42073,2.13849-8.50251,2.32125-6.14113,.36423-10.88322,.59108-14.46532,.7424-.39703,.07327-.79479,.14935-1.19341,.22824-8.51406,1.68538-16.41869,4.47445-23.73091,8.04616Z"/>
            <path class="cls-43" d="M1114.98229,450.88798s-16.92816,3.75116-41.38382,2.49573l.14605-5.5067s22.69107-18.51088,40.95664-2.20674l.28113,5.21771Z"/>
            <path class="cls-35" d="M1150.68647,444.32122s15.68271-43.91146-52.98013-63.72335c0,0-48.08052-8.35749-73.3575,29.42109,0,0,15.65483,3.87289,12.53901,25.65223,0,0-1.05618,11.80282-10.33045,15.3381l14.73912,4.9596s12.99286,11.22898,38.86812-6.6823c0,0,12.26718-10.75475,37.55583,3.02339,0,0,32.23472,3.26733,32.96601-7.98876Z"/>
            <path class="cls-43" d="M1024.34884,410.01896s-3.08922-12.66878-22.65699-13.43372c0,0-1.50661,6.7251,5.3608,15.98911,0,0,6.454-4.57444,17.2962-2.5554Z"/>
            <path class="cls-43" d="M1023.65915,413.64712s5.46964-12.80889,26.17522-11.10234c0,0-.58093,13.78507-14.13422,19.36344,0,0-4.03218-6.09861-12.041-8.2611Z"/>
            <path class="cls-29" d="M1035.47394,420.31533s7.84699-2.00491,12.70397-.68449,5.08911,11.97348,4.33718,13.24464c-1.66035-.07907-4.13588-.42173-6.80078-1.70204-5.37249-2.5811-7.79814-7.18742-8.55716-8.804,1.21024,2.76539,2.36817,5.98285,3.2589,9.6277,2.36796,9.68968,1.81561,18.17668,.88049,23.97174-.22763,1.3064-.67804,2.95796-1.60091,4.69796-2.36889,4.46633-6.27058,6.53633-7.90628,7.28571-.27934-3.23451-1.10579-7.66068-3.47813-12.33158-.79002-1.55542-1.64327-2.92503-2.48981-4.11724,.91016-.68109,2.08624-1.63903,3.34781-2.90099,.59617-.59631,2.22439-2.23863,3.48363-4.16404,.59683-.91257,2.02022-3.2793,2.91729-8.11693,1.1632-6.2728,.58885-12.10153-.09622-16.00645Z"/>
            <path class="cls-51" d="M973.04495,458.07734s4.75,3.73905,21.58963-16.81944c0,0,1.75197-1.74146,5.41543-4.11125,3.46673-2.24255,6.03705-3.45149,10.13341-5.33827,7.58155-3.49204,11.56226-5.01573,14.83697-7.65171,2.37852-1.91458,3.81603-3.62333,4.62385-5.8579,.72811-2.01395,.72425-3.84513,.62225-5.01104-.81249-.68861-2.09111-1.64998-3.82089-2.4684-5.64573-2.67116-11.18053-1.50112-13.98365-.89399-5.14066,1.11341-8.62545,3.36942-10.83226,4.8276-1.95784,1.29365-4.49128,2.9993-6.86727,6.1217-1.75102,2.30104-2.75892,4.50733-3.34172,6.05994-3.02634,7.92402-5.96986,13.76635-7.67205,16.69659-1.53141,2.63627-3.86883,6.03263-4.35141,6.70601-.41215,.57515-.69689,.85815-1.14533,1.52594-.10137,.15101-.22875,.34781-.45592,.56957-.11877,.11595-.19629,.17182-.66991,.54527-.16295,.12852-.33739,.26669-.40245,.31865-.00007,.00004-.42602,.34206-.93333,.82673-.78825,.75305-1.56951,1.49946-2.19074,2.65239-.15807,.29332-.36977,.73189-.5546,1.30159Z"/>
            <path class="cls-7" d="M1125.36773,392.51419c1.51761,4.57945,3.04622,11.38463,2.23993,19.48276-2.05662,20.65624-17.6286,32.88914-21.03158,35.43978l-2.09164-.62613c3.0689-3.74829,12.28668-15.98206,12.5512-33.94232,.19812-13.45187-4.72437-23.45914-7.2998-27.94388,2.65666,1.01444,5.50577,2.2325,8.48623,3.70044,2.59686,1.27898,4.97894,2.59277,7.14566,3.88936Z"/>
            <path class="cls-7" d="M1092.52124,445.32638c.37914-6.05151,.14684-13.9083-2.08335-22.68982-5.45954-21.49738-19.37287-34.67972-25.72889-39.98964,2.59515-.63936,5.4835-1.22414,8.63606-1.66978,3.20737-.45336,6.19279-.69267,8.90237-.79476,3.82314,4.71692,8.51639,11.65754,11.98752,20.86871,4.31895,11.46102,4.65943,20.90051,4.71261,22.93956,.23456,8.99262-1.40764,16.32375-2.87589,21.14443l-3.55042,.1913Z"/>
            <path class="cls-7" d="M1097.74647,380.94637c2.81637,4.83272,5.80235,11.26332,7.62113,19.17491,4.81511,20.94523-1.71405,38.50777-4.93047,45.76437l-4.36548-.75056c1.46868-4.83577,2.65659-10.64856,2.86769-17.25324,.75097-23.49366-11.37135-40.9323-16.69193-47.69947,2.37169-.18389,5.07583-.25503,8.04697-.09532,2.75137,.14792,5.24971,.46788,7.45208,.85931Z"/>
            <path class="cls-7" d="M1109.73583,384.92439c-2.06978-.85285-4.31943-1.68923-6.74282-2.46755-1.81662-.58347-3.56979-1.08254-5.24654-1.51048,2.81637,4.83272,5.80235,11.26332,7.62113,19.17491,4.81511,20.94523-1.71405,38.50777-4.93047,45.76437l4.04729,.92495c3.07-3.71165,8.24129-10.96017,10.88566-21.49499,1.1788-4.69615,2.81279-13.85924,.38141-24.90915-1.4911-6.77669-4.01812-12.02172-6.01567-15.48207Z"/>
            <ellipse class="cls-34" cx="1019.54118" cy="435.53435" rx="2.06333" ry="3.72067" transform="translate(-21.95589 55.48404) rotate(-3.08411)"/>
          </g>
        </g>
        <g>
          <g>
            <path class="cls-56" d="M141.19384,230.28707s55.69214-21.03275,48.0083-34.78351c-7.68385-13.75076-20.25612-2.30593-20.25612-2.30593,0,0,43.77762-38.93606,16.87727-58.40209-26.90034-19.46603-38.88919,13.74047-38.88919,13.74047,0,0,18.67451-44.43953,.53358-59.02795-18.14094-14.58842-33.45052,4.3057-33.45052,4.3057,0,0,6.59162-52.16486-42.58323-32.18717-49.17485,19.97769-16.66439,37.08384-16.66439,37.08384,0,0-15.82389-2.33053-14.09577,11.09501,1.72812,13.42554,19.28012,29.1816,19.28012,29.1816,0,0-25.92383-.39353-13.77895,13.55638,12.14488,13.94991,43.40834,32.85433,43.40834,32.85433,0,0-26.93628-14.00221-36.73807-4.00584s1.96868,21.03744,1.96868,21.03744c0,0-10.94562,1.09238-10.26837,6.37148,2.66976,20.81072,73.31579,26.86652,73.31579,26.86652l23.33255-5.38029Z"/>
            <path class="cls-14" d="M135.52626,228.54385s55.69214-21.03275,48.0083-34.78351c-7.68385-13.75076-20.25612-2.30593-20.25612-2.30593,0,0,43.77762-38.93606,16.87727-58.40209-26.90034-19.46603-38.88919,13.74047-38.88919,13.74047,0,0,18.67451-44.43953,.53358-59.02795-18.14094-14.58842-33.45052,4.3057-33.45052,4.3057,0,0,6.59162-52.16486-42.58323-32.18717-49.17485,19.97769-16.66439,37.08384-16.66439,37.08384,0,0-15.82389-2.33053-14.09577,11.09501,1.72812,13.42554,19.28012,29.1816,19.28012,29.1816,0,0-25.92383-.39353-13.77895,13.55638,12.14488,13.94991,43.40834,32.85433,43.40834,32.85433,0,0-26.93628-14.00221-36.73807-4.00584-9.80178,9.99638,1.96868,21.03744,1.96868,21.03744,0,0-10.94562,1.09238-10.26837,6.37148,2.66976,20.81072,73.31579,26.86652,73.31579,26.86652l23.33255-5.38029Z"/>
          </g>
          <path class="cls-50" d="M140.77674,271.72031s-46.57648-42.10402-29.88184-61.71051c16.69464-19.60649,29.10766,13.46196,29.10766,13.46196,0,0-15.91429-39.63919,1.42138-41.39501,17.33567-1.75582,22.57909,14.87596,22.57909,14.87596,0,0-20.39742-48.2182,7.25443-51.31998,27.65184-3.10177,23.62932,47.74031,23.62932,47.74031,0,0,20.61178-20.45488,21.97558,1.23692,1.3638,21.6918-35.14839,42.70328-35.14839,42.70328,0,0,25.91997-4.28133,20.7074,5.73135s-21.99255,12.31441-21.99255,12.31441c0,0,21.53915-9.10692,20.66987,1.51972-.86928,10.62663-28.9496,21.23671-28.9496,21.23671l-31.37235-6.39512Z"/>
          <path class="cls-50" d="M38.75497,206.51793s66.98639,8.82653,78.58018-5.52745c11.5938-14.35398-17.3907-8.86569-17.3907-8.86569,0,0,16.7466-10.97657,4.5087-13.9318-12.2379-2.95523-25.03938,1.6887-25.03938,1.6887,0,0,12.80148-8.56208,5.71639-16.73522-7.0851-8.17315-18.0348,0-18.0348,0,0,0-15.4584-19.99407-28.34039-14.92796-12.882,5.06611,0,32.50753,0,32.50753,0,0-25.76399-16.46485-31.56089-4.22176-5.7969,12.2431,31.56089,30.01364,31.56089,30.01364Z"/>
          <polygon class="cls-42" points=".00027 202.87082 108.57918 194.16529 195.98472 316.82452 244.25346 624.16171 312.0906 773.00663 540.38866 993.09476 .00027 993.09476 .00027 202.87082"/>
          <polygon class="cls-41" points="137.08665 330.48713 195.98472 316.82452 108.57918 194.16529 75.97245 239.31027 .00027 271.57946 .00027 366.4711 57.29221 381.55657 137.08665 330.48713"/>
          <polygon class="cls-41" points="244.25346 624.16171 197.41092 673.48124 120.93666 674.49395 64.2857 646.85331 .00027 654.5198 .00027 750.00997 57.29221 773.00663 197.41092 790.39159 251.98064 765.56119 312.0906 773.00663 244.25346 624.16171"/>
          <g>
            <polygon class="cls-19" points="50.58432 425.69145 34.9766 432.81569 37.41531 445.16429 47.65787 445.16429 59.8514 439.94465 61.80236 429.29871 50.58432 425.69145"/>
            <polygon class="cls-19" points="84.32252 426.42528 75.97245 432.81569 75.97245 439.94465 84.32252 441.11703 92.42567 434.27817 89.28021 429.29871 84.32252 426.42528"/>
            <polygon class="cls-19" points="64.84425 446.30966 54.17758 454.00848 56.99673 459.67911 64.84425 461.24852 68.80525 453.77909 74.86425 448.83409 64.84425 446.30966"/>
            <polygon class="cls-19" points="190.45365 550.08294 178.64306 559.64125 184.54836 570.74475 197.41092 568.53421 197.41092 555.54483 190.45365 550.08294"/>
            <polygon class="cls-19" points="159.23066 535.43462 151.74163 550.08294 159.23066 560.41384 167.49868 560.41384 171.64956 547.92423 167.49868 532.31412 159.23066 535.43462"/>
            <polygon class="cls-19" points="165.52579 358.74468 155.03353 367.30338 160.27966 372.17281 169.25913 376.83088 178.64306 367.30338 175.01878 358.74468 165.52579 358.74468"/>
            <polygon class="cls-19" points="24.02108 588.619 29.01739 588.619 32.01518 593.63002 34.9766 600.90613 28.01813 609.70824 17.52587 608.21704 17.52587 597.82393 24.02108 588.619"/>
            <polygon class="cls-19" points="260.32992 796.6117 247.13752 801.93742 242.91595 809.85287 251.98064 812.52264 263.4961 807.74208 270.19446 801.40973 260.32992 796.6117"/>
          </g>
          <polygon class="cls-27" points="400.26301 876.67899 303.2845 783.18778 303.04817 782.66825 235.04036 633.4495 234.97688 633.04423 186.81868 326.40653 100.80989 205.70829 0 213.79171 0 207.77276 103.722 199.45634 192.52571 324.07645 192.63606 324.77567 240.84114 631.70731 308.27083 779.66044 404.42708 872.35868 400.26301 876.67899"/>
        </g>
        <g>
          <g>
            <g>
              <path class="cls-54" d="M1241.97073,102.45011c17.60534-32.08232,49.01233-4.85886,49.01432-4.85889h0s-16.77593-36.59874,8.60836-44.09035c25.3843-7.49168,45.16117,22.24238,45.16117,22.24238,0,0-7.14991-10.32296,8.67755-11.75415,15.82746-1.43118,21.02779,20.56837,21.02779,20.56837,0,0,9.2447-22.43341,21.31001-15.54397,12.06534,6.88946,2.03359,32.77748,2.03359,32.77748,0,0,4.16785-7.01217,13.65181,2.00723,9.48398,9.01941-52.95934,145.53329-102.91671,129.8392-49.95734-15.69407-6.91575-34.36401-6.91575-34.36401,0,0-59.78753,15.38734-61.19873-20.96638-1.41122-36.35374,28.64468-33.33409,28.64468-33.33409-36.30552-13.68688-30.1949-36.8795-27.0981-42.52282Z"/>
              <path class="cls-17" d="M1235.97266,104.16397c17.60534-32.08232,49.01233-4.85886,49.01432-4.85889h0s-16.77593-36.59874,8.60836-44.09035c25.3843-7.49168,45.16117,22.24238,45.16117,22.24238,0,0-7.14991-10.32296,8.67755-11.75415,15.82746-1.43118,21.02779,20.56837,21.02779,20.56837,0,0,9.2447-22.43341,21.31001-15.54397,12.06534,6.88946,2.03359,32.77748,2.03359,32.77748,0,0,4.16785-7.01217,13.65181,2.00723,9.48398,9.01941-52.95934,145.53329-102.91671,129.8392-49.95734-15.69407-6.91575-34.36401-6.91575-34.36401,0,0-59.78753,15.38734-61.19873-20.96638-1.41122-36.35374,28.64468-33.33409,28.64468-33.33409-36.30552-13.68688-30.1949-36.8795-27.0981-42.52282Z"/>
            </g>
            <path class="cls-50" d="M1393.06587,54.93374s9.31995-15.18974,17.0496-9.60609c7.72992,5.58373-3.12298,26.61742-3.12298,26.61742,0,0,13.84593-14.05939,29.09407-.37102,15.2484,13.68833-16.70249,49.9586-50.25276,57.26972-33.55027,7.31111-80.16846-16.20536-73.26586-31.0027,6.90247-14.79732,27.39354-3.20328,27.39354-3.20328,0,0-29.28789-27.57303-11.61928-41.00954,17.66859-13.43664,30.56893,8.71474,30.56893,8.71474-2.07899-3.65279-8.34805-27.92333-4.42487-48.45168,1.93257-4.11521,6.51927-12.78046,12.51754-13.7862,12.07746-2.02504,18.94671,25.53664,26.06206,54.82864Z"/>
            <polygon class="cls-42" points="875.84952 993.09476 986.52676 834.38671 1063.57144 564.64422 1217.25687 451.22064 1285.23554 271.57946 1333.26908 144.64552 1440.00027 65.10953 1440.00027 993.09476 875.84952 993.09476"/>
            <polygon class="cls-41" points="1217.25687 451.22064 1279.759 479.80175 1362.63775 470.66923 1440 514.93474 1440 681.57231 1375.94074 699.46125 1339.19106 681.57231 1198.40234 625.73851 1118.76288 625.73851 1063.57144 564.64422 1217.25687 451.22064"/>
            <polygon class="cls-41" points="1440.00027 65.10953 1333.26908 144.64552 1370.61183 178.29947 1440.00005 140.44547 1440.00027 65.10953"/>
            <polygon class="cls-19" points="1406.84209 203.24256 1416.397 203.10903 1417.62689 213.52313 1413.1698 222.99756 1403.8298 222.99756 1401.27073 215.0856 1406.84209 203.24256"/>
            <polygon class="cls-19" points="1292.84293 404.5798 1278.18428 409.8571 1274.51962 419.18071 1283.68127 421.90822 1292.84293 427.70194 1304.36043 421.90822 1304.36043 412.94208 1292.84293 404.5798"/>
            <polygon class="cls-19" points="1404.92017 448.64573 1398.49815 454.68589 1404.92017 459.89876 1414.34358 454.68589 1414.34358 448.64573 1404.92017 448.64573"/>
            <polygon class="cls-19" points="1271.37848 426.80678 1261.95507 429.42439 1257.02095 435.46455 1264.19972 440.67742 1271.37848 440.67742 1281.84894 435.0509 1271.37848 426.80678"/>
            <polygon class="cls-19" points="1300.32331 377.35289 1293.02013 381.09165 1289.44003 387.9425 1297.19569 392.49589 1304.23429 390.30433 1306.9387 384.50134 1300.32331 377.35289"/>
            <polygon class="cls-19" points="1348.10374 752.82026 1339.19106 759.88162 1345.69672 768.43256 1355.86605 766.90726 1362.63775 759.88162 1356.87621 752.82026 1348.10374 752.82026"/>
            <polygon class="cls-19" points="1160.12875 652.35828 1150.92995 658.91077 1146.64193 667.09569 1158.31686 672.19023 1165.176 665.114 1168.06143 655.84089 1160.12875 652.35828"/>
            <polygon class="cls-19" points="1070.26748 769.49377 1052.88384 775.40686 1045.93038 787.24152 1058.09893 795.01155 1075.38252 795.01155 1080.85503 782.25266 1080.85503 772.89128 1070.26748 769.49377"/>
          </g>
          <polygon class="cls-27" points="1003.26204 836.47001 997.49251 834.82157 1074.8177 564.09696 1075.63997 563.48954 1228.6136 450.5911 1344.62434 144.02274 1440.00374 72.94597 1439.99726 80.43353 1349.61458 147.78641 1233.59993 454.36845 1080.02473 567.71024 1003.26204 836.47001"/>
        </g>
      </g>
      <g>
        <g>
          <g>
            <g>
              <path class="cls-46" d="M1349.77189,623.81235c-23.54003,10.66424-27.87317,40.4532-28.35532,44.15402l2.84435,22.34738c8.93603-1.35813,36.76729-6.7736,51.49071-30.09224,1.05035-1.66352,15.52384-25.10286,6.30811-35.82641-6.86673-7.99024-23.24191-4.68072-32.28785-.58276Z"/>
              <path class="cls-46" d="M1138.33511,719.87763c-9.29645,13.29482-4.83558,32.35882,1.78935,43.96701,2.55823,4.4825,10.92752,19.14712,24.92316,21.34436,10.37606,1.62896,17.58876-4.57683,32.08059-1.02239,4.05497,.99461,7.22392,2.39616,9.22507,3.39661-1.34469-9.73945-2.68936-19.47866-4.03405-29.21811-1.44001-.56408-3.57136-1.53954-5.83007-3.19162-12.5908-9.20876-7.31187-23.4753-17.81373-35.33004-6.53252-7.3741-17.94019-12.42559-27.68703-9.6596-7.31186,2.0749-11.38104,7.89429-12.6533,9.71376Z"/>
              <path class="cls-46" d="M1269.68209,726.31993c2.45786-.7051,5.83434-2.11342,8.38934-5.15281,3.46056-4.11665,5.15671-10.91897,1.50672-24.35457-6.47201-23.82318-18.47438-26.98631-25.43689-45.47456-.64825-1.72142-12.54628-34.71576,5.94589-54.21917,11.64677-12.28363,33.21247-16.96319,47.02321-8.50156,11.6067,7.11121,13.44585,20.87508,16.62208,47.87166,4.39294,37.33793,7.11194,60.44854-6.75028,84.72419-12.56474,22.0037-32.27536,33.62263-45.17011,39.4133l-2.12996-34.30648Z"/>
              <path class="cls-46" d="M1221.82148,854.38584s-54.75665-148.03321,3.18574-167.91827c57.9424-19.88506,54.17155,97.21584,31.01653,164.23585,0,0-17.47497,8.28048-34.20227,3.68242Z"/>
              <line class="cls-10" x1="1286.52701" y1="584.54435" x2="1287.93287" y2="751.76029"/>
              <line class="cls-10" x1="1307.11036" y1="588.61726" x2="1308.06054" y2="733.96703"/>
              <line class="cls-10" x1="1264.72449" y1="593.00368" x2="1265.36152" y2="668.7727"/>
              <line class="cls-10" x1="1333.24672" y1="638.90842" x2="1333.66287" y2="688.40582"/>
              <line class="cls-10" x1="1354.42623" y1="622.54651" x2="1354.90112" y2="679.0297"/>
              <line class="cls-10" x1="1217.88402" y1="690.31375" x2="1217.88402" y2="840.95388"/>
              <line class="cls-10" x1="1237.37435" y1="684.22925" x2="1237.33014" y2="855.78085"/>
              <line class="cls-10" x1="1256.84091" y1="695.02877" x2="1256.79949" y2="855.78494"/>
              <line class="cls-10" x1="1144.51773" y1="714.06011" x2="1144.5034" y2="769.66128"/>
              <line class="cls-10" x1="1161.94062" y1="709.9787" x2="1161.92162" y2="783.72468"/>
              <line class="cls-10" x1="1179.35572" y1="722.10198" x2="1179.33984" y2="783.72917"/>
              <line class="cls-10" x1="1273.89112" y1="724.06161" x2="1273.88194" y2="759.65978"/>
              <line class="cls-10" x1="1195.74565" y1="755.16921" x2="1195.57867" y2="783.81832"/>
              <path class="cls-32" d="M1185.69536,862.33881c3.54952,.05533,9.27557-.18445,15.92772-2.11739,7.82719-2.27452,9.32876-4.68236,18.18036-7.38531,6.94461-2.12066,12.63951-2.65952,17.26842-3.09776,3.66589-.34695,9.42541-.86479,16.96316-.23744,2.8351,.23604,10.4107,1.00745,19.85432,3.9796,5.98241,1.88275,6.50989,2.69595,11.17051,4.08746,7.39439,2.20775,14.25796,2.60629,19.94684,2.32705"/>
              <polygon class="cls-33" points="1237.35224 734.99751 1221.40409 726.28529 1237.2329 717.51463 1237.35224 734.99751"/>
              <polygon class="cls-33" points="1307.58545 690.31375 1291.63729 681.60153 1307.46611 672.83087 1307.58545 690.31375"/>
              <polygon class="cls-33" points="1163.10403 761.65702 1147.15588 752.9448 1162.98469 744.17414 1163.10403 761.65702"/>
              <polygon class="cls-33" points="1264.77663 640.15758 1280.72479 631.44536 1264.89598 622.6747 1264.77663 640.15758"/>
              <polygon class="cls-33" points="1354.66368 659.47346 1370.61183 650.76124 1354.78302 641.99059 1354.66368 659.47346"/>
              <polygon class="cls-33" points="1217.03314 822.38347 1232.9813 813.67125 1217.15248 804.90059 1217.03314 822.38347"/>
            </g>
            <g>
              <g>
                <path class="cls-8" d="M108.46604,617.22842c-1.57774,1.47358-4.11933,3.54331-7.66027,5.21963-2.90656,1.37595-12.09007,5.72361-20.95444,1.4682-5.78915-2.77912-8.6236-7.87465-9.75694-10.31633,8.01583-2.75647,14.83135-3.57843,19.49901-3.81266,12.13883-.6091,15.48997,2.46911,16.51422,3.55374,1.28739,1.36338,1.97582,2.83597,2.35842,3.88743Z"/>
                <path class="cls-8" d="M108.87889,616.03927c-1.87405,1.04606-5.13287,2.51203-9.28898,2.56915-8.78166,.12073-14.7341-6.1509-16.89114-8.39852-3.92094-4.0856-5.79876-8.51428-6.72632-11.4664,4.38258-.95747,11.89658-1.86338,20.02602,1.11432,1.915,.70145,3.61827,1.52831,5.11478,2.38961l.0011,.00065c2.11353,1.2249,3.17032,1.83727,4.16402,2.95447,1.71033,1.92299,2.19162,4.20017,2.94762,7.36715,.34148,1.43043,.53762,2.63547,.6529,3.46956Z"/>
                <path class="cls-8" d="M108.5418,616.94129c-2.05401-.31995-5.31686-1.08869-8.70512-3.1853-8.06785-4.99225-10.36574-13.50276-11.05063-16.03945-.68384-2.53287-1.54819-7.07562-.6169-12.84556,8.99662,3.37485,15.21552,7.79987,17.78674,10.80084,1.82265,2.12735,3.2725,4.60151,3.2726,4.60172,1.23504,2.10766,1.85248,3.16146,2.16627,4.62336,.59999,2.79569-.18925,5.19404-1.06739,7.86274-.59508,1.80827-1.27968,3.2319-1.78558,4.18165Z"/>
                <path class="cls-8" d="M108.34881,617.27245c-1.57277-1.90452-3.58192-4.7307-5.23312-8.49313-2.49034-5.67439-2.86967-10.52286-2.9551-12.03044-.44762-7.89777,2.07136-14.07092,3.63203-17.19634,1.93566,1.37751,9.68611,7.22198,11.3925,17.41373,.39661,2.36868,1.25534,7.97941-1.71078,13.86484-1.5945,3.16376-3.71241,5.25244-5.12554,6.44133Z"/>
              </g>
              <path class="cls-46" d="M210.32194,757.68076c-2.36094,5.09865-4.6764,10.09922-9.43473,14.10463-13.04847,10.9838-37.2064,8.37325-60.50073-5.13878,.62453-5.86099,1.24905-11.72178,1.87359-17.58277,4.28461,5.10766,10.32209,10.80811,15.9229,9.59406,4.47389-.96977,6.01927-5.77683,12.75732-18.81791,12.11585-23.44949,16.78766-26.61946,19.88878-28.1038,5.19077-2.48462,13.4942-3.84283,19.16819,0,11.14439,7.54784,6.94809,31.6405,.32468,45.94457Z"/>
              <path class="cls-46" d="M45.47356,712.31404c2.29807,8.52457,5.66974,21.03142,17.2057,27.25505,12.32097,6.64708,29.27129,3.59977,42.8336-7.52245l-.78782-15.19377c-.75045,.66938-6.32606,5.49958-12.35453,3.83566-.99102-.27357-4.53183-1.42291-8.27239-8.31367-3.8158-7.02938-3.5982-12.22017-4.80283-20.5621-1.88014-13.01978-3.39783-23.52955-9.91646-26.85248-5.19914-2.65027-12.30026-.07658-16.4444,2.89292-15.97239,11.44534-7.85809,42.98735-7.46087,44.46084Z"/>
              <path class="cls-46" d="M185.32852,625.22418c5.87376,3.38559,7.43325,16.11767,.53487,30.4586-1.70787,2.87613-4.42118,6.27093-8.61741,8.61733-9.13416,5.10745-21.65191,3.2099-32.06629-4.54415-.19993-4.79478-.39984-9.58935-.59977-14.38413,7.93671,4.23577,12.15174,3.66714,14.54529,2.29439,5.67844-3.25679,2.80065-12.01172,9.54702-18.46203,4.53992-4.34061,12.26187-6.51296,16.65628-3.98002Z"/>
              <path class="cls-46" d="M110.64686,823.42753s-35.64005-222.26429,9.72001-224.85629c45.36006-2.592,31.63736,120.09818,19.55356,224.85629h-29.27357Z"/>
              <line class="cls-4" x1="109.90594" y1="605.93283" x2="111.7351" y2="823.49664"/>
              <line class="cls-4" x1="125.62711" y1="598.8708" x2="125.56923" y2="823.49664"/>
              <line class="cls-4" x1="55.3119" y1="666.38506" x2="55.29485" y2="732.53745"/>
              <line class="cls-4" x1="71.13827" y1="667.15135" x2="71.11896" y2="742.08122"/>
              <line class="cls-4" x1="171.87097" y1="739.46286" x2="171.86424" y2="777.9924"/>
              <line class="cls-4" x1="190.49954" y1="712.40308" x2="190.40777" y2="778.38498"/>
              <line class="cls-4" x1="208.30722" y1="711.30302" x2="208.29454" y2="760.00654"/>
              <line class="cls-4" x1="171.87883" y1="627.49859" x2="171.86892" y2="666.20803"/>
              <line class="cls-4" x1="185.32279" y1="625.95758" x2="185.07378" y2="655.65818"/>
              <line class="cls-4" x1="86.95081" y1="717.5601" x2="86.94449" y2="742.0809"/>
              <line class="cls-4" x1="153.17433" y1="758.5719" x2="153.17072" y2="772.55048"/>
              <line class="cls-4" x1="159.12522" y1="647.66623" x2="159.33611" y2="666.20985"/>
              <line class="cls-4" x1="139.83262" y1="610.58016" x2="139.40336" y2="823.49664"/>
              <path class="cls-32" d="M74.0036,832.88441c3.11303,.04853,8.13494-.16176,13.96907-1.85701,6.86467-1.99482,8.18159-4.10656,15.9447-6.47713,6.09062-1.85988,11.08521-2.33248,15.1449-2.71682,3.21509-.30428,8.26635-.75845,14.87718-.20825,2.48646,.20702,9.13049,.88356,17.41281,3.49022,5.24675,1.65123,5.70936,2.36442,9.79686,3.58482,6.48509,1.93626,12.50464,2.28579,17.49395,2.04089"/>
              <polygon class="cls-33" points="71.2792 724.70489 57.29221 717.06403 71.17453 709.37191 71.2792 724.70489"/>
              <polygon class="cls-33" points="126.05577 654.5198 112.06878 646.87894 125.9511 639.18682 126.05577 654.5198"/>
              <polygon class="cls-33" points="126.0133 796.6117 140.00029 788.97083 126.11797 781.27871 126.0133 796.6117"/>
              <polygon class="cls-33" points="190.41743 745.17392 204.40442 737.53305 190.52209 729.84093 190.41743 745.17392"/>
              <polygon class="cls-33" points="125.45588 722.19939 139.44287 714.55852 125.56055 706.8664 125.45588 722.19939"/>
              <polygon class="cls-33" points="171.64956 654.5198 185.63655 646.87894 171.75423 639.18682 171.64956 654.5198"/>
            </g>
            <g>
              <path class="cls-55" d="M894.3452,815.82939c6.13764-6.67388,15.55348-7.26033,17.18988-7.36223,14.25412-.88777,28.61303,9.12394,35.83137,25.58828,0,0,5.79923-50.53589,36.45212-38.10904,30.65296,12.42688,38.93753,54.6782,38.93753,54.6782,0,0,13.25531-27.3391,33.13827-9.11302,19.88302,18.22605,4.14232,33.1383,4.14232,33.1383,0,0,33.96675-7.45614,33.13827,9.94148-.82842,17.39759-15.74064,38.10904-15.74064,38.10904,0,0,20.71138,5.7992,11.18415,17.39759-9.52724,11.59843-26.09643,0-26.09643,0,0,0,12.42688,25.68219-81.18882,24.02527-93.61566-1.65691-67.10505-23.19682-67.10505-23.19682,0,0-37.28058,9.11306-35.62367-6.62765,1.65691-15.74068,13.25534-16.56913,13.25534-16.56913,0,0-24.96102-16.80181-13.30898-38.63961,11.65207-21.83779,24.90737-7.75403,24.90737-7.75403-16.96666-21.05757-19.16892-44.57217-9.11302-55.50663Z"/>
              <path class="cls-15" d="M890.06131,809.09093c6.13764-6.67388,15.55348-7.26033,17.18988-7.36223,14.25412-.88777,28.61303,9.12394,35.83137,25.58828,0,0,5.79923-50.53589,36.45212-38.10904,30.65296,12.42688,38.93753,54.6782,38.93753,54.6782,0,0,13.25531-27.3391,33.13827-9.11302,19.88302,18.22605,4.14232,33.1383,4.14232,33.1383,0,0,33.96675-7.45614,33.13827,9.94148-.82842,17.39759-15.74064,38.10904-15.74064,38.10904,0,0,20.71138,5.7992,11.18415,17.39759-9.52724,11.59843-26.09643,0-26.09643,0,0,0,12.42688,25.68219-81.18882,24.02527-93.61566-1.65691-67.10505-23.19682-67.10505-23.19682,0,0-37.28058,9.11306-35.62367-6.62765,1.65691-15.74068,13.25534-16.56913,13.25534-16.56913,0,0-24.96102-16.80181-13.30898-38.63961,11.65207-21.83779,24.90737-7.75403,24.90737-7.75403-16.96666-21.05757-19.16892-44.57217-9.11302-55.50663Z"/>
            </g>
            <path class="cls-50" d="M834.25532,997.43646s-64.04782-43.30983-47.07129-70.09354c16.97653-26.78371,37.81136,11.39732,37.81136,11.39732,0,0-26.23645-45.5893-5.40162-50.71809,20.83483-5.1288,30.09476,14.24666,30.09476,14.24666,0,0-33.1814-55.27702,0-63.82502,33.1814-8.54799,37.0397,54.13729,37.0397,54.13729,0,0,21.60649-28.49331,27.00812-2.27946,5.40162,26.21385-35.49638,58.12635-35.49638,58.12635,0,0,30.86642-9.68773,26.23645,3.4192-4.62996,13.10692-24.69313,18.80559-24.69313,18.80559,0,0,24.69313-14.81652,25.46479-1.7096,.77166,13.10692-31.63808,30.88367-31.63808,30.88367l-39.35468-2.39036Z"/>
            <g>
              <path class="cls-59" d="M403.62992,777.35714c35.08754,.80485,25.79789,39.56858,25.7988,39.57027h0s23.73587-30.45439,41.33152-12.16007c17.59571,18.2943,1.02897,48.26887,1.02897,48.26887,0,0,5.62613-10.64805,13.83964,2.19069,8.21351,12.83874-8.21264,26.98824-8.21264,26.98824,0,0,23.1798-2.04658,22.64855,11.26761-.53125,13.31421-26.99925,16.21777-26.99925,16.21777,0,0,7.81039,.44818,4.32537,12.50668-3.48503,12.05852-147.27525,19.24691-155.9975-30.20997-8.72226-49.45685,26.19179-21.07435,26.19179-21.07435,0,0-39.52144-44.08638-9.20325-61.35502,30.31819-17.26867,41.0321,9.64756,41.0321,9.64756-4.39684-36.95018,18.04396-41.99983,24.21589-41.85826Z"/>
              <path class="cls-12" d="M399.52019,773.00946c35.08754,.80485,25.79789,39.56858,25.7988,39.57027h0s23.73587-30.45439,41.33152-12.16007c17.59571,18.2943,1.02897,48.26887,1.02897,48.26887,0,0,5.62613-10.64805,13.83964,2.19069,8.21351,12.83874-8.21264,26.98824-8.21264,26.98824,0,0,23.1798-2.04658,22.64855,11.26761-.53125,13.31421-26.99925,16.21777-26.99925,16.21777,0,0,7.81039,.44818,4.32537,12.50668-3.48503,12.05852-147.27525,19.24691-155.9975-30.20997-8.72226-49.45685,26.19179-21.07435,26.19179-21.07435,0,0-39.52144-44.08638-9.20325-61.35502,30.31819-17.26867,41.0321,9.64756,41.0321,9.64756-4.39684-36.95018,18.04396-41.99983,24.21589-41.85826Z"/>
            </g>
            <path class="cls-50" d="M528.04,872.97706s11.22792-13.0009,17.7283-6.50051c6.50063,6.50051-7.09142,24.81997-7.09142,24.81997,0,0,15.36491-11.22804,27.77465,4.13662,12.40999,15.36466-23.6379,44.91216-56.73112,46.68502-33.09321,1.77286-73.86863-27.77465-65.00436-40.77554,8.86415-13.0009,26.59258,1.18194,26.59258,1.18194,0,0-23.6379-30.72945-4.72753-40.77554,18.91037-10.04622,27.77465,13.0009,27.77465,13.0009-1.41572-3.79304-3.63481-27.83136,3.2773-46.73974,2.47751-3.61361,8.18719-11.14285,14.05714-11.17332,11.81909-.06136,14.10101,27.19803,16.3498,56.14021Z"/>
          </g>
          <g>
            <polygon class="cls-37" points=".00027 841.293 105.91572 812.52264 251.98064 841.293 389.19314 903.25993 540.38866 930.26398 696.68177 987.90104 856.96415 934.33143 1119.51772 891.08786 1267.79574 812.52264 1393.94271 790.39159 1440.00027 819.16195 1440.00027 1309.7818 .00027 1309.7818 .00027 841.293"/>
            <polygon class="cls-52" points="105.91572 812.52264 251.98064 841.293 178.64306 872.35159 126.32334 918.7348 25.31353 918.7348 0 926.67889 0 869.60076 55.30338 855.77608 105.91572 812.52264"/>
            <polygon class="cls-52" points="389.19314 903.25993 338.44851 952.29519 251.3995 952.29519 178.64307 976.50421 25.31353 1015.22536 0 1015.22536 0 1098.01315 150.74443 1054.31947 251.98064 1081.90331 389.19314 1046.6818 443.48455 1007.32786 526.61271 982.18275 540.38866 930.26398 389.19314 903.25993"/>
            <polygon class="cls-52" points="1119.51772 891.08786 1229.37817 958.97313 1362.63775 998.42344 1440.00027 998.42344 1440.00027 908.79271 1370.61183 898.95095 1326.40497 854.19044 1267.79574 812.52264 1119.51772 891.08786"/>
            <polygon class="cls-52" points="1393.94271 790.39159 1403.46735 833.0303 1440.00027 849.20644 1440.00027 819.16195 1393.94271 790.39159"/>
            <polygon class="cls-52" points="696.68177 987.90104 739.32493 1063.11821 720.00027 1102.20925 726.41211 1179.82546 641.66891 1234.1871 553.734 1309.7818 941.93515 1309.7818 1095.41498 1240.63629 1147.15588 1165.84679 1185.69536 1147.25041 1179.34778 1121.81691 1119.51772 1089.38601 1027.88746 1067.76456 955.48936 1015.22536 879.47143 987.90104 856.96415 934.33143 696.68177 987.90104"/>
            <polygon class="cls-40" points="698.4095 983.25028 697.42024 982.88505 541.3763 925.34013 390.07551 898.31766 389.73567 898.16434 252.83821 836.34013 107.8011 807.77177 0 837.05487 0 830.83693 107.58333 801.61356 254.6761 830.5872 254.99153 830.7288 391.86458 892.54227 542.95442 919.52763 698.50715 976.89091 858.01692 923.58036 858.25325 923.5413 1120.32356 880.37723 1268.58723 801.81962 1396.3343 779.40848 1440.00374 806.6873 1440.00027 813.75925 1395.10579 785.71513 1270.55794 807.56571 1122.26594 886.13895 1121.78157 886.21806 859.46419 929.42216 698.4095 983.25028"/>
          </g>
        </g>
        <g>
          <g>
            <g>
              <path class="cls-46" d="M537.24723,1138.31152c-12.21691,2.25207-18.43642-.42279-21.86311-3.32571-9.92522-8.40773-1.87993-23.35233-12.58259-39.89371-4.46167-6.89581-13.97486-16.84071-23.2346-15.43571-12.55379,1.9048-18.34913,23.71658-19.33504,35.74553-.30686,3.74405-1.62764,24.59526,13.71806,41.61204,5.17059,5.73371,17.04505,18.90122,34.25355,16.89544,12.85025-1.49771,24.08082-10.92095,29.53117-24.22423-.1625-3.79115-.32494-7.58251-.48744-11.37366Z"/>
              <path class="cls-46" d="M653.86152,1118.22163c-2.44597-5.28228-4.84482-10.46294-9.77452-14.6126-13.51841-11.37938-38.54639-8.67481-62.67966,5.32386,.64703,6.07207,1.29404,12.14393,1.94106,18.21601,4.43892-5.29161,10.69384-11.19737,16.49636-9.93959,4.63501,1.00469,6.23606,5.98488,13.21678,19.49563,12.5522,24.29402,17.39227,27.57816,20.60507,29.11596,5.37771,2.5741,13.98019,3.98122,19.85853,0,11.54575-7.81968,7.19832-32.78003,.33637-47.59926Z"/>
              <path class="cls-46" d="M547.3232,1256.92385s-36.92362-230.26912,10.07008-232.95447c46.9937-2.68535,32.77678,124.4235,20.25778,232.95447h-30.32785Z"/>
              <line class="cls-9" x1="479.56693" y1="1079.65639" x2="480.36298" y2="1162.31016"/>
              <line class="cls-9" x1="498.09056" y1="1090.24006" x2="498.91649" y2="1173.73073"/>
              <line class="cls-9" x1="518.20485" y1="1136.87512" x2="518.54111" y2="1170.86624"/>
              <line class="cls-9" x1="606.02611" y1="1099.28102" x2="606.24939" y2="1121.85182"/>
              <line class="cls-9" x1="624.44272" y1="1096.59118" x2="625.03047" y2="1156.00454"/>
              <line class="cls-9" x1="644.17497" y1="1104.78901" x2="644.80332" y2="1168.30684"/>
              <line class="cls-9" x1="546.21366" y1="1031.3842" x2="548.10871" y2="1256.78356"/>
              <line class="cls-9" x1="562.50104" y1="1024.06784" x2="562.44107" y2="1256.78356"/>
              <line class="cls-9" x1="577.21815" y1="1036.19891" x2="576.77344" y2="1256.78356"/>
              <path class="cls-32" d="M507.51188,1262.88685c3.22515,.05028,8.42792-.16759,14.47217-1.92389,7.1119-2.06666,8.47625-4.25446,16.51894-6.7104,6.30997-1.92686,11.48445-2.41648,15.69034-2.81467,3.33088-.31524,8.56406-.78577,15.41298-.21575,2.57601,.21447,9.45932,.91538,18.03993,3.61592,5.43571,1.71069,5.91498,2.44958,10.14969,3.71393,6.71865,2.00599,12.955,2.36812,18.12399,2.1144"/>
              <polygon class="cls-33" points="479.96496 1128.92588 465.47423 1121.00982 479.85652 1113.04068 479.96496 1128.92588"/>
              <polygon class="cls-33" points="576.96179 1197.20505 562.47106 1189.28899 576.85335 1181.31985 576.96179 1197.20505"/>
              <polygon class="cls-33" points="518.37298 1162.37643 503.88225 1154.46038 518.26454 1146.49123 518.37298 1162.37643"/>
              <polygon class="cls-33" points="561.65192 1136.86848 547.16119 1128.95242 561.54348 1120.98328 561.65192 1136.86848"/>
              <polygon class="cls-33" points="547.16119 1073.27366 561.65192 1065.35761 547.26962 1057.38846 547.16119 1073.27366"/>
              <polygon class="cls-33" points="606.13775 1118.50902 620.62848 1110.59297 606.24619 1102.62382 606.13775 1118.50902"/>
              <polygon class="cls-33" points="644.48915 1154.43383 658.97988 1146.51778 644.59758 1138.54863 644.48915 1154.43383"/>
            </g>
            <g>
              <path class="cls-57" d="M1232.01109,904.58907c-35.7384,7.87337-18.44511,45.66832-18.44569,45.67022h0s-30.40454-26.39059-44.73193-4.13723c-14.32746,22.25335,8.64552,49.59345,8.64552,49.59345,0,0-7.89586-9.76423-13.71999,5.02213-5.82413,14.78635,13.82538,25.96314,13.82538,25.96314,0,0-24.12782,2.56338-20.90914,16.07916,3.21869,13.51581,30.88303,11.16858,30.88303,11.16858,0,0-7.90122,2.02785-1.91267,13.66538,5.98857,11.63756,154.55308-9.89831,153.54031-62.25304-1.01275-52.3547-31.03268-16.29987-31.03268-16.29987,0,0,31.57874-53.04811-2.91124-64.62506-34.48999-11.57698-40.04393,18.11526-40.04393,18.11526-2.92547-38.68931-26.90055-39.34705-33.18697-37.96211Z"/>
              <path class="cls-17" d="M1235.34246,899.31497c-35.7384,7.87337-18.44511,45.66832-18.44569,45.67022h0s-30.40454-26.39059-44.73193-4.13723c-14.32746,22.25335,8.64552,49.59345,8.64552,49.59345,0,0-7.89586-9.76423-13.71999,5.02213-5.82413,14.78635,13.82538,25.96314,13.82538,25.96314,0,0-24.12782,2.56338-20.90914,16.07916,3.21869,13.51581,30.88303,11.16858,30.88303,11.16858,0,0-7.90122,2.02785-1.91267,13.66538,5.98857,11.63756,154.55308-9.89831,153.54031-62.25304-1.01275-52.3547-31.03268-16.29987-31.03268-16.29987,0,0,31.57874-53.04811-2.91124-64.62506-34.48999-11.57698-40.04393,18.11526-40.04393,18.11526-2.92547-38.68931-26.90055-39.34705-33.18697-37.96211Z"/>
            </g>
            <path class="cls-50" d="M1376.71176,987.07099s-93.58669,49.32034-118.55553,33.85417c-24.96884-15.46617,20.66574-22.74008,20.66574-22.74008,0,0-30.67751-7.59407-14.32149-18.63376,16.35602-11.0397,37.73733-10.89728,37.73733-10.89728,0,0-23.54522-6.06402-17.64492-22.22197,5.90031-16.15795,26.50884-9.68707,26.50884-9.68707,0,0,11.67951-38.52082,33.41231-37.7836s17.95332,49.12957,17.95332,49.12957c0,0,28.77654-38.72248,44.05888-23.33284,15.28234,15.38964-29.81449,62.31286-29.81449,62.31286Z"/>
            <g>
              <path class="cls-58" d="M144.86736,882.88601c-36.64593-4.94218-33.36409,36.92697-33.36531,36.92857h0s-19.68385-35.60179-41.00802-19.46248c-21.32423,16.13928-9.0218,50.06082-9.0218,50.06082,0,0-4.10077-12.0075-14.76289,0-10.66212,12.0075,4.10077,29.43774,4.10077,29.43774,0,0-23.78462-5.948-25.42494,7.99473-1.64032,13.94276,25.42494,21.3242,25.42494,21.3242,0,0-8.2016-.82016-6.56128,12.3024,1.64032,13.1226,150.0895,44.28872,167.3129-5.74112,17.2234-50.02981-23.78468-26.24513-23.78468-26.24513,0,0,48.38949-39.36776,19.68385-62.33225-28.70564-22.96452-44.28866,3.28064-44.28866,3.28064,10.66207-37.72742-11.85883-46.6788-18.30489-47.54813Z"/>
              <path class="cls-18" d="M149.86026,879.03864c-36.64593-4.94218-33.36409,36.92697-33.36531,36.92857h0s-19.68385-35.60179-41.00802-19.46248c-21.32423,16.13928-9.0218,50.06082-9.0218,50.06082,0,0-4.10077-12.0075-14.76289,0-10.66212,12.0075,4.10077,29.43774,4.10077,29.43774,0,0-23.78462-5.948-25.42494,7.99473-1.64032,13.94276,25.42494,21.3242,25.42494,21.3242,0,0-8.2016-.82016-6.56128,12.3024,1.64032,13.1226,150.0895,44.28872,167.3129-5.74112,17.2234-50.02981-23.78468-26.24513-23.78468-26.24513,0,0,48.38949-39.36776,19.68385-62.33225-28.70564-22.96452-44.28866,3.28064-44.28866,3.28064,10.66207-37.72742-11.85883-46.6788-18.30489-47.54813Z"/>
            </g>
            <path class="cls-50" d="M262.73174,1021.13884s-92.25093,16.77258-108.21743-10.50351c-15.96651-27.27609,23.94976-16.847,23.94976-16.847,0,0-23.06273-20.85819-6.2092-26.47385,16.85353-5.61567,34.48322,3.20895,34.48322,3.20895,0,0-17.62968-16.27005-7.87237-31.80105s24.83679,0,24.83679,0c0,0,21.28868-37.99366,39.02924-28.3668,17.74056,9.62686,0,61.77232,0,61.77232,0,0,35.48113-31.28728,43.46438-8.02238,7.98325,23.2649-43.46438,57.03331-43.46438,57.03331Z"/>
            <g>
              <path class="cls-53" d="M875.57386,1269.6302s60.58465-21.41295,52.44216-34.83935c-8.14249-13.4264-21.90625-2.00509-21.90625-2.00509,0,0,47.91454-38.86913,19.03594-57.6678-28.87859-18.79867-42.29328,14.02141-42.29328,14.02141,0,0,20.80083-43.95657,1.3448-58.07108-19.45603-14.11451-36.28092,4.67003-36.28092,4.67003,0,0,7.81613-51.39877-45.69696-31.10833-53.51309,20.29044-18.52841,36.69486-18.52841,36.69486,0,0-17.10607-2.08687-15.40906,11.097,1.69701,13.18387,20.50009,28.45462,20.50009,28.45462,0,0-28.06889-.05027-15.09794,13.51407,12.97095,13.56434,46.58183,31.75387,46.58183,31.75387,0,0-28.9885-13.4236-39.73315-3.46308-10.74465,9.96051,1.85862,20.66836,1.85862,20.66836,0,0-11.86766,1.21676-11.20284,6.40087,2.62079,20.43624,79.04767,25.47524,79.04767,25.47524l25.33771-5.59561Z"/>
              <path class="cls-13" d="M869.45884,1267.98908s60.58465-21.41295,52.44216-34.83935c-8.14249-13.4264-21.90625-2.00509-21.90625-2.00509,0,0,47.91454-38.86913,19.03594-57.6678-28.87859-18.79867-42.29328,14.02141-42.29328,14.02141,0,0,20.80083-43.95657,1.3448-58.07108-19.45603-14.11451-36.28092,4.67003-36.28092,4.67003,0,0,7.81613-51.39877-45.69696-31.10833-53.51309,20.29044-18.52841,36.69486-18.52841,36.69486,0,0-17.10607-2.08687-15.40906,11.097,1.69701,13.18387,20.50009,28.45462,20.50009,28.45462,0,0-28.06889-.05027-15.09794,13.51407,12.97095,13.56434,46.58183,31.75387,46.58183,31.75387,0,0-28.9885-13.4236-39.73315-3.46308-10.74465,9.96051,1.85862,20.66836,1.85862,20.66836,0,0-11.86766,1.21676-11.20284,6.40087,2.62079,20.43624,79.04767,25.47524,79.04767,25.47524l25.33771-5.59561Z"/>
            </g>
            <g>
              <g>
                <path class="cls-1" d="M1038.44066,1067.55424c-1.88281-1.4009-4.59065-3.71672-7.07203-7.17788-2.03678-2.84108-8.47241-11.81765-5.64481-22.12574,1.84664-6.73202,6.74528-10.75433,9.13633-12.44125,4.50676,8.03712,6.71113,15.16664,7.86926,20.11325,3.01181,12.86431,.37122,17.04697-.58965,18.35333-1.20783,1.64199-2.64894,2.66462-3.6991,3.27828Z"/>
                <path class="cls-1" d="M1039.79276,1067.76456c-1.48319-1.80093-3.68474-5.00126-4.55398-9.4352-1.8367-9.3687,3.71351-16.95446,5.69796-19.69851,3.60722-4.98797,7.97865-7.85749,10.95565-9.42356,1.87622,4.50109,4.30618,12.36132,2.70222,21.63494-.37785,2.18452-.931,4.16699-1.56118,5.93502l-.00049,.0013c-.89909,2.49864-1.34854,3.74798-2.35019,5.028-1.72411,2.20316-4.06601,3.16069-7.30617,4.58507-1.46348,.64336-2.71415,1.08746-3.58382,1.37294Z"/>
                <path class="cls-1" d="M1038.76249,1067.57943c-.0572-2.25902,.13052-5.89819,1.71406-9.92968,3.77055-9.59947,12.4259-13.71196,15.00578-14.93772,2.57599-1.2239,7.26648-3.03166,13.61864-3.15758-1.8601,10.27831-5.38351,17.79-8.09314,21.1235-1.92084,2.36303-4.28508,4.39476-4.28529,4.39491-2.01404,1.73073-3.02104,2.596-4.52356,3.21588-2.87339,1.18532-5.59194,.80756-8.61692,.38729-2.04969-.28484-3.70542-.74021-4.81957-1.0966Z"/>
                <path class="cls-1" d="M1038.37078,1067.43742c1.73111-2.05244,4.36309-4.75081,8.06601-7.2484,5.58464-3.76684,10.69642-5.11532,12.29221-5.49983,8.35979-2.01444,15.45192-.52069,19.09809,.54075-1.09689,2.33808-5.84063,11.7638-16.40911,15.57058-2.45623,.88476-8.29005,2.89419-15.16141,.86627-3.69375-1.09017-6.33947-2.94918-7.88579-4.22937Z"/>
              </g>
              <circle class="cls-46" cx="1004.87557" cy="1121.81691" r="70.81745"/>
              <line class="cls-5" x1="955.00698" y1="1074.03621" x2="955.97174" y2="1171.56053"/>
              <line class="cls-5" x1="978.56137" y1="1056.05246" x2="979.87625" y2="1188.96931"/>
              <line class="cls-5" x1="1002.25468" y1="1051.05457" x2="1003.61299" y2="1188.36172"/>
              <line class="cls-5" x1="1027.7702" y1="1055.91137" x2="1029.08074" y2="1188.3893"/>
              <line class="cls-5" x1="1053.77939" y1="1073.0591" x2="1054.74415" y2="1170.58342"/>
              <path class="cls-32" d="M933.28227,1196.47779c4.25981,.05275,11.1317-.17585,19.115-2.01867,9.39348-2.16848,11.19553-4.46406,21.81841-7.04099,8.33429-2.02179,15.16879-2.53553,20.72398-2.95333,4.39947-.33077,11.31151-.82448,20.35764-.22637,3.40243,.22504,12.49398,.96048,23.82735,3.79406,7.17954,1.79497,7.81258,2.57025,13.40583,3.89689,8.87407,2.10482,17.11111,2.48478,23.93838,2.21856"/>
              <polygon class="cls-33" points="1028.42547 1172.98584 1013.22086 1164.6798 1028.3117 1156.31806 1028.42547 1172.98584"/>
              <polygon class="cls-33" points="1002.93384 1142.25805 987.72922 1133.95202 1002.82006 1125.59027 1002.93384 1142.25805"/>
              <polygon class="cls-33" points="979.21881 1110.54314 964.0142 1102.23711 979.10503 1093.87536 979.21881 1110.54314"/>
              <polygon class="cls-33" points="1001.79514 1090.64616 1016.99976 1082.34013 1001.90892 1073.97838 1001.79514 1090.64616"/>
              <polygon class="cls-33" points="1054.08808 1139.46615 1069.29269 1131.16012 1054.20186 1122.79837 1054.08808 1139.46615"/>
              <polygon class="cls-33" points="955.48936 1155.5843 970.69398 1147.27827 955.60314 1138.91652 955.48936 1155.5843"/>
              <polygon class="cls-33" points="1028.42547 1115.38692 1043.63009 1107.08089 1028.53925 1098.71914 1028.42547 1115.38692"/>
            </g>
          </g>
          <g>
            <polygon class="cls-44" points="1440 969.23561 1440 1309.78542 750.82996 1309.78542 849.98999 1211.29519 940.13 1179.82546 1073.08997 1179.82546 1111.94006 1156.65554 1140.70007 1139.50515 1195.95996 1073.94558 1212.80994 1053.95534 1289.44006 1015.22536 1345.77991 969.23561 1420.14001 952.29519 1440 969.23561"/>
            <polygon class="cls-49" points="849.98999 1211.29519 941.24087 1256.77873 1121.97189 1268.026 1327.28914 1246.38172 1440 1262.40236 1440 1196.48437 1279.95465 1212.33371 1198.40234 1206.14143 1061.69039 1223.92573 980.03705 1206.14143 940.13 1179.82546 849.98999 1211.29519"/>
            <polygon class="cls-49" points="1440.00018 1131.13226 1305.00668 1125.59027 1232.9813 1138.91652 1140.70007 1139.50515 1073.08997 1179.82546 1206.35329 1165.84679 1318.08842 1173.32949 1440 1158.36409 1440.00018 1131.13226"/>
            <polygon class="cls-49" points="1212.80994 1053.95534 1288.53399 1081.90331 1398.44173 1072.5427 1440 1081.90331 1440 1029.20729 1378.01292 1039.31309 1307.58545 1023.92754 1289.44006 1015.22536 1212.80994 1053.95534"/>
            <polygon class="cls-49" points="1345.77991 969.23561 1420.14001 952.29519 1420.14001 977.37958 1440 993.09476 1387.47318 1000.71324 1351.52671 991.25365 1345.77991 969.23561"/>
            <polygon class="cls-36" points="775.5191 1309.78739 767.00393 1309.78739 861.06087 1216.36649 952.32258 1184.50516 1084.96419 1184.50516 1151.43196 1144.86649 1223.61165 1059.23368 1224.15755 1058.95731 1300.49739 1020.37528 1357.12922 974.14677 1433.6429 956.71513 1440 962.13773 1440.00374 970.02788 1432.03938 963.23466 1359.8343 979.68388 1303.78645 1025.43583 1303.49544 1025.58329 1227.41047 1064.03641 1155.37044 1149.50321 1086.61751 1190.50516 953.34016 1190.50516 864.32258 1221.58329 775.5191 1309.78739"/>
          </g>
          <g>
            <polygon class="cls-44" points=".00027 1038.25933 143.84972 998.42344 277.69514 1018.34138 397.12643 1098.01315 502.79901 1215.30771 629.81154 1263.99601 676.89676 1309.7818 .00027 1309.7818 .00027 1038.25933"/>
            <polygon class="cls-49" points="143.84972 998.42344 74.28792 1046.6818 0 1067.76456 0 1142.25805 86.94765 1122.79837 165.65358 1081.90331 221.55269 1074.4206 277.69514 1018.34138 143.84972 998.42344"/>
            <polygon class="cls-49" points="397.12643 1098.01315 286.60853 1126.85041 197.41092 1172.98584 71.12862 1184.38867 0 1206.14143 0 1256.77873 120.93666 1234.12848 216.55979 1234.12848 315.88464 1206.14143 405.92433 1216.20923 502.79901 1215.30771 397.12643 1098.01315"/>
            <polygon class="cls-49" points="629.81154 1263.99601 455.34816 1256.77873 319.99438 1280.41988 133.0068 1287.88624 .00027 1309.7818 676.89676 1309.7818 629.81154 1263.99601"/>
            <polygon class="cls-36" points="655.53586 1309.7818 621.91243 1277.08622 494.80208 1228.35966 494.32063 1227.8245 388.89876 1110.80888 270.33919 1031.71903 137.78743 1011.99345 .00374 1050.15043 .00027 1043.92475 137.41243 1005.87235 138.04133 1005.96513 272.5511 1025.9827 273.10969 1026.35477 392.85383 1106.23466 393.10481 1106.51395 498.29622 1223.27372 625.21126 1271.92411 664.14246 1309.7818 655.53586 1309.7818"/>
          </g>
        </g>
      </g>
    </g>
  </g>
</svg>