<?xml version="1.0" encoding="UTF-8"?>
<svg id="Layer_2" data-name="Layer 2" xmlns="http://www.w3.org/2000/svg" viewBox="0 0 1184.70413 5138.4333">
  <defs>
    <style>
      .cls-1 {
        fill: none;
        stroke: #fff;
        stroke-miterlimit: 10;
        stroke-width: 3.9306px;
      }

      .cls-2 {
        fill: #e6e7e8;
        opacity: .77;
      }
    </style>
  </defs>
  <g id="EVERYTHING_ELSE" data-name="EVERYTHING ELSE">
    <g>
      <g>
        <path class="cls-2" d="M785.31212,106.05394s49.05981-103.10142,129.33951-52.28715c0,0,111.49958-126.66746,141.97613,8.83726,0,0,74.33305-27.98467,120.41954,43.44988h-391.73518"/>
        <path class="cls-1" d="M789.37928,110.07266s49.63313-102.83173,129.62867-51.57949c0,0,112.20316-126.05617,141.92476,9.61305,0,0,74.48774-27.578,120.17578,44.10734l-391.72922-2.1409"/>
      </g>
      <g>
        <path class="cls-2" d="M1039.56363,1596.24894l-421.46839,.00002s26.01657-95.00059,147.17944-45.6592c0,0-3.71664-69.22525,103.3229-8.10085,11.11542,.15744,28.98993-156.86142,170.96604,53.76003Z"/>
        <path class="cls-1" d="M1041.44476,1590.43982l-421.46529-1.59958s26.38371-94.90116,147.35491-45.10028c0,0-3.44894-69.23885,103.35347-7.70865,11.11473,.19963,29.59624-156.75024,170.75692,54.4085Z"/>
      </g>
      <g>
        <path class="cls-2" d="M669.33343,3035.53346h427.41504s-51.2898-55.96934-130.08284-18.41097c0,0-30.47655-130.34965-162.04605-17.67453,0,0-50.54647-74.38031-135.28615,36.0855Z"/>
        <path class="cls-1" d="M669.76381,3041.28541l427.40695,2.60585s-50.94119-56.28099-129.96602-19.2037c0,0-29.66632-130.53299-161.9332-18.66215,0,0-50.08351-74.68707-135.50773,35.26001Z"/>
      </g>
      <g>
        <path class="cls-2" d="M259.73058,910.18392h482.4215s-31.21988-89.10909-123.39286-41.24057c0,0-9.6633-45.6592-57.23645-8.10083,0,0,11.89329-139.92336-155.35608,.73644,0,0-89.19966-44.92276-146.43611,48.60496Z"/>
        <path class="cls-1" d="M259.73058,903.40194h482.4215s-31.21988-89.10909-123.39286-41.24057c0,0-9.6633-45.6592-57.23645-8.10083,0,0,11.89329-139.92336-155.35608,.73644,0,0-89.19966-44.92276-146.43611,48.60496Z"/>
      </g>
      <g>
        <path class="cls-2" d="M786.0591,2424.41094H302.89427s54.26313-110.46581,156.84274-43.44988c0,0,188.06262-203.99353,168.73603,6.62795,0,0,54.26313-38.29481,91.42965,15.46521,0,0,49.80314-21.35672,66.15642,21.35672Z"/>
        <path class="cls-1" d="M783.93647,2415.20632l-483.14054,4.79961s53.14243-110.99929,156.39512-45.00573c0,0,185.98865-205.85143,168.79462,4.95144,0,0,53.87284-38.83192,91.58157,14.5562,0,0,49.5845-21.85038,66.36923,20.69847Z"/>
      </g>
      <g>
        <path class="cls-2" d="M597.56929,4451.48185s49.05981-103.10142,129.33951-52.28715c0,0,111.49958-126.66746,141.97613,8.83726,0,0,74.33305-27.98467,120.41954,43.44988h-391.73518"/>
        <path class="cls-1" d="M601.63645,4455.50057s49.63313-102.83173,129.62867-51.57949c0,0,112.20316-126.05617,141.92476,9.61305,0,0,74.48774-27.578,120.17578,44.10734l-391.72922-2.1409"/>
      </g>
      <g>
        <path class="cls-2" d="M762.18978,3688.38921H279.76828s31.21988-89.10909,123.39286-41.24057c0,0,9.6633-45.6592,57.23645-8.10083,0,0-11.89329-139.92336,155.35608,.73644,0,0,89.19966-44.92276,146.43611,48.60496Z"/>
        <path class="cls-1" d="M762.18978,3681.60723H279.76828s31.21988-89.10909,123.39286-41.24057c0,0,9.6633-45.6592,57.23645-8.10083,0,0-11.89329-139.92336,155.35608,.73644,0,0,89.19966-44.92276,146.43611,48.60496Z"/>
      </g>
      <g>
        <path class="cls-2" d="M432.29157,5128.083H4.87653s51.2898-55.96934,130.08284-18.41097c0,0,30.47655-130.34965,162.04605-17.67453,0,0,50.54647-74.38031,135.28615,36.0855Z"/>
        <path class="cls-1" d="M431.86119,5133.83496l-427.40695,2.60585s50.94119-56.28099,129.96602-19.2037c0,0,29.66632-130.53299,161.9332-18.66215,0,0,50.08351-74.68707,135.50773,35.26001Z"/>
      </g>
    </g>
  </g>
</svg>