<?xml version="1.0" encoding="UTF-8"?>
<svg id="Layer_2" data-name="Layer 2" xmlns="http://www.w3.org/2000/svg" xmlns:xlink="http://www.w3.org/1999/xlink" viewBox="0 0 1121.46383 1091.06397">
  <defs>
    <style>
      .cls-1, .cls-2, .cls-3, .cls-4, .cls-5, .cls-6, .cls-7, .cls-8, .cls-9, .cls-10, .cls-11 {
        stroke-miterlimit: 10;
      }

      .cls-1, .cls-3, .cls-4, .cls-5, .cls-9, .cls-10 {
        stroke: #6e3d37;
      }

      .cls-1, .cls-4, .cls-9 {
        fill: #e9cc87;
      }

      .cls-1, .cls-5 {
        stroke-width: .91269px;
      }

      .cls-2 {
        stroke: #e0b15b;
        stroke-width: .36744px;
      }

      .cls-2, .cls-3, .cls-5, .cls-6, .cls-10, .cls-11 {
        fill: none;
      }

      .cls-12 {
        fill: url(#linear-gradient);
      }

      .cls-3, .cls-9 {
        stroke-width: 1.05482px;
      }

      .cls-13 {
        fill: #e9e9e9;
      }

      .cls-14 {
        fill: #8d3f2d;
      }

      .cls-15 {
        fill: #af6238;
      }

      .cls-16 {
        fill: #bd652c;
      }

      .cls-17 {
        fill: #bd703c;
      }

      .cls-18 {
        fill: #dfb99d;
      }

      .cls-19 {
        fill: #e0b15b;
      }

      .cls-20 {
        fill: #e28f43;
      }

      .cls-21 {
        fill: #442525;
      }

      .cls-22 {
        fill: #452221;
      }

      .cls-23 {
        fill: #955430;
      }

      .cls-24 {
        fill: #a35726;
      }

      .cls-25 {
        fill: #894129;
      }

      .cls-26 {
        fill: #6e3d37;
      }

      .cls-27 {
        fill: #547347;
      }

      .cls-4, .cls-10, .cls-11 {
        stroke-width: .95613px;
      }

      .cls-6 {
        stroke: #894129;
        stroke-width: 1.46974px;
      }

      .cls-7 {
        stroke-width: .44014px;
      }

      .cls-7, .cls-8 {
        fill: #d65e72;
        stroke: #d65e72;
      }

      .cls-28 {
        fill: url(#linear-gradient-8);
      }

      .cls-29 {
        fill: url(#linear-gradient-9);
      }

      .cls-30 {
        fill: url(#linear-gradient-3);
      }

      .cls-31 {
        fill: url(#linear-gradient-4);
      }

      .cls-32 {
        fill: url(#linear-gradient-6);
      }

      .cls-33 {
        fill: url(#linear-gradient-7);
      }

      .cls-34 {
        fill: url(#linear-gradient-5);
      }

      .cls-8 {
        stroke-width: .42473px;
      }

      .cls-35 {
        fill: url(#linear-gradient-14);
      }

      .cls-36 {
        fill: url(#linear-gradient-18);
      }

      .cls-37 {
        fill: url(#linear-gradient-15);
      }

      .cls-38 {
        fill: url(#linear-gradient-16);
      }

      .cls-39 {
        fill: url(#linear-gradient-17);
      }

      .cls-40 {
        fill: url(#linear-gradient-13);
      }

      .cls-41 {
        fill: url(#linear-gradient-12);
      }

      .cls-42 {
        fill: url(#linear-gradient-10);
      }

      .cls-43 {
        fill: url(#linear-gradient-11);
      }

      .cls-11 {
        stroke: #442525;
      }

      .cls-44 {
        fill: url(#linear-gradient-2);
        opacity: .85;
      }
    </style>
    <linearGradient id="linear-gradient" x1="537.1796" y1="401.4902" x2="537.1796" y2="1079.56076" gradientTransform="matrix(1, 0, 0, 1, 0, 0)" gradientUnits="userSpaceOnUse">
      <stop offset="0" stop-color="#fdcc7b"/>
      <stop offset="1" stop-color="#e28f43"/>
    </linearGradient>
    <linearGradient id="linear-gradient-2" x1="573.97302" y1="1091.06397" x2="573.97302" y2="401.4902" gradientTransform="matrix(1, 0, 0, 1, 0, 0)" gradientUnits="userSpaceOnUse">
      <stop offset="0" stop-color="#788cb1"/>
      <stop offset="1" stop-color="#4269b1"/>
    </linearGradient>
    <linearGradient id="linear-gradient-3" x1="143.44895" y1="514.08057" x2="143.44895" y2="455.15189" gradientTransform="matrix(1, 0, 0, 1, 0, 0)" gradientUnits="userSpaceOnUse">
      <stop offset="0" stop-color="#ffc96c" stop-opacity="0"/>
      <stop offset=".27079" stop-color="#cd984f" stop-opacity=".23159"/>
      <stop offset=".54121" stop-color="#a7743a" stop-opacity=".40721"/>
      <stop offset=".7909" stop-color="#905e2d" stop-opacity=".51335"/>
      <stop offset="1" stop-color="#895729" stop-opacity=".55"/>
    </linearGradient>
    <linearGradient id="linear-gradient-4" x1="389.33137" y1="534.1917" x2="389.33137" y2="483.64575" xlink:href="#linear-gradient-3"/>
    <linearGradient id="linear-gradient-5" x1="286.99078" y1="752.46218" x2="286.99078" y2="655.99575" xlink:href="#linear-gradient-3"/>
    <linearGradient id="linear-gradient-6" x1="664.6276" y1="576.50819" x2="664.6276" y2="494.68093" xlink:href="#linear-gradient-3"/>
    <linearGradient id="linear-gradient-7" x1="779.72119" y1="607.33964" x2="779.72119" y2="572.89652" xlink:href="#linear-gradient-3"/>
    <linearGradient id="linear-gradient-8" x1="199.14903" y1="578.1866" x2="199.14903" y2="542.99226" gradientTransform="matrix(1, 0, 0, 1, 0, 0)" gradientUnits="userSpaceOnUse">
      <stop offset="0" stop-color="#ffc96c" stop-opacity="0"/>
      <stop offset=".17162" stop-color="#dea959" stop-opacity=".12237"/>
      <stop offset=".47807" stop-color="#af7b3e" stop-opacity=".29721"/>
      <stop offset=".7621" stop-color="#92602e" stop-opacity=".40335"/>
      <stop offset="1" stop-color="#895729" stop-opacity=".44"/>
    </linearGradient>
    <linearGradient id="linear-gradient-9" x1="197.02936" y1="543.27298" x2="197.02936" y2="543.26436" xlink:href="#linear-gradient-8"/>
    <linearGradient id="linear-gradient-10" x1="972.20969" y1="577.17084" x2="972.20969" y2="555.88515" xlink:href="#linear-gradient-3"/>
    <linearGradient id="linear-gradient-11" x1="946.78757" y1="556.09823" x2="946.78757" y2="556.09015" xlink:href="#linear-gradient-3"/>
    <linearGradient id="linear-gradient-12" x1="848.20226" y1="503.75639" x2="848.20226" y2="473.50491" xlink:href="#linear-gradient-3"/>
    <linearGradient id="linear-gradient-13" x1="822.47065" y1="473.82973" x2="822.47065" y2="473.82005" xlink:href="#linear-gradient-3"/>
    <linearGradient id="linear-gradient-14" x1="818.80094" y1="787.9036" x2="818.80094" y2="737.66272" xlink:href="#linear-gradient-3"/>
    <linearGradient id="linear-gradient-15" x1="763.03067" y1="738.1548" x2="763.03067" y2="738.13814" xlink:href="#linear-gradient-3"/>
    <linearGradient id="linear-gradient-16" x1="801.67314" y1="737.66272" x2="801.67314" y2="737.64861" xlink:href="#linear-gradient-3"/>
    <linearGradient id="linear-gradient-17" x1="389.97969" y1="841.87811" x2="389.97969" y2="797.58035" xlink:href="#linear-gradient-3"/>
    <linearGradient id="linear-gradient-18" x1="431.17696" y1="797.91436" x2="431.17696" y2="797.90241" xlink:href="#linear-gradient-3"/>
  </defs>
  <g id="EVERYTHING_ELSE" data-name="EVERYTHING ELSE">
    <g>
      <g>
        <polygon class="cls-16" points="471.5805 403.4918 490.01667 384.89744 588.50603 372.67592 756.23367 299.33434 800.35073 250.75058 800.35073 174.97437 865.06319 122.61981 863.08088 40.109 926.89949 0 988.73593 26.17725 992.94236 81.28729 1013.60025 78.10507 1025.45387 145.12338 1049.13428 177.72985 1049.13428 401.88404 471.5805 403.4918"/>
        <polygon class="cls-24" points="630.10406 408.39795 803.58207 336.76153 864.94544 267.70655 864.54573 187.43856 901.91055 146.98755 902.89384 52.59221 926.89949 0 988.73593 26.17725 992.94236 81.28729 1013.60025 78.10507 1025.45387 145.12338 1102.65018 233.3809 1121.46383 396.04164 881.72443 489.16802 630.10406 408.39795"/>
      </g>
      <g>
        <polygon class="cls-15" points="26.48222 233.23702 57.87934 211.64579 57.87934 155.69028 102.35219 123.55839 172.88073 160.86275 175.00273 255.40532 181.3372 256.17403 188.83728 211.83761 249.00844 212.66572 290.21131 258.32083 289.30594 316.77097 360.12964 365.85917 423.49772 363.31168 458.92606 347.50074 514.01161 353.26588 597.12866 397.57173 579.1288 418.8439 59.90204 426.37009 26.48222 233.23702"/>
        <polygon class="cls-23" points="57.87934 211.64579 57.87934 155.69028 102.35219 123.55839 121.89241 164.64218 121.89241 256.72642 100.42447 314.37939 153.44203 359.8497 178.49974 368.02025 161.03942 311.23977 181.3372 256.17403 188.83728 211.83761 235.42666 212.4788 235.00426 314.45695 266.09939 365.54844 362.24417 411.85471 75.84212 411.85471 34.05168 228.03163 57.87934 211.64579"/>
      </g>
      <rect class="cls-12" y="401.4902" width="1074.35919" height="678.07056"/>
      <path class="cls-44" d="M457.81685,1042.72726c-17.66354-33.72803,16.51223-56.62891,41.72908-187.16748,11.13355-57.63428,21.14823-111.75049,12.84581-180.1626-6.82951-56.27539-19.4757-68.02441-22.81919-116.54639-4.5617-66.20068,13.66551-121.43652,29.4855-157.3606h30.48769c-5.13214,28.16162-8.84796,69.92065,3.65848,116.04858,10.15424,37.45215,20.34422,38.47363,36.58524,82.25586,21.97968,59.25195,11.97665,80.72754,30.48763,156.80078,9.58588,39.39453,12.66136,35.25049,32.9267,98.96436,34.08079,107.14941,51.12118,160.72412,36.58524,187.64648-35.06288,64.94092-198.81887,62.82617-231.97218-.479Z"/>
      <g>
        <g>
          <path class="cls-30" d="M159.52561,495.29638l11.46498-40.14449h-2.04132l-.57362,1.95764-21.09524,17.59148-8.88523-17.58694,.78689-1.96218h-2.04132l-15.99573,39.16526h-.00014l-.44071,1.07907,2.31523-.00595-1.58166,3.94321-.39989,.99697-1.26945,3.16484-.39984,.99684-1.22162,3.04561-1.69854,.00548-.54109,1.33183,5.03787-.01658c.13486,2.99842,5.31725,5.24783,12.60754,5.2219,7.29029-.02594,14.04865-2.31483,16.26726-5.31695l5.03787-.01658,.3828-1.32866-1.69854,.00548,.89131-3.03898,.29173-.99467,.92621-3.15795,.29177-.99479,1.154-3.93463,2.42834-.00624h.00014Zm-35.40559-.9867l22.2433-16.96636,10.49442,16.88414-32.73772,.08222Zm21.4987-18.28587l-21.34628,16.30671,13.06195-32.57126,8.28433,16.26455Zm21.98354-16.27486l-9.52327,32.50071-10.05393-16.22928,19.5772-16.27144Z"/>
          <g>
            <rect class="cls-21" x="139.15002" y="356.00753" width="29.71374" height="23.30919"/>
            <rect class="cls-22" x="153.03553" y="363.08577" width="2.04134" height="33.84986" transform="translate(534.0669 225.9545) rotate(90)"/>
            <rect class="cls-21" x="137.13138" y="378.99009" width="2.04134" height="76.12987" transform="translate(276.30409 834.11005) rotate(180)"/>
            <rect class="cls-21" x="152.85377" y="377.60812" width="2.04134" height="76.77925" transform="translate(124.67947 858.58008) rotate(-155.92689)"/>
            <rect class="cls-21" x="153.2173" y="377.60812" width="2.04134" height="76.77925" transform="translate(-156.27156 99.09507) rotate(-24.07311)"/>
            <rect class="cls-21" x="168.9399" y="378.99009" width="2.04134" height="76.12987" transform="translate(339.92114 834.11005) rotate(180)"/>
            <rect class="cls-21" x="152.74708" y="338.46498" width="2.51961" height="32.5655" transform="translate(508.75461 200.74084) rotate(90)"/>
            <rect class="cls-17" x="153.06381" y="347.85575" width="1.88616" height="29.71374" transform="translate(516.7195 208.70573) rotate(90)"/>
            <rect class="cls-17" x="153.06381" y="355.7297" width="1.88616" height="29.71374" transform="translate(524.59345 216.57968) rotate(90)"/>
            <path class="cls-21" d="M166.30348,355.78174c-.01239-6.781-5.51271-12.27436-12.2966-12.27436s-12.2842,5.49337-12.29659,12.27436h24.59319Z"/>
          </g>
        </g>
        <g>
          <path class="cls-31" d="M464.79003,486.22903l2.7528-2.58328h-108.33398l-3.94647,2.58971,2.9508-.00017-36.19421,23.94446-1.14761,.00063,.14602,5.57111,2.80335-.00181-7.95652,5.3994-3.40402,.00252-1.34027,.90194,20.32952-.01537-4.00776,2.83797-7.25408,.00583,26.35912,9.30973,52.39873-9.37302-6.86534,.00552,3.34341-2.8344,15.83358-.01197,1.00991-.90016-3.40402,.00252,6.11363-5.38948,2.78802-.0018,17.76864-5.07857,.14972-.00008,.0677-.06283,1.48476-.43057-1.02141,.00056,25.7399-23.8882,2.83608-.00017Zm-36.03401,23.89244l21.28718-19.24827,4.3399-.0007-20.9416,19.24641-4.68548,.00256Zm-103.96445,.05676l28.95503-19.28954,4.16827-.00067-28.62313,19.28775-4.50018,.00246Z"/>
          <g>
            <rect class="cls-21" x="362.10513" y="432.61626" width="2.49132" height="51.13204"/>
            <rect class="cls-21" x="462.22402" y="432.61626" width="2.49132" height="51.13204"/>
            <rect class="cls-21" x="385.64452" y="403.03283" width="54.98663" height="17.79644"/>
            <polygon class="cls-21" points="379.47365 405.70599 412.22506 388.01483 446.47134 405.70599 379.47365 405.70599"/>
            <rect class="cls-21" x="371.10652" y="411.1611" width="80.19832" height="13.42162"/>
            <rect class="cls-21" x="368.17098" y="411.07782" width="86.06939" height="1.70645"/>
            <rect class="cls-21" x="359.18653" y="478.84952" width="108.33398" height="4.89878"/>
            <rect class="cls-21" x="368.64011" y="433.5509" width="89.37378" height="36.49429"/>
            <rect class="cls-21" x="363.93938" y="470.04519" width="98.28463" height="13.70311"/>
            <rect class="cls-4" x="427.9205" y="441.77084" width="24.20712" height="13.93479"/>
            <rect class="cls-4" x="374.66913" y="441.77084" width="24.20712" height="13.93479"/>
            <rect class="cls-26" x="400.86894" y="450.97424" width="24.20712" height="13.93479" transform="translate(-44.96914 870.91413) rotate(-90)"/>
            <ellipse class="cls-19" cx="408.55403" cy="457.72779" rx="1.8871" ry="1.27201"/>
            <line class="cls-10" x1="372.94655" y1="456.04348" x2="400.59883" y2="456.04348"/>
            <line class="cls-10" x1="426.19792" y1="456.45579" x2="453.8502" y2="456.45579"/>
            <line class="cls-10" x1="382.43877" y1="441.56427" x2="382.43877" y2="455.70564"/>
            <line class="cls-11" x1="371.10652" y1="431.7812" x2="363.35079" y2="444.98251"/>
            <line class="cls-11" x1="456.03664" y1="431.7812" x2="463.79237" y2="444.98251"/>
            <line class="cls-10" x1="391.35994" y1="441.90211" x2="391.35994" y2="456.04348"/>
            <line class="cls-10" x1="436.17057" y1="441.90212" x2="436.17057" y2="456.04348"/>
            <line class="cls-10" x1="445.09173" y1="442.23996" x2="445.09173" y2="456.38133"/>
            <line class="cls-10" x1="427.9205" y1="448.73824" x2="452.12762" y2="448.73824"/>
            <line class="cls-10" x1="374.66913" y1="448.63495" x2="398.87625" y2="448.63495"/>
            <g>
              <polygon class="cls-19" points="417.85397 416.65728 412.28466 413.64478 406.64571 416.52481 407.78976 410.29717 403.30815 405.82419 409.58452 404.9878 412.45369 399.34331 415.18865 405.05403 421.44349 406.03853 416.85743 410.40434 417.85397 416.65728"/>
              <circle class="cls-19" cx="412.37742" cy="399.58515" r="1.21432"/>
              <circle class="cls-19" cx="421.33113" cy="406.18194" r="1.21432"/>
              <circle class="cls-19" cx="417.85397" cy="416.65728" r="1.21432"/>
              <circle class="cls-19" cx="406.76566" cy="416.28588" r="1.21432"/>
              <circle class="cls-19" cx="403.32904" cy="405.7508" r="1.21432"/>
            </g>
            <polygon class="cls-14" points="368.64011 423.00094 361.07394 433.5509 465.63309 433.5509 453.75775 423.00094 368.64011 423.00094"/>
          </g>
        </g>
        <g>
          <polygon class="cls-34" points="344.58579 682.87009 356.97012 682.86427 295.07341 701.23977 285.5947 713.23779 290.58585 713.23309 288.36078 716.08499 283.34144 716.08992 272.25432 730.12383 283.5799 730.11048 226.39929 752.46218 205.28532 730.2028 218.08823 730.1877 230.63175 716.1417 224.96937 716.14726 227.5504 713.29241 233.18099 713.28711 243.87545 701.31164 214.89966 682.93108 227.98515 682.92493 251.10763 658.85208 246.4071 658.85233 249.18042 655.99575 368.69623 655.99575 366.68413 658.84601 361.80382 658.84626 344.58579 682.87009"/>
          <g>
            <g>
              <rect class="cls-21" x="253.87792" y="597.05213" width="109.99562" height="53.59991"/>
              <rect class="cls-21" x="249.20714" y="650.65204" width="119.51578" height="5.40441"/>
            </g>
            <rect class="cls-21" x="279.37821" y="542.18844" width="55.89124" height="5.40441"/>
            <g>
              <g>
                <polygon class="cls-21" points="241.53366 605.10324 307.0498 551.82041 375.5563 605.10324 241.53366 605.10324"/>
                <rect class="cls-21" x="284.37063" y="513.20832" width="46.47332" height="66.75259"/>
              </g>
              <polygon class="cls-21" points="273.38603 515.59687 307.60729 473.34839 340.5611 515.59687 273.38603 515.59687"/>
            </g>
            <rect class="cls-26" x="297.57498" y="618.73904" width="21.94001" height="31.913"/>
            <circle class="cls-9" cx="307.60729" cy="589.18953" r="13.62479"/>
            <path class="cls-9" d="M277.90326,614.87979c0-3.70569-3.0038-6.7094-6.70923-6.7094s-6.70923,3.00371-6.70923,6.7094c0,.10322,.02581,.19958,.03043,.30178v32.40332h13.35767v-32.404c.00463-.10219,.03035-.19821,.03035-.30109Z"/>
            <path class="cls-9" d="M307.114,515.59934c-4.22677,.10219-7.827,3.36379-8.35048,7.64559v15.2058h17.12062v-15.20614c-.54539-4.43818-4.39189-7.75121-8.77014-7.64525Z"/>
            <path class="cls-9" d="M353.97955,614.87979c0-3.70569-3.0038-6.7094-6.70923-6.7094s-6.70923,3.00371-6.70923,6.7094c0,.10322,.02581,.19958,.03043,.30178v32.40332h13.35767v-32.404c.00463-.10219,.03035-.19821,.03035-.30109Z"/>
            <line class="cls-3" x1="265.17113" y1="633.12088" x2="278.58959" y2="633.20305"/>
            <line class="cls-3" x1="264.51524" y1="615.18157" x2="271.19403" y2="618.73904"/>
            <line class="cls-3" x1="277.90326" y1="614.87979" x2="271.19403" y2="618.73904"/>
            <line class="cls-3" x1="271.19403" y1="647.58489" x2="271.19403" y2="618.73904"/>
            <line class="cls-3" x1="340.49796" y1="633.58216" x2="353.91641" y2="633.66433"/>
            <line class="cls-3" x1="340.59154" y1="615.18157" x2="347.27033" y2="618.73904"/>
            <line class="cls-3" x1="353.97955" y1="614.87979" x2="347.27033" y2="618.73904"/>
            <line class="cls-3" x1="347.27033" y1="647.58489" x2="347.27033" y2="618.73904"/>
            <line class="cls-3" x1="302.60853" y1="576.88915" x2="302.74338" y2="601.55415"/>
            <line class="cls-3" x1="311.60644" y1="576.16447" x2="311.74864" y2="602.17192"/>
            <line class="cls-3" x1="294.99539" y1="593.72252" x2="320.82446" y2="593.72252"/>
            <line class="cls-3" x1="294.31991" y1="584.72078" x2="320.32775" y2="584.72078"/>
            <line class="cls-3" x1="307.32383" y1="538.45072" x2="307.32383" y2="528.19591"/>
            <line class="cls-3" x1="298.76352" y1="523.24493" x2="307.32383" y2="528.19591"/>
            <line class="cls-3" x1="315.88414" y1="523.24459" x2="307.32383" y2="528.19591"/>
            <ellipse class="cls-19" cx="300.67326" cy="635.24384" rx="2.08188" ry="1.4033"/>
          </g>
        </g>
        <g>
          <polygon class="cls-32" points="728.50139 566.39609 730.47958 569.55805 714.68613 569.58066 718.85788 576.41277 657.38309 576.50819 653.60306 569.6681 635.71943 569.6937 634.02257 566.52602 639.34857 566.51869 602.35283 498.1018 600.61946 498.10192 598.77562 494.68093 681.69151 494.68093 683.82132 498.0961 682.08783 498.09622 724.56462 566.4015 728.50139 566.39609"/>
          <g>
            <rect class="cls-21" x="600.54221" y="361.63732" width="79.46103" height="126.7082"/>
            <rect class="cls-21" x="595.57589" y="355.7712" width="88.0981" height="5.86612"/>
            <rect class="cls-21" x="612.20225" y="343.10038" width="56.78873" height="14.31333"/>
            <rect class="cls-21" x="598.8148" y="488.34552" width="82.91586" height="6.33541"/>
            <g>
              <rect class="cls-1" x="642.35293" y="382.33635" width="33.70644" height="22.85173" transform="translate(1052.96839 -265.44392) rotate(90)"/>
              <line class="cls-5" x1="670.97078" y1="387.72759" x2="647.78029" y2="387.72758"/>
              <line class="cls-5" x1="670.41674" y1="400.14958" x2="647.22625" y2="400.14957"/>
              <line class="cls-5" x1="659.37553" y1="376.90899" x2="659.37553" y2="410.61543"/>
            </g>
            <rect class="cls-1" x="648.29711" y="421.0827" width="21.81807" height="29.45463" transform="translate(1095.01622 -223.39609) rotate(90)"/>
            <line class="cls-5" x1="674.15179" y1="436.08907" x2="644.26051" y2="436.08907"/>
            <g>
              <rect class="cls-1" x="601.5976" y="382.33635" width="33.70644" height="22.85173" transform="translate(1012.21306 -224.6886) rotate(90)"/>
              <line class="cls-5" x1="630.21545" y1="387.72759" x2="607.02496" y2="387.72759"/>
              <line class="cls-5" x1="629.66142" y1="400.14958" x2="606.47092" y2="400.14958"/>
              <line class="cls-5" x1="618.62021" y1="376.90899" x2="618.62021" y2="410.61543"/>
            </g>
            <g>
              <rect class="cls-1" x="601.70524" y="430.41878" width="33.70644" height="22.85173" transform="translate(1060.40313 -176.7138) rotate(90)"/>
              <line class="cls-5" x1="630.32309" y1="435.81002" x2="607.1326" y2="435.81001"/>
              <line class="cls-5" x1="629.76905" y1="448.232" x2="606.57856" y2="448.232"/>
              <line class="cls-5" x1="618.72784" y1="424.99142" x2="618.72784" y2="458.69786"/>
            </g>
            <rect class="cls-26" x="643.68868" y="455.21429" width="21.32695" height="33.71042"/>
            <ellipse class="cls-19" cx="646.70039" cy="472.64868" rx="2.0237" ry="1.48233"/>
            <line class="cls-1" x1="659.37553" y1="424.99142" x2="659.37553" y2="446.91873"/>
          </g>
        </g>
        <g>
          <path class="cls-33" d="M824.05303,586.92485l-8.05491-4.87763c-1.4087-.85303-3.85742-1.54454-5.46892-1.54432l-1.6586,.00023c-.44401-.35274-.97201-.71757-1.57967-1.09082l.46863-.00006-1.02829-.6262-.52142,.00006c-5.01261-2.73432-12.67913-4.8861-18.10743-5.06502l-.25119-.15533h-1.16348l.24141,.14955c-5.38305,.1349-5.90916,2.61364-1.06509,5.6603,.61587,.38735,1.29106,.76521,2.01128,1.13042l-12.2349,.00169c-.38861-.31923-.83573-.64689-1.35556-.98243l.469-.00006-.97927-.62658-.5218,.00006c-4.79886-2.73623-12.29825-4.8893-17.71335-5.06806l-.23903-.15542-1.16391,.00002,.2297,.14963c-5.39482,.13499-6.11617,2.61524-1.51051,5.66373,.52824,.34964,1.11085,.69005,1.72658,1.02202l-.92426,.00013c-.84049,.00012-1.30492,.19125-1.38428,.49277-.89846-.29769-1.87499-.49232-2.65134-.49221l-.21578,.00003c-1.35743,.00019-1.58671,.58377-.51259,1.30317l1.40423,.9405-46.35912-9.85848,.33706,.97772,47.96729,10.1836,1.10403,.73943c1.07452,.71967,3.06008,1.30257,4.43534,1.30225l.21861-.00005c.41002-.0001,.70576-.0571,.90872-.14915l1.48782,.9905c1.28279,.854,3.65393,1.54611,5.29564,1.54566l18.1529-.00504,.03469,.02318c-6.11093-.00621-12.2211-.01215-18.33119-.0181,8.10386,4.94225,21.59991,17.40726,21.59991,17.40726,9.20464-2.38436,24.07762,.98532,24.07762,.98532,9.81732-2.47893,25.63046,.46055,25.63046,.46055,.88039-.53918,3.07873-1.5658,8.22868-1.643,3.95423-.05913,7.99768,.46656,10.41647,.84271-4.77285-3.10758-10.18485-6.4669-16.29823-10.04585-4.77994-2.79964-9.50591-5.4542-14.09032-7.94874-5.77233-.0055-11.54491-.01127-17.31686-.01677l-.09865-.05318,15.93212-.00442c1.64171-.00046,1.83042-.69252,.42172-1.54555Zm-40.01689,1.55654l23.51388-.00653,.082,.05292c-7.85173-.00782-15.70294-.01539-23.55395-.02322l-.04192-.02318Z"/>
          <g>
            <path class="cls-13" d="M799.09179,546.22141c.45427-4.6278,.78692-9.55234,.93989-14.74649,.19554-6.63941,.07253-12.87146-.25546-18.63596-1.66409,.6993-4.6088,1.6779-8.36113,1.57237-4.88606-.13743-8.45135-2.03745-10.06427-3.03574,0,0-10.30894,5.46287-22.99688,.88109,0,0-8.9873,6.25587-20.88224,1.85032,0,0,4.93421,23.0943,4.31743,32.25319,19.10088-.04624,38.20177-.09253,57.30265-.13878Z"/>
            <path class="cls-2" d="M781.23612,511.5172s3.85867,15.67065,1.06871,35.74351"/>
            <path class="cls-2" d="M758.3928,512.39268s3.85867,15.38458,1.06871,35.09101"/>
            <rect class="cls-21" x="739.06185" y="546.36017" width="61.58434" height="14.78024" rx="2.86572" ry="2.86572" transform="translate(1539.70803 1107.50059) rotate(-180)"/>
            <rect class="cls-21" x="735.33831" y="550.78561" width="5.03963" height="10.35481" rx="2.41391" ry="2.41391" transform="translate(1475.71625 1111.92602) rotate(-180)"/>
            <rect class="cls-21" x="700.56034" y="563.53862" width="39.04674" height="2.09084" transform="translate(1625.98652 693.48631) rotate(150)"/>
            <rect class="cls-25" x="743.13845" y="562.78232" width="21.01504" height="1.1617" transform="translate(1681.06522 404.44855) rotate(133.49798)"/>
            <rect class="cls-25" x="743.13845" y="562.96188" width="21.01504" height="1.1617" transform="translate(1507.29194 1127.08546) rotate(-180)"/>
            <rect class="cls-25" x="742.22113" y="562.71925" width="21.01504" height="1.1617" transform="translate(1011.73646 1467.08235) rotate(-142.80049)"/>
            <rect class="cls-25" x="742.77408" y="562.71925" width="21.01504" height="1.1617" transform="translate(189.9815 1316.58169) rotate(-90)"/>
            <circle class="cls-6" cx="753.17578" cy="563.0345" r="10.51982"/>
            <rect class="cls-25" x="775.80463" y="562.98435" width="21.01504" height="1.1617" transform="translate(1736.36302 381.09364) rotate(133.49798)"/>
            <rect class="cls-25" x="775.80463" y="563.16391" width="21.01504" height="1.1617" transform="translate(1572.6243 1127.48952) rotate(-180)"/>
            <rect class="cls-25" x="774.8873" y="562.92128" width="21.01504" height="1.1617" transform="translate(1070.30025 1487.19502) rotate(-142.80049)"/>
            <rect class="cls-25" x="775.44026" y="562.92128" width="21.01504" height="1.1617" transform="translate(222.44565 1349.4499) rotate(-90)"/>
            <circle class="cls-6" cx="785.84196" cy="563.23653" r="10.51982"/>
            <circle class="cls-18" cx="736.76376" cy="555.3624" r=".94284"/>
          </g>
        </g>
        <g>
          <g>
            <path class="cls-28" d="M223.21473,559.27425c-1.96195,.5639-4.28393,.4238-5.59865,.11008-.78286-.18756-1.88001-.59905-3.3665-3.77354-.76911-1.76593-.77714-2.42221-1.95355-2.53117-.95052-.08807-2.21686,.22606-3.45207,.6555-2.15257,4.54791-4.45962,8.92448-7.1156,12.54331,3.08048-.65612,6.00652-.78061,7.87999-.25481,1.07491,.30004,1.61622,.7536,1.89807,1.14135,.94104,1.94268-.57107,3.71249-2.67465,4.21545-1.5797,.37627-3.80647,.12152-4.8494-.45201-1.53377-.85238,.11899-2.08055-1.34047-2.49768-.43835-.12575-1.21065-.18419-2.63822,.02113-3.70609,4.26847-8.24161,7.03805-14.01513,7.00254-.5418-.0033-1.00718-.05672-1.41603-.14653-.14245,.16358-.28646,.30279-.39115,.3997-1.5385,1.4211-4.60867,2.27673-5.37048,2.47903-.14284-.31379-.28377-.85763,.03468-1.56417-1.21368,.30773-2.74728,.63398-4.53714,.92178,.29578-.79339,1.04187-1.42762,1.52173-1.78244,.02151-.0159,.05766-.04174,.08372-.0609-1.75256,.12713-3.16054,.06968-4.06824-.00464,.60848-.41446,1.67385-1.0391,3.34665-1.62821l.11289-.03947c-1.12798-.05395-2.39423-.15419-3.74129-.355,.62026-.34494,2.05874-1.06768,4.17184-1.48701,3.22088-.64186,5.64908-.09424,6.42119,.07892,.14012,.0314,.25712,.06616,.38208,.09975,.5008-3.2244,4.51572-8.51374,9.0495-13.63368-.50175-.08751-1.13394-.12547-1.89803-.02069-.31801,.04358-1.47365,.22319-3.29953,1.199-1.87385,.99567-2.36391,1.71342-3.61359,2.8758-1.95712,1.81448-3.54261,3.27906-5.88503,3.77747-1.87567,.3977-3.75861,.08262-4.68943-.30449-3.53753-1.49276,2.52612-5.91125,2.81242-6.11779,1.6515-1.19448,4.06115-2.94703,8.09762-3.87537,3.73417-.86548,7.66246-.7266,10.42799,.29635,5.57373-6.1122,11.17881-11.49148,11.82788-12.11615-.51782-.04136-1.05594-.09537-1.62558-.18362-1.83685-.28539-1.96688-.57052-3.59234-.8089-.98717-.14512-1.93672-.18523-2.70823-.18845l26.87543-.27206c-1.30612-.00636-2.93961,.07508-4.84342,.37875-1.20326,.19148-1.39248,.29266-2.94949,.55019-1.2952,.21374-2.41398,.34979-3.2909,.43819-1.1125,2.38928-2.23947,4.84298-3.39383,7.27561,6.99209-1.62406,13.06403-1.94483,15.56621-.61233,1.00487,.52698,1.25386,1.20545,1.5134,1.89699,.75843,1.94018,.11922,5.24691-3.70533,6.35425Z"/>
            <path class="cls-29" d="M197.44265,543.26467l-.82657,.00832c.23763-.00681,.52126-.00962,.82657-.00832Z"/>
          </g>
          <g>
            <g>
              <path class="cls-7" d="M206.18817,486.9434c-.41399,.38665-1.08087,.92973-2.00999,1.36958-.76265,.36104-3.17233,1.50182-5.49826,.38524-1.51902-.72922-2.26276-2.06624-2.56013-2.70691,2.10328-.72327,3.89161-.93895,5.11637-1.00041,3.18512-.15982,4.06443,.64787,4.33318,.93247,.3378,.35774,.51844,.74413,.61883,1.02003Z"/>
              <path class="cls-7" d="M206.2965,486.63138c-.49173,.27448-1.34682,.65913-2.43735,.67412-2.30423,.03168-3.8661-1.61394-4.43208-2.2037-1.02882-1.07202-1.52154-2.23407-1.76493-3.00868,1.14995-.25123,3.12156-.48893,5.25465,.29239,.50248,.18405,.9494,.40102,1.34207,.62701l.00029,.00017c.55457,.3214,.83186,.48208,1.0926,.77523,.44878,.50458,.57506,1.10209,.77343,1.93307,.0896,.37533,.14107,.69152,.17132,.91038Z"/>
              <path class="cls-7" d="M206.20805,486.86806c-.53895-.08395-1.3951-.28566-2.28414-.8358-2.11693-1.30992-2.71988-3.543-2.89959-4.20861-.17943-.6646-.40623-1.85658-.16187-3.37056,2.36063,.88553,3.99242,2.04662,4.66708,2.83404,.47825,.5582,.85867,1.20739,.8587,1.20745,.32406,.55303,.48607,.82954,.56841,1.21313,.15743,.73356-.04966,1.36287-.28007,2.06311-.15614,.47447-.33578,.84802-.46852,1.09723Z"/>
              <path class="cls-7" d="M206.15741,486.95495c-.41268-.49973-.93986-1.24129-1.37312-2.22852-.65344-1.48891-.75298-2.7611-.77539-3.15668-.11745-2.0723,.54351-3.69208,.95301-4.51216,.5079,.36145,2.54155,1.89498,2.98929,4.56921,.10407,.62152,.32939,2.09373-.44889,3.63801-.41838,.83014-.9741,1.37819-1.34489,1.69015Z"/>
            </g>
            <path class="cls-27" d="M232.91425,523.79683c-.61949,1.33784-1.22705,2.64994-2.47559,3.70093-3.4238,2.88205-9.76263,2.19707-15.87485-1.34837l.49161-4.61356c1.12424,1.3402,2.70842,2.83595,4.17803,2.5174,1.17391-.25446,1.5794-1.51579,3.34741-4.93765,3.17909-6.15294,4.40493-6.98471,5.21864-7.37418,1.36201-.65194,3.54076-1.00832,5.02956,0,2.92419,1.98049,1.82312,8.30218,.08519,12.05544Z"/>
            <path class="cls-27" d="M189.65951,511.89301c.60299,2.23677,1.48769,5.51846,4.51462,7.15148,3.23291,1.74413,7.68052,.94455,11.23915-1.97382l-.20672-3.98671c-.19691,.17564-1.6599,1.44304-3.24172,1.00644-.26004-.07178-1.18911-.37336-2.1706-2.18143-1.00123-1.84445-.94413-3.20646-1.26022-5.39531-.49333-3.41627-.89156-6.17394-2.60199-7.04585-1.36421-.69541-3.22748-.02009-4.31486,.75908-4.19101,3.00316-2.06189,11.2795-1.95767,11.66613Z"/>
            <path class="cls-27" d="M226.3562,489.04142c1.54122,.88835,1.95042,4.22913,.14035,7.99206-.44813,.75467-1.16008,1.64544-2.26113,2.26111-2.39672,1.34015-5.68127,.84225-8.41391-1.19234l-.15737-3.77427c2.08252,1.11143,3.18851,.96222,3.81655,.60203,1.48997-.85455,.73487-3.15177,2.50505-4.84427,1.19124-1.13894,3.2174-1.70894,4.37046-1.04432Z"/>
            <path class="cls-27" d="M206.7604,541.04819s-9.35163-58.32015,2.55044-59.00027c11.90207-.68012,8.30136,31.51268,5.13068,59.00027h-7.68112Z"/>
            <path class="cls-20" d="M197.14554,543.5296c.81683,.01273,2.13454-.04245,3.66536-.48726,1.80123-.52342,2.14678-1.07753,4.18375-1.69954,1.59812-.48802,2.90866-.61202,3.97389-.71287,.84361-.07984,2.16902-.19901,3.90364-.05464,.65243,.05432,2.39576,.23184,4.56897,.9158,1.3767,.43327,1.49809,.6204,2.57061,.94063,1.70163,.50806,3.28111,.59977,4.59026,.53551"/>
          </g>
        </g>
        <g>
          <g>
            <path class="cls-42" d="M974.2139,556.24868c-1.12582,.18634-1.17761,.28596-2.61502,.53664-.41442,.07233-.81524,.13269-1.2064,.1881,7.10205,1.28402,14.254,4.34978,17.87064,7.99354,2.4037,2.41869,2.71452,4.63747,1.25894,6.28646,.68407,.03525,1.279,.11859,1.63301,.16955,3.04836,.43858,5.38529,1.60379,5.94708,1.89331-.5647,.10875-1.56768,.25383-2.98681,.23136,.8639,.46465,1.83745,1.06038,2.79629,1.7685-1.58512,.00809-2.96699-.2011-3.75352-.34511-.03515-.00641-.09279-.01755-.13492-.02519,.63714,.72449,.84295,1.33402,.90338,1.73397-.93074-.18535-2.36521-.52915-3.86434-1.1417l-.10042-.04147c.14629,.49452,.23336,1.05723,.14352,1.67418-.79789-.20259-2.49823-.68923-3.76179-1.52781-1.21542-.8086-1.45979-1.56387-1.43623-2.10369-1.4838,.34199-3.22281,.5506-5.21838,.58097-9.63407,.14662-20.90652-3.72058-25.16011-8.63797-3.16505-3.66638-1.7774-6.87563,2.84417-8.3293-.22711-.02055-.4376-.03575-.67737-.06092-2.74104-.28619-3.4123-.56833-5.81648-.80759-1.42312-.14188-2.62819-.18615-3.56192-.19319l32.12335-.20544c-1.60006-.00937-3.44461,.06728-5.22667,.36279Z"/>
            <path class="cls-43" d="M947.31722,556.09133l-1.05931,.0069c.29493-.00666,.65415-.01003,1.05931-.0069Z"/>
          </g>
          <g>
            <g>
              <path class="cls-8" d="M971.06447,526.37169c-.43856-.32631-1.06928-.86572-1.64726-1.67192-.47442-.66176-1.97345-2.75265-1.31483-5.15367,.43013-1.56807,1.57115-2.50497,2.12809-2.8979,1.04974,1.87206,1.5632,3.53271,1.83296,4.68491,.70153,2.99644,.08647,3.97069-.13735,4.27498-.28134,.38246-.61701,.62066-.86162,.7636Z"/>
              <path class="cls-8" d="M971.37942,526.42068c-.34547-.41948-.85827-1.16493-1.06074-2.19771-.42782-2.18222,.86498-3.94915,1.32721-4.58831,.84022-1.16183,1.85844-1.83022,2.55186-2.195,.43702,1.04842,1.00302,2.87928,.62942,5.03935-.08801,.50883-.21685,.9706-.36364,1.38242l-.00011,.0003c-.20942,.582-.31411,.873-.54742,1.17115-.40159,.51317-.94708,.73621-1.7018,1.06799-.34088,.14986-.6322,.2533-.83477,.31979Z"/>
              <path class="cls-8" d="M971.13944,526.37756c-.01332-.52619,.0304-1.37384,.39925-2.31289,.87826-2.23597,2.89432-3.19388,3.49524-3.47939,.60002-.28508,1.69256-.70615,3.17214-.73548-.43327,2.39409-1.25396,4.14376-1.88511,4.92022-.44741,.55041-.99811,1.02366-.99816,1.02369-.46912,.40313-.70368,.60468-1.05366,.74906-.66929,.27609-1.30251,.1881-2.00711,.09021-.47743-.06635-.86309-.17241-1.12261-.25543Z"/>
              <path class="cls-8" d="M971.0482,526.34448c.40322-.47807,1.01628-1.10659,1.87879-1.68835,1.30081-.8774,2.49148-1.19149,2.86318-1.28106,1.94722-.46922,3.59916-.12128,4.44845,.12596-.2555,.5446-1.36044,2.7401-3.82212,3.6268-.57212,.20609-1.93097,.67413-3.53149,.20178-.86037-.25393-1.47663-.68694-1.83681-.98513Z"/>
            </g>
            <circle class="cls-27" cx="963.24627" cy="539.01091" r="16.49527"/>
            <path class="cls-20" d="M946.5703,556.40141c.99222,.01229,2.59287-.04096,4.45239-.4702,2.18799-.5051,2.60774-1.0398,5.08209-1.64003,1.94128-.47093,3.53321-.59059,4.82717-.68791,1.02475-.07705,2.63475-.19204,4.74184-.05273,.79252,.05242,2.91018,.22372,5.55002,.88374,1.67231,.4181,1.81976,.59868,3.12257,.90769,2.06701,.49027,3.98563,.57877,5.57588,.51676"/>
          </g>
        </g>
        <g>
          <g>
            <path class="cls-41" d="M873.52228,491.28682c.06393,.68127,.12466,1.34942-.55572,1.902-1.66219,1.33849-6.8587,1.33903-13.23468,.19827,5.67743,6.07701,7.75774,10.40249,1.49747,10.3691-5.91148-.03151-13.06109-7.14995-18.80573-14.37301-2.66246-.11738-3.73262,.22249-4.19064,.57932-1.44677,1.1204,2.17276,2.96424,1.42711,5.11823-.31916,.89801-1.54239,2.21103-3.96679,2.08714-3.28478-.16827-7.06913-2.89438-8.6106-4.41075-.47907-.47197-3.04909-3.10281-1.21686-5.3438,.60803-.755,1.98636-2.48853,6.29158-2.33277,2.83916,.10263,6.07843,.99475,8.73558,2.33764-4.23734-5.54815-7.54533-10.77622-8.60362-12.47719-.6178-.038-1.30184-.09483-2.08636-.19252-2.13177-.26564-2.69277-.5347-4.56211-.75624-1.13769-.13494-2.0776-.17074-2.79548-.17212l24.41874-.31513c-1.21665-.00324-2.60522,.07735-3.91082,.36836-.824,.1835-.84723,.27958-1.8965,.52625-.67899,.15936-1.32775,.27306-1.90184,.35668,6.39751,5.59504,13.19506,11.53164,18.18908,16.57005,1.09331,.31124,2.15463,.51109,2.88577,.39872,.99737-.1537,.78634-.79213,.83975-2.53947,.0601-3.14137,.81021-3.58383,1.38488-3.79633,.95994-.35591,2.82366-.58258,4.70564-.11295,3.70671,.9219,5.77238,4.09934,5.96215,6.01051Z"/>
            <path class="cls-40" d="M822.84543,473.82013l-.74957,.0096c.20877-.00682,.46577-.01024,.74957-.0096Z"/>
          </g>
          <g>
            <path class="cls-27" d="M829.77117,444.8223c-2.8656,.52825-4.32445-.09917-5.12821-.78008-2.32806-1.97212-.44096-5.47752-2.95137-9.35747-1.04653-1.61748-3.27794-3.95016-5.44991-3.6206-2.94462,.44679-4.30397,5.56296-4.53523,8.38447-.07198,.8782-.38178,5.76906,3.21771,9.76052,1.21281,1.3449,3.99809,4.43347,8.03451,3.96299,3.01416-.3513,5.6484-2.56162,6.92683-5.68203l-.11433-2.6678Z"/>
            <path class="cls-27" d="M857.12421,440.11002c-.57373-1.23901-1.1364-2.45419-2.29271-3.42753-3.17088-2.66915-9.04144-2.03476-14.70214,1.24876l.4553,4.27275c1.04119-1.2412,2.50835-2.62645,3.86939-2.33143,1.08719,.23566,1.46273,1.40381,3.10013,4.5729,2.94424,5.69841,4.07953,6.46873,4.83313,6.82944,1.2614,.60378,3.27919,.93384,4.65802,0,2.70817-1.83418,1.68844-7.68888,.0789-11.16488Z"/>
            <path class="cls-27" d="M832.13459,472.64401s-8.6608-54.01192,2.36204-54.6418c11.02284-.62988,7.68812,29.18477,4.75166,54.6418h-7.1137Z"/>
            <path class="cls-20" d="M822.79645,474.04269c.75649,.01179,1.97685-.03931,3.39459-.45127,1.66817-.48476,1.98819-.99793,3.87468-1.57399,1.48007-.45197,2.69379-.56681,3.68033-.66021,.78129-.07394,2.00879-.18431,3.61527-.05061,.60423,.05031,2.21878,.21471,4.23145,.84815,1.275,.40126,1.38742,.57457,2.38071,.87114,1.57593,.47053,3.03872,.55546,4.25116,.49595"/>
          </g>
        </g>
        <g>
          <g>
            <path class="cls-35" d="M873.84432,779.85159c-.85033,1.50922-7.28711,1.04295-11.2801,.37241-5.85713-.98559-10.71082-3.13146-13.9792-4.93323,.75764,.8992,1.53249,1.84005,2.35572,2.84309,4.04397,4.93626,6.02307,7.45467,3.24079,8.84454-3.33332,1.6539-11.92814,.98221-18.37213-1.15584-10.17179-3.39552-12.0353-9.49787-12.12486-9.81639-.97395-3.42139,2.62853-4.09545,.44146-8.48292-1.24495-2.47406-3.09871-3.69801-5.05623-4.41871-1.44328-.53206-2.8649-.76088-3.83986-.8693l-.00068-.00079c3.83531,5.45975,2.63121,9.04124-8.14388,7.6181-9.74969-1.29305-16.71498-6.68601-21.55493-12.58843-.1978,.09011-.3977,.19211-.5864,.31837-2.67312,1.77845,1.65861,4.33312,.13607,6.57687-.95924,1.39606-4.02297,2.4089-7.87843,1.98502-2.88942-.3182-5.29936-1.34459-6.05193-1.66556-5.48408-2.34546-7.21627-5.85413-6.94559-8.02202,.10065-.83702,.41465-3.57529,4.77262-4.08868,3.2262-.38032,6.7572,.6914,11.03495-.07288,.68648-.12254,1.23602-.2666,1.68566-.40505-3.56032-5.70187-5.37467-10.86291-5.82831-12.22379-.17347-.01981-.32559-.0315-.50535-.05385-3.41306-.42115-4.33868-.84755-7.33087-1.19928-1.77143-.20842-3.2399-.26919-4.3658-.27463l37.4543-.47592c-1.63615,.04141-3.39106,.19354-5.04309,.56832-1.28105,.29031-1.30487,.44241-2.93415,.83276-2.05703,.49203-3.96691,.71709-5.11535,.82188,7.761,4.6928,15.94853,10.75318,21.69284,16.21863l-.11538-.12852c5.46288,.94922,14.36194,2.90328,22.82957,6.80346,3.96751,1.81793,6.87944,3.62428,9.34972,5.61663,4.11549,.2617,13.87297,1.20297,22.79036,4.99428,.6938,.29376,10.39241,4.43578,9.26846,6.46142Z"/>
            <path class="cls-37" d="M763.66702,738.13864l-1.27271,.01616c.35225-.01173,.78362-.01864,1.27271-.01616Z"/>
            <path class="cls-38" d="M802.22495,737.64874l-1.10362,.01399c.3743-.00958,.74467-.01502,1.10362-.01399Z"/>
          </g>
          <g>
            <path class="cls-27" d="M817.32832,658.193c-7.94721,3.60029-9.41009,13.65716-9.57287,14.90658l.96026,7.54456c3.01684-.45851,12.41278-2.2868,17.38347-10.15926,.3546-.56161,5.24091-8.47483,2.12964-12.09514-2.31824-2.69754-7.84656-1.58023-10.90051-.19674Z"/>
            <path class="cls-27" d="M745.94642,690.62503c-3.13852,4.48838-1.63251,10.92447,.60409,14.84344,.86367,1.51331,3.68918,6.46415,8.41416,7.20594,3.503,.54994,5.93804-1.54516,10.83054-.34516,1.36897,.33578,2.43882,.80895,3.11442,1.14671l-1.36191-9.86415c-.48615-.19043-1.20571-.51975-1.96825-1.0775-4.2507-3.10891-2.46852-7.92535-6.01399-11.92756-2.20541-2.48953-6.05668-4.19493-9.34725-3.26112-2.46851,.70049-3.84228,2.66514-4.2718,3.27941Z"/>
            <path class="cls-27" d="M790.28968,692.79998c.82978-.23804,1.9697-.7135,2.83228-1.73961,1.1683-1.3898,1.74093-3.68629,.50868-8.2222-2.18498-8.0428-6.23702-9.11069-8.5876-15.35239-.21885-.58116-4.23567-11.72018,2.00736-18.30461,3.932-4.147,11.21266-5.72684,15.87522-2.87016,3.91847,2.40077,4.53937,7.04751,5.61168,16.16166,1.48307,12.60543,2.40102,20.40767-2.27892,28.60323-4.24191,7.42854-10.89629,11.35113-15.24961,13.30609l-.71908-11.582Z"/>
            <path class="cls-27" d="M774.13175,736.03554s-18.48607-49.9766,1.07552-56.68988c19.56159-6.71328,18.28853,32.82046,10.4713,55.44668,0,0-5.89962,2.79552-11.54682,1.2432Z"/>
            <path class="cls-20" d="M761.93542,738.72049c1.19833,.01868,3.13147-.06227,5.37726-.71484,2.64249-.76789,3.14943-1.58078,6.13776-2.49331,2.34453-.71594,4.26715-.89787,5.82989-1.04582,1.23762-.11713,3.18205-.29196,5.72683-.08016,.95714,.07969,3.5147,.34012,6.7029,1.34353,2.01969,.63562,2.19777,.91016,3.77121,1.37994,2.49637,.74534,4.81355,.87989,6.73413,.78562"/>
          </g>
        </g>
        <g>
          <g>
            <path class="cls-39" d="M424.71984,825.55438c-2.32634,2.22175-8.19211,6.22449-13.58347,6.49649-3.98423,.20087-6.10795-1.70347-6.69389-3.01009-1.32853-3.13534,4.45218-5.85244,2.08649-7.47583-.74238-.51725-2.46182-1.0053-6.72843-.81417-9.24718,10.58393-20.84356,21.02729-30.81404,21.12604-10.56508,.10462-6.9835-6.22477,2.69287-15.1474-10.49269,1.71581-18.98807,1.75604-21.51713-.18702-1.02192-.80259-.81519-1.78009-.59687-2.7768,.65354-2.79667,4.59658-7.46027,10.65782-8.83536,3.0644-.69971,5.96181-.38106,7.41503,.13238,.87244,.30686,1.98802,.94862,1.64307,5.54029-.11308,2.55323-.51868,3.48763,1.08028,3.70461,1.17045,.15826,2.8972-.13613,4.68478-.59712,8.44622-7.39734,19.77926-16.12592,30.31924-24.34324-.85524-.11893-1.81785-.28157-2.81802-.51053-1.54247-.35454-1.5608-.49494-2.77046-.75856-1.91136-.41836-3.98417-.52854-5.81496-.51692l36.61066,.32258c-1.06919,.00893-2.46092,.06969-4.13525,.26784-2.83147,.33435-3.69702,.73031-6.93691,1.13049-1.194,.14714-2.23361,.23434-3.17131,.29337-1.75943,2.49077-7.20185,10.14505-14.05636,18.2725,4.23786-1.97754,9.3641-3.3001,13.83819-3.46944,6.77875-.25708,9.04121,2.26137,10.05687,3.35801,3.12461,3.25302-.72661,7.10666-1.44822,7.79788Z"/>
            <path class="cls-36" d="M431.78109,797.91436l-1.20827-.01062c.4639-.0039,.87333,.00108,1.20827,.01062Z"/>
          </g>
          <g>
            <path class="cls-27" d="M421.00871,754.40005c4.29388,.79154,6.47985-.1486,7.68422-1.16889,3.48841-2.95506,.66074-8.20764,4.4224-14.02143,1.56814-2.42367,4.91174-5.919,8.16626-5.42518,4.41228,.66948,6.44916,8.33566,6.79568,12.56347,.10785,1.31592,.57207,8.64449-4.82149,14.62538-1.8173,2.01523-5.99082,6.64321-12.03909,5.93824-4.51648-.5264-8.46368-3.83838-10.37931-8.51408,.05711-1.33247,.11421-2.66502,.17132-3.9975Z"/>
            <path class="cls-27" d="M380.02231,747.33906c.85968-1.85656,1.70281-3.67741,3.43545-5.13589,4.75131-3.99951,13.54789-3.04894,22.03001,1.87117l-.68223,6.40238c-1.56014-1.85984-3.75856-3.93554-5.79797-3.49347-1.62907,.35312-2.19179,2.10351-4.6453,6.85213-4.41172,8.53861-6.11286,9.69289-7.24206,10.23338-1.8901,.90472-4.91361,1.39928-6.97967,0-4.05798-2.74838-2.52999-11.52119-.11823-16.7297Z"/>
            <path class="cls-27" d="M417.46731,796.0887s12.97754-80.93264-3.53933-81.87646-11.52005,43.7311-7.12,81.87646h10.65932Z"/>
            <path class="cls-20" d="M431.45979,798.18451c-1.13354,.01767-2.96216-.0589-5.08653-.67619-2.49962-.72637-2.97915-1.49531-5.80591-2.3585-2.21777-.67723-4.03644-.84932-5.51468-.98927-1.17071-.1108-3.01001-.27617-5.4172-.07583-.90539,.07538-3.32467,.32173-6.34049,1.27089-1.91049,.60126-2.07894,.86095-3.56731,1.30533-2.3614,.70505-4.55329,.83232-6.37004,.74315"/>
          </g>
        </g>
      </g>
    </g>
  </g>
</svg>