<?xml version="1.0" encoding="UTF-8"?>
<svg id="Layer_2" data-name="Layer 2" xmlns="http://www.w3.org/2000/svg" viewBox="0 0 704.48999 6034.05981">
  <defs>
    <style>
      .cls-1 {
        fill: none;
        stroke-width: 3.843px;
      }

      .cls-1, .cls-2 {
        stroke: #fff;
        stroke-miterlimit: 10;
      }

      .cls-3 {
        fill: #002f73;
      }

      .cls-4, .cls-2 {
        fill: #006845;
      }

      .cls-5 {
        fill: #ef9747;
      }

      .cls-6 {
        fill: #fff;
      }

      .cls-7 {
        fill: #939598;
      }

      .cls-8 {
        fill: #ba0025;
      }

      .cls-9 {
        fill: #e28f43;
      }

      .cls-2 {
        stroke-width: 4.72985px;
      }
    </style>
  </defs>
  <g id="EVERYTHING_ELSE" data-name="EVERYTHING ELSE">
    <g>
      <g>
        <polygon class="cls-9" points="199.35999 641.46991 131.16848 327.13411 139.32353 156.45631 119.01186 0 0 0 0 6034.05981 345.56 6034.05981 342.35999 6011.46997 313.14001 5805.17017 219.67999 5406.53003 141.46997 5190.98999 149.09998 4906.78979 223.48999 4658.82983 454.28998 4584.43994 586.20996 4468.08984 586.20996 4302.1499 505.34514 3766.499 505.28455 3707.7607 474.39085 3635.99246 477.39996 3457.40991 537.94 3352.25 540.39001 3348 572.92999 3196.88989 569.45001 2568.16992 561.58997 2551.41992 477.39996 2371.90991 477.39996 2203.43994 548.57996 2006.99994 564.23999 1963.7699 586.20996 1881.37994 687.07001 1780.25989 704.48999 1538.88995 580.07001 1426.91992 567.63 1344.65991 580.07001 1158.17993 467.92999 1003.28992 460.20001 991.50995 373.85429 859.92237 233.47961 760.29201 199.35999 641.46991"/>
        <polygon class="cls-5" points="139.32353 156.45631 131.16848 327.13411 112.60532 332.1046 67.85999 323.62214 71.6763 160.95584 116.70275 169.37071 139.32353 156.45631"/>
        <polygon class="cls-5" points="233.47961 760.29201 198.55045 749.56071 142.55323 770.1087 67.85999 676.17489 199.35999 641.46991 233.47961 760.29201"/>
        <polygon class="cls-5" points="373.85429 859.92237 467.92999 1003.28992 304.05864 974.37456 296.34233 919.50302 349.68123 897.58375 373.85429 859.92237"/>
        <polygon class="cls-5" points="567.63 1344.65991 580.07001 1158.17993 457.89933 1137.30611 400.69405 1155.89052 296.34233 1149.9325 224.69133 1130.43101 65.18886 1182.81525 65.18886 1285.64505 165.36499 1265.18309 213.02446 1291.95996 315.44273 1285.64505 406.19414 1322.93399 501.07061 1311.37403 567.63 1344.65991"/>
        <polyline class="cls-5" points="580.07001 1426.91992 496.94554 1448.71736 403.4441 1437.81864 322.62943 1456.31105 278.31716 1448.71736 209.5661 1461.81114 128.43984 1448.71736 98.18937 1536.21896 186.66998 1562.07469 275.56712 1541.89156 369.06856 1555.31258 466.69507 1548.43748 545.07129 1522.31207 627.57256 1544.31241 704.48999 1538.88995"/>
        <polygon class="cls-5" points="586.20996 1881.37994 687.07001 1780.25989 677.33997 1701.96231 586.20996 1692.81471 533.16847 1716.19007 437.91303 1710.80681 366.53464 1754.72553 253.45193 1773.16294 173.29664 1769.28548 116.97998 1794.56629 25.31324 1792.76279 98.18937 1952.69373 210.94112 1921.06824 322.62943 1916.94318 468.0701 1872.9872 586.20996 1881.37994"/>
        <polygon class="cls-5" points="477.39996 2371.90991 477.39996 2203.43994 447.99308 2181.62143 376.13678 2190.92073 347.90753 2177.14397 256.3763 2196.81891 281.18383 2356.7847 401.26848 2346.65731 434.43072 2374.55129 477.39996 2371.90991"/>
        <polygon class="cls-5" points="477.39996 3457.40991 540.39001 3348 437.56972 3345.13628 362.4121 3364.46252 352.245 3419.86442 407.0772 3420.2939 428.55081 3440.47909 450.02442 3437.47278 477.39996 3457.40991"/>
        <polygon class="cls-5" points="474.39085 3635.99246 431.60656 3626.91506 384.09818 3643.7499 337.25013 3635.99246 352.245 3704.82824 426.48268 3735.68435 462.21081 3711.32426 505.28455 3707.7607 474.39085 3635.99246"/>
        <polygon class="cls-5" points="586.20996 4468.08984 515.7293 4482.07938 476.80354 4448.29265 561.39695 4303.53408 586.20996 4323.14959 586.20996 4468.08984"/>
        <polygon class="cls-5" points="223.48999 4658.82983 204.45552 4640.05981 208.74579 4576.83066 382.93062 4507.45643 407.01154 4541.0389 438.23541 4552.62453 454.28998 4584.43994 223.48999 4658.82983"/>
        <polygon class="cls-5" points="149.09998 4906.78979 117.79213 4943.21946 76.64689 4943.21946 46.5737 5077.07578 58.58645 5145.72005 106.09562 5153.14329 115.21797 5175.75192 141.46997 5190.98999 149.09998 4906.78979"/>
        <polygon class="cls-5" points="219.67999 5406.53003 184.28661 5414.56122 180.05414 5438.89791 128.15997 5463.2346 194.56385 5698.40062 234.01811 5798.42298 284.80773 5787.65076 313.14001 5805.17017 219.67999 5406.53003"/>
      </g>
      <g>
        <g>
          <rect class="cls-7" x="168.41599" y="161.5137" width="35.57163" height="10.21909" transform="translate(352.82505 -19.57857) rotate(90)"/>
          <rect class="cls-7" x="241.91509" y="161.5137" width="35.57163" height="10.21909" transform="translate(426.32415 -93.07767) rotate(90)"/>
        </g>
        <g>
          <rect class="cls-7" x="116.38831" y="64.67756" width="60.94074" height="10.21909"/>
          <rect class="cls-7" x="116.38831" y="119.35082" width="60.94074" height="10.21909"/>
        </g>
        <g>
          <rect class="cls-2" x="159.06617" y="33.23854" width="127.77038" height="127.77038" rx="17.7682" ry="17.7682"/>
          <g>
            <path class="cls-3" d="M269.78981,98.56042c-6.0424,29.43737-30.41883,43.23079-46.94373,46.7427,0,0-21.89329-3.32271-36.63859-23.67287-12.3567-17.05111-12.47495-33.83024-10.28147-46.74274,.34289-2.01608,.80998-3.97305,1.36574-5.83544h91.24461c2.3886,7.97573,3.61245,18.00298,1.25344,29.50835Z"/>
            <path class="cls-8" d="M268.57366,69.05208h-91.24461c3.48236-11.76547,10.32878-20.10773,10.32878-20.10773,0,0,15.77995,5.91819,35.22554,0,0,0,15.49025,6.10739,35.19006,0,0,0,6.71045,7.47313,10.50023,20.10773Z"/>
            <path class="cls-1" d="M268.57366,69.05208h-91.24461c3.48236-11.76547,10.32878-20.10773,10.32878-20.10773,0,0,15.77995,5.91819,35.22554,0,0,0,15.49025,6.10739,35.19006,0,0,0,6.71045,7.47313,10.50023,20.10773Z"/>
            <path class="cls-1" d="M269.78981,98.56042c-6.0424,29.43737-30.41883,43.23079-46.94373,46.7427,0,0-21.89329-3.32271-36.63859-23.67287-12.3567-17.05111-12.47495-33.83024-10.28147-46.74274,.34289-2.01608,.80998-3.97305,1.36574-5.83544h91.24461c2.3886,7.97573,3.61245,18.00298,1.25344,29.50835Z"/>
            <g>
              <path class="cls-6" d="M222.94653,87.19207c-.47128,.56661-.91274,1.09647-1.35325,1.62713-2.50168,3.01374-5.63878,4.68357-9.62689,4.61688-4.01329-.06711-8.02716-.10321-12.04091-.13882-1.93325-.01716-3.8749-.23579-5.78864,.26419-1.55223,.40553-2.93468,1.05379-3.61493,2.61668-.2414,.5546-.38101,1.18728-.41256,1.79237-.06435,1.23392-.78436,2.08758-1.90955,2.10857-1.13424,.02116-1.93447-.79332-1.99113-2.02659-.13805-3.00436,1.82082-6.11008,4.66299-7.43133,2.32137-1.07915,4.77186-1.33551,7.29516-1.25459,3.71333,.11909,7.42766,.21785,11.14233,.27831,1.19699,.01948,2.39595-.14773,3.59479-.1615,2.0975-.0241,3.67633-1.05827,5.07834-2.48281q1.25785-1.27805,.45572-2.86174c-.36376-.72068-.74044-1.43699-1.05942-2.17761-.43737-1.01551-.27311-1.8765,.40913-2.4739,.68825-.60266,1.51569-.62883,2.50069-.0791q2.63229,1.46908,5.31017,.02275c.60986-.33132,1.21275-.56525,1.90807-.31705,1.17356,.4189,1.61941,1.61837,1.03159,2.92378-.45408,1.00839-.94388,2.00433-1.48349,2.96906-.27523,.49207-.2532,.83794,.16349,1.19813,.20822,.18,.38645,.39645,.56793,.60537,1.61133,1.85494,3.63683,2.76863,6.10078,2.73534,4.0827-.05515,8.16574-.08457,12.24848-.1378,2.42091-.03156,4.83957-.18072,7.21231,.54593,3.26534,1.00001,5.45712,3.02232,6.22358,6.40379,.16415,.72414,.15656,1.51906,.06491,2.26122-.11323,.91694-1.02142,1.5136-1.98365,1.45947-.91771-.05162-1.66709-.74586-1.77625-1.64553-.38888-3.20508-1.55647-4.57941-4.77494-4.97407-2.13608-.26194-4.32666-.14801-6.49057-.09991-4.01372,.08922-8.02073,.28463-12.03938-.01429-2.93755-.21851-5.29313-1.47855-7.28918-3.53481-.80135-.82552-1.53542-1.71634-2.33572-2.61753Z"/>
              <path class="cls-6" d="M237.71775,104.59517c2.26335-4.48201,5.90871-6.46303,10.74197-6.44989,.41305,.00112,.82763,.06669,1.2385,.12379,1.20428,.16734,1.92166,1.06689,1.7776,2.21385-.13678,1.089-1.13907,1.80677-2.33023,1.62256-2.06935-.32002-3.94544,.15622-5.6426,1.34584-1.30402,.91405-2.22119,2.04001-2.15279,3.78109,.04143,1.05421-.84276,1.89684-1.89954,1.88617-.54012-.00545-1.13934-.08031-1.60679-.32474-1.92644-1.00734-3.74507-.46521-5.38831,.51207-1.0751,.63939-2.02023,1.61913-2.7929,2.62383-3.09701,4.02696-4.51009,8.67262-4.76598,13.70659-.05312,1.04491-.64756,1.73313-1.59016,1.89833-.88009,.15425-1.77658-.29177-2.08769-1.11184-.14345-.37813-.18529-.80689-.20907-1.21642-.20048-3.45264-.98357-6.75738-2.56942-9.83988-1.0266-1.99547-2.20194-3.90054-3.92193-5.40131-1.2551-1.09514-2.77537-1.52968-4.38107-1.68575-.4344-.04222-.89941,.13359-1.33799,.25432-.6417,.17663-1.25954,.47615-1.91018,.57641-1.29864,.20011-2.3453-.72346-2.3083-2.03109,.031-1.09569-.3498-1.99878-1.10285-2.73794-1.821-1.78743-3.9975-2.60136-6.55632-2.24777-1.31628,.18189-2.27593-.43907-2.4487-1.62605-.16633-1.14271,.56306-2.03243,1.8537-2.20521,3.99514-.53484,7.38881,.69898,10.13485,3.61364,.71191,.75562,1.19345,1.72829,1.83675,2.68441,1.91145-.49437,3.85602-.01626,5.75608,.67564,2.51497,.9158,4.32775,2.72602,5.7448,4.90747,1.05148,1.61867,1.90965,3.36304,2.84988,5.05367,.10815,.19447,.1903,.40341,.24151,.51333,1.02753-1.78321,1.99346-3.61698,3.10834-5.3552,1.45663-2.27105,3.29322-4.18041,5.9083-5.12488,1.8791-.67866,3.80115-1.1751,5.81053-.63503Z"/>
            </g>
          </g>
        </g>
        <g>
          <rect class="cls-4" x="148.59249" y="177.26977" width="148.71789" height="47.15224" rx="9.80372" ry="9.80372"/>
          <g>
            <path class="cls-6" d="M172.11957,200.2733c0,4.8208-1.69434,8.63916-5.56055,8.63916-3.88965,0-5.53613-3.79492-5.53613-8.59131,0-4.8208,1.69434-8.63916,5.58398-8.63916,3.86621,0,5.5127,3.79443,5.5127,8.59131Zm-3.05469,.04785c0-3.55615-.74023-5.65625-2.50586-5.65625-1.79004,0-2.48145,2.05225-2.48145,5.6084,0,3.55566,.73926,5.65576,2.5293,5.65576,1.76562,0,2.45801-2.05225,2.45801-5.60791Z"/>
            <path class="cls-6" d="M182.59711,198.6981l-2.26758,1.52734c-.42969-1.02588-.93066-1.69434-1.76562-1.69434-1.26562,0-1.79004,1.50342-1.79004,3.84229s.57227,3.86621,1.88477,3.86621c.81152,0,1.4082-.7876,1.81445-1.83789l2.07617,1.50342c-.74023,1.74219-1.98145,3.00732-3.91406,3.00732-2.76855,0-4.72559-2.26758-4.72559-6.49121,0-4.22412,1.98145-6.56299,4.70117-6.56299,1.93359,0,3.22266,.97852,3.98633,2.83984Z"/>
            <path class="cls-6" d="M190.99652,205.64292l-.33398,2.7207c-.62012,.33398-1.3125,.54883-2.14746,.54883-2.02832,0-3.03125-1.09814-3.03125-3.84229v-6.27637h-1.55078v-2.67285h1.55078v-3.46045l2.81641-1.4082v4.86865h2.5293v2.67285h-2.5293v6.20459c0,.93066,.3584,1.24121,1.02637,1.24121,.54883,0,1.12109-.19092,1.66992-.59668Z"/>
            <path class="cls-6" d="M202.04535,202.37339c0,4.22412-1.95605,6.53906-4.74902,6.53906-2.81543,0-4.74902-2.26758-4.74902-6.49121,0-4.22412,1.95703-6.56299,4.77344-6.56299,2.79199,0,4.72461,2.29102,4.72461,6.51514Zm-2.86328,.04785c0-2.31494-.57324-3.89014-1.90918-3.89014-1.36035,0-1.86133,1.50342-1.86133,3.84229s.54883,3.86621,1.90918,3.86621c1.33594,0,1.86133-1.71826,1.86133-3.81836Z"/>
            <path class="cls-6" d="M213.07172,202.37339c0,3.81836-1.14551,6.53906-3.89062,6.53906-.83496,0-1.62207-.38184-2.1709-.95459v.69189h-2.81641v-15.98926l2.81641-1.4082v5.72754c.62012-.66797,1.50293-1.12158,2.41016-1.12158,2.33887,0,3.65137,2.1001,3.65137,6.51514Zm-2.86426,.09521c0-2.74414-.28613-3.98535-1.45508-3.98535-.69238,0-1.4082,.54883-1.74219,1.05029v5.67969c.38184,.54883,1.00195,1.07373,1.79004,1.07373,1.00195,0,1.40723-.90674,1.40723-3.81836Z"/>
            <path class="cls-6" d="M224.00141,202.39732c0,.33398-.02344,.71582-.04785,1.0498h-6.32422c.12012,1.93311,.90723,2.79248,2.00488,2.79248,1.00195,0,1.4082-.3584,1.95703-1.09814l2.00488,1.50342c-.93066,1.52734-2.36328,2.26758-4.00977,2.26758-3.10254,0-4.79688-2.64941-4.79688-6.51514,0-4.2002,1.90918-6.53906,4.62988-6.53906,3.15039,0,4.58203,3.10254,4.58203,6.53906Zm-2.81543-1.26514c-.14355-1.52734-.57324-2.74414-1.79004-2.74414-1.05078,0-1.62305,.90674-1.7666,2.74414h3.55664Z"/>
            <path class="cls-6" d="M233.23676,196.50279l-.81152,2.74414c-.47754-.38184-.97852-.62061-1.64648-.62061-.74023,0-1.33691,.38184-1.81348,1.07422v8.94922h-2.81641v-12.52881h2.81641v.85889c.47656-.54883,1.36035-1.12158,2.29102-1.12158,.83496,0,1.38379,.21484,1.98047,.64453Z"/>
            <path class="cls-6" d="M244.78754,208.64976h-2.9834v-12.43359h-2.2666v-1.86133c1.64648-.16699,2.3623-1.16943,2.69629-2.41016h2.55371v16.70508Z"/>
            <path class="cls-6" d="M257.43598,203.01792c0,3.74658-2.07617,5.89453-5.65625,5.89453-1.69434,0-3.41211-.69238-4.60547-1.81396l1.66992-2.26709c1.14551,.85938,1.93359,1.14551,3.0791,1.14551,1.71777,0,2.50586-1.09766,2.50586-2.79199,0-1.6709-.74023-2.48193-1.95703-2.48193-.78711,0-1.47949,.33398-2.10059,.93066l-2.43359-1.14551,.40527-8.54346h8.2334v2.88721h-5.58398l-.21484,3.65137c.59668-.38184,1.26465-.62061,2.3623-.62061,2.43457,0,4.2959,1.69482,4.2959,5.15527Z"/>
            <path class="cls-6" d="M265.54926,201.44273h-6.08496v-2.91162h6.08496v2.91162Z"/>
            <path class="cls-6" d="M271.87445,208.64976h-2.9834v-12.43359h-2.2666v-1.86133c1.64648-.16699,2.3623-1.16943,2.69629-2.41016h2.55371v16.70508Z"/>
            <path class="cls-6" d="M284.92719,203.06529c0,3.79443-2.12402,5.84717-5.22559,5.84717-2.93555,0-5.13184-1.95703-5.13184-6.75391,0-5.70361,2.53027-10.02344,8.47266-10.47656v2.98291c-3.46094,.19092-4.94043,2.36279-5.48926,4.46289,.81152-.90674,1.6709-1.26514,3.10254-1.26514,2.19531,0,4.27148,1.76611,4.27148,5.20264Zm-2.91113,.19092c0-1.55127-.71582-2.69678-2.17188-2.69678-1.64648,0-2.3623,1.21729-2.3623,2.62549,0,1.59863,.62012,2.95898,2.38672,2.95898,1.45508,0,2.14746-1.33643,2.14746-2.8877Z"/>
          </g>
          <path class="cls-6" d="M287.50662,226.12641H158.3961c-6.34582,0-11.50838-5.16256-11.50838-11.50838v-27.54473c0-6.34582,5.16256-11.50838,11.50838-11.50838h129.11052c6.34582,0,11.50838,5.16256,11.50838,11.50838v27.54473c0,6.34582-5.16256,11.50838-11.50838,11.50838Zm-129.11052-47.15219c-4.46605,0-8.09908,3.63303-8.09908,8.09908v27.54473c0,4.46605,3.63303,8.09908,8.09908,8.09908h129.11052c4.46605,0,8.09908-3.63303,8.09908-8.09908v-27.54473c0-4.46605-3.63303-8.09908-8.09908-8.09908H158.3961Z"/>
        </g>
      </g>
    </g>
  </g>
</svg>