<?xml version="1.0" encoding="UTF-8"?>
<svg id="Layer_2" data-name="Layer 2" xmlns="http://www.w3.org/2000/svg" xmlns:xlink="http://www.w3.org/1999/xlink" viewBox="0 0 815.72395 7149.6819">
  <defs>
    <style>
      .cls-1 {
        fill: url(#linear-gradient);
      }

      .cls-2 {
        fill: #d65e72;
        stroke: #d65e72;
      }

      .cls-2, .cls-3, .cls-4, .cls-5, .cls-6, .cls-7, .cls-8 {
        stroke-miterlimit: 10;
      }

      .cls-2, .cls-8 {
        stroke-width: 1.14508px;
      }

      .cls-3 {
        stroke: #965f2d;
        stroke-width: 6px;
      }

      .cls-3, .cls-4, .cls-5, .cls-6, .cls-7, .cls-9, .cls-8, .cls-10 {
        fill: none;
      }

      .cls-11 {
        fill: #e9cc87;
      }

      .cls-12 {
        fill: #e4c16d;
      }

      .cls-13 {
        fill: #fff;
      }

      .cls-14 {
        fill: #7e7370;
      }

      .cls-15 {
        fill: #30150f;
      }

      .cls-16 {
        fill: #903f2e;
      }

      .cls-17 {
        fill: #af6f34;
      }

      .cls-18 {
        fill: #bc7738;
      }

      .cls-19 {
        fill: #bd703c;
      }

      .cls-20 {
        fill: #d5a277;
      }

      .cls-21 {
        fill: #e0b15b;
      }

      .cls-22 {
        fill: #d6cb88;
      }

      .cls-23 {
        fill: #1e2336;
      }

      .cls-24, .cls-25 {
        fill: #201f20;
      }

      .cls-26 {
        fill: #965f2d;
      }

      .cls-27 {
        fill: #895729;
      }

      .cls-28 {
        fill: #6e3d37;
      }

      .cls-29 {
        fill: #4b2820;
      }

      .cls-30 {
        fill: #57673d;
      }

      .cls-31 {
        fill: #547347;
      }

      .cls-32 {
        fill: #61422c;
      }

      .cls-33 {
        fill: #7c4f25;
      }

      .cls-4, .cls-5 {
        stroke-width: .70179px;
      }

      .cls-4, .cls-8 {
        stroke: #b5b46c;
      }

      .cls-5 {
        stroke: #201f20;
      }

      .cls-6 {
        stroke: #1e2336;
      }

      .cls-6, .cls-7 {
        stroke-width: 1.76561px;
      }

      .cls-6, .cls-7, .cls-9, .cls-10 {
        stroke-linecap: round;
      }

      .cls-7 {
        stroke: #444a63;
      }

      .cls-9 {
        stroke-width: 4.04101px;
      }

      .cls-9, .cls-10 {
        stroke: #6c8241;
        stroke-linejoin: round;
      }

      .cls-34 {
        fill: url(#linear-gradient-3);
      }

      .cls-35 {
        fill: url(#linear-gradient-2);
      }

      .cls-10 {
        stroke-width: 3.56605px;
      }

      .cls-36 {
        fill: #8b7f7b;
        opacity: .5;
      }

      .cls-25 {
        opacity: .4;
      }
    </style>
    <linearGradient id="linear-gradient" x1="354.28271" y1="1851.86202" x2="354.28271" y2="2059.09526" gradientTransform="matrix(1, 0, 0, 1, 0, 0)" gradientUnits="userSpaceOnUse">
      <stop offset=".0228" stop-color="#486e37"/>
      <stop offset=".15569" stop-color="#426431"/>
      <stop offset=".37582" stop-color="#334b22"/>
      <stop offset=".56742" stop-color="#233012"/>
    </linearGradient>
    <linearGradient id="linear-gradient-2" x1="123.47342" y1="822.54654" x2="122.70306" y2="1011.81408" xlink:href="#linear-gradient"/>
    <linearGradient id="linear-gradient-3" x1="-9825.46589" y1="2954.76787" x2="-9826.23624" y2="3144.03541" gradientTransform="translate(-9719.35581) rotate(-180) scale(1 -1)" xlink:href="#linear-gradient"/>
  </defs>
  <g id="EVERYTHING_ELSE" data-name="EVERYTHING ELSE">
    <g>
      <g>
        <g>
          <path class="cls-2" d="M603.99424,6172.72166c1.18235-.87972,2.88278-2.33398,4.44101-4.50748,1.27903-1.7841,5.3204-7.42111,3.54476-13.89425-1.15963-4.22749-4.23582-6.75338-5.73732-7.8127-2.8301,5.04705-4.21437,9.52416-4.94164,12.63048-1.89132,8.07837-.23311,10.70495,.37028,11.5253,.75848,1.03112,1.66345,1.6733,2.32292,2.05866Z"/>
          <path class="cls-2" d="M603.14516,6172.85374c.93139-1.13093,2.3139-3.14063,2.85976-5.925,1.15339-5.88324-2.33197-10.64686-3.57813-12.37003-2.26522-3.13228-5.01034-4.93425-6.8798-5.9177-1.1782,2.82654-2.70415,7.76251-1.69691,13.58605,.23728,1.37181,.58464,2.61674,.98037,3.727l.0003,.00082c.5646,1.56907,.84684,2.35361,1.47584,3.15742,1.08269,1.38351,2.55333,1.98481,4.58804,2.87928,.91902,.40401,1.7044,.68289,2.25052,.86216Z"/>
          <path class="cls-2" d="M603.79214,6172.73748c.03592-1.41859-.08197-3.70387-1.07638-6.23552-2.36778-6.02816-7.80307-8.61067-9.42315-9.38041-1.61764-.76857-4.56312-1.90379-8.55207-1.98286,1.16809,6.45445,3.38067,11.17155,5.08223,13.26488,1.20622,1.4839,2.6909,2.75977,2.69103,2.75986,1.26475,1.08684,1.89712,1.63021,2.84065,2.01947,1.80439,.74434,3.51156,.50712,5.41115,.24321,1.28714-.17887,2.32689-.46483,3.02653-.68863Z"/>
          <path class="cls-2" d="M604.03812,6172.6483c-1.08708-1.28887-2.73988-2.98336-5.0652-4.55177-3.50697-2.36546-6.71701-3.21226-7.71911-3.45372-5.24968-1.265-9.70331-.32698-11.99299,.33958,.68881,1.46824,3.66773,7.38729,10.3044,9.77782,1.54244,.5556,5.20589,1.81746,9.52088,.54399,2.31956-.68459,3.98098-1.85199,4.95202-2.65591Z"/>
        </g>
        <circle class="cls-31" cx="625.07204" cy="6206.79688" r="44.47109"/>
        <line class="cls-8" x1="656.38791" y1="6176.79213" x2="655.78207" y2="6238.03427"/>
        <line class="cls-8" x1="641.59651" y1="6165.49891" x2="640.77081" y2="6248.96643"/>
        <line class="cls-8" x1="626.71787" y1="6162.3604" x2="625.8649" y2="6248.58489"/>
        <line class="cls-8" x1="610.69494" y1="6165.41032" x2="609.87197" y2="6248.6022"/>
        <line class="cls-8" x1="594.362" y1="6176.17854" x2="593.75617" y2="6237.42068"/>
        <path class="cls-20" d="M670.03033,6253.68151c-2.67502,.03313-6.99035-.11043-12.00361-1.26766-5.89881-1.36173-7.03043-2.80328-13.70126-4.42151-5.23366-1.26962-9.52551-1.59223-13.01399-1.8546-2.76273-.20771-7.10327-.51774-12.78395-.14216-2.13661,.14132-7.84582,.60315-14.96281,2.38255-4.50852,1.12718-4.90605,1.61404-8.41843,2.44712-5.57263,1.32176-10.74523,1.56036-15.03253,1.39319"/>
        <polygon class="cls-22" points="610.28345 6238.92932 619.83146 6233.7134 610.3549 6228.46249 610.28345 6238.92932"/>
        <polygon class="cls-22" points="626.29138 6219.63326 635.83939 6214.41734 626.36283 6209.16643 626.29138 6219.63326"/>
        <polygon class="cls-22" points="641.18366 6199.71731 650.73167 6194.50139 641.25511 6189.25048 641.18366 6199.71731"/>
        <polygon class="cls-22" points="627.00645 6187.22265 617.45844 6182.00673 626.935 6176.75582 627.00645 6187.22265"/>
        <polygon class="cls-22" points="594.16816 6217.88003 584.62015 6212.66411 594.09671 6207.4132 594.16816 6217.88003"/>
        <polygon class="cls-22" points="656.08499 6228.00172 646.53698 6222.78579 656.01354 6217.53488 656.08499 6228.00172"/>
        <polygon class="cls-22" points="610.28345 6202.75905 600.73544 6197.54313 610.212 6192.29222 610.28345 6202.75905"/>
      </g>
      <g>
        <g>
          <polygon class="cls-32" points="263.02154 865.33717 331.74336 822.94099 430.13583 813.75782 468.48615 831.13447 484.47952 863.45647 477.50087 828.08795 509.60441 809.59173 474.14894 819.12064 440.32233 804.74485 462.80934 774.3269 486.59582 783.83973 513.42444 778.94672 532.51811 795.04867 517.06991 770.27751 486.96321 775.51527 458.49701 764.83744 427.21562 799.86823 323.27435 802.67334 248.97505 848.60215 263.02154 865.33717"/>
          <polygon class="cls-32" points="72.04493 324.11641 124.46135 311.66076 187.33317 327.91655 254.62226 318.84592 293.02542 326.4776 253.11183 311.44149 195.32913 316.44585 202.65503 292.43357 226.36377 279.71953 251.77654 283.02714 217.88764 270.26063 196.00569 284.80208 184.489 315.3733 124.35676 299.39289 65.63589 309.1704 72.04493 324.11641"/>
          <polygon class="cls-32" points="75.82466 4852.72901 156.55734 4824.06974 258.73121 4839.01077 363.5549 4813.15807 425.57128 4818.65204 359.9002 4801.71102 269.40919 4819.50891 276.88204 4780.29502 312.18723 4756.13915 352.92757 4757.01995 297.16911 4742.63606 265.06451 4769.36829 252.08879 4819.66808 154.29295 4804.69366 63.1355 4830.19783 75.82466 4852.72901"/>
          <polygon class="cls-32" points="450.55829 3597.72734 468.80973 3572.13743 530.13204 3589.14617 544.17282 3577.38202 603.9042 3598.2057 538.92708 3557.80182 519.83128 3571.9001 477.8593 3556.28037 492.58279 3535.63692 518.79868 3554.33483 567.38379 3538.50073 661.10238 3584.55505 562.47447 3519.0978 517.53341 3536.60362 486.39986 3509.44865 436.51255 3577.81012 331.28496 3570.074 338.02998 3598.64304 450.55829 3597.72734"/>
          <g>
            <polygon class="cls-32" points="380.90898 2290.89648 424.80694 2282.73996 436.3016 2295.90447 432.3217 2327.52875 446.13398 2293.69836 440.0116 2279.91483 559.41898 2257.72829 610.8815 2269.33661 672.27122 2295.99659 772.47923 2278.67372 674.51273 2281.76938 619.61405 2256.45285 602.16409 2252.01398 659.73596 2222.19443 710.61315 2242.04037 731.21669 2218.94845 707.95907 2229.84378 658.10624 2207.74012 576.01892 2245.36312 558.67615 2240.95154 379.28072 2266.39617 292.36752 2209.64803 292.58132 2250.63686 380.90898 2290.89648"/>
            <g>
              <path class="cls-23" d="M617.11296,2206.16892c-.47076,1.24108-1.84023,1.28388-1.84023,1.28388,0,0-11.86921-.60974-18.88775-.18178s-12.40445,10.87409-14.63912,13.43465-7.53486,8.14319-7.53486,8.14319c0,0,.1149,12.75397-4.48113,13.44338s-9.19205-6.43444-9.19205-6.43444c0,0-2.75762,.91921-5.05563,1.14901s-5.74503,.2298-5.74503,.2298c0,0-6.43444,7.00894-11.49007,5.97483s-3.90662-9.07715-3.90662-9.07715l-6.32689-2.52082s-27.66193,6.21718-28.96844,5.49634,.59814-2.11595,.59814-2.11595c-11.04173,3.55453-6.81978-2.70203-1.75269-5.80278s19.53782-6.36252,24.61081-9.74452,7.89132-10.14598,7.89132-10.14598c0,0-15.10138-9.72361-16.90996-12.40064-5.36429-7.94009,38.32925-5.26088,38.32925-5.26088,0,0,26.30439-4.13355,33.81993-8.45498s41.71124,1.691,41.71124,1.691l-30.55627,12.67696,20.32604,8.61687Z"/>
              <g>
                <polyline class="cls-6" points="544.43598 2252.11891 535.60297 2249.32954 537.81123 2242.00744"/>
                <polyline class="cls-6" points="530.48913 2250.02688 535.60297 2249.32954 541.41416 2255.37318"/>
              </g>
              <g>
                <polyline class="cls-6" points="579.77773 2247.68808 570.63694 2249.18764 569.3011 2241.65736"/>
                <polyline class="cls-6" points="566.38896 2252.11891 570.63694 2249.18764 578.5509 2251.95616"/>
              </g>
              <polyline class="cls-7" points="558.12274 2190.92073 505.78961 2192.99087 518.74947 2198.33648 506.38353 2200.23131 518.00858 2204.88555 509.32061 2206.27157 535.03232 2214.06729"/>
              <circle class="cls-13" cx="590.89198" cy="2189.57541" r="3.61735"/>
              <circle cx="591.88245" cy="2189.5606" r="2.02399"/>
            </g>
          </g>
          <g>
            <g>
              <path class="cls-1" d="M268.6478,1837.77995c5.84153-6.3519,14.80311-6.91006,16.36057-7.00705,13.56644-.84494,27.23261,8.68376,34.10271,24.35379,0,0,5.51945-48.09781,34.69351-36.27049,29.17413,11.82735,37.05901,52.04029,37.05901,52.04029,0,0,12.61581-26.02014,31.53953-8.67337,18.92378,17.34674,3.94247,31.53956,3.94247,31.53956,0,0,32.32805-7.09643,31.53953,9.46186-.78846,16.55825-14.98125,36.27049-14.98125,36.27049,0,0,19.71218,5.51942,10.64458,16.55825-9.0676,11.03887-24.83743,0-24.83743,0,0,0,11.82735,24.44317-77.27191,22.86619-89.09923-1.57698-63.86761-22.0777-63.86761-22.0777,0,0-35.482,8.6734-33.90503-6.30791,1.57698-14.98128,12.61584-15.76977,12.61584-15.76977,0,0-23.75679-15.99122-12.6669-36.77546,11.08992-20.78424,23.70573-7.37994,23.70573-7.37994-16.14812-20.04166-18.24412-42.42181-8.67337-52.82874Z"/>
              <path class="cls-9" d="M264.57059,1831.36657c5.84153-6.3519,14.80311-6.91006,16.36057-7.00705,13.56644-.84494,27.23261,8.68376,34.10271,24.35379,0,0,5.51945-48.09781,34.69351-36.27049,29.17413,11.82735,37.05901,52.04029,37.05901,52.04029,0,0,12.61581-26.02014,31.53953-8.67337,18.92378,17.34674,3.94247,31.53956,3.94247,31.53956,0,0,32.32805-7.09643,31.53953,9.46186-.78846,16.55825-14.98125,36.27049-14.98125,36.27049,0,0,19.71218,5.51942,10.64458,16.55825-9.0676,11.03887-24.83743,0-24.83743,0,0,0,11.82735,24.44317-77.27191,22.86619-89.09923-1.57698-63.86761-22.0777-63.86761-22.0777,0,0-35.482,8.6734-33.90503-6.30791,1.57698-14.98128,12.61584-15.76977,12.61584-15.76977,0,0-23.75679-15.99122-12.6669-36.77546,11.08992-20.78424,23.70573-7.37994,23.70573-7.37994-16.14812-20.04166-18.24412-42.42181-8.67337-52.82874Z"/>
            </g>
            <path class="cls-31" d="M202.3803,1979.65964s-66.46428-44.94387-48.84724-72.73811c17.61704-27.79424,39.23795,11.82734,39.23795,11.82734,0,0-27.22633-47.30934-5.60542-52.63164,21.62091-5.3223,31.2302,14.78417,31.2302,14.78417,0,0-34.4333-57.36258,0-66.23308,34.4333-8.8705,38.43717,56.17984,38.43717,56.17984,0,0,22.42169-29.56834,28.02711-2.36547,5.60542,27.20287-36.83563,60.31941-36.83563,60.31941,0,0,32.03098-10.05323,27.22633,3.5482-4.80465,13.60144-25.62478,19.5151-25.62478,19.5151,0,0,25.62478-15.37554,26.42556-1.7741,.80077,13.60144-32.83175,32.04888-32.83175,32.04888l-40.8395-2.48055Z"/>
          </g>
          <path class="cls-17" d="M739.32356,6291.11208l-70.27979-38.7998-238.41992-71.18018-78.14014-179.31982-62.3501-73.25-97.90967-421.8501-64.06006-87.02002-56.81006-362.62012,79.77979-417.00977,384.37012-200.65015,50.70996-100.09985,88.29004-174.28003-83.3999-365.03003-88.22021-49.83008-74.66992-42.16992-49.87012-28.62012-56.61963-138.83997,88.96973-168.48999,127.25-19.79993,54.72021-8.51001,101.08984-145.57007v-328.8999l-63.3501-270.94006-68.81006-46.91003-79.45996-54.17999-179.27979-260.14996,9.43994-86.27002,247.72021-133.08002,90.2998-144.75,110.06006-94.19,8.25-213.60999,44.11963-241.29999-93.53955-201.35999-113.2002-49.26001-83.52002-69.97998-191.75-63.29004-109.47998-132.07001-85.52979-76.62994-1.7002-10.30005-36.45996-256.65997,6.60986-256.17004L78.3138,.00222H.00374V7149.6819H773.26399v-684.8999l-39.39014-101.77979,5.44971-71.89014ZM111.74348,1571.22219l47.40039-72.67999-3.16016-145.97003-20.5498-124.57996,98.52979-70.94,40.80029-90.84003,183.13965,28.67999,84.22998,114.31,113.97998,68.16003-.87988,140.31,11.14014,86.90997,10.96973,85.59998-42.91992,143.72003-111.61963,147.47998-106.78027,66.03003H186.67366l-78.08984-66.03003-23.10986-120.58002,26.26953-189.57996Z"/>
          <g>
            <polygon class="cls-18" points="669.03998 6252.30981 598.88535 6283.66884 581.97489 6337.66654 502.02141 6410.63926 610.33572 6588.37422 777.26641 6475.10921 733.87313 6363.00299 739.32493 6291.11515 669.03998 6252.30981"/>
            <polygon class="cls-18" points="430.62323 6181.13017 308.32355 6226.33595 242.10153 6212.21535 74.28792 6266.3198 0 6142.18443 0 6034.05981 100.10811 6001.74569 232.63104 5992.87966 293.08332 6012.39874 352.48379 6001.81402 430.62323 6181.13017"/>
            <polygon class="cls-18" points="290.13 5928.55981 216.89964 5915.2957 162.09073 5863.41199 71.74527 5870.45466 0 5831.32335 0 5601.3503 51.5872 5557.92562 145.065 5557.92562 192.21997 5506.70996 290.13 5928.55981"/>
            <polygon class="cls-18" points="71.34998 5057.07007 128.15997 5419.68994 51.44919 5389.75172 .00027 5403.31362 .00027 5108.33538 50.39238 5091.06348 71.34998 5057.07007"/>
            <polygon class="cls-18" points="151.13 4640.05981 535.5 4439.40991 502.09914 4396.24313 402.65036 4374.85304 36.9982 4462.63382 21.49622 4596.19047 117.5046 4608.51161 151.13 4640.05981"/>
            <polygon class="cls-18" points="591.09998 3800 674.5 4165.03003 561.78409 4140.35222 457.98105 4094.12048 228.60354 4112.57232 125.11365 4082.16972 .00027 4090.67732 .00027 3956.51376 115.15997 3892.3448 311.31704 3895.67215 432.65919 3834.31606 535.5 3846.10939 591.09998 3800"/>
            <polygon class="cls-18" points="378.33997 3679.37988 216.15781 3679.37988 86.20148 3731.445 0 3719.98395 .00027 3643.95439 96.36595 3598.64304 216.15781 3598.64304 321.71997 3540.53992 378.33997 3679.37988"/>
            <polyline class="cls-18" points="410.69 3372.04993 314.95846 3394.97568 201.02822 3343.34861 305.85911 3168.78542 453.82212 3214.02921 509.53418 3291.72154 592.65997 3343.73999"/>
            <polygon class="cls-18" points="693.75 2869.2699 693.75 3198.16992 618.13067 3133.31418 541.14873 3142.88321 509.53418 3101.50562 279.10608 3073.43264 .00027 3052.1441 .00027 2881.38334 107.10507 2865.48629 201.02822 2887.03992 331.28496 2881.38334 467.89902 2915.26666 603.1098 2915.86923 693.75 2869.2699"/>
            <polygon class="cls-18" points="630.39996 2598.3299 492.69143 2659.78215 364.22234 2639.87196 251.36907 2681.22607 158.60558 2656.49399 .00027 2714.25181 .00027 2571.30966 123.86385 2538.34177 244.28692 2562.50208 346.87513 2517.68808 482.13 2497.23993 630.39996 2598.3299"/>
            <polyline class="cls-18" points="312.28998 2150.81995 238.55413 2124.66287 162.1948 2134.59991 85.46997 2102.28169 38.54331 2114.0816 0 2079.90051 0 2342.06743 73.98661 2286.59731 156.14499 2280.01461 187.20906 2243.31557 246.58888 2245.4225 302.84998 2237.0899"/>
            <polyline class="cls-18" points="416.01996 1947.40991 442.34248 1982.14018 505.78961 1982.14018 560.01731 2017.74216 650.31698 1872.9872 600.49965 1872.9872 551.77891 1891.57526 522.79999 1881.37994"/>
            <polygon class="cls-18" points="108.57996 1881.37994 186.66998 1947.40991 140.96757 1972.57925 85.46997 1963.57138 40.08125 1982.14018 0 1978.99262 .00027 1872.9872 33.77586 1897.98863 108.57996 1881.37994"/>
            <polyline class="cls-18" points="111.73999 1571.21991 71.38873 1585.11894 28.8384 1576.50255 .00022 1598.89069 .00005 1723.10874 31.31839 1752.76079 85.46997 1760.79993"/>
            <polygon class="cls-18" points="155.97998 1352.56995 116.98157 1342.54825 77.13874 1360.08089 28.69664 1351.31457 0 1368.05027 0 1478.02773 38.64231 1495.56037 91.41138 1482.80936 159.14001 1498.53992 155.97998 1352.56995"/>
            <polyline class="cls-18" points="768.62124 1565.19589 743.8021 1585.11894 677.33997 1590.17993 634.42733 1733.9056 659.32666 1760.79993 720.00027 1753.64912 760.37 1778.79993"/>
            <polygon class="cls-18" points="719.20001 1122.52991 708.0459 1174.10797 677.33997 1206.26623 656.10999 1277.35992 655.22998 1417.66992 701.52429 1365.82068 768.62124 1358.39954 812.73999 1323.88995 719.20001 1122.52991"/>
            <polygon class="cls-18" points="135.42999 1227.98993 91.41138 1203.19548 38.64231 1206.76275 0 1185.35915 .00027 1083.79111 67.715 1103.31204 104.2193 1100.93386 163.67373 1146.66291 233.95996 1157.04993 135.42999 1227.98993"/>
            <polygon class="cls-18" points="522.48323 1003.29264 489.9555 1033.71198 495.42946 1066.20996 457.89933 1094.89365 542.13606 1209.20666 572.51407 1166.10588 571.20415 1110.43424 606.00776 1073.27459 522.48323 1003.29264"/>
            <polygon class="cls-18" points="221.25 807.92993 142.55323 833.09753 57.88892 837.14657 0 822.53825 0 970.10694 110.625 953.23971 171.00931 977.06616 254.49819 979.84912 330.72998 939.99994 221.25 807.92993"/>
            <polyline class="cls-18" points="97.56392 464.34535 52.26956 471.49459 23.75536 458.19983 0 458.2001 0 709.90174 34.23477 709.90174 85.83188 737.73136 135.71997 731.29993"/>
            <polygon class="cls-18" points="104.17208 208.17181 61.5461 187.63239 0 193.05741 0 0 78.31762 0 104.17208 208.17181"/>
          </g>
          <polygon class="cls-3" points="268.72367 1060.42565 227.92362 1151.26561 129.39366 1222.20562 149.94364 1346.78563 153.10368 1492.7556 105.70365 1565.4356 79.43363 1755.01561 102.54362 1875.59563 180.63365 1941.6256 409.98362 1941.6256 516.76365 1875.59563 628.39099 1728.12129 671.30363 1584.39562 649.19364 1411.88561 650.07365 1271.57561 536.09973 1203.42235 451.863 1089.10933 268.72367 1060.42565"/>
          <polygon class="cls-26" points="815.72395 1313.46218 815.54378 1314.41219 770.9637 1555.68215 762.58381 1770.55214 650.63362 1865.36214 559.12385 2010.51216 558.42366 2010.88216 309.29378 2143.32216 300.04378 2226.95217 480.39387 2485.91219 630.84358 2587.42214 695.26399 2860.04213 695.26399 3190.49221 591.74348 3337.99221 590.48372 3338.18215 407.94368 3366.29213 319.33381 3532.33217 375.66389 3669.00222 591.07356 3789.85231 591.37385 3791.14211 675.9637 4157.51223 534.45393 4433.93215 533.59358 4434.37209 146.17366 4634.50222 65.8636 5049.8821 123.12385 5411.52224 187.83381 5498.51223 187.98372 5499.11208 286.82356 5920.56227 349.70393 5993.65212 349.88362 5994.06227 428.34358 6172.24196 668.43391 6243.17214 668.7137 6243.32204 738.49348 6281.45241 738.2137 6288.1321 666.1136 6248.74196 423.97395 6177.20241 344.5638 5996.89235 281.32356 5923.36208 281.15364 5922.65212 182.27376 5501.09206 117.42366 5413.91213 117.3138 5413.18215 59.77376 5049.77224 59.87385 5049.25222 140.83381 4630.51223 142.12385 4629.84206 529.99348 4429.4822 669.62385 4156.7322 585.82356 3793.79225 370.90364 3673.21218 312.7137 3532.00222 313.37385 3530.75222 404.0638 3360.81215 588.30403 3332.45217 689.26399 3188.59218 689.26399 2860.74221 625.54378 2591.08217 476.10383 2490.26216 475.78352 2489.80214 293.83381 2228.53218 293.95393 2227.41219 303.68391 2139.51216 554.90364 2005.96218 646.04378 1861.38216 646.40364 1861.08217 756.69368 1767.68215 764.99348 1555.02217 765.02376 1554.81215 809.47395 1314.27217 715.76399 1114.66219 601.94368 1065.65218 601.6136 1065.37215 517.58381 995.70217 323.38362 932.27217 322.83381 931.6122 212.26399 799.62215 125.10383 722.35219 124.95393 721.26216 86.32356 453.8622 86.33381 453.60219 93.01399 197.46218 68.22395 .00222 74.27376 .00222 99.02376 197.17214 99.01399 197.39211 92.33381 453.50222 130.73372 719.32216 216.57356 795.4222 216.7137 795.59218 326.88362 927.10219 520.53352 990.35219 520.97395 990.72219 605.10383 1060.4822 720.23372 1110.0522 720.7137 1111.08217 815.72395 1313.46218"/>
          <g>
            <polygon class="cls-26" points="222.2942 3495.53856 196.06847 3508.98445 196.06847 3529.24978 216.65857 3539.43427 241.36746 3524.48147 241.36746 3504.21613 222.2942 3495.53856"/>
            <polygon class="cls-26" points="245.37164 2496.86893 224.7229 2518.30827 240.8773 2529.25745 267.80023 2523.55637 288.02969 2513.06319 274.6003 2503.9786 245.37164 2496.86893"/>
            <polygon class="cls-26" points="64.05011 1265.50535 31.53391 1282.44483 37.56581 1300.97853 67.39838 1300.97854 100.44914 1286.20323 92.39702 1270.11774 64.05011 1265.50535"/>
            <polygon class="cls-26" points="53.13255 3758.15974 31.57782 3768.93711 38.33883 3786.15756 61.86779 3786.15756 79.20493 3772.15865 53.13255 3758.15974"/>
            <polygon class="cls-26" points="579.24899 2852.92284 564.2553 2866.29168 576.60645 2882.55962 598.84502 2882.55962 621.06464 2872.24337 614.3194 2858.35611 603.60637 2848.41296 579.24899 2852.92284"/>
            <polygon class="cls-26" points="390.19452 1007.5508 367.56 1013.93116 361.48732 1027.7327 381.91359 1034.65004 413.38109 1027.7327 420.00583 1015.58735 390.19452 1007.5508"/>
            <g>
              <polygon class="cls-26" points="380.17087 2013.56716 357.88074 2031.60655 369.0258 2052.56217 393.30131 2048.39022 393.30131 2023.87538 380.17087 2013.56716"/>
              <polygon class="cls-26" points="321.24374 1985.92139 307.10968 2013.56716 321.24374 2033.06466 336.84795 2033.06466 344.68192 2009.49303 336.84795 1980.03208 321.24374 1985.92139"/>
            </g>
            <polygon class="cls-26" points="50.24692 355.50098 35.54487 367.49367 42.8959 374.31686 55.47818 380.84389 68.62721 367.49367 63.54877 355.50098 50.24692 355.50098"/>
            <polygon class="cls-26" points="30.8711 237.22308 40.30064 237.22308 45.95836 246.68038 51.54746 260.41258 38.41473 277.02479 18.6127 274.21044 18.6127 254.59554 30.8711 237.22308"/>
            <polygon class="cls-26" points="607.595 1827.95668 595.47472 1839.35627 607.595 1849.1945 625.37981 1839.35627 625.37981 1827.95668 607.595 1827.95668"/>
            <polygon class="cls-26" points="119.20188 4105.20962 101.841 4117.57613 93.74822 4133.02353 115.78231 4142.63845 128.72756 4129.28348 134.17323 4111.78234 119.20188 4105.20962"/>
            <polygon class="cls-26" points="523.19312 3800.08685 496.59816 3796.39261 482.24572 3805.3734 494.56651 3818.26768 517.90483 3821.27667 534.82086 3817.21577 523.19312 3800.08685"/>
            <polygon class="cls-26" points="47.68339 4684.29857 30.06053 4698.80563 30.06053 4723.24423 47.68339 4744.96743 66.71843 4734.10583 66.71843 4709.66723 61.09195 4689.66726 47.68339 4684.29857"/>
            <polygon class="cls-26" points="141.79721 2696.74454 115.57148 2710.19042 115.57148 2730.45576 136.16159 2740.64025 160.87047 2725.68745 160.87047 2705.42211 141.79721 2696.74454"/>
            <polygon class="cls-26" points="118.05951 3744.01125 99.25432 3758.38285 113.82209 3764.79934 127.41866 3759.91878 138.10169 3747.69561 118.05951 3744.01125"/>
            <polygon class="cls-26" points="599.27245 3262.84657 588.28987 3238.72357 574.02622 3248.73982 566.10567 3266.04134 572.09322 3293.3591 583.93627 3285.02681 599.27245 3262.84657"/>
            <polygon class="cls-26" points="92.51688 5489.45797 65.70172 5506.57646 79.1093 5529.15764 102.39615 5529.15764 134.5145 5509.3078 119.33203 5489.45797 92.51688 5489.45797"/>
            <polygon class="cls-26" points="243.62561 5945.79984 222.30385 5949.42983 223.61596 5965.9816 243.82067 5972.12149 262.36137 5964.62452 243.62561 5945.79984"/>
            <polygon class="cls-26" points="63.92143 5423.41854 43.06298 5432.54411 48.92942 5446.23247 63.92143 5446.23247 75.6543 5434.8255 63.92143 5423.41854"/>
            <polygon class="cls-26" points="61.51209 2039.98123 35.2494 2059.94087 48.38074 2079.90051 81.47172 2071.49645 95.12832 2045.33909 61.51209 2039.98123"/>
            <polygon class="cls-26" points="311.63486 2472.2932 290.79192 2484.79897 303.84858 2498.13845 324.14063 2498.13845 333.78804 2485.21583 311.63486 2472.2932"/>
            <polygon class="cls-26" points="98.43192 2313.97913 75.7974 2320.35949 69.72473 2334.16102 90.151 2341.07837 121.6185 2334.16102 128.24323 2322.01567 98.43192 2313.97913"/>
            <polygon class="cls-26" points="167.24011 4125.94853 150.41921 4139.27542 162.69733 4155.41362 181.8899 4152.53492 194.67014 4139.27542 183.79638 4125.94853 167.24011 4125.94853"/>
            <polygon class="cls-26" points="48.30413 4829.85053 30.94325 4842.21703 22.85047 4857.66443 44.88457 4867.27936 57.82981 4853.92439 63.27548 4836.42325 48.30413 4829.85053"/>
            <polygon class="cls-26" points="733.53613 1393.77001 708.63811 1403.82126 700.67075 1418.76007 717.77853 1423.79872 739.51166 1414.77639 752.15347 1402.82534 733.53613 1393.77001"/>
            <polygon class="cls-26" points="59.27308 1818.83333 48.55624 1827.65538 48.55624 1842.51701 59.27308 1855.72735 70.84869 1849.12218 70.84869 1834.26055 67.42711 1822.09814 59.27308 1818.83333"/>
            <polygon class="cls-26" points="593.67636 4181.54175 600.84027 4181.54175 605.13861 4188.72675 609.38482 4199.15951 599.40748 4211.78032 584.36328 4209.64217 584.36328 4194.74013 593.67636 4181.54175"/>
          </g>
        </g>
        <g>
          <g>
            <path class="cls-31" d="M177.76992,4218.63783s18.69606,41.8007,18.43274,51.46561c-.26332,9.6649-1.312,45.90829-5.39584,49.77425-4.08385,3.86596-10.66697,4.83245-14.09019,0-3.42322-4.83245,4.47652-42.76719,4.47652-49.53262s-3.42322-51.70723-3.42322-51.70723"/>
            <path class="cls-31" d="M151.23196,4231.53562s19.60228,21.26969,24.259,30.18487c4.65669,8.91508,10.52033,44.18889,4.64335,53.69368-5.87699,9.50467-12.00967,4.75049-13.85899,.44694-1.2969-3.01802,2.1469-46.56528-.41279-55.43839-2.57472-8.92524-14.63057-28.8871-14.63057-28.8871Z"/>
          </g>
          <g>
            <path class="cls-31" d="M508.28697,4250.1235s-23.30832,10.69301-36.16808,27.65434c-12.85976,16.96133,5.22428,45.35312,0,55.30868-5.22428,9.95556-25.31766,9.21811-26.52326,0-1.2056-9.21811,1.2056-47.56547,14.06536-62.31445,12.85976-14.74898,48.62598-20.64857,48.62598-20.64857Z"/>
            <path class="cls-31" d="M435.04024,4213.9615s23.26506,52.01289,22.93738,64.03899c-.32768,12.0261-1.63262,57.12398-6.7145,61.93442-5.08187,4.81044-13.27379,6.01305-17.53359,0-4.2598-6.01305,5.57051-53.2155,5.57051-61.63377s-4.2598-64.33964-4.2598-64.33964"/>
            <path class="cls-31" d="M402.01687,4230.0103s24.39274,26.46601,30.18748,37.55923c5.7947,11.0931,13.09131,54.98453,5.7781,66.81139-7.31322,11.82673-14.94463,5.91107-17.24588,.55613-1.61384-3.75534,2.67157-57.94148-.51366-68.98235-3.20394-11.10573-18.20603-35.94441-18.20603-35.94441Z"/>
          </g>
          <g>
            <path class="cls-15" d="M358.57294,4086.94614c2.25474-1.23443,5.17465-3.16822,8.01206-6.13345,4.77323-4.98824,6.86773-10.34005,7.80515-13.42521-7.19475,3.19863-14.38951,6.39722-21.58426,9.59585,1.92235,3.32092,3.8447,6.64189,5.76705,9.96281Z"/>
            <path class="cls-15" d="M282.94132,4086.34903l3.12598-6.00537c-2.62492-1.94972-5.27288-3.90124-7.94395-5.85396-3.91466-2.86187-7.81194-5.67748-11.69045-8.44747,.03059,2.13575,.3804,5.08628,1.80112,8.21908,3.971,8.75639,12.97178,11.57907,14.70729,12.08772Z"/>
            <polygon class="cls-22" points="239.56229 4176.77706 235.19264 4181.81377 241.75828 4182.80454 239.56229 4176.77706"/>
            <polygon class="cls-22" points="244.22056 4185.23074 244.54314 4191.89094 249.97329 4188.06958 244.22056 4185.23074"/>
            <polygon class="cls-22" points="255.54498 4188.53305 259.44481 4193.94171 261.9155 4187.77851 255.54498 4188.53305"/>
            <polygon class="cls-22" points="269.16384 4180.37268 265.41632 4185.88797 272.0529 4186.10034 269.16384 4180.37268"/>
            <polygon class="cls-22" points="401.56353 4176.63787 405.93319 4181.67458 399.36754 4182.66534 401.56353 4176.63787"/>
            <polygon class="cls-22" points="396.90526 4185.59278 396.58268 4192.25298 391.15253 4188.43162 396.90526 4185.59278"/>
            <polygon class="cls-22" points="385.58084 4188.70712 381.68101 4194.11578 379.21032 4187.95259 385.58084 4188.70712"/>
            <polygon class="cls-22" points="371.96199 4180.23348 375.7095 4185.74877 369.07292 4185.96114 371.96199 4180.23348"/>
            <rect class="cls-30" x="301.83232" y="4218.14077" width="14.72708" height="39.2864"/>
            <rect class="cls-30" x="325.11509" y="4218.14077" width="14.72708" height="39.2864"/>
            <line class="cls-4" x1="306.52338" y1="4244.06978" x2="306.52353" y2="4219.04848"/>
            <line class="cls-4" x1="311.12809" y1="4245.09844" x2="311.12825" y2="4220.3576"/>
            <line class="cls-4" x1="335.30794" y1="4245.06268" x2="335.30809" y2="4220.39366"/>
            <line class="cls-4" x1="329.73209" y1="4244.95482" x2="329.73224" y2="4220.50174"/>
            <path class="cls-25" d="M316.5594,4222.53323c-4.90903,2.33167-9.81805,4.6633-14.72708,6.99497v-11.38743l14.72708,4.39246Z"/>
            <path class="cls-25" d="M325.11509,4222.53302c4.90903,2.33171,9.81805,4.66347,14.72708,6.99518v-11.38743c-4.90903,1.46407-9.81805,2.92818-14.72708,4.39224Z"/>
            <path class="cls-30" d="M280.25712,4129.09455v17.5243c-1.41642,.00917-4.02128,.24921-6.21803,2.01791-.59651,.48026-2.49366,2.14466-3.60046,7.51425-1.39163,6.75141-.01983,12.01559-.34206,19.05733-.03762,.82207-.13509,2.47178-.62454,4.54366-.42791,1.81137-1.01331,3.34384-1.31458,3.97418-1.95258,4.08555-9.14852,6.22134-15.04378,5.77793-1.80416-.1357-8.40066-.6318-11.83355-5.63122-.8036-1.17031-1.23351-2.2956-1.47373-3.09107-.26487-.92483-.59471-2.2185-.86211-3.78374-.19418-1.1366-.95868-5.94746,.01518-12.19832,1.13206-7.26624,3.97809-12.53255,5.37847-14.86169,.95318-1.58537,4.0914-6.56123,9.95309-11.2277,1.47311-1.17275,4.39993-3.34611,8.51779-5.30272,6.62703-3.14882,12.88821-4.09652,17.44831-4.31309Z"/>
            <path class="cls-25" d="M283.6169,4146.60692c-1.11902-.04896-2.31227-.05076-3.57061,.01499-.44135,.02304-.87297,.0535-1.29449,.09034-4.82253-4.65713-9.64508-9.31422-14.46761-13.97135,2.85706-1.20381,6.49878-2.41451,10.81953-3.1196,2.30614-.37634,4.44551-.54982,6.36715-.60109,.71534,5.86222,1.43069,11.72449,2.14603,17.58671Z"/>
            <path class="cls-30" d="M360.59521,4129.11059v17.49222c1.41644,.00917,4.02128,.24921,6.21804,2.01791,.59651,.48026,2.49365,2.14466,3.60046,7.51425,1.39163,6.75141,.01983,12.01559,.34205,19.05733,.03763,.82207,.1351,2.47178,.62454,4.54366,.42791,1.81137,1.01332,3.34384,1.31458,3.97418,1.95259,4.08555,9.14853,6.22134,15.0438,5.77793,1.80415-.1357,8.40065-.6318,11.83354-5.63122,.80361-1.17031,1.23351-2.2956,1.47373-3.09107,.26489-.92483,.59471-2.2185,.86212-3.78374,.19417-1.1366,.95869-5.94746-.01518-12.19832-1.13206-7.26624-3.97808-12.53255-5.37848-14.86169-.95316-1.58537-4.0914-6.56123-9.95309-11.2277-1.5426-1.22805-4.45596-3.37566-8.5178-5.30272-6.64996-3.15494-12.92262-4.07913-17.44831-4.281Z"/>
            <path class="cls-25" d="M363.26916,4146.91742c-.71006-.12623-1.48737-.22942-2.32486-.28994-.47229-.03414-.92607-.05196-1.35938-.0571-.18896-5.78996-.3779-11.57997-.56687-17.36993,.60732-.04746,1.34644-.07911,2.18848-.05864,.67372,.01641,1.18899,.0607,1.56708,.09385,.8563,.07509,1.55755,.17352,2.21169,.27589,1.26298,.19768,2.95786,.46526,4.93923,.96317,1.75523,.44106,4.26128,1.19588,7.2445,2.5159l-13.89988,13.9268Z"/>
            <rect class="cls-30" x="280.04628" y="4060.90251" width="81.16024" height="161.85386" rx="40.58008" ry="40.58008"/>
            <line class="cls-4" x1="294.09948" y1="4212.437" x2="293.10766" y2="4067.1343"/>
            <line class="cls-4" x1="274.03908" y1="4148.63676" x2="274.03924" y2="4129.80321"/>
            <line class="cls-4" x1="247.50001" y1="4188.3313" x2="247.10997" y2="4146.42022"/>
            <line class="cls-4" x1="259.73336" y1="4188.99675" x2="259.36803" y2="4135.47594"/>
            <line class="cls-4" x1="311.0967" y1="4221.57978" x2="310.09067" y2="4074.19578"/>
            <line class="cls-4" x1="329.65721" y1="4221.74761" x2="328.63986" y2="4072.70358"/>
            <line class="cls-4" x1="348.58424" y1="4211.20174" x2="347.60515" y2="4067.76384"/>
            <line class="cls-4" x1="380.73645" y1="4188.95894" x2="380.64477" y2="4135.02969"/>
            <line class="cls-4" x1="366.81326" y1="4148.62072" x2="366.70631" y2="4129.7849"/>
            <line class="cls-4" x1="394.32966" y1="4188.0073" x2="394.04749" y2="4146.66898"/>
            <path class="cls-25" d="M280.92519,4094.12048l72.60886-16.67576h-65.39215s-5.21924,6.08455-7.21672,16.67576Z"/>
            <rect class="cls-29" x="280.04628" y="4174.16965" width="81.16024" height="9.49787"/>
            <rect class="cls-29" x="336.39704" y="4175.84247" width="17.35615" height="26.98428"/>
            <ellipse class="cls-24" cx="334.13099" cy="4120.67645" rx="5.38189" ry="2.9111" transform="translate(-2271.73155 911.14403) rotate(-34.43784)"/>
            <ellipse class="cls-24" cx="308.20228" cy="4120.67645" rx="2.9111" ry="5.38189" transform="translate(-3264.5772 2044.57197) rotate(-55.56216)"/>
            <path class="cls-5" d="M305.79935,4136.30668c10.02526-.00001,20.05052,.00001,30.07578,0"/>
            <path class="cls-28" d="M335.13311,4175.84248v5.65521c0,4.51254,4.45124,8.17069,9.942,8.17069s9.942-3.65815,9.942-8.17069v-5.65521h-19.88401Z"/>
            <polygon class="cls-22" points="294.10979 4155.57942 288.25801 4152.38269 294.066 4149.16452 294.10979 4155.57942"/>
            <polygon class="cls-22" points="328.52988 4102.64911 334.33747 4099.3728 328.4861 4096.23422 328.52988 4102.64911"/>
            <polygon class="cls-22" points="293.23427 4114.06302 299.04186 4110.78671 293.19049 4107.64812 293.23427 4114.06302"/>
            <polygon class="cls-22" points="348.62805 4169.67332 342.77628 4166.47659 348.58426 4163.25842 348.62805 4169.67332"/>
            <polygon class="cls-22" points="247.06423 4174.16965 252.916 4170.97293 247.10802 4167.75476 247.06423 4174.16965"/>
            <polygon class="cls-22" points="259.21584 4153.38364 265.06761 4150.18692 259.25963 4146.96875 259.21584 4153.38364"/>
            <polygon class="cls-22" points="347.76454 4128.30973 353.61631 4125.113 347.80833 4121.89483 347.76454 4128.30973"/>
            <polygon class="cls-22" points="380.35107 4161.99431 386.20284 4158.79759 380.39486 4155.57942 380.35107 4161.99431"/>
            <polygon class="cls-22" points="329.14853 4156.59109 335.00031 4153.39437 329.19232 4150.1762 329.14853 4156.59109"/>
            <polygon class="cls-22" points="393.97937 4179.04993 399.83114 4175.8532 394.02316 4172.63503 393.97937 4179.04993"/>
            <polygon class="cls-22" points="311.12817 4203.07593 305.2764 4199.8792 311.08438 4196.66103 311.12817 4203.07593"/>
            <rect class="cls-15" x="303.9535" y="4277.266" width="14.72708" height="12.20988"/>
            <rect class="cls-15" x="322.0514" y="4277.266" width="14.72708" height="12.20988" transform="translate(658.82987 8566.74187) rotate(-180)"/>
            <path class="cls-29" d="M291.72005,4247.81811s7.05678-12.30414,26.96054-1.99038v33.73028s-8.08604-2.40411-23.99898,10.18886l-18.08809,.68689s-6.86889-1.83171-1.14482-6.98338l17.05776-12.24953-.7864-23.38275Z"/>
            <path class="cls-29" d="M349.01193,4247.81811s-7.05678-12.30414-26.96054-1.99038v33.73028s8.08604-2.40411,23.99898,10.18886l18.08809,.68689s6.86889-1.83171,1.14482-6.98338l-17.05776-12.24953,.7864-23.38275Z"/>
            <path class="cls-29" d="M266.43292,4066.04223c3.64759,4.05,9.79523,9.83397,18.83258,14.04999,13.77347,6.42549,26.29299,5.49291,36.71944,4.71624,5.07055-.37771,20.23797-1.90085,35.87726-9.26406,4.0424-1.9032,16.52792-8.15688,16.52796-8.15693,0,0-3.77937,.06819-25.12025-4.05206l-1.70916-3.81339c.25153-4.13036,.32442-7.64228,.33413-10.32619,.0351-9.71236-.74446-12.15347-2.54279-13.57443-1.06086-.83824-2.10512-1.02849-3.96915-1.34289-2.32491-.39215-6.8059-.73058-12.56951,1.57661-3.11294-1.15744-21.69017-7.88026-27.34541-.94306-.86055,1.05562-1.57211,2.60523-2.53341,17.82345-.28892,4.57377-.47712,8.39226-.59722,11.098l-1.97729,1.25521s-17.55213,1.00047-29.92717,.95349Z"/>
            <path class="cls-16" d="M298.72864,4054.62493s24.05592,11.40715,48.8321,4.89711l1.5666,3.7154s-27.48009,11.65744-52.18662,1.43984l1.78792-10.05235Z"/>
            <path class="cls-28" d="M275.4487,4283.45038c.18171,.51204,.52191,1.22098,1.19479,1.76618,.71047,.57565,2.24942,1.33955,8.12793-.40722,4.11024-1.22133,7.02052-2.66346,7.89327-3.11682,2.63164-1.36705,4.53158-2.70154,6.22769-3.89289,2.05017-1.43999,3.71384-2.76845,4.94303-3.80221-1.00334-.58113-2.22241-1.17674-3.65282-1.66984-3.04754-1.05063-5.77873-1.19631-7.67614-1.12671-5.68592,4.08315-11.37184,8.16635-17.05775,12.2495Z"/>
            <path class="cls-28" d="M364.88378,4283.14475c-.18171,.51204-.52191,1.22098-1.19479,1.76618-.71047,.57565-2.24942,1.33955-8.12793-.40722-4.11024-1.22133-7.02052-2.66346-7.89327-3.11682-2.63164-1.36705-4.53158-2.70154-6.22769-3.89289-2.05017-1.43999-3.71384-2.76845-4.94303-3.80221,1.00334-.58113,2.22241-1.17674,3.65282-1.66984,3.04754-1.05063,5.77873-1.19631,7.67614-1.12671,5.68592,4.08315,11.37184,8.16635,17.05775,12.2495Z"/>
            <path class="cls-16" d="M292.50645,4271.20087c1.30618,.10053,3.22165,.34974,5.4367,1.04108,1.67326,.52223,2.83115,1.08254,3.08115,1.19713,2.08871,.95721,6.74942,1.02108,17.65629-2.32212v-10.6876c-2.45452,.03667-4.90903,.07337-7.36354,.11004-1.00829-.44462-2.48611-1.11484-4.24884-1.98506-5.01724-2.47692-5.75618-3.32255-7.37505-3.0625-1.26797,.20368-2.55366,1.28164-5.12504,3.43752-1.03477,.86756-1.84818,1.6408-2.40078,2.18839,.11304,3.36106,.22607,6.72207,.33911,10.08313Z"/>
            <path class="cls-16" d="M348.22553,4271.20087c-1.30618,.10053-3.22165,.34974-5.4367,1.04108-1.67326,.52223-2.83115,1.08254-3.08115,1.19713-2.08871,.95721-6.74942,1.02108-17.65629-2.32212v-10.6876c2.45452,.03667,4.90903,.07337,7.36354,.11004,1.00829-.44462,2.48611-1.11484,4.24884-1.98506,5.01724-2.47692,5.75618-3.32255,7.37505-3.0625,1.26797,.20368,2.55366,1.28164,5.12504,3.43752,1.03477,.86756,1.84818,1.6408,2.40078,2.18839-.11304,3.36106-.22607,6.72207-.33911,10.08313Z"/>
          </g>
          <polygon class="cls-27" points=".00027 4156.21526 98.65959 4208.98735 139.5154 4268.56873 245.05957 4288.99664 515.7293 4288.99664 478.27814 4360.4943 413.58978 4431.99196 250.16655 4462.63382 163.34796 4554.55938 .00027 4624.35472 .00027 4156.21526"/>
          <polygon class="cls-26" points="250.16655 4462.63382 139.5154 4485.23364 48.71515 4473.93373 .00027 4473.93373 .00027 4520.65634 94.343 4530.86149 163.34796 4554.55938 250.16655 4462.63382"/>
          <polygon class="cls-26" points="413.58978 4431.99196 332.47863 4411.95555 216.39006 4411.95555 125.08341 4421.97376 35.67112 4411.95555 .00027 4421.97376 .00027 4380.22461 85.64021 4390.28499 160.93438 4376.52162 241.75828 4381.35764 311.31704 4367.01487 421.53579 4381.35764 478.27814 4360.4943 413.58978 4431.99196"/>
          <polygon class="cls-26" points="245.05957 4288.99664 136.07053 4315.38089 69.13759 4315.38089 .00027 4307.73141 .00027 4329.72366 49.05771 4341.2511 156.15041 4347.89117 252.916 4334.50458 360.59521 4318.4439 455.58251 4320.93545 515.7293 4288.99664 245.05957 4288.99664"/>
          <polygon class="cls-26" points="139.5154 4268.56873 72.96233 4278.98383 30.8902 4271.18615 .00027 4250.1235 .00027 4202.82675 43.3206 4213.9615 98.65959 4208.98735 139.5154 4268.56873"/>
          <polygon class="cls-14" points="69.35248 4551.72048 55.437 4562.29625 62.39474 4572.87202 79.92825 4568.41906 87.1643 4554.55938 69.35248 4551.72048"/>
          <polygon class="cls-14" points="310.96993 4420.82665 299.92613 4427.45292 306.84431 4434.52095 317.5962 4434.52095 322.70796 4427.6738 310.96993 4420.82665"/>
          <polygon class="cls-14" points="96.52166 4286.85003 88.57714 4293.93361 95.12149 4302.55331 106.90477 4302.55331 118.67801 4297.08716 115.10399 4289.72889 109.42761 4284.46044 96.52166 4286.85003"/>
          <polygon class="cls-14" points="64.48824 4356.6496 47.27124 4361.50284 42.65204 4372.00101 58.18934 4377.26271 82.12518 4372.00101 87.1643 4362.76262 64.48824 4356.6496"/>
          <polygon class="cls-33" points="0 4634.76847 0 4628.24361 156.78352 4561.25222 243.84309 4469.07253 407.23079 4438.43581 470.98567 4367.97194 505.9593 4301.20339 239.96028 4301.20339 132.92512 4280.48757 91.78743 4220.4944 .00374 4171.40001 .00374 4164.59524 95.90852 4215.89479 136.48176 4275.06374 240.53645 4295.20339 515.87532 4295.20339 475.94661 4371.43093 475.69075 4371.71413 410.32454 4443.9612 409.3304 4444.14675 246.86653 4474.60964 160.28938 4566.27956 159.71516 4566.52468 0 4634.76847"/>
        </g>
        <g>
          <g>
            <g>
              <path class="cls-35" d="M99.6479,774.31758c36.26707-4.89109,33.01916,36.54521,33.02037,36.54679h0s19.48035-35.23373,40.58406-19.26127c21.10378,15.97243,8.92853,49.54328,8.92853,49.54328,0,0,4.05837-11.88336,14.61026,0,10.55189,11.88336-4.05837,29.13341-4.05837,29.13341,0,0,23.53872-5.88651,25.16209,7.91208,1.62336,13.79861-25.16209,21.10374-25.16209,21.10374,0,0,8.11681-.81168,6.49345,12.17522-1.62336,12.98693-148.53783,43.83085-165.58317-5.68177-17.04534-49.51259,23.53879-25.9738,23.53879-25.9738,0,0-47.88923-38.96076-19.48035-61.68784,28.40888-22.72711,43.83079,3.24673,43.83079,3.24673-10.55184-37.33738,11.73623-46.19622,18.11565-47.05657Z"/>
              <path class="cls-10" d="M94.70661,770.50998c36.26707-4.89109,33.01916,36.54521,33.02037,36.54679h0s19.48035-35.23373,40.58406-19.26127c21.10378,15.97243,8.92853,49.54328,8.92853,49.54328,0,0,4.05837-11.88336,14.61026,0,10.55189,11.88336-4.05837,29.13341-4.05837,29.13341,0,0,23.53872-5.88651,25.16209,7.91208,1.62336,13.79861-25.16209,21.10374-25.16209,21.10374,0,0,8.11681-.81168,6.49345,12.17522-1.62336,12.98693-148.53783,43.83085-165.58317-5.68177-17.04534-49.51259,23.53879-25.9738,23.53879-25.9738,0,0-47.88923-38.96076-19.48035-61.68784,28.40888-22.72711,43.83079,3.24673,43.83079,3.24673-10.55184-37.33738,11.73623-46.19622,18.11565-47.05657Z"/>
            </g>
            <path class="cls-31" d="M165.30472,864.22796s11.70735-13.55604,18.4853-6.77808c6.77821,6.77808-7.39422,25.87979-7.39422,25.87979,0,0,16.02099-11.70748,28.96063,4.31325,12.93989,16.02073-24.64724,46.82992-59.15354,48.67847-34.50629,1.84856-77.02283-28.96063-67.78005-42.51666,9.24265-13.55604,27.72808,1.23241,27.72808,1.23241,0,0-24.64724-32.0416-4.9294-42.51666,19.71785-10.47519,28.96063,13.55604,28.96063,13.55604-1.47617-3.95501-3.79002-29.01976,3.41725-48.73552,2.5833-3.76791,8.53678-11.61865,14.65738-11.65043,12.32377-.06398,14.70313,28.35939,17.04794,58.5374Z"/>
          </g>
          <polygon class="cls-27" points=".00027 859.92237 34.23477 894.62887 174.01355 902.05245 233.96287 917.00432 182.82249 1007.34062 107.27811 1061.81154 38.64231 1097.53818 .00027 1146.66291 .00027 859.92237"/>
          <polygon class="cls-26" points="174.01355 902.05245 115.36144 920.70479 35.99572 929.12747 .00027 921.81759 0 965.48695 85.46997 953.23971 160.62876 953.23971 233.96287 917.00432 174.01355 902.05245"/>
          <polygon class="cls-26" points="107.27811 1061.81154 57.13882 1049.61466 .00027 1066.20996 .00027 1015.29237 71.60516 1003.29264 115.36144 1014.17958 182.82249 1007.34062 107.27811 1061.81154"/>
          <polygon class="cls-26" points=".00027 859.92237 34.23477 894.62887 17.11752 897.58375 .00027 894.38764 .00027 859.92237"/>
          <polygon class="cls-26" points="38.64231 1097.53818 12.09848 1094.20101 .00027 1102.3805 .00027 1146.66291 38.64231 1097.53818"/>
          <polygon class="cls-14" points="34.15169 907.95545 25.84583 913.22496 29.74415 918.89982 38.00624 918.89982 42.62371 911.21989 34.15169 907.95545"/>
          <polygon class="cls-14" points="137.12813 975.8212 124.48752 985.30165 128.47894 994.78211 146.60859 994.78211 153.88527 987.33318 153.88527 978.5299 137.12813 975.8212"/>
          <polygon class="cls-33" points="0 1138.79891 0 1129.09289 31.24055 1089.37819 100.25618 1053.45388 175.09212 999.49392 223.96419 913.16335 168.12337 899.23561 27.472 891.76589 .00374 863.91919 .00374 855.37509 30.11067 885.89772 169.01594 893.27468 233.07356 909.25124 179.66633 1003.59255 179.13411 1003.97683 103.41243 1058.57497 35.15657 1094.10378 0 1138.79891"/>
        </g>
        <g>
          <g>
            <path class="cls-34" d="M129.93559,2906.53892c-36.26707-4.89109-33.01916,36.54521-33.02037,36.54679h0s-19.48035-35.23373-40.58406-19.26127c-21.10378,15.97243-8.92853,49.54328-8.92853,49.54328,0,0-4.05837-11.88336-14.61026,0-10.55189,11.88336,4.05837,29.13341,4.05837,29.13341,0,0-23.53872-5.88651-25.16209,7.91208-1.62336,13.79861,25.16209,21.10374,25.16209,21.10374,0,0-8.11681-.81168-6.49345,12.17522,1.62336,12.98693,148.53783,43.83085,165.58317-5.68177,17.04534-49.51259-23.53879-25.9738-23.53879-25.9738,0,0,47.88923-38.96076,19.48035-61.68784-28.40888-22.72711-43.83079,3.24673-43.83079,3.24673,10.55184-37.33738-11.73623-46.19622-18.11565-47.05657Z"/>
            <path class="cls-10" d="M134.87688,2902.73131c-36.26707-4.89109-33.01916,36.54521-33.02037,36.54679h0s-19.48035-35.23373-40.58406-19.26127c-21.10378,15.97243-8.92853,49.54328-8.92853,49.54328,0,0-4.05837-11.88336-14.61026,0-10.55189,11.88336,4.05837,29.13341,4.05837,29.13341,0,0-23.53872-5.88651-25.16209,7.91208-1.62336,13.79861,25.16209,21.10374,25.16209,21.10374,0,0-8.11681-.81168-6.49345,12.17522,1.62336,12.98693,148.53783,43.83085,165.58317-5.68177,17.04534-49.51259-23.53879-25.9738-23.53879-25.9738,0,0,47.88923-38.96076,19.48035-61.68784-28.40888-22.72711-43.83079,3.24673-43.83079,3.24673,10.55184-37.33738-11.73623-46.19622-18.11565-47.05657Z"/>
          </g>
          <path class="cls-31" d="M264.61134,3042.77297s-104.82963,19.05957-122.97322-11.9357c-18.14359-30.99527,27.21538-19.14414,27.21538-19.14414,0,0-26.20741-23.70227-7.05584-30.08365,19.15157-6.38138,39.18511,3.6465,39.18511,3.6465,0,0-20.03355-18.48853-8.9458-36.13722,11.08775-17.64869,28.22336,0,28.22336,0,0,0,24.19145-43.17421,44.351-32.2347,20.15954,10.93951,0,70.19517,0,70.19517,0,0,40.31909-35.5534,49.39088-9.11626,9.07179,26.43714-49.39088,64.80999-49.39088,64.80999Z"/>
          <polygon class="cls-27" points=".00027 2994.28652 57.80379 3031.73768 207.60841 3031.73768 263.78515 3013.0121 364.22234 2994.28652 399.97117 3031.73768 532.75255 3031.73768 432.31536 3135.57952 316.55723 3207.07718 279.10608 3314.32368 122.49215 3482.85388 .00027 3552.04759 .00027 2994.28652"/>
          <polygon class="cls-26" points=".00027 2994.28652 57.80379 3031.73768 28.90203 3044.39185 .00027 3036.6404 .00027 2994.28652"/>
          <polygon class="cls-26" points="207.60841 3031.73768 263.78515 3013.0121 364.22234 2994.28652 339.7554 3031.73768 267.49912 3044.39185 207.60841 3031.73768"/>
          <polygon class="cls-26" points="316.55723 3207.07718 223.20411 3187.41006 57.80379 3185.05639 .00027 3147.71359 .00027 3095.31736 76.54936 3101.50562 201.02822 3073.43264 285.91538 3102.86487 383.62307 3102.86487 432.31536 3135.57952 316.55723 3207.07718"/>
          <polygon class="cls-26" points="279.10608 3314.32368 189.03467 3314.32368 151.3141 3291.72154 41.4178 3273.16706 .00027 3281.45031 .00027 3394.97568 68.05885 3415.88351 111.19358 3445.60032 122.49215 3482.85388 279.10608 3314.32368"/>
          <polygon class="cls-14" points="413.43557 3060.92966 402.49468 3072.28946 411.05421 3078.09097 425.31953 3075.07021 436.03826 3069.51032 428.9226 3064.69678 413.43557 3060.92966"/>
          <polygon class="cls-14" points="51.3691 3450.22721 37.16089 3459.29757 44.26499 3471.26239 56.60371 3471.26239 73.62186 3460.7448 65.57732 3450.22721 51.3691 3450.22721"/>
          <polygon class="cls-33" points="0 3544.54303 0 3537.6514 113.6136 3473.4739 269.48372 3305.7444 307.07844 3198.0862 423.42219 3126.22683 518.68001 3027.7405 391.68977 3027.7405 356.17708 2990.5364 257.61067 3008.91335 206.15755 3028.80007 49.9095 3027.73464 49.17512 3027.25808 .00374 2995.39981 0 2988.24889 51.70247 3021.74636 205.05794 3022.79225 255.96516 3003.11647 358.27278 2984.04225 394.25813 3021.7405 532.8304 3021.7405 427.21321 3130.93776 312.04133 3202.07253 274.73372 3308.90847 274.30598 3309.36843 117.37532 3478.23952 116.97005 3478.46901 0 3544.54303"/>
          <g>
            <g>
              <polygon class="cls-14" points="87.83108 3307.34739 125.27013 3313.58061 148.34099 3341.49055 136.34903 3362.6672 112.1904 3382.92516 93.77538 3382.92516 78.47481 3365.00466 67.90144 3341.49055 67.90144 3316.69722 87.83108 3307.34739"/>
              <polygon class="cls-36" points="87.83108 3307.34739 100.68124 3321.72475 125.27013 3313.58061 148.34099 3341.49055 128.24855 3337.94046 100.68124 3341.49055 79.89531 3329.15695 67.90144 3316.69722 87.83108 3307.34739"/>
              <polygon class="cls-36" points="67.90144 3341.49055 86.15935 3353.48052 113.07228 3353.48052 136.34903 3362.6672 112.1904 3382.92516 102.12523 3367.66927 88.86197 3370.50733 78.47481 3365.00466 67.90144 3341.49055"/>
            </g>
            <g>
              <polygon class="cls-14" points="245.76877 3136.26176 206.44882 3128.90387 154.80205 3134.7339 118.49267 3150.84637 86.20148 3192.86029 108.12122 3247.15857 155.50296 3258.65985 199.18829 3264.01627 244.70891 3220.84063 267.49912 3177.39508 245.76877 3136.26176"/>
              <polygon class="cls-36" points="245.76877 3136.26176 222.14147 3160.18476 184.94742 3157.13669 150.1331 3162.80566 118.49267 3150.84637 86.20148 3192.86029 126.67101 3190.16453 156.2144 3200.80542 191.94518 3187.41006 236.14387 3190.13613 267.49912 3177.39508 245.76877 3136.26176"/>
              <polygon class="cls-36" points="108.12122 3247.15857 137.76204 3229.10164 184.90555 3229.10164 211.47857 3214.02921 244.70891 3220.84063 199.18829 3264.01627 184.27753 3243.54605 158.60558 3247.31416 155.50296 3258.65985 108.12122 3247.15857"/>
            </g>
            <g>
              <polygon class="cls-12" points="123.86385 3118.40517 129.47818 3119.88968 125.24928 3123.83384 123.86385 3118.40517"/>
              <polygon class="cls-12" points="135.15454 3109.82406 140.36955 3112.37908 135.45027 3115.41892 135.15454 3109.82406"/>
              <polygon class="cls-12" points="149.43371 3103.6196 153.62882 3107.63526 148.01953 3109.04086 149.43371 3103.6196"/>
              <polygon class="cls-12" points="164.7242 3101.50562 168.15336 3106.19234 162.38477 3106.5965 164.7242 3101.50562"/>
              <polygon class="cls-12" points="179.53972 3102.52135 181.65246 3107.93067 175.97311 3106.84213 179.53972 3102.52135"/>
              <path class="cls-29" d="M109.19233,3147.71359c.05038-.63729,.13037-1.55314,.2535-2.65216,.40172-3.58576,.60258-5.37865,1.20191-6.74938,.26183-.59882,.69051-1.38713,4.29936-4.67084,1.41712-1.2894,3.34914-2.98597,5.73734-4.90469-1.51693,2.22964-2.76005,4.21455-3.73428,5.83754-.73618,1.22641-2.03324,3.38725-3.53339,6.26051-.71116,1.36209-1.35276,2.66364-2.51872,4.45667-.67959,1.04505-1.28814,1.87391-1.70572,2.42234Z"/>
              <path class="cls-16" d="M195.04397,3139.97194c-3.18503-.05636-5.37322,2.02009-5.36729,3.96989,.00423,1.38833,1.12117,2.81251,2.38898,3.1124,1.91432,.45286,4.65315-1.54375,5.65661-5.3867l-2.67831-1.6956Zm-.24139,4.28726c-1.20972,.96916-2.45398,1.42575-2.77911,1.01992s.39196-1.52049,1.60171-2.48965c1.20972-.96908,2.45398-1.42575,2.77911-1.01992s-.39196,1.52049-1.60171,2.48965Z"/>
              <rect class="cls-16" x="197.7992" y="3140.95158" width="1.54812" height="7.97473" transform="translate(-712.19924 128.22454) rotate(-13.18663)"/>
              <path class="cls-29" d="M178.25145,3219.81395s-17.97607-18.41992-37.72756-14.20328c-19.75148,4.21656-37.28369,2.2192-40.83452-17.97608-3.55083-20.19536,7.32358-39.05912,9.9867-40.83456,2.66312-1.77544,17.53222-53.48436,78.78401-38.1714l16.86644,5.32628s7.54552-5.10436,14.42524-5.77012c0,0,28.1847,22.4146,30.84782,26.40924,2.66312,3.99472-2.44118,12.64984-2.44118,12.64984,0,0-26.4093,5.99208-32.40132,4.66048-5.99202-1.33152-20.19534-11.54016-20.19534-11.54016-1.91656-.97274-3.37328-.93479-4.15878-.82603-.91182,.1262-1.83937,.47515-6.4838,4.53368-2.61484,2.28495-2.77989,2.57553-2.78776,2.93469-.0274,1.24893,1.8489,3.16682,11.76085,5.68607,1.1313-.33776,2.72989-.77467,4.6778-1.17364,2.64026-.54075,4.04885-.62804,4.50368-.65182,1.48235-.07745,4.77839-.24965,5.0625,.70229,.20116,.67396-1.15466,1.75337-2.20163,2.27101-1.12362,.55551-1.57391,.30698-3.21254,.8118-.53033,.1634-3.06008,.94247-3.01996,1.70827,.0274,.52301,1.24538,.71668,3.88548,1.5407,1.9993,.62402,3.83433,1.19675,5.61799,2.13348,1.92399,1.01046,4.62151,2.87721,4.30285,3.74827-.2553,.69782-2.3657,.53613-2.8692,.49751-1.35275-.10369-1.829-.4662-3.87103-1.07993-2.3065-.69327-3.8231-1.13323-4.33297-.51041-.3832,.46807-.04568,1.35068,.1728,1.92192,.31764,.83058,.69096,1.10416,1.96264,2.63278,1.16464,1.39996,1.43693,1.87414,1.62756,2.27385,.36555,.76647,.83405,1.74883,.47293,2.17336-.55987,.65816-2.96836-.19568-4.6615-1.45534-.37727-.28066-1.03338-.93703-2.3456-2.24984-1.39873-1.39936-1.99349-2.08905-3.03764-2.20735-.2109-.02385-.84562-.08759-1.47416,.24376-1.29565,.68298-1.61436,2.54333-1.76069,3.39746-.02597,.15162-.11149,.68939-.1989,1.28724-.1107,.75715-.11391,.85481-.14256,1.01187-.17567,.9632-.94804,2.18924-1.62736,2.20996-.71018,.02169-1.55674-1.26652-1.84067-3.22571-.15812-.77475-.29263-1.6136-.38593-2.51127-.2109-2.02919-.15844-3.85107,0-5.38714l-14.95615-3.42408-10.74466-14.93509c-5.84288,1.75188-11.68578,3.50384-17.52866,5.25572-9.28221,3.59791-18.56442,7.19575-27.84663,10.79367,0,0-11.19462,16.84426,2.92943,33.16537,0,0,6.90509,5.54495,29.18969,1.15083,22.2846-4.39413,28.01228,25.00187,28.01228,25.00187Z"/>
              <path class="cls-21" d="M211.47857,3137.13811c2.72542-.71615,5.45084-1.43238,8.17626-2.14854,.57286-.04741,1.44472-.05151,2.42458,.24391,1.46011,.44019,2.35445,1.30267,3.8578,2.85336,1.58977,1.63984,2.95707,3.11747,4.08473,4.36789-1.20647,.55245-7.00924,3.09198-11.69863,1.10968-1.11776-.47254-2.21104-1.21009-2.2111-1.21009-2.53308-1.70887-3.92873-3.88573-4.63364-5.21621Z"/>
              <path class="cls-29" d="M220.62605,3134.9655c-.01395,.02935-1.14016,2.39574-1.15412,2.42509l-.75397,1.58433,.03777,1.34707,.09692,3.45729c.0137-.03885,1.00403-2.84542,1.01773-2.88427l.53118-1.50531,.0763-1.50399c.00196-.03867,.14621-2.88154,.14818-2.92021Z"/>
              <path class="cls-16" d="M196.748,3124.77557c-.59942,1.63239-1.17426,3.56787-1.58106,5.77478-.68129,3.69602-.66785,6.94118-.45644,9.43516l2.97908,1.86728c-.32092-2.92224-.20237-5.32989-.01594-7.04249,.11577-1.06353,.25512-2.23434,.6768-3.7104,.72413-2.53475,1.84834-4.42231,2.67779-5.60802-.63241-.09616-1.27123-.19754-1.91624-.30444-.79974-.13254-1.5878-.27-2.36398-.41186Z"/>
              <path class="cls-19" d="M126.71581,3130.35779c-.44243-.68043,2.44158-3.23369,6.48139-6.81014,4.62255-4.09235,7.00037-6.18378,10.60354-7.36328,2.62746-.86009,2.80581-.31958,6.02631-1.36523,4.54284-1.47501,4.58679-2.74743,8.28581-3.97373,4.2791-1.41861,8.06717-1.02598,10.53638-.77009,2.8695,.29739,6.91799,1.12794,6.87639,1.75348-.05211,.78356-6.41973-.30122-14.87602,2.21828-1.80052,.53646-2.77695,.96252-8.24727,2.68906-3.4133,1.0773-5.11997,1.61599-5.63796,1.74928-2.25114,.57934-3.06912,.64818-4.47074,1.35161-1.56025,.78302-2.56957,1.71284-3.66267,2.73487-2.23728,2.09179-2.45583,2.97692-3.80029,4.31949-3.04642,3.04214-7.63505,4.20433-8.11485,3.4664Z"/>
              <path class="cls-19" d="M107.28705,3192.95629c-.8569-1.10506-1.53071-1.90977-1.97721-2.73431-2.19967-4.06196-2.19148-9.55175-2.17768-10.95707,.00997-1.01575,.03491-3.55565,.4991-3.61573,.47618-.06165,1.23881,2.6371,1.48412,3.6132,.32588,1.29671,.46688,2.39692,.46688,2.39699,.17599,1.37327,.06001,1.68293,.31445,2.58626,.1626,.57728,.32013,.84191,.93191,2.05871,.44113,.87739,1.03608,2.06072,1.30156,2.66469,1.0689,2.43173,1.12246,5.31215,.5764,5.48972-.09402,.03056-.25642-.00253-1.41953-1.50245Z"/>
              <path class="cls-21" d="M134.86692,3201.99509c.21394-.39322,.28356-.92883,.07454-1.31684-.45683-.84795-2.11884-.75745-3.70209-.64601-5.64961,.39777-8.09401,.90803-11.16759,.7166-1.43802-.08953-2.57998-.30563-3.21837-.44332-1.19743-.28074-1.57011-.17496-1.6647,0-.21263,.3933,.78636,1.49403,1.938,2.08711,.20517,.10563,.63111,.30638,2.38524,.57146,2.23647,.33799,3.89107,.36631,4.42311,.37116,.83992,.0076,1.43818-.0202,2.06175-.04816,6.78311-.30407,8.30459-.25256,8.87011-1.29201Z"/>
              <path class="cls-21" d="M107.26816,3163.73584c-.24385,.96983-.17469,1.77954-.04824,3.12672,.118,1.2572,.16291,1.88703,.34913,1.9211,.42891,.07842,1.306-2.46997,1.8421-4.45988,1.41533-5.25341,.63299-7.27842,2.55826-10.15989,.32487-.48618,.70139-.95306,1.45443-1.88666,1.6442-2.03851,2.4663-3.05776,3.48121-3.85815,1.88884-1.48963,2.80433-1.25765,3.47031-2.53237,.62116-1.18899,.54356-2.76674,.03254-2.98001-.48906-.2041-1.12309,.94665-2.67348,2.4869-3.34971,3.32784-5.07325,2.60893-6.16958,4.96738-.40912,.88008-1.08382,2.94803-1.3755,4.20747-.04623,.19963-.17175,.76282-.48547,1.45639-.31526,.69692-.58949,1.01471-.80912,1.3755-.90473,1.48635-.05,2.33564-.83691,4.54344-.36267,1.01746-.56567,.9011-.78968,1.79206Z"/>
              <ellipse class="cls-21" cx="153.17375" cy="3200.80542" rx="3.04065" ry=".8437"/>
              <path class="cls-29" d="M228.00082,3114.71752s10.78711,5.29811,11.98058,6.60575,3.35311,5.50768,4.27005,7.10282c.91694,1.59514-16.25063-13.70857-16.25063-13.70857Z"/>
              <path d="M223.20411,3110.88918c-1.79894-6.1131-2.50956-9.71873-2.73837-11.98881-.03565-.35364-.11232-1.13297-.6485-1.87451-1.14186-1.5792-3.48354-1.67525-4.10072-1.70145-2.27187-.0965-2.4994,.81068-7.05505,1.96061-2.15661,.54436-3.44198,.6784-4.84427,.34224-1.03522-.24816-1.40799-.57851-2.32649-.99756-2.26675-1.0342-6.49005-1.98506-9.38709,.01815-.4252,.29401-1.88182,1.30122-2.42842,2.99477-.00002,.00007-.06019,.18647-.53943,2.19576h0c-.02497,3.44111-.04995,6.88225-.07493,10.32336-2.43762,1.16588-4.70241,2.26736-6.77826,3.2893-2.71049,1.33443-3.2827,1.68695-3.42198,2.02024-.02378,.05688-.03082,.09929-.03913,.1514-.31869,2.00243,8.21626,4.98646,9.87986,5.56814,3.00359,1.05012,6.01386,2.10262,10.22652,2.68235,7.86632,1.08254,14.07139-.42304,20.54855-1.95211,.75889-.17913,3.48093-.83654,6.9087-2.06631,.3558-.12762,2.40628-.86994,4.99198-2.12461,2.65993-1.29067,3.89218-2.15584,4.84865-3.4899,.72249-1.0077,1.08375-1.51155,.94229-2.06482-.33484-1.30961-3.04544-1.47569-10.99412-2.78433-1.28991-.21238-2.3344-.39173-2.9698-.50191Z"/>
              <path class="cls-16" d="M189.06084,3112.16173c3.01203,1.41225,8.0205,3.28043,14.43517,3.51942,9.44437,.35185,16.54461-3.02861,19.70809-4.79198-.4955-1.811-.991-3.62196-1.4865-5.43291-2.67484,1.75401-6.64928,3.8917-11.81259,5.15784-9.31917,2.28525-17.14492,.41551-20.87035-.75208l.02617,2.29971Z"/>
              <g>
                <path class="cls-29" d="M137.98837,3181.3333c.02856,2.00422,.26846,2.55361-.0346,3.76825-.11278,.45197-.58566,2.34675-1.40553,2.30791-1.02338-.0486-2.18379-3.09078-2.6702-5.1407-.45089-1.90038-.49912-3.70936-.55168-5.68025-.06943-2.60274,.09682-3.73366-.45084-3.95297-.80187-.32099-2.403,1.58662-2.73875,1.98655-1.03732,1.23558-.91069,1.71983-1.84454,2.48883-.87019,.7166-2.43197,1.49172-3.08699,1.06502-.92521-.6027,.26487-3.40328,.80011-4.66264,.16423-.38652,.6874-1.57819,2.06893-3.67097,1.01928-1.54398,1.97218-2.77017,2.67689-3.62728,.08743-.21409,.20155-.53889,.27129-.94605,.11366-.6636,.0258-1.05772,.02957-1.72326,.00217-.38353,.03518-.92958,.17971-1.59437,3.83496,.00365,7.66991,.00738,11.50486,.01103l.20068,3.95006c1.6814,.43631,3.63429,1.07151,5.72712,2.01316,.9258,.41656,1.77652,.84691,2.55184,1.2739,1.9961,.97892,3.10696,2.1961,2.86691,2.80528-.22957,.58272-1.76896,.79584-2.84661,.58861-.17574-.03384-.28054-.06746-1.11929-.2542-.66229-.14745-1.26013-.2741-1.42926-.30817-.95273-.19195-3.02787-.61015-4.14981,.26076-.54431,.42245-.67047,.99801-.70953,1.19019-.19324,.95179,.35826,1.72646,1.41859,3.46515,.99476,1.63119,1.49209,2.44672,1.67518,2.87945,.82188,1.94242,.99374,4.35492,.12299,4.59562-.56165,.15513-1.46288-.61917-2.16604-1.22328-.3667-.3151-.7876-.7289-1.92008-2.2643-1.23656-1.67667-1.41335-2.10329-2.1993-2.68981-.54055-.40336-1.37573-1.02648-1.99044-.86837-.8179,.21044-.81353,1.69299-.78119,3.95685Z"/>
                <path class="cls-29" d="M130.75118,3166.21506c4.10067,.00939,8.20134,.01886,12.30201,.02825,1.15523-6.16353,2.31047-12.32713,3.4657-18.49066,1.05071-9.2813-18.03721-2.45164-18.03721-2.45164l-10.86464,15.07494,14.03451-2.14928c-.30013,2.66282-.60025,5.32557-.90038,7.98839Z"/>
              </g>
              <path class="cls-11" d="M213.13737,3139.63741s-1.46321-1.83423,.46212-3.05518l6.05534-1.59266s3.2075-1.37994,8.48449,5.41276c0,0,1.86357,2.5909-1.877,3.37694s-8.46852,1.49608-13.12496-4.14186Z"/>
              <path class="cls-28" d="M220.62605,3134.9655c-.01395,.02935-1.14016,2.39574-1.15412,2.42509l-.75397,1.58433,.03777,1.34707,.09692,3.45729c.0137-.03885,1.00403-2.84542,1.01773-2.88427l.53118-1.50531,.0763-1.50399c.00196-.03867,.14621-2.88154,.14818-2.92021Z"/>
              <polygon class="cls-12" points="143.78808 3125.18118 148.64492 3128.36482 143.38584 3130.76939 143.78808 3125.18118"/>
              <polygon class="cls-12" points="153.81149 3121.04417 158.60558 3124.32154 153.30079 3126.62352 153.81149 3121.04417"/>
              <polygon class="cls-12" points="168.02977 3119.661 172.54467 3123.31341 167.07189 3125.18118 168.02977 3119.661"/>
              <polygon class="cls-12" points="133.36187 3133.18584 138.22098 3136.36602 132.96361 3138.77434 133.36187 3133.18584"/>
              <path class="cls-19" d="M141.6185,3131.97855c-4.48593,3.63668-7.10432,3.78942-8.65489,6.79582-.53293,1.03327-.91977,2.36501-.5601,2.61534,.4832,.33627,2.03084-1.47614,4.6489-3.62743,2.72085-2.23568,5.03976-3.55714,7.07744-4.71825,2.34745-1.33764,4.15242-2.1094,7.76235-3.65293,4.99888-2.13743,7.49833-3.20611,9.51269-3.42452,3.63125-.39375,4.13843,.65518,7.68216-.14693,3.14918-.7128,3.10871-1.62277,6.00825-1.99676,.00006,0,2.77156-.35752,3.42045-1.3802,.0094-.01483,.02883-.05039,.02331-.09132-.0527-.39106-2.6173-.29311-4.35478-.04115-2.50564,.36333-2.44055,.9386-4.7151,1.37603-2.0193,.38838-2.17063-.03668-6.16176,.14946-2.14417,.09996-3.27895,.15289-4.70184,.48581-2.31827,.54239-2.50848,1.15112-5.30479,2.30202-4.6038,1.89486-6.33867,1.17103-9.47843,3.40715-1.04376,.74336-.56159,.61649-2.20386,1.94786Z"/>
            </g>
          </g>
        </g>
      </g>
    </g>
  </g>
</svg>