<?xml version="1.0" encoding="UTF-8"?>
<svg id="Layer_2" data-name="Layer 2" xmlns="http://www.w3.org/2000/svg" viewBox="0 0 466.75 6205.72974">
  <defs>
    <style>
      .cls-1 {
        fill: #ef9747;
      }

      .cls-2 {
        fill: #e28f43;
      }
    </style>
  </defs>
  <g id="EVERYTHING_ELSE" data-name="EVERYTHING ELSE">
    <g>
      <polyline class="cls-2" points="369.06814 0 466.75 0 466.75 6205.72974 49.44006 6205.72974 64.21997 6169.46997 64.22998 6169.45972 156.84661 5942.2647 266.3017 5775.47046 281.74214 5757.97816 284.04993 5707.8999 284.04993 5404.61987 276.79993 5365.88989 228.72998 5108.96997 255.44006 4885.80981 236.35999 4693.15991 264.87 4603.12988 272.59998 4578.71997 73.82996 3708 81.36019 3635.99246 109.05003 3598.64304 86.69173 3482.85388 106.2079 3207.20776 174.55994 3104.29993 174.55994 2965.20996 0 1881.37994 33.81142 1778.79993 41.58338 1666.00992 120.86627 1547.75172 137.35999 1385.87994 76.61647 1142.48383 120.86627 889.33376 188.68907 775.73617 269.52991 700.9875 256.10999 629.3999 283.58997 539.12988 338.26809 320.82307 338.26809 144.82796 369.06814 0"/>
      <polygon class="cls-1" points="338.26809 144.82796 369.06814 162.05133 422.43542 145.30312 443.29538 378.87165 400.66976 301.92954 338.26809 320.82307 338.26809 144.82796"/>
      <polygon class="cls-1" points="269.52991 700.9875 285.02788 716.17642 358.90144 726.88087 400.66976 663.50995 260.77314 654.27517 269.52991 700.9875"/>
      <polygon class="cls-1" points="188.68907 775.73617 120.86627 889.33376 143.07996 920.76863 177.93502 920.76863 212.63592 945.6821 287.25923 841.92779 260.77314 795.31154 228.66692 794.61301 210.85639 775.73617 188.68907 775.73617"/>
      <polygon class="cls-1" points="76.61647 1142.48383 120.86627 1118.89173 189.62571 1142.48383 259.39694 1336.40106 185.354 1352.00593 168.00671 1383.38985 137.35999 1385.87994 76.61647 1142.48383"/>
      <polygon class="cls-1" points="120.86627 1547.75172 41.58338 1666.00992 68.73305 1698.23768 149.19068 1701.96231 224.87375 1640.27759 251.0526 1541.89156 142.72134 1560.27088 120.86627 1547.75172"/>
      <polygon class="cls-1" points="174.55994 3104.29993 106.2079 3207.20776 174.55994 3219.81395 240.79152 3203.33653 314.87317 3225.09022 377.50953 3207.20776 377.50953 3112.62149 245.7328 3085.37123 209.51834 3107.57088 174.55994 3104.29993"/>
      <polygon class="cls-1" points="86.69173 3482.85388 109.05003 3598.64304 194.71362 3581.73399 340.36736 3598.64304 410.97923 3554.04585 441.42418 3459.14724 377.50953 3438.84691 322.17711 3450.0698 261.61978 3438.84691 198.5485 3425.13646 151.09825 3459.14724 118.01604 3459.14724 86.69173 3482.85388"/>
      <polygon class="cls-1" points="236.35999 4693.15991 265.56006 4684.29857 337.46761 4698.84167 360.89815 4864.4714 280.82611 4865.38655 255.44006 4885.80981 236.35999 4693.15991"/>
      <polygon class="cls-1" points="228.72998 5108.96997 284.04993 5404.61987 376.45813 5218.35347 311.61321 5108.96997 279.29521 5127.05513 256.67261 5108.96997 228.72998 5108.96997"/>
      <polygon class="cls-1" points="156.84661 5942.2647 64.21997 6169.46997 149.64435 6130.68733 222.42263 5983.10746 187.7592 5951.6081 165.34067 5955.03434 156.84661 5942.2647"/>
    </g>
  </g>
</svg>