<?xml version="1.0" encoding="UTF-8"?>
<svg id="Layer_2" data-name="Layer 2" xmlns="http://www.w3.org/2000/svg" xmlns:xlink="http://www.w3.org/1999/xlink" viewBox="0 0 706.13573 7149.67969">
  <defs>
    <style>
      .cls-1 {
        stroke-width: 1.10789px;
      }

      .cls-1, .cls-2, .cls-3, .cls-4, .cls-5, .cls-6, .cls-7 {
        fill: none;
      }

      .cls-1, .cls-3, .cls-4, .cls-5, .cls-8, .cls-9 {
        stroke-miterlimit: 10;
      }

      .cls-1, .cls-3, .cls-5 {
        stroke: #b5b46c;
      }

      .cls-10 {
        fill: url(#linear-gradient);
      }

      .cls-11 {
        fill: #6a3829;
      }

      .cls-12 {
        fill: #fdcc7b;
      }

      .cls-13 {
        fill: #e4c16d;
      }

      .cls-14 {
        fill: #7e7370;
      }

      .cls-15 {
        fill: #929496;
      }

      .cls-16 {
        fill: #939598;
      }

      .cls-17 {
        fill: #30150f;
      }

      .cls-18 {
        fill: #903f2e;
      }

      .cls-19 {
        fill: #bcbdbf;
      }

      .cls-20 {
        fill: #af6f34;
      }

      .cls-21 {
        fill: #bc7738;
      }

      .cls-22 {
        fill: #bd703c;
      }

      .cls-23 {
        fill: #e0b15b;
      }

      .cls-24 {
        fill: #d6cb88;
      }

      .cls-25, .cls-26 {
        fill: #201f20;
      }

      .cls-27 {
        fill: #965f2d;
      }

      .cls-28 {
        fill: #895729;
      }

      .cls-29 {
        fill: #6e3d37;
      }

      .cls-30 {
        fill: gray;
      }

      .cls-31, .cls-8 {
        fill: #4b2820;
      }

      .cls-32 {
        fill: #57673d;
      }

      .cls-33 {
        fill: #547347;
      }

      .cls-34 {
        fill: #61422c;
      }

      .cls-35 {
        fill: #7c4f25;
      }

      .cls-2 {
        stroke-width: 3.10429px;
      }

      .cls-2, .cls-6, .cls-7 {
        stroke: #6c8241;
        stroke-linecap: round;
        stroke-linejoin: round;
      }

      .cls-3, .cls-9 {
        stroke-width: .72803px;
      }

      .cls-4 {
        stroke: #201f20;
      }

      .cls-4, .cls-5, .cls-8 {
        stroke-width: .74186px;
      }

      .cls-6 {
        stroke-width: 2.67588px;
      }

      .cls-36 {
        fill: url(#linear-gradient-3);
      }

      .cls-37 {
        fill: url(#linear-gradient-2);
      }

      .cls-7 {
        stroke-width: 3.56605px;
      }

      .cls-8 {
        stroke: #4b2820;
      }

      .cls-9 {
        fill: #d65e72;
        stroke: #d65e72;
      }

      .cls-26 {
        opacity: .4;
      }
    </style>
    <linearGradient id="linear-gradient" x1="-9328.39874" y1="3477.57208" x2="-9329.16909" y2="3666.83962" gradientTransform="translate(-8848.37329) rotate(-180) scale(1 -1)" gradientUnits="userSpaceOnUse">
      <stop offset=".0228" stop-color="#486e37"/>
      <stop offset=".15569" stop-color="#426431"/>
      <stop offset=".37582" stop-color="#334b22"/>
      <stop offset=".56742" stop-color="#233012"/>
    </linearGradient>
    <linearGradient id="linear-gradient-2" x1="-8786.71519" y1="4664.72846" x2="-8786.71519" y2="4839.10661" gradientTransform="translate(-8890.90895 577.17744) rotate(172.6653) scale(1 -1)" xlink:href="#linear-gradient"/>
    <linearGradient id="linear-gradient-3" x1="-9324.68139" y1="1645.76306" x2="-9324.68139" y2="1848.05943" gradientTransform="translate(-8890.90895 577.17744) rotate(172.6653) scale(1 -1)" xlink:href="#linear-gradient"/>
  </defs>
  <g id="EVERYTHING_ELSE" data-name="EVERYTHING ELSE">
    <g>
      <g>
        <g>
          <g>
            <path class="cls-10" d="M503.85096,3429.34312c-36.26707-4.89109-33.01916,36.54521-33.02037,36.54679h0s-19.48035-35.23373-40.58406-19.26127c-21.10378,15.97243-8.92853,49.54328-8.92853,49.54328,0,0-4.05837-11.88336-14.61026,0-10.55189,11.88336,4.05837,29.13341,4.05837,29.13341,0,0-23.53872-5.88651-25.16209,7.91208-1.62336,13.79861,25.16209,21.10374,25.16209,21.10374,0,0-8.11681-.81168-6.49345,12.17522,1.62336,12.98693,148.53783,43.83085,165.58317-5.68177,17.04534-49.51259-23.53879-25.9738-23.53879-25.9738,0,0,47.88923-38.96076,19.48035-61.68784-28.40888-22.72711-43.83079,3.24673-43.83079,3.24673,10.55184-37.33738-11.73623-46.19622-18.11565-47.05657Z"/>
            <path class="cls-7" d="M508.79225,3425.53552c-36.26707-4.89109-33.01916,36.54521-33.02037,36.54679h0s-19.48035-35.23373-40.58406-19.26127c-21.10378,15.97243-8.92853,49.54328-8.92853,49.54328,0,0-4.05837-11.88336-14.61026,0-10.55189,11.88336,4.05837,29.13341,4.05837,29.13341,0,0-23.53872-5.88651-25.16209,7.91208-1.62336,13.79861,25.16209,21.10374,25.16209,21.10374,0,0-8.11681-.81168-6.49345,12.17522,1.62336,12.98693,148.53783,43.83085,165.58317-5.68177,17.04534-49.51259-23.53879-25.9738-23.53879-25.9738,0,0,47.88923-38.96076,19.48035-61.68784-28.40888-22.72711-43.83079,3.24673-43.83079,3.24673,10.55184-37.33738-11.73623-46.19622-18.11565-47.05657Z"/>
          </g>
          <path class="cls-33" d="M600.00826,3554.2767s-104.82963,14.20256-122.97322-8.89409c-18.14359-23.09666,27.21538-14.26558,27.21538-14.26558,0,0-26.20741-17.66215-7.05584-22.41734,19.15157-4.75519,39.18511,2.71725,39.18511,2.71725,0,0-20.03355-13.77704-8.9458-26.92827,11.08775-13.15123,28.22336,0,28.22336,0,0,0,24.19145-32.172,44.351-24.02024,20.15954,8.15176,0,52.30714,0,52.30714,0,0,40.31909-26.49323,49.39088-6.79313,9.07179,19.70009-49.39088,48.29427-49.39088,48.29427Z"/>
        </g>
        <g>
          <path class="cls-33" d="M156.73459,6197.22237c1.55932,3.36749,3.08861,6.6702,6.23133,9.31564,8.61809,7.25444,24.5736,5.53026,39.95874-3.394-.41248-3.87099-.82496-7.74185-1.23744-11.61284-2.82984,3.37344-6.8174,7.1384-10.51655,6.33656-2.95485-.6405-3.97553-3.81541-8.42579-12.42861-8.00212-15.48762-11.0877-17.58127-13.13588-18.56163-3.42833-1.64101-8.91247-2.53806-12.65995,0-7.3605,4.9851-4.58898,20.89751-.21444,30.34487Z"/>
          <path class="cls-33" d="M265.61151,6167.25914c-1.5178,5.6302-3.74468,13.89056-11.3638,18.00106-8.13759,4.39018-19.33272,2.37753-28.29018-4.96833l.52033-10.03499c.49565,.4421,4.17816,3.63229,8.15976,2.53333,.65454-.18068,2.99313-.93979,5.46364-5.4909,2.52021-4.64267,2.37649-8.07102,3.17211-13.58059,1.24177-8.59914,2.24416-15.54049,6.5495-17.73518,3.43386-1.75042,8.12392-.05058,10.86098,1.91068,10.54924,7.55927,5.19001,28.39173,4.92766,29.36492Z"/>
          <path class="cls-33" d="M173.24192,6109.73916c-3.87943,2.23607-4.90942,10.64519-.35327,20.1169,1.12799,1.89959,2.92005,4.14174,5.69152,5.69146,6.03281,3.37331,14.30037,2.12003,21.17872-3.00126l.39613-9.50024c-5.24193,2.79759-8.02583,2.42202-9.60669,1.51537-3.75042-2.151-1.84974-7.93335-6.30549-12.19356-2.99847-2.86683-8.09856-4.3016-11.00092-2.62867Z"/>
          <path class="cls-33" d="M222.56669,6240.64594s23.53908-146.79824-6.41975-148.51017c-29.95882-1.71193-20.89543,79.32089-12.91448,148.51017h19.33423Z"/>
          <line class="cls-1" x1="223.05605" y1="6096.99786" x2="221.84795" y2="6240.69159"/>
          <line class="cls-1" x1="212.67273" y1="6092.33362" x2="212.71096" y2="6240.69159"/>
          <line class="cls-1" x1="259.11361" y1="6136.92456" x2="259.12487" y2="6180.61603"/>
          <line class="cls-1" x1="248.66081" y1="6137.43067" x2="248.67357" y2="6186.91939"/>
          <line class="cls-1" x1="182.13019" y1="6185.19005" x2="182.13463" y2="6210.63753"/>
          <line class="cls-1" x1="169.82663" y1="6167.31795" x2="169.88724" y2="6210.89682"/>
          <line class="cls-1" x1="158.06524" y1="6166.5914" x2="158.07362" y2="6198.75846"/>
          <line class="cls-1" x1="182.125" y1="6111.24133" x2="182.13154" y2="6136.80764"/>
          <line class="cls-1" x1="173.2457" y1="6110.22355" x2="173.41017" y2="6129.83982"/>
          <line class="cls-1" x1="238.21715" y1="6170.72399" x2="238.22133" y2="6186.91917"/>
          <line class="cls-1" x1="194.4787" y1="6197.81093" x2="194.48109" y2="6207.04333"/>
          <line class="cls-1" x1="190.54834" y1="6124.56139" x2="190.40905" y2="6136.80884"/>
          <line class="cls-1" x1="203.29046" y1="6100.06727" x2="203.57397" y2="6240.69159"/>
          <path class="cls-12" d="M246.76836,6246.8919c-2.05605,.03205-5.37286-.10684-9.22611-1.2265-4.53389-1.31751-5.40367-2.71225-10.53095-4.27793-4.02265-1.22839-7.32142-1.54053-10.00271-1.79437-2.12346-.20097-5.45965-.50093-9.82589-.13754-1.64223,.13673-6.03039,.58356-11.50059,2.30518-3.4653,1.09058-3.77085,1.56162-6.4705,2.36766-4.28319,1.27883-8.25891,1.50969-11.55418,1.34794"/>
          <polygon class="cls-24" points="248.56774 6175.44289 257.80569 6170.39635 248.63687 6165.31596 248.56774 6175.44289"/>
          <polygon class="cls-24" points="212.38962 6129.08795 221.62757 6124.04141 212.45875 6118.96102 212.38962 6129.08795"/>
          <polygon class="cls-24" points="212.41767 6222.93497 203.17972 6217.88843 212.34854 6212.80804 212.41767 6222.93497"/>
          <polygon class="cls-24" points="169.88087 6188.96201 160.64292 6183.91547 169.81174 6178.83508 169.88087 6188.96201"/>
          <polygon class="cls-24" points="212.78582 6173.78809 203.54788 6168.74155 212.71669 6163.66116 212.78582 6173.78809"/>
          <polygon class="cls-24" points="182.27642 6129.08795 173.03847 6124.04141 182.20729 6118.96102 182.27642 6129.08795"/>
        </g>
        <polygon class="cls-34" points="347.49168 973.94426 332.21077 996.41664 284.17784 986.50627 272.6768 997.22387 226.02677 984.04064 276.20338 1013.10413 291.78399 1000.10477 324.53226 1010.18724 312.2051 1028.31578 292.03766 1014.6022 253.03992 1031.0591 180.27592 999.27602 256.30568 1046.81536 292.47033 1029.22135 316.26181 1049.61244 357.97878 989.50187 441.09128 988.71747 436.66577 965.48473 347.49168 973.94426"/>
        <polygon class="cls-34" points="219.51224 3766.49679 168.41193 3782.3108 103.7475 3774.40379 167.35767 3800.23334 219.51224 3788.71153 219.51224 3766.49679"/>
        <polygon class="cls-34" points="592.37317 5008.82938 502.16875 5049.0019 379.69706 5047.67146 334.67803 5023.21534 319.15423 4984.37326 323.17132 5025.61234 281.20186 5042.8835 326.14052 5036.2582 365.97251 5056.74305 334.31118 5088.78742 306.22452 5075.06357 272.52052 5077.42975 251.07253 5056.74305 266.90319 5086.89447 304.69252 5084.52829 338.39652 5100.14509 381.49602 5063.88807 509.98049 5073.17062 607.51781 5029.63289 592.37317 5008.82938"/>
        <polygon class="cls-34" points="684.2332 3402.74261 511.43125 3349.4106 486.88905 3348.59671 476.91074 3298.54877 447.99521 3273.63749 397.89029 3284.87332 390.58227 3250.20007 319.66023 3247.8481 289.11674 3268.36863 322.11796 3258.15852 379.81273 3263.12545 387.0139 3299.24413 444.28226 3288.92889 464.23414 3306.38538 472.5916 3363.91765 395.07046 3365.84979 346.06282 3380.33343 292.54503 3418.2555 219.51224 3369.26604 291.86223 3438.8447 354.98012 3392.84358 399.27366 3379.80785 480.19215 3384.89423 503.13087 3363.74485 689.65902 3431.42494 684.2332 3402.74261"/>
        <polygon class="cls-34" points="674.12925 3301.24196 612.58541 3285.28487 536.24542 3298.24002 610.345 3264.06357 672.90379 3274.86637 674.12925 3301.24196"/>
        <rect class="cls-16" x="531.65625" y="614.1862" width="9.55897" height="106.22894" transform="translate(-188.26685 211.38441) rotate(-19.03025)"/>
        <g>
          <polygon class="cls-20" points="706.12988 0 706.12988 7149.67969 39.39014 7149.67969 39.39014 6464.77979 0 6363 5.44971 6291.10986 113.21973 6243.08984 239.40967 6233.06982 296.43994 6161.41016 370.47998 6103.2002 502.68994 5831.85986 468.46973 5603.22998 472.75 5423.6499 547.40967 5309.68994 525.54004 4982.19995 582.46973 4740.37988 472.75 4614.53003 413.8999 4410.02002 192.6499 4119.1001 234.3501 3940.20996 192.6499 3708 259.23975 3661.12988 274.21973 3614.51001 307.83008 3592.63989 379.1001 3546.26001 587.18018 3546.26001 660.43018 3471.34998 645.44971 3251.60986 547.22998 3171.69995 477.31006 3031.86987 413.93994 2984.78003 295.85986 2897.03003 200.97998 2887.03992 61.14014 2698.92993 129.39014 2412.59998 112.75 2134.59998 176.31006 1918.86993 172.77979 1849.18994 239.37988 1766.53992 309.75977 1742.13995 376.73975 1646.22998 414.89014 1591.37994 449.33984 1291.95996 382.45996 1193.67993 433.37988 890.38995 504.66992 755.30994 547.6001 720.99994 619.52979 663.51001 588.73975 454.23999 638.27002 170.05005 597.33008 0 706.12988 0"/>
          <g>
            <polygon class="cls-21" points="588.73613 454.23777 635.6345 464.34313 706.12615 440.51607 706.12615 193.05519 678.49742 170.60727 638.26616 170.04771 588.73613 454.23777"/>
            <polygon class="cls-21" points="619.52617 663.50773 655.47131 681.97589 706.12615 672.74181 706.12642 798.67187 621.72826 791.48444 569.61744 753.81362 504.66606 755.30772 619.52617 663.50773"/>
            <polygon class="cls-21" points="433.37615 890.38774 483.1689 929.12526 569.61744 929.12526 617.72526 965.48473 706.12615 978.36396 706.12642 1146.6607 631.15413 1154.70676 569.3201 1182.81303 520.89526 1160.42172 449.96244 1166.41201 382.4561 1193.67772 433.37615 890.38774"/>
            <polygon class="cls-21" points="449.33611 1291.95775 414.88616 1591.37773 496.34309 1585.11672 558.35936 1605.47255 640.16805 1585.11672 661.81156 1486.718 661.81156 1329.69808 598.27758 1321.78111 517.79435 1319.05592 483.1689 1296.37777 449.33611 1291.95775"/>
            <polygon class="cls-21" points="239.37615 1766.53971 309.75565 1742.13614 377.00081 1754.33793 490.42875 1748.051 588.66358 1771.67408 706.12615 1753.72054 706.12615 1881.37842 598.27758 1861.07328 524.77452 1828.14196 427.99483 1828.05533 353.37773 1799.07685 261.72019 1784.903 239.37615 1766.53971"/>
            <polygon class="cls-21" points="172.77903 1849.19229 223.86787 1862.42247 299.28498 1862.42247 386.12892 1888.32329 481.35255 1892.89403 598.27758 1934.79242 706.12615 1947.4077 706.12615 2028.49246 562.10218 1983.54691 428.02732 1975.16724 322.90044 1931.74526 231.48576 1930.98348 176.30715 1918.86523 172.77903 1849.19229"/>
            <polygon class="cls-21" points="112.74614 2134.5977 129.38616 2412.5977 260.70135 2386.58847 416.12485 2402.31868 608.70009 2364.66154 706.12642 2402.31868 706.12642 2134.5977 616.39053 2153.17538 451.13666 2134.5977 316.44331 2159.74357 251.85614 2134.5977 112.74614 2134.5977"/>
            <polygon class="cls-21" points="61.13616 2698.92772 167.35057 2681.22385 249.87762 2701.63194 376.86677 2714.19827 540.38714 2697.7205 706.13573 2740.26545 706.07943 2865.48408 416.34652 2846.89522 326.06787 2858.68718 246.28949 2865.48408 200.97612 2887.0377 61.13616 2698.92772"/>
            <polygon class="cls-21" points="295.85613 2897.02769 426.3266 2937.03609 536.24542 2926.0271 662.07285 2960.36918 706.13573 2954.12516 705.30523 3052.14189 596.51583 3038.63434 536.24542 3044.38963 477.3062 3031.86766 295.85613 2897.02769"/>
            <polygon class="cls-21" points="547.22612 3171.69774 635.38322 3162.80345 706.07943 3171.69774 706.13573 3243.54066 674.12925 3239.02053 645.44609 3251.60765 547.22612 3171.69774"/>
            <polyline class="cls-21" points="660.42607 3471.34764 689.65902 3482.85167 706.12615 3477.09965 706.12615 3558.59702 674.12925 3563.62076 636.47151 3545.52064 587.17607 3546.25767"/>
            <polygon class="cls-21" points="274.21611 3614.50767 379.09612 3546.25767 457.64231 3574.83775 574.80222 3580.38267 654.57163 3608.50906 706.12615 3603.44103 706.12642 3675.78683 571.31107 3669.32547 502.74321 3635.58915 385.53311 3637.46926 274.21611 3614.50767"/>
            <polygon class="cls-21" points="259.23613 3661.12767 329.42281 3707.4657 454.29046 3730.6805 609.08872 3715.21589 706.12615 3731.44279 706.12615 3800.23334 591.04365 3770.82431 449.38609 3776.67518 302.16786 3772.7746 223.13294 3738.22477 192.64604 3707.99778 259.23613 3661.12767"/>
            <polygon class="cls-21" points="234.34612 3940.20775 346.6708 3969.00518 442.81172 3958.16343 527.96112 3979.52903 666.98179 3965.80575 706.12615 3969.63495 706.12615 4082.1675 650.95105 4095.18887 507.19123 4082.1675 452.0841 4099.64217 321.49256 4100.63161 285.8983 4120.19625 192.64604 4119.09764 234.34612 3940.20775"/>
            <polygon class="cls-21" points="413.89582 4410.01641 495.19435 4431.35677 657.99688 4400.70153 681.74219 4559.00599 617.84961 4603.43819 534.84089 4595.50387 472.75115 4614.52521 413.89582 4410.01641"/>
            <polygon class="cls-21" points="582.46611 4740.37767 649.39704 4765.29833 706.12642 4752.838 706.12642 4995.39364 636.70213 5004.91482 578.00739 4970.00381 525.54214 4982.20112 582.46611 4740.37767"/>
            <polygon class="cls-21" points="547.40605 5309.68773 593.10816 5327.49792 659.28947 5309.68773 706.12642 5318.59282 706.12619 5434.06106 599.83846 5438.54792 539.26573 5414.99186 472.75115 5423.64789 547.40605 5309.68773"/>
            <polygon class="cls-21" points="468.4694 5603.22719 539.50434 5617.54052 619.16675 5603.22719 672.54701 5621.76413 706.12642 5615.89801 706.12615 5819.49688 652.76082 5801.96275 570.54164 5819.49688 530.90276 5811.1844 502.68608 5831.85789 468.4694 5603.22719"/>
            <polygon class="cls-21" points="370.47612 6103.19774 296.44134 6161.40811 330.83514 6184.26717 381.10843 6182.18249 420.01026 6211.05895 472.75115 6222.33482 526.34736 6261.80052 587.54271 6158.7703 527.28239 6130.68512 472.75115 6137.43067 415.22838 6104.75246 370.47612 6103.19774"/>
            <polygon class="cls-21" points="113.21531 6243.09044 151.54428 6296.88958 219.13391 6331.16746 334.5351 6368.99444 358.47586 6273.63439 240.11383 6255.2032 239.40605 6233.06785 113.21531 6243.09044"/>
          </g>
          <polygon class="cls-27" points="263.68018 3654.72998 197.08984 3701.10986 239.02979 3932.20996 238.87988 3932.81982 197.04004 4110.45996 420.27002 4400.90991 420.41992 4401.44995 479.75977 4605.46997 591.2998 4732.08008 533.47998 4975.1499 555.61963 5303.43994 480.04004 5417.60986 475.73975 5596.19995 510.43994 5825.66992 510.02979 5826.52002 376.02002 6098.67969 300.87988 6157.14014 242.60986 6229.58984 114.20996 6239.67969 4.33984 6288.12988 4.61963 6281.4502 112.71973 6233.77979 239.5498 6223.81006 296.64014 6152.83008 296.91992 6152.62012 371.23975 6094.79004 504.22998 5824.70996 469.72998 5596.58008 469.72998 5596.31982 474.08984 5415.73999 474.56006 5415.02002 549.5 5301.81982 527.43018 4974.6499 527.52979 4974.20996 584.73975 4733.71997 474.36963 4608.42993 474.18018 4607.79004 414.81982 4403.66992 190.54004 4111.8501 190.86963 4110.46997 232.8999 3932.0498 190.48975 3698.38989 258.58984 3650.95996 273.75977 3604.25 381.46973 3534.88989 591.52979 3534.88989 663.77002 3461.78003 648.81006 3244.53003 550 3164.97998 549.69971 3164.3999 479.31982 3025.10986 297.0498 2891.07996 200.6001 2881.03003 199.81982 2879.97998 57.54004 2690.59998 57.87988 2689.22992 126.79004 2403.11993 109.95996 2124.82996 110.10986 2124.31995 174.23975 1908.91992 170.64014 1838.55994 239.25977 1754.28992 240.06982 1754.00995 310.33008 1729.89996 415.6499 1580.44995 450.27002 1282.67993 382.58984 1184.25995 382.79004 1183.05994 434.36963 879.05994 506.98975 742.89996 622.27979 651.71997 591.31982 443.53003 591.40967 443.05005 641.39014 159.26001 602.6499 0 608.43994 0 647.50977 159.06995 647.40967 159.68994 597.3999 443.60999 628.71973 654.27002 627.35986 655.34998 511.68994 746.82996 440.11963 881.01996 388.90967 1182.85999 456.48975 1281.13995 421.43994 1582.65997 421 1583.27997 314.11963 1734.94995 242.83008 1759.40997 176.75 1840.55994 180.29004 1909.64996 180.14014 1910.13995 116.00977 2125.52997 132.83984 2403.64996 132.72998 2404.08997 64.04004 2689.25995 203.83008 2875.32996 299.29004 2885.28003 484.02979 3021.11987 484.3501 3021.76001 554.77002 3161.11987 654.60986 3241.51001 669.94971 3464.06995 594.04004 3540.88989 383.22998 3540.88989 278.81006 3608.12988 263.68018 3654.72998"/>
          <g>
            <polygon class="cls-27" points="488.5939 3653.33181 463.13301 3659.11537 461.81653 3672.16198 495.31652 3681.41406 518.52601 3674.81124 512.08028 3660.33704 488.5939 3653.33181"/>
            <polygon class="cls-27" points="476.64313 4379.88873 457.83795 4394.26033 472.40571 4400.67682 486.00229 4395.79626 496.68531 4383.57309 476.64313 4379.88873"/>
            <polygon class="cls-27" points="506.96387 850.99905 482.13521 866.84937 494.54954 887.75772 516.11127 887.75772 545.85025 869.37838 531.79253 850.99905 506.96387 850.99905"/>
            <polygon class="cls-27" points="668.8615 577.81604 648.3283 586.59805 655.882 601.99251 672.41506 604.25945 683.37687 592.78441 668.8615 577.81604"/>
            <polygon class="cls-27" points="666.37435 33.23633 645.5159 42.3619 651.38234 56.05026 666.37435 56.05026 678.10723 44.64329 666.37435 33.23633"/>
            <polygon class="cls-27" points="213.04633 2047.25467 186.78365 2067.21431 199.91499 2087.17395 233.00597 2078.76989 246.66256 2052.61252 213.04633 2047.25467"/>
            <polygon class="cls-27" points="597.62247 2027.05639 576.77952 2039.56216 589.83619 2052.90165 610.12824 2052.90165 619.77565 2039.97902 597.62247 2027.05639"/>
            <g>
              <polygon class="cls-27" points="453.10052 1641.88851 423.64409 1655.33408 428.24666 1678.63959 447.57744 1678.63959 470.59027 1668.78856 474.27233 1648.69648 453.10052 1641.88851"/>
              <polygon class="cls-27" points="516.7746 1643.27347 501.01552 1655.33408 501.01552 1668.78856 516.7746 1671.0012 532.06768 1658.09421 526.13126 1648.69648 516.7746 1643.27347"/>
              <polygon class="cls-27" points="480.01328 1680.80125 459.88208 1695.33122 465.20267 1706.0334 480.01328 1708.99535 487.48888 1694.8983 498.92402 1685.56559 480.01328 1680.80125"/>
            </g>
            <polygon class="cls-27" points="140.15274 2583.12686 158.1857 2582.87485 160.50687 2602.52937 152.095 2620.41046 134.46764 2620.41046 129.6379 2605.47822 140.15274 2583.12686"/>
            <g>
              <polygon class="cls-27" points="607.96661 5192.354 633.25184 5207.36139 636.719 5225.94766 618.76707 5227.73574 599.7218 5235.20644 580.44221 5220.36203 583.63933 5203.745 607.96661 5192.354"/>
              <polygon class="cls-27" points="639.82122 5241.20116 656.35233 5249.41258 663.34299 5262.36626 648.17974 5269.46752 634.87527 5266.90774 617.47656 5252.74655 639.82122 5241.20116"/>
              <polygon class="cls-27" points="603.81164 5139.2268 616.01352 5148.76003 620.20571 5162.73334 604.20844 5168.4067 591.94521 5161.83525 589.00232 5150.11619 603.81164 5139.2268"/>
            </g>
            <polygon class="cls-27" points="649.00214 2575.86121 632.18125 2589.18811 644.45936 2605.3263 663.65193 2602.4476 676.43217 2589.18811 665.55841 2575.86121 649.00214 2575.86121"/>
            <polygon class="cls-27" points="251.13091 2421.33617 222.30563 2426.14762 208.33746 2442.94494 225.44895 2458.28159 252.59468 2462.73152 264.47482 2444.10131 266.88505 2429.39826 251.13091 2421.33617"/>
            <polygon class="cls-27" points="215.28793 1972.1254 198.04948 1998.77984 206.66871 2025.10599 232.12296 2012.42201 235.39673 1988.24937 227.46728 1972.1254 215.28793 1972.1254"/>
            <polygon class="cls-27" points="285.25209 3800.55749 255.18039 3802.61643 257.65148 3826.95698 279.40854 3841.99142 302.02606 3835.06392 312.44562 3814.02537 285.25209 3800.55749"/>
            <polygon class="cls-27" points="71.48881 6369.53015 56.27685 6383.35921 63.88283 6396.26633 86.23981 6403.64183 95.92015 6392.11761 95.92015 6378.28855 88.54465 6369.53015 71.48881 6369.53015"/>
            <polygon class="cls-27" points="550.88258 792.64867 527.96461 800.34354 527.96461 812.48499 559.68623 817.89425 580.45396 809.65394 573.17039 796.9189 550.88258 792.64867"/>
            <polygon class="cls-27" points="560.76724 5532.99406 524.37649 5537.46205 523.5297 5556.93421 551.46978 5567.3905 587.60264 5565.13677 585.69926 5547.24942 560.76724 5532.99406"/>
            <polygon class="cls-27" points="582.4218 4650.2145 561.8886 4658.99651 569.4423 4674.39097 585.97536 4676.65791 596.93717 4665.18287 582.4218 4650.2145"/>
            <polygon class="cls-27" points="335.90634 3920.00702 325.31323 3929.45218 334.03937 3940.94556 349.75103 3940.94556 365.44931 3933.65708 360.68376 3923.84566 353.11495 3916.82078 335.90634 3920.00702"/>
            <polygon class="cls-27" points="466.17826 6071.57774 451.47621 6083.57042 458.82723 6090.39361 471.40951 6096.92064 484.55854 6083.57042 479.48011 6071.57774 466.17826 6071.57774"/>
            <polygon class="cls-27" points="450.85746 6016.17673 460.287 6016.17673 465.94472 6025.63403 471.53382 6039.36623 458.40109 6055.97844 438.59906 6053.16409 438.59906 6033.54919 450.85746 6016.17673"/>
            <polygon class="cls-27" points="577.03773 3085.53305 595.0707 3085.28104 597.39187 3104.93556 588.98 3122.81665 571.35264 3122.81665 566.5229 3107.88441 577.03773 3085.53305"/>
            <polygon class="cls-27" points="112.74614 2644.4141 100.62586 2655.8137 112.74614 2665.65193 130.53094 2655.8137 130.53094 2644.4141 112.74614 2644.4141"/>
            <polygon class="cls-27" points="660.34859 4673.85415 632.68132 4683.26525 621.61441 4702.10093 640.9815 4714.46747 668.48954 4714.46747 677.19942 4694.16081 677.19942 4679.26152 660.34859 4673.85415"/>
            <polygon class="cls-27" points="603.69938 2394.38852 591.5791 2405.78812 603.69938 2415.62635 621.48418 2405.78812 621.48418 2394.38852 603.69938 2394.38852"/>
            <polygon class="cls-27" points="94.65549 6278.51999 84.26689 6286.7507 91.84987 6296.71766 103.70322 6294.93977 111.59631 6286.7507 104.88066 6278.51999 94.65549 6278.51999"/>
          </g>
        </g>
      </g>
      <g>
        <g>
          <g>
            <path class="cls-37" d="M449.19486,4200.34405s53.70399-20.2819,46.29445-33.54177c-7.40954-13.25988-19.533-2.22361-19.533-2.22361,0,0,42.2148-37.54608,16.27477-56.31719-25.94003-18.77111-37.50089,13.24995-37.50089,13.24995,0,0,18.00785-42.85308,.51453-56.92071s-32.25637,4.15199-32.25637,4.15199c0,0,6.3563-50.30263-41.06305-31.03812-47.41935,19.26451-16.06949,35.75999-16.06949,35.75999,0,0-15.25899-2.24733-13.59257,10.69893s18.59184,28.13985,18.59184,28.13985c0,0-24.99837-.37948-13.28705,13.07243,11.71132,13.45191,41.8587,31.68146,41.8587,31.68146,0,0-25.97469-13.50235-35.42656-3.86283-9.45187,9.63952,1.8984,20.28643,1.8984,20.28643,0,0-10.55487,1.05338-9.9018,6.14403,2.57445,20.0678,70.69849,25.90741,70.69849,25.90741l22.4996-5.18822Z"/>
            <path class="cls-6" d="M443.7296,4198.66306s53.70399-20.2819,46.29445-33.54177c-7.40954-13.25988-19.533-2.22361-19.533-2.22361,0,0,42.2148-37.54608,16.27477-56.31719-25.94003-18.77111-37.50089,13.24995-37.50089,13.24995,0,0,18.00785-42.85308,.51453-56.92071-17.49332-14.06763-32.25637,4.15199-32.25637,4.15199,0,0,6.3563-50.30263-41.06305-31.03812-47.41935,19.26451-16.06949,35.75999-16.06949,35.75999,0,0-15.25899-2.24733-13.59257,10.69893,1.66642,12.94626,18.59184,28.13985,18.59184,28.13985,0,0-24.99837-.37948-13.28705,13.07243,11.71132,13.45191,41.8587,31.68146,41.8587,31.68146,0,0-25.97469-13.50235-35.42656-3.86283-9.45187,9.63952,1.8984,20.28643,1.8984,20.28643,0,0-10.55487,1.05338-9.9018,6.14403,2.57445,20.0678,70.69849,25.90741,70.69849,25.90741l22.4996-5.18822Z"/>
          </g>
          <path class="cls-33" d="M414.63696,4201.97944s-50.15435-33.91492-36.86043-54.88862c13.29393-20.9737,29.6092,8.92498,29.6092,8.92498,0,0-20.54516-35.69992-4.22989-39.71616,16.31527-4.01624,23.5665,11.15622,23.5665,11.15622,0,0-25.98358-43.28615,0-49.97989,25.98358-6.69373,29.00493,42.39365,29.00493,42.39365,0,0,16.91954-22.31245,21.14943-1.785,4.22989,20.52745-27.79639,45.5174-27.79639,45.5174,0,0,24.17077-7.58623,20.54516,2.67749-3.62562,10.26373-19.33662,14.72622-19.33662,14.72622,0,0,19.33662-11.60247,19.94089-1.33875,.60427,10.26373-24.77504,24.18428-24.77504,24.18428l-30.81774-1.87183Z"/>
        </g>
        <g>
          <polygon class="cls-24" points="504.68417 4016.02482 502.04349 4009.63143 508.82869 4010.81809 504.68417 4016.02482"/>
          <polygon class="cls-24" points="501.24208 4027.90556 495.19435 4024.54794 501.24211 4021.25071 501.24208 4027.90556"/>
          <polygon class="cls-24" points="507.19123 4034.22791 500.58064 4036.26473 502.39101 4029.6187 507.19123 4034.22791"/>
          <polygon class="cls-24" points="516.61368 4037.53497 512.60951 4043.17547 509.99943 4036.80094 516.61368 4037.53497"/>
          <polygon class="cls-24" points="672.57107 4015.84625 675.21175 4009.45286 668.42655 4010.63953 672.57107 4015.84625"/>
          <polygon class="cls-24" points="675.69447 4027.72699 681.74219 4024.36937 675.69444 4021.07214 675.69447 4027.72699"/>
          <polygon class="cls-24" points="669.64693 4034.55926 676.25752 4036.59607 674.44716 4029.95004 669.64693 4034.55926"/>
          <polygon class="cls-24" points="660.32695 4036.97096 663.68456 4043.01868 666.98179 4036.97092 660.32695 4036.97096"/>
          <g>
            <path class="cls-9" d="M640.97668,3909.22297c-.5253,.00633-1.32165-.03815-2.23322-.31721-.74824-.22908-3.11242-.95281-4.00882-3.17127-.58542-1.44883-.25976-2.82982-.06327-3.45469,1.89334,.81844,3.25369,1.78798,4.13145,2.51108,2.28271,1.88052,2.38069,2.98345,2.38706,3.34641,.00799,.45622-.10963,.83389-.21321,1.0857Z"/>
            <path class="cls-9" d="M641.24587,3909.07681c-.50849-.11913-1.33484-.38976-2.09157-1.06085-1.59895-1.41796-1.64117-3.5216-1.66058-4.27941-.03528-1.37749,.35308-2.48173,.67026-3.16466,.94506,.54631,2.44478,1.61525,3.41849,3.48347,.22937,.44008,.4001,.86801,.52801,1.26823l.00009,.0003c.17925,.56676,.2689,.85013,.26443,1.21394-.0077,.62619-.29447,1.11459-.67772,1.80803-.1731,.31321-.33538,.56206-.4514,.73095Z"/>
            <path class="cls-9" d="M641.03738,3909.18375c-.31691-.39427-.77762-1.06742-1.04319-1.99992-.63236-2.22038,.34964-4.1275,.64235-4.69594,.29227-.56758,.88158-1.52618,1.99498-2.41108,1.06454,2.08179,1.45741,3.89705,1.42779,4.85823-.021,.68136-.1659,1.36396-.16592,1.36401-.12344,.58148-.18517,.87221-.36841,1.18653-.35044,.6011-.88555,.90299-1.48097,1.23892-.40346,.22761-.75996,.37138-1.00663,.45923Z"/>
            <path class="cls-9" d="M640.94838,3909.21166c.02941-.60032,.13144-1.43792,.45133-2.38519,.48244-1.42866,1.20909-2.36272,1.44088-2.64783,1.21427-1.49359,2.67928-2.19071,3.47231-2.49688,.12225,.56504,.55782,2.88664-.80617,4.99911-.317,.49097-1.08241,1.64069-2.58065,2.21277-.8054,.30752-1.52867,.3359-1.97769,.31802Z"/>
          </g>
          <g>
            <path class="cls-9" d="M522.98543,4004.12239c-.52498-.01938-1.3182-.10277-2.21502-.4261-.73614-.26541-3.06208-1.10396-3.84885-3.36362-.51383-1.47574-.12099-2.83914,.10584-3.45365,1.85103,.9101,3.16231,1.94503,4.00364,2.71021,2.18797,1.98996,2.23186,3.09636,2.22047,3.45919-.01434,.45607-.1503,.82753-.26607,1.07396Z"/>
            <path class="cls-9" d="M523.26145,4003.98958c-.50205-.14386-1.31417-.45461-2.03716-1.16191-1.52766-1.4945-1.4669-3.59769-1.44921-4.35553,.03216-1.37757,.47408-2.46148,.82429-3.12808,.9172,.59189,2.36282,1.73294,3.24395,3.64655,.20756,.45078,.35715,.88655,.46532,1.29255l.00008,.0003c.15131,.57485,.22698,.86227,.20472,1.22542-.03833,.62507-.34865,1.09885-.76537,1.77271-.18822,.30436-.36248,.54498-.48662,.70799Z"/>
            <path class="cls-9" d="M523.04797,4004.08619c-.29724-.4093-.72446-1.10419-.94409-2.04857-.52297-2.24866,.55117-4.10544,.87134-4.65888,.31969-.5526,.9552-1.48122,2.11056-2.31058,.9614,2.13139,1.26498,3.96369,1.18838,4.92227-.05431,.67951-.23244,1.35421-.23246,1.35426-.15174,.57475-.22763,.8621-.42602,1.16709-.37943,.58323-.92867,.85858-1.53981,1.16498-.41411,.2076-.77722,.33376-1.0279,.40943Z"/>
            <path class="cls-9" d="M522.95772,4004.10972c.05874-.59816,.20164-1.42977,.56749-2.36026,.55176-1.40335,1.32324-2.30074,1.56871-2.57416,1.2859-1.43239,2.78326-2.057,3.59032-2.324,.09446,.57035,.41592,2.91047-1.0498,4.95368-.34065,.47487-1.16139,1.58577-2.68583,2.08386-.81948,.26774-1.54328,.2607-1.99089,.22088Z"/>
          </g>
          <g>
            <path class="cls-29" d="M648.81787,3984.75945c2.00079-2.3669,4.04832-3.54814,5.57125-4.17814,7.13735-2.95254,16.65073,.45279,24.10175,8.40088-.07818,.79878-.47641,3.90592-3.1169,6.33738-3.35007,3.08488-7.56605,2.5558-8.14816,2.47271-.71328-1.1899-1.40176-2.13797-1.94826-2.8351-1.40196-1.78836-2.12844-2.69101-3.37729-3.1063-1.08176-.35971-2.10503-.20684-2.78352-.02567-.81774,.68983-1.63544,1.37966-2.45318,2.06949-2.61523-3.0451-5.23047-6.09014-7.8457-9.13524Z"/>
            <path class="cls-15" d="M648.81787,3984.75945c-4.99777,5.29788-9.99559,10.5957-14.99336,15.89357,2.48677,2.842,4.97359,5.68401,7.46037,8.52601l15.37869-15.28435-7.8457-9.13524Z"/>
            <path class="cls-30" d="M648.81787,3984.75945c-4.99777,5.29788-9.99559,10.5957-14.99336,15.89357,1.85382,1.78296,3.7077,3.56589,5.56152,5.34885l14.79903-14.99308c-1.78907-2.0831-3.57813-4.16624-5.36719-6.24934Z"/>
            <polygon class="cls-19" points="654.55313 3995.99219 658.74389 4000.82159 665.57587 3995.34558 663.851 3993.22124 659.40142 3997.00237 656.66357 3993.89469 654.55313 3995.99219"/>
          </g>
          <path class="cls-32" d="M675.5495,3882.94213l6.0092,15.31642s-1.42606,10.76523-15.96948,18.56223l-13.11252-6.79459-4.72404-14.40203,4.48991-10.28773s7.72617-7.472,23.30694-2.3943Z"/>
          <line class="cls-3" x1="658.99348" y1="3913.57127" x2="658.99332" y2="3881.96116"/>
          <line class="cls-3" x1="670.32958" y1="3913.57125" x2="670.32942" y2="3881.63043"/>
          <path class="cls-26" d="M651.74156,3907.78505l-.7905-2.40994c3.80117,.53318,7.60229,1.0664,11.40345,1.59958,1.97337,2.76129,3.94669,5.52254,5.92006,8.28384l-1.9579,1.17136c-2.18457-2.40817-4.36918-4.81629-6.55375-7.22446-2.6738-.47346-5.34756-.94691-8.02136-1.42037Z"/>
          <path class="cls-32" d="M617.84962,3934.75563s4.91076-16.71746,16.09052-26.95689c0,0,11.07534-1.98519,26.01655,.83587l14.62781,16.71746-.62694,15.77708s-20.72427,13.26951-25.98251,14.73227c-5.25824,1.46276-12.46763,0-12.46763,0l-17.6578-21.10579Z"/>
          <line class="cls-3" x1="634.30939" y1="3953.77521" x2="634.30923" y2="3907.79476"/>
          <line class="cls-3" x1="649.62957" y1="3955.24548" x2="649.62941" y2="3907.35423"/>
          <line class="cls-3" x1="664.66044" y1="3946.50437" x2="664.66028" y2="3915.06505"/>
          <polygon class="cls-32" points="537.40282 4003.80769 518.8413 4002.11248 513.25568 4003.80769 500.58064 4020.26572 500.58064 4028.64413 509.71097 4037.88188 531.19409 4037.45222 535.81297 4034.98166 543.9536 4019.99718 537.40282 4003.80769"/>
          <polygon class="cls-32" points="639.43535 4003.80769 657.99687 4002.11248 663.58248 4003.80769 676.25752 4020.26572 676.25752 4028.64413 667.1272 4037.88188 645.64407 4037.45222 641.0252 4034.98166 632.88457 4019.99718 639.43535 4003.80769"/>
          <line class="cls-3" x1="509.99946" y1="4037.88213" x2="509.99962" y2="4008.54507"/>
          <line class="cls-3" x1="521.6509" y1="4037.68429" x2="521.65106" y2="4002.40149"/>
          <line class="cls-3" x1="666.8662" y1="4037.8815" x2="666.86604" y2="4008.47566"/>
          <line class="cls-3" x1="655.00093" y1="4037.68256" x2="655.00077" y2="4002.43032"/>
          <path class="cls-26" d="M541.46491,4024.57813c-6.2467-7.37034-12.49338-14.74063-18.74009-22.11096l14.678,1.34052,6.55077,16.18948c-.82956,1.52697-1.65912,3.05399-2.48868,4.58096Z"/>
          <path class="cls-26" d="M635.67312,4025.13006l.26483,.48745h0c.00018-.00018,20.30325-21.63426,22.05893-23.50503-5.78458,.52829-11.56915,1.05662-17.35373,1.58492-1.65668,7.14421-3.31336,14.28845-4.97003,21.43266Z"/>
          <line class="cls-3" x1="533.30127" y1="4036.26489" x2="533.30143" y2="4003.43358"/>
          <line class="cls-3" x1="643.5644" y1="4036.26362" x2="643.56424" y2="4003.4298"/>
          <path class="cls-17" d="M515.54795,3952.92839c1.188,1.72573,2.86485,3.71834,5.19683,5.54152,6.99792,5.47109,14.97391,5.56862,17.94205,5.45056,.66295-2.15791,1.42239-4.40855,2.2943-6.73487,.62625-1.6709,1.26991-3.27239,1.922-4.80354-2.81544,.27461-5.73821,.49168-8.76242,.63587-6.62793,.31602-12.84775,.23928-18.59276-.08954Z"/>
          <path class="cls-17" d="M603.72246,3899.67541c-1.34043,2.67891-2.81484,5.4386-4.43814,8.25855-3.22475,5.60199-6.56153,10.61606-9.83302,15.06345,1.33315,.05723,2.70362,.13922,4.1091,.2499,2.14315,.16881,4.19851,.39099,6.16036,.65209,0,0,5.4171-4.71884,4.0017-24.22399Z"/>
          <rect class="cls-32" x="572.17515" y="4049.92013" width="15.27759" height="40.75498"/>
          <rect class="cls-32" x="596.32825" y="4049.92013" width="15.27759" height="40.75498"/>
          <line class="cls-3" x1="576.46111" y1="4076.81839" x2="576.46127" y2="4050.86176"/>
          <line class="cls-3" x1="582.34208" y1="4077.1579" x2="582.34224" y2="4051.49222"/>
          <line class="cls-3" x1="606.90212" y1="4075.99908" x2="606.90228" y2="4050.4079"/>
          <line class="cls-3" x1="601.11784" y1="4077.73652" x2="601.118" y2="4052.36935"/>
          <rect class="cls-17" x="574.37562" y="4111.25553" width="15.27759" height="12.6663"/>
          <rect class="cls-17" x="594.24419" y="4111.25553" width="15.27759" height="12.6663" transform="translate(1203.76597 8235.17735) rotate(-180)"/>
          <path class="cls-31" d="M561.68486,4080.70684s7.32058-12.76408,27.96835-2.06478v34.99115s-8.38831-2.49398-24.89609,10.56973l-18.76424,.71257s-7.12566-1.90018-1.18761-7.24442l17.69539-12.70743-.8158-24.25682Z"/>
          <path class="cls-31" d="M622.21254,4080.70684s-7.32058-12.76408-27.96835-2.06478v34.99115s8.38831-2.49398,24.89609,10.56973l18.76424,.71257s7.12566-1.90018,1.18761-7.24442l-17.69539-12.70743,.8158-24.25682Z"/>
          <path class="cls-26" d="M572.17515,4049.92011v11.8131c5.09254-2.41883,10.18504-4.83762,15.27758-7.25645v-4.55665h-15.27758Z"/>
          <path class="cls-26" d="M596.32827,4049.92011v4.55643c5.0925,2.41888,10.18504,4.8378,15.27758,7.25667v-11.8131h-15.27758Z"/>
          <path class="cls-22" d="M570.9826,4074.72749l-.0176,22.11372,5.12591,3.78526c1.94617-1.24539,3.8923-2.49073,5.83848-3.73611l.02799-21.4016c-.90772-.29141-1.70565-.48737-2.34169-.6216-1.57825-.33313-2.86367-.43493-3.59081-.4727-.99575-.05172-1.79101-.02742-2.24829-.00507-.91945,.04492-1.58696,.13699-1.77812,.16414-.40512,.05759-.75011,.1206-1.01588,.17396Z"/>
          <path class="cls-22" d="M612.95313,4074.73264l.0176,22.11372-5.12591,3.78526c-1.94617-1.24539-3.8923-2.49073-5.83848-3.73611l-.02799-21.4016c.90772-.29141,1.70565-.48737,2.34169-.6216,1.57825-.33313,2.86367-.43493,3.59081-.4727,.99575-.05172,1.79101-.02742,2.24829-.00507,.91945,.04492,1.58696,.13699,1.77812,.16414,.40512,.05759,.75011,.1206,1.01588,.17396Z"/>
          <path class="cls-26" d="M618.50819,3932.76915c2.1695,2.911,4.50951,5.88993,7.03214,8.91117,4.54861,5.44767,9.09105,10.31417,13.48004,14.64149,.46617,.07545,.96509,.13757,1.49405,.17872,1.07484,.08358,2.05477,.06345,2.91353-.00751-1.88085-3.78979-4.59353-8.37679-8.4913-13.10026-5.34818-6.4811-10.97528-10.85326-15.27158-13.66921-.38561,1.01521-.77126,2.03038-1.15687,3.04559Z"/>
          <path class="cls-32" d="M624.93419,4045.44744c-5.26793,2.76667-12.4176,5.71623-21.20951,7.2257-21.48683,3.68897-38.87195-3.61196-46.10891-7.19153-5.63781-5.75716-12.98428-14.879-17.85078-27.69314-.00002-.00009-12.04165-31.31056,1.53639-62.12025,2.2963-5.21047,5.3566-9.39498,5.35664-9.39503,1.04065-1.4229,4.36007-5.7952,10.64321-10.58945,4.67925-3.57041,15.84366-12.08922,31.65634-12.6711,4.33683-.15957,7.90778,.31891,10.24681,.74944,2.17137,.56539,5.0605,1.44863,8.33498,2.8463,1.97852,.84449,8.26673,3.65626,15.05163,9.27199,4.56136,3.77535,14.19372,11.95596,19.09732,26.21207,1.40509,4.08493,3.12966,10.72644,2.88656,19.29253-.16854,5.05864-.6596,11.35649-1.88565,18.51504-1.58616,9.26123-3.72749,16.02156-4.17949,17.42807-2.27175,7.0688-6.2739,17.05988-13.57554,28.11936Z"/>
          <path class="cls-11" d="M555.73856,4043.17547c-1.1327,.03644-7.19906,.33606-10.61302,4.8817-1.27171,1.69325-1.78532,3.45635-1.96881,4.10679-.84973,3.01195-.38614,5.47362,.21138,8.45567,.4194,2.09317,1.22412,5.07508,2.88902,8.45562,1.89447-5.09356,4.46763-8.10187,6.55313-9.93536,2.86687-2.52041,6.43466-4.24698,7.5048-8.26308,.3152-1.18295,.32222-2.22109,.27881-2.91348l-.2024-1.4441c-1.55097-1.11457-3.10193-2.22918-4.6529-3.34375Z"/>
          <path class="cls-18" d="M556.97233,4082.1675l8.65158-13.27133c.79461-1.97421,1.94751-5.57306,1.77234-10.17909-.17836-4.68996-1.65066-8.2426-2.60955-10.15416l-7.48331-3.90039c-1.60931,2.15515-3.93425,5.83208-5.28259,10.91316-1.56225,5.88713-1.07435,10.87396-.59221,13.65645l5.54374,12.93536Z"/>
          <path class="cls-29" d="M544.92778,4117.66664c.18851,.53118,.54142,1.26663,1.23945,1.8322,.73702,.59716,2.3335,1.38962,8.43176-.42245,4.26388-1.26698,7.28295-2.76303,8.18833-3.23333,2.73001-1.41815,4.70098-2.80253,6.46049-4.03841,2.1268-1.49382,3.85267-2.87194,5.1278-3.94434-1.04085-.60285-2.30549-1.22072-3.78937-1.73226-3.16147-1.08991-5.99474-1.24103-7.96308-1.16882-5.89846,4.23579-11.79693,8.47162-17.69539,12.70741Z"/>
          <path class="cls-29" d="M639.04104,4117.66664c-.18851,.53118-.54142,1.26663-1.23945,1.8322-.73702,.59716-2.3335,1.38962-8.43176-.42245-4.26388-1.26698-7.28295-2.76303-8.18833-3.23333-2.73001-1.41815-4.70098-2.80253-6.46049-4.03841-2.1268-1.49382-3.85267-2.87194-5.1278-3.94434,1.04085-.60285,2.30549-1.22072,3.78937-1.73226,3.16147-1.08991,5.99474-1.24103,7.96308-1.16882,5.89846,4.23579,11.79693,8.47162,17.69539,12.70741Z"/>
          <line class="cls-3" x1="550.18817" y1="4036.2822" x2="550.16292" y2="3942.45807"/>
          <line class="cls-3" x1="569.97033" y1="4050.2547" x2="569.97876" y2="3927.91595"/>
          <line class="cls-3" x1="589.5166" y1="4053.64999" x2="589.4513" y2="3922.99741"/>
          <line class="cls-3" x1="609.47126" y1="4051.4366" x2="609.40937" y2="3927.61083"/>
          <line class="cls-3" x1="629.46793" y1="4037.42615" x2="629.42013" y2="3942.77379"/>
          <path class="cls-25" d="M610.11962,3991.70203c-.17165-.34042-.93176-.30323-1.69774,.08305-.38574,.19454-.69879,.4404-.89324,.68013l-33.32215,1.63846c-.15681-.121-.33837-.23626-.54158-.33691-.76877-.38072-1.52915-.41245-1.69836-.07079-.16916,.34162,.31687,.92723,1.08564,1.30795,.75846,.37566,1.50622,.40983,1.68867,.08265,4.63704,2.14347,17.75391,6.65688,32.6901-1.88254,.2663,.22262,.93638,.15472,1.61251-.18623,.76602-.38628,1.24779-.9754,1.07613-1.31577Z"/>
          <ellipse class="cls-25" cx="604.06041" cy="3979.61168" rx="5.58307" ry="3.01992" transform="translate(-1168.41335 365.67548) rotate(-17.49491)"/>
          <ellipse class="cls-25" cx="574.92057" cy="3980.05521" rx="3.01992" ry="5.58307" transform="translate(-3246.8421 2728.85449) rotate(-63.65261)"/>
          <path class="cls-18" d="M635.84499,4024.70526c-26.7875,6.17236-53.57501,12.34468-80.36253,18.51704,1.10033,.89928,2.37866,1.83211,3.84565,2.73028,2.96887,1.81767,5.79648,2.93379,8.11651,3.6376,21.16423-4.7623,42.32841-9.52456,63.49264-14.28685,.93909-1.78243,1.87761-3.67821,2.79702-5.68651,.77033-1.68267,1.47165-3.32278,2.11072-4.91156Z"/>
          <path class="cls-26" d="M538.24297,3963.93477c12.22586-8.68477,24.45174-17.36955,36.6776-26.05432-1.1195,.53349-2.88691,1.38958-5.0314,2.49188-6.25592,3.2156-7.93297,4.52328-13.48284,7.22481-3.77208,1.83615-5.87958,2.6351-7.98432,3.25679-2.15666,.63707-3.99819,.99579-5.29241,1.20526-.84185,1.50915-1.69394,3.20573-2.49928,5.08712-1.04318,2.43705-1.813,4.72888-2.38735,6.78846Z"/>
          <path class="cls-31" d="M515.84758,3952.98496c8.38486,1.19953,21.80163,1.85992,36.76441-3.16948,34.80435-11.69873,48.75363-44.36088,51.11047-50.14007-2.81115,2.18852-6.17121,4.52031-10.09915,6.75926-4.70716,2.68313-9.13904,4.61104-12.98233,6.01057-1.26965-1.20988-3.38881-3.25079-5.9688-5.84865-6.31202-6.3557-7.68205-8.29139-10.49118-8.50037-3.37654-.25119-6.27679,2.18248-7.31297,3.05199-3.00924,2.52516-2.64832,4.55652-5.50232,6.79503-2.1164,1.65997-3.12808,1.18073-7.31019,2.62799-3.79101,1.31191-10.97377,3.79086-11.93201,8.25784-.2096,.97709,.51749,2.82812,1.97166,6.53024,2.09783,5.34071,3.6582,7.44876,3.69577,11.23069,.01389,1.39864-.18532,2.54116-.34731,3.26466-2.63934,1.8777-5.4578,3.77286-8.45862,5.65571-4.54821,2.85376-8.95485,5.32769-13.13743,7.47458Z"/>
          <path class="cls-18" d="M537.55027,3934.27942c4.076-.08749,9.78559-.7538,15.98501-3.3625,14.40319-6.06083,21.10442-18.2527,23.12515-22.33647,1.32684,1.28827,2.65372,2.57653,3.98055,3.8648,0,0-2.25935,21.89807-43.19736,27.40942,0,0,.50883-4.04836,.10664-5.57524Z"/>
          <path class="cls-11" d="M537.79094,3936.59001c-1.84033,.28167-3.68068,.56331-5.52101,.84498-.66857,.05941-7.5337,.55553-11.77124-4.65121-2.27366-2.79369-2.68084-5.86527-2.77385-7.21375,3.06796-.51567,7.9372-.94554,12.52684,.54002,1.60589,.5198,3.06363,1.47978,3.0637,1.47983,1.26392,.75438,1.89587,1.13154,2.48586,1.81238,1.1283,1.302,1.40775,2.79746,1.71871,4.46147,.21071,1.12754,.26248,2.07797,.27099,2.72628Z"/>
          <path class="cls-18" d="M523.02411,3935.01904s-2.20412,6.62365-4.98605,7.58665c1.85744,1.35483,3.54178,1.88885,4.60158,2.12689,4.91871,1.10488,9.20893-1.28422,11.29981-2.44856,1.56476-.87137,2.74141-1.78154,3.50418-2.42936,.17985-.68039,.3422-1.51293,.40869-2.46971,.08525-1.22641-.01273-2.28681-.15032-3.10989-1.16471-.62454-3.5436-1.69529-6.7079-1.69818-4.00688-.00364-6.87504,1.70716-7.96999,2.44216Z"/>
          <polygon class="cls-24" points="550.50329 3975.65988 544.43277 3972.34365 550.45786 3969.00518 550.50329 3975.65988"/>
          <polygon class="cls-24" points="533.71787 4019.35216 527.64735 4016.03594 533.67245 4012.69747 533.71787 4019.35216"/>
          <polygon class="cls-24" points="521.92471 4028.83319 515.85419 4025.51696 521.87929 4022.1785 521.92471 4028.83319"/>
          <polygon class="cls-24" points="589.71943 3965.80575 583.64891 3962.48953 589.674 3959.15106 589.71943 3965.80575"/>
          <polygon class="cls-24" points="633.82451 3923.08458 639.89502 3919.76835 633.86993 3916.42988 633.82451 3923.08458"/>
          <polygon class="cls-24" points="649.62949 3943.18201 655.7 3939.86578 649.67491 3936.52731 649.62949 3943.18201"/>
          <polygon class="cls-24" points="589.08467 4031.05434 595.15518 4027.73811 589.13009 4024.39964 589.08467 4031.05434"/>
          <polygon class="cls-24" points="643.1818 4028.59245 649.25232 4025.27623 643.22723 4021.93776 643.1818 4028.59245"/>
          <polygon class="cls-24" points="569.80111 4012.78021 575.87163 4009.46399 569.84654 4006.12552 569.80111 4012.78021"/>
          <polygon class="cls-24" points="550.17554 4023.38427 556.24606 4020.06804 550.22097 4016.72957 550.17554 4023.38427"/>
          <polygon class="cls-24" points="609.08872 3952.38206 615.15924 3949.06583 609.13415 3945.72736 609.08872 3952.38206"/>
          <polygon class="cls-24" points="629.06617 3972.96229 635.13669 3969.64607 629.1116 3966.3076 629.06617 3972.96229"/>
          <polygon class="cls-24" points="654.57105 4017.63897 660.64156 4014.32275 654.61647 4010.98428 654.57105 4017.63897"/>
          <polygon class="cls-24" points="658.99341 3898.99728 665.06392 3895.68106 659.03883 3892.34259 658.99341 3898.99728"/>
          <polygon class="cls-24" points="629.55301 4005.43983 623.48249 4002.12361 629.50758 3998.78514 629.55301 4005.43983"/>
        </g>
        <polygon class="cls-28" points="321.49256 4187.59504 455.97626 4187.59504 489.02436 4124.609 706.12642 4124.609 706.12642 4625.09264 605.78089 4494.01359 549.60415 4356.12524 386.18093 4286.32991 321.49256 4187.59504"/>
        <polygon class="cls-27" points="321.49256 4187.59504 455.97626 4187.59504 553.2108 4170.95999 663.65437 4183.66531 706.12642 4167.75254 706.12615 4250.12129 601.11681 4241.45653 500.58064 4274.34932 386.18093 4286.32991 321.49256 4187.59504"/>
        <polygon class="cls-27" points="549.60415 4356.12524 611.60585 4369.01533 678.71832 4356.12524 706.12642 4323.14738 706.12642 4486.95662 663.65437 4520.65413 605.78089 4494.01359 549.60415 4356.12524"/>
        <polygon class="cls-14" points="583.8911 4319.39286 559.95706 4322.33144 559.40013 4335.1382 577.7762 4342.01526 601.54063 4340.53299 600.28879 4328.76856 583.8911 4319.39286"/>
        <polygon class="cls-14" points="653.08372 4154.00999 638.89093 4161.10638 643.34274 4172.44524 658.83547 4172.44524 670.25116 4163.22761 653.08372 4154.00999"/>
        <polygon class="cls-14" points="683.85609 4539.08237 669.43062 4545.25211 674.73742 4556.0674 686.35262 4557.66002 694.05377 4549.5983 683.85609 4539.08237"/>
        <polygon class="cls-14" points="673.04657 4269.34818 661.99456 4274.18343 665.10294 4281.43631 673.04657 4281.43631 679.26332 4275.39225 673.04657 4269.34818"/>
        <polygon class="cls-35" points="706.12988 4637.85419 600.37744 4502.95508 544.5083 4365.82031 381.38525 4296.15332 380.88818 4295.39551 313.15771 4192.01562 451.38037 4192.01562 484.42822 4129.03027 706.12615 4129.03027 706.12988 4135.03027 488.05518 4135.03027 455.00732 4198.01562 324.26123 4198.01562 385.41064 4291.34863 549.1333 4361.27148 605.61768 4499.91406 706.12988 4628.12874 706.12988 4637.85419"/>
      </g>
      <g>
        <g>
          <path class="cls-33" d="M239.32889,2711.86799s23.30504,11.65252,36.16299,30.13583c12.85795,18.48331-5.22354,49.42276,0,60.27166,5.22354,10.8489,25.3141,10.04528,26.51953,0,1.20543-10.04528-1.20543-51.83362-14.06339-67.90607-12.85795-16.07244-48.61914-22.50142-48.61914-22.50142Z"/>
          <path class="cls-33" d="M312.56532,2672.46109s-23.26178,56.68012-22.93415,69.78535,1.63239,62.24985,6.71355,67.49194,13.27193,6.55262,17.53113,0-5.56972-57.99065-5.56972-67.16431,4.2592-70.11298,4.2592-70.11298"/>
          <path class="cls-33" d="M345.58405,2689.94999s-24.38931,28.84087-30.18324,40.92951c-5.79389,12.0885-13.08947,59.91842-5.77729,72.80653,7.3122,12.88797,14.94253,6.44148,17.24346,.60604,1.61361-4.09232-2.67119-63.1407,.51359-75.1723,3.20349-12.10228,18.20347-39.16978,18.20347-39.16978Z"/>
          <path class="cls-33" d="M376.11601,2729.08174s-46.86484-.44111-53.12821,13.13222c-6.26337,13.57334,2.14705,58.99159,5.79206,62.36516,3.64501,3.37357,12.10413,2.66416,12.97834-1.5258,.87421-4.18996-13.86001-48.13677-7.47635-54.87395,6.38366-6.73718,41.83417-19.09763,41.83417-19.09763Z"/>
        </g>
        <g>
          <path class="cls-33" d="M583.4433,2712.9572s-20.30816,10.15408-31.51266,26.26055c-11.2045,16.10647,4.55183,43.0673,0,52.52109-4.55183,9.4538-22.05886,8.75352-23.10928,0-1.05042-8.75352,1.05042-45.16814,12.25492-59.17376,11.2045-14.00562,42.36701-19.60787,42.36701-19.60787Z"/>
          <path class="cls-33" d="M506.92887,2702.94605s21.25299,25.13211,26.30186,35.66623c5.04883,10.534,11.40625,52.21328,5.03436,63.44406-6.37189,11.23065-13.02101,5.61314-15.02605,.5281-1.40611-3.56607,2.32769-55.02119-.44755-65.5056-2.79154-10.546-15.86262-34.13279-15.86262-34.13279Z"/>
          <path class="cls-33" d="M480.32313,2737.0457s40.83831-.38439,46.29625,11.4435c5.45794,11.82789-1.87095,51.40563-5.04724,54.34538-3.17629,2.93975-10.54761,2.32157-11.3094-1.32959-.76179-3.65116,12.0777-41.94668,6.51494-47.8175-5.56276-5.87082-36.45455-16.64179-36.45455-16.64179Z"/>
        </g>
        <g>
          <path class="cls-33" d="M596.744,2681.22385s-6.08157,34.89124-5.04626,47.41864c1.03528,12.52727,17.78035,54.69228,29.80142,61.66038,12.02102,6.96798,15.14378-1.86267,14.24265-7.67507-.63195-4.07616-32.06183-49.83679-35.18179-61.08247-3.13829-11.31174-3.81602-40.32148-3.81602-40.32148Z"/>
          <path class="cls-33" d="M639.9851,2698.43614s-38.13805,21.8356-36.7796,35.78691c1.35845,13.95131,29.67284,46.72699,34.22039,47.73125s11.05784-3.57566,9.78123-7.3807c-1.27661-3.80504-34.01226-32.39524-32.03612-40.8708s24.8141-35.26666,24.8141-35.26666Z"/>
        </g>
        <g>
          <polygon class="cls-24" points="515.93381 2661.65002 522.84463 2663.06808 520.37427 2656.49178 515.93381 2661.65002"/>
          <polygon class="cls-24" points="511.30737 2667.96335 514.70236 2661.77914 507.68987 2662.19804 511.30737 2667.96335"/>
          <polygon class="cls-24" points="517.05405 2646.67998 519.99051 2640.26534 513.02702 2641.19288 517.05405 2646.67998"/>
          <polygon class="cls-24" points="520.26665 2655.28507 524.91428 2649.97753 517.97622 2648.87578 520.26665 2655.28507"/>
          <path class="cls-32" d="M498.99238,2628.71606c5.79581,3.33001,9.78594,6.99078,12.28393,9.62816,4.83249,5.10224,6.62357,9.05974,7.18888,10.3944,1.443,3.40692,3.33861,7.88244,1.29574,10.84985-1.38289,2.0087-3.93759,2.40682-7.39976,2.94645-1.24661,.19427-5.47625,.76419-11.54449-.5989-2.92066-.65604-7.29732-1.99125-12.11863-4.93159,1.52549-2.76145,3.04301-5.82568,4.46362-9.19248,2.9483-6.98733,4.73203-13.5067,5.83072-19.09589Z"/>
          <line class="cls-5" x1="501.02718" y1="2661.85478" x2="500.90398" y2="2630.08398"/>
          <line class="cls-5" x1="511.96438" y1="2662.59261" x2="511.94141" y2="2639.49358"/>
          <polygon class="cls-24" points="511.73155 2659.45484 517.9175 2656.06301 511.77801 2652.64875 511.73155 2659.45484"/>
          <polygon class="cls-24" points="355.30217 2668.24539 351.90718 2662.06118 358.91967 2662.48008 355.30217 2668.24539"/>
          <path class="cls-32" d="M367.58989,2628.71606c-5.79581,3.33001-9.78594,6.99078-12.28393,9.62816-4.83249,5.10224-6.62357,9.05974-7.18888,10.3944-1.443,3.40692-3.33861,7.88244-1.29574,10.84985,1.38289,2.0087,3.93759,2.40682,7.39976,2.94645,1.24661,.19427,5.47625,.76419,11.54449-.5989,2.92066-.65604,7.29732-1.99125,12.11863-4.93159-1.52549-2.76145-3.04301-5.82568-4.46362-9.19248-2.9483-6.98733-4.73203-13.5067-5.83072-19.09589Z"/>
          <line class="cls-5" x1="365.91032" y1="2661.85316" x2="365.78852" y2="2629.79717"/>
          <polygon class="cls-24" points="366.16735 2653.76811 359.98141 2650.37628 366.12089 2646.96201 366.16735 2653.76811"/>
          <path class="cls-26" d="M376.86677,2657.60459c-.44981,.2465-.89966,.49291-1.34947,.73941-1.17885-1.717-2.35508-3.45727-3.52791-5.221-4.29476-6.45867-8.28977-12.85014-12.00799-19.14318,1.33452-1.10545,2.86619-2.26325,4.60312-3.40864,1.52846-1.00792,3.00045-1.86434,4.37654-2.59198,2.63522,9.8751,5.27049,19.75029,7.90571,29.62539Z"/>
          <path class="cls-26" d="M490.25054,2658.19428l.42865,.26376h0s5.94973-7.96746,17.34526-23.2275c-1.2914-1.15554-2.77781-2.3709-4.46979-3.58168-1.48891-1.06547-2.92718-1.97739-4.27452-2.75698-3.00985,9.76744-6.01975,19.53496-9.0296,29.30239Z"/>
          <path class="cls-17" d="M482.42677,2576.23416c2.98777-.85823,10.06432-3.32343,16.18806-10.08348,6.23698-6.88502,7.95647-14.32934,8.48982-17.38511-4.20792,2.97545-8.77757,5.99714-13.71516,8.99047-6.46872,3.92157-12.70607,7.27135-18.57678,10.13654,.92402,.95132,1.85297,1.92855,2.78537,2.93212,1.69264,1.82187,3.30101,3.62789,4.8287,5.40945Z"/>
          <rect class="cls-32" x="411.07348" y="2684.18475" width="15.56788" height="41.52935"/>
          <rect class="cls-32" x="435.68551" y="2684.18475" width="15.56788" height="41.52935"/>
          <line class="cls-5" x1="415.44088" y1="2711.5941" x2="415.44104" y2="2685.14427"/>
          <line class="cls-5" x1="421.43359" y1="2711.94005" x2="421.43376" y2="2685.78671"/>
          <line class="cls-5" x1="446.46029" y1="2710.75922" x2="446.46045" y2="2684.68179"/>
          <line class="cls-5" x1="440.5661" y1="2712.52967" x2="440.56627" y2="2686.68051"/>
          <rect class="cls-17" x="414.41353" y="2739.2195" width="15.56788" height="12.90696"/>
          <rect class="cls-17" x="434.65961" y="2739.2195" width="15.56788" height="12.90696" transform="translate(884.8871 5491.34597) rotate(-180)"/>
          <path class="cls-31" d="M401.48164,2708.09037s7.45967-13.00661,28.49977-2.10401v35.65601s-8.54769-2.54137-25.36914,10.77056l-19.12078,.72611s-7.26105-1.93628-1.21018-7.38207l18.03162-12.94888-.8313-24.71772Z"/>
          <path class="cls-31" d="M463.15938,2708.09037s-7.45967-13.00661-28.49977-2.10401v35.65601s8.54769-2.54137,25.36914,10.77056l19.12078,.72611s7.26105-1.93628,1.21018-7.38207l-18.03162-12.94888,.8313-24.71772Z"/>
          <path class="cls-26" d="M411.07348,2684.18473v12.03756c5.1893-2.46479,10.37856-4.92954,15.56787-7.39433v-4.64323h-15.56787Z"/>
          <path class="cls-26" d="M435.68552,2684.18473v4.64301c5.18926,2.46484,10.37856,4.92972,15.56787,7.39455v-12.03756h-15.56787Z"/>
          <path class="cls-29" d="M384.40616,2745.75243c.19209,.54127,.55171,1.29069,1.263,1.86701,.75103,.60851,2.37784,1.41603,8.59197-.43047,4.3449-1.29105,7.42133-2.81553,8.34392-3.29476,2.78188-1.4451,4.7903-2.85578,6.58325-4.11514,2.16721-1.52221,3.92587-2.92651,5.22523-4.01928-1.06063-.61431-2.34929-1.24392-3.86137-1.76518-3.22154-1.11062-6.10865-1.26461-8.11438-1.19103-6.01054,4.31627-12.02108,8.63258-18.03162,12.94885Z"/>
          <path class="cls-29" d="M480.30764,2745.75243c-.19209,.54127-.55171,1.29069-1.263,1.86701-.75103,.60851-2.37784,1.41603-8.59197-.43047-4.3449-1.29105-7.42133-2.81553-8.34392-3.29476-2.78188-1.4451-4.7903-2.85578-6.58325-4.11514-2.16721-1.52221-3.92587-2.92651-5.22523-4.01928,1.06063-.61431,2.34929-1.24392,3.86137-1.76518,3.22154-1.11062,6.10865-1.26461,8.11438-1.19103,6.01054,4.31627,12.02108,8.63258,18.03162,12.94885Z"/>
          <circle class="cls-32" cx="433.56185" cy="2620.49673" r="67.75335"/>
          <line class="cls-5" x1="381.87298" y1="2663.83181" x2="381.87356" y2="2577.01709"/>
          <line class="cls-5" x1="399.53794" y1="2678.86823" x2="399.53853" y2="2568.93108"/>
          <line class="cls-5" x1="420.51126" y1="2686.99472" x2="420.51185" y2="2571.31332"/>
          <line class="cls-5" x1="440.56747" y1="2687.89319" x2="440.56806" y2="2568.06521"/>
          <line class="cls-5" x1="461.70453" y1="2682.14854" x2="462.05096" y2="2565.44831"/>
          <line class="cls-5" x1="482.7671" y1="2666.64576" x2="482.76769" y2="2574.32069"/>
          <g>
            <ellipse class="cls-8" cx="406.09709" cy="2619.49994" rx="1.46693" ry="3.67583" transform="translate(-1603.4413 890.78647) rotate(-40.48378)"/>
            <ellipse class="cls-8" cx="399.53755" cy="2618.64227" rx="2.31099" ry="5.43328" transform="translate(-1982.77517 1460.40926) rotate(-55.39694)"/>
            <ellipse class="cls-8" cx="399.96186" cy="2623.44239" rx="4.48214" ry="1.67958" transform="translate(-1419.06986 691.20456) rotate(-34.60306)"/>
            <ellipse class="cls-8" cx="406.53038" cy="2624.89318" rx="3.67583" ry="1.46693" transform="translate(-1540.71641 818.36028) rotate(-38.34304)"/>
            <line class="cls-8" x1="423.70259" y1="2624.62683" x2="400.99218" y2="2621.46228"/>
          </g>
          <g>
            <path class="cls-4" d="M416.12485,2629.69917s21.67611-19.21214,42.45837-4.01651"/>
            <ellipse class="cls-25" cx="416.34652" cy="2629.69428" rx="2.32743" ry="1.15477" transform="translate(-1607.60598 899.88137) rotate(-40.48378)"/>
            <ellipse class="cls-25" cx="457.94271" cy="2625.45678" rx="1.15477" ry="2.32743" transform="translate(-1911.24241 1404.92547) rotate(-52.84965)"/>
            <ellipse class="cls-25" cx="451.13666" cy="2605.78034" rx="6.82337" ry="3.69081" transform="translate(-1710.43008 1082.21718) rotate(-45)"/>
            <ellipse class="cls-25" cx="420.5106" cy="2607.23179" rx="3.69081" ry="6.82337" transform="translate(-2162.52857 2057.32683) rotate(-68.81957)"/>
          </g>
          <g>
            <polygon class="cls-23" points="477.56677 2644.51326 472.5906 2643.40796 468.85901 2646.88059 468.3725 2641.80642 463.9167 2639.33057 468.59219 2637.29986 469.56994 2632.29706 472.94607 2636.11619 478.00615 2635.50014 475.41722 2639.8912 477.56677 2644.51326"/>
            <circle class="cls-23" cx="469.56417" cy="2632.50112" r=".97759"/>
            <circle class="cls-23" cx="477.95075" cy="2635.63595" r=".97759"/>
            <circle class="cls-23" cx="477.56677" cy="2644.51326" r=".97759"/>
            <circle class="cls-23" cx="468.89924" cy="2646.66916" r=".97759"/>
            <circle class="cls-23" cx="463.9167" cy="2639.26914" r=".97759"/>
          </g>
          <path class="cls-31" d="M482.42311,2667.40683c-32.85382-.29051-65.70759-.58094-98.56141-.87145-1.03939-1.11505-2.11279-2.3443-3.19451-3.69273-1.1817-1.47303-2.22766-2.90676-3.1515-4.27036,37.33631,.03269,74.67257,.06543,112.00888,.09812-.77908,1.16626-1.64727,2.3779-2.61417,3.61593-1.51569,1.94077-3.0359,3.64174-4.48729,5.12048Z"/>
          <g>
            <path class="cls-29" d="M485.24371,2654.11435c-.22411-2.41244,.23867-4.20148,.72153-5.39597,2.26296-5.59807,9.37345-9.03862,17.88788-8.84051,.40268,.48116,1.91749,2.40529,1.82719,5.20988-.11456,3.55828-2.71907,5.61985-3.08428,5.899-1.05436-.25398-1.96027-.38933-2.64844-.4664-1.76539-.19771-2.66678-.28698-3.58249,.18206-.79319,.40629-1.26845,1.06074-1.53907,1.5384-.0632,.83395-.12638,1.66789-.18958,2.50184-3.13092-.20944-6.26181-.41885-9.39273-.62829Z"/>
            <path class="cls-15" d="M485.24371,2654.11435c.21712,5.68949,.4342,11.37897,.65132,17.06845,2.94728,.16983,5.89459,.33964,8.84187,.50948l-.10046-16.94964-9.39273-.62829Z"/>
            <path class="cls-30" d="M485.24371,2654.11435c.21712,5.68949,.4342,11.37897,.65132,17.06845,2.0099-.05727,4.01981-.11459,6.02971-.17186l-.25554-16.4668c-2.14182-.14326-4.28367-.28654-6.4255-.4298Z"/>
            <polygon class="cls-19" points="494.65023 2657.06866 499.63936 2657.37678 500.32762 2650.56672 498.19796 2650.36506 497.86944 2654.91796 494.63645 2654.74263 494.65023 2657.06866"/>
          </g>
          <g>
            <rect class="cls-31" x="478.60559" y="2659.70663" width="18.34704" height="28.52487"/>
            <path class="cls-29" d="M477.2695,2659.70664v5.97808c0,4.77017,4.70537,8.63717,10.50961,8.63717s10.50961-3.867,10.50961-8.63717v-5.97808h-21.01923Z"/>
          </g>
          <g>
            <path class="cls-13" d="M422.21348,2656.05179v13.94518h20.19756v-13.94518h-20.19756Zm17.24642,11.25766h-13.84625v-8.5005h13.84625v8.5005Z"/>
            <rect class="cls-13" x="432.53676" y="2661.55164" width="13.4638" height="2.9455"/>
          </g>
          <polygon class="cls-24" points="399.27891 2649.75139 405.46486 2646.35956 399.32537 2642.94529 399.27891 2649.75139"/>
          <polygon class="cls-24" points="399.305 2597.39985 405.49095 2594.00803 399.35146 2590.59376 399.305 2597.39985"/>
          <polygon class="cls-24" points="420.14065 2682.2714 426.3266 2678.87957 420.18711 2675.46531 420.14065 2682.2714"/>
          <polygon class="cls-24" points="482.51209 2623.88628 488.69804 2620.49445 482.55855 2617.08018 482.51209 2623.88628"/>
          <polygon class="cls-24" points="381.87353 2624.86533 375.68758 2621.4735 381.82707 2618.05923 381.87353 2624.86533"/>
          <polygon class="cls-24" points="440.89252 2650.70924 434.70658 2647.31741 440.84606 2643.90314 440.89252 2650.70924"/>
          <polygon class="cls-24" points="462.31301 2593.9968 456.12706 2590.60498 462.26655 2587.19071 462.31301 2593.9968"/>
          <polygon class="cls-24" points="462.01175 2676.80308 455.8258 2673.41125 461.96529 2669.99698 462.01175 2676.80308"/>
          <path class="cls-18" d="M401.48162,2708.09034l.42314,12.58128s4.94887,13.3388,13.53604,.92642l.00018-19.95296s-8.75104-.84799-13.95936,6.44527Z"/>
          <path class="cls-18" d="M463.20771,2708.03907l-.42313,12.58128s-4.94888,13.33873-13.53605,.92637l-.00014-19.95299s8.75101-.84798,13.95933,6.44534Z"/>
          <path class="cls-26" d="M375.68758,2585.24997s9.90809,5.00138,53.40097-4.61828c0,0-23.56229-.29522-42.73151-8.73376,0,0-6.53293,6.24234-10.66947,13.35204Z"/>
          <path class="cls-31" d="M365.71226,2550.84111s7.87352,17.09687,29.63544,25.34734c46.52633,17.63927,101.06985-19.61137,108.5455-24.9626,1.37876-.98696,2.4935-1.82001,3.21145-2.36309-.72053,.23831-1.80511,.59094-3.12823,.99656-.00009,0-6.37911,1.95571-12.76497,3.30894-5.4809,1.16151-18.4476,2.96264-35.77412,2.97034,.09079-1.72139,.21644-4.24111,.34172-7.2943,.29875-7.28176,.21399-8.30463,.14408-8.95488-.37813-3.51595-.99547-9.25599-4.5879-10.94854-2.5707-1.21118-6.21842-.13946-8.47841,.52452-1.72855,.50786-2.258,.93294-3.89843,1.16948-2.95648,.42631-5.30694-.31664-6.1807-.57808-7.03204-2.10423-13.74129-4.11188-18.06041-2.19017-5.01629,2.23192-6.63617,9.72568-8.9346,19.71529-.75635,3.28729-1.13846,6.10051-1.3467,8.14067-6.48919-.73923-12.97833-1.47847-19.46752-2.2177l-19.2562-2.66375Z"/>
          <path class="cls-18" d="M406.09574,2546.4485c3.77835,2.15046,8.58255,4.36132,14.36357,5.90268,15.31783,4.08412,28.52492,1.07643,35.21193-1.00118l-.23391,4.78858s-23.31741,10.20854-51.00135-.41603c.13661-1.39081,.33181-2.87516,.60516-4.43816,.30392-1.73769,.66602-3.35295,1.05461-4.8359Z"/>
        </g>
        <polygon class="cls-28" points="706.12988 2623.39949 662.1233 2661.21857 644.4744 2726.77163 576.40006 2751.98435 223.42202 2751.98435 191.76 2774.6758 220.90074 2822.57996 374.69832 2855.83544 448.94494 2915.86702 575.45928 2944.9761 600.2039 3006.6328 706.12988 3107.56866 706.12988 2623.39949"/>
        <polygon class="cls-27" points="662.07285 2661.21857 689.65902 2653.76811 706.07943 2665.15328 706.07943 2623.39949 662.07285 2661.21857"/>
        <polygon class="cls-27" points="576.34961 2751.98435 635.88693 2748.33011 674.62161 2755.76315 706.07943 2750.56133 706.07943 2732.78801 684.07614 2725.7141 644.42395 2726.77163 576.34961 2751.98435"/>
        <polygon class="cls-27" points="191.70954 2774.6758 307.50465 2767.89717 412.34739 2782.09476 535.4609 2774.99597 625.26999 2787.74755 706.07943 2787.74755 706.07943 2819.82765 591.5791 2810.11369 515.93381 2814.17496 461.87775 2804.69513 361.90509 2806.71423 307.01685 2793.86241 220.85029 2822.57996 191.70954 2774.6758"/>
        <polygon class="cls-27" points="374.64787 2855.83544 469.56417 2846.89522 560.52348 2855.83544 618.66865 2846.89522 706.12642 2855.83544 706.07943 2900.02788 625.26999 2900.02788 517.9175 2890.00285 448.89448 2915.86702 374.64787 2855.83544"/>
        <polygon class="cls-27" points="575.40882 2944.9761 647.36993 2953.16053 706.07943 2939.12549 706.07943 3003.41025 684.07614 3017.02769 641.21452 3017.02769 600.15345 3006.6328 575.40882 2944.9761"/>
        <polygon class="cls-14" points="644.2006 2915.86702 630.30469 2922.99142 630.30469 2933.72917 641.21452 2939.12549 654.30671 2931.20264 654.30671 2920.46489 644.2006 2915.86702"/>
        <polygon class="cls-14" points="429.18397 2820.19957 413.90822 2825.32851 413.90822 2833.42127 435.05196 2837.02676 448.89448 2831.53426 444.03969 2823.04585 429.18397 2820.19957"/>
        <polygon class="cls-14" points="682.79633 2702.03463 672.00778 2710.27963 680.36532 2713.96078 688.16569 2711.16079 694.29455 2704.14835 682.79633 2702.03463"/>
        <polygon class="cls-35" points="706.12988 3114.75198 603.07959 3016.55664 578.67627 2955.75 453.01416 2926.83691 378.78467 2866.81836 224.42432 2833.44141 193.16846 2782.05957 227.87549 2757.18555 581.27881 2757.18555 647.39697 2732.69727 664.88428 2667.74707 706.12615 2632.30398 706.07943 2640.2553 670.19678 2671.09277 652.38525 2737.24805 582.35498 2763.18555 229.80322 2763.18555 201.18604 2783.69434 228.21143 2828.12109 381.44678 2861.25586 455.70947 2921.2998 583.07666 2950.60547 608.16162 3013.11133 706.12988 3106.46451 706.12988 3114.75198"/>
      </g>
      <g>
        <g>
          <g>
            <path class="cls-36" d="M602.10722,1156.35298s62.30208-23.52906,53.70626-38.91186c-8.59582-15.3828-22.66026-2.57962-22.66026-2.57962,0,0,48.97346-43.55727,18.88039-65.33367-30.09307-21.7764-43.50484,15.37128-43.50484,15.37128,0,0,20.89094-49.71393,.59691-66.03381-20.29403-16.31988-37.42066,4.81673-37.42066,4.81673,0,0,7.37396-58.35616-47.63731-36.00737-55.01127,22.34879-18.64224,41.48522-18.64224,41.48522,0,0-17.70198-2.60713-15.76876,12.41185,1.93322,15.01898,21.56842,32.64508,21.56842,32.64508,0,0-29.00065-.44024-15.41433,15.16535,13.58632,15.60559,48.56035,36.75372,48.56035,36.75372,0,0-30.13327-15.6641-41.0984-4.48128-10.96513,11.18282,2.20233,23.53432,2.20233,23.53432,0,0-12.24472,1.22203-11.4871,7.1277,2.98662,23.28068,82.01743,30.05523,82.01743,30.05523l26.10182-6.01886Z"/>
            <path class="cls-2" d="M595.76696,1154.40286s62.30208-23.52906,53.70626-38.91186c-8.59582-15.3828-22.66026-2.57962-22.66026-2.57962,0,0,48.97346-43.55727,18.88039-65.33367-30.09307-21.7764-43.50484,15.37128-43.50484,15.37128,0,0,20.89094-49.71393,.59691-66.03381-20.29403-16.31988-37.42066,4.81673-37.42066,4.81673,0,0,7.37396-58.35616-47.63731-36.00737-55.01127,22.34879-18.64224,41.48522-18.64224,41.48522,0,0-17.70198-2.60713-15.76876,12.41185,1.93322,15.01898,21.56842,32.64508,21.56842,32.64508,0,0-29.00065-.44024-15.41433,15.16535,13.58632,15.60559,48.56035,36.75372,48.56035,36.75372,0,0-30.13327-15.6641-41.0984-4.48128-10.96513,11.18282,2.20233,23.53432,2.20233,23.53432,0,0-12.24472,1.22203-11.4871,7.1277,2.98662,23.28068,82.01743,30.05523,82.01743,30.05523l26.10182-6.01886Z"/>
          </g>
          <path class="cls-33" d="M571.85484,1144.88153s91.28661,16.59725,107.08622-10.39372c15.79961-26.99097-23.69941-16.67089-23.69941-16.67089,0,0,22.82165-20.64015,6.14429-26.19712-16.67736-5.55696-34.12276,3.17541-34.12276,3.17541,0,0,17.4454-16.09998,7.79008-31.46862-9.65531-15.36864-24.57716,0-24.57716,0,0,0-21.06614-37.5965-38.62126-28.07028-17.55512,9.52622,0,61.1266,0,61.1266,0,0-35.11024-30.96023-43.01004-7.93852-7.8998,23.02171,43.01004,56.43714,43.01004,56.43714Z"/>
        </g>
        <polygon class="cls-28" points="706.12642 741.36521 631.15413 855.97854 640.0459 937.18893 678.77626 1019.539 663.19084 1126.60049 531.23975 1126.60049 490.42875 1175.86397 529.3241 1305.74681 594.45614 1418.36461 631.34781 1664.94431 706.12642 1881.37842 706.12642 741.36521"/>
        <polygon class="cls-27" points="706.12642 741.36521 631.15413 855.97854 668.64028 845.75303 706.12642 798.67187 706.12642 741.36521"/>
        <polygon class="cls-27" points="640.0459 937.18893 682.67152 953.23749 706.12642 945.21321 706.12642 1007.54859 688.73711 1007.54859 678.77626 1019.539 640.0459 937.18893"/>
        <polygon class="cls-27" points="490.42875 1175.86397 531.23975 1126.60049 663.19084 1126.60049 688.51701 1118.88952 706.12642 1132.68351 706.12615 1175.86397 655.47131 1166.74802 584.31364 1182.81303 540.61097 1160.42172 490.42875 1175.86397"/>
        <polygon class="cls-27" points="706.12642 1414.18007 706.12642 1285.64283 655.47131 1295.69482 598.27758 1285.64283 529.3241 1305.74681 594.45614 1418.36461 624.00367 1401.5547 657.2219 1410.0188 687.91796 1400.4334 706.12642 1414.18007"/>
        <polygon class="cls-27" points="631.34781 1664.94431 670.1279 1674.76591 706.12642 1651.70099 706.12642 1881.37842 631.34781 1664.94431"/>
        <polygon class="cls-14" points="674.34863 903.72062 665.12681 917.97958 669.73772 932.06292 683.35463 925.27754 685.10595 912.34624 680.86404 903.72062 674.34863 903.72062"/>
        <polygon class="cls-14" points="555.57786 1198.07636 538.34886 1208.12974 546.96336 1221.83888 575.66036 1213.61339 575.66036 1198.07636 555.57786 1198.07636"/>
        <polygon class="cls-14" points="672.78394 1256.33799 662.65343 1265.54755 667.71868 1274.14313 682.60746 1279.05489 689.05415 1271.38026 689.05415 1262.17071 684.14239 1256.33799 672.78394 1256.33799"/>
        <polygon class="cls-14" points="640.56581 1427.66207 631.34781 1435.25029 631.34781 1448.0334 640.56581 1459.39617 650.52248 1453.71479 650.52248 1440.93167 647.57944 1430.47028 640.56581 1427.66207"/>
        <polygon class="cls-35" points="706.12615 1859.93556 638.3208 1663.68213 601.47217 1417.39307 536.44971 1304.96484 536.34912 1304.62793 496.99268 1173.20703 539.729 1121.62061 670.49561 1121.62061 685.57666 1018.02002 647.01709 936.0332 637.95361 853.25635 706.12615 749.03893 706.12988 759.99409 644.15283 854.74121 652.87256 934.38477 691.77393 1017.09863 675.68506 1127.62061 542.54932 1127.62061 503.6626 1174.56152 541.99658 1302.56934 607.23779 1415.37646 607.32178 1415.94092 644.17236 1662.24609 706.12615 1841.56057 706.12615 1859.93556"/>
      </g>
    </g>
  </g>
</svg>