<?xml version="1.0" encoding="UTF-8"?>
<svg id="Layer_2" data-name="Layer 2" xmlns="http://www.w3.org/2000/svg" viewBox="0 0 888.35398 843.1371">
  <defs>
    <style>
      .cls-1 {
        fill: #ffde89;
      }

      .cls-2 {
        fill: #fef9da;
      }

      .cls-3 {
        fill: #fbe56b;
      }

      .cls-4 {
        fill: #fce373;
      }

      .cls-5 {
        fill: #fde27a;
      }

      .cls-6 {
        fill: #ffcf5b;
        opacity: .22;
      }
    </style>
  </defs>
  <g id="EVERYTHING_ELSE" data-name="EVERYTHING ELSE">
    <g>
      <polygon class="cls-6" points="64.61328 133.57959 101.22219 741.30808 681.07897 795.41645 756.53428 175.79138 64.61328 133.57959"/>
      <polygon class="cls-6" points="0 492.76263 440.13633 0 888.35398 446.02602 542.83341 843.1371 0 492.76263"/>
      <circle class="cls-2" cx="410.57378" cy="432.29936" r="116.35238"/>
      <path class="cls-3" d="M361.2597,287.05754s96.29485-29.01616,163.95639,21.81073c67.66154,50.82689,16.98251,179.68505,16.98251,179.68505,0,0,34.70753-119.87277-31.76502-164.6597-66.47255-44.78693-149.17388-36.83607-149.17388-36.83607Z"/>
      <path class="cls-3" d="M274.44457,388.985s-19.479,95.02409,36.55527,149.97879c63.38545,62.16426,159.61216,26.6683,159.61216,26.6683,0,0-103.44987,54.76351-166.37526-6.62308-75.56516-73.71725-29.79217-170.02401-29.79217-170.02401Z"/>
      <path class="cls-4" d="M226.75439,481.52585s-38.3558-123.39775,49.31977-214.89794c80.18986-83.68793,236.844-.36738,236.844-.36738,0,0-144.33905-61.43053-223.21403,21.40553-75.90759,79.71965-62.94974,193.85978-62.94974,193.85978Z"/>
      <path class="cls-4" d="M590.19809,371.13661s28.85163,119.45019-46.31019,200.81401c-75.16183,81.36382-205.40789,38.80469-205.40789,38.80469,0,0,152.31157,66.53271,227.54754-20.47951,75.23598-87.01222,24.17054-219.13919,24.17054-219.13919Z"/>
      <path class="cls-5" d="M199.20859,345.36196s-45.31002,190.83209,25.1368,253.46543c70.44682,62.63335,140.4776,74.19957,261.94625,57.10775,0,0-185.82386,53.18522-265.40978-24.99524-79.58592-78.18046-36.8134-241.23355-21.67327-285.57795Z"/>
      <path class="cls-1" d="M515.65843,706.61117s112.98615,33.20664,148.95273-124.50371c0,0-54.17064,120.96772-148.95273,124.50371Z"/>
      <path class="cls-1" d="M122.28402,541.4105s-32.40174,167.53491,116.48422,197.08443c0,0-106.09701-28.33596-116.48422-197.08443Z"/>
      <path class="cls-5" d="M395.42303,195.8392s217.65789,4.59557,265.45507,104.30437c57.91312,120.81147-50.06126,271.38195-50.06126,271.38195,0,0,71.43922-168.946,36.3011-249.39966-50.2045-114.95026-251.69491-126.28666-251.69491-126.28666Z"/>
      <path class="cls-1" d="M153.23902,288.26537s-3.22309-74.49806,32.97255-116.59823c31.53101-36.6746,69.10392-47.90945,115.63956-47.7102,0,0-69.55398,15.12472-105.87791,61.86552-24.11632,31.03233-35.41409,62.58212-42.73419,102.44291Z"/>
      <path class="cls-1" d="M629.21368,141.68368s102.97862,19.95681,139.48043,93.88164c36.50181,73.92483-30.13272,182.47986-30.13272,182.47986,0,0,37.199-100.13143-.01461-169.74571-44.77376-83.75681-109.33311-106.61579-109.33311-106.61579Z"/>
    </g>
  </g>
</svg>