<?xml version="1.0" encoding="UTF-8" standalone="no"?>
<svg width="480px" height="85px" viewBox="0 0 480 85" version="1.1" xmlns="http://www.w3.org/2000/svg" xmlns:xlink="http://www.w3.org/1999/xlink" xmlns:sketch="http://www.bohemiancoding.com/sketch/ns">
    <!-- Generator: Sketch 3.3.3 (12081) - http://www.bohemiancoding.com/sketch -->
    <title>bridge</title>
    <desc>Created with Sketch.</desc>
    <defs></defs>
    <g id="Page-1" stroke="none" stroke-width="1" fill="none" fill-rule="evenodd" sketch:type="MSPage">
        <g id="Artboard-1" sketch:type="MSArtboardGroup" transform="translate(-52.000000, -68.000000)" fill="#FFFFFF">
            <g id="Group" sketch:type="MSLayerGroup" transform="translate(52.000000, 68.000000)">
                <path d="M5,11 L0,11 L0,26 C29.2710917,26 53,47.0426168 53,73 L53,85 L67,85 L67,73 L67,73 C67,47.0426168 90.7289083,26 120,26 L120,11 L115,11 L115,4 L120,4 L120,0 L0,0 L0,4 L5,4 L5,11 Z M7,11 L17,11 L17,4 L7,4 L7,11 Z M19,11 L29,11 L29,4 L19,4 L19,11 Z M31,11 L41,11 L41,4 L31,4 L31,11 Z M43,11 L53,11 L53,4 L43,4 L43,11 Z M55,11 L65,11 L65,4 L55,4 L55,11 Z M67,11 L77,11 L77,4 L67,4 L67,11 Z M79,11 L89,11 L89,4 L79,4 L79,11 Z M91,11 L101,11 L101,4 L91,4 L91,11 Z M103,11 L113,11 L113,4 L103,4 L103,11 Z M82,26 L79,26 L79,26 L79,34.0161384 C80.0251382,33.1918706 81.0821067,32.3980737 82.1690801,31.6363636 L82,31.6363636 L82,26 L82,26 Z M84,26 L92.0267416,26 L92.0267416,26 C89.2167322,27.2859293 86.5340964,28.7595516 84,30.4021301 L84,26 L84,26 Z M38,26 L41,26 L41,34.0161384 C39.9748618,33.1918706 38.9178933,32.3980737 37.8309199,31.6363636 L38,31.6363636 L38,26 L38,26 Z M36,26 L27.9732584,26 C30.7832678,27.2859293 33.4659036,28.7595516 36,30.4021301 L36,26 Z M69,26 L72,26 L72,26 L72,40.3636364 L72.276426,40.3636364 C71.1178265,41.65014 70.024218,42.9845401 69,44.3629419 L69,26 Z M67,26 L64,26 L64,26 L64,52.5541004 C64.8921916,50.7308856 65.8946746,48.959805 67,47.247453 L67,26 L67,26 Z M51,26 L48,26 L48,26 L48,40.3636364 L47.723574,40.3636364 C48.8821735,41.65014 49.975782,42.9845401 51,44.3629419 L51,26 L51,26 Z M53,26 L56,26 L56,52.5541004 C55.1078084,50.7308856 54.1053254,48.959805 53,47.247453 L53,26 L53,26 Z M74,26 L77,26 L77,26 L77,35.6984039 C75.9623954,36.6113141 74.9616777,37.5570422 74,38.533682 L74,26 L74,26 Z M46,26 L43,26 L43,26 L43,35.6984039 C44.0376046,36.6113141 45.0383223,37.5570422 46,38.533682 L46,26 L46,26 Z" id="bridge" sketch:type="MSShapeGroup"></path>
                <path d="M125,11 L120,11 L120,26 C149.271092,26 173,47.0426168 173,73 L173,85 L187,85 L187,73 L187,73 C187,47.0426168 210.728908,26 240,26 L240,11 L235,11 L235,4 L240,4 L240,0 L120,0 L120,4 L125,4 L125,11 Z M127,11 L137,11 L137,4 L127,4 L127,11 Z M139,11 L149,11 L149,4 L139,4 L139,11 Z M151,11 L161,11 L161,4 L151,4 L151,11 Z M163,11 L173,11 L173,4 L163,4 L163,11 Z M175,11 L185,11 L185,4 L175,4 L175,11 Z M187,11 L197,11 L197,4 L187,4 L187,11 Z M199,11 L209,11 L209,4 L199,4 L199,11 Z M211,11 L221,11 L221,4 L211,4 L211,11 Z M223,11 L233,11 L233,4 L223,4 L223,11 Z M202,26 L199,26 L199,26 L199,34.0161384 C200.025138,33.1918706 201.082107,32.3980737 202.16908,31.6363636 L202,31.6363636 L202,26 L202,26 Z M204,26 L212.026742,26 L212.026742,26 C209.216732,27.2859293 206.534096,28.7595516 204,30.4021301 L204,26 L204,26 Z M158,26 L161,26 L161,34.0161384 C159.974862,33.1918706 158.917893,32.3980737 157.83092,31.6363636 L158,31.6363636 L158,26 L158,26 Z M156,26 L147.973258,26 C150.783268,27.2859293 153.465904,28.7595516 156,30.4021301 L156,26 Z M189,26 L192,26 L192,26 L192,40.3636364 L192.276426,40.3636364 C191.117827,41.65014 190.024218,42.9845401 189,44.3629419 L189,26 Z M187,26 L184,26 L184,26 L184,52.5541004 C184.892192,50.7308856 185.894675,48.959805 187,47.247453 L187,26 L187,26 Z M171,26 L168,26 L168,26 L168,40.3636364 L167.723574,40.3636364 C168.882173,41.65014 169.975782,42.9845401 171,44.3629419 L171,26 L171,26 Z M173,26 L176,26 L176,52.5541004 C175.107808,50.7308856 174.105325,48.959805 173,47.247453 L173,26 L173,26 Z M194,26 L197,26 L197,26 L197,35.6984039 C195.962395,36.6113141 194.961678,37.5570422 194,38.533682 L194,26 L194,26 Z M166,26 L163,26 L163,26 L163,35.6984039 C164.037605,36.6113141 165.038322,37.5570422 166,38.533682 L166,26 L166,26 Z" id="bridge-copy" sketch:type="MSShapeGroup"></path>
                <path d="M245,11 L240,11 L240,26 C269.271092,26 293,47.0426168 293,73 L293,85 L307,85 L307,73 L307,73 C307,47.0426168 330.728908,26 360,26 L360,11 L355,11 L355,4 L360,4 L360,0 L240,0 L240,4 L245,4 L245,11 Z M247,11 L257,11 L257,4 L247,4 L247,11 Z M259,11 L269,11 L269,4 L259,4 L259,11 Z M271,11 L281,11 L281,4 L271,4 L271,11 Z M283,11 L293,11 L293,4 L283,4 L283,11 Z M295,11 L305,11 L305,4 L295,4 L295,11 Z M307,11 L317,11 L317,4 L307,4 L307,11 Z M319,11 L329,11 L329,4 L319,4 L319,11 Z M331,11 L341,11 L341,4 L331,4 L331,11 Z M343,11 L353,11 L353,4 L343,4 L343,11 Z M322,26 L319,26 L319,26 L319,34.0161384 C320.025138,33.1918706 321.082107,32.3980737 322.16908,31.6363636 L322,31.6363636 L322,26 L322,26 Z M324,26 L332.026742,26 L332.026742,26 C329.216732,27.2859293 326.534096,28.7595516 324,30.4021301 L324,26 L324,26 Z M278,26 L281,26 L281,34.0161384 C279.974862,33.1918706 278.917893,32.3980737 277.83092,31.6363636 L278,31.6363636 L278,26 L278,26 Z M276,26 L267.973258,26 C270.783268,27.2859293 273.465904,28.7595516 276,30.4021301 L276,26 Z M309,26 L312,26 L312,26 L312,40.3636364 L312.276426,40.3636364 C311.117827,41.65014 310.024218,42.9845401 309,44.3629419 L309,26 Z M307,26 L304,26 L304,26 L304,52.5541004 C304.892192,50.7308856 305.894675,48.959805 307,47.247453 L307,26 L307,26 Z M291,26 L288,26 L288,26 L288,40.3636364 L287.723574,40.3636364 C288.882173,41.65014 289.975782,42.9845401 291,44.3629419 L291,26 L291,26 Z M293,26 L296,26 L296,52.5541004 C295.107808,50.7308856 294.105325,48.959805 293,47.247453 L293,26 L293,26 Z M314,26 L317,26 L317,26 L317,35.6984039 C315.962395,36.6113141 314.961678,37.5570422 314,38.533682 L314,26 L314,26 Z M286,26 L283,26 L283,26 L283,35.6984039 C284.037605,36.6113141 285.038322,37.5570422 286,38.533682 L286,26 L286,26 Z" id="bridge-copy-2" sketch:type="MSShapeGroup"></path>
                <path d="M365,11 L360,11 L360,26 C389.271092,26 413,47.0426168 413,73 L413,85 L427,85 L427,73 L427,73 C427,47.0426168 450.728908,26 480,26 L480,11 L475,11 L475,4 L480,4 L480,0 L360,0 L360,4 L365,4 L365,11 Z M367,11 L377,11 L377,4 L367,4 L367,11 Z M379,11 L389,11 L389,4 L379,4 L379,11 Z M391,11 L401,11 L401,4 L391,4 L391,11 Z M403,11 L413,11 L413,4 L403,4 L403,11 Z M415,11 L425,11 L425,4 L415,4 L415,11 Z M427,11 L437,11 L437,4 L427,4 L427,11 Z M439,11 L449,11 L449,4 L439,4 L439,11 Z M451,11 L461,11 L461,4 L451,4 L451,11 Z M463,11 L473,11 L473,4 L463,4 L463,11 Z M442,26 L439,26 L439,26 L439,34.0161384 C440.025138,33.1918706 441.082107,32.3980737 442.16908,31.6363636 L442,31.6363636 L442,26 L442,26 Z M444,26 L452.026742,26 L452.026742,26 C449.216732,27.2859293 446.534096,28.7595516 444,30.4021301 L444,26 L444,26 Z M398,26 L401,26 L401,34.0161384 C399.974862,33.1918706 398.917893,32.3980737 397.83092,31.6363636 L398,31.6363636 L398,26 L398,26 Z M396,26 L387.973258,26 C390.783268,27.2859293 393.465904,28.7595516 396,30.4021301 L396,26 Z M429,26 L432,26 L432,26 L432,40.3636364 L432.276426,40.3636364 C431.117827,41.65014 430.024218,42.9845401 429,44.3629419 L429,26 Z M427,26 L424,26 L424,26 L424,52.5541004 C424.892192,50.7308856 425.894675,48.959805 427,47.247453 L427,26 L427,26 Z M411,26 L408,26 L408,26 L408,40.3636364 L407.723574,40.3636364 C408.882173,41.65014 409.975782,42.9845401 411,44.3629419 L411,26 L411,26 Z M413,26 L416,26 L416,52.5541004 C415.107808,50.7308856 414.105325,48.959805 413,47.247453 L413,26 L413,26 Z M434,26 L437,26 L437,26 L437,35.6984039 C435.962395,36.6113141 434.961678,37.5570422 434,38.533682 L434,26 L434,26 Z M406,26 L403,26 L403,26 L403,35.6984039 C404.037605,36.6113141 405.038322,37.5570422 406,38.533682 L406,26 L406,26 Z" id="bridge-copy-3" sketch:type="MSShapeGroup"></path>
            </g>
        </g>
    </g>
</svg>
