<?xml version="1.0" encoding="UTF-8" standalone="no"?>
<svg width="170px" height="168px" viewBox="0 0 170 168" version="1.1" xmlns="http://www.w3.org/2000/svg" xmlns:xlink="http://www.w3.org/1999/xlink" xmlns:sketch="http://www.bohemiancoding.com/sketch/ns">
    <!-- Generator: Sketch 3.3.2 (12043) - http://www.bohemiancoding.com/sketch -->
    <title>bridge bats</title>
    <desc>Created with Sketch.</desc>
    <defs></defs>
    <g id="Welcome" stroke="none" stroke-width="1" fill="none" fill-rule="evenodd" sketch:type="MSPage">
        <g id="Desktop-HD" sketch:type="MSArtboardGroup" transform="translate(-1116.000000, -1536.000000)" fill="#FFFFFF">
            <g id="bridge-bats" sketch:type="MSLayerGroup" transform="translate(1198.139280, 1634.396813) rotate(27.000000) translate(-1198.139280, -1634.396813) translate(1107.139280, 1549.896813)">
                <path d="M38.8859695,0.351099587 C38.8859695,0.351099587 45.3079348,19.6994767 44.4818707,26.2893053 C44.0903836,29.4134073 38.8859695,37.4697479 38.8859695,37.4697479 C38.8859695,37.4697479 49.2706253,39.7932166 50.508145,42.8362551 C51.3562796,44.9217972 47.4950079,51.3337073 47.4950079,51.3337073 C47.4950079,51.3337073 57.3473463,53.1634257 59.1171834,55.805358 C60.1623752,57.3655666 59.1171834,63.4084801 59.1171834,63.4084801 C59.1171834,63.4084801 71.8423542,61.0050007 75.4745139,62.9610518 C78.2301629,64.4449345 82.3615344,73.6940661 82.3615344,73.6940661 C82.3615344,73.6940661 86.9527063,63.1695007 90.1098266,61.6192934 C93.0425644,60.1785744 103.023121,62.9610518 103.023121,62.9610518 C103.023121,62.9610518 101.165003,54.4667579 102.592748,52.2275111 C103.608513,50.6351929 109.480294,49.5445207 109.480294,49.5445207 C109.480294,49.5445207 107.717288,36.0348192 108.619023,31.6558125 C109.907514,25.3970807 119.810825,8.84802541 119.810825,8.84802541 L103.883868,24.9475469 C103.883868,24.9475469 102.834472,34.6635832 100.87073,37.0223197 C99.4198634,38.7662371 92.6925906,40.6001666 92.6925906,40.6001666 C92.6925906,40.6001666 91.0225959,47.947465 89.678928,49.9919489 C88.7314766,51.4342471 84.5139254,54.4635996 84.5139254,54.4635996 L82.3615344,50.4388508 L81.0698896,53.7187631 L79.3483973,50.8862791 L79.3483973,54.0166977 L68.5874934,47.3084321 L66.0042039,34.7862312 C66.0042039,34.7862312 55.3988439,28.4659122 52.660536,25.3949752 C47.9432475,20.1053204 38.8859695,0.351099587 38.8859695,0.351099587" id="Fill-1" sketch:type="MSShapeGroup"></path>
                <path d="M0.405149764,67.9659317 C0.404624277,67.9659317 8.6452969,80.3560097 9.37099317,85.1587573 C9.71518655,87.4353776 7.70625328,94.1183766 7.70625328,94.1183766 C7.70625328,94.1183766 15.3336837,93.7467479 16.7866527,95.6517395 C17.7824488,96.9561245 16.377299,102.220513 16.377299,102.220513 C16.377299,102.220513 23.5407252,101.604641 25.282186,103.123265 C26.3105623,104.020754 26.7782449,108.480297 26.7782449,108.480297 C26.7782449,108.480297 35.0919601,104.325005 37.9847609,105.001411 C40.1791908,105.513058 44.8512874,111.231192 44.8512874,111.231192 C44.8512874,111.231192 45.9516553,102.927976 47.8265896,101.22459 C49.5685759,99.6422732 57.0073568,99.6722772 57.0073568,99.6722772 C57.0073568,99.6722772 54.0530741,94.0467881 54.5985286,92.1933823 C54.9868628,90.8747849 58.8271151,88.9708461 58.8271151,88.9708461 C58.8271151,88.9703197 54.9521808,79.7933029 54.7136101,76.5333932 C54.3730951,71.8743491 57.9558592,58.2988493 57.9558592,58.2988493 L50.1245402,72.7228836 C50.1245402,72.7228836 51.3110878,79.7711947 50.4193379,81.8130467 C49.7603783,83.3221959 45.4755649,85.916227 45.4755649,85.916227 C45.4755649,85.916227 45.7677352,91.4153835 45.2422491,93.1161373 C44.8717814,94.315245 42.5549133,97.2656396 42.5549133,97.2656396 L40.2774566,94.8463687 L40.0304782,97.4067111 L38.2848135,95.7449099 L38.9001576,97.9499416 L30.150289,95.3053774 L25.903836,86.982159 C25.903836,86.982159 17.3373621,84.5807853 14.8423542,82.9463562 C10.5444036,80.1317692 0.405149764,67.9659317 0.405149764,67.9659317" id="Fill-2" sketch:type="MSShapeGroup"></path>
                <path d="M81.3231739,89.9083399 C81.3231739,89.9083399 83.130846,106.639525 81.6452969,111.984977 C80.9406201,114.519526 76.1981083,120.564545 76.1981083,120.564545 C76.1981083,120.564545 83.1213873,123.698122 83.564372,126.357425 C83.868103,128.178721 80.2895428,133.021474 80.2895428,133.021474 C80.2895428,133.021474 86.9101419,135.686567 87.7792958,138.074781 C88.2926957,139.486549 86.7293747,144.354569 86.7293747,144.354569 C86.7293747,144.354569 95.9374672,143.858187 98.2007357,145.898986 C99.9180242,147.446561 101.52391,155.569226 101.52391,155.569226 C101.52391,155.569226 106.179191,147.413399 108.59485,146.502751 C110.840252,145.655795 117.417236,149.122048 117.417236,149.122048 C117.417236,149.122048 117.293747,141.888976 118.599054,140.206646 C119.527588,139.010696 123.774041,138.796983 123.774041,138.796983 C123.774041,138.796983 124.408828,127.432832 125.642669,123.92131 C127.405675,118.904323 136.598003,106.393702 136.598003,106.393702 L123.265896,117.827863 C123.265896,117.827863 121.192328,125.72892 119.496584,127.446518 C118.244351,128.717741 113.297951,129.445733 113.297951,129.445733 C113.297951,129.445733 111.119285,135.317044 109.899632,136.849354 C109.039937,137.929499 105.679453,139.938189 105.679453,139.938189 L104.734104,136.362447 L103.379926,138.919105 L102.570152,136.379818 L102.138203,138.964901 L95.5580662,132.165044 L95.4850236,121.520989 C95.4850236,121.520989 88.9595376,115.060651 87.4739884,112.203427 C84.9132948,107.282769 81.3231739,89.9083399 81.3231739,89.9083399" id="Fill-3" sketch:type="MSShapeGroup"></path>
                <path d="M25.3914871,122.127912 C25.3914871,122.127912 31.5302154,134.883302 32.3110878,139.553927 C32.68103,141.768433 31.812927,147.935048 31.812927,147.935048 C31.812927,147.935048 36.7288492,148.423008 37.793484,150.404852 C38.5228586,151.762402 37.9532317,156.638843 37.9532317,156.638843 C37.9532317,156.638843 42.5533368,156.842028 43.7792958,158.485932 C44.5034157,159.458694 45.0945875,163.772429 45.0945875,163.772429 C45.0945875,163.772429 50.2101944,160.720968 52.1271676,161.68636 C53.5817131,162.419616 56.9784551,168.400942 56.9784551,168.400942 C56.9784551,168.400942 57.1529164,160.58516 58.2569627,159.16497 C59.2827115,157.844268 64.1029953,158.69596 64.1029953,158.69596 C64.1029953,158.69596 61.8255386,152.992566 62.0588544,151.281285 C62.2254335,150.063227 64.5890699,148.668304 64.5890699,148.668304 C64.5890699,148.668304 61.4850236,139.466547 61.1192853,136.323495 C60.5969522,131.83342 62.038886,119.252264 62.038886,119.252264 L57.9012086,132.175045 C57.9012086,132.175045 59.1250657,139.042806 58.6794535,140.896211 C58.3504992,142.265868 55.7440883,144.2714 55.7440883,144.2714 C55.7440883,144.2714 56.2884919,149.560002 56.058329,151.128106 C55.8964792,152.232991 54.5864425,154.797544 54.5864425,154.797544 L52.9548082,152.232464 L52.9605885,154.652788 L51.7225434,152.871497 L52.2643195,155.047578 L46.4256437,151.550794 L43.1366264,143.125983 C43.1366264,143.125983 37.4330005,139.882392 35.7115081,138.044777 C32.7456647,134.878565 25.3914871,122.127912 25.3914871,122.127912" id="Fill-4" sketch:type="MSShapeGroup"></path>
                <path d="M120.565949,49.8056082 C120.565949,49.8056082 122.702575,62.1198867 121.113505,65.7251057 C120.360483,67.4342816 115.192853,71.0216035 115.192853,71.0216035 C115.192853,71.0216035 122.840252,74.379421 123.351025,76.3602122 C123.700473,77.7177622 119.803994,80.6281514 119.803994,80.6281514 C119.803994,80.6281514 127.11403,83.599075 128.092486,85.4556391 C128.669469,86.5515751 126.991592,89.8004307 126.991592,89.8004307 C126.991592,89.8004307 137.122438,90.9137375 139.63216,92.7408239 C141.535996,94.1283779 143.373095,100.222351 143.373095,100.222351 C143.373095,100.221824 148.426169,95.1032451 151.077772,94.8337354 C153.540725,94.583702 160.81135,98.1236491 160.81135,98.1236491 C160.81135,98.1236491 160.612717,92.9061092 162.034682,91.9049227 C163.045717,91.1932485 167.717814,91.7175292 167.717814,91.7175292 C167.717814,91.7175292 168.318445,83.6511873 169.645822,81.3245603 C171.542302,77.9988524 181.55176,70.4746882 181.55176,70.4746882 L166.976353,76.5649764 C166.976353,76.5649764 164.763531,81.9130601 162.911718,82.8779259 C161.544404,83.5906528 156.106148,83.3248278 156.106148,83.3248278 C156.106148,83.3248278 153.758802,87.1979774 152.429848,88.103888 C151.492906,88.7434472 147.811876,89.6514634 147.811876,89.6514634 L146.739359,86.9300468 L145.271676,88.552369 L144.358382,86.5968444 L143.905413,88.3855046 L136.602733,82.4494476 L136.429848,74.7873703 C136.429848,74.7873703 129.191802,69.1023994 127.530741,66.8120931 C124.669995,62.8668287 120.565949,49.8056082 120.565949,49.8056082" id="Fill-5" sketch:type="MSShapeGroup"></path>
            </g>
        </g>
    </g>
</svg>
