<?xml version="1.0" encoding="UTF-8" standalone="no"?>
<svg width="1440px" height="437px" viewBox="0 0 1440 437" version="1.1" xmlns="http://www.w3.org/2000/svg" xmlns:xlink="http://www.w3.org/1999/xlink" xmlns:sketch="http://www.bohemiancoding.com/sketch/ns">
    <!-- Generator: Sketch 3.3.3 (12081) - http://www.bohemiancoding.com/sketch -->
    <title>Slice 1</title>
    <desc>Created with Sketch.</desc>
    <defs></defs>
    <g id="Page-1" stroke="none" stroke-width="1" fill="none" fill-rule="evenodd" sketch:type="MSPage">
        <g id="hills" sketch:type="MSLayerGroup" transform="translate(-2.000000, 148.000000)">
            <g id="Welcome" sketch:type="MSShapeGroup">
                <g id="Desktop-HD">
                    <g id="hills.png">
                        <path d="M0.668286087,0 C0.668286087,0 259.87052,7.94377648 611.970379,92.3097586 C964.070236,176.675741 1206.80441,289 1206.80441,289 L0.668286087,289 L0.668286087,0 L0.668286087,0 Z" id="Rectangle-24" fill="#47B871"></path>
                        <path d="M201.517526,38 C201.517526,38 468.547265,44.8992661 831.279992,118.172143 C1194.01272,191.445021 1444.07709,289 1444.07709,289 L201.517526,289 L201.517526,38 L201.517526,38 Z" id="Rectangle-24-Copy" fill="#6AE496" transform="translate(822.797310, 163.500000) scale(-1, 1) translate(-822.797310, -163.500000) "></path>
                        <path d="M722.37269,199.638904 C1163.72066,199.638904 1444.0771,289 1444.0771,289 L0.668286087,289 C0.668286087,289 281.024722,199.638904 722.37269,199.638904 L722.37269,199.638904 Z" id="Rectangle-24-Copy-3" fill="#5AD286"></path>
                    </g>
                </g>
            </g>
        </g>
        <g id="tree" sketch:type="MSLayerGroup" transform="translate(1144.000000, 0.000000)">
            <g id="Page-1" sketch:type="MSShapeGroup">
                <g id="trees">
                    <circle id="XMLID_2_" fill="#03B745" cx="113.5" cy="113.5" r="113.5"></circle>
                    <path d="M132,287.7 L97.6,287.7 L106.6,163.8 L115.4,162.9 L123.3,220.3 L132,287.7 L132,287.7 Z" id="XMLID_1_" fill="#824438"></path>
                    <path d="M105.7,226.1 L59.2,150.4 C58.4,149.1 60.1,147.8 61.1,148.9 L113.5,205.4 C113.8,205.7 113.9,206.2 113.8,206.6 L107.9,225.8 C107.5,226.8 106.2,227 105.7,226.1 L105.7,226.1 L105.7,226.1 Z" id="XMLID_3_" fill="#824438"></path>
                    <path d="M114.2,229.9 L170.2,167.3 C171.1,166.3 170.1,164.7 169,165.5 L112.5,208.8 C112.2,209 112,209.5 112,209.9 L112.4,229.2 C112.6,230.2 113.6,230.6 114.2,229.9 L114.2,229.9 L114.2,229.9 Z" id="XMLID_5_" fill="#824438"></path>
                    <path d="M123.4,227 L103.6,218.1 L109.3,109.5 C109.4,108.3 111.2,108.2 111.3,109.4 L123.4,227 L123.4,227 Z" id="XMLID_4_" fill="#824438"></path>
                </g>
            </g>
        </g>
        <g id="grass" sketch:type="MSLayerGroup" transform="translate(1106.000000, 273.000000)" fill="#1CAC4B">
            <g id="Group" sketch:type="MSShapeGroup">
                <path d="M33.15,28.650838 C33.5896552,27.1256983 35.7659483,23.3128492 38.5137931,23.0296089 C42.800431,22.572067 43.7237069,25.3173184 44.1853448,27.1256983 C44.7568966,29.3698324 44.8008621,34.272067 44.8008621,34.272067 C44.8008621,34.272067 48.0323276,31.5268156 47.5706897,26.9731844 C47.0431034,21.7659218 41.8991379,17.3865922 33.6116379,20.1318436 C31.7431034,20.7418994 29.9844828,22.0273743 28.3797414,23.7050279 C28.5336207,27.3435754 26.8849138,34.4899441 29.3689655,37.4748603 C29.7646552,37.9541899 32.1168103,32.3111732 33.15,28.650838 L33.15,28.650838 Z" id="Shape"></path>
                <path d="M21.9387931,37.3223464 C27.2586207,39.3268156 18.8392241,22.5502793 20.2900862,16.6240223 C18.0478448,12.8547486 13.8051724,10.0659218 11.4090517,9.49944134 C5.58362069,8.12681564 0.0659482759,15.4256983 0.0659482759,15.4256983 C0.0659482759,15.4256983 6.35301724,14.0530726 9.27672414,14.9681564 C12.200431,15.8832402 14.6185345,22.1145251 16.487069,27.1256983 C18.3336207,32.1368715 20.6198276,36.8212291 21.9387931,37.3223464 L21.9387931,37.3223464 Z" id="Shape"></path>
                <path d="M50.8241379,9.95698324 C50.6922414,8.86759777 48.8237069,2.81061453 44.8448276,0.827932961 C40.074569,-1.54692737 26.8849138,1.74301676 22.4443966,9.04189944 C21.1693966,11.1553073 20.2681034,13.4648045 19.674569,15.8614525 C18.2237069,21.7877095 18.6413793,28.3022346 19.850431,33.8145251 C20.7517241,37.9324022 24.0271552,39.2832402 26.7090517,38.847486 C29.0612069,38.477095 30.6659483,36.9955307 30.4241379,34.272067 C30.0943966,30.4592179 29.1711207,26.5810056 29.0172414,22.9424581 C28.7974138,17.5608939 29.2590517,12.8547486 30.2702586,10.4145251 C31.787069,6.73240223 36.249569,3.70391061 40.8659483,3.87821229 C48.5159483,4.16145251 50.9780172,11.3078212 50.8241379,9.95698324 L50.8241379,9.95698324 Z" id="Shape"></path>
            </g>
        </g>
        <g id="grass-copy" sketch:type="MSLayerGroup" transform="translate(1346.000000, 234.000000)" fill="#1CAC4B">
            <g id="Group" sketch:type="MSShapeGroup">
                <path d="M33.15,28.650838 C33.5896552,27.1256983 35.7659483,23.3128492 38.5137931,23.0296089 C42.800431,22.572067 43.7237069,25.3173184 44.1853448,27.1256983 C44.7568966,29.3698324 44.8008621,34.272067 44.8008621,34.272067 C44.8008621,34.272067 48.0323276,31.5268156 47.5706897,26.9731844 C47.0431034,21.7659218 41.8991379,17.3865922 33.6116379,20.1318436 C31.7431034,20.7418994 29.9844828,22.0273743 28.3797414,23.7050279 C28.5336207,27.3435754 26.8849138,34.4899441 29.3689655,37.4748603 C29.7646552,37.9541899 32.1168103,32.3111732 33.15,28.650838 L33.15,28.650838 Z" id="Shape"></path>
                <path d="M21.9387931,37.3223464 C27.2586207,39.3268156 18.8392241,22.5502793 20.2900862,16.6240223 C18.0478448,12.8547486 13.8051724,10.0659218 11.4090517,9.49944134 C5.58362069,8.12681564 0.0659482759,15.4256983 0.0659482759,15.4256983 C0.0659482759,15.4256983 6.35301724,14.0530726 9.27672414,14.9681564 C12.200431,15.8832402 14.6185345,22.1145251 16.487069,27.1256983 C18.3336207,32.1368715 20.6198276,36.8212291 21.9387931,37.3223464 L21.9387931,37.3223464 Z" id="Shape"></path>
                <path d="M50.8241379,9.95698324 C50.6922414,8.86759777 48.8237069,2.81061453 44.8448276,0.827932961 C40.074569,-1.54692737 26.8849138,1.74301676 22.4443966,9.04189944 C21.1693966,11.1553073 20.2681034,13.4648045 19.674569,15.8614525 C18.2237069,21.7877095 18.6413793,28.3022346 19.850431,33.8145251 C20.7517241,37.9324022 24.0271552,39.2832402 26.7090517,38.847486 C29.0612069,38.477095 30.6659483,36.9955307 30.4241379,34.272067 C30.0943966,30.4592179 29.1711207,26.5810056 29.0172414,22.9424581 C28.7974138,17.5608939 29.2590517,12.8547486 30.2702586,10.4145251 C31.787069,6.73240223 36.249569,3.70391061 40.8659483,3.87821229 C48.5159483,4.16145251 50.9780172,11.3078212 50.8241379,9.95698324 L50.8241379,9.95698324 Z" id="Shape"></path>
            </g>
        </g>
        <g id="grass-copy-2" sketch:type="MSLayerGroup" transform="translate(1295.000000, 327.000000)" fill="#1CAC4B">
            <g id="Group" sketch:type="MSShapeGroup">
                <path d="M33.15,28.650838 C33.5896552,27.1256983 35.7659483,23.3128492 38.5137931,23.0296089 C42.800431,22.572067 43.7237069,25.3173184 44.1853448,27.1256983 C44.7568966,29.3698324 44.8008621,34.272067 44.8008621,34.272067 C44.8008621,34.272067 48.0323276,31.5268156 47.5706897,26.9731844 C47.0431034,21.7659218 41.8991379,17.3865922 33.6116379,20.1318436 C31.7431034,20.7418994 29.9844828,22.0273743 28.3797414,23.7050279 C28.5336207,27.3435754 26.8849138,34.4899441 29.3689655,37.4748603 C29.7646552,37.9541899 32.1168103,32.3111732 33.15,28.650838 L33.15,28.650838 Z" id="Shape"></path>
                <path d="M21.9387931,37.3223464 C27.2586207,39.3268156 18.8392241,22.5502793 20.2900862,16.6240223 C18.0478448,12.8547486 13.8051724,10.0659218 11.4090517,9.49944134 C5.58362069,8.12681564 0.0659482759,15.4256983 0.0659482759,15.4256983 C0.0659482759,15.4256983 6.35301724,14.0530726 9.27672414,14.9681564 C12.200431,15.8832402 14.6185345,22.1145251 16.487069,27.1256983 C18.3336207,32.1368715 20.6198276,36.8212291 21.9387931,37.3223464 L21.9387931,37.3223464 Z" id="Shape"></path>
                <path d="M50.8241379,9.95698324 C50.6922414,8.86759777 48.8237069,2.81061453 44.8448276,0.827932961 C40.074569,-1.54692737 26.8849138,1.74301676 22.4443966,9.04189944 C21.1693966,11.1553073 20.2681034,13.4648045 19.674569,15.8614525 C18.2237069,21.7877095 18.6413793,28.3022346 19.850431,33.8145251 C20.7517241,37.9324022 24.0271552,39.2832402 26.7090517,38.847486 C29.0612069,38.477095 30.6659483,36.9955307 30.4241379,34.272067 C30.0943966,30.4592179 29.1711207,26.5810056 29.0172414,22.9424581 C28.7974138,17.5608939 29.2590517,12.8547486 30.2702586,10.4145251 C31.787069,6.73240223 36.249569,3.70391061 40.8659483,3.87821229 C48.5159483,4.16145251 50.9780172,11.3078212 50.8241379,9.95698324 L50.8241379,9.95698324 Z" id="Shape"></path>
            </g>
        </g>
    </g>
</svg>
