<?xml version="1.0" encoding="UTF-8" standalone="no"?>
<svg width="1000px" height="202px" viewBox="0 0 1000 202" version="1.1" xmlns="http://www.w3.org/2000/svg" xmlns:xlink="http://www.w3.org/1999/xlink" xmlns:sketch="http://www.bohemiancoding.com/sketch/ns">
    <!-- Generator: Sketch 3.3.2 (12043) - http://www.bohemiancoding.com/sketch -->
    <title>Artboard</title>
    <desc>Created with Sketch.</desc>
    <defs></defs>
    <g id="Page-1" stroke="none" stroke-width="1" fill="none" fill-rule="evenodd" sketch:type="MSPage">
        <g id="Artboard" sketch:type="MSArtboardGroup">
            <g id="water-waves" sketch:type="MSLayerGroup">
                <path d="M423.862619,47.3897268 C341.508274,47.3897251 278.142854,0.348525552 165.318007,0.348524362 C74.9192472,0.348523408 47.3561553,34 0,34.0000012 L0,201.000007 L1000,201.000009 L1000,34.0000012 C922.187508,34 856.536917,0.348523824 720.151227,0.348524094 C583.765536,0.348524363 506.216963,47.3897285 423.862619,47.3897268 L423.862619,47.3897268 Z" id="back" fill="#7FC9FF" sketch:type="MSShapeGroup"></path>
                <path d="M468.862362,42.8203125 C374.573218,42.8203125 356.710315,72.1615639 275.149944,72.1615639 C193.589574,72.1615639 109.98308,28 0,28 L0,201 L1000,201 L1000,28 C906.937394,28 834.405787,82.2317238 732.506716,82.2317238 C630.607643,82.2317238 563.151506,42.8203125 468.862362,42.8203125 L468.862362,42.8203125 Z" id="middle" fill="#33A4E9" sketch:type="MSShapeGroup"></path>
                <path d="M762.075667,63.9726563 C680.994592,63.9726563 653.549685,85.1926849 578.148753,97.8000004 C502.747821,110.407316 445.585738,108.105452 350.32269,77.4821694 C255.059645,46.858887 154.403467,69.901048 110.482321,82.3834794 C69.1074898,94.1422455 50.8188968,97.8000012 2.67164069e-12,97.8000006 C3.54191018e-08,106.400698 2.67164069e-12,201.000005 2.67164069e-12,201.000005 L1000,201.000005 L1000,97.8000007 C873.044706,97.8000012 843.156741,63.9726563 762.075667,63.9726563 L762.075667,63.9726563 Z" id="front" fill="#1C67CA" sketch:type="MSShapeGroup"></path>
            </g>
        </g>
    </g>
</svg>
