<?xml version="1.0" encoding="UTF-8" standalone="no"?>
<svg width="3826px" height="201px" viewBox="0 0 3826 201" version="1.1" xmlns="http://www.w3.org/2000/svg" xmlns:xlink="http://www.w3.org/1999/xlink" xmlns:sketch="http://www.bohemiancoding.com/sketch/ns">
    <!-- Generator: Sketch 3.3.2 (12043) - http://www.bohemiancoding.com/sketch -->
    <title>wave-back-lg</title>
    <desc>Created with Sketch.</desc>
    <defs></defs>
    <g id="Page-1" stroke="none" stroke-width="1" fill="none" fill-rule="evenodd" sketch:type="MSPage">
        <g id="Desktop-HD" sketch:type="MSArtboardGroup" transform="translate(0.000000, -2262.000000)" fill="#7FC9FF">
            <g id="website-mock" sketch:type="MSLayerGroup" transform="translate(-138.000000, 0.000000)">
                <g id="schedule-section" transform="translate(0.000000, 1899.000000)" sketch:type="MSShapeGroup">
                    <g id="water-waves" transform="translate(0.000000, 260.000000)">
                        <g id="wave-back-lg" transform="translate(0.000000, 103.000000)">
                            <path d="M1422.86262,47.389727 C1340.50827,47.389725 1277.14285,0.348526 1164.31801,0.348524 C1073.91925,0.348523 1046.35616,34 999,34.000001 L999,201.000007 L1999,201.000009 L1999,34.000001 C1921.18751,34 1855.53692,0.348524 1719.15123,0.348524 C1582.76554,0.348524 1505.21696,47.389728 1422.86262,47.389727 L1422.86262,47.389727 L1422.86262,47.389727 Z" id="back"></path>
                            <path d="M423.862619,47.389727 C341.508274,47.389725 278.142854,0.348526 165.318007,0.348524 C74.9192472,0.348523 47.3561553,34 0,34.000001 L0,201.000007 L1000,201.000009 L1000,34.000001 C922.187508,34 856.536917,0.348524 720.151227,0.348524 C583.765536,0.348524 506.216963,47.389728 423.862619,47.389727 L423.862619,47.389727 L423.862619,47.389727 Z" id="back"></path>
                            <path d="M3420.86262,47.389727 C3338.50827,47.389725 3275.14285,0.348526 3162.31801,0.348524 C3071.91925,0.348523 3044.35616,34 2997,34.000001 L2997,201.000007 L3997,201.000009 L3997,34.000001 C3919.18751,34 3853.53692,0.348524 3717.15123,0.348524 C3580.76554,0.348524 3503.21696,47.389728 3420.86262,47.389727 L3420.86262,47.389727 L3420.86262,47.389727 Z" id="back-copy-2"></path>
                            <path d="M2421.86262,47.389727 C2339.50827,47.389725 2276.14285,0.348526 2163.31801,0.348524 C2072.91925,0.348523 2045.35616,34 1998,34.000001 L1998,201.000007 L2998,201.000009 L2998,34.000001 C2920.18751,34 2854.53692,0.348524 2718.15123,0.348524 C2581.76554,0.348524 2504.21696,47.389728 2421.86262,47.389727 L2421.86262,47.389727 L2421.86262,47.389727 Z" id="back-copy"></path>
                        </g>
                    </g>
                </g>
            </g>
        </g>
    </g>
</svg>
