<?xml version="1.0" encoding="UTF-8" standalone="no"?>
<svg width="3826px" height="173px" viewBox="0 0 3826 173" version="1.1" xmlns="http://www.w3.org/2000/svg" xmlns:xlink="http://www.w3.org/1999/xlink" xmlns:sketch="http://www.bohemiancoding.com/sketch/ns">
    <!-- Generator: Sketch 3.3.2 (12043) - http://www.bohemiancoding.com/sketch -->
    <title>wave-middle-lg</title>
    <desc>Created with Sketch.</desc>
    <defs></defs>
    <g id="Page-1" stroke="none" stroke-width="1" fill="none" fill-rule="evenodd" sketch:type="MSPage">
        <g id="Desktop-HD" sketch:type="MSArtboardGroup" transform="translate(0.000000, -2290.000000)" fill="#33A4E9">
            <g id="website-mock" sketch:type="MSLayerGroup" transform="translate(-138.000000, 0.000000)">
                <g id="schedule-section" transform="translate(0.000000, 1899.000000)" sketch:type="MSShapeGroup">
                    <g id="water-waves" transform="translate(0.000000, 260.000000)">
                        <g id="wave-middle-lg" transform="translate(0.000000, 131.000000)">
                            <path d="M1468.86236,14.820312 C1374.57322,14.820312 1356.71032,44.161564 1275.14994,44.161564 C1193.58957,44.161564 1109.98308,0 1000,0 L1000,173 L2000,173 L2000,0 C1906.93739,0 1834.40579,54.231724 1732.50672,54.231724 C1630.60764,54.231724 1563.15151,14.820312 1468.86236,14.820312 L1468.86236,14.820312 L1468.86236,14.820312 Z" id="middle"></path>
                            <path d="M468.862362,14.820312 C374.573218,14.820312 356.710315,44.161564 275.149944,44.161564 C193.589574,44.161564 109.98308,0 0,0 L0,173 L1000,173 L1000,0 C906.937394,0 834.405787,54.231724 732.506716,54.231724 C630.607643,54.231724 563.151506,14.820312 468.862362,14.820312 L468.862362,14.820312 L468.862362,14.820312 Z" id="middle"></path>
                            <path d="M3467.86236,14.820312 C3373.57322,14.820312 3355.71032,44.161564 3274.14994,44.161564 C3192.58957,44.161564 3108.98308,0 2999,0 L2999,173 L3999,173 L3999,0 C3905.93739,0 3833.40579,54.231724 3731.50672,54.231724 C3629.60764,54.231724 3562.15151,14.820312 3467.86236,14.820312 L3467.86236,14.820312 L3467.86236,14.820312 Z" id="middle-copy-2"></path>
                            <path d="M2467.86236,14.820312 C2373.57322,14.820312 2355.71031,44.161564 2274.14994,44.161564 C2192.58957,44.161564 2108.98308,0 1999,0 L1999,173 L2999,173 L2999,0 C2905.93739,0 2833.40579,54.231724 2731.50672,54.231724 C2629.60764,54.231724 2562.15151,14.820312 2467.86236,14.820312 L2467.86236,14.820312 L2467.86236,14.820312 Z" id="middle-copy"></path>
                        </g>
                    </g>
                </g>
            </g>
        </g>
    </g>
</svg>
