<svg width="1422" height="844" viewBox="0 0 1422 844" fill="none" xmlns="http://www.w3.org/2000/svg">
<rect width="1421.7" height="625.68" fill="#FFB945"/>
<path d="M0 0H1422V35.6328C1422 35.6328 104.411 173.71 106.241 192.083C108.072 210.456 1018.67 177.502 1025.85 192.083C1033.04 206.664 0 365.236 0 365.236V0Z" fill="#FFA945"/>
<g clip-path="url(#clip0_172_2)">
<path opacity="0.25" d="M395.86 153.698L429.776 716.468L966.974 766.574L1036.88 192.787L395.86 153.698Z" fill="#FFDE88"/>
<path opacity="0.25" d="M336 486.309L743.757 30L1159 443.03L838.899 810.764L336 486.309Z" fill="#FFDE88"/>
<path d="M716.86 525.81C768.179 525.81 809.782 484.225 809.782 432.929C809.782 381.632 768.179 340.048 716.86 340.048C665.54 340.048 623.938 381.632 623.938 432.929C623.938 484.225 665.54 525.81 716.86 525.81Z" fill="#FDEEBD"/>
<path d="M664.157 314.095C664.157 314.095 753.368 287.225 816.052 334.292C878.736 381.359 831.785 500.685 831.785 500.685C831.785 500.685 863.939 389.68 802.357 348.206C740.774 306.732 664.157 314.095 664.157 314.095V314.095Z" fill="#FFCF5B"/>
<path d="M600.751 377.858C600.751 377.858 582.705 465.853 634.617 516.742C693.34 574.308 782.487 541.438 782.487 541.438C782.487 541.438 686.648 592.15 628.352 535.304C558.346 467.041 600.751 377.858 600.751 377.858Z" fill="#FFCF5B"/>
<path d="M546.073 475.904C546.073 475.904 510.539 361.635 591.764 276.903C666.055 199.406 811.184 276.563 811.184 276.563C811.184 276.563 677.464 219.677 604.392 296.385C534.068 370.207 546.073 475.904 546.073 475.904Z" fill="#FFCF5B"/>
<path d="M882.779 373.681C882.779 373.681 909.508 484.294 839.876 559.639C770.243 634.984 649.579 595.573 649.579 595.573C649.579 595.573 790.685 657.184 860.387 576.609C930.088 496.033 882.779 373.681 882.779 373.681Z" fill="#FFCF5B"/>
<path d="M520.554 349.813C520.554 349.813 478.577 526.528 543.841 584.528C609.106 642.528 673.984 653.238 786.517 637.411C786.517 637.411 614.364 686.661 540.633 614.265C466.902 541.868 506.528 390.877 520.554 349.813V349.813Z" fill="#FFCF5B"/>
<path d="M813.723 684.338C813.723 684.338 918.397 715.088 951.717 569.045C951.717 569.045 901.532 681.063 813.723 684.338Z" fill="#FFCF5B"/>
<path d="M449.288 531.358C449.288 531.358 419.269 686.499 557.202 713.863C557.202 713.863 458.911 687.623 449.288 531.358Z" fill="#FFCF5B"/>
<path d="M702.333 211.352C702.333 211.352 903.978 215.607 948.259 307.94C1001.91 419.814 901.881 559.246 901.881 559.246C901.881 559.246 968.064 402.798 935.511 328.296C889 221.849 702.333 211.352 702.333 211.352Z" fill="#FFCF5B"/>
<path d="M477.966 296.94C477.966 296.94 474.98 227.953 508.513 188.968C537.724 155.006 572.533 144.602 615.645 144.787C615.645 144.787 551.208 158.793 517.556 202.076C495.214 230.812 484.747 260.028 477.966 296.94H477.966Z" fill="#FFCF5B"/>
<path d="M918.924 161.202C918.924 161.202 1014.33 179.683 1048.14 248.139C1081.96 316.595 1020.23 417.119 1020.23 417.119C1020.23 417.119 1054.69 324.395 1020.21 259.931C978.734 182.37 918.924 161.202 918.924 161.202Z" fill="#FFCF5B"/>
</g>
<path d="M1 447.168H31.336L71.152 458.544L126.136 437.688L141.304 278.424L154.576 274.632L186.808 390.288L203.872 206.376L241.792 195L268.336 206.376L291.088 195H317.632L330.904 202.584L340.384 322.032L353.656 304.968L370.72 225.336L385.888 223.44L412.432 462.336H440.872L467.416 449.064L505.336 452.856L547.048 483.192L660.808 521.112L837.136 557.136L1423 572.304V843.432H1V447.168Z" fill="#FF8801"/>
<path d="M1 605.319L469.957 582.642L615.304 535.397H808.696L856.096 492.672L874.622 346.419L891.641 336.97L920.56 488.88L931.936 504.048L954.688 488.88L969.856 356.16L994.504 267.048L1038.11 249.984H1132.91L1170.83 274.632L1210.65 267.048L1254.26 359.952L1290.63 478.704L1423 516.5V843.432H1V605.319Z" fill="#E96B02"/>
<defs>
<clipPath id="clip0_172_2">
<rect width="823" height="780.764" fill="white" transform="translate(336 30)"/>
</clipPath>
</defs>
</svg>
