<svg width="1421" height="2081" viewBox="0 0 1421 2081" fill="none" xmlns="http://www.w3.org/2000/svg">
<path d="M0 191.444L60.672 180.542L182.016 175.328L293.88 209.456L406.692 191.444L610.038 180.542L813.384 191.444L984.024 228.416L1071.24 213.248L1313.93 228.416L1422 220.832V2471.38H0V191.444Z" fill="#972800"/>
<path d="M1341.88 46.9939H1281.97V93.9872H1341.88V46.9939Z" fill="#972800"/>
<path d="M1346.16 97.4475V93.3286H1277.91V97.4475H1346.16Z" fill="#972800"/>
<path d="M1277.9 246.835H1282.02V93.3387H1277.9V246.835Z" fill="#972800"/>
<path d="M1278.2 237.784L1281.96 239.464L1345.1 98.1125L1341.34 96.4326L1278.2 237.784Z" fill="#972800"/>
<path d="M1282.7 96.4383L1278.94 98.1182L1342.08 239.47L1345.84 237.79L1282.7 96.4383Z" fill="#972800"/>
<path d="M1342.03 246.835H1346.15V93.3387H1342.03V246.835Z" fill="#972800"/>
<path d="M1344.75 46.9936V41.9172L1279.09 41.9172V46.9936L1344.75 46.9936Z" fill="#972800"/>
<path d="M1336.74 46.5451C1336.74 39.9696 1334.13 33.6633 1329.48 29.0137C1324.83 24.3641 1318.53 21.752 1311.95 21.752C1305.37 21.752 1299.07 24.3641 1294.42 29.0137C1289.77 33.6633 1287.16 39.9696 1287.16 46.5451H1336.74Z" fill="#972800"/>
<path d="M1215.13 29.6692H1087.95V232.465H1215.13V29.6692Z" fill="#972800"/>
<path d="M1221 20.2766H1080V29.6633H1221V20.2766Z" fill="#972800"/>
<path d="M1197.5 0H1106.61V22.9084H1197.5V0Z" fill="#972800"/>
<path d="M1217.89 232.459H1085.18V240.367H1217.89V232.459Z" fill="#972800"/>
<path d="M1200.13 108.059V54.1108H1163.55V108.059H1200.13Z" fill="#EFCB7D"/>
<path d="M1200.13 71.4236H1163.55" stroke="#972800" stroke-width="1.2073" stroke-miterlimit="10"/>
<path d="M1200.13 91.3079H1163.55" stroke="#972800" stroke-width="1.2073" stroke-miterlimit="10"/>
<path d="M1182.11 54.1108V108.053" stroke="#972800" stroke-width="1.2073" stroke-miterlimit="10"/>
<path d="M1205.41 165.84V130.919H1158.27V165.84H1205.41Z" fill="#EFCB7D"/>
<path d="M1205.41 148.823H1158.27" stroke="#972800" stroke-width="1.2073" stroke-miterlimit="10"/>
<path d="M1134.9 108.059V54.1108H1098.32V108.059H1134.9Z" fill="#EFCB7D"/>
<path d="M1134.9 71.4236H1098.33" stroke="#972800" stroke-width="1.2073" stroke-miterlimit="10"/>
<path d="M1134.9 91.3079H1098.33" stroke="#972800" stroke-width="1.2073" stroke-miterlimit="10"/>
<path d="M1116.88 54.1108V108.053" stroke="#972800" stroke-width="1.2073" stroke-miterlimit="10"/>
<path d="M1135.07 185.012V131.064H1098.5V185.012H1135.07Z" fill="#EFCB7D"/>
<path d="M1135.07 148.377H1098.5" stroke="#972800" stroke-width="1.2073" stroke-miterlimit="10"/>
<path d="M1135.07 168.261H1098.5" stroke="#972800" stroke-width="1.2073" stroke-miterlimit="10"/>
<path d="M1117.05 131.064V185.012" stroke="#972800" stroke-width="1.2073" stroke-miterlimit="10"/>
<path d="M1181.83 165.84V130.919" stroke="#972800" stroke-width="1.2073" stroke-miterlimit="10"/>
<path d="M106.374 167.896C105.265 170.395 103.418 172.496 101.082 173.917C99.2327 175.011 97.1456 175.64 95 175.749C98.3561 178.895 103.075 180.017 107.28 178.626C112.424 176.927 114.404 172.263 114.69 171.559C113.408 171.63 112.124 171.453 110.909 171.039C109.139 170.425 107.57 169.338 106.374 167.896Z" fill="#972800"/>
<path d="M150.596 168.609V177.482H163.136C163.136 177.482 168.973 176.04 160.382 172.76L160.407 167.902L150.596 168.609Z" fill="#972800"/>
<path d="M117.5 168.609V177.482H130.025C130.025 177.482 135.859 176.04 127.271 172.76L127.296 167.902L117.5 168.609Z" fill="#972800"/>
<path d="M114.54 170.402L114.477 180.905H127.008C127.008 180.905 132.842 179.463 124.254 176.183C124.146 174.121 124.04 172.056 123.937 169.99L114.54 170.402Z" fill="#972800"/>
<path d="M147.471 170.123C147.515 173.673 147.558 177.222 147.601 180.771H160.125C160.125 180.771 165.962 179.33 157.371 176.053C157.371 174.113 157.363 172.175 157.346 170.237L147.471 170.123Z" fill="#972800"/>
<path d="M195.898 172.177C198.024 173.406 200.106 173.194 200.816 172.177C200.924 172.018 201.266 171.464 201.019 170.38C201.019 170.38 200.797 169.543 198.357 167.585C195.012 163.643 192.322 159.19 190.39 154.395C187.538 147.372 175.914 143.997 170.282 147.486C168.308 148.713 167.411 150.554 166.825 151.761C166.825 151.761 163.674 158.245 168.263 165.506C168.734 166.309 169.377 166.997 170.146 167.521C171.588 168.472 173.087 168.504 174.728 168.513C178.002 168.513 180.528 168.513 182.436 168.494L183.069 168.58C187.483 169.218 191.796 170.427 195.898 172.177Z" fill="#972800"/>
<path d="M125.423 170.653C125.423 170.653 134.522 172.161 147.48 170.795L147.246 167.873C147.246 167.873 134.661 158.683 125.423 167.873V170.653Z" fill="#972800"/>
<path d="M106.257 168.193C106.257 168.193 96.6668 145.3 132.579 132.82C132.579 132.82 157.884 127.004 172.396 146.352C172.396 146.352 164.191 148.859 166.47 160.34C166.47 160.34 167.366 166.58 172.396 168.193L164.72 171.251C164.72 171.251 158.138 177.59 143.877 168.811C143.877 168.811 137.054 163.449 124.01 171.492C123.997 171.492 106.966 174.139 106.257 168.193Z" fill="#972800"/>
<path d="M172.396 146.352C172.396 146.352 173.664 139.532 184.049 138.565C184.049 138.565 185.044 142.096 181.659 147.214C181.659 147.201 178.1 144.983 172.396 146.352Z" fill="#972800"/>
<path d="M172.868 148.26C172.868 148.26 169.595 141.605 158.642 143.11C158.642 143.11 159.346 150.418 166.704 152.994C168.172 150.772 170.342 149.105 172.868 148.26Z" fill="#972800"/>
<path d="M166.78 152.142C166.78 152.142 162.552 151.299 160.011 152.142C157.469 152.985 157.65 158.648 158.087 159.301C159.336 159.177 160.548 158.803 161.649 158.201C163.6 157.098 165.115 155.362 165.943 153.279C165.309 154.971 164.822 156.714 164.489 158.489C163.709 162.715 163.783 167.055 164.707 171.251C164.905 172.115 165.238 172.942 165.693 173.701C166.728 175.364 168.278 176.644 170.108 177.346C170.174 175.052 170.682 172.792 171.603 170.691C171.949 169.909 172.351 169.153 172.808 168.431C172.153 167.994 171.53 167.511 170.944 166.986C170.22 166.348 169.561 165.64 168.976 164.872C168.634 164.406 167.81 163.189 167.192 160.644C166.555 157.857 166.416 154.978 166.78 152.142Z" fill="#972800"/>
<path d="M201.029 170.418C201.029 170.418 198.63 172.554 189.078 162.096C188.145 161.328 187.142 160.648 186.083 160.065C184.308 159.075 182.456 158.227 180.547 157.529C176.427 155.891 174.259 155.197 172.443 153.888C171.125 152.937 170.314 152.072 169.819 150.909C169.471 150.072 169.31 149.169 169.347 148.263C169.936 147.707 170.594 147.23 171.306 146.843C174.227 145.259 177.203 145.725 178.709 145.969C180.802 146.328 182.804 147.094 184.603 148.222C186.05 149.004 187.344 150.04 188.425 151.28C189.23 152.216 189.892 153.266 190.39 154.395C191.683 157.389 193.2 160.281 194.928 163.047C195.819 164.403 197.146 166.143 197.432 166.485C197.717 166.828 197.828 166.923 198.084 167.265C198.161 167.37 198.248 167.466 198.344 167.553C198.411 167.61 198.452 167.639 198.715 167.823L198.937 167.981C198.937 167.981 199.175 168.152 199.457 168.393C199.942 168.771 200.361 169.226 200.699 169.74C200.829 169.956 200.939 170.183 201.029 170.418Z" fill="#972800"/>
<path d="M118.224 139.944C117.283 143.332 117.067 146.88 117.59 150.357C119.273 161.275 127.896 167.328 129.778 168.586L130.872 168.193C129.132 166.292 123.9 160.055 123.231 150.519C122.895 145.319 123.959 140.125 126.311 135.475C124.929 136.09 123.459 136.819 121.909 137.694C120.566 138.426 119.339 139.193 118.224 139.944Z" stroke="#972800" stroke-width="0.316911" stroke-miterlimit="10"/>
<path d="M137.187 167.062C136.709 163.024 136.863 158.937 137.644 154.947C139.929 143.37 146.945 135.967 150.168 132.966C148.635 132.676 147.089 132.464 145.535 132.332C143.954 132.195 142.368 132.139 140.781 132.164C138.257 135.638 136.309 139.496 135.01 143.589C133.727 147.568 133.103 151.73 133.163 155.91C133.27 159.718 133.99 163.484 135.295 167.062H137.187Z" stroke="#972800" stroke-width="0.316911" stroke-miterlimit="10"/>
<path d="M132.566 133.007C130.884 136.275 129.704 139.778 129.068 143.398C127.109 154.664 131.08 163.81 132.997 167.572L135.295 167.049C134.226 164.127 133.547 161.076 133.276 157.976C132.205 145.518 138.147 135.903 140.781 132.157C138.018 132.094 135.258 132.379 132.566 133.007V133.007Z" stroke="#972800" stroke-width="0.316911" stroke-miterlimit="10"/>
<path d="M126.311 135.475C127.388 134.962 128.558 134.455 129.822 133.973C130.773 133.609 131.689 133.295 132.566 133.022C130.886 136.286 129.706 139.783 129.068 143.398C127.109 154.664 131.08 163.81 132.997 167.572L130.874 168.181C126.865 163.847 124.278 158.391 123.462 152.544C122.647 146.697 123.641 140.74 126.311 135.475V135.475Z" stroke="#972800" stroke-width="0.316911" stroke-miterlimit="10"/>
<path d="M175.682 161.75C176.288 161.75 176.778 160.864 176.778 159.77C176.778 158.676 176.288 157.789 175.682 157.789C175.076 157.789 174.585 158.676 174.585 159.77C174.585 160.864 175.076 161.75 175.682 161.75Z" fill="#972800"/>
</svg>
