<svg width="1421" height="1321" viewBox="0 0 1421 1321" fill="none" xmlns="http://www.w3.org/2000/svg">
<path d="M0 208.866H169L332.5 180.426L504 167.154L725 145.002L839 193.698L1015 208.866L1207 247.002L1422 208.866V2741.92H0V208.866Z" fill="#2E0A01"/>
<path d="M96.4464 120.314L94.0947 114.626L100.133 115.682L96.4464 120.314Z" fill="#2E0A01"/>
<path d="M93.3835 130.887L88 127.9L93.3835 124.965V130.887Z" fill="#2E0A01"/>
<path d="M98.6787 136.51L92.7964 138.324L94.403 132.41L98.6787 136.51Z" fill="#2E0A01"/>
<path d="M107.06 139.451L103.497 144.471L101.178 138.803L107.06 139.451Z" fill="#2E0A01"/>
<path d="M245.843 120.152L248.195 114.464L242.157 115.52L245.843 120.152Z" fill="#2E0A01"/>
<path d="M248.617 130.724L254 127.737L248.617 124.802V130.724Z" fill="#2E0A01"/>
<path d="M243.231 136.807L249.113 138.615L247.507 132.707L243.231 136.807Z" fill="#2E0A01"/>
<path d="M234.943 138.952L237.929 144.335L240.864 138.952H234.943Z" fill="#2E0A01"/>
<path d="M248.494 1.89083L253.845 15.4953C253.845 15.4953 252.556 25.0962 239.632 32.0604L227.971 26.0161L223.767 13.202L227.764 4.04811C227.764 4.04811 234.631 -2.63105 248.494 1.89083Z" fill="#2E0A01"/>
<path d="M197.141 47.9963C197.141 47.9963 201.508 33.0962 211.458 24.0265C211.458 24.0265 221.312 22.2579 234.605 24.7715L247.627 39.6717L247.063 53.7102C247.063 53.7102 228.626 65.5202 223.948 66.8223C219.271 68.1245 212.851 66.8223 212.851 66.8223L197.141 47.9963Z" fill="#2E0A01"/>
<path d="M125.564 109.444L109.044 107.934L104.075 109.444L92.7964 124.085V131.541L100.92 139.762L120.038 139.38L124.145 137.184L131.388 123.851L125.564 109.444Z" fill="#2E0A01"/>
<path d="M216.353 109.444L232.867 107.934L237.836 109.444L249.114 124.085V131.541L240.991 139.762L221.873 139.38L217.766 137.184L210.523 123.851L216.353 109.444Z" fill="#2E0A01"/>
<path d="M106.14 64.1665C107.419 66.0375 108.979 67.7003 110.765 69.0965C116.991 73.9682 124.085 74.0525 126.728 73.9488C127.317 72.0053 127.991 70.023 128.768 67.9564C129.326 66.4663 129.902 65.0411 130.479 63.6807C127.972 63.9268 125.374 64.1212 122.705 64.2443C117.186 64.5096 111.656 64.4836 106.14 64.1665Z" fill="#2E0A01"/>
<path d="M184.57 16.7781C183.378 19.1621 182.069 21.6174 180.625 24.131C177.958 28.7575 175.036 33.2323 171.873 37.5346C173.058 37.5865 174.276 37.6577 175.526 37.7549C177.437 37.9039 179.264 38.1047 181.007 38.338C181.007 38.338 185.82 34.14 184.57 16.7781Z" fill="#2E0A01"/>
<path d="M170.094 150.477H156.503V186.743H170.094V150.477Z" fill="#2E0A01"/>
<path d="M191.586 150.477H177.994V186.743H191.586V150.477Z" fill="#2E0A01"/>
<path d="M172.049 205.05H158.457V216.323H172.049V205.05Z" fill="#2E0A01"/>
<path d="M176.149 216.329H189.74V205.056H176.149V216.329Z" fill="#2E0A01"/>
<path d="M147.165 177.868C147.165 177.868 153.682 166.511 172.055 176.034V207.169C172.055 207.169 164.585 204.954 149.899 216.576L133.204 217.224C133.204 217.224 126.862 215.533 132.142 210.778L147.89 199.467L147.165 177.868Z" fill="#2E0A01"/>
<path d="M201.022 177.868C201.022 177.868 194.505 166.511 176.132 176.034V207.169C176.132 207.169 183.595 204.954 198.288 216.576L214.983 217.224C214.983 217.224 221.325 215.533 216.039 210.778L200.296 199.467L201.022 177.868Z" fill="#2E0A01"/>
<path d="M203.45 146.493C197.533 149.612 191.162 151.782 184.572 152.926C165.455 156.204 149.984 149.687 143.545 146.525C136.613 139.499 131.206 131.119 127.66 121.908C127.66 121.908 116.945 94.051 129.027 66.6283C130.347 63.6974 131.944 60.8991 133.795 58.2712C136.481 54.6818 139.671 51.4984 143.266 48.8193C147.432 45.645 157.363 38.0653 171.434 37.5471C174.489 37.4302 177.548 37.6474 180.556 38.1949C183.086 38.8518 185.564 39.6986 187.967 40.7279C192.804 42.8348 197.316 45.6181 201.37 48.9943C205.426 52.3565 214.003 59.6382 218.363 72.3162C220.255 77.8357 221.133 83.6518 220.954 89.4838C220.766 95.0068 220.206 100.511 219.277 105.958C218.386 111.206 217.132 116.386 215.526 121.461C212.663 130.317 208.6 138.74 203.45 146.493Z" fill="#2E0A01"/>
<path d="M141.877 144.472C140.872 144.472 135.469 144.77 132.431 148.819C131.627 149.918 131.034 151.157 130.682 152.473C129.924 155.155 130.339 157.345 130.87 159.994C131.403 162.605 132.274 165.136 133.461 167.522C134.628 164.13 136.634 161.088 139.292 158.679C141.825 156.444 145.012 154.902 145.951 151.326C146.172 150.481 146.255 149.606 146.198 148.735C146.139 148.307 146.081 147.88 146.016 147.439L141.877 144.472Z" fill="#2E0A01"/>
<path d="M142.971 179.169L150.668 167.359C151.833 164.463 152.369 161.352 152.241 158.232C152.112 155.113 151.322 152.056 149.923 149.265L143.263 145.793C140.95 148.89 139.293 152.426 138.394 156.186C137.495 159.946 137.373 163.849 138.035 167.657L142.971 179.169Z" fill="#2E0A01"/>
<path d="M106.385 64.2179C117.361 65.843 128.565 64.8757 139.1 61.3933C170.067 50.9891 182.505 21.9209 184.578 16.7771C181.731 18.9964 178.729 21.0077 175.593 22.7955C171.9 24.9092 168.036 26.7079 164.042 28.1725C162.908 27.0971 161.023 25.2831 158.73 22.9898C153.113 17.3342 151.895 15.611 149.394 15.4231C146.388 15.2029 143.81 17.3666 142.884 18.144C140.208 20.3855 140.532 22.1995 137.993 24.1883C136.107 25.6654 135.207 25.2378 131.514 26.527C128.145 27.6931 121.751 29.9022 120.903 33.8734C120.715 34.7415 121.363 36.3935 122.652 39.7039C124.518 44.459 125.891 46.3312 125.943 49.7C125.932 50.6545 125.81 51.6045 125.58 52.531C123.235 54.2024 120.726 55.8803 118.052 57.5647C114.029 60.1042 110.103 62.3068 106.385 64.2179Z" fill="#2E0A01"/>
<path d="M125.902 49.6294L120.992 50.3809C120.396 50.4327 114.287 50.8732 110.516 46.2412C109.069 44.4047 108.219 42.1686 108.081 39.8342C110.808 39.3742 115.142 38.992 119.223 40.3136C120.18 40.6377 121.095 41.0725 121.951 41.6092C122.776 42.0161 123.525 42.5618 124.166 43.2223C125.17 44.3755 125.417 45.71 125.695 47.1871C125.835 47.9936 125.904 48.8108 125.902 49.6294Z" fill="#2E0A01"/>
<path d="M112.77 48.2558C112.77 48.2558 110.826 54.151 108.332 55.0062C109.552 55.906 110.947 56.5414 112.426 56.8719C116.799 57.8566 120.621 55.7317 122.481 54.6952C123.58 54.0757 124.617 53.3511 125.577 52.5314C125.769 51.8128 125.89 51.0773 125.94 50.3353C126.007 49.4113 125.963 48.4828 125.811 47.5691C123.782 46.4739 121.492 45.9552 119.19 46.0695C116.888 46.1837 114.66 46.9263 112.75 48.2169L112.77 48.2558Z" fill="#2E0A01"/>
</svg>
