<svg width="1421" height="2364" viewBox="0 0 1421 2364" fill="none" xmlns="http://www.w3.org/2000/svg">
<path d="M0 202.112L91.008 215.384L176.328 247.616H299.568L406.692 237.188L610.038 226.286L813.384 215.384L930.936 192.632L1105.37 179.36L1300.66 192.632L1422 258.992V2467.83H0V202.112Z" fill="#C45200"/>
<path d="M953.193 131.073C953.193 131.073 946.75 131.378 944.257 146.344C941.765 161.309 942.872 162.901 939.065 167.539C939.065 167.539 936.229 169.687 936.576 171.588C936.576 171.588 938.767 169.484 940.913 168.625C940.913 168.625 945.793 166.143 945.87 152.85C945.87 152.85 947.311 137.257 952.31 132.938L953.193 131.073Z" fill="#C45200"/>
<path d="M935.689 178.616C935.973 178.042 936.134 177.415 936.163 176.776C936.226 175.023 935.142 174.381 934.837 172.257C934.725 171.482 934.578 170.441 935.097 169.396C935.647 168.292 937.011 167.034 938.546 167.293C940.271 167.587 941.049 169.6 941.14 170.799C941.17 171.478 941.064 172.156 940.828 172.793C940.581 173.531 940.215 174.224 939.745 174.844C938.615 176.32 937.244 177.596 935.689 178.616Z" fill="#C45200"/>
<path opacity="0.11" d="M952.571 131.2C952.571 131.2 951.898 131.753 951.87 133.345L952.571 132.644L953.192 131.059C952.983 131.095 952.775 131.142 952.571 131.2Z" fill="#C45200"/>
<path d="M1000.03 169.386C1003.64 169.123 1005.91 168.878 1005.91 168.878L1008.49 172.166C1009.44 176.859 1009.75 181.659 1009.4 186.434L1011.74 193.228L1012.2 197.698C1016.86 199.156 1017.69 197.028 1017.69 197.028C1017.69 197.028 1015.69 189.137 1015.82 183.921C1015.95 178.704 1019.7 170.28 1019.7 170.28C1021.15 167.798 1022.27 164.037 1023.12 160.195H1000.03V169.386Z" fill="#C45200"/>
<path d="M981.758 160.359H961.496C963.122 166.582 958.365 180.229 958.365 180.229L959.568 197.88C963.242 198.497 964.405 197.312 964.405 197.312L963.473 194.557C962.923 190.459 966.165 179.132 966.165 179.132C966.165 179.132 971.185 175.672 973.639 174.003C976.093 172.335 977.446 167.76 977.446 167.76C978.869 168.17 980.312 168.508 981.769 168.773L981.758 160.359Z" fill="#C45200"/>
<path d="M963.653 167.423C963.653 167.423 962.854 172.583 967.306 174.571C967.306 174.571 966.605 175.444 966.528 177.204C966.451 178.963 969.399 175.556 969.399 175.556C969.529 175.847 969.715 176.236 969.967 176.685C970.524 177.68 970.805 178.178 971.092 178.196C971.737 178.231 972.344 176.022 972.551 175.205C972.788 175.724 973.112 176.198 973.508 176.608C973.928 177.042 974.391 177.526 974.738 177.435C975.439 177.26 975.359 174.921 975.338 174.36C976.417 173.74 977.254 172.772 977.715 171.615C978.175 170.458 978.23 169.18 977.872 167.987C975.556 166.317 972.755 165.454 969.9 165.533C967.69 165.613 965.538 166.264 963.653 167.423Z" fill="#C45200"/>
<path d="M949.244 198.458L948.049 180.821C948.049 180.821 953.132 166.241 950.99 160.359C948.848 154.477 948.448 139.763 952.995 131.339C952.995 131.339 952.862 129.734 962.492 129.867C984.854 130.179 996.763 129.145 1028.72 128.433C1031.6 128.37 1033.89 128.297 1034.97 128.261L1034.07 135.974C1033.66 139.479 1033.25 142.976 1032.84 146.463C1032.63 149.407 1032.17 152.633 1031.58 156.11C1030.69 161.369 1029.29 167.528 1027.22 171.072C1027.22 171.072 1023.47 179.486 1023.34 184.713C1023.21 189.939 1025.21 197.817 1025.21 197.817C1025.21 197.817 1024.38 199.948 1019.73 198.486L1019.25 194.027L1016.9 187.24C1017.01 185.137 1017.05 183.384 1017.06 182.136C1017.1 180.993 1017.08 179.848 1017 178.707C1016.85 177.088 1016.51 175.492 1015.98 173.954L1013.41 169.673C1013.41 169.673 982.719 172.99 967.112 168.383C967.112 168.383 965.752 172.979 963.305 174.63C960.858 176.282 955.842 179.77 955.842 179.77C955.842 179.77 952.599 191.086 953.15 195.194L954.082 197.932C954.082 197.932 952.918 199.089 949.244 198.458Z" fill="#C45200"/>
<path d="M1015.01 107.312C1014.97 108.157 1014.83 114.127 1019.37 117.853C1020.84 119.037 1022.56 119.849 1024.41 120.22L1029.18 114.919C1029.18 114.919 1019.02 113.727 1015.01 107.312Z" fill="#C45200"/>
<path d="M1051.3 107.312C1051.3 108.29 1051.16 114.474 1046.37 118.13C1045.04 119.139 1043.52 119.856 1041.9 120.234L1036.61 115.116C1038.71 115.071 1040.79 114.667 1042.75 113.924C1046.18 112.589 1049.15 110.293 1051.3 107.312V107.312Z" fill="#C45200"/>
<path d="M1042.38 121.334C1042.38 121.334 1052.78 116.882 1056.07 125.832C1056.07 125.832 1051.14 130.551 1043.41 124.535L1042.38 121.334Z" fill="#C45200"/>
<path d="M1022.5 121.58C1022.5 121.58 1012.1 117.128 1008.81 126.074C1008.81 126.074 1013.73 130.793 1021.46 124.781L1022.5 121.58Z" fill="#C45200"/>
<path d="M1026.89 144.366C1026.89 144.366 1032.95 149.418 1039.6 144.366C1039.6 144.366 1045.49 128.027 1042.99 120.956C1040.5 113.885 1033.14 114.453 1033.14 114.453C1033.14 114.453 1023.63 114.085 1021.72 121.639C1019.82 129.194 1024.45 139.458 1026.89 144.366Z" fill="#C45200"/>
<path d="M1054.73 125.573C1054.73 125.573 1050.63 120.43 1045.01 123.767C1045.01 123.767 1049.01 129.012 1054.73 125.573Z" fill="#C45200"/>
<path d="M1010.15 125.822C1010.15 125.822 1014.25 120.679 1019.87 124.016C1019.87 124.016 1015.88 129.264 1010.15 125.822Z" fill="#C45200"/>
<path d="M949.041 195.416C949.041 195.416 951.425 196.012 953.153 195.167L954.086 197.905C954.086 197.905 952.736 199.1 949.248 198.473L949.041 195.416Z" fill="#C45200"/>
<path d="M959.354 194.802C959.354 194.802 961.738 195.398 963.47 194.553L964.399 197.291C964.343 197.333 964.262 197.393 964.164 197.456C963.839 197.663 963.485 197.819 963.113 197.919C962.595 198.04 962.062 198.081 961.531 198.042C960.873 198.023 960.216 197.962 959.565 197.859L959.354 194.802Z" fill="#C45200"/>
<path d="M1011.89 194.602C1013.62 195.067 1015.45 194.894 1017.05 194.115L1017.71 197.021C1017.58 197.23 1017.43 197.418 1017.25 197.578C1017.02 197.775 1016.55 198.101 1015.47 198.188C1014.36 198.255 1013.26 198.085 1012.23 197.69C1012.12 196.667 1012 195.654 1011.89 194.602Z" fill="#C45200"/>
<path d="M1019.39 195.381C1021.11 195.843 1022.94 195.668 1024.55 194.89L1025.2 197.796C1025.08 198.005 1024.93 198.194 1024.75 198.353C1024.52 198.553 1024.05 198.879 1022.96 198.967C1021.86 199.033 1020.76 198.862 1019.73 198.466L1019.39 195.381Z" fill="#C45200"/>
<path d="M1305.48 113.393C1297.33 117.078 1295.84 127.387 1295.67 128.664L1296.67 136.398C1299.76 135.928 1309.39 134.049 1314.48 125.984C1314.85 125.408 1319.85 117.303 1316.67 113.591C1314.28 110.826 1308.61 111.97 1305.48 113.393Z" fill="#C45200"/>
<path d="M1232.34 146.62C1229.12 151.219 1230.66 157.815 1232.95 161.838C1233.84 163.386 1236.74 168.455 1241.55 169.222C1245.14 169.784 1247.63 167.641 1252.65 168.871C1253.75 169.142 1254.82 169.535 1255.84 170.043C1255.4 166.673 1254.93 163.303 1254.44 159.933C1253.74 159.652 1253.07 159.283 1252.46 158.834C1248.1 155.639 1249.92 150.676 1246.29 146.6C1244.03 144.053 1240.08 142.306 1236.71 143.292C1234.91 143.868 1233.37 145.043 1232.34 146.62Z" fill="#C45200"/>
<path d="M1277.77 148.85C1278.9 148.559 1279.91 147.939 1280.68 147.07C1281.87 145.641 1282.46 143.292 1281.2 138.641C1278.96 130.403 1274.83 129.305 1272.4 122.887C1272.17 122.292 1268.06 110.878 1274.46 104.13C1278.49 99.9083 1285.94 98.2873 1290.71 101.212C1294.73 103.673 1295.35 108.437 1296.46 117.753C1297.99 130.675 1298.93 138.667 1294.13 147.064C1289.79 154.699 1282.97 158.715 1278.51 160.72L1277.77 148.85Z" fill="#C45200"/>
<path d="M1261.22 193.154C1261.22 193.154 1242.28 141.943 1262.32 135.062C1282.36 128.181 1281.06 168.693 1273.05 191.877C1273.05 191.877 1267 194.742 1261.22 193.154Z" fill="#C45200"/>
<path d="M300.189 56.5063H241.062V160.947H300.189V56.5063Z" fill="#C35200"/>
<path d="M344.243 191.793H204.29V259.988H344.243V191.793Z" fill="#C35200"/>
<path d="M348.939 259.994H199.821V266.87H348.939V259.994Z" fill="#C35200"/>
<path d="M304.537 107.986H233.422V112.511H304.537V107.986Z" fill="#C35200"/>
<path d="M189.118 202.043L272.478 134.246L359.641 202.043H189.118Z" fill="#C35200"/>
<path d="M227.893 59.182L271.432 0L313.36 59.182H227.893Z" fill="#C35200"/>
<path d="M271.499 189.969C281.072 189.969 288.832 182.209 288.832 172.636C288.832 163.063 281.072 155.302 271.499 155.302C261.926 155.302 254.166 163.063 254.166 172.636C254.166 182.209 261.926 189.969 271.499 189.969Z" fill="#EFCB7D"/>
<path d="M234.861 214.478C234.801 212.253 233.876 210.139 232.281 208.587C230.686 207.034 228.548 206.166 226.323 206.166C224.097 206.166 221.959 207.034 220.365 208.587C218.77 210.139 217.844 212.253 217.785 214.478C217.785 214.613 217.821 214.735 217.828 214.864V256.088H234.818V214.864C234.824 214.729 234.861 214.613 234.861 214.478Z" fill="#EFCB7D"/>
<path d="M270.36 69.407C264.984 69.5478 260.398 74.1153 259.737 80.1156V101.416H281.515V80.1156C280.842 73.901 275.944 69.26 270.36 69.407Z" fill="#EFCB7D"/>
<path d="M331.66 214.478C331.601 212.253 330.675 210.139 329.08 208.587C327.486 207.034 325.348 206.166 323.122 206.166C320.896 206.166 318.759 207.034 317.164 208.587C315.569 210.139 314.644 212.253 314.584 214.478C314.584 214.613 314.621 214.735 314.627 214.864V256.088H331.623V214.864C331.617 214.729 331.66 214.613 331.66 214.478Z" fill="#EFCB7D"/>
<path d="M217.785 237.689L234.861 237.793" stroke="#C35200" stroke-width="1.22454" stroke-miterlimit="10"/>
<path d="M217.828 214.864L226.32 219.388" stroke="#C35200" stroke-width="1.22454" stroke-miterlimit="10"/>
<path d="M234.861 214.478L226.319 219.388" stroke="#C35200" stroke-width="1.22454" stroke-miterlimit="10"/>
<path d="M226.319 256.088V219.388" stroke="#C35200" stroke-width="1.22454" stroke-miterlimit="10"/>
<path d="M314.499 238.277L331.575 238.381" stroke="#C35200" stroke-width="1.22454" stroke-miterlimit="10"/>
<path d="M314.621 214.864L323.119 219.388" stroke="#C35200" stroke-width="1.22454" stroke-miterlimit="10"/>
<path d="M331.654 214.478L323.119 219.388" stroke="#C35200" stroke-width="1.22454" stroke-miterlimit="10"/>
<path d="M323.119 256.088V219.388" stroke="#C35200" stroke-width="1.22454" stroke-miterlimit="10"/>
<path d="M265.143 156.986L265.315 188.365" stroke="#C35200" stroke-width="1.22454" stroke-miterlimit="10"/>
<path d="M276.587 156.061L276.771 189.154" stroke="#C35200" stroke-width="1.22454" stroke-miterlimit="10"/>
<path d="M255.458 178.403H288.318" stroke="#C35200" stroke-width="1.22454" stroke-miterlimit="10"/>
<path d="M254.594 166.948H287.687" stroke="#C35200" stroke-width="1.22454" stroke-miterlimit="10"/>
<path d="M270.629 87.0525V101.416" stroke="#C35200" stroke-width="1.22454" stroke-miterlimit="10"/>
<path d="M259.737 80.1155L270.629 87.0525" stroke="#C35200" stroke-width="1.22454" stroke-miterlimit="10"/>
<path d="M281.516 80.1155L270.629 87.0525" stroke="#C35200" stroke-width="1.22454" stroke-miterlimit="10"/>
<path d="M269.947 130.591L181.104 202.348L184.669 206.761L273.511 135.004L269.947 130.591Z" fill="#C35200"/>
<path d="M266.357 134.132L359.299 206.382L362.771 201.915L269.829 129.666L266.357 134.132Z" fill="#C35200"/>
</svg>
