<svg width="1422" height="1839" viewBox="0 0 1422 1839" fill="none" xmlns="http://www.w3.org/2000/svg">
<path d="M0 144.328H100.221L219.351 203.104L434.92 225.856L714.782 170.872L888.75 144.328L1104.32 127.264H1282.07L1422 170.872V2279.22H3.78193L0 144.328Z" fill="#6F1C0A"/>
<path d="M1326.49 106.578L1330.47 107.394L1329.05 103.605L1326.49 106.578Z" fill="#6F1C0A"/>
<path d="M1323.82 110.217L1325.78 106.65L1321.73 106.894L1323.82 110.217Z" fill="#6F1C0A"/>
<path d="M1327.13 97.9471L1328.82 94.2478L1324.81 94.7824L1327.13 97.9471Z" fill="#6F1C0A"/>
<path d="M1328.99 102.908L1331.66 99.8506L1327.67 99.2134L1328.99 102.908Z" fill="#6F1C0A"/>
<path d="M1316.72 87.5979C1319.34 89.0961 1321.73 90.9691 1323.8 93.1576C1326.59 96.0999 1327.62 98.3837 1327.95 99.1449C1328.78 101.112 1329.87 103.691 1328.69 105.402C1327.9 106.561 1326.43 106.787 1324.42 107.112C1322.19 107.415 1319.94 107.298 1317.76 106.766C1315.29 106.209 1312.93 105.249 1310.77 103.926C1311.72 102.205 1312.58 100.437 1313.34 98.6274C1314.84 95.0764 1315.97 91.3805 1316.72 87.5979Z" fill="#6F1C0A"/>
<path d="M1230.57 98.1097L1228.88 94.4104L1232.89 94.945L1230.57 98.1097Z" fill="#6F1C0A"/>
<path d="M1228.9 102.989L1226 100.137L1229.94 99.2046L1228.9 102.989Z" fill="#6F1C0A"/>
<path d="M1231.34 106.454L1227.4 107.471L1228.64 103.61L1231.34 106.454Z" fill="#6F1C0A"/>
<path d="M1233.89 110.379L1231.93 106.813L1235.97 107.057L1233.89 110.379Z" fill="#6F1C0A"/>
<path d="M1240.97 87.5979C1238.35 89.0961 1235.96 90.9691 1233.89 93.1576C1231.1 96.0999 1230.07 98.3837 1229.74 99.1449C1228.91 101.099 1227.82 103.678 1228.99 105.389C1229.79 106.548 1231.26 106.774 1233.27 107.1C1235.49 107.403 1237.75 107.285 1239.92 106.753C1242.39 106.196 1244.75 105.237 1246.91 103.913C1244.09 98.8179 1242.09 93.3129 1240.97 87.5979Z" fill="#6F1C0A"/>
<path d="M1307.17 57.3361C1310.79 56.2995 1314.04 54.2657 1316.56 51.4674C1319.07 48.669 1320.75 45.2192 1321.4 41.5125C1318.97 43.2231 1316.34 44.9723 1313.49 46.6958C1309.76 48.9581 1306.17 50.8912 1302.78 52.542C1303.32 53.0894 1303.85 53.6596 1304.39 54.2526C1305.36 55.2819 1306.29 56.3097 1307.17 57.3361Z" fill="#6F1C0A"/>
<path d="M1275.01 119.566H1266.04V143.507H1275.01V119.566Z" fill="#6F1C0A"/>
<path d="M1289.2 119.566H1280.22V143.507H1289.2V119.566Z" fill="#6F1C0A"/>
<path d="M1276.94 151.295H1267.96V158.736H1276.94V151.295Z" fill="#6F1C0A"/>
<path d="M1279.63 158.736H1288.6V151.294H1279.63V158.736Z" fill="#6F1C0A"/>
<path d="M1260.51 133.358C1260.51 133.358 1264.79 125.861 1276.94 132.143V152.701C1276.94 152.701 1272.01 151.234 1262.31 158.907L1251.29 159.334C1251.29 159.334 1247.11 158.218 1250.59 155.079L1260.99 147.599L1260.51 133.358Z" fill="#6F1C0A"/>
<path d="M1296.06 133.358C1296.06 133.358 1291.76 125.861 1279.63 132.143V152.701C1279.63 152.701 1284.56 151.234 1294.26 158.907L1305.28 159.334C1305.28 159.334 1309.47 158.218 1305.98 155.079L1295.59 147.616L1296.06 133.358Z" fill="#6F1C0A"/>
<path d="M1279 121.913C1300.57 121.913 1318.06 104.426 1318.06 82.8547C1318.06 61.2831 1300.57 43.7959 1279 43.7959C1257.43 43.7959 1239.94 61.2831 1239.94 82.8547C1239.94 104.426 1257.43 121.913 1279 121.913Z" fill="#6F1C0A"/>
<path d="M1315.54 105.457H1304.97V121.901H1315.54V105.457Z" fill="#6F1C0A"/>
<path d="M1304.2 105.457V108.904C1304.2 111.654 1306.91 113.882 1310.25 113.882C1313.6 113.882 1316.31 111.654 1316.31 108.904V105.457H1304.2Z" fill="#6F1C0A"/>
<path d="M1239.88 42.6928C1239.88 42.6928 1244.42 52.5505 1256.99 57.3062C1283.79 67.4975 1315.24 46.0029 1319.54 42.9195C1320.34 42.3507 1320.98 41.8717 1321.39 41.5595C1320.97 41.6963 1320.35 41.8973 1319.59 42.1326C1319.59 42.1326 1315.92 43.2616 1312.23 44.04C1309.07 44.7114 1301.6 45.7506 1291.61 45.7506C1291.66 44.7584 1291.74 43.3086 1291.81 41.5467C1291.98 37.3512 1291.93 36.7611 1291.89 36.3847C1291.67 34.3576 1291.32 31.0474 1289.25 30.0724C1287.76 29.3753 1285.66 29.9911 1284.36 30.376C1283.36 30.6668 1283.07 30.9149 1282.11 31.0517C1280.91 31.2079 1279.69 31.0939 1278.55 30.7181C1274.49 29.5036 1270.63 28.3446 1268.14 29.4351C1265.25 30.7181 1264.29 35.0418 1263 40.8025C1262.65 42.3533 1262.39 43.9244 1262.23 45.5069L1251.01 44.2239L1239.88 42.6928Z" fill="#6F1C0A"/>
<path d="M1032.53 23.3388C1031.12 24.6541 1029.52 25.7442 1027.78 26.5705C1025.98 27.4226 1020.3 30.114 1014.8 27.4746C1012.1 26.0931 1009.96 23.8208 1008.74 21.0424C1012.64 19.6932 1016.71 18.8992 1020.83 18.6835C1028.35 18.3094 1030.42 20.2111 1031.05 20.8865C1031.71 21.592 1032.21 22.4274 1032.53 23.3388Z" fill="#6F1C0A"/>
<path d="M1032.78 22.6007C1031.02 23.5886 1029.04 24.1241 1027.02 24.1594C1021.58 24.2322 1017.89 20.3458 1016.56 18.9638C1014.64 16.9522 1013.22 14.5225 1012.4 11.8665C1016.52 10.9172 1020.82 11.1551 1024.81 12.5523C1025.9 12.9561 1026.96 13.4532 1027.98 14.0383C1028.93 14.4921 1029.8 15.1034 1030.54 15.8464C1031.58 17.031 1031.9 18.4442 1032.37 20.4082C1032.58 21.333 1032.7 22.0812 1032.78 22.6007Z" fill="#6F1C0A"/>
<path d="M1032.53 23.1206C1030.62 22.8255 1028.78 22.1544 1027.13 21.1462C1022.14 18.0289 1020.71 12.8332 1020.29 11.2018C1019.59 8.61026 1019.46 5.89912 1019.9 3.25244C1025.47 5.3307 1029.33 8.08439 1030.92 9.94443C1031.67 10.837 1032.35 11.7892 1032.94 12.7916C1033.55 13.665 1034.01 14.6346 1034.29 15.6596C1034.52 17.311 1034.29 18.9941 1033.63 20.5228C1033.33 21.417 1032.96 22.2858 1032.53 23.1206Z" fill="#6F1C0A"/>
<path d="M1032.44 23.3596C1029.45 19.7647 1027.66 15.3187 1027.33 10.6511C1027.15 6.96227 1027.94 3.29092 1029.62 0C1033.28 2.54597 1035.81 6.41209 1036.68 10.7862C1037.27 13.6844 1036.91 16.6951 1035.65 19.3694C1034.86 20.9028 1033.77 22.2604 1032.44 23.3596Z" fill="#6F1C0A"/>
<path d="M1095.61 110.345C1094.15 113.462 1092.71 116.58 1089.77 119.084C1081.69 125.88 1066.72 124.28 1052.29 115.894L1053.45 105.004C1056.1 108.121 1059.85 111.696 1063.32 110.948C1066.09 110.345 1067.05 107.373 1071.21 99.2885C1078.73 84.7407 1081.6 82.7975 1083.54 81.8831C1086.75 80.3452 1091.85 79.5035 1095.41 81.8831C1102.31 86.5592 1099.72 101.481 1095.61 110.345Z" fill="#6F1C0A"/>
<path d="M993.498 82.2368C994.922 87.5467 997.01 95.2674 1004.15 99.1226C1011.79 103.279 1022.28 101.357 1030.69 94.4673L1030.2 85.0528C1029.73 85.4685 1026.28 88.4611 1022.54 87.422C1021.93 87.2558 1019.74 86.5491 1017.42 82.2783C1015.1 78.0075 1015.19 74.7031 1014.45 69.5386C1013.28 61.475 1012.37 54.9908 1008.31 52.9125C1005.08 51.2707 1000.69 52.9125 998.112 54.7102C988.219 61.7867 993.249 81.3119 993.498 82.2368Z" fill="#6F1C0A"/>
<path d="M1080.13 28.316C1083.77 30.3942 1084.73 38.302 1080.46 47.1866C1079.18 49.3934 1077.34 51.2246 1075.13 52.4965C1069.48 55.6139 1061.73 54.4813 1055.28 49.6805L1054.89 40.7855C1059.81 43.4145 1062.41 43.0612 1063.9 42.2091C1067.42 40.1932 1065.64 34.769 1069.81 30.7787C1072.63 28.0666 1077.41 26.7157 1080.13 28.316Z" fill="#6F1C0A"/>
<path d="M1033.87 151.069C1033.87 151.069 1011.75 13.3841 1039.88 11.7735C1068.02 10.1628 1059.49 86.1751 1052 151.017L1033.87 151.069Z" fill="#6F1C0A"/>
<path d="M261.077 140.662C252.8 142.199 248.531 140.378 246.201 138.403C239.449 132.68 244.924 122.51 237.64 111.205C234.601 106.475 228.18 99.747 221.83 100.705C213.292 102.041 209.343 116.881 208.668 125.076C208.467 127.619 207.569 141.809 218.022 153.385C221.57 157.288 229.622 166.251 241.329 164.879C250.068 163.862 257.719 157.453 261.432 148.395C261.302 145.817 261.183 143.239 261.077 140.662Z" fill="#6F1C0A"/>
<path d="M340.424 126.992C338.769 123.444 337.137 119.897 333.778 117.047C324.579 109.301 307.55 111.134 291.125 120.665L292.45 133.07C295.465 129.522 299.722 125.443 303.672 126.306C306.829 126.98 307.893 130.374 312.623 139.562C321.161 156.117 324.448 158.328 326.636 159.38C330.302 161.131 336.096 162.088 340.152 159.38C348.098 154.059 345.095 137.078 340.424 126.992Z" fill="#6F1C0A"/>
<path d="M267.936 221.367C267.936 221.367 242.856 64.6852 274.783 62.8287C306.711 60.9722 297.085 147.496 288.571 221.284L267.936 221.367Z" fill="#6F1C0A"/>
</svg>
