<svg width="1421" height="2511" viewBox="0 0 1421 2511" fill="none" xmlns="http://www.w3.org/2000/svg">
<path d="M0 156.88H111.566L213.678 137.92L323.354 118.96L506.777 137.92L624.016 118.96H867.95L1009.77 156.88L1335.02 170.152L1422 137.92V2633.06H0V156.88Z" fill="#DA5A00"/>
<g clip-path="url(#clip0_138_555)">
<path d="M735.745 92.8622C735.238 87.6652 734.862 82.1382 734.689 76.3059C734.47 68.8527 734.611 61.8697 734.978 55.3857C737.944 56.6371 741.143 57.2391 744.361 57.1511C748.361 57.0288 752.258 55.8536 755.659 53.7441C755.659 53.7441 767.232 59.8775 781.475 54.7341C781.475 54.7341 791.564 61.7459 804.915 56.7964C804.915 56.7964 799.376 82.7239 800.069 93.0025L735.745 92.8622Z" fill="#DA5A00"/>
<path d="M801.949 93.0149H735.184C734.53 93.0149 734 93.5449 734 94.1987V108.425C734 109.078 734.53 109.608 735.184 109.608H801.949C802.603 109.608 803.133 109.078 803.133 108.425V94.1987C803.133 93.5449 802.603 93.0149 801.949 93.0149Z" fill="#DA5A00"/>
<path d="M806.317 97.9851H802.646C802.097 97.9851 801.652 98.4302 801.652 98.9791V108.614C801.652 109.163 802.097 109.608 802.646 109.608H806.317C806.866 109.608 807.311 109.163 807.311 108.614V98.9791C807.311 98.4302 806.866 97.9851 806.317 97.9851Z" fill="#DA5A00"/>
<path d="M844.001 123.415L806.041 101.499L804.868 103.532L842.828 125.448L844.001 123.415Z" fill="#DA5A00"/>
<path d="M795.353 120.211L779.115 103.1L778.17 103.998L794.407 121.108L795.353 120.211Z" fill="#DA5A00"/>
<path d="M798.555 111.654H774.966V112.957H798.555V111.654Z" fill="#DA5A00"/>
<path d="M796.791 104.385L778.002 118.646L778.79 119.685L797.579 105.423L796.791 104.385Z" fill="#DA5A00"/>
<path d="M786.52 100.237V123.826H787.823V100.237H786.52Z" fill="#DA5A00"/>
<path d="M787.286 123.541C793.808 123.541 799.095 118.254 799.095 111.732C799.095 105.211 793.808 99.9236 787.286 99.9236C780.765 99.9236 775.478 105.211 775.478 111.732C775.478 118.254 780.765 123.541 787.286 123.541Z" stroke="#DA5A00" stroke-width="1.64986" stroke-miterlimit="10"/>
<path d="M758.681 120.436L742.443 103.325L741.498 104.223L757.735 121.333L758.681 120.436Z" fill="#DA5A00"/>
<path d="M761.883 111.881H738.294V113.184H761.883V111.881Z" fill="#DA5A00"/>
<path d="M760.117 104.607L741.328 118.869L742.116 119.907L760.905 105.645L760.117 104.607Z" fill="#DA5A00"/>
<path d="M749.847 100.464V124.053H751.15V100.464H749.847Z" fill="#DA5A00"/>
<path d="M750.618 123.768C757.14 123.768 762.427 118.481 762.427 111.959C762.427 105.438 757.14 100.151 750.618 100.151C744.097 100.151 738.81 105.438 738.81 111.959C738.81 118.481 744.097 123.768 750.618 123.768Z" stroke="#DA5A00" stroke-width="1.64986" stroke-miterlimit="10"/>
<path d="M805.711 104.18C806.297 104.18 806.771 103.706 806.771 103.12C806.771 102.535 806.297 102.06 805.711 102.06C805.126 102.06 804.651 102.535 804.651 103.12C804.651 103.706 805.126 104.18 805.711 104.18Z" fill="#DA5A00"/>
</g>
<path d="M1094.03 45.0523L1158.32 3.47803L1226.51 43.5155L1094.03 45.0523Z" fill="#DA5A00"/>
<path d="M1156.01 1.04346L1087.75 45.0117L1090.55 47.6288L1158.81 3.66055L1156.01 1.04346Z" fill="#DA5A00"/>
<path d="M1156.23 0.744141L1228.94 43.419L1226.28 46.1376L1153.57 3.46267L1156.23 0.744141Z" fill="#DA5A00"/>
<path d="M1058.1 114.091H1052.94V197.98H1058.1V114.091Z" fill="#DA5A00"/>
<path d="M1264.03 114.071H1258.88V196.747H1264.03V114.071Z" fill="#DA5A00"/>
<path d="M1215.19 42.3286H1101.5V79.1252H1215.19V42.3286Z" fill="#DA5A00"/>
<path d="M1237.21 60.9626H1071.39V102.684H1237.21V60.9626Z" fill="#DA5A00"/>
<path d="M1243.29 60.7903H1065.32V64.3203H1243.29V60.7903Z" fill="#DA5A00"/>
<path d="M1215.19 60.7903H1101.5V64.3203H1215.19V60.7903Z" fill="#DA5A00"/>
<path d="M1251.26 116.023H1066.46V191.483H1251.26V116.023Z" fill="#DA5A00"/>
<path d="M1239.08 133.019H1189.03V161.832H1239.08V133.019Z" fill="#EFCB7D"/>
<path d="M1128.98 133.019H1078.92V161.832H1128.98V133.019Z" fill="#EFCB7D"/>
<path d="M1094.99 133.019V161.832" stroke="#DA5A00" stroke-width="1.01438" stroke-miterlimit="10"/>
<path d="M1070.16 111.545L1054.67 137.356" stroke="#DA5A00" stroke-width="3.04313" stroke-miterlimit="10"/>
<path d="M1247.16 112.361L1261.95 138.446" stroke="#DA5A00" stroke-width="3.04313" stroke-miterlimit="10"/>
<path d="M1113.43 133.019V161.832" stroke="#DA5A00" stroke-width="1.01438" stroke-miterlimit="10"/>
<path d="M1206.08 133.019V161.832" stroke="#DA5A00" stroke-width="1.01438" stroke-miterlimit="10"/>
<path d="M1224.53 133.019V161.832" stroke="#DA5A00" stroke-width="1.01438" stroke-miterlimit="10"/>
<path d="M1189.03 147.423H1239.08" stroke="#DA5A00" stroke-width="1.01438" stroke-miterlimit="10"/>
<path d="M1078.92 147.21H1128.97" stroke="#DA5A00" stroke-width="1.01438" stroke-miterlimit="10"/>
<path d="M1071.39 94.209L1050.81 116.018H1267.01C1257.08 108.745 1247.14 101.475 1237.21 94.209H1071.39Z" fill="#DA5A00"/>
<path d="M1271 191.483H1047V197.98H1271V191.483Z" fill="#DA5A00"/>
<defs>
<clipPath id="clip0_138_555">
<rect width="110" height="71.7027" fill="white" transform="translate(734 53.7441)"/>
</clipPath>
</defs>
</svg>
