<svg width="1421" height="1617" viewBox="0 0 1421 1617" fill="none" xmlns="http://www.w3.org/2000/svg">
<path d="M0 212.352L115.656 153.576L252.168 142.2L420.912 164.952L663.6 238.896L948 225.624L1080.72 212.352L1200.17 238.896L1422 254.064V2787.12H0V212.352Z" fill="#4A1001"/>
<path d="M170.029 25.8528C168.471 27.3098 166.696 28.5173 164.769 29.4326C162.778 30.3765 156.481 33.3577 150.392 30.434C147.401 28.9037 145.03 26.3866 143.682 23.309C147.999 21.8145 152.506 20.9349 157.068 20.6961C165.402 20.2817 167.693 22.3881 168.395 23.1363C169.123 23.9178 169.68 24.8432 170.029 25.8528Z" fill="#4A1001"/>
<path d="M170.305 25.0355C168.355 26.1298 166.164 26.723 163.928 26.7621C157.897 26.8427 153.811 22.5377 152.337 21.0068C150.214 18.7785 148.638 16.0871 147.733 13.1451C152.294 12.0935 157.059 12.357 161.477 13.9048C162.692 14.352 163.866 14.9027 164.987 15.5508C166.041 16.0534 167.002 16.7306 167.83 17.5536C168.981 18.8658 169.338 20.4313 169.856 22.6068C170.086 23.6312 170.225 24.46 170.305 25.0355Z" fill="#4A1001"/>
<path d="M170.028 25.611C167.911 25.2842 165.881 24.5408 164.054 23.424C158.517 19.9708 156.94 14.2155 156.468 12.4084C155.696 9.53772 155.551 6.53455 156.042 3.60278C162.212 5.9049 166.482 8.95521 168.244 11.0156C169.076 12.0043 169.827 13.0591 170.488 14.1695C171.162 15.1369 171.668 16.2109 171.985 17.3464C172.24 19.1757 171.985 21.04 171.248 22.7334C170.919 23.724 170.511 24.6863 170.028 25.611Z" fill="#4A1001"/>
<path d="M169.936 25.8758C166.618 21.8937 164.636 16.9688 164.272 11.7984C164.075 7.71221 164.948 3.6454 166.805 0C170.861 2.82021 173.667 7.10277 174.632 11.948C175.283 15.1585 174.879 18.4934 173.481 21.4557C172.611 23.1543 171.405 24.6582 169.936 25.8758Z" fill="#4A1001"/>
<path d="M239.91 122.231C238.287 125.684 236.698 129.137 233.441 131.911C224.485 139.439 207.91 137.667 191.922 128.378L193.211 116.315C196.146 119.768 200.29 123.727 204.135 122.899C207.208 122.231 208.267 118.939 212.883 109.984C221.205 93.869 224.393 91.7165 226.534 90.7035C230.091 89 235.743 88.0676 239.691 90.7035C247.334 95.8833 244.456 112.413 239.91 122.231Z" fill="#4A1001"/>
<path d="M126.796 91.0947C128.372 96.9766 130.686 105.529 138.594 109.799C147.054 114.404 158.68 112.274 167.992 104.643L167.451 94.2141C166.933 94.6745 163.111 97.9896 158.968 96.8385C158.288 96.6543 155.86 95.8716 153.293 91.1408C150.726 86.4099 150.83 82.7495 150.001 77.0288C148.712 68.0966 147.699 60.914 143.198 58.6118C139.63 56.7932 134.761 58.6118 131.906 60.6032C120.948 68.4419 126.519 90.0703 126.796 91.0947Z" fill="#4A1001"/>
<path d="M222.759 31.3665C226.787 33.6686 227.858 42.4282 223.127 52.2697C221.708 54.7143 219.672 56.7427 217.222 58.1516C210.96 61.6048 202.373 60.3502 195.225 55.0323L194.799 45.1792C200.244 48.0914 203.133 47.7 204.779 46.7562C208.681 44.5231 206.701 38.5146 211.329 34.0945C214.448 31.0902 219.743 29.5939 222.759 31.3665Z" fill="#4A1001"/>
<path d="M171.513 167.341C171.513 167.341 147.007 14.8257 178.177 13.0415C209.348 11.2574 199.898 95.4574 191.599 167.283L171.513 167.341Z" fill="#4A1001"/>
<path d="M1339.89 185.828C1330.77 187.523 1326.06 185.515 1323.49 183.339C1316.05 177.03 1322.08 165.82 1314.05 153.358C1310.7 148.144 1303.63 140.727 1296.63 141.783C1287.22 143.256 1282.86 159.615 1282.12 168.648C1281.9 171.451 1280.91 187.093 1292.43 199.854C1296.34 204.155 1305.22 214.036 1318.12 212.524C1327.75 211.403 1336.19 204.338 1340.28 194.353C1340.14 191.512 1340.01 188.67 1339.89 185.828Z" fill="#4A1001"/>
<path d="M1427.35 170.76C1425.53 166.849 1423.73 162.939 1420.03 159.797C1409.89 151.259 1391.12 153.28 1373.01 163.786L1374.47 177.46C1377.8 173.549 1382.49 169.052 1386.84 170.004C1390.32 170.747 1391.5 174.488 1396.71 184.616C1406.12 202.865 1409.74 205.302 1412.16 206.462C1416.2 208.392 1422.58 209.447 1427.05 206.462C1435.81 200.597 1432.5 181.878 1427.35 170.76Z" fill="#4A1001"/>
<path d="M1347.45 274.792C1347.45 274.792 1319.81 102.079 1355 100.032C1390.19 97.9859 1379.58 193.362 1370.2 274.7L1347.45 274.792Z" fill="#4A1001"/>
<path d="M1148.91 83.8548C1151.21 82.5924 1153.31 80.9845 1155.13 79.087C1157.94 76.1311 1160.02 72.5567 1161.2 68.6511L1144.42 76.1084L1148.91 83.8548Z" fill="#4A1001"/>
<path d="M1090.09 83.3911L1092.52 78.7214C1090.49 77.2121 1088.44 75.6956 1086.37 74.1718C1083.32 71.946 1080.29 69.7639 1077.28 67.6255C1077.3 69.8283 1077.78 72.0026 1078.68 74.0135C1081.77 80.8217 1088.77 83.0037 1090.09 83.3911Z" fill="#4A1001"/>
<path d="M1056.4 153.682L1053 157.599L1058.11 158.368L1056.4 153.682Z" fill="#4A1001"/>
<path d="M1060.02 160.25L1060.27 165.427L1064.49 162.459L1060.02 160.25Z" fill="#4A1001"/>
<path d="M1068.82 162.819L1071.85 167.025L1073.77 162.23L1068.82 162.819Z" fill="#4A1001"/>
<path d="M1079.41 156.475L1076.49 160.763L1081.65 160.927L1079.41 156.475Z" fill="#4A1001"/>
<path d="M1182.32 153.573L1185.72 157.49L1180.62 158.259L1182.32 153.573Z" fill="#4A1001"/>
<path d="M1178.71 160.534L1178.45 165.711L1174.23 162.738L1178.71 160.534Z" fill="#4A1001"/>
<path d="M1169.9 162.955L1166.87 167.156L1164.95 162.366L1169.9 162.955Z" fill="#4A1001"/>
<path d="M1159.32 156.366L1162.23 160.654L1157.07 160.823L1159.32 156.366Z" fill="#4A1001"/>
<path d="M1116.25 185.835H1104.8V216.373H1116.25V185.835Z" fill="#4A1001"/>
<path d="M1134.34 185.835H1122.9V216.373H1134.34V185.835Z" fill="#4A1001"/>
<path d="M1088.03 116.614V130.252C1086.29 130.217 1084.59 130.768 1083.2 131.817C1082.73 132.188 1081.26 133.487 1080.4 137.66C1079.31 142.908 1080.4 146.999 1080.13 152.471C1080.08 153.661 1079.92 154.845 1079.65 156.006C1079.41 157.061 1079.07 158.091 1078.64 159.082C1077.12 162.257 1071.55 163.921 1066.95 163.572C1065.55 163.468 1060.4 163.081 1057.75 159.208C1057.25 158.468 1056.86 157.657 1056.6 156.802C1056.33 155.835 1056.1 154.853 1055.94 153.862C1055.43 150.721 1055.43 147.521 1055.94 144.381C1056.57 140.295 1057.98 136.369 1060.09 132.816C1062.14 129.475 1064.76 126.521 1067.83 124.087C1069.87 122.464 1072.09 121.08 1074.45 119.963C1078.71 117.957 1083.33 116.819 1088.03 116.614Z" fill="#4A1001"/>
<path d="M1150.48 116.63V130.224C1152.22 130.194 1153.92 130.747 1155.31 131.795C1155.77 132.166 1157.25 133.459 1158.11 137.632C1159.2 142.886 1158.11 146.977 1158.38 152.449C1158.42 153.638 1158.59 154.82 1158.86 155.978C1159.1 157.039 1159.45 158.075 1159.88 159.071C1161.4 162.246 1166.97 163.905 1171.58 163.561C1172.98 163.457 1178.12 163.07 1180.78 159.197C1181.28 158.459 1181.67 157.647 1181.92 156.791C1182.2 155.824 1182.42 154.843 1182.59 153.851C1183.09 150.71 1183.09 147.51 1182.59 144.37C1181.95 140.286 1180.54 136.363 1178.41 132.816C1176.37 129.474 1173.75 126.52 1170.68 124.087C1168.64 122.466 1166.41 121.084 1164.06 119.968C1159.8 117.957 1155.18 116.822 1150.48 116.63Z" fill="#4A1001"/>
<path d="M1119.41 63.6108H1119.41C1101.99 63.6108 1087.87 77.7327 1087.87 95.1529V157.882C1087.87 175.303 1101.99 189.425 1119.41 189.425H1119.41C1136.83 189.425 1150.95 175.303 1150.95 157.882V95.1529C1150.95 77.7327 1136.83 63.6108 1119.41 63.6108Z" fill="#4A1001"/>
<path d="M1131.19 111.937C1133.09 110.631 1134.06 108.735 1133.36 107.704C1132.65 106.673 1130.53 106.896 1128.62 108.203C1126.72 109.51 1125.75 111.406 1126.45 112.437C1127.16 113.468 1129.28 113.244 1131.19 111.937Z" fill="#4A1001"/>
<path d="M1113.11 113.035C1113.82 112.01 1112.86 110.111 1110.97 108.794C1109.07 107.477 1106.96 107.24 1106.25 108.265C1105.53 109.29 1106.49 111.189 1108.39 112.507C1110.28 113.824 1112.39 114.06 1113.11 113.035Z" fill="#4A1001"/>
<path d="M1117.9 231.795H1106.45V241.287H1117.9V231.795Z" fill="#4A1001"/>
<path d="M1120.52 241.282H1131.97V231.79H1120.52V241.282Z" fill="#4A1001"/>
<path d="M1096.94 208.905C1096.94 208.905 1102.42 199.337 1117.92 207.383V233.568C1117.92 233.568 1111.63 231.702 1099.27 241.489L1085.2 242.035C1085.2 242.035 1079.87 240.611 1084.31 236.607L1097.55 227.076L1096.94 208.905Z" fill="#4A1001"/>
<path d="M1141.47 208.905C1141.47 208.905 1135.99 199.337 1120.52 207.356V233.568C1120.52 233.568 1126.8 231.702 1139.17 241.489L1153.23 242.035C1153.23 242.035 1158.58 240.611 1154.12 236.607L1140.86 227.076L1141.47 208.905Z" fill="#4A1001"/>
<path d="M1077.28 67.604C1081.38 72.1849 1086.36 75.8951 1091.92 78.5144C1102.64 83.5496 1112.36 82.7968 1120.46 82.1912C1124.4 81.8967 1136.19 80.7129 1148.35 74.9903C1151.49 73.512 1161.2 68.6514 1161.2 68.6514C1161.2 68.6514 1158.26 68.7005 1141.67 65.4983L1140.35 62.5361C1140.54 59.323 1140.6 56.5954 1140.6 54.506C1140.6 46.9614 1140.02 45.063 1138.63 43.9556C1137.8 43.3064 1136.99 43.1592 1135.54 42.9137C1132.23 42.4024 1128.85 42.8276 1125.77 44.1411C1123.35 43.241 1108.91 38.0149 1104.49 43.4046C1103.82 44.2284 1103.27 45.4285 1102.52 57.2609C1102.3 60.8177 1102.15 63.8072 1102.06 65.8856L1100.52 66.8621C1100.52 66.8621 1086.9 67.6422 1077.28 67.604Z" fill="#4A1001"/>
</svg>
